<?xml version="1.0" encoding="UTF-8" standalone="no"?>
<!DOCTYPE svg PUBLIC "-//W3C//DTD SVG 1.1//EN"
 "http://www.w3.org/Graphics/SVG/1.1/DTD/svg11.dtd">
<!-- Generated by graphviz version 11.0.0 (20240428.1522)
 -->
<!-- Title: TVector.h Pages: 1 -->
<svg width="183pt" height="140pt"
 viewBox="0.00 0.00 182.62 140.00" xmlns="http://www.w3.org/2000/svg" xmlns:xlink="http://www.w3.org/1999/xlink">
<g id="graph0" class="graph" transform="scale(1 1) rotate(0) translate(4 136)">
<title>TVector.h</title>
<!-- Node1 -->
<g id="Node000001" class="node">
<title>Node1</title>
<g id="a_Node000001"><a xlink:title="Definice typu Sortable Vector.">
<polygon fill="#999999" stroke="#666666" points="100,-132 42,-132 42,-112 100,-112 100,-132"/>
<text text-anchor="middle" x="71" y="-118.5" font-family="Helvetica,sans-Serif" font-size="10.00">TVector.h</text>
</a>
</g>
</g>
<!-- Node2 -->
<g id="Node000002" class="node">
<title>Node2</title>
<g id="a_Node000002"><a xlink:href="_t_vector_8c.html" target="_top" xlink:title="Implementace Sortable Vector API.">
<polygon fill="white" stroke="#666666" points="58,-76 0,-76 0,-56 58,-56 58,-76"/>
<text text-anchor="middle" x="29" y="-62.5" font-family="Helvetica,sans-Serif" font-size="10.00">TVector.c</text>
</a>
</g>
</g>
<!-- Node1&#45;&gt;Node2 -->
<g id="edge1_Node000001_Node000002" class="edge">
<title>Node1&#45;&gt;Node2</title>
<g id="a_edge1_Node000001_Node000002"><a xlink:title=" ">
<path fill="none" stroke="#63b8ff" d="M56.78,-102.72C49.87,-93.84 41.87,-83.55 36.23,-76.3"/>
<polygon fill="#63b8ff" stroke="#63b8ff" points="53.85,-104.65 62.75,-110.4 59.38,-100.36 53.85,-104.65"/>
</a>
</g>
</g>
<!-- Node3 -->
<g id="Node000003" class="node">
<title>Node3</title>
<g id="a_Node000003"><a xlink:href="basic__sorts_8h.html" target="_top" xlink:title="Deklarace API přímých metod třídění">
<polygon fill="white" stroke="#666666" points="150.25,-76 75.75,-76 75.75,-56 150.25,-56 150.25,-76"/>
<text text-anchor="middle" x="113" y="-62.5" font-family="Helvetica,sans-Serif" font-size="10.00">basic_sorts.h</text>
</a>
</g>
</g>
<!-- Node1&#45;&gt;Node3 -->
<g id="edge2_Node000001_Node000003" class="edge">
<title>Node1&#45;&gt;Node3</title>
<g id="a_edge2_Node000001_Node000003"><a xlink:title=" ">
<path fill="none" stroke="#63b8ff" d="M85.22,-102.72C92.13,-93.84 100.13,-83.55 105.77,-76.3"/>
<polygon fill="#63b8ff" stroke="#63b8ff" points="82.62,-100.36 79.25,-110.4 88.15,-104.65 82.62,-100.36"/>
</a>
</g>
</g>
<!-- Node4 -->
<g id="Node000004" class="node">
<title>Node4</title>
<g id="a_Node000004"><a xlink:href="basic__sorts_8c.html" target="_top" xlink:title="Implementace API přímých metod třídění">
<polygon fill="white" stroke="#666666" points="111.25,-20 36.75,-20 36.75,0 111.25,0 111.25,-20"/>
<text text-anchor="middle" x="74" y="-6.5" font-family="Helvetica,sans-Serif" font-size="10.00">basic_sorts.c</text>
</a>
</g>
</g>
<!-- Node3&#45;&gt;Node4 -->
<g id="edge3_Node000003_Node000004" class="edge">
<title>Node3&#45;&gt;Node4</title>
<g id="a_edge3_Node000003_Node000004"><a xlink:title=" ">
<path fill="none" stroke="#63b8ff" d="M99.59,-46.44C93.23,-37.62 85.89,-27.47 80.72,-20.3"/>
<polygon fill="#63b8ff" stroke="#63b8ff" points="96.63,-48.31 105.32,-54.37 102.3,-44.21 96.63,-48.31"/>
</a>
</g>
</g>
<!-- Node5 -->
<g id="Node000005" class="node">
<title>Node5</title>
<g id="a_Node000005"><a xlink:href="main_8c.html" target="_top" xlink:title="Hlavní program testující API přímých metod třídění">
<polygon fill="white" stroke="#666666" points="174.62,-20 129.38,-20 129.38,0 174.62,0 174.62,-20"/>
<text text-anchor="middle" x="152" y="-6.5" font-family="Helvetica,sans-Serif" font-size="10.00">main.c</text>
</a>
</g>
</g>
<!-- Node3&#45;&gt;Node5 -->
<g id="edge4_Node000003_Node000005" class="edge">
<title>Node3&#45;&gt;Node5</title>
<g id="a_edge4_Node000003_Node000005"><a xlink:title=" ">
<path fill="none" stroke="#63b8ff" d="M126.41,-46.44C132.77,-37.62 140.11,-27.47 145.28,-20.3"/>
<polygon fill="#63b8ff" stroke="#63b8ff" points="123.7,-44.21 120.68,-54.37 129.37,-48.31 123.7,-44.21"/>
</a>
</g>
</g>
</g>
</svg>
