<?xml version="1.0" encoding="UTF-8" standalone="no"?>
<!DOCTYPE svg PUBLIC "-//W3C//DTD SVG 1.1//EN"
 "http://www.w3.org/Graphics/SVG/1.1/DTD/svg11.dtd">
<!-- Generated by graphviz version 11.0.0 (20240428.1522)
 -->
<!-- Title: TVector.c Pages: 1 -->
<svg width="387pt" height="196pt"
 viewBox="0.00 0.00 386.72 196.00" xmlns="http://www.w3.org/2000/svg" xmlns:xlink="http://www.w3.org/1999/xlink">
<g id="graph0" class="graph" transform="scale(1 1) rotate(0) translate(4 192)">
<title>TVector.c</title>
<!-- Node1 -->
<g id="Node000001" class="node">
<title>Node1</title>
<g id="a_Node000001"><a xlink:title="Implementace Sortable Vector API.">
<polygon fill="#999999" stroke="#666666" points="146.75,-188 88.75,-188 88.75,-168 146.75,-168 146.75,-188"/>
<text text-anchor="middle" x="117.75" y="-174.5" font-family="Helvetica,sans-Serif" font-size="10.00">TVector.c</text>
</a>
</g>
</g>
<!-- Node2 -->
<g id="Node000002" class="node">
<title>Node2</title>
<g id="a_Node000002"><a xlink:title=" ">
<polygon fill="#e0e0e0" stroke="#999999" points="47.5,-20 0,-20 0,0 47.5,0 47.5,-20"/>
<text text-anchor="middle" x="23.75" y="-6.5" font-family="Helvetica,sans-Serif" font-size="10.00">stdlib.h</text>
</a>
</g>
</g>
<!-- Node1&#45;&gt;Node2 -->
<g id="edge1_Node000001_Node000002" class="edge">
<title>Node1&#45;&gt;Node2</title>
<g id="a_edge1_Node000001_Node000002"><a xlink:title=" ">
<path fill="none" stroke="#63b8ff" d="M112.43,-167.6C97.43,-141.12 54.63,-65.54 34.48,-29.96"/>
<polygon fill="#63b8ff" stroke="#63b8ff" points="37.73,-28.59 29.76,-21.61 31.64,-32.04 37.73,-28.59"/>
</a>
</g>
</g>
<!-- Node3 -->
<g id="Node000003" class="node">
<title>Node3</title>
<g id="a_Node000003"><a xlink:title=" ">
<polygon fill="#e0e0e0" stroke="#999999" points="116.38,-20 65.12,-20 65.12,0 116.38,0 116.38,-20"/>
<text text-anchor="middle" x="90.75" y="-6.5" font-family="Helvetica,sans-Serif" font-size="10.00">assert.h</text>
</a>
</g>
</g>
<!-- Node1&#45;&gt;Node3 -->
<g id="edge2_Node000001_Node000003" class="edge">
<title>Node1&#45;&gt;Node3</title>
<g id="a_edge2_Node000001_Node000003"><a xlink:title=" ">
<path fill="none" stroke="#63b8ff" d="M116.22,-167.6C111.97,-141.46 99.94,-67.48 94.06,-31.36"/>
<polygon fill="#63b8ff" stroke="#63b8ff" points="97.57,-31.1 92.51,-21.79 90.66,-32.22 97.57,-31.1"/>
</a>
</g>
</g>
<!-- Node4 -->
<g id="Node000004" class="node">
<title>Node4</title>
<g id="a_Node000004"><a xlink:href="_t_vector_8h.html" target="_top" xlink:title="Definice typu Sortable Vector.">
<polygon fill="white" stroke="#666666" points="240.75,-132 182.75,-132 182.75,-112 240.75,-112 240.75,-132"/>
<text text-anchor="middle" x="211.75" y="-118.5" font-family="Helvetica,sans-Serif" font-size="10.00">TVector.h</text>
</a>
</g>
</g>
<!-- Node1&#45;&gt;Node4 -->
<g id="edge3_Node000001_Node000004" class="edge">
<title>Node1&#45;&gt;Node4</title>
<g id="a_edge3_Node000001_Node000004"><a xlink:title=" ">
<path fill="none" stroke="#63b8ff" d="M134.12,-167.59C148.32,-159.44 169.13,-147.48 185.63,-138"/>
<polygon fill="#63b8ff" stroke="#63b8ff" points="187.01,-141.25 193.94,-133.23 183.52,-135.18 187.01,-141.25"/>
</a>
</g>
</g>
<!-- Node9 -->
<g id="Node000009" class="node">
<title>Node9</title>
<g id="a_Node000009"><a xlink:title=" ">
<polygon fill="#e0e0e0" stroke="#999999" points="322,-20 271.5,-20 271.5,0 322,0 322,-20"/>
<text text-anchor="middle" x="296.75" y="-6.5" font-family="Helvetica,sans-Serif" font-size="10.00">check.h</text>
</a>
</g>
</g>
<!-- Node1&#45;&gt;Node9 -->
<g id="edge14_Node000001_Node000009" class="edge">
<title>Node1&#45;&gt;Node9</title>
<g id="a_edge14_Node000001_Node000009"><a xlink:title=" ">
<path fill="none" stroke="#63b8ff" d="M147.21,-175.8C203.29,-171.72 324.32,-153.86 374.75,-76 389.22,-53.67 359.5,-35.07 332.68,-23.57"/>
<polygon fill="#63b8ff" stroke="#63b8ff" points="334.24,-20.43 323.66,-19.94 331.63,-26.92 334.24,-20.43"/>
</a>
</g>
</g>
<!-- Node5 -->
<g id="Node000005" class="node">
<title>Node5</title>
<g id="a_Node000005"><a xlink:title=" ">
<polygon fill="#e0e0e0" stroke="#999999" points="179.38,-20 134.12,-20 134.12,0 179.38,0 179.38,-20"/>
<text text-anchor="middle" x="156.75" y="-6.5" font-family="Helvetica,sans-Serif" font-size="10.00">stdio.h</text>
</a>
</g>
</g>
<!-- Node4&#45;&gt;Node5 -->
<g id="edge4_Node000004_Node000005" class="edge">
<title>Node4&#45;&gt;Node5</title>
<g id="a_edge4_Node000004_Node000005"><a xlink:title=" ">
<path fill="none" stroke="#63b8ff" d="M182.25,-115.38C160.57,-109.54 132.57,-98.03 118.75,-76 108.63,-59.86 122.35,-41.03 136.05,-27.8"/>
<polygon fill="#63b8ff" stroke="#63b8ff" points="138.11,-30.65 143.23,-21.37 133.44,-25.43 138.11,-30.65"/>
</a>
</g>
</g>
<!-- Node6 -->
<g id="Node000006" class="node">
<title>Node6</title>
<g id="a_Node000006"><a xlink:title=" ">
<polygon fill="#e0e0e0" stroke="#999999" points="253.62,-20 197.88,-20 197.88,0 253.62,0 253.62,-20"/>
<text text-anchor="middle" x="225.75" y="-6.5" font-family="Helvetica,sans-Serif" font-size="10.00">stdbool.h</text>
</a>
</g>
</g>
<!-- Node4&#45;&gt;Node6 -->
<g id="edge5_Node000004_Node000006" class="edge">
<title>Node4&#45;&gt;Node6</title>
<g id="a_edge5_Node000004_Node000006"><a xlink:title=" ">
<path fill="none" stroke="#63b8ff" d="M216.98,-111.7C221.64,-102.84 228.12,-88.97 230.75,-76 233.75,-61.2 232.26,-44.18 230.15,-31.27"/>
<polygon fill="#63b8ff" stroke="#63b8ff" points="233.67,-31.01 228.35,-21.84 226.79,-32.32 233.67,-31.01"/>
</a>
</g>
</g>
<!-- Node7 -->
<g id="Node000007" class="node">
<title>Node7</title>
<g id="a_Node000007"><a xlink:title=" ">
<polygon fill="#e0e0e0" stroke="#999999" points="366,-76 315.5,-76 315.5,-56 366,-56 366,-76"/>
<text text-anchor="middle" x="340.75" y="-62.5" font-family="Helvetica,sans-Serif" font-size="10.00">stddef.h</text>
</a>
</g>
</g>
<!-- Node4&#45;&gt;Node7 -->
<g id="edge6_Node000004_Node000007" class="edge">
<title>Node4&#45;&gt;Node7</title>
<g id="a_edge6_Node000004_Node000007"><a xlink:title=" ">
<path fill="none" stroke="#63b8ff" d="M234.22,-111.59C254.54,-103.09 284.7,-90.46 307.76,-80.81"/>
<polygon fill="#63b8ff" stroke="#63b8ff" points="308.84,-84.15 316.71,-77.06 306.13,-77.7 308.84,-84.15"/>
</a>
</g>
</g>
<!-- Node8 -->
<g id="Node000008" class="node">
<title>Node8</title>
<g id="a_Node000008"><a xlink:href="_t_vector_element_8h.html" target="_top" xlink:title="Definice typu Basic VectorElement a implementace API.">
<polygon fill="white" stroke="#666666" points="221.75,-76 127.75,-76 127.75,-56 221.75,-56 221.75,-76"/>
<text text-anchor="middle" x="174.75" y="-62.5" font-family="Helvetica,sans-Serif" font-size="10.00">TVectorElement.h</text>
</a>
</g>
</g>
<!-- Node4&#45;&gt;Node8 -->
<g id="edge7_Node000004_Node000008" class="edge">
<title>Node4&#45;&gt;Node8</title>
<g id="a_edge7_Node000004_Node000008"><a xlink:title=" ">
<path fill="none" stroke="#63b8ff" d="M205.31,-111.59C200.42,-104.47 193.56,-94.45 187.57,-85.72"/>
<polygon fill="#63b8ff" stroke="#63b8ff" points="190.52,-83.82 181.98,-77.55 184.74,-87.77 190.52,-83.82"/>
</a>
</g>
</g>
<!-- Node4&#45;&gt;Node9 -->
<g id="edge13_Node000004_Node000009" class="edge">
<title>Node4&#45;&gt;Node9</title>
<g id="a_edge13_Node000004_Node000009"><a xlink:title=" ">
<path fill="none" stroke="#63b8ff" d="M219,-111.62C233.05,-93.44 264.22,-53.09 282.54,-29.38"/>
<polygon fill="#63b8ff" stroke="#63b8ff" points="285.25,-31.61 288.6,-21.55 279.71,-27.33 285.25,-31.61"/>
</a>
</g>
</g>
<!-- Node8&#45;&gt;Node2 -->
<g id="edge9_Node000008_Node000002" class="edge">
<title>Node8&#45;&gt;Node2</title>
<g id="a_edge9_Node000008_Node000002"><a xlink:title=" ">
<path fill="none" stroke="#63b8ff" d="M148.45,-55.59C123.49,-46.67 85.84,-33.21 58.44,-23.41"/>
<polygon fill="#63b8ff" stroke="#63b8ff" points="59.78,-20.17 49.18,-20.1 57.42,-26.76 59.78,-20.17"/>
</a>
</g>
</g>
<!-- Node8&#45;&gt;Node3 -->
<g id="edge11_Node000008_Node000003" class="edge">
<title>Node8&#45;&gt;Node3</title>
<g id="a_edge11_Node000008_Node000003"><a xlink:title=" ">
<path fill="none" stroke="#63b8ff" d="M160.12,-55.59C147.67,-47.59 129.53,-35.93 114.93,-26.54"/>
<polygon fill="#63b8ff" stroke="#63b8ff" points="117.07,-23.76 106.77,-21.3 113.29,-29.65 117.07,-23.76"/>
</a>
</g>
</g>
<!-- Node8&#45;&gt;Node5 -->
<g id="edge8_Node000008_Node000005" class="edge">
<title>Node8&#45;&gt;Node5</title>
<g id="a_edge8_Node000008_Node000005"><a xlink:title=" ">
<path fill="none" stroke="#63b8ff" d="M171.61,-55.59C169.37,-48.86 166.26,-39.53 163.47,-31.15"/>
<polygon fill="#63b8ff" stroke="#63b8ff" points="166.81,-30.11 160.33,-21.73 160.17,-32.33 166.81,-30.11"/>
</a>
</g>
</g>
<!-- Node8&#45;&gt;Node6 -->
<g id="edge10_Node000008_Node000006" class="edge">
<title>Node8&#45;&gt;Node6</title>
<g id="a_edge10_Node000008_Node000006"><a xlink:title=" ">
<path fill="none" stroke="#63b8ff" d="M183.63,-55.59C190.65,-48.16 200.65,-37.58 209.14,-28.58"/>
<polygon fill="#63b8ff" stroke="#63b8ff" points="211.61,-31.07 215.93,-21.4 206.52,-26.27 211.61,-31.07"/>
</a>
</g>
</g>
<!-- Node8&#45;&gt;Node9 -->
<g id="edge12_Node000008_Node000009" class="edge">
<title>Node8&#45;&gt;Node9</title>
<g id="a_edge12_Node000008_Node000009"><a xlink:title=" ">
<path fill="none" stroke="#63b8ff" d="M196,-55.59C215.04,-47.17 243.23,-34.69 264.95,-25.07"/>
<polygon fill="#63b8ff" stroke="#63b8ff" points="266.22,-28.34 273.95,-21.09 263.39,-21.94 266.22,-28.34"/>
</a>
</g>
</g>
</g>
</svg>
