<?xml version="1.0" encoding="UTF-8" standalone="no"?>
<!DOCTYPE svg PUBLIC "-//W3C//DTD SVG 1.1//EN"
 "http://www.w3.org/Graphics/SVG/1.1/DTD/svg11.dtd">
<!-- Generated by graphviz version 11.0.0 (20240428.1522)
 -->
<!-- Title: basic_sorts.h Pages: 1 -->
<svg width="146pt" height="84pt"
 viewBox="0.00 0.00 145.88 84.00" xmlns="http://www.w3.org/2000/svg" xmlns:xlink="http://www.w3.org/1999/xlink">
<g id="graph0" class="graph" transform="scale(1 1) rotate(0) translate(4 80)">
<title>basic_sorts.h</title>
<!-- Node1 -->
<g id="Node000001" class="node">
<title>Node1</title>
<g id="a_Node000001"><a xlink:title="Deklarace API přímých metod třídění">
<polygon fill="#999999" stroke="#666666" points="113.5,-76 39,-76 39,-56 113.5,-56 113.5,-76"/>
<text text-anchor="middle" x="76.25" y="-62.5" font-family="Helvetica,sans-Serif" font-size="10.00">basic_sorts.h</text>
</a>
</g>
</g>
<!-- Node2 -->
<g id="Node000002" class="node">
<title>Node2</title>
<g id="a_Node000002"><a xlink:href="basic__sorts_8c.html" target="_top" xlink:title="Implementace API přímých metod třídění">
<polygon fill="white" stroke="#666666" points="74.5,-20 0,-20 0,0 74.5,0 74.5,-20"/>
<text text-anchor="middle" x="37.25" y="-6.5" font-family="Helvetica,sans-Serif" font-size="10.00">basic_sorts.c</text>
</a>
</g>
</g>
<!-- Node1&#45;&gt;Node2 -->
<g id="edge1_Node000001_Node000002" class="edge">
<title>Node1&#45;&gt;Node2</title>
<g id="a_edge1_Node000001_Node000002"><a xlink:title=" ">
<path fill="none" stroke="#63b8ff" d="M62.84,-46.44C56.48,-37.62 49.14,-27.47 43.97,-20.3"/>
<polygon fill="#63b8ff" stroke="#63b8ff" points="59.88,-48.31 68.57,-54.37 65.55,-44.21 59.88,-48.31"/>
</a>
</g>
</g>
<!-- Node3 -->
<g id="Node000003" class="node">
<title>Node3</title>
<g id="a_Node000003"><a xlink:href="main_8c.html" target="_top" xlink:title="Hlavní program testující API přímých metod třídění">
<polygon fill="white" stroke="#666666" points="137.88,-20 92.62,-20 92.62,0 137.88,0 137.88,-20"/>
<text text-anchor="middle" x="115.25" y="-6.5" font-family="Helvetica,sans-Serif" font-size="10.00">main.c</text>
</a>
</g>
</g>
<!-- Node1&#45;&gt;Node3 -->
<g id="edge2_Node000001_Node000003" class="edge">
<title>Node1&#45;&gt;Node3</title>
<g id="a_edge2_Node000001_Node000003"><a xlink:title=" ">
<path fill="none" stroke="#63b8ff" d="M89.66,-46.44C96.02,-37.62 103.36,-27.47 108.53,-20.3"/>
<polygon fill="#63b8ff" stroke="#63b8ff" points="86.95,-44.21 83.93,-54.37 92.62,-48.31 86.95,-44.21"/>
</a>
</g>
</g>
</g>
</svg>
