<?xml version="1.0" encoding="UTF-8" standalone="no"?>
<!DOCTYPE svg PUBLIC "-//W3C//DTD SVG 1.1//EN"
 "http://www.w3.org/Graphics/SVG/1.1/DTD/svg11.dtd">
<!-- Generated by graphviz version 11.0.0 (20240428.1522)
 -->
<!-- Title: vector_move_with_iterators Pages: 1 -->
<svg width="290pt" height="78pt"
 viewBox="0.00 0.00 289.75 78.00" xmlns="http://www.w3.org/2000/svg" xmlns:xlink="http://www.w3.org/1999/xlink">
<g id="graph0" class="graph" transform="scale(1 1) rotate(0) translate(4 74)">
<title>vector_move_with_iterators</title>
<!-- Node1 -->
<g id="Node000001" class="node">
<title>Node1</title>
<g id="a_Node000001"><a xlink:title="Přesun hodnoty elementu vektoru určené dvěma iterátory.">
<polygon fill="#999999" stroke="#666666" points="132.25,-42 0,-42 0,-22 132.25,-22 132.25,-42"/>
<text text-anchor="middle" x="66.12" y="-28.5" font-family="Helvetica,sans-Serif" font-size="10.00">vector_move_with_iterators</text>
</a>
</g>
</g>
<!-- Node2 -->
<g id="Node000002" class="node">
<title>Node2</title>
<g id="a_Node000002"><a xlink:href="group___t_vector_iterator.html#ga3f8a97a63f887539e270f6845bf22b9a" target="_top" xlink:title="Zjištění platnosti iterátoru.">
<polygon fill="white" stroke="#666666" points="269.75,-70 180.25,-70 180.25,-38 269.75,-38 269.75,-70"/>
<text text-anchor="start" x="188.25" y="-56.5" font-family="Helvetica,sans-Serif" font-size="10.00">vector_iterator_is</text>
<text text-anchor="middle" x="225" y="-44.5" font-family="Helvetica,sans-Serif" font-size="10.00">_valid</text>
</a>
</g>
</g>
<!-- Node1&#45;&gt;Node2 -->
<g id="edge1_Node000001_Node000002" class="edge">
<title>Node1&#45;&gt;Node2</title>
<g id="a_edge1_Node000001_Node000002"><a xlink:title=" ">
<path fill="none" stroke="#63b8ff" d="M132.75,-41.2C144.71,-42.88 157.08,-44.62 168.71,-46.25"/>
<polygon fill="#63b8ff" stroke="#63b8ff" points="168.16,-49.7 178.55,-47.63 169.13,-42.77 168.16,-49.7"/>
</a>
</g>
</g>
<!-- Node3 -->
<g id="Node000003" class="node">
<title>Node3</title>
<g id="a_Node000003"><a xlink:href="group__sortable___t_vector.html#ga16623c06371077674f5d4d31e38e42a4" target="_top" xlink:title="Přesun hodnoty elementu vektoru.">
<polygon fill="white" stroke="#666666" points="281.75,-20 168.25,-20 168.25,0 281.75,0 281.75,-20"/>
<text text-anchor="middle" x="225" y="-6.5" font-family="Helvetica,sans-Serif" font-size="10.00">vector_move_positions</text>
</a>
</g>
</g>
<!-- Node1&#45;&gt;Node3 -->
<g id="edge2_Node000001_Node000003" class="edge">
<title>Node1&#45;&gt;Node3</title>
<g id="a_edge2_Node000001_Node000003"><a xlink:title=" ">
<path fill="none" stroke="#63b8ff" d="M132.75,-22.8C140.73,-21.68 148.91,-20.53 156.92,-19.41"/>
<polygon fill="#63b8ff" stroke="#63b8ff" points="157.18,-22.9 166.6,-18.05 156.21,-15.97 157.18,-22.9"/>
</a>
</g>
</g>
</g>
</svg>
