<?xml version="1.0" encoding="UTF-8" standalone="no"?>
<!DOCTYPE svg PUBLIC "-//W3C//DTD SVG 1.1//EN"
 "http://www.w3.org/Graphics/SVG/1.1/DTD/svg11.dtd">
<!-- Generated by graphviz version 11.0.0 (20240428.1522)
 -->
<!-- Title: vector_swap_positions Pages: 1 -->
<svg width="363pt" height="218pt"
 viewBox="0.00 0.00 362.75 218.00" xmlns="http://www.w3.org/2000/svg" xmlns:xlink="http://www.w3.org/1999/xlink">
<g id="graph0" class="graph" transform="scale(1 1) rotate(0) translate(4 214)">
<title>vector_swap_positions</title>
<!-- Node1 -->
<g id="Node000001" class="node">
<title>Node1</title>
<g id="a_Node000001"><a xlink:title="Výměna hodnot elementů vektorů">
<polygon fill="#999999" stroke="#666666" points="354.75,-115 241.25,-115 241.25,-95 354.75,-95 354.75,-115"/>
<text text-anchor="middle" x="298" y="-101.5" font-family="Helvetica,sans-Serif" font-size="10.00">vector_swap_positions</text>
</a>
</g>
</g>
<!-- Node2 -->
<g id="Node000002" class="node">
<title>Node2</title>
<g id="a_Node000002"><a xlink:href="group___basic_sorts.html#gaa1ef093f5205f293df8303ac228452fc" target="_top" xlink:title="Třídění přímou výměnou (Bubble Sort).">
<polygon fill="white" stroke="#666666" points="172.25,-210 106,-210 106,-190 172.25,-190 172.25,-210"/>
<text text-anchor="middle" x="139.12" y="-196.5" font-family="Helvetica,sans-Serif" font-size="10.00">bubble_sort</text>
</a>
</g>
</g>
<!-- Node1&#45;&gt;Node2 -->
<g id="edge1_Node000001_Node000002" class="edge">
<title>Node1&#45;&gt;Node2</title>
<g id="a_edge1_Node000001_Node000002"><a xlink:title=" ">
<path fill="none" stroke="#63b8ff" d="M279.21,-123.58C261.83,-140.74 233.88,-165.81 205.25,-181 195.16,-186.35 183.36,-190.38 172.61,-193.31"/>
<polygon fill="#63b8ff" stroke="#63b8ff" points="281.68,-126.07 286.22,-116.5 276.7,-121.14 281.68,-126.07"/>
</a>
</g>
</g>
<!-- Node4 -->
<g id="Node000004" class="node">
<title>Node4</title>
<g id="a_Node000004"><a xlink:href="group___basic_sorts.html#ga62a36eb31bf0a873f7c027e145843b1a" target="_top" xlink:title="Třídění přímou výměnou včetně optimalizace s pomocným příznakem ukončení třídění (Bubble Sort Optimiz...">
<polygon fill="white" stroke="#666666" points="195.88,-172 82.38,-172 82.38,-152 195.88,-152 195.88,-172"/>
<text text-anchor="middle" x="139.12" y="-158.5" font-family="Helvetica,sans-Serif" font-size="10.00">bubble_sort_optimized</text>
</a>
</g>
</g>
<!-- Node1&#45;&gt;Node4 -->
<g id="edge3_Node000001_Node000004" class="edge">
<title>Node1&#45;&gt;Node4</title>
<g id="a_edge3_Node000001_Node000004"><a xlink:title=" ">
<path fill="none" stroke="#63b8ff" d="M263.74,-119.8C246.47,-127.22 224.91,-136.08 205.25,-143 196.7,-146.01 187.39,-148.93 178.57,-151.54"/>
<polygon fill="#63b8ff" stroke="#63b8ff" points="264.72,-123.19 272.5,-115.99 261.94,-116.77 264.72,-123.19"/>
</a>
</g>
</g>
<!-- Node5 -->
<g id="Node000005" class="node">
<title>Node5</title>
<g id="a_Node000005"><a xlink:href="group___basic_sorts.html#gaba41a68f00241f38f7864b4e1dacd086" target="_top" xlink:title="Třídění přímou výměnou včetně optimalizace s výpočtem indexu poslední změny (Bubble Sort Optimized2).">
<polygon fill="white" stroke="#666666" points="198.5,-134 79.75,-134 79.75,-114 198.5,-114 198.5,-134"/>
<text text-anchor="middle" x="139.12" y="-120.5" font-family="Helvetica,sans-Serif" font-size="10.00">bubble_sort_optimized2</text>
</a>
</g>
</g>
<!-- Node1&#45;&gt;Node5 -->
<g id="edge5_Node000001_Node000005" class="edge">
<title>Node1&#45;&gt;Node5</title>
<g id="a_edge5_Node000001_Node000005"><a xlink:title=" ">
<path fill="none" stroke="#63b8ff" d="M229.45,-113.18C219.26,-114.42 208.82,-115.68 198.84,-116.89"/>
<polygon fill="#63b8ff" stroke="#63b8ff" points="229.8,-116.66 239.31,-111.99 228.96,-109.72 229.8,-116.66"/>
</a>
</g>
</g>
<!-- Node6 -->
<g id="Node000006" class="node">
<title>Node6</title>
<g id="a_Node000006"><a xlink:href="group___basic_sorts.html#ga3688a58781905ac2e518285b8bb711ec" target="_top" xlink:title="Třídění přímým výběrem (Select Sort).">
<polygon fill="white" stroke="#666666" points="171.12,-96 107.12,-96 107.12,-76 171.12,-76 171.12,-96"/>
<text text-anchor="middle" x="139.12" y="-82.5" font-family="Helvetica,sans-Serif" font-size="10.00">select_sort</text>
</a>
</g>
</g>
<!-- Node1&#45;&gt;Node6 -->
<g id="edge7_Node000001_Node000006" class="edge">
<title>Node1&#45;&gt;Node6</title>
<g id="a_edge7_Node000001_Node000006"><a xlink:title=" ">
<path fill="none" stroke="#63b8ff" d="M229.39,-96.81C209.17,-94.36 187.98,-91.8 171.32,-89.78"/>
<polygon fill="#63b8ff" stroke="#63b8ff" points="228.96,-100.28 239.31,-98.01 229.8,-93.34 228.96,-100.28"/>
</a>
</g>
</g>
<!-- Node7 -->
<g id="Node000007" class="node">
<title>Node7</title>
<g id="a_Node000007"><a xlink:href="group___basic_sorts.html#gaacee5d609500566a6ad1724486ab8bb2" target="_top" xlink:title="Třídění přímou výměnou se změnou postupu třídění (Shaker Sort).">
<polygon fill="white" stroke="#666666" points="172.62,-58 105.62,-58 105.62,-38 172.62,-38 172.62,-58"/>
<text text-anchor="middle" x="139.12" y="-44.5" font-family="Helvetica,sans-Serif" font-size="10.00">shaker_sort</text>
</a>
</g>
</g>
<!-- Node1&#45;&gt;Node7 -->
<g id="edge9_Node000001_Node000007" class="edge">
<title>Node1&#45;&gt;Node7</title>
<g id="a_edge9_Node000001_Node000007"><a xlink:title=" ">
<path fill="none" stroke="#63b8ff" d="M263.74,-90.2C246.47,-82.78 224.91,-73.92 205.25,-67 194.81,-63.33 183.25,-59.79 172.81,-56.78"/>
<polygon fill="#63b8ff" stroke="#63b8ff" points="261.94,-93.23 272.5,-94.01 264.72,-86.81 261.94,-93.23"/>
</a>
</g>
</g>
<!-- Node8 -->
<g id="Node000008" class="node">
<title>Node8</title>
<g id="a_Node000008"><a xlink:href="group__sortable___t_vector_iterator.html#gac16589d02c81c789a7fa6cd323a49013" target="_top" xlink:title="Výměna hodnot elementů vektorů určených dvěma iterátory.">
<polygon fill="white" stroke="#666666" points="205.25,-20 73,-20 73,0 205.25,0 205.25,-20"/>
<text text-anchor="middle" x="139.12" y="-6.5" font-family="Helvetica,sans-Serif" font-size="10.00">vector_swap_with_iterators</text>
</a>
</g>
</g>
<!-- Node1&#45;&gt;Node8 -->
<g id="edge11_Node000001_Node000008" class="edge">
<title>Node1&#45;&gt;Node8</title>
<g id="a_edge11_Node000001_Node000008"><a xlink:title=" ">
<path fill="none" stroke="#63b8ff" d="M279.21,-86.42C261.83,-69.26 233.88,-44.19 205.25,-29 198.9,-25.63 191.88,-22.79 184.87,-20.42"/>
<polygon fill="#63b8ff" stroke="#63b8ff" points="276.7,-88.86 286.22,-93.5 281.68,-83.93 276.7,-88.86"/>
</a>
</g>
</g>
<!-- Node3 -->
<g id="Node000003" class="node">
<title>Node3</title>
<g id="a_Node000003"><a xlink:href="group___main_program.html#ga0ddf1224851353fc92bfbff6f499fa97" target="_top" xlink:title=" ">
<polygon fill="white" stroke="#666666" points="37,-134 0,-134 0,-114 37,-114 37,-134"/>
<text text-anchor="middle" x="18.5" y="-120.5" font-family="Helvetica,sans-Serif" font-size="10.00">main</text>
</a>
</g>
</g>
<!-- Node2&#45;&gt;Node3 -->
<g id="edge2_Node000002_Node000003" class="edge">
<title>Node2&#45;&gt;Node3</title>
<g id="a_edge2_Node000002_Node000003"><a xlink:title=" ">
<path fill="none" stroke="#63b8ff" d="M94.65,-190.84C87.13,-188.28 79.61,-185.06 73,-181 53.1,-168.79 35.79,-147.26 26.57,-134.44"/>
<polygon fill="#63b8ff" stroke="#63b8ff" points="93.53,-194.16 104.12,-193.69 95.55,-187.45 93.53,-194.16"/>
</a>
</g>
</g>
<!-- Node4&#45;&gt;Node3 -->
<g id="edge4_Node000004_Node000003" class="edge">
<title>Node4&#45;&gt;Node3</title>
<g id="a_edge4_Node000004_Node000003"><a xlink:title=" ">
<path fill="none" stroke="#63b8ff" d="M89.93,-148.28C84.21,-146.55 78.46,-144.77 73,-143 60.99,-139.12 47.62,-134.37 37.25,-130.59"/>
<polygon fill="#63b8ff" stroke="#63b8ff" points="88.78,-151.59 99.37,-151.08 90.78,-144.88 88.78,-151.59"/>
</a>
</g>
</g>
<!-- Node5&#45;&gt;Node3 -->
<g id="edge6_Node000005_Node000003" class="edge">
<title>Node5&#45;&gt;Node3</title>
<g id="a_edge6_Node000005_Node000003"><a xlink:title=" ">
<path fill="none" stroke="#63b8ff" d="M68,-124C56.62,-124 45.78,-124 37.25,-124"/>
<polygon fill="#63b8ff" stroke="#63b8ff" points="67.99,-127.5 77.99,-124 67.99,-120.5 67.99,-127.5"/>
</a>
</g>
</g>
<!-- Node6&#45;&gt;Node3 -->
<g id="edge8_Node000006_Node000003" class="edge">
<title>Node6&#45;&gt;Node3</title>
<g id="a_edge8_Node000006_Node000003"><a xlink:title=" ">
<path fill="none" stroke="#63b8ff" d="M95.92,-97.93C88.27,-100.2 80.38,-102.62 73,-105 60.99,-108.88 47.62,-113.63 37.25,-117.41"/>
<polygon fill="#63b8ff" stroke="#63b8ff" points="96.81,-101.32 105.42,-95.15 94.84,-94.6 96.81,-101.32"/>
</a>
</g>
</g>
<!-- Node7&#45;&gt;Node3 -->
<g id="edge10_Node000007_Node000003" class="edge">
<title>Node7&#45;&gt;Node3</title>
<g id="a_edge10_Node000007_Node000003"><a xlink:title=" ">
<path fill="none" stroke="#63b8ff" d="M94.42,-57.24C86.97,-59.78 79.54,-62.98 73,-67 53.1,-79.21 35.79,-100.74 26.57,-113.56"/>
<polygon fill="#63b8ff" stroke="#63b8ff" points="95.23,-60.65 103.78,-54.41 93.2,-53.95 95.23,-60.65"/>
</a>
</g>
</g>
</g>
</svg>
