<?xml version="1.0" encoding="UTF-8" standalone="no"?>
<!DOCTYPE svg PUBLIC "-//W3C//DTD SVG 1.1//EN"
 "http://www.w3.org/Graphics/SVG/1.1/DTD/svg11.dtd">
<!-- Generated by graphviz version 11.0.0 (20240428.1522)
 -->
<!-- Title: shaker_sort Pages: 1 -->
<svg width="411pt" height="104pt"
 viewBox="0.00 0.00 410.75 104.00" xmlns="http://www.w3.org/2000/svg" xmlns:xlink="http://www.w3.org/1999/xlink">
<g id="graph0" class="graph" transform="scale(1 1) rotate(0) translate(4 100)">
<title>shaker_sort</title>
<!-- Node1 -->
<g id="Node000001" class="node">
<title>Node1</title>
<g id="a_Node000001"><a xlink:title="Třídění přímou výměnou se změnou postupu třídění (Shaker Sort).">
<polygon fill="#999999" stroke="#666666" points="67,-58 0,-58 0,-38 67,-38 67,-58"/>
<text text-anchor="middle" x="33.5" y="-44.5" font-family="Helvetica,sans-Serif" font-size="10.00">shaker_sort</text>
</a>
</g>
</g>
<!-- Node2 -->
<g id="Node000002" class="node">
<title>Node2</title>
<g id="a_Node000002"><a xlink:href="group__sortable___t_vector.html#gaedaf9c79afa345e5e71e5c66ab25fa26" target="_top" xlink:title="Porovnání hodnot elementů vektorů">
<polygon fill="white" stroke="#666666" points="231.5,-96 103,-96 103,-76 231.5,-76 231.5,-96"/>
<text text-anchor="middle" x="167.25" y="-82.5" font-family="Helvetica,sans-Serif" font-size="10.00">vector_compare_positions</text>
</a>
</g>
</g>
<!-- Node1&#45;&gt;Node2 -->
<g id="edge1_Node000001_Node000002" class="edge">
<title>Node1&#45;&gt;Node2</title>
<g id="a_edge1_Node000001_Node000002"><a xlink:title=" ">
<path fill="none" stroke="#63b8ff" d="M67.41,-57.49C83.04,-62 102,-67.47 119.13,-72.41"/>
<polygon fill="#63b8ff" stroke="#63b8ff" points="118.03,-75.73 128.61,-75.14 119.97,-69.01 118.03,-75.73"/>
</a>
</g>
</g>
<!-- Node4 -->
<g id="Node000004" class="node">
<title>Node4</title>
<g id="a_Node000004"><a xlink:href="group___t_vector.html#ga2502e6ec116dbac5e49f5b62b07dc898" target="_top" xlink:title="Přečtení počtu elementů vektoru.">
<polygon fill="white" stroke="#666666" points="199.62,-58 134.88,-58 134.88,-38 199.62,-38 199.62,-58"/>
<text text-anchor="middle" x="167.25" y="-44.5" font-family="Helvetica,sans-Serif" font-size="10.00">vector_size</text>
</a>
</g>
</g>
<!-- Node1&#45;&gt;Node4 -->
<g id="edge3_Node000001_Node000004" class="edge">
<title>Node1&#45;&gt;Node4</title>
<g id="a_edge3_Node000001_Node000004"><a xlink:title=" ">
<path fill="none" stroke="#63b8ff" d="M67.41,-48C84.29,-48 105.06,-48 123.2,-48"/>
<polygon fill="#63b8ff" stroke="#63b8ff" points="123.16,-51.5 133.16,-48 123.16,-44.5 123.16,-51.5"/>
</a>
</g>
</g>
<!-- Node5 -->
<g id="Node000005" class="node">
<title>Node5</title>
<g id="a_Node000005"><a xlink:href="group__sortable___t_vector.html#gac1982d8a0e5f66f933dc6a0413f2d23e" target="_top" xlink:title="Výměna hodnot elementů vektorů">
<polygon fill="white" stroke="#666666" points="224,-20 110.5,-20 110.5,0 224,0 224,-20"/>
<text text-anchor="middle" x="167.25" y="-6.5" font-family="Helvetica,sans-Serif" font-size="10.00">vector_swap_positions</text>
</a>
</g>
</g>
<!-- Node1&#45;&gt;Node5 -->
<g id="edge4_Node000001_Node000005" class="edge">
<title>Node1&#45;&gt;Node5</title>
<g id="a_edge4_Node000001_Node000005"><a xlink:title=" ">
<path fill="none" stroke="#63b8ff" d="M67.41,-38.51C83.04,-34 102,-28.53 119.13,-23.59"/>
<polygon fill="#63b8ff" stroke="#63b8ff" points="119.97,-26.99 128.61,-20.86 118.03,-20.27 119.97,-26.99"/>
</a>
</g>
</g>
<!-- Node3 -->
<g id="Node000003" class="node">
<title>Node3</title>
<g id="a_Node000003"><a xlink:href="group___t_vector_element.html#ga82e527836fce12c93af896f65e9f701d" target="_top" xlink:title="Porovnání dvou elementů">
<polygon fill="white" stroke="#666666" points="402.75,-96 267.5,-96 267.5,-76 402.75,-76 402.75,-96"/>
<text text-anchor="middle" x="335.12" y="-82.5" font-family="Helvetica,sans-Serif" font-size="10.00">vector_element_comparator</text>
</a>
</g>
</g>
<!-- Node2&#45;&gt;Node3 -->
<g id="edge2_Node000002_Node000003" class="edge">
<title>Node2&#45;&gt;Node3</title>
<g id="a_edge2_Node000002_Node000003"><a xlink:title=" ">
<path fill="none" stroke="#63b8ff" d="M231.91,-86C239.73,-86 247.8,-86 255.81,-86"/>
<polygon fill="#63b8ff" stroke="#63b8ff" points="255.55,-89.5 265.55,-86 255.55,-82.5 255.55,-89.5"/>
</a>
</g>
</g>
</g>
</svg>
