<?xml version="1.0" encoding="UTF-8" standalone="no"?>
<!DOCTYPE svg PUBLIC "-//W3C//DTD SVG 1.1//EN"
 "http://www.w3.org/Graphics/SVG/1.1/DTD/svg11.dtd">
<!-- Generated by graphviz version 11.0.0 (20240428.1522)
 -->
<!-- Title: vector_compare_positions Pages: 1 -->
<svg width="364pt" height="230pt"
 viewBox="0.00 0.00 364.25 230.00" xmlns="http://www.w3.org/2000/svg" xmlns:xlink="http://www.w3.org/1999/xlink">
<g id="graph0" class="graph" transform="scale(1 1) rotate(0) translate(4 226)">
<title>vector_compare_positions</title>
<!-- Node1 -->
<g id="Node000001" class="node">
<title>Node1</title>
<g id="a_Node000001"><a xlink:title="Porovnání hodnot elementů vektorů">
<polygon fill="#999999" stroke="#666666" points="356.25,-127 227.75,-127 227.75,-107 356.25,-107 356.25,-127"/>
<text text-anchor="middle" x="292" y="-113.5" font-family="Helvetica,sans-Serif" font-size="10.00">vector_compare_positions</text>
</a>
</g>
</g>
<!-- Node2 -->
<g id="Node000002" class="node">
<title>Node2</title>
<g id="a_Node000002"><a xlink:href="group___basic_sorts.html#gaa1ef093f5205f293df8303ac228452fc" target="_top" xlink:title="Třídění přímou výměnou (Bubble Sort).">
<polygon fill="white" stroke="#666666" points="165.5,-222 99.25,-222 99.25,-202 165.5,-202 165.5,-222"/>
<text text-anchor="middle" x="132.38" y="-208.5" font-family="Helvetica,sans-Serif" font-size="10.00">bubble_sort</text>
</a>
</g>
</g>
<!-- Node1&#45;&gt;Node2 -->
<g id="edge1_Node000001_Node000002" class="edge">
<title>Node1&#45;&gt;Node2</title>
<g id="a_edge1_Node000001_Node000002"><a xlink:title=" ">
<path fill="none" stroke="#63b8ff" d="M271.89,-134.83C252.84,-151.79 222.12,-177.03 191.75,-193 183.73,-197.22 174.6,-200.73 165.98,-203.54"/>
<polygon fill="#63b8ff" stroke="#63b8ff" points="274.08,-137.57 279.13,-128.26 269.37,-132.39 274.08,-137.57"/>
</a>
</g>
</g>
<!-- Node4 -->
<g id="Node000004" class="node">
<title>Node4</title>
<g id="a_Node000004"><a xlink:href="group___basic_sorts.html#ga62a36eb31bf0a873f7c027e145843b1a" target="_top" xlink:title="Třídění přímou výměnou včetně optimalizace s pomocným příznakem ukončení třídění (Bubble Sort Optimiz...">
<polygon fill="white" stroke="#666666" points="189.12,-184 75.62,-184 75.62,-164 189.12,-164 189.12,-184"/>
<text text-anchor="middle" x="132.38" y="-170.5" font-family="Helvetica,sans-Serif" font-size="10.00">bubble_sort_optimized</text>
</a>
</g>
</g>
<!-- Node1&#45;&gt;Node4 -->
<g id="edge3_Node000001_Node000004" class="edge">
<title>Node1&#45;&gt;Node4</title>
<g id="a_edge3_Node000001_Node000004"><a xlink:title=" ">
<path fill="none" stroke="#63b8ff" d="M254.31,-131.56C235.66,-138.83 212.59,-147.62 191.75,-155 183.61,-157.88 174.78,-160.84 166.51,-163.54"/>
<polygon fill="#63b8ff" stroke="#63b8ff" points="255.57,-134.83 263.6,-127.92 253.02,-128.31 255.57,-134.83"/>
</a>
</g>
</g>
<!-- Node5 -->
<g id="Node000005" class="node">
<title>Node5</title>
<g id="a_Node000005"><a xlink:href="group___basic_sorts.html#gaba41a68f00241f38f7864b4e1dacd086" target="_top" xlink:title="Třídění přímou výměnou včetně optimalizace s výpočtem indexu poslední změny (Bubble Sort Optimized2).">
<polygon fill="white" stroke="#666666" points="191.75,-146 73,-146 73,-126 191.75,-126 191.75,-146"/>
<text text-anchor="middle" x="132.38" y="-132.5" font-family="Helvetica,sans-Serif" font-size="10.00">bubble_sort_optimized2</text>
</a>
</g>
</g>
<!-- Node1&#45;&gt;Node5 -->
<g id="edge5_Node000001_Node000005" class="edge">
<title>Node1&#45;&gt;Node5</title>
<g id="a_edge5_Node000001_Node000005"><a xlink:title=" ">
<path fill="none" stroke="#63b8ff" d="M216.07,-126.03C208.05,-127 199.97,-127.97 192.17,-128.91"/>
<polygon fill="#63b8ff" stroke="#63b8ff" points="216.33,-129.53 225.84,-124.85 215.49,-122.58 216.33,-129.53"/>
</a>
</g>
</g>
<!-- Node6 -->
<g id="Node000006" class="node">
<title>Node6</title>
<g id="a_Node000006"><a xlink:href="group___basic_sorts.html#ga3688a58781905ac2e518285b8bb711ec" target="_top" xlink:title="Třídění přímým výběrem (Select Sort).">
<polygon fill="white" stroke="#666666" points="164.38,-108 100.38,-108 100.38,-88 164.38,-88 164.38,-108"/>
<text text-anchor="middle" x="132.38" y="-94.5" font-family="Helvetica,sans-Serif" font-size="10.00">select_sort</text>
</a>
</g>
</g>
<!-- Node1&#45;&gt;Node6 -->
<g id="edge7_Node000001_Node000006" class="edge">
<title>Node1&#45;&gt;Node6</title>
<g id="a_edge7_Node000001_Node000006"><a xlink:title=" ">
<path fill="none" stroke="#63b8ff" d="M216.14,-107.98C198.02,-105.79 179.63,-103.58 164.8,-101.79"/>
<polygon fill="#63b8ff" stroke="#63b8ff" points="215.49,-111.42 225.84,-109.15 216.33,-104.47 215.49,-111.42"/>
</a>
</g>
</g>
<!-- Node7 -->
<g id="Node000007" class="node">
<title>Node7</title>
<g id="a_Node000007"><a xlink:href="group___basic_sorts.html#gaacee5d609500566a6ad1724486ab8bb2" target="_top" xlink:title="Třídění přímou výměnou se změnou postupu třídění (Shaker Sort).">
<polygon fill="white" stroke="#666666" points="165.88,-70 98.88,-70 98.88,-50 165.88,-50 165.88,-70"/>
<text text-anchor="middle" x="132.38" y="-56.5" font-family="Helvetica,sans-Serif" font-size="10.00">shaker_sort</text>
</a>
</g>
</g>
<!-- Node1&#45;&gt;Node7 -->
<g id="edge9_Node000001_Node000007" class="edge">
<title>Node1&#45;&gt;Node7</title>
<g id="a_edge9_Node000001_Node000007"><a xlink:title=" ">
<path fill="none" stroke="#63b8ff" d="M254.31,-102.44C235.66,-95.17 212.59,-86.38 191.75,-79 183.51,-76.08 174.56,-73.09 166.2,-70.36"/>
<polygon fill="#63b8ff" stroke="#63b8ff" points="253.02,-105.69 263.6,-106.08 255.57,-99.17 253.02,-105.69"/>
</a>
</g>
</g>
<!-- Node8 -->
<g id="Node000008" class="node">
<title>Node8</title>
<g id="a_Node000008"><a xlink:href="group__sortable___t_vector_iterator.html#gadd8aded92ce2c6402742a57316412d39" target="_top" xlink:title="Porovnání hodnot elementů vektorů určených dvěma iterátory.">
<polygon fill="white" stroke="#666666" points="185.75,-32 79,-32 79,0 185.75,0 185.75,-32"/>
<text text-anchor="start" x="87" y="-18.5" font-family="Helvetica,sans-Serif" font-size="10.00">vector_compare_with</text>
<text text-anchor="middle" x="132.38" y="-6.5" font-family="Helvetica,sans-Serif" font-size="10.00">_iterators</text>
</a>
</g>
</g>
<!-- Node1&#45;&gt;Node8 -->
<g id="edge11_Node000001_Node000008" class="edge">
<title>Node1&#45;&gt;Node8</title>
<g id="a_edge11_Node000001_Node000008"><a xlink:title=" ">
<path fill="none" stroke="#63b8ff" d="M270.93,-99.22C251.6,-82.7 221.05,-58.13 191.75,-41 186.52,-37.94 180.84,-35.04 175.14,-32.37"/>
<polygon fill="#63b8ff" stroke="#63b8ff" points="268.47,-101.72 278.32,-105.63 273.05,-96.43 268.47,-101.72"/>
</a>
</g>
</g>
<!-- Node3 -->
<g id="Node000003" class="node">
<title>Node3</title>
<g id="a_Node000003"><a xlink:href="group___main_program.html#ga0ddf1224851353fc92bfbff6f499fa97" target="_top" xlink:title=" ">
<polygon fill="white" stroke="#666666" points="37,-146 0,-146 0,-126 37,-126 37,-146"/>
<text text-anchor="middle" x="18.5" y="-132.5" font-family="Helvetica,sans-Serif" font-size="10.00">main</text>
</a>
</g>
</g>
<!-- Node2&#45;&gt;Node3 -->
<g id="edge2_Node000002_Node000003" class="edge">
<title>Node2&#45;&gt;Node3</title>
<g id="a_edge2_Node000002_Node000003"><a xlink:title=" ">
<path fill="none" stroke="#63b8ff" d="M88.47,-200.82C83.07,-198.62 77.77,-196.03 73,-193 53.29,-180.48 35.92,-159.06 26.64,-146.34"/>
<polygon fill="#63b8ff" stroke="#63b8ff" points="86.86,-203.96 97.45,-204.08 89.24,-197.38 86.86,-203.96"/>
</a>
</g>
</g>
<!-- Node4&#45;&gt;Node3 -->
<g id="edge4_Node000004_Node000003" class="edge">
<title>Node4&#45;&gt;Node3</title>
<g id="a_edge4_Node000004_Node000003"><a xlink:title=" ">
<path fill="none" stroke="#63b8ff" d="M87.79,-159.95C82.8,-158.3 77.78,-156.63 73,-155 61.06,-150.94 47.68,-146.19 37.29,-142.45"/>
<polygon fill="#63b8ff" stroke="#63b8ff" points="86.57,-163.24 97.16,-163.03 88.75,-156.59 86.57,-163.24"/>
</a>
</g>
</g>
<!-- Node5&#45;&gt;Node3 -->
<g id="edge6_Node000005_Node000003" class="edge">
<title>Node5&#45;&gt;Node3</title>
<g id="a_edge6_Node000005_Node000003"><a xlink:title=" ">
<path fill="none" stroke="#63b8ff" d="M61.45,-136C52.63,-136 44.3,-136 37.43,-136"/>
<polygon fill="#63b8ff" stroke="#63b8ff" points="61.3,-139.5 71.3,-136 61.3,-132.5 61.3,-139.5"/>
</a>
</g>
</g>
<!-- Node6&#45;&gt;Node3 -->
<g id="edge8_Node000006_Node000003" class="edge">
<title>Node6&#45;&gt;Node3</title>
<g id="a_edge8_Node000006_Node000003"><a xlink:title=" ">
<path fill="none" stroke="#63b8ff" d="M89.56,-111.46C83.99,-113.3 78.35,-115.18 73,-117 61.06,-121.06 47.68,-125.81 37.29,-129.55"/>
<polygon fill="#63b8ff" stroke="#63b8ff" points="90.27,-114.91 98.68,-108.47 88.09,-108.26 90.27,-114.91"/>
</a>
</g>
</g>
<!-- Node7&#45;&gt;Node3 -->
<g id="edge10_Node000007_Node000003" class="edge">
<title>Node7&#45;&gt;Node3</title>
<g id="a_edge10_Node000007_Node000003"><a xlink:title=" ">
<path fill="none" stroke="#63b8ff" d="M87.87,-71.42C82.68,-73.57 77.59,-76.08 73,-79 53.29,-91.52 35.92,-112.94 26.64,-125.66"/>
<polygon fill="#63b8ff" stroke="#63b8ff" points="88.96,-74.75 97.15,-68.03 86.56,-68.18 88.96,-74.75"/>
</a>
</g>
</g>
</g>
</svg>
