<?xml version="1.0" encoding="UTF-8" standalone="no"?>
<!DOCTYPE svg PUBLIC "-//W3C//DTD SVG 1.1//EN"
 "http://www.w3.org/Graphics/SVG/1.1/DTD/svg11.dtd">
<!-- Generated by graphviz version 11.0.0 (20240428.1522)
 -->
<!-- Title: bubble_sort Pages: 1 -->
<svg width="410pt" height="104pt"
 viewBox="0.00 0.00 410.00 104.00" xmlns="http://www.w3.org/2000/svg" xmlns:xlink="http://www.w3.org/1999/xlink">
<g id="graph0" class="graph" transform="scale(1 1) rotate(0) translate(4 100)">
<title>bubble_sort</title>
<!-- Node1 -->
<g id="Node000001" class="node">
<title>Node1</title>
<g id="a_Node000001"><a xlink:title="Třídění přímou výměnou (Bubble Sort).">
<polygon fill="#999999" stroke="#666666" points="66.25,-58 0,-58 0,-38 66.25,-38 66.25,-58"/>
<text text-anchor="middle" x="33.12" y="-44.5" font-family="Helvetica,sans-Serif" font-size="10.00">bubble_sort</text>
</a>
</g>
</g>
<!-- Node2 -->
<g id="Node000002" class="node">
<title>Node2</title>
<g id="a_Node000002"><a xlink:href="group__sortable___t_vector.html#gaedaf9c79afa345e5e71e5c66ab25fa26" target="_top" xlink:title="Porovnání hodnot elementů vektorů">
<polygon fill="white" stroke="#666666" points="230.75,-96 102.25,-96 102.25,-76 230.75,-76 230.75,-96"/>
<text text-anchor="middle" x="166.5" y="-82.5" font-family="Helvetica,sans-Serif" font-size="10.00">vector_compare_positions</text>
</a>
</g>
</g>
<!-- Node1&#45;&gt;Node2 -->
<g id="edge1_Node000001_Node000002" class="edge">
<title>Node1&#45;&gt;Node2</title>
<g id="a_edge1_Node000001_Node000002"><a xlink:title=" ">
<path fill="none" stroke="#63b8ff" d="M66.6,-57.39C82.18,-61.9 101.15,-67.39 118.29,-72.34"/>
<polygon fill="#63b8ff" stroke="#63b8ff" points="117.2,-75.67 127.78,-75.09 119.15,-68.95 117.2,-75.67"/>
</a>
</g>
</g>
<!-- Node4 -->
<g id="Node000004" class="node">
<title>Node4</title>
<g id="a_Node000004"><a xlink:href="group___t_vector.html#ga2502e6ec116dbac5e49f5b62b07dc898" target="_top" xlink:title="Přečtení počtu elementů vektoru.">
<polygon fill="white" stroke="#666666" points="198.88,-58 134.12,-58 134.12,-38 198.88,-38 198.88,-58"/>
<text text-anchor="middle" x="166.5" y="-44.5" font-family="Helvetica,sans-Serif" font-size="10.00">vector_size</text>
</a>
</g>
</g>
<!-- Node1&#45;&gt;Node4 -->
<g id="edge3_Node000001_Node000004" class="edge">
<title>Node1&#45;&gt;Node4</title>
<g id="a_edge3_Node000001_Node000004"><a xlink:title=" ">
<path fill="none" stroke="#63b8ff" d="M66.6,-48C83.43,-48 104.21,-48 122.36,-48"/>
<polygon fill="#63b8ff" stroke="#63b8ff" points="122.34,-51.5 132.34,-48 122.34,-44.5 122.34,-51.5"/>
</a>
</g>
</g>
<!-- Node5 -->
<g id="Node000005" class="node">
<title>Node5</title>
<g id="a_Node000005"><a xlink:href="group__sortable___t_vector.html#gac1982d8a0e5f66f933dc6a0413f2d23e" target="_top" xlink:title="Výměna hodnot elementů vektorů">
<polygon fill="white" stroke="#666666" points="223.25,-20 109.75,-20 109.75,0 223.25,0 223.25,-20"/>
<text text-anchor="middle" x="166.5" y="-6.5" font-family="Helvetica,sans-Serif" font-size="10.00">vector_swap_positions</text>
</a>
</g>
</g>
<!-- Node1&#45;&gt;Node5 -->
<g id="edge4_Node000001_Node000005" class="edge">
<title>Node1&#45;&gt;Node5</title>
<g id="a_edge4_Node000001_Node000005"><a xlink:title=" ">
<path fill="none" stroke="#63b8ff" d="M66.6,-38.61C82.18,-34.1 101.15,-28.61 118.29,-23.66"/>
<polygon fill="#63b8ff" stroke="#63b8ff" points="119.15,-27.05 127.78,-20.91 117.2,-20.33 119.15,-27.05"/>
</a>
</g>
</g>
<!-- Node3 -->
<g id="Node000003" class="node">
<title>Node3</title>
<g id="a_Node000003"><a xlink:href="group___t_vector_element.html#ga82e527836fce12c93af896f65e9f701d" target="_top" xlink:title="Porovnání dvou elementů">
<polygon fill="white" stroke="#666666" points="402,-96 266.75,-96 266.75,-76 402,-76 402,-96"/>
<text text-anchor="middle" x="334.38" y="-82.5" font-family="Helvetica,sans-Serif" font-size="10.00">vector_element_comparator</text>
</a>
</g>
</g>
<!-- Node2&#45;&gt;Node3 -->
<g id="edge2_Node000002_Node000003" class="edge">
<title>Node2&#45;&gt;Node3</title>
<g id="a_edge2_Node000002_Node000003"><a xlink:title=" ">
<path fill="none" stroke="#63b8ff" d="M231.16,-86C238.98,-86 247.05,-86 255.06,-86"/>
<polygon fill="#63b8ff" stroke="#63b8ff" points="254.8,-89.5 264.8,-86 254.8,-82.5 254.8,-89.5"/>
</a>
</g>
</g>
</g>
</svg>
