<?xml version="1.0" encoding="UTF-8" standalone="no"?>
<!DOCTYPE svg PUBLIC "-//W3C//DTD SVG 1.1//EN"
 "http://www.w3.org/Graphics/SVG/1.1/DTD/svg11.dtd">
<!-- Generated by graphviz version 11.0.0 (20240428.1522)
 -->
<!-- Title: sort_testing Pages: 1 -->
<svg width="520pt" height="406pt"
 viewBox="0.00 0.00 519.75 406.00" xmlns="http://www.w3.org/2000/svg" xmlns:xlink="http://www.w3.org/1999/xlink">
<g id="graph0" class="graph" transform="scale(1 1) rotate(0) translate(4 402)">
<title>sort_testing</title>
<!-- Node1 -->
<g id="Node000001" class="node">
<title>Node1</title>
<g id="a_Node000001"><a xlink:title="Testování třídicí metody.">
<polygon fill="#999999" stroke="#666666" points="67,-214 0,-214 0,-194 67,-194 67,-214"/>
<text text-anchor="middle" x="33.5" y="-200.5" font-family="Helvetica,sans-Serif" font-size="10.00">sort_testing</text>
</a>
</g>
</g>
<!-- Node2 -->
<g id="Node000002" class="node">
<title>Node2</title>
<g id="a_Node000002"><a xlink:href="main__support_8h.html#aa291195ad453d2b1e29004cc2e043c01" target="_top" xlink:title="Výpočet doby trvání časového intervalu.">
<polygon fill="white" stroke="#666666" points="192.88,-398 125.12,-398 125.12,-378 192.88,-378 192.88,-398"/>
<text text-anchor="middle" x="159" y="-384.5" font-family="Helvetica,sans-Serif" font-size="10.00">difftimespec</text>
</a>
</g>
</g>
<!-- Node1&#45;&gt;Node2 -->
<g id="edge1_Node000001_Node000002" class="edge">
<title>Node1&#45;&gt;Node2</title>
<g id="a_edge1_Node000001_Node000002"><a xlink:title=" ">
<path fill="none" stroke="#63b8ff" d="M36.22,-214.46C41.34,-242.4 58.93,-319.62 103,-364 106.39,-367.41 110.34,-370.37 114.54,-372.93"/>
<polygon fill="#63b8ff" stroke="#63b8ff" points="112.83,-375.99 123.32,-377.51 116.07,-369.78 112.83,-375.99"/>
</a>
</g>
</g>
<!-- Node3 -->
<g id="Node000003" class="node">
<title>Node3</title>
<g id="a_Node000003"><a xlink:href="group___basic_sorts.html#ga25c7ac8991c266d71b75cf20c14b67cf" target="_top" xlink:title="Vytisknutí elementu vektoru pomocí iterátoru.">
<polygon fill="white" stroke="#666666" points="196.25,-296 121.75,-296 121.75,-276 196.25,-276 196.25,-296"/>
<text text-anchor="middle" x="159" y="-282.5" font-family="Helvetica,sans-Serif" font-size="10.00">print_element</text>
</a>
</g>
</g>
<!-- Node1&#45;&gt;Node3 -->
<g id="edge2_Node000001_Node000003" class="edge">
<title>Node1&#45;&gt;Node3</title>
<g id="a_edge2_Node000001_Node000003"><a xlink:title=" ">
<path fill="none" stroke="#63b8ff" d="M44.88,-214.5C57.69,-227.01 80.51,-248 103,-262 108.2,-265.24 113.9,-268.25 119.61,-270.97"/>
<polygon fill="#63b8ff" stroke="#63b8ff" points="117.85,-274.02 128.41,-274.93 120.72,-267.64 117.85,-274.02"/>
</a>
</g>
</g>
<!-- Node6 -->
<g id="Node000006" class="node">
<title>Node6</title>
<g id="a_Node000006"><a xlink:href="group___t_vector_iterator.html#ga3f8a97a63f887539e270f6845bf22b9a" target="_top" xlink:title="Zjištění platnosti iterátoru.">
<polygon fill="white" stroke="#666666" points="511.75,-290 422.25,-290 422.25,-258 511.75,-258 511.75,-290"/>
<text text-anchor="start" x="430.25" y="-276.5" font-family="Helvetica,sans-Serif" font-size="10.00">vector_iterator_is</text>
<text text-anchor="middle" x="467" y="-264.5" font-family="Helvetica,sans-Serif" font-size="10.00">_valid</text>
</a>
</g>
</g>
<!-- Node1&#45;&gt;Node6 -->
<g id="edge18_Node000001_Node000006" class="edge">
<title>Node1&#45;&gt;Node6</title>
<g id="a_edge18_Node000001_Node000006"><a xlink:title=" ">
<path fill="none" stroke="#63b8ff" d="M38.28,-214.33C46.5,-235.22 68.14,-282.44 103,-305 159.07,-341.28 184.47,-325.2 251,-331 310.88,-336.22 329.01,-349.35 386.25,-331 406.78,-324.42 426.53,-310.39 441.23,-297.89"/>
<polygon fill="#63b8ff" stroke="#63b8ff" points="443.4,-300.65 448.57,-291.4 438.76,-295.41 443.4,-300.65"/>
</a>
</g>
</g>
<!-- Node7 -->
<g id="Node000007" class="node">
<title>Node7</title>
<g id="a_Node000007"><a xlink:href="group___t_vector.html#ga6b0b8780d60dad02b8569be119769548" target="_top" xlink:title="Vytvoření úplné kopie vektoru.">
<polygon fill="white" stroke="#666666" points="353.62,-246 283.62,-246 283.62,-226 353.62,-226 353.62,-246"/>
<text text-anchor="middle" x="318.62" y="-232.5" font-family="Helvetica,sans-Serif" font-size="10.00">vector_clone</text>
</a>
</g>
</g>
<!-- Node1&#45;&gt;Node7 -->
<g id="edge6_Node000001_Node000007" class="edge">
<title>Node1&#45;&gt;Node7</title>
<g id="a_edge6_Node000001_Node000007"><a xlink:title=" ">
<path fill="none" stroke="#63b8ff" d="M57.44,-214.45C70.5,-219.86 87.34,-225.97 103,-229 160.5,-240.13 228.25,-240.24 272.02,-238.66"/>
<polygon fill="#63b8ff" stroke="#63b8ff" points="272.07,-242.16 281.92,-238.25 271.78,-235.17 272.07,-242.16"/>
</a>
</g>
</g>
<!-- Node8 -->
<g id="Node000008" class="node">
<title>Node8</title>
<g id="a_Node000008"><a xlink:href="group___t_vector.html#ga41fcff5418fe213f2caaa586f521bcd6" target="_top" xlink:title="Dealokace vektoru.">
<polygon fill="white" stroke="#666666" points="358.12,-170 279.12,-170 279.12,-150 358.12,-150 358.12,-170"/>
<text text-anchor="middle" x="318.62" y="-156.5" font-family="Helvetica,sans-Serif" font-size="10.00">vector_destroy</text>
</a>
</g>
</g>
<!-- Node1&#45;&gt;Node8 -->
<g id="edge7_Node000001_Node000008" class="edge">
<title>Node1&#45;&gt;Node8</title>
<g id="a_edge7_Node000001_Node000008"><a xlink:title=" ">
<path fill="none" stroke="#63b8ff" d="M58.45,-193.51C71.39,-188.29 87.8,-182.38 103,-179 158.35,-166.67 223.41,-162.28 267.27,-160.75"/>
<polygon fill="#63b8ff" stroke="#63b8ff" points="267.38,-164.25 277.27,-160.45 267.16,-157.25 267.38,-164.25"/>
</a>
</g>
</g>
<!-- Node9 -->
<g id="Node000009" class="node">
<title>Node9</title>
<g id="a_Node000009"><a xlink:href="group___iterator_algorithms.html#ga914d4c2ad472c0d71a4b5e9265b60e9c" target="_top" xlink:title="Zavolání zvolené funkce na prvních N elementů vektoru od pozice určené iterátorem.">
<polygon fill="white" stroke="#666666" points="206,-114 112,-114 112,-94 206,-94 206,-114"/>
<text text-anchor="middle" x="159" y="-100.5" font-family="Helvetica,sans-Serif" font-size="10.00">vector_for_each_n</text>
</a>
</g>
</g>
<!-- Node1&#45;&gt;Node9 -->
<g id="edge8_Node000001_Node000009" class="edge">
<title>Node1&#45;&gt;Node9</title>
<g id="a_edge8_Node000001_Node000009"><a xlink:title=" ">
<path fill="none" stroke="#63b8ff" d="M46.47,-193.55C60.03,-181.79 82.84,-162.21 103,-146 113.5,-137.55 125.36,-128.45 135.37,-120.88"/>
<polygon fill="#63b8ff" stroke="#63b8ff" points="137.19,-123.89 143.08,-115.08 132.99,-118.29 137.19,-123.89"/>
</a>
</g>
</g>
<!-- Node11 -->
<g id="Node000011" class="node">
<title>Node11</title>
<g id="a_Node000011"><a xlink:href="group__sortable___t_vector.html#ga1b7a4850be6488c69c293bdd13f729a7" target="_top" xlink:title="Ověření korektního setřídění vektoru.">
<polygon fill="white" stroke="#666666" points="215,-220 103,-220 103,-188 215,-188 215,-220"/>
<text text-anchor="start" x="111" y="-206.5" font-family="Helvetica,sans-Serif" font-size="10.00">vector_is_ascendantly</text>
<text text-anchor="middle" x="159" y="-194.5" font-family="Helvetica,sans-Serif" font-size="10.00">_sorted</text>
</a>
</g>
</g>
<!-- Node1&#45;&gt;Node11 -->
<g id="edge12_Node000001_Node000011" class="edge">
<title>Node1&#45;&gt;Node11</title>
<g id="a_edge12_Node000001_Node000011"><a xlink:title=" ">
<path fill="none" stroke="#63b8ff" d="M67.27,-204C74.74,-204 82.94,-204 91.26,-204"/>
<polygon fill="#63b8ff" stroke="#63b8ff" points="91.11,-207.5 101.11,-204 91.11,-200.5 91.11,-207.5"/>
</a>
</g>
</g>
<!-- Node13 -->
<g id="Node000013" class="node">
<title>Node13</title>
<g id="a_Node000013"><a xlink:href="group___t_vector_iterator.html#ga40d7eff2ece0eb356d27cdcdef255560" target="_top" xlink:title="Vytvoření nového iterátoru ukazujícího na počáteční element.">
<polygon fill="white" stroke="#666666" points="211.62,-58 106.38,-58 106.38,-38 211.62,-38 211.62,-58"/>
<text text-anchor="middle" x="159" y="-44.5" font-family="Helvetica,sans-Serif" font-size="10.00">vector_iterator_begin</text>
</a>
</g>
</g>
<!-- Node1&#45;&gt;Node13 -->
<g id="edge16_Node000001_Node000013" class="edge">
<title>Node1&#45;&gt;Node13</title>
<g id="a_edge16_Node000001_Node000013"><a xlink:title=" ">
<path fill="none" stroke="#63b8ff" d="M38.5,-193.76C47.44,-171.83 70.81,-119.52 103,-85 110.3,-77.17 119.55,-70.15 128.38,-64.38"/>
<polygon fill="#63b8ff" stroke="#63b8ff" points="130.07,-67.45 136.75,-59.21 126.4,-61.49 130.07,-67.45"/>
</a>
</g>
</g>
<!-- Node14 -->
<g id="Node000014" class="node">
<title>Node14</title>
<g id="a_Node000014"><a xlink:href="group__sortable___t_vector.html#gac0806530378fe49a3d61622ca8b9957e" target="_top" xlink:title="Zobrazení hodnoty statistik počtu operací s elementy vektoru.">
<polygon fill="white" stroke="#666666" points="213.5,-20 104.5,-20 104.5,0 213.5,0 213.5,-20"/>
<text text-anchor="middle" x="159" y="-6.5" font-family="Helvetica,sans-Serif" font-size="10.00">vector_print_sortstats</text>
</a>
</g>
</g>
<!-- Node1&#45;&gt;Node14 -->
<g id="edge19_Node000001_Node000014" class="edge">
<title>Node1&#45;&gt;Node14</title>
<g id="a_edge19_Node000001_Node000014"><a xlink:title=" ">
<path fill="none" stroke="#63b8ff" d="M35.55,-193.68C39.15,-163.81 53.58,-76.46 103,-29 103.89,-28.14 104.83,-27.32 105.79,-26.54"/>
<polygon fill="#63b8ff" stroke="#63b8ff" points="107.48,-29.62 114,-21.27 103.7,-23.73 107.48,-29.62"/>
</a>
</g>
</g>
<!-- Node4 -->
<g id="Node000004" class="node">
<title>Node4</title>
<g id="a_Node000004"><a xlink:href="group___t_vector_element.html#gaaae5b52d7f1d155134792f040f00a385" target="_top" xlink:title="Uložení elementu do souboru.">
<polygon fill="white" stroke="#666666" points="381.38,-322 255.88,-322 255.88,-302 381.38,-302 381.38,-322"/>
<text text-anchor="middle" x="318.62" y="-308.5" font-family="Helvetica,sans-Serif" font-size="10.00">vector_element_store_file</text>
</a>
</g>
</g>
<!-- Node3&#45;&gt;Node4 -->
<g id="edge3_Node000003_Node000004" class="edge">
<title>Node3&#45;&gt;Node4</title>
<g id="a_edge3_Node000003_Node000004"><a xlink:title=" ">
<path fill="none" stroke="#63b8ff" d="M196.56,-292.03C210.96,-294.41 228.03,-297.22 244.74,-299.98"/>
<polygon fill="#63b8ff" stroke="#63b8ff" points="243.71,-303.35 254.15,-301.53 244.85,-296.45 243.71,-303.35"/>
</a>
</g>
</g>
<!-- Node5 -->
<g id="Node000005" class="node">
<title>Node5</title>
<g id="a_Node000005"><a xlink:href="group___t_vector_iterator.html#ga4d8032eb9dbbdccf794611f2b0c9821c" target="_top" xlink:title="Přečtení hodnoty elementu z vektoru pomocí iterátoru.">
<polygon fill="white" stroke="#666666" points="370.5,-284 266.75,-284 266.75,-264 370.5,-264 370.5,-284"/>
<text text-anchor="middle" x="318.62" y="-270.5" font-family="Helvetica,sans-Serif" font-size="10.00">vector_iterator_value</text>
</a>
</g>
</g>
<!-- Node3&#45;&gt;Node5 -->
<g id="edge4_Node000003_Node000005" class="edge">
<title>Node3&#45;&gt;Node5</title>
<g id="a_edge4_Node000003_Node000005"><a xlink:title=" ">
<path fill="none" stroke="#63b8ff" d="M196.56,-283.22C213.89,-281.9 235.1,-280.28 254.89,-278.78"/>
<polygon fill="#63b8ff" stroke="#63b8ff" points="255.13,-282.27 264.83,-278.02 254.59,-275.29 255.13,-282.27"/>
</a>
</g>
</g>
<!-- Node5&#45;&gt;Node6 -->
<g id="edge5_Node000005_Node000006" class="edge">
<title>Node5&#45;&gt;Node6</title>
<g id="a_edge5_Node000005_Node000006"><a xlink:title=" ">
<path fill="none" stroke="#63b8ff" d="M370.82,-274C383.7,-274 397.58,-274 410.66,-274"/>
<polygon fill="#63b8ff" stroke="#63b8ff" points="410.38,-277.5 420.38,-274 410.38,-270.5 410.38,-277.5"/>
</a>
</g>
</g>
<!-- Node9&#45;&gt;Node6 -->
<g id="edge10_Node000009_Node000006" class="edge">
<title>Node9&#45;&gt;Node6</title>
<g id="a_edge10_Node000009_Node000006"><a xlink:title=" ">
<path fill="none" stroke="#63b8ff" d="M206.45,-107.01C263.92,-111.51 357.68,-121.61 386.25,-141 423.78,-166.48 446.45,-216.02 457.57,-246.93"/>
<polygon fill="#63b8ff" stroke="#63b8ff" points="454.24,-248 460.78,-256.33 460.86,-245.74 454.24,-248"/>
</a>
</g>
</g>
<!-- Node9&#45;&gt;Node9 -->
<g id="edge9_Node000009_Node000009" class="edge">
<title>Node9&#45;&gt;Node9</title>
<g id="a_edge9_Node000009_Node000009"><a xlink:title=" ">
<path fill="none" stroke="#63b8ff" d="M139.06,-114.34C130.54,-122.98 137.18,-132 159,-132 170.93,-132 178.32,-129.3 181.18,-125.44"/>
<polygon fill="#63b8ff" stroke="#63b8ff" points="184.65,-124.93 179.24,-115.82 177.79,-126.32 184.65,-124.93"/>
</a>
</g>
</g>
<!-- Node10 -->
<g id="Node000010" class="node">
<title>Node10</title>
<g id="a_Node000010"><a xlink:href="group___t_vector_iterator.html#ga7ce07cda016d67e3ca891125613ece56" target="_top" xlink:title="Posunutí iterátoru vpřed.">
<polygon fill="white" stroke="#666666" points="375.75,-94 261.5,-94 261.5,-74 375.75,-74 375.75,-94"/>
<text text-anchor="middle" x="318.62" y="-80.5" font-family="Helvetica,sans-Serif" font-size="10.00">vector_iterator_to_next</text>
</a>
</g>
</g>
<!-- Node9&#45;&gt;Node10 -->
<g id="edge11_Node000009_Node000010" class="edge">
<title>Node9&#45;&gt;Node10</title>
<g id="a_edge11_Node000009_Node000010"><a xlink:title=" ">
<path fill="none" stroke="#63b8ff" d="M206.44,-98.11C220.12,-96.37 235.37,-94.44 250.08,-92.57"/>
<polygon fill="#63b8ff" stroke="#63b8ff" points="250.22,-96.08 259.7,-91.35 249.34,-89.14 250.22,-96.08"/>
</a>
</g>
</g>
<!-- Node11&#45;&gt;Node7 -->
<g id="edge13_Node000011_Node000007" class="edge">
<title>Node11&#45;&gt;Node7</title>
<g id="a_edge13_Node000011_Node000007"><a xlink:title=" ">
<path fill="none" stroke="#63b8ff" d="M215.13,-215.19C233.77,-218.98 254.37,-223.16 272.17,-226.77"/>
<polygon fill="#63b8ff" stroke="#63b8ff" points="271.44,-230.2 281.94,-228.76 272.84,-223.34 271.44,-230.2"/>
</a>
</g>
</g>
<!-- Node11&#45;&gt;Node8 -->
<g id="edge14_Node000011_Node000008" class="edge">
<title>Node11&#45;&gt;Node8</title>
<g id="a_edge14_Node000011_Node000008"><a xlink:title=" ">
<path fill="none" stroke="#63b8ff" d="M215.13,-188.61C232.75,-183.69 252.12,-178.29 269.23,-173.51"/>
<polygon fill="#63b8ff" stroke="#63b8ff" points="269.95,-176.94 278.64,-170.88 268.07,-170.2 269.95,-176.94"/>
</a>
</g>
</g>
<!-- Node12 -->
<g id="Node000012" class="node">
<title>Node12</title>
<g id="a_Node000012"><a xlink:href="group___t_vector_element.html#ga82e527836fce12c93af896f65e9f701d" target="_top" xlink:title="Porovnání dvou elementů">
<polygon fill="white" stroke="#666666" points="386.25,-208 251,-208 251,-188 386.25,-188 386.25,-208"/>
<text text-anchor="middle" x="318.62" y="-194.5" font-family="Helvetica,sans-Serif" font-size="10.00">vector_element_comparator</text>
</a>
</g>
</g>
<!-- Node11&#45;&gt;Node12 -->
<g id="edge15_Node000011_Node000012" class="edge">
<title>Node11&#45;&gt;Node12</title>
<g id="a_edge15_Node000011_Node000012"><a xlink:title=" ">
<path fill="none" stroke="#63b8ff" d="M215.13,-201.9C222.91,-201.61 231.04,-201.3 239.16,-200.99"/>
<polygon fill="#63b8ff" stroke="#63b8ff" points="239.22,-204.49 249.08,-200.61 238.96,-197.49 239.22,-204.49"/>
</a>
</g>
</g>
<!-- Node13&#45;&gt;Node13 -->
<g id="edge17_Node000013_Node000013" class="edge">
<title>Node13&#45;&gt;Node13</title>
<g id="a_edge17_Node000013_Node000013"><a xlink:title=" ">
<path fill="none" stroke="#63b8ff" d="M139.06,-58.34C130.54,-66.98 137.18,-76 159,-76 170.93,-76 178.32,-73.3 181.18,-69.44"/>
<polygon fill="#63b8ff" stroke="#63b8ff" points="184.65,-68.93 179.24,-59.82 177.79,-70.32 184.65,-68.93"/>
</a>
</g>
</g>
</g>
</svg>
