<?xml version="1.0" encoding="UTF-8" standalone="no"?>
<!DOCTYPE svg PUBLIC "-//W3C//DTD SVG 1.1//EN"
 "http://www.w3.org/Graphics/SVG/1.1/DTD/svg11.dtd">
<!-- Generated by graphviz version 11.0.0 (20240428.1522)
 -->
<!-- Title: vector_iterator_is_valid Pages: 1 -->
<svg width="572pt" height="408pt"
 viewBox="0.00 0.00 571.75 408.48" xmlns="http://www.w3.org/2000/svg" xmlns:xlink="http://www.w3.org/1999/xlink">
<g id="graph0" class="graph" transform="scale(1 1) rotate(0) translate(4 404.48)">
<title>vector_iterator_is_valid</title>
<!-- Node1 -->
<g id="Node000001" class="node">
<title>Node1</title>
<g id="a_Node000001"><a xlink:title="Zjištění platnosti iterátoru.">
<polygon fill="#999999" stroke="#666666" points="563.75,-218 474.25,-218 474.25,-186 563.75,-186 563.75,-218"/>
<text text-anchor="start" x="482.25" y="-204.5" font-family="Helvetica,sans-Serif" font-size="10.00">vector_iterator_is</text>
<text text-anchor="middle" x="519" y="-192.5" font-family="Helvetica,sans-Serif" font-size="10.00">_valid</text>
</a>
</g>
</g>
<!-- Node2 -->
<g id="Node000002" class="node">
<title>Node2</title>
<g id="a_Node000002"><a xlink:href="group___main_program.html#ga7343209645c93203da0a86613abfed04" target="_top" xlink:title="Testování třídicí metody.">
<polygon fill="white" stroke="#666666" points="140,-234 73,-234 73,-214 140,-214 140,-234"/>
<text text-anchor="middle" x="106.5" y="-220.5" font-family="Helvetica,sans-Serif" font-size="10.00">sort_testing</text>
</a>
</g>
</g>
<!-- Node1&#45;&gt;Node2 -->
<g id="edge1_Node000001_Node000002" class="edge">
<title>Node1&#45;&gt;Node2</title>
<g id="a_edge1_Node000001_Node000002"><a xlink:title=" ">
<path fill="none" stroke="#63b8ff" d="M514.89,-229.71C508.6,-270.96 490.21,-347.27 438.25,-381 318.83,-458.53 155.16,-280.18 116.11,-234.38"/>
<polygon fill="#63b8ff" stroke="#63b8ff" points="518.35,-230.24 516.24,-219.85 511.41,-229.28 518.35,-230.24"/>
</a>
</g>
</g>
<!-- Node4 -->
<g id="Node000004" class="node">
<title>Node4</title>
<g id="a_Node000004"><a xlink:href="group__sortable___t_vector_iterator.html#gaa359594c5556fb685473666fad583ddf" target="_top" xlink:title="Porovnání mezi hodnotou elementu vektoru určenou iterátorem a hodnotou typu VectorElement.">
<polygon fill="white" stroke="#666666" points="425.5,-372 318.75,-372 318.75,-340 425.5,-340 425.5,-372"/>
<text text-anchor="start" x="326.75" y="-358.5" font-family="Helvetica,sans-Serif" font-size="10.00">vector_compare_with</text>
<text text-anchor="middle" x="372.12" y="-346.5" font-family="Helvetica,sans-Serif" font-size="10.00">_iterator_value</text>
</a>
</g>
</g>
<!-- Node1&#45;&gt;Node4 -->
<g id="edge3_Node000001_Node000004" class="edge">
<title>Node1&#45;&gt;Node4</title>
<g id="a_edge3_Node000001_Node000004"><a xlink:title=" ">
<path fill="none" stroke="#63b8ff" d="M507.63,-228.76C495.19,-257.66 471.72,-303.27 438.25,-331 434.33,-334.24 429.95,-337.1 425.35,-339.6"/>
<polygon fill="#63b8ff" stroke="#63b8ff" points="510.83,-230.19 511.43,-219.62 504.36,-227.51 510.83,-230.19"/>
</a>
</g>
</g>
<!-- Node5 -->
<g id="Node000005" class="node">
<title>Node5</title>
<g id="a_Node000005"><a xlink:href="group__sortable___t_vector_iterator.html#gadd8aded92ce2c6402742a57316412d39" target="_top" xlink:title="Porovnání hodnot elementů vektorů určených dvěma iterátory.">
<polygon fill="white" stroke="#666666" points="425.5,-322 318.75,-322 318.75,-290 425.5,-290 425.5,-322"/>
<text text-anchor="start" x="326.75" y="-308.5" font-family="Helvetica,sans-Serif" font-size="10.00">vector_compare_with</text>
<text text-anchor="middle" x="372.12" y="-296.5" font-family="Helvetica,sans-Serif" font-size="10.00">_iterators</text>
</a>
</g>
</g>
<!-- Node1&#45;&gt;Node5 -->
<g id="edge4_Node000001_Node000005" class="edge">
<title>Node1&#45;&gt;Node5</title>
<g id="a_edge4_Node000001_Node000005"><a xlink:title=" ">
<path fill="none" stroke="#63b8ff" d="M497.99,-226.66C483.03,-243.79 461.25,-266.14 438.25,-281 433.37,-284.15 428.03,-287.01 422.57,-289.55"/>
<polygon fill="#63b8ff" stroke="#63b8ff" points="500.37,-229.27 504.19,-219.39 495.04,-224.73 500.37,-229.27"/>
</a>
</g>
</g>
<!-- Node6 -->
<g id="Node000006" class="node">
<title>Node6</title>
<g id="a_Node000006"><a xlink:href="group___iterator_algorithms.html#gad9872ced82843c0e0864a8e2547ca579" target="_top" xlink:title="Zavolání zvolené funkce na každý element vektoru od pozice určené iterátorem až do konce vektoru.">
<polygon fill="white" stroke="#666666" points="413.88,-272 330.38,-272 330.38,-252 413.88,-252 413.88,-272"/>
<text text-anchor="middle" x="372.12" y="-258.5" font-family="Helvetica,sans-Serif" font-size="10.00">vector_for_each</text>
</a>
</g>
</g>
<!-- Node1&#45;&gt;Node6 -->
<g id="edge5_Node000001_Node000006" class="edge">
<title>Node1&#45;&gt;Node6</title>
<g id="a_edge5_Node000001_Node000006"><a xlink:title=" ">
<path fill="none" stroke="#63b8ff" d="M472.51,-223.2C461.37,-228.21 449.44,-233.42 438.25,-238 426.76,-242.7 413.98,-247.51 402.8,-251.57"/>
<polygon fill="#63b8ff" stroke="#63b8ff" points="473.86,-226.44 481.52,-219.12 470.97,-220.06 473.86,-226.44"/>
</a>
</g>
</g>
<!-- Node7 -->
<g id="Node000007" class="node">
<title>Node7</title>
<g id="a_Node000007"><a xlink:href="group___iterator_algorithms.html#ga914d4c2ad472c0d71a4b5e9265b60e9c" target="_top" xlink:title="Zavolání zvolené funkce na prvních N elementů vektoru od pozice určené iterátorem.">
<polygon fill="white" stroke="#666666" points="270,-234 176,-234 176,-214 270,-214 270,-234"/>
<text text-anchor="middle" x="223" y="-220.5" font-family="Helvetica,sans-Serif" font-size="10.00">vector_for_each_n</text>
</a>
</g>
</g>
<!-- Node1&#45;&gt;Node7 -->
<g id="edge6_Node000001_Node000007" class="edge">
<title>Node1&#45;&gt;Node7</title>
<g id="a_edge6_Node000001_Node000007"><a xlink:title=" ">
<path fill="none" stroke="#63b8ff" d="M462.59,-206.15C407,-210.31 322.36,-216.64 270.26,-220.54"/>
<polygon fill="#63b8ff" stroke="#63b8ff" points="462.76,-209.64 472.48,-205.41 462.24,-202.66 462.76,-209.64"/>
</a>
</g>
</g>
<!-- Node8 -->
<g id="Node000008" class="node">
<title>Node8</title>
<g id="a_Node000008"><a xlink:href="group___t_vector_iterator.html#ga66f6b96e416a7e593b1cf703f58be7ca" target="_top" xlink:title="Zapsání hodnoty elementu do vektoru pomocí iterátoru.">
<polygon fill="white" stroke="#666666" points="419.88,-196 324.38,-196 324.38,-164 419.88,-164 419.88,-196"/>
<text text-anchor="start" x="332.38" y="-182.5" font-family="Helvetica,sans-Serif" font-size="10.00">vector_iterator_set</text>
<text text-anchor="middle" x="372.12" y="-170.5" font-family="Helvetica,sans-Serif" font-size="10.00">_value</text>
</a>
</g>
</g>
<!-- Node1&#45;&gt;Node8 -->
<g id="edge9_Node000001_Node000008" class="edge">
<title>Node1&#45;&gt;Node8</title>
<g id="a_edge9_Node000001_Node000008"><a xlink:title=" ">
<path fill="none" stroke="#63b8ff" d="M463.1,-193.66C449.03,-191.53 434.01,-189.25 420.37,-187.17"/>
<polygon fill="#63b8ff" stroke="#63b8ff" points="462.23,-197.07 472.64,-195.11 463.28,-190.15 462.23,-197.07"/>
</a>
</g>
</g>
<!-- Node9 -->
<g id="Node000009" class="node">
<title>Node9</title>
<g id="a_Node000009"><a xlink:href="group___t_vector_iterator.html#ga4d8032eb9dbbdccf794611f2b0c9821c" target="_top" xlink:title="Přečtení hodnoty elementu z vektoru pomocí iterátoru.">
<polygon fill="white" stroke="#666666" points="424,-146 320.25,-146 320.25,-126 424,-126 424,-146"/>
<text text-anchor="middle" x="372.12" y="-132.5" font-family="Helvetica,sans-Serif" font-size="10.00">vector_iterator_value</text>
</a>
</g>
</g>
<!-- Node1&#45;&gt;Node9 -->
<g id="edge10_Node000001_Node000009" class="edge">
<title>Node1&#45;&gt;Node9</title>
<g id="a_edge10_Node000001_Node000009"><a xlink:title=" ">
<path fill="none" stroke="#63b8ff" d="M484.14,-179.52C470.31,-171.02 453.92,-161.78 438.25,-155 430.79,-151.77 422.62,-148.91 414.67,-146.44"/>
<polygon fill="#63b8ff" stroke="#63b8ff" points="482.09,-182.37 492.42,-184.72 485.81,-176.44 482.09,-182.37"/>
</a>
</g>
</g>
<!-- Node11 -->
<g id="Node000011" class="node">
<title>Node11</title>
<g id="a_Node000011"><a xlink:href="group__sortable___t_vector_iterator.html#gaa3e549d3e67e2168311acc8f4a494cc5" target="_top" xlink:title="Přesun hodnoty elementu vektoru určené dvěma iterátory.">
<polygon fill="white" stroke="#666666" points="438.25,-108 306,-108 306,-88 438.25,-88 438.25,-108"/>
<text text-anchor="middle" x="372.12" y="-94.5" font-family="Helvetica,sans-Serif" font-size="10.00">vector_move_with_iterators</text>
</a>
</g>
</g>
<!-- Node1&#45;&gt;Node11 -->
<g id="edge13_Node000001_Node000011" class="edge">
<title>Node1&#45;&gt;Node11</title>
<g id="a_edge13_Node000001_Node000011"><a xlink:title=" ">
<path fill="none" stroke="#63b8ff" d="M500.26,-176.74C485.65,-157.73 463.33,-132.4 438.25,-117 432.73,-113.61 426.57,-110.8 420.31,-108.48"/>
<polygon fill="#63b8ff" stroke="#63b8ff" points="497.29,-178.62 506.07,-184.55 502.9,-174.44 497.29,-178.62"/>
</a>
</g>
</g>
<!-- Node12 -->
<g id="Node000012" class="node">
<title>Node12</title>
<g id="a_Node000012"><a xlink:href="group__sortable___t_vector_iterator.html#ga015969daf209d461aaf0ba4391df4b5b" target="_top" xlink:title="Výměna mezi hodnotou elementu vektoru určenou iterátorem a proměnnou typu VectorElement.">
<polygon fill="white" stroke="#666666" points="435.62,-70 308.62,-70 308.62,-38 435.62,-38 435.62,-70"/>
<text text-anchor="start" x="316.62" y="-56.5" font-family="Helvetica,sans-Serif" font-size="10.00">vector_swap_with_iterator</text>
<text text-anchor="middle" x="372.12" y="-44.5" font-family="Helvetica,sans-Serif" font-size="10.00">_value</text>
</a>
</g>
</g>
<!-- Node1&#45;&gt;Node12 -->
<g id="edge14_Node000001_Node000012" class="edge">
<title>Node1&#45;&gt;Node12</title>
<g id="a_edge14_Node000001_Node000012"><a xlink:title=" ">
<path fill="none" stroke="#63b8ff" d="M506.74,-175.23C493.88,-147.63 470.4,-105.05 438.25,-79 434.3,-75.8 429.89,-72.97 425.28,-70.49"/>
<polygon fill="#63b8ff" stroke="#63b8ff" points="503.53,-176.64 510.82,-184.32 509.92,-173.77 503.53,-176.64"/>
</a>
</g>
</g>
<!-- Node13 -->
<g id="Node000013" class="node">
<title>Node13</title>
<g id="a_Node000013"><a xlink:href="group__sortable___t_vector_iterator.html#gac16589d02c81c789a7fa6cd323a49013" target="_top" xlink:title="Výměna hodnot elementů vektorů určených dvěma iterátory.">
<polygon fill="white" stroke="#666666" points="438.25,-20 306,-20 306,0 438.25,0 438.25,-20"/>
<text text-anchor="middle" x="372.12" y="-6.5" font-family="Helvetica,sans-Serif" font-size="10.00">vector_swap_with_iterators</text>
</a>
</g>
</g>
<!-- Node1&#45;&gt;Node13 -->
<g id="edge15_Node000001_Node000013" class="edge">
<title>Node1&#45;&gt;Node13</title>
<g id="a_edge15_Node000001_Node000013"><a xlink:title=" ">
<path fill="none" stroke="#63b8ff" d="M512.86,-174.94C504.21,-136.82 483.09,-67.65 438.25,-29 434.24,-25.54 429.62,-22.71 424.74,-20.39"/>
<polygon fill="#63b8ff" stroke="#63b8ff" points="509.34,-175.18 514.84,-184.23 516.18,-173.72 509.34,-175.18"/>
</a>
</g>
</g>
<!-- Node3 -->
<g id="Node000003" class="node">
<title>Node3</title>
<g id="a_Node000003"><a xlink:href="group___main_program.html#ga0ddf1224851353fc92bfbff6f499fa97" target="_top" xlink:title=" ">
<polygon fill="white" stroke="#666666" points="37,-234 0,-234 0,-214 37,-214 37,-234"/>
<text text-anchor="middle" x="18.5" y="-220.5" font-family="Helvetica,sans-Serif" font-size="10.00">main</text>
</a>
</g>
</g>
<!-- Node2&#45;&gt;Node3 -->
<g id="edge2_Node000002_Node000003" class="edge">
<title>Node2&#45;&gt;Node3</title>
<g id="a_edge2_Node000002_Node000003"><a xlink:title=" ">
<path fill="none" stroke="#63b8ff" d="M61.64,-224C52.94,-224 44.29,-224 37.11,-224"/>
<polygon fill="#63b8ff" stroke="#63b8ff" points="61.47,-227.5 71.47,-224 61.47,-220.5 61.47,-227.5"/>
</a>
</g>
</g>
<!-- Node7&#45;&gt;Node2 -->
<g id="edge7_Node000007_Node000002" class="edge">
<title>Node7&#45;&gt;Node2</title>
<g id="a_edge7_Node000007_Node000002"><a xlink:title=" ">
<path fill="none" stroke="#63b8ff" d="M164.46,-224C156.13,-224 147.81,-224 140.2,-224"/>
<polygon fill="#63b8ff" stroke="#63b8ff" points="164.24,-227.5 174.24,-224 164.24,-220.5 164.24,-227.5"/>
</a>
</g>
</g>
<!-- Node7&#45;&gt;Node7 -->
<g id="edge8_Node000007_Node000007" class="edge">
<title>Node7&#45;&gt;Node7</title>
<g id="a_edge8_Node000007_Node000007"><a xlink:title=" ">
<path fill="none" stroke="#63b8ff" d="M243.59,-245.44C240.94,-249.3 234.07,-252 223,-252 202.75,-252 196.58,-242.98 204.49,-234.34"/>
<polygon fill="#63b8ff" stroke="#63b8ff" points="247.07,-245.01 241.79,-235.83 240.19,-246.3 247.07,-245.01"/>
</a>
</g>
</g>
<!-- Node10 -->
<g id="Node000010" class="node">
<title>Node10</title>
<g id="a_Node000010"><a xlink:href="group___basic_sorts.html#ga25c7ac8991c266d71b75cf20c14b67cf" target="_top" xlink:title="Vytisknutí elementu vektoru pomocí iterátoru.">
<polygon fill="white" stroke="#666666" points="260.25,-171 185.75,-171 185.75,-151 260.25,-151 260.25,-171"/>
<text text-anchor="middle" x="223" y="-157.5" font-family="Helvetica,sans-Serif" font-size="10.00">print_element</text>
</a>
</g>
</g>
<!-- Node9&#45;&gt;Node10 -->
<g id="edge11_Node000009_Node000010" class="edge">
<title>Node9&#45;&gt;Node10</title>
<g id="a_edge11_Node000009_Node000010"><a xlink:title=" ">
<path fill="none" stroke="#63b8ff" d="M308.86,-146.58C292.4,-149.38 275.18,-152.3 260.58,-154.78"/>
<polygon fill="#63b8ff" stroke="#63b8ff" points="309.32,-150.05 318.59,-144.93 308.14,-143.15 309.32,-150.05"/>
</a>
</g>
</g>
<!-- Node10&#45;&gt;Node2 -->
<g id="edge12_Node000010_Node000002" class="edge">
<title>Node10&#45;&gt;Node2</title>
<g id="a_edge12_Node000010_Node000002"><a xlink:title=" ">
<path fill="none" stroke="#63b8ff" d="M193.16,-176.87C172.26,-188.37 144.59,-203.59 126.44,-213.58"/>
<polygon fill="#63b8ff" stroke="#63b8ff" points="194.69,-180.02 201.77,-172.13 191.32,-173.89 194.69,-180.02"/>
</a>
</g>
</g>
</g>
</svg>
