<?xml version="1.0" encoding="UTF-8" standalone="no"?>
<!DOCTYPE svg PUBLIC "-//W3C//DTD SVG 1.1//EN"
 "http://www.w3.org/Graphics/SVG/1.1/DTD/svg11.dtd">
<!-- Generated by graphviz version 11.0.0 (20240428.1522)
 -->
<!-- Title: vector_for_each_n Pages: 1 -->
<svg width="278pt" height="46pt"
 viewBox="0.00 0.00 278.00 46.00" xmlns="http://www.w3.org/2000/svg" xmlns:xlink="http://www.w3.org/1999/xlink">
<g id="graph0" class="graph" transform="scale(1 1) rotate(0) translate(4 42)">
<title>vector_for_each_n</title>
<!-- Node1 -->
<g id="Node000001" class="node">
<title>Node1</title>
<g id="a_Node000001"><a xlink:title="Zavolání zvolené funkce na prvních N elementů vektoru od pozice určené iterátorem.">
<polygon fill="#999999" stroke="#666666" points="270,-20 176,-20 176,0 270,0 270,-20"/>
<text text-anchor="middle" x="223" y="-6.5" font-family="Helvetica,sans-Serif" font-size="10.00">vector_for_each_n</text>
</a>
</g>
</g>
<!-- Node1&#45;&gt;Node1 -->
<g id="edge3_Node000001_Node000001" class="edge">
<title>Node1&#45;&gt;Node1</title>
<g id="a_edge3_Node000001_Node000001"><a xlink:title=" ">
<path fill="none" stroke="#63b8ff" d="M243.59,-31.44C240.94,-35.3 234.07,-38 223,-38 202.75,-38 196.58,-28.98 204.49,-20.34"/>
<polygon fill="#63b8ff" stroke="#63b8ff" points="247.07,-31.01 241.79,-21.83 240.19,-32.3 247.07,-31.01"/>
</a>
</g>
</g>
<!-- Node2 -->
<g id="Node000002" class="node">
<title>Node2</title>
<g id="a_Node000002"><a xlink:href="group___main_program.html#ga7343209645c93203da0a86613abfed04" target="_top" xlink:title="Testování třídicí metody.">
<polygon fill="white" stroke="#666666" points="140,-20 73,-20 73,0 140,0 140,-20"/>
<text text-anchor="middle" x="106.5" y="-6.5" font-family="Helvetica,sans-Serif" font-size="10.00">sort_testing</text>
</a>
</g>
</g>
<!-- Node1&#45;&gt;Node2 -->
<g id="edge1_Node000001_Node000002" class="edge">
<title>Node1&#45;&gt;Node2</title>
<g id="a_edge1_Node000001_Node000002"><a xlink:title=" ">
<path fill="none" stroke="#63b8ff" d="M164.46,-10C156.13,-10 147.81,-10 140.2,-10"/>
<polygon fill="#63b8ff" stroke="#63b8ff" points="164.24,-13.5 174.24,-10 164.24,-6.5 164.24,-13.5"/>
</a>
</g>
</g>
<!-- Node3 -->
<g id="Node000003" class="node">
<title>Node3</title>
<g id="a_Node000003"><a xlink:href="group___main_program.html#ga0ddf1224851353fc92bfbff6f499fa97" target="_top" xlink:title=" ">
<polygon fill="white" stroke="#666666" points="37,-20 0,-20 0,0 37,0 37,-20"/>
<text text-anchor="middle" x="18.5" y="-6.5" font-family="Helvetica,sans-Serif" font-size="10.00">main</text>
</a>
</g>
</g>
<!-- Node2&#45;&gt;Node3 -->
<g id="edge2_Node000002_Node000003" class="edge">
<title>Node2&#45;&gt;Node3</title>
<g id="a_edge2_Node000002_Node000003"><a xlink:title=" ">
<path fill="none" stroke="#63b8ff" d="M61.64,-10C52.94,-10 44.29,-10 37.11,-10"/>
<polygon fill="#63b8ff" stroke="#63b8ff" points="61.47,-13.5 71.47,-10 61.47,-6.5 61.47,-13.5"/>
</a>
</g>
</g>
</g>
</svg>
