<?xml version="1.0" encoding="UTF-8" standalone="no"?>
<!DOCTYPE svg PUBLIC "-//W3C//DTD SVG 1.1//EN"
 "http://www.w3.org/Graphics/SVG/1.1/DTD/svg11.dtd">
<!-- Generated by graphviz version 11.0.0 (20240428.1522)
 -->
<!-- Title: bubble_sort_optimized2 Pages: 1 -->
<svg width="463pt" height="104pt"
 viewBox="0.00 0.00 462.50 104.00" xmlns="http://www.w3.org/2000/svg" xmlns:xlink="http://www.w3.org/1999/xlink">
<g id="graph0" class="graph" transform="scale(1 1) rotate(0) translate(4 100)">
<title>bubble_sort_optimized2</title>
<!-- Node1 -->
<g id="Node000001" class="node">
<title>Node1</title>
<g id="a_Node000001"><a xlink:title="Třídění přímou výměnou včetně optimalizace s výpočtem indexu poslední změny (Bubble Sort Optimized2).">
<polygon fill="#999999" stroke="#666666" points="118.75,-58 0,-58 0,-38 118.75,-38 118.75,-58"/>
<text text-anchor="middle" x="59.38" y="-44.5" font-family="Helvetica,sans-Serif" font-size="10.00">bubble_sort_optimized2</text>
</a>
</g>
</g>
<!-- Node2 -->
<g id="Node000002" class="node">
<title>Node2</title>
<g id="a_Node000002"><a xlink:href="group__sortable___t_vector.html#gaedaf9c79afa345e5e71e5c66ab25fa26" target="_top" xlink:title="Porovnání hodnot elementů vektorů">
<polygon fill="white" stroke="#666666" points="283.25,-96 154.75,-96 154.75,-76 283.25,-76 283.25,-96"/>
<text text-anchor="middle" x="219" y="-82.5" font-family="Helvetica,sans-Serif" font-size="10.00">vector_compare_positions</text>
</a>
</g>
</g>
<!-- Node1&#45;&gt;Node2 -->
<g id="edge1_Node000001_Node000002" class="edge">
<title>Node1&#45;&gt;Node2</title>
<g id="a_edge1_Node000001_Node000002"><a xlink:title=" ">
<path fill="none" stroke="#63b8ff" d="M103.86,-58.48C122.3,-62.93 143.98,-68.16 163.47,-72.85"/>
<polygon fill="#63b8ff" stroke="#63b8ff" points="162.64,-76.25 173.18,-75.2 164.28,-69.45 162.64,-76.25"/>
</a>
</g>
</g>
<!-- Node4 -->
<g id="Node000004" class="node">
<title>Node4</title>
<g id="a_Node000004"><a xlink:href="group___t_vector.html#ga2502e6ec116dbac5e49f5b62b07dc898" target="_top" xlink:title="Přečtení počtu elementů vektoru.">
<polygon fill="white" stroke="#666666" points="251.38,-58 186.62,-58 186.62,-38 251.38,-38 251.38,-58"/>
<text text-anchor="middle" x="219" y="-44.5" font-family="Helvetica,sans-Serif" font-size="10.00">vector_size</text>
</a>
</g>
</g>
<!-- Node1&#45;&gt;Node4 -->
<g id="edge3_Node000001_Node000004" class="edge">
<title>Node1&#45;&gt;Node4</title>
<g id="a_edge3_Node000001_Node000004"><a xlink:title=" ">
<path fill="none" stroke="#63b8ff" d="M119.07,-48C137.56,-48 157.63,-48 174.84,-48"/>
<polygon fill="#63b8ff" stroke="#63b8ff" points="174.72,-51.5 184.72,-48 174.72,-44.5 174.72,-51.5"/>
</a>
</g>
</g>
<!-- Node5 -->
<g id="Node000005" class="node">
<title>Node5</title>
<g id="a_Node000005"><a xlink:href="group__sortable___t_vector.html#gac1982d8a0e5f66f933dc6a0413f2d23e" target="_top" xlink:title="Výměna hodnot elementů vektorů">
<polygon fill="white" stroke="#666666" points="275.75,-20 162.25,-20 162.25,0 275.75,0 275.75,-20"/>
<text text-anchor="middle" x="219" y="-6.5" font-family="Helvetica,sans-Serif" font-size="10.00">vector_swap_positions</text>
</a>
</g>
</g>
<!-- Node1&#45;&gt;Node5 -->
<g id="edge4_Node000001_Node000005" class="edge">
<title>Node1&#45;&gt;Node5</title>
<g id="a_edge4_Node000001_Node000005"><a xlink:title=" ">
<path fill="none" stroke="#63b8ff" d="M103.86,-37.52C122.3,-33.07 143.98,-27.84 163.47,-23.15"/>
<polygon fill="#63b8ff" stroke="#63b8ff" points="164.28,-26.55 173.18,-20.8 162.64,-19.75 164.28,-26.55"/>
</a>
</g>
</g>
<!-- Node3 -->
<g id="Node000003" class="node">
<title>Node3</title>
<g id="a_Node000003"><a xlink:href="group___t_vector_element.html#ga82e527836fce12c93af896f65e9f701d" target="_top" xlink:title="Porovnání dvou elementů">
<polygon fill="white" stroke="#666666" points="454.5,-96 319.25,-96 319.25,-76 454.5,-76 454.5,-96"/>
<text text-anchor="middle" x="386.88" y="-82.5" font-family="Helvetica,sans-Serif" font-size="10.00">vector_element_comparator</text>
</a>
</g>
</g>
<!-- Node2&#45;&gt;Node3 -->
<g id="edge2_Node000002_Node000003" class="edge">
<title>Node2&#45;&gt;Node3</title>
<g id="a_edge2_Node000002_Node000003"><a xlink:title=" ">
<path fill="none" stroke="#63b8ff" d="M283.66,-86C291.48,-86 299.55,-86 307.56,-86"/>
<polygon fill="#63b8ff" stroke="#63b8ff" points="307.3,-89.5 317.3,-86 307.3,-82.5 307.3,-89.5"/>
</a>
</g>
</g>
</g>
</svg>
