<?xml version="1.0" encoding="UTF-8" standalone="no"?>
<!DOCTYPE svg PUBLIC "-//W3C//DTD SVG 1.1//EN"
 "http://www.w3.org/Graphics/SVG/1.1/DTD/svg11.dtd">
<!-- Generated by graphviz version 11.0.0 (20240428.1522)
 -->
<!-- Title: vector_size Pages: 1 -->
<svg width="301pt" height="256pt"
 viewBox="0.00 0.00 300.50 256.00" xmlns="http://www.w3.org/2000/svg" xmlns:xlink="http://www.w3.org/1999/xlink">
<g id="graph0" class="graph" transform="scale(1 1) rotate(0) translate(4 252)">
<title>vector_size</title>
<!-- Node1 -->
<g id="Node000001" class="node">
<title>Node1</title>
<g id="a_Node000001"><a xlink:title="Přečtení počtu elementů vektoru.">
<polygon fill="#999999" stroke="#666666" points="292.5,-134 227.75,-134 227.75,-114 292.5,-114 292.5,-134"/>
<text text-anchor="middle" x="260.12" y="-120.5" font-family="Helvetica,sans-Serif" font-size="10.00">vector_size</text>
</a>
</g>
</g>
<!-- Node2 -->
<g id="Node000002" class="node">
<title>Node2</title>
<g id="a_Node000002"><a xlink:href="group___basic_sorts.html#gaa1ef093f5205f293df8303ac228452fc" target="_top" xlink:title="Třídění přímou výměnou (Bubble Sort).">
<polygon fill="white" stroke="#666666" points="165.5,-248 99.25,-248 99.25,-228 165.5,-228 165.5,-248"/>
<text text-anchor="middle" x="132.38" y="-234.5" font-family="Helvetica,sans-Serif" font-size="10.00">bubble_sort</text>
</a>
</g>
</g>
<!-- Node1&#45;&gt;Node2 -->
<g id="edge1_Node000001_Node000002" class="edge">
<title>Node1&#45;&gt;Node2</title>
<g id="a_edge1_Node000001_Node000002"><a xlink:title=" ">
<path fill="none" stroke="#63b8ff" d="M248.29,-144.29C236.66,-164.38 216.49,-194.84 191.75,-214 184.13,-219.91 174.85,-224.59 165.95,-228.19"/>
<polygon fill="#63b8ff" stroke="#63b8ff" points="251.29,-146.09 253.11,-135.65 245.18,-142.68 251.29,-146.09"/>
</a>
</g>
</g>
<!-- Node3 -->
<g id="Node000003" class="node">
<title>Node3</title>
<g id="a_Node000003"><a xlink:href="group___main_program.html#ga0ddf1224851353fc92bfbff6f499fa97" target="_top" xlink:title=" ">
<polygon fill="white" stroke="#666666" points="37,-153 0,-153 0,-133 37,-133 37,-153"/>
<text text-anchor="middle" x="18.5" y="-139.5" font-family="Helvetica,sans-Serif" font-size="10.00">main</text>
</a>
</g>
</g>
<!-- Node1&#45;&gt;Node3 -->
<g id="edge7_Node000001_Node000003" class="edge">
<title>Node1&#45;&gt;Node3</title>
<g id="a_edge7_Node000001_Node000003"><a xlink:title=" ">
<path fill="none" stroke="#63b8ff" d="M243.78,-142.65C231.36,-156.18 212.56,-173.38 191.75,-181 142.19,-199.15 123.28,-197.04 73,-181 56.07,-175.6 39.91,-162.67 29.86,-153.39"/>
<polygon fill="#63b8ff" stroke="#63b8ff" points="246.36,-145.01 250.31,-135.18 241.09,-140.41 246.36,-145.01"/>
</a>
</g>
</g>
<!-- Node4 -->
<g id="Node000004" class="node">
<title>Node4</title>
<g id="a_Node000004"><a xlink:href="group___basic_sorts.html#ga62a36eb31bf0a873f7c027e145843b1a" target="_top" xlink:title="Třídění přímou výměnou včetně optimalizace s pomocným příznakem ukončení třídění (Bubble Sort Optimiz...">
<polygon fill="white" stroke="#666666" points="189.12,-172 75.62,-172 75.62,-152 189.12,-152 189.12,-172"/>
<text text-anchor="middle" x="132.38" y="-158.5" font-family="Helvetica,sans-Serif" font-size="10.00">bubble_sort_optimized</text>
</a>
</g>
</g>
<!-- Node1&#45;&gt;Node4 -->
<g id="edge3_Node000001_Node000004" class="edge">
<title>Node1&#45;&gt;Node4</title>
<g id="a_edge3_Node000001_Node000004"><a xlink:title=" ">
<path fill="none" stroke="#63b8ff" d="M216.73,-136.81C200.79,-141.63 182.87,-147.04 167.75,-151.61"/>
<polygon fill="#63b8ff" stroke="#63b8ff" points="217.38,-140.27 225.94,-134.03 215.36,-133.57 217.38,-140.27"/>
</a>
</g>
</g>
<!-- Node5 -->
<g id="Node000005" class="node">
<title>Node5</title>
<g id="a_Node000005"><a xlink:href="group___basic_sorts.html#gaba41a68f00241f38f7864b4e1dacd086" target="_top" xlink:title="Třídění přímou výměnou včetně optimalizace s výpočtem indexu poslední změny (Bubble Sort Optimized2).">
<polygon fill="white" stroke="#666666" points="191.75,-134 73,-134 73,-114 191.75,-114 191.75,-134"/>
<text text-anchor="middle" x="132.38" y="-120.5" font-family="Helvetica,sans-Serif" font-size="10.00">bubble_sort_optimized2</text>
</a>
</g>
</g>
<!-- Node1&#45;&gt;Node5 -->
<g id="edge5_Node000001_Node000005" class="edge">
<title>Node1&#45;&gt;Node5</title>
<g id="a_edge5_Node000001_Node000005"><a xlink:title=" ">
<path fill="none" stroke="#63b8ff" d="M216.06,-124C208.32,-124 200.13,-124 192.04,-124"/>
<polygon fill="#63b8ff" stroke="#63b8ff" points="215.88,-127.5 225.88,-124 215.88,-120.5 215.88,-127.5"/>
</a>
</g>
</g>
<!-- Node6 -->
<g id="Node000006" class="node">
<title>Node6</title>
<g id="a_Node000006"><a xlink:href="group___basic_sorts.html#ga3688a58781905ac2e518285b8bb711ec" target="_top" xlink:title="Třídění přímým výběrem (Select Sort).">
<polygon fill="white" stroke="#666666" points="164.38,-96 100.38,-96 100.38,-76 164.38,-76 164.38,-96"/>
<text text-anchor="middle" x="132.38" y="-82.5" font-family="Helvetica,sans-Serif" font-size="10.00">select_sort</text>
</a>
</g>
</g>
<!-- Node1&#45;&gt;Node6 -->
<g id="edge8_Node000001_Node000006" class="edge">
<title>Node1&#45;&gt;Node6</title>
<g id="a_edge8_Node000001_Node000006"><a xlink:title=" ">
<path fill="none" stroke="#63b8ff" d="M216.6,-111.15C199.59,-106.01 180.35,-100.2 164.66,-95.45"/>
<polygon fill="#63b8ff" stroke="#63b8ff" points="215.36,-114.43 225.94,-113.97 217.38,-107.73 215.36,-114.43"/>
</a>
</g>
</g>
<!-- Node7 -->
<g id="Node000007" class="node">
<title>Node7</title>
<g id="a_Node000007"><a xlink:href="group___basic_sorts.html#gaacee5d609500566a6ad1724486ab8bb2" target="_top" xlink:title="Třídění přímou výměnou se změnou postupu třídění (Shaker Sort).">
<polygon fill="white" stroke="#666666" points="165.88,-58 98.88,-58 98.88,-38 165.88,-38 165.88,-58"/>
<text text-anchor="middle" x="132.38" y="-44.5" font-family="Helvetica,sans-Serif" font-size="10.00">shaker_sort</text>
</a>
</g>
</g>
<!-- Node1&#45;&gt;Node7 -->
<g id="edge10_Node000001_Node000007" class="edge">
<title>Node1&#45;&gt;Node7</title>
<g id="a_edge10_Node000001_Node000007"><a xlink:title=" ">
<path fill="none" stroke="#63b8ff" d="M241.63,-105.86C228.81,-93.45 210.45,-77.42 191.75,-67 183.84,-62.59 174.74,-59.01 166.12,-56.2"/>
<polygon fill="#63b8ff" stroke="#63b8ff" points="238.93,-108.11 248.49,-112.69 243.87,-103.15 238.93,-108.11"/>
</a>
</g>
</g>
<!-- Node8 -->
<g id="Node000008" class="node">
<title>Node8</title>
<g id="a_Node000008"><a xlink:href="group___t_vector.html#ga744f02ddf3e1909e408b28b148b5076b" target="_top" xlink:title="Zjištění, zda je vektor prázdný">
<polygon fill="white" stroke="#666666" points="175.62,-20 89.12,-20 89.12,0 175.62,0 175.62,-20"/>
<text text-anchor="middle" x="132.38" y="-6.5" font-family="Helvetica,sans-Serif" font-size="10.00">vector_is_empty</text>
</a>
</g>
</g>
<!-- Node1&#45;&gt;Node8 -->
<g id="edge12_Node000001_Node000008" class="edge">
<title>Node1&#45;&gt;Node8</title>
<g id="a_edge12_Node000001_Node000008"><a xlink:title=" ">
<path fill="none" stroke="#63b8ff" d="M249.54,-103.47C238.5,-81.95 218.4,-48.6 191.75,-29 187.03,-25.53 181.64,-22.67 176.09,-20.32"/>
<polygon fill="#63b8ff" stroke="#63b8ff" points="246.39,-104.98 253.94,-112.41 252.67,-101.9 246.39,-104.98"/>
</a>
</g>
</g>
<!-- Node2&#45;&gt;Node3 -->
<g id="edge2_Node000002_Node000003" class="edge">
<title>Node2&#45;&gt;Node3</title>
<g id="a_edge2_Node000002_Node000003"><a xlink:title=" ">
<path fill="none" stroke="#63b8ff" d="M88.33,-223.45C82.91,-220.73 77.65,-217.59 73,-214 50.89,-196.93 33.3,-168.5 24.89,-153.31"/>
<polygon fill="#63b8ff" stroke="#63b8ff" points="86.88,-226.63 97.43,-227.55 89.75,-220.25 86.88,-226.63"/>
</a>
</g>
</g>
<!-- Node4&#45;&gt;Node3 -->
<g id="edge4_Node000004_Node000003" class="edge">
<title>Node4&#45;&gt;Node3</title>
<g id="a_edge4_Node000004_Node000003"><a xlink:title=" ">
<path fill="none" stroke="#63b8ff" d="M64.21,-150.59C54.39,-148.93 45.05,-147.34 37.47,-146.05"/>
<polygon fill="#63b8ff" stroke="#63b8ff" points="63.5,-154.02 73.95,-152.25 64.67,-147.12 63.5,-154.02"/>
</a>
</g>
</g>
<!-- Node5&#45;&gt;Node3 -->
<g id="edge6_Node000005_Node000003" class="edge">
<title>Node5&#45;&gt;Node3</title>
<g id="a_edge6_Node000005_Node000003"><a xlink:title=" ">
<path fill="none" stroke="#63b8ff" d="M61.74,-135.83C52.81,-137.34 44.38,-138.77 37.43,-139.96"/>
<polygon fill="#63b8ff" stroke="#63b8ff" points="62.05,-139.32 71.32,-134.2 60.88,-132.42 62.05,-139.32"/>
</a>
</g>
</g>
<!-- Node6&#45;&gt;Node3 -->
<g id="edge9_Node000006_Node000003" class="edge">
<title>Node6&#45;&gt;Node3</title>
<g id="a_edge9_Node000006_Node000003"><a xlink:title=" ">
<path fill="none" stroke="#63b8ff" d="M89.37,-97.96C83.76,-100.05 78.16,-102.4 73,-105 57.73,-112.68 41.99,-124.41 31.57,-132.8"/>
<polygon fill="#63b8ff" stroke="#63b8ff" points="90.34,-101.33 98.65,-94.76 88.05,-94.71 90.34,-101.33"/>
</a>
</g>
</g>
<!-- Node7&#45;&gt;Node3 -->
<g id="edge11_Node000007_Node000003" class="edge">
<title>Node7&#45;&gt;Node3</title>
<g id="a_edge11_Node000007_Node000003"><a xlink:title=" ">
<path fill="none" stroke="#63b8ff" d="M87.64,-58.74C82.45,-61.01 77.43,-63.73 73,-67 49.12,-84.64 31.93,-116.18 24.15,-132.53"/>
<polygon fill="#63b8ff" stroke="#63b8ff" points="88.84,-62.03 96.98,-55.24 86.39,-55.47 88.84,-62.03"/>
</a>
</g>
</g>
</g>
</svg>
