<?xml version="1.0" encoding="UTF-8" standalone="no"?>
<!DOCTYPE svg PUBLIC "-//W3C//DTD SVG 1.1//EN"
 "http://www.w3.org/Graphics/SVG/1.1/DTD/svg11.dtd">
<!-- Generated by graphviz version 11.0.0 (20240428.1522)
 -->
<!-- Title: vector_destroy Pages: 1 -->
<svg width="411pt" height="97pt"
 viewBox="0.00 0.00 411.00 97.00" xmlns="http://www.w3.org/2000/svg" xmlns:xlink="http://www.w3.org/1999/xlink">
<g id="graph0" class="graph" transform="scale(1 1) rotate(0) translate(4 93)">
<title>vector_destroy</title>
<!-- Node1 -->
<g id="Node000001" class="node">
<title>Node1</title>
<g id="a_Node000001"><a xlink:title="Dealokace vektoru.">
<polygon fill="#999999" stroke="#666666" points="403,-70 324,-70 324,-50 403,-50 403,-70"/>
<text text-anchor="middle" x="363.5" y="-56.5" font-family="Helvetica,sans-Serif" font-size="10.00">vector_destroy</text>
</a>
</g>
</g>
<!-- Node2 -->
<g id="Node000002" class="node">
<title>Node2</title>
<g id="a_Node000002"><a xlink:href="group___main_program.html#ga0ddf1224851353fc92bfbff6f499fa97" target="_top" xlink:title=" ">
<polygon fill="white" stroke="#666666" points="37,-89 0,-89 0,-69 37,-69 37,-89"/>
<text text-anchor="middle" x="18.5" y="-75.5" font-family="Helvetica,sans-Serif" font-size="10.00">main</text>
</a>
</g>
</g>
<!-- Node1&#45;&gt;Node2 -->
<g id="edge1_Node000001_Node000002" class="edge">
<title>Node1&#45;&gt;Node2</title>
<g id="a_edge1_Node000001_Node000002"><a xlink:title=" ">
<path fill="none" stroke="#63b8ff" d="M312.36,-70.5C304.25,-71.89 295.91,-73.13 288,-74 194.16,-84.34 80.77,-81.45 37.48,-79.79"/>
<polygon fill="#63b8ff" stroke="#63b8ff" points="312.91,-73.96 322.13,-68.73 311.66,-67.07 312.91,-73.96"/>
</a>
</g>
</g>
<!-- Node3 -->
<g id="Node000003" class="node">
<title>Node3</title>
<g id="a_Node000003"><a xlink:href="group___main_program.html#ga7343209645c93203da0a86613abfed04" target="_top" xlink:title="Testování třídicí metody.">
<polygon fill="white" stroke="#666666" points="140,-70 73,-70 73,-50 140,-50 140,-70"/>
<text text-anchor="middle" x="106.5" y="-56.5" font-family="Helvetica,sans-Serif" font-size="10.00">sort_testing</text>
</a>
</g>
</g>
<!-- Node1&#45;&gt;Node3 -->
<g id="edge2_Node000001_Node000003" class="edge">
<title>Node1&#45;&gt;Node3</title>
<g id="a_edge2_Node000001_Node000003"><a xlink:title=" ">
<path fill="none" stroke="#63b8ff" d="M312.39,-60C261.5,-60 184.15,-60 140.5,-60"/>
<polygon fill="#63b8ff" stroke="#63b8ff" points="312.26,-63.5 322.26,-60 312.26,-56.5 312.26,-63.5"/>
</a>
</g>
</g>
<!-- Node4 -->
<g id="Node000004" class="node">
<title>Node4</title>
<g id="a_Node000004"><a xlink:href="group__sortable___t_vector.html#ga1b7a4850be6488c69c293bdd13f729a7" target="_top" xlink:title="Ověření korektního setřídění vektoru.">
<polygon fill="white" stroke="#666666" points="288,-32 176,-32 176,0 288,0 288,-32"/>
<text text-anchor="start" x="184" y="-18.5" font-family="Helvetica,sans-Serif" font-size="10.00">vector_is_ascendantly</text>
<text text-anchor="middle" x="232" y="-6.5" font-family="Helvetica,sans-Serif" font-size="10.00">_sorted</text>
</a>
</g>
</g>
<!-- Node1&#45;&gt;Node4 -->
<g id="edge4_Node000001_Node000004" class="edge">
<title>Node1&#45;&gt;Node4</title>
<g id="a_edge4_Node000001_Node000004"><a xlink:title=" ">
<path fill="none" stroke="#63b8ff" d="M321.12,-45.94C308.49,-41.65 294.49,-36.89 281.44,-32.46"/>
<polygon fill="#63b8ff" stroke="#63b8ff" points="319.78,-49.18 330.38,-49.09 322.03,-42.55 319.78,-49.18"/>
</a>
</g>
</g>
<!-- Node3&#45;&gt;Node2 -->
<g id="edge3_Node000003_Node000002" class="edge">
<title>Node3&#45;&gt;Node2</title>
<g id="a_edge3_Node000003_Node000002"><a xlink:title=" ">
<path fill="none" stroke="#63b8ff" d="M61.94,-69.62C53.14,-71.57 44.37,-73.5 37.11,-75.11"/>
<polygon fill="#63b8ff" stroke="#63b8ff" points="62.5,-73.08 71.51,-67.51 60.99,-66.25 62.5,-73.08"/>
</a>
</g>
</g>
<!-- Node4&#45;&gt;Node3 -->
<g id="edge5_Node000004_Node000003" class="edge">
<title>Node4&#45;&gt;Node3</title>
<g id="a_edge5_Node000004_Node000003"><a xlink:title=" ">
<path fill="none" stroke="#63b8ff" d="M174.22,-36.23C161.23,-40.86 147.94,-45.59 136.68,-49.6"/>
<polygon fill="#63b8ff" stroke="#63b8ff" points="175.34,-39.55 183.59,-32.89 172.99,-32.95 175.34,-39.55"/>
</a>
</g>
</g>
</g>
</svg>
