<?xml version="1.0" encoding="UTF-8" standalone="no"?>
<!DOCTYPE svg PUBLIC "-//W3C//DTD SVG 1.1//EN"
 "http://www.w3.org/Graphics/SVG/1.1/DTD/svg11.dtd">
<!-- Generated by graphviz version 11.0.0 (20240428.1522)
 -->
<!-- Title: vector_swap_with_iterator_value Pages: 1 -->
<svg width="279pt" height="90pt"
 viewBox="0.00 0.00 279.25 90.00" xmlns="http://www.w3.org/2000/svg" xmlns:xlink="http://www.w3.org/1999/xlink">
<g id="graph0" class="graph" transform="scale(1 1) rotate(0) translate(4 86)">
<title>vector_swap_with_iterator_value</title>
<!-- Node1 -->
<g id="Node000001" class="node">
<title>Node1</title>
<g id="a_Node000001"><a xlink:title="Výměna mezi hodnotou elementu vektoru určenou iterátorem a proměnnou typu VectorElement.">
<polygon fill="#999999" stroke="#666666" points="127,-57 0,-57 0,-25 127,-25 127,-57"/>
<text text-anchor="start" x="8" y="-43.5" font-family="Helvetica,sans-Serif" font-size="10.00">vector_swap_with_iterator</text>
<text text-anchor="middle" x="63.5" y="-31.5" font-family="Helvetica,sans-Serif" font-size="10.00">_value</text>
</a>
</g>
</g>
<!-- Node2 -->
<g id="Node000002" class="node">
<title>Node2</title>
<g id="a_Node000002"><a xlink:href="group___t_vector_iterator.html#ga3f8a97a63f887539e270f6845bf22b9a" target="_top" xlink:title="Zjištění platnosti iterátoru.">
<polygon fill="white" stroke="#666666" points="261.88,-82 172.38,-82 172.38,-50 261.88,-50 261.88,-82"/>
<text text-anchor="start" x="180.38" y="-68.5" font-family="Helvetica,sans-Serif" font-size="10.00">vector_iterator_is</text>
<text text-anchor="middle" x="217.12" y="-56.5" font-family="Helvetica,sans-Serif" font-size="10.00">_valid</text>
</a>
</g>
</g>
<!-- Node1&#45;&gt;Node2 -->
<g id="edge1_Node000001_Node000002" class="edge">
<title>Node1&#45;&gt;Node2</title>
<g id="a_edge1_Node000001_Node000002"><a xlink:title=" ">
<path fill="none" stroke="#63b8ff" d="M127.49,-51.39C138.6,-53.22 150.09,-55.11 160.96,-56.9"/>
<polygon fill="#63b8ff" stroke="#63b8ff" points="160.1,-60.31 170.54,-58.48 161.24,-53.4 160.1,-60.31"/>
</a>
</g>
</g>
<!-- Node3 -->
<g id="Node000003" class="node">
<title>Node3</title>
<g id="a_Node000003"><a xlink:href="group__sortable___t_vector.html#gabdff161479b4c497204dc32fd2202e6f" target="_top" xlink:title="Výměna mezi hodnotou elementu vektoru a proměnnou typu VectorElement.">
<polygon fill="white" stroke="#666666" points="271.25,-32 163,-32 163,0 271.25,0 271.25,-32"/>
<text text-anchor="start" x="171" y="-18.5" font-family="Helvetica,sans-Serif" font-size="10.00">vector_swap_position</text>
<text text-anchor="middle" x="217.12" y="-6.5" font-family="Helvetica,sans-Serif" font-size="10.00">_value</text>
</a>
</g>
</g>
<!-- Node1&#45;&gt;Node3 -->
<g id="edge2_Node000001_Node000003" class="edge">
<title>Node1&#45;&gt;Node3</title>
<g id="a_edge2_Node000001_Node000003"><a xlink:title=" ">
<path fill="none" stroke="#63b8ff" d="M127.49,-30.61C135.45,-29.3 143.61,-27.96 151.59,-26.64"/>
<polygon fill="#63b8ff" stroke="#63b8ff" points="151.94,-30.13 161.24,-25.05 150.8,-23.22 151.94,-30.13"/>
</a>
</g>
</g>
</g>
</svg>
