<?xml version="1.0" encoding="UTF-8" standalone="no"?>
<!DOCTYPE svg PUBLIC "-//W3C//DTD SVG 1.1//EN"
 "http://www.w3.org/Graphics/SVG/1.1/DTD/svg11.dtd">
<!-- Generated by graphviz version 11.0.0 (20240428.1522)
 -->
<!-- Title: insert_sort Pages: 1 -->
<svg width="400pt" height="154pt"
 viewBox="0.00 0.00 400.25 154.00" xmlns="http://www.w3.org/2000/svg" xmlns:xlink="http://www.w3.org/1999/xlink">
<g id="graph0" class="graph" transform="scale(1 1) rotate(0) translate(4 150)">
<title>insert_sort</title>
<!-- Node1 -->
<g id="Node000001" class="node">
<title>Node1</title>
<g id="a_Node000001"><a xlink:title="Třídění přímým vkládáním (Insert Sort).">
<polygon fill="#999999" stroke="#666666" points="61.75,-77 0,-77 0,-57 61.75,-57 61.75,-77"/>
<text text-anchor="middle" x="30.88" y="-63.5" font-family="Helvetica,sans-Serif" font-size="10.00">insert_sort</text>
</a>
</g>
</g>
<!-- Node2 -->
<g id="Node000002" class="node">
<title>Node2</title>
<g id="a_Node000002"><a xlink:href="group__sortable___t_vector.html#ga09e150aa4cdd8faabf43474ab1dbe454" target="_top" xlink:title="Porovnání mezi hodnotou elementu vektoru a hodnotou typu VectorElement.">
<polygon fill="white" stroke="#666666" points="221,-146 97.75,-146 97.75,-114 221,-114 221,-146"/>
<text text-anchor="start" x="105.75" y="-132.5" font-family="Helvetica,sans-Serif" font-size="10.00">vector_compare_position</text>
<text text-anchor="middle" x="159.38" y="-120.5" font-family="Helvetica,sans-Serif" font-size="10.00">_value</text>
</a>
</g>
</g>
<!-- Node1&#45;&gt;Node2 -->
<g id="edge1_Node000001_Node000002" class="edge">
<title>Node1&#45;&gt;Node2</title>
<g id="a_edge1_Node000001_Node000002"><a xlink:title=" ">
<path fill="none" stroke="#63b8ff" d="M48.6,-77.47C61.72,-85.48 80.57,-96.55 97.75,-105 100.48,-106.34 103.3,-107.68 106.17,-108.99"/>
<polygon fill="#63b8ff" stroke="#63b8ff" points="104.69,-112.17 115.25,-113.03 107.53,-105.77 104.69,-112.17"/>
</a>
</g>
</g>
<!-- Node4 -->
<g id="Node000004" class="node">
<title>Node4</title>
<g id="a_Node000004"><a xlink:href="group__sortable___t_vector.html#ga16623c06371077674f5d4d31e38e42a4" target="_top" xlink:title="Přesun hodnoty elementu vektoru.">
<polygon fill="white" stroke="#666666" points="216.12,-96 102.62,-96 102.62,-76 216.12,-76 216.12,-96"/>
<text text-anchor="middle" x="159.38" y="-82.5" font-family="Helvetica,sans-Serif" font-size="10.00">vector_move_positions</text>
</a>
</g>
</g>
<!-- Node1&#45;&gt;Node4 -->
<g id="edge3_Node000001_Node000004" class="edge">
<title>Node1&#45;&gt;Node4</title>
<g id="a_edge3_Node000001_Node000004"><a xlink:title=" ">
<path fill="none" stroke="#63b8ff" d="M62.17,-71.55C70.94,-72.87 80.87,-74.36 90.95,-75.87"/>
<polygon fill="#63b8ff" stroke="#63b8ff" points="90.42,-79.33 100.83,-77.36 91.46,-72.41 90.42,-79.33"/>
</a>
</g>
</g>
<!-- Node5 -->
<g id="Node000005" class="node">
<title>Node5</title>
<g id="a_Node000005"><a xlink:href="group___t_vector.html#gabd5ba54950295545d27b1286234ead39" target="_top" xlink:title="Zapsání hodnoty elementu do vektoru na požadovanou pozici.">
<polygon fill="white" stroke="#666666" points="203,-58 115.75,-58 115.75,-38 203,-38 203,-58"/>
<text text-anchor="middle" x="159.38" y="-44.5" font-family="Helvetica,sans-Serif" font-size="10.00">vector_set_value</text>
</a>
</g>
</g>
<!-- Node1&#45;&gt;Node5 -->
<g id="edge4_Node000001_Node000005" class="edge">
<title>Node1&#45;&gt;Node5</title>
<g id="a_edge4_Node000001_Node000005"><a xlink:title=" ">
<path fill="none" stroke="#63b8ff" d="M62.17,-62.45C74.75,-60.56 89.73,-58.31 104.09,-56.15"/>
<polygon fill="#63b8ff" stroke="#63b8ff" points="104.54,-59.63 113.91,-54.68 103.5,-52.7 104.54,-59.63"/>
</a>
</g>
</g>
<!-- Node6 -->
<g id="Node000006" class="node">
<title>Node6</title>
<g id="a_Node000006"><a xlink:href="group___t_vector.html#ga2b08236d9825632cd96bcc89faed929c" target="_top" xlink:title="Přečtení hodnoty elementu z vektoru na požadované pozici.">
<polygon fill="white" stroke="#666666" points="193.62,-20 125.12,-20 125.12,0 193.62,0 193.62,-20"/>
<text text-anchor="middle" x="159.38" y="-6.5" font-family="Helvetica,sans-Serif" font-size="10.00">vector_value</text>
</a>
</g>
</g>
<!-- Node1&#45;&gt;Node6 -->
<g id="edge5_Node000001_Node000006" class="edge">
<title>Node1&#45;&gt;Node6</title>
<g id="a_edge5_Node000001_Node000006"><a xlink:title=" ">
<path fill="none" stroke="#63b8ff" d="M47.6,-56.61C60.63,-48.33 79.86,-36.85 97.75,-29 102.98,-26.7 108.58,-24.56 114.18,-22.6"/>
<polygon fill="#63b8ff" stroke="#63b8ff" points="115.02,-26.01 123.42,-19.54 112.82,-19.36 115.02,-26.01"/>
</a>
</g>
</g>
<!-- Node3 -->
<g id="Node000003" class="node">
<title>Node3</title>
<g id="a_Node000003"><a xlink:href="group___t_vector_element.html#ga82e527836fce12c93af896f65e9f701d" target="_top" xlink:title="Porovnání dvou elementů">
<polygon fill="white" stroke="#666666" points="392.25,-140 257,-140 257,-120 392.25,-120 392.25,-140"/>
<text text-anchor="middle" x="324.62" y="-126.5" font-family="Helvetica,sans-Serif" font-size="10.00">vector_element_comparator</text>
</a>
</g>
</g>
<!-- Node2&#45;&gt;Node3 -->
<g id="edge2_Node000002_Node000003" class="edge">
<title>Node2&#45;&gt;Node3</title>
<g id="a_edge2_Node000002_Node000003"><a xlink:title=" ">
<path fill="none" stroke="#63b8ff" d="M221.16,-130C229.05,-130 237.22,-130 245.34,-130"/>
<polygon fill="#63b8ff" stroke="#63b8ff" points="245.24,-133.5 255.24,-130 245.24,-126.5 245.24,-133.5"/>
</a>
</g>
</g>
</g>
</svg>
