<?xml version="1.0" encoding="UTF-8" standalone="no"?>
<!DOCTYPE svg PUBLIC "-//W3C//DTD SVG 1.1//EN"
 "http://www.w3.org/Graphics/SVG/1.1/DTD/svg11.dtd">
<!-- Generated by graphviz version 11.0.0 (20240428.1522)
 -->
<!-- Title: vector_compare_with_iterators Pages: 1 -->
<svg width="451pt" height="78pt"
 viewBox="0.00 0.00 450.50 78.00" xmlns="http://www.w3.org/2000/svg" xmlns:xlink="http://www.w3.org/1999/xlink">
<g id="graph0" class="graph" transform="scale(1 1) rotate(0) translate(4 74)">
<title>vector_compare_with_iterators</title>
<!-- Node1 -->
<g id="Node000001" class="node">
<title>Node1</title>
<g id="a_Node000001"><a xlink:title="Porovnání hodnot elementů vektorů určených dvěma iterátory.">
<polygon fill="#999999" stroke="#666666" points="106.75,-54 0,-54 0,-22 106.75,-22 106.75,-54"/>
<text text-anchor="start" x="8" y="-40.5" font-family="Helvetica,sans-Serif" font-size="10.00">vector_compare_with</text>
<text text-anchor="middle" x="53.38" y="-28.5" font-family="Helvetica,sans-Serif" font-size="10.00">_iterators</text>
</a>
</g>
</g>
<!-- Node2 -->
<g id="Node000002" class="node">
<title>Node2</title>
<g id="a_Node000002"><a xlink:href="group__sortable___t_vector.html#gaedaf9c79afa345e5e71e5c66ab25fa26" target="_top" xlink:title="Porovnání hodnot elementů vektorů">
<polygon fill="white" stroke="#666666" points="271.25,-70 142.75,-70 142.75,-50 271.25,-50 271.25,-70"/>
<text text-anchor="middle" x="207" y="-56.5" font-family="Helvetica,sans-Serif" font-size="10.00">vector_compare_positions</text>
</a>
</g>
</g>
<!-- Node1&#45;&gt;Node2 -->
<g id="edge1_Node000001_Node000002" class="edge">
<title>Node1&#45;&gt;Node2</title>
<g id="a_edge1_Node000001_Node000002"><a xlink:title=" ">
<path fill="none" stroke="#63b8ff" d="M106.98,-45.63C114.71,-46.75 122.8,-47.93 130.88,-49.1"/>
<polygon fill="#63b8ff" stroke="#63b8ff" points="130.36,-52.56 140.76,-50.53 131.36,-45.63 130.36,-52.56"/>
</a>
</g>
</g>
<!-- Node4 -->
<g id="Node000004" class="node">
<title>Node4</title>
<g id="a_Node000004"><a xlink:href="group___t_vector_iterator.html#ga3f8a97a63f887539e270f6845bf22b9a" target="_top" xlink:title="Zjištění platnosti iterátoru.">
<polygon fill="white" stroke="#666666" points="251.75,-32 162.25,-32 162.25,0 251.75,0 251.75,-32"/>
<text text-anchor="start" x="170.25" y="-18.5" font-family="Helvetica,sans-Serif" font-size="10.00">vector_iterator_is</text>
<text text-anchor="middle" x="207" y="-6.5" font-family="Helvetica,sans-Serif" font-size="10.00">_valid</text>
</a>
</g>
</g>
<!-- Node1&#45;&gt;Node4 -->
<g id="edge3_Node000001_Node000004" class="edge">
<title>Node1&#45;&gt;Node4</title>
<g id="a_edge3_Node000001_Node000004"><a xlink:title=" ">
<path fill="none" stroke="#63b8ff" d="M106.98,-30.37C121.15,-28.31 136.52,-26.08 150.83,-24"/>
<polygon fill="#63b8ff" stroke="#63b8ff" points="151.15,-27.5 160.54,-22.6 150.14,-20.57 151.15,-27.5"/>
</a>
</g>
</g>
<!-- Node3 -->
<g id="Node000003" class="node">
<title>Node3</title>
<g id="a_Node000003"><a xlink:href="group___t_vector_element.html#ga82e527836fce12c93af896f65e9f701d" target="_top" xlink:title="Porovnání dvou elementů">
<polygon fill="white" stroke="#666666" points="442.5,-70 307.25,-70 307.25,-50 442.5,-50 442.5,-70"/>
<text text-anchor="middle" x="374.88" y="-56.5" font-family="Helvetica,sans-Serif" font-size="10.00">vector_element_comparator</text>
</a>
</g>
</g>
<!-- Node2&#45;&gt;Node3 -->
<g id="edge2_Node000002_Node000003" class="edge">
<title>Node2&#45;&gt;Node3</title>
<g id="a_edge2_Node000002_Node000003"><a xlink:title=" ">
<path fill="none" stroke="#63b8ff" d="M271.66,-60C279.48,-60 287.55,-60 295.56,-60"/>
<polygon fill="#63b8ff" stroke="#63b8ff" points="295.3,-63.5 305.3,-60 295.3,-56.5 295.3,-63.5"/>
</a>
</g>
</g>
</g>
</svg>
