<?xml version="1.0" encoding="UTF-8" standalone="no"?>
<!DOCTYPE svg PUBLIC "-//W3C//DTD SVG 1.1//EN"
 "http://www.w3.org/Graphics/SVG/1.1/DTD/svg11.dtd">
<!-- Generated by graphviz version 11.0.0 (20240428.1522)
 -->
<!-- Title: vector_value Pages: 1 -->
<svg width="247pt" height="28pt"
 viewBox="0.00 0.00 247.25 28.00" xmlns="http://www.w3.org/2000/svg" xmlns:xlink="http://www.w3.org/1999/xlink">
<g id="graph0" class="graph" transform="scale(1 1) rotate(0) translate(4 24)">
<title>vector_value</title>
<!-- Node1 -->
<g id="Node000001" class="node">
<title>Node1</title>
<g id="a_Node000001"><a xlink:title="Přečtení hodnoty elementu z vektoru na požadované pozici.">
<polygon fill="#999999" stroke="#666666" points="239.25,-20 170.75,-20 170.75,0 239.25,0 239.25,-20"/>
<text text-anchor="middle" x="205" y="-6.5" font-family="Helvetica,sans-Serif" font-size="10.00">vector_value</text>
</a>
</g>
</g>
<!-- Node2 -->
<g id="Node000002" class="node">
<title>Node2</title>
<g id="a_Node000002"><a xlink:href="group___basic_sorts.html#gac3903c3fd846908cd362e293ed40582e" target="_top" xlink:title="Třídění přímým vkládáním (Insert Sort).">
<polygon fill="white" stroke="#666666" points="134.75,-20 73,-20 73,0 134.75,0 134.75,-20"/>
<text text-anchor="middle" x="103.88" y="-6.5" font-family="Helvetica,sans-Serif" font-size="10.00">insert_sort</text>
</a>
</g>
</g>
<!-- Node1&#45;&gt;Node2 -->
<g id="edge1_Node000001_Node000002" class="edge">
<title>Node1&#45;&gt;Node2</title>
<g id="a_edge1_Node000001_Node000002"><a xlink:title=" ">
<path fill="none" stroke="#63b8ff" d="M159.13,-10C150.98,-10 142.67,-10 135.07,-10"/>
<polygon fill="#63b8ff" stroke="#63b8ff" points="158.93,-13.5 168.93,-10 158.93,-6.5 158.93,-13.5"/>
</a>
</g>
</g>
<!-- Node3 -->
<g id="Node000003" class="node">
<title>Node3</title>
<g id="a_Node000003"><a xlink:href="group___main_program.html#ga0ddf1224851353fc92bfbff6f499fa97" target="_top" xlink:title=" ">
<polygon fill="white" stroke="#666666" points="37,-20 0,-20 0,0 37,0 37,-20"/>
<text text-anchor="middle" x="18.5" y="-6.5" font-family="Helvetica,sans-Serif" font-size="10.00">main</text>
</a>
</g>
</g>
<!-- Node2&#45;&gt;Node3 -->
<g id="edge2_Node000002_Node000003" class="edge">
<title>Node2&#45;&gt;Node3</title>
<g id="a_edge2_Node000002_Node000003"><a xlink:title=" ">
<path fill="none" stroke="#63b8ff" d="M61.31,-10C52.8,-10 44.29,-10 37.18,-10"/>
<polygon fill="#63b8ff" stroke="#63b8ff" points="61.26,-13.5 71.26,-10 61.26,-6.5 61.26,-13.5"/>
</a>
</g>
</g>
</g>
</svg>
