<?xml version="1.0" encoding="UTF-8" standalone="no"?>
<!DOCTYPE svg PUBLIC "-//W3C//DTD SVG 1.1//EN"
 "http://www.w3.org/Graphics/SVG/1.1/DTD/svg11.dtd">
<!-- Generated by graphviz version 11.0.0 (20240428.1522)
 -->
<!-- Title: vector_for_each_n Pages: 1 -->
<svg width="252pt" height="78pt"
 viewBox="0.00 0.00 252.25 78.00" xmlns="http://www.w3.org/2000/svg" xmlns:xlink="http://www.w3.org/1999/xlink">
<g id="graph0" class="graph" transform="scale(1 1) rotate(0) translate(4 74)">
<title>vector_for_each_n</title>
<!-- Node1 -->
<g id="Node000001" class="node">
<title>Node1</title>
<g id="a_Node000001"><a xlink:title="Zavolání zvolené funkce na prvních N elementů vektoru od pozice určené iterátorem.">
<polygon fill="#999999" stroke="#666666" points="94,-42 0,-42 0,-22 94,-22 94,-42"/>
<text text-anchor="middle" x="47" y="-28.5" font-family="Helvetica,sans-Serif" font-size="10.00">vector_for_each_n</text>
</a>
</g>
</g>
<!-- Node1&#45;&gt;Node1 -->
<g id="edge1_Node000001_Node000001" class="edge">
<title>Node1&#45;&gt;Node1</title>
<g id="a_edge1_Node000001_Node000001"><a xlink:title=" ">
<path fill="none" stroke="#63b8ff" d="M24.74,-42.34C15.22,-50.98 22.64,-60 47,-60 60.32,-60 68.58,-57.3 71.77,-53.44"/>
<polygon fill="#63b8ff" stroke="#63b8ff" points="75.21,-52.8 69.6,-43.82 68.38,-54.34 75.21,-52.8"/>
</a>
</g>
</g>
<!-- Node2 -->
<g id="Node000002" class="node">
<title>Node2</title>
<g id="a_Node000002"><a xlink:href="group___t_vector_iterator.html#ga3f8a97a63f887539e270f6845bf22b9a" target="_top" xlink:title="Zjištění platnosti iterátoru.">
<polygon fill="white" stroke="#666666" points="231.88,-70 142.38,-70 142.38,-38 231.88,-38 231.88,-70"/>
<text text-anchor="start" x="150.38" y="-56.5" font-family="Helvetica,sans-Serif" font-size="10.00">vector_iterator_is</text>
<text text-anchor="middle" x="187.12" y="-44.5" font-family="Helvetica,sans-Serif" font-size="10.00">_valid</text>
</a>
</g>
</g>
<!-- Node1&#45;&gt;Node2 -->
<g id="edge2_Node000001_Node000002" class="edge">
<title>Node1&#45;&gt;Node2</title>
<g id="a_edge2_Node000001_Node000002"><a xlink:title=" ">
<path fill="none" stroke="#63b8ff" d="M94.38,-39.39C106.02,-41.24 118.63,-43.25 130.66,-45.17"/>
<polygon fill="#63b8ff" stroke="#63b8ff" points="130.05,-48.61 140.48,-46.73 131.15,-41.7 130.05,-48.61"/>
</a>
</g>
</g>
<!-- Node3 -->
<g id="Node000003" class="node">
<title>Node3</title>
<g id="a_Node000003"><a xlink:href="group___t_vector_iterator.html#ga7ce07cda016d67e3ca891125613ece56" target="_top" xlink:title="Posunutí iterátoru vpřed.">
<polygon fill="white" stroke="#666666" points="244.25,-20 130,-20 130,0 244.25,0 244.25,-20"/>
<text text-anchor="middle" x="187.12" y="-6.5" font-family="Helvetica,sans-Serif" font-size="10.00">vector_iterator_to_next</text>
</a>
</g>
</g>
<!-- Node1&#45;&gt;Node3 -->
<g id="edge3_Node000001_Node000003" class="edge">
<title>Node1&#45;&gt;Node3</title>
<g id="a_edge3_Node000001_Node000003"><a xlink:title=" ">
<path fill="none" stroke="#63b8ff" d="M94.38,-24.61C102.05,-23.39 110.14,-22.1 118.21,-20.82"/>
<polygon fill="#63b8ff" stroke="#63b8ff" points="118.74,-24.28 128.06,-19.25 117.64,-17.36 118.74,-24.28"/>
</a>
</g>
</g>
</g>
</svg>
