<?xml version="1.0" encoding="UTF-8" standalone="no"?>
<!DOCTYPE svg PUBLIC "-//W3C//DTD SVG 1.1//EN"
 "http://www.w3.org/Graphics/SVG/1.1/DTD/svg11.dtd">
<!-- Generated by graphviz version 11.0.0 (20240428.1522)
 -->
<!-- Title: main Pages: 1 -->
<svg width="661pt" height="815pt"
 viewBox="0.00 0.00 661.00 814.58" xmlns="http://www.w3.org/2000/svg" xmlns:xlink="http://www.w3.org/1999/xlink">
<g id="graph0" class="graph" transform="scale(1 1) rotate(0) translate(4 810.58)">
<title>main</title>
<!-- Node1 -->
<g id="Node000001" class="node">
<title>Node1</title>
<g id="a_Node000001"><a xlink:title=" ">
<polygon fill="#999999" stroke="#666666" points="37,-624 0,-624 0,-604 37,-604 37,-624"/>
<text text-anchor="middle" x="18.5" y="-610.5" font-family="Helvetica,sans-Serif" font-size="10.00">main</text>
</a>
</g>
</g>
<!-- Node2 -->
<g id="Node000002" class="node">
<title>Node2</title>
<g id="a_Node000002"><a xlink:href="group___basic_sorts.html#gaa1ef093f5205f293df8303ac228452fc" target="_top" xlink:title="Třídění přímou výměnou (Bubble Sort).">
<polygon fill="white" stroke="#666666" points="165.5,-738 99.25,-738 99.25,-718 165.5,-718 165.5,-738"/>
<text text-anchor="middle" x="132.38" y="-724.5" font-family="Helvetica,sans-Serif" font-size="10.00">bubble_sort</text>
</a>
</g>
</g>
<!-- Node1&#45;&gt;Node2 -->
<g id="edge1_Node000001_Node000002" class="edge">
<title>Node1&#45;&gt;Node2</title>
<g id="a_edge1_Node000001_Node000002"><a xlink:title=" ">
<path fill="none" stroke="#63b8ff" d="M22.49,-624.22C28.68,-643.61 44.74,-685.85 73,-709 77.52,-712.7 82.79,-715.69 88.27,-718.1"/>
<polygon fill="#63b8ff" stroke="#63b8ff" points="86.92,-721.34 97.51,-721.53 89.36,-714.77 86.92,-721.34"/>
</a>
</g>
</g>
<!-- Node5 -->
<g id="Node000005" class="node">
<title>Node5</title>
<g id="a_Node000005"><a xlink:href="group___t_vector.html#ga2502e6ec116dbac5e49f5b62b07dc898" target="_top" xlink:title="Přečtení počtu elementů vektoru.">
<polygon fill="white" stroke="#666666" points="324.38,-776 259.62,-776 259.62,-756 324.38,-756 324.38,-776"/>
<text text-anchor="middle" x="292" y="-762.5" font-family="Helvetica,sans-Serif" font-size="10.00">vector_size</text>
</a>
</g>
</g>
<!-- Node1&#45;&gt;Node5 -->
<g id="edge53_Node000001_Node000005" class="edge">
<title>Node1&#45;&gt;Node5</title>
<g id="a_edge53_Node000001_Node000005"><a xlink:title=" ">
<path fill="none" stroke="#63b8ff" d="M18.98,-624.39C18.06,-655.17 20.11,-746.13 73,-785 127.86,-825.32 212.76,-799.87 258.74,-780.98"/>
<polygon fill="#63b8ff" stroke="#63b8ff" points="260.07,-784.22 267.89,-777.08 257.32,-777.78 260.07,-784.22"/>
</a>
</g>
</g>
<!-- Node7 -->
<g id="Node000007" class="node">
<title>Node7</title>
<g id="a_Node000007"><a xlink:href="group___basic_sorts.html#ga62a36eb31bf0a873f7c027e145843b1a" target="_top" xlink:title="Třídění přímou výměnou včetně optimalizace s pomocným příznakem ukončení třídění (Bubble Sort Optimiz...">
<polygon fill="white" stroke="#666666" points="189.12,-700 75.62,-700 75.62,-680 189.12,-680 189.12,-700"/>
<text text-anchor="middle" x="132.38" y="-686.5" font-family="Helvetica,sans-Serif" font-size="10.00">bubble_sort_optimized</text>
</a>
</g>
</g>
<!-- Node1&#45;&gt;Node7 -->
<g id="edge6_Node000001_Node000007" class="edge">
<title>Node1&#45;&gt;Node7</title>
<g id="a_edge6_Node000001_Node000007"><a xlink:title=" ">
<path fill="none" stroke="#63b8ff" d="M26.64,-624.34C35.92,-637.06 53.29,-658.48 73,-671 75.24,-672.42 77.6,-673.75 80.02,-674.98"/>
<polygon fill="#63b8ff" stroke="#63b8ff" points="78.36,-678.07 88.92,-678.94 81.2,-671.68 78.36,-678.07"/>
</a>
</g>
</g>
<!-- Node8 -->
<g id="Node000008" class="node">
<title>Node8</title>
<g id="a_Node000008"><a xlink:href="group___basic_sorts.html#gaba41a68f00241f38f7864b4e1dacd086" target="_top" xlink:title="Třídění přímou výměnou včetně optimalizace s výpočtem indexu poslední změny (Bubble Sort Optimized2).">
<polygon fill="white" stroke="#666666" points="191.75,-662 73,-662 73,-642 191.75,-642 191.75,-662"/>
<text text-anchor="middle" x="132.38" y="-648.5" font-family="Helvetica,sans-Serif" font-size="10.00">bubble_sort_optimized2</text>
</a>
</g>
</g>
<!-- Node1&#45;&gt;Node8 -->
<g id="edge10_Node000001_Node000008" class="edge">
<title>Node1&#45;&gt;Node8</title>
<g id="a_edge10_Node000001_Node000008"><a xlink:title=" ">
<path fill="none" stroke="#63b8ff" d="M37.29,-620.45C47.68,-624.19 61.06,-628.94 73,-633 77.78,-634.63 82.8,-636.3 87.79,-637.95"/>
<polygon fill="#63b8ff" stroke="#63b8ff" points="86.57,-641.24 97.16,-641.03 88.75,-634.59 86.57,-641.24"/>
</a>
</g>
</g>
<!-- Node9 -->
<g id="Node000009" class="node">
<title>Node9</title>
<g id="a_Node000009"><a xlink:href="group___basic_sorts.html#gac3903c3fd846908cd362e293ed40582e" target="_top" xlink:title="Třídění přímým vkládáním (Insert Sort).">
<polygon fill="white" stroke="#666666" points="163.25,-586 101.5,-586 101.5,-566 163.25,-566 163.25,-586"/>
<text text-anchor="middle" x="132.38" y="-572.5" font-family="Helvetica,sans-Serif" font-size="10.00">insert_sort</text>
</a>
</g>
</g>
<!-- Node1&#45;&gt;Node9 -->
<g id="edge14_Node000001_Node000009" class="edge">
<title>Node1&#45;&gt;Node9</title>
<g id="a_edge14_Node000001_Node000009"><a xlink:title=" ">
<path fill="none" stroke="#63b8ff" d="M37.29,-607.55C47.68,-603.81 61.06,-599.06 73,-595 78.53,-593.12 84.38,-591.17 90.14,-589.27"/>
<polygon fill="#63b8ff" stroke="#63b8ff" points="91.17,-592.62 99.59,-586.18 89,-585.96 91.17,-592.62"/>
</a>
</g>
</g>
<!-- Node14 -->
<g id="Node000014" class="node">
<title>Node14</title>
<g id="a_Node000014"><a xlink:href="group___basic_sorts.html#ga3688a58781905ac2e518285b8bb711ec" target="_top" xlink:title="Třídění přímým výběrem (Select Sort).">
<polygon fill="white" stroke="#666666" points="164.38,-624 100.38,-624 100.38,-604 164.38,-604 164.38,-624"/>
<text text-anchor="middle" x="132.38" y="-610.5" font-family="Helvetica,sans-Serif" font-size="10.00">select_sort</text>
</a>
</g>
</g>
<!-- Node1&#45;&gt;Node14 -->
<g id="edge20_Node000001_Node000014" class="edge">
<title>Node1&#45;&gt;Node14</title>
<g id="a_edge20_Node000001_Node000014"><a xlink:title=" ">
<path fill="none" stroke="#63b8ff" d="M37.47,-614C51.26,-614 70.86,-614 88.59,-614"/>
<polygon fill="#63b8ff" stroke="#63b8ff" points="88.38,-617.5 98.38,-614 88.38,-610.5 88.38,-617.5"/>
</a>
</g>
</g>
<!-- Node15 -->
<g id="Node000015" class="node">
<title>Node15</title>
<g id="a_Node000015"><a xlink:href="group___basic_sorts.html#gaacee5d609500566a6ad1724486ab8bb2" target="_top" xlink:title="Třídění přímou výměnou se změnou postupu třídění (Shaker Sort).">
<polygon fill="white" stroke="#666666" points="165.88,-776 98.88,-776 98.88,-756 165.88,-756 165.88,-776"/>
<text text-anchor="middle" x="132.38" y="-762.5" font-family="Helvetica,sans-Serif" font-size="10.00">shaker_sort</text>
</a>
</g>
</g>
<!-- Node1&#45;&gt;Node15 -->
<g id="edge24_Node000001_Node000015" class="edge">
<title>Node1&#45;&gt;Node15</title>
<g id="a_edge24_Node000001_Node000015"><a xlink:title=" ">
<path fill="none" stroke="#63b8ff" d="M20.68,-624.31C24.07,-649.09 36.08,-712.51 73,-747 77.27,-750.99 82.39,-754.14 87.8,-756.63"/>
<polygon fill="#63b8ff" stroke="#63b8ff" points="86.41,-759.85 97,-760.12 88.89,-753.3 86.41,-759.85"/>
</a>
</g>
</g>
<!-- Node16 -->
<g id="Node000016" class="node">
<title>Node16</title>
<g id="a_Node000016"><a xlink:href="group___main_program.html#ga7343209645c93203da0a86613abfed04" target="_top" xlink:title="Testování třídicí metody.">
<polygon fill="white" stroke="#666666" points="165.88,-344 98.88,-344 98.88,-324 165.88,-324 165.88,-344"/>
<text text-anchor="middle" x="132.38" y="-330.5" font-family="Helvetica,sans-Serif" font-size="10.00">sort_testing</text>
</a>
</g>
</g>
<!-- Node1&#45;&gt;Node16 -->
<g id="edge28_Node000001_Node000016" class="edge">
<title>Node1&#45;&gt;Node16</title>
<g id="a_edge28_Node000001_Node000016"><a xlink:title=" ">
<path fill="none" stroke="#63b8ff" d="M23.61,-603.7C39.99,-562.71 100.74,-410.67 123.07,-354.78"/>
<polygon fill="#63b8ff" stroke="#63b8ff" points="126.2,-356.38 126.66,-345.8 119.7,-353.78 126.2,-356.38"/>
</a>
</g>
</g>
<!-- Node23 -->
<g id="Node000023" class="node">
<title>Node23</title>
<g id="a_Node000023"><a xlink:href="group___t_vector.html#ga41fcff5418fe213f2caaa586f521bcd6" target="_top" xlink:title="Dealokace vektoru.">
<polygon fill="white" stroke="#666666" points="499.38,-259 420.38,-259 420.38,-239 499.38,-239 499.38,-259"/>
<text text-anchor="middle" x="459.88" y="-245.5" font-family="Helvetica,sans-Serif" font-size="10.00">vector_destroy</text>
</a>
</g>
</g>
<!-- Node1&#45;&gt;Node23 -->
<g id="edge48_Node000001_Node000023" class="edge">
<title>Node1&#45;&gt;Node23</title>
<g id="a_edge48_Node000001_Node000023"><a xlink:title=" ">
<path fill="none" stroke="#63b8ff" d="M20.38,-603.53C24.45,-556.59 42.63,-365.65 73,-315 118.04,-239.89 145,-221.69 227.75,-193 281.71,-174.29 300.91,-178.88 356.25,-193 385.86,-200.55 416.14,-218.59 436.06,-232.17"/>
<polygon fill="#63b8ff" stroke="#63b8ff" points="433.78,-234.85 443.97,-237.73 437.8,-229.12 433.78,-234.85"/>
</a>
</g>
</g>
<!-- Node29 -->
<g id="Node000029" class="node">
<title>Node29</title>
<g id="a_Node000029"><a xlink:href="group___t_vector.html#gac0009a6c19dd42237bbb6af9897f2e44" target="_top" xlink:title="Alokace vektoru a inicializace jeho elementů ze souboru.">
<polygon fill="white" stroke="#666666" points="170.75,-126 94,-126 94,-106 170.75,-106 170.75,-126"/>
<text text-anchor="middle" x="132.38" y="-112.5" font-family="Helvetica,sans-Serif" font-size="10.00">vector_init_file</text>
</a>
</g>
</g>
<!-- Node1&#45;&gt;Node29 -->
<g id="edge49_Node000001_Node000029" class="edge">
<title>Node1&#45;&gt;Node29</title>
<g id="a_edge49_Node000001_Node000029"><a xlink:title=" ">
<path fill="none" stroke="#63b8ff" d="M19.63,-603.74C20.56,-543.86 27.46,-239.33 73,-160 79.42,-148.82 89.93,-139.59 100.27,-132.52"/>
<polygon fill="#63b8ff" stroke="#63b8ff" points="102.12,-135.49 108.72,-127.21 98.39,-129.56 102.12,-135.49"/>
</a>
</g>
</g>
<!-- Node31 -->
<g id="Node000031" class="node">
<title>Node31</title>
<g id="a_Node000031"><a xlink:href="group___t_vector.html#ga088d8ae405d0c100abe583c583d27ed3" target="_top" xlink:title="Alokace vektoru a inicializace jeho elementů na náhodné hodnoty.">
<polygon fill="white" stroke="#666666" points="180.88,-47 83.88,-47 83.88,-27 180.88,-27 180.88,-47"/>
<text text-anchor="middle" x="132.38" y="-33.5" font-family="Helvetica,sans-Serif" font-size="10.00">vector_init_random</text>
</a>
</g>
</g>
<!-- Node1&#45;&gt;Node31 -->
<g id="edge51_Node000001_Node000031" class="edge">
<title>Node1&#45;&gt;Node31</title>
<g id="a_edge51_Node000001_Node000031"><a xlink:title=" ">
<path fill="none" stroke="#63b8ff" d="M19.65,-603.72C20.75,-539.39 28.66,-191.82 73,-97 80.88,-80.16 95.46,-65.16 108.08,-54.38"/>
<polygon fill="#63b8ff" stroke="#63b8ff" points="110.07,-57.27 115.62,-48.25 105.65,-51.84 110.07,-57.27"/>
</a>
</g>
</g>
<!-- Node3 -->
<g id="Node000003" class="node">
<title>Node3</title>
<g id="a_Node000003"><a xlink:href="group__sortable___t_vector.html#gaedaf9c79afa345e5e71e5c66ab25fa26" target="_top" xlink:title="Porovnání hodnot elementů vektorů">
<polygon fill="white" stroke="#666666" points="356.25,-738 227.75,-738 227.75,-718 356.25,-718 356.25,-738"/>
<text text-anchor="middle" x="292" y="-724.5" font-family="Helvetica,sans-Serif" font-size="10.00">vector_compare_positions</text>
</a>
</g>
</g>
<!-- Node2&#45;&gt;Node3 -->
<g id="edge2_Node000002_Node000003" class="edge">
<title>Node2&#45;&gt;Node3</title>
<g id="a_edge2_Node000002_Node000003"><a xlink:title=" ">
<path fill="none" stroke="#63b8ff" d="M165.65,-728C180.35,-728 198.42,-728 216.2,-728"/>
<polygon fill="#63b8ff" stroke="#63b8ff" points="216,-731.5 226,-728 216,-724.5 216,-731.5"/>
</a>
</g>
</g>
<!-- Node2&#45;&gt;Node5 -->
<g id="edge4_Node000002_Node000005" class="edge">
<title>Node2&#45;&gt;Node5</title>
<g id="a_edge4_Node000002_Node000005"><a xlink:title=" ">
<path fill="none" stroke="#63b8ff" d="M165.65,-735.78C189.5,-741.53 222.21,-749.42 248.24,-755.69"/>
<polygon fill="#63b8ff" stroke="#63b8ff" points="247.29,-759.06 257.83,-758 248.93,-752.26 247.29,-759.06"/>
</a>
</g>
</g>
<!-- Node6 -->
<g id="Node000006" class="node">
<title>Node6</title>
<g id="a_Node000006"><a xlink:href="group__sortable___t_vector.html#gac1982d8a0e5f66f933dc6a0413f2d23e" target="_top" xlink:title="Výměna hodnot elementů vektorů">
<polygon fill="white" stroke="#666666" points="348.75,-700 235.25,-700 235.25,-680 348.75,-680 348.75,-700"/>
<text text-anchor="middle" x="292" y="-686.5" font-family="Helvetica,sans-Serif" font-size="10.00">vector_swap_positions</text>
</a>
</g>
</g>
<!-- Node2&#45;&gt;Node6 -->
<g id="edge5_Node000002_Node000006" class="edge">
<title>Node2&#45;&gt;Node6</title>
<g id="a_edge5_Node000002_Node000006"><a xlink:title=" ">
<path fill="none" stroke="#63b8ff" d="M165.65,-720.22C186.1,-715.29 213.06,-708.79 236.74,-703.08"/>
<polygon fill="#63b8ff" stroke="#63b8ff" points="237.33,-706.54 246.23,-700.79 235.69,-699.73 237.33,-706.54"/>
</a>
</g>
</g>
<!-- Node4 -->
<g id="Node000004" class="node">
<title>Node4</title>
<g id="a_Node000004"><a xlink:href="group___t_vector_element.html#ga82e527836fce12c93af896f65e9f701d" target="_top" xlink:title="Porovnání dvou elementů">
<polygon fill="white" stroke="#666666" points="527.5,-656 392.25,-656 392.25,-636 527.5,-636 527.5,-656"/>
<text text-anchor="middle" x="459.88" y="-642.5" font-family="Helvetica,sans-Serif" font-size="10.00">vector_element_comparator</text>
</a>
</g>
</g>
<!-- Node3&#45;&gt;Node4 -->
<g id="edge3_Node000003_Node000004" class="edge">
<title>Node3&#45;&gt;Node4</title>
<g id="a_edge3_Node000003_Node000004"><a xlink:title=" ">
<path fill="none" stroke="#63b8ff" d="M333.38,-717.57C341.11,-715.11 349.03,-712.23 356.25,-709 384.81,-696.2 415.06,-676.83 435.26,-662.95"/>
<polygon fill="#63b8ff" stroke="#63b8ff" points="437.15,-665.9 443.34,-657.3 433.14,-660.16 437.15,-665.9"/>
</a>
</g>
</g>
<!-- Node7&#45;&gt;Node3 -->
<g id="edge7_Node000007_Node000003" class="edge">
<title>Node7&#45;&gt;Node3</title>
<g id="a_edge7_Node000007_Node000003"><a xlink:title=" ">
<path fill="none" stroke="#63b8ff" d="M176.86,-700.48C195.3,-704.93 216.98,-710.16 236.47,-714.85"/>
<polygon fill="#63b8ff" stroke="#63b8ff" points="235.64,-718.25 246.18,-717.2 237.28,-711.45 235.64,-718.25"/>
</a>
</g>
</g>
<!-- Node7&#45;&gt;Node5 -->
<g id="edge8_Node000007_Node000005" class="edge">
<title>Node7&#45;&gt;Node5</title>
<g id="a_edge8_Node000007_Node000005"><a xlink:title=" ">
<path fill="none" stroke="#63b8ff" d="M174.43,-700.47C180.47,-702.82 186.43,-705.64 191.75,-709 211.42,-721.43 207.94,-734.8 227.75,-747 234.1,-750.91 241.31,-754.07 248.53,-756.59"/>
<polygon fill="#63b8ff" stroke="#63b8ff" points="247.36,-759.89 257.95,-759.51 249.43,-753.2 247.36,-759.89"/>
</a>
</g>
</g>
<!-- Node7&#45;&gt;Node6 -->
<g id="edge9_Node000007_Node000006" class="edge">
<title>Node7&#45;&gt;Node6</title>
<g id="a_edge9_Node000007_Node000006"><a xlink:title=" ">
<path fill="none" stroke="#63b8ff" d="M189.39,-690C200.47,-690 212.22,-690 223.63,-690"/>
<polygon fill="#63b8ff" stroke="#63b8ff" points="223.38,-693.5 233.38,-690 223.38,-686.5 223.38,-693.5"/>
</a>
</g>
</g>
<!-- Node8&#45;&gt;Node3 -->
<g id="edge11_Node000008_Node000003" class="edge">
<title>Node8&#45;&gt;Node3</title>
<g id="a_edge11_Node000008_Node000003"><a xlink:title=" ">
<path fill="none" stroke="#63b8ff" d="M174.43,-662.47C180.47,-664.82 186.43,-667.64 191.75,-671 211.42,-683.43 207.94,-696.8 227.75,-709 230.18,-710.5 232.74,-711.89 235.38,-713.17"/>
<polygon fill="#63b8ff" stroke="#63b8ff" points="233.88,-716.34 244.45,-717.03 236.62,-709.89 233.88,-716.34"/>
</a>
</g>
</g>
<!-- Node8&#45;&gt;Node5 -->
<g id="edge12_Node000008_Node000005" class="edge">
<title>Node8&#45;&gt;Node5</title>
<g id="a_edge12_Node000008_Node000005"><a xlink:title=" ">
<path fill="none" stroke="#63b8ff" d="M178.46,-662.41C183.27,-664.73 187.83,-667.55 191.75,-671 219.81,-695.69 199.41,-722.63 227.75,-747 233.65,-752.07 240.87,-755.79 248.29,-758.52"/>
<polygon fill="#63b8ff" stroke="#63b8ff" points="247.14,-761.83 257.73,-761.4 249.19,-755.13 247.14,-761.83"/>
</a>
</g>
</g>
<!-- Node8&#45;&gt;Node6 -->
<g id="edge13_Node000008_Node000006" class="edge">
<title>Node8&#45;&gt;Node6</title>
<g id="a_edge13_Node000008_Node000006"><a xlink:title=" ">
<path fill="none" stroke="#63b8ff" d="M176.86,-662.48C195.3,-666.93 216.98,-672.16 236.47,-676.85"/>
<polygon fill="#63b8ff" stroke="#63b8ff" points="235.64,-680.25 246.18,-679.2 237.28,-673.45 235.64,-680.25"/>
</a>
</g>
</g>
<!-- Node10 -->
<g id="Node000010" class="node">
<title>Node10</title>
<g id="a_Node000010"><a xlink:href="group__sortable___t_vector.html#ga09e150aa4cdd8faabf43474ab1dbe454" target="_top" xlink:title="Porovnání mezi hodnotou elementu vektoru a hodnotou typu VectorElement.">
<polygon fill="white" stroke="#666666" points="353.62,-662 230.38,-662 230.38,-630 353.62,-630 353.62,-662"/>
<text text-anchor="start" x="238.38" y="-648.5" font-family="Helvetica,sans-Serif" font-size="10.00">vector_compare_position</text>
<text text-anchor="middle" x="292" y="-636.5" font-family="Helvetica,sans-Serif" font-size="10.00">_value</text>
</a>
</g>
</g>
<!-- Node9&#45;&gt;Node10 -->
<g id="edge15_Node000009_Node000010" class="edge">
<title>Node9&#45;&gt;Node10</title>
<g id="a_edge15_Node000009_Node000010"><a xlink:title=" ">
<path fill="none" stroke="#63b8ff" d="M163.49,-583.84C172.79,-586.78 182.91,-590.51 191.75,-595 209.35,-603.94 210.44,-611.52 227.75,-621 230.11,-622.29 232.55,-623.55 235.04,-624.78"/>
<polygon fill="#63b8ff" stroke="#63b8ff" points="233.53,-627.93 244.08,-628.95 236.47,-621.58 233.53,-627.93"/>
</a>
</g>
</g>
<!-- Node11 -->
<g id="Node000011" class="node">
<title>Node11</title>
<g id="a_Node000011"><a xlink:href="group__sortable___t_vector.html#ga16623c06371077674f5d4d31e38e42a4" target="_top" xlink:title="Přesun hodnoty elementu vektoru.">
<polygon fill="white" stroke="#666666" points="348.75,-612 235.25,-612 235.25,-592 348.75,-592 348.75,-612"/>
<text text-anchor="middle" x="292" y="-598.5" font-family="Helvetica,sans-Serif" font-size="10.00">vector_move_positions</text>
</a>
</g>
</g>
<!-- Node9&#45;&gt;Node11 -->
<g id="edge17_Node000009_Node000011" class="edge">
<title>Node9&#45;&gt;Node11</title>
<g id="a_edge17_Node000009_Node000011"><a xlink:title=" ">
<path fill="none" stroke="#63b8ff" d="M163.39,-580.95C180.51,-583.77 202.68,-587.43 223.73,-590.9"/>
<polygon fill="#63b8ff" stroke="#63b8ff" points="223,-594.33 233.44,-592.5 224.14,-587.42 223,-594.33"/>
</a>
</g>
</g>
<!-- Node12 -->
<g id="Node000012" class="node">
<title>Node12</title>
<g id="a_Node000012"><a xlink:href="group___t_vector.html#gabd5ba54950295545d27b1286234ead39" target="_top" xlink:title="Zapsání hodnoty elementu do vektoru na požadovanou pozici.">
<polygon fill="white" stroke="#666666" points="335.62,-574 248.38,-574 248.38,-554 335.62,-554 335.62,-574"/>
<text text-anchor="middle" x="292" y="-560.5" font-family="Helvetica,sans-Serif" font-size="10.00">vector_set_value</text>
</a>
</g>
</g>
<!-- Node9&#45;&gt;Node12 -->
<g id="edge18_Node000009_Node000012" class="edge">
<title>Node9&#45;&gt;Node12</title>
<g id="a_edge18_Node000009_Node000012"><a xlink:title=" ">
<path fill="none" stroke="#63b8ff" d="M163.39,-573.71C184.06,-572.14 212.1,-570.01 236.64,-568.14"/>
<polygon fill="#63b8ff" stroke="#63b8ff" points="236.78,-571.64 246.48,-567.39 236.24,-564.66 236.78,-571.64"/>
</a>
</g>
</g>
<!-- Node13 -->
<g id="Node000013" class="node">
<title>Node13</title>
<g id="a_Node000013"><a xlink:href="group___t_vector.html#ga2b08236d9825632cd96bcc89faed929c" target="_top" xlink:title="Přečtení hodnoty elementu z vektoru na požadované pozici.">
<polygon fill="white" stroke="#666666" points="326.25,-536 257.75,-536 257.75,-516 326.25,-516 326.25,-536"/>
<text text-anchor="middle" x="292" y="-522.5" font-family="Helvetica,sans-Serif" font-size="10.00">vector_value</text>
</a>
</g>
</g>
<!-- Node9&#45;&gt;Node13 -->
<g id="edge19_Node000009_Node000013" class="edge">
<title>Node9&#45;&gt;Node13</title>
<g id="a_edge19_Node000009_Node000013"><a xlink:title=" ">
<path fill="none" stroke="#63b8ff" d="M163.49,-565.89C181.99,-559.73 206.2,-551.78 227.75,-545 233.92,-543.06 240.43,-541.06 246.85,-539.11"/>
<polygon fill="#63b8ff" stroke="#63b8ff" points="247.46,-542.58 256.02,-536.34 245.44,-535.88 247.46,-542.58"/>
</a>
</g>
</g>
<!-- Node10&#45;&gt;Node4 -->
<g id="edge16_Node000010_Node000004" class="edge">
<title>Node10&#45;&gt;Node4</title>
<g id="a_edge16_Node000010_Node000004"><a xlink:title=" ">
<path fill="none" stroke="#63b8ff" d="M353.82,-646C362.54,-646 371.6,-646 380.59,-646"/>
<polygon fill="#63b8ff" stroke="#63b8ff" points="380.39,-649.5 390.39,-646 380.39,-642.5 380.39,-649.5"/>
</a>
</g>
</g>
<!-- Node14&#45;&gt;Node3 -->
<g id="edge21_Node000014_Node000003" class="edge">
<title>Node14&#45;&gt;Node3</title>
<g id="a_edge21_Node000014_Node000003"><a xlink:title=" ">
<path fill="none" stroke="#63b8ff" d="M164.58,-619.16C174.15,-621.97 184.15,-626.31 191.75,-633 219.81,-657.69 199.41,-684.63 227.75,-709 229,-710.07 230.31,-711.09 231.67,-712.04"/>
<polygon fill="#63b8ff" stroke="#63b8ff" points="229.5,-714.83 239.91,-716.8 233,-708.77 229.5,-714.83"/>
</a>
</g>
</g>
<!-- Node14&#45;&gt;Node5 -->
<g id="edge22_Node000014_Node000005" class="edge">
<title>Node14&#45;&gt;Node5</title>
<g id="a_edge22_Node000014_Node000005"><a xlink:title=" ">
<path fill="none" stroke="#63b8ff" d="M164.84,-618.47C174.54,-621.24 184.55,-625.73 191.75,-633 229.16,-670.74 189.92,-709.69 227.75,-747 233.47,-752.64 240.79,-756.61 248.4,-759.41"/>
<polygon fill="#63b8ff" stroke="#63b8ff" points="247.21,-762.7 257.79,-762.21 249.2,-756 247.21,-762.7"/>
</a>
</g>
</g>
<!-- Node14&#45;&gt;Node6 -->
<g id="edge23_Node000014_Node000006" class="edge">
<title>Node14&#45;&gt;Node6</title>
<g id="a_edge23_Node000014_Node000006"><a xlink:title=" ">
<path fill="none" stroke="#63b8ff" d="M164.65,-621.05C173.8,-623.92 183.55,-627.82 191.75,-633 211.42,-645.43 207.94,-658.8 227.75,-671 230.18,-672.5 232.74,-673.89 235.38,-675.17"/>
<polygon fill="#63b8ff" stroke="#63b8ff" points="233.88,-678.34 244.45,-679.03 236.62,-671.89 233.88,-678.34"/>
</a>
</g>
</g>
<!-- Node15&#45;&gt;Node3 -->
<g id="edge25_Node000015_Node000003" class="edge">
<title>Node15&#45;&gt;Node3</title>
<g id="a_edge25_Node000015_Node000003"><a xlink:title=" ">
<path fill="none" stroke="#63b8ff" d="M166.04,-758.13C186.43,-753.21 213.19,-746.76 236.72,-741.09"/>
<polygon fill="#63b8ff" stroke="#63b8ff" points="237.24,-744.56 246.14,-738.81 235.6,-737.76 237.24,-744.56"/>
</a>
</g>
</g>
<!-- Node15&#45;&gt;Node5 -->
<g id="edge26_Node000015_Node000005" class="edge">
<title>Node15&#45;&gt;Node5</title>
<g id="a_edge26_Node000015_Node000005"><a xlink:title=" ">
<path fill="none" stroke="#63b8ff" d="M166.04,-766C189.73,-766 222.02,-766 247.84,-766"/>
<polygon fill="#63b8ff" stroke="#63b8ff" points="247.68,-769.5 257.68,-766 247.68,-762.5 247.68,-769.5"/>
</a>
</g>
</g>
<!-- Node15&#45;&gt;Node6 -->
<g id="edge27_Node000015_Node000006" class="edge">
<title>Node15&#45;&gt;Node6</title>
<g id="a_edge27_Node000015_Node000006"><a xlink:title=" ">
<path fill="none" stroke="#63b8ff" d="M166.16,-758.47C174.87,-755.65 184,-751.9 191.75,-747 211.42,-734.57 207.94,-721.2 227.75,-709 230.18,-707.5 232.74,-706.11 235.38,-704.83"/>
<polygon fill="#63b8ff" stroke="#63b8ff" points="236.62,-708.11 244.45,-700.97 233.88,-701.66 236.62,-708.11"/>
</a>
</g>
</g>
<!-- Node17 -->
<g id="Node000017" class="node">
<title>Node17</title>
<g id="a_Node000017"><a xlink:href="main__support_8h.html#aa291195ad453d2b1e29004cc2e043c01" target="_top" xlink:title="Výpočet doby trvání časového intervalu.">
<polygon fill="white" stroke="#666666" points="325.88,-372 258.12,-372 258.12,-352 325.88,-352 325.88,-372"/>
<text text-anchor="middle" x="292" y="-358.5" font-family="Helvetica,sans-Serif" font-size="10.00">difftimespec</text>
</a>
</g>
</g>
<!-- Node16&#45;&gt;Node17 -->
<g id="edge29_Node000016_Node000017" class="edge">
<title>Node16&#45;&gt;Node17</title>
<g id="a_edge29_Node000016_Node000017"><a xlink:title=" ">
<path fill="none" stroke="#63b8ff" d="M166.04,-339.8C189.34,-343.94 220.95,-349.56 246.55,-354.1"/>
<polygon fill="#63b8ff" stroke="#63b8ff" points="245.89,-357.54 256.35,-355.84 247.12,-350.65 245.89,-357.54"/>
</a>
</g>
</g>
<!-- Node18 -->
<g id="Node000018" class="node">
<title>Node18</title>
<g id="a_Node000018"><a xlink:href="group___basic_sorts.html#ga25c7ac8991c266d71b75cf20c14b67cf" target="_top" xlink:title="Vytisknutí elementu vektoru pomocí iterátoru.">
<polygon fill="white" stroke="#666666" points="329.25,-146 254.75,-146 254.75,-126 329.25,-126 329.25,-146"/>
<text text-anchor="middle" x="292" y="-132.5" font-family="Helvetica,sans-Serif" font-size="10.00">print_element</text>
</a>
</g>
</g>
<!-- Node16&#45;&gt;Node18 -->
<g id="edge30_Node000016_Node000018" class="edge">
<title>Node16&#45;&gt;Node18</title>
<g id="a_edge30_Node000016_Node000018"><a xlink:title=" ">
<path fill="none" stroke="#63b8ff" d="M139,-323.83C152.56,-299.77 188.8,-237.98 227.75,-193 240.21,-178.61 256.13,-164.28 268.89,-153.58"/>
<polygon fill="#63b8ff" stroke="#63b8ff" points="270.84,-156.51 276.35,-147.45 266.4,-151.1 270.84,-156.51"/>
</a>
</g>
</g>
<!-- Node21 -->
<g id="Node000021" class="node">
<title>Node21</title>
<g id="a_Node000021"><a xlink:href="group___t_vector_iterator.html#ga3f8a97a63f887539e270f6845bf22b9a" target="_top" xlink:title="Zjištění platnosti iterátoru.">
<polygon fill="white" stroke="#666666" points="653,-190 563.5,-190 563.5,-158 653,-158 653,-190"/>
<text text-anchor="start" x="571.5" y="-176.5" font-family="Helvetica,sans-Serif" font-size="10.00">vector_iterator_is</text>
<text text-anchor="middle" x="608.25" y="-164.5" font-family="Helvetica,sans-Serif" font-size="10.00">_valid</text>
</a>
</g>
</g>
<!-- Node16&#45;&gt;Node21 -->
<g id="edge46_Node000016_Node000021" class="edge">
<title>Node16&#45;&gt;Node21</title>
<g id="a_edge46_Node000016_Node000021"><a xlink:title=" ">
<path fill="none" stroke="#63b8ff" d="M134.09,-323.83C137.22,-287.81 153.19,-165.88 227.75,-117 283.46,-80.48 464.07,-96.66 527.5,-117 548.03,-123.58 567.78,-137.61 582.48,-150.11"/>
<polygon fill="#63b8ff" stroke="#63b8ff" points="580.01,-152.59 589.82,-156.6 584.65,-147.35 580.01,-152.59"/>
</a>
</g>
</g>
<!-- Node22 -->
<g id="Node000022" class="node">
<title>Node22</title>
<g id="a_Node000022"><a xlink:href="group___t_vector.html#ga6b0b8780d60dad02b8569be119769548" target="_top" xlink:title="Vytvoření úplné kopie vektoru.">
<polygon fill="white" stroke="#666666" points="494.88,-476 424.88,-476 424.88,-456 494.88,-456 494.88,-476"/>
<text text-anchor="middle" x="459.88" y="-462.5" font-family="Helvetica,sans-Serif" font-size="10.00">vector_clone</text>
</a>
</g>
</g>
<!-- Node16&#45;&gt;Node22 -->
<g id="edge34_Node000016_Node000022" class="edge">
<title>Node16&#45;&gt;Node22</title>
<g id="a_edge34_Node000016_Node000022"><a xlink:title=" ">
<path fill="none" stroke="#63b8ff" d="M136.79,-344.32C146.23,-370.95 175.51,-441.78 227.75,-469 286.07,-499.39 364.42,-489.64 413.27,-478.69"/>
<polygon fill="#63b8ff" stroke="#63b8ff" points="414.03,-482.11 422.95,-476.41 412.42,-475.3 414.03,-482.11"/>
</a>
</g>
</g>
<!-- Node16&#45;&gt;Node23 -->
<g id="edge35_Node000016_Node000023" class="edge">
<title>Node16&#45;&gt;Node23</title>
<g id="a_edge35_Node000016_Node000023"><a xlink:title=" ">
<path fill="none" stroke="#63b8ff" d="M150.45,-323.53C168.86,-312.72 199.36,-296.17 227.75,-287 288.34,-267.42 361.28,-257.58 408.8,-252.88"/>
<polygon fill="#63b8ff" stroke="#63b8ff" points="408.88,-256.39 418.5,-251.97 408.22,-249.42 408.88,-256.39"/>
</a>
</g>
</g>
<!-- Node24 -->
<g id="Node000024" class="node">
<title>Node24</title>
<g id="a_Node000024"><a xlink:href="group___iterator_algorithms.html#ga914d4c2ad472c0d71a4b5e9265b60e9c" target="_top" xlink:title="Zavolání zvolené funkce na prvních N elementů vektoru od pozice určené iterátorem.">
<polygon fill="white" stroke="#666666" points="339,-316 245,-316 245,-296 339,-296 339,-316"/>
<text text-anchor="middle" x="292" y="-302.5" font-family="Helvetica,sans-Serif" font-size="10.00">vector_for_each_n</text>
</a>
</g>
</g>
<!-- Node16&#45;&gt;Node24 -->
<g id="edge36_Node000016_Node000024" class="edge">
<title>Node16&#45;&gt;Node24</title>
<g id="a_edge36_Node000016_Node000024"><a xlink:title=" ">
<path fill="none" stroke="#63b8ff" d="M166.04,-328.2C185.47,-324.75 210.7,-320.26 233.39,-316.23"/>
<polygon fill="#63b8ff" stroke="#63b8ff" points="233.91,-319.7 243.14,-314.5 232.68,-312.8 233.91,-319.7"/>
</a>
</g>
</g>
<!-- Node26 -->
<g id="Node000026" class="node">
<title>Node26</title>
<g id="a_Node000026"><a xlink:href="group__sortable___t_vector.html#ga1b7a4850be6488c69c293bdd13f729a7" target="_top" xlink:title="Ověření korektního setřídění vektoru.">
<polygon fill="white" stroke="#666666" points="348,-460 236,-460 236,-428 348,-428 348,-460"/>
<text text-anchor="start" x="244" y="-446.5" font-family="Helvetica,sans-Serif" font-size="10.00">vector_is_ascendantly</text>
<text text-anchor="middle" x="292" y="-434.5" font-family="Helvetica,sans-Serif" font-size="10.00">_sorted</text>
</a>
</g>
</g>
<!-- Node16&#45;&gt;Node26 -->
<g id="edge40_Node000016_Node000026" class="edge">
<title>Node16&#45;&gt;Node26</title>
<g id="a_edge40_Node000016_Node000026"><a xlink:title=" ">
<path fill="none" stroke="#63b8ff" d="M142.61,-344.46C158.5,-361.94 192.7,-397.28 227.75,-419 229.63,-420.17 231.58,-421.3 233.57,-422.39"/>
<polygon fill="#63b8ff" stroke="#63b8ff" points="231.94,-425.48 242.44,-426.85 235.08,-419.23 231.94,-425.48"/>
</a>
</g>
</g>
<!-- Node27 -->
<g id="Node000027" class="node">
<title>Node27</title>
<g id="a_Node000027"><a xlink:href="group___t_vector_iterator.html#ga40d7eff2ece0eb356d27cdcdef255560" target="_top" xlink:title="Vytvoření nového iterátoru ukazujícího na počáteční element.">
<polygon fill="white" stroke="#666666" points="344.62,-222 239.38,-222 239.38,-202 344.62,-202 344.62,-222"/>
<text text-anchor="middle" x="292" y="-208.5" font-family="Helvetica,sans-Serif" font-size="10.00">vector_iterator_begin</text>
</a>
</g>
</g>
<!-- Node16&#45;&gt;Node27 -->
<g id="edge44_Node000016_Node000027" class="edge">
<title>Node16&#45;&gt;Node27</title>
<g id="a_edge44_Node000016_Node000027"><a xlink:title=" ">
<path fill="none" stroke="#63b8ff" d="M144.64,-323.7C161.99,-308.02 196.5,-277.49 227.75,-254 239.57,-245.12 253.17,-235.96 264.72,-228.47"/>
<polygon fill="#63b8ff" stroke="#63b8ff" points="266.45,-231.52 272.98,-223.18 262.67,-225.62 266.45,-231.52"/>
</a>
</g>
</g>
<!-- Node28 -->
<g id="Node000028" class="node">
<title>Node28</title>
<g id="a_Node000028"><a xlink:href="group__sortable___t_vector.html#gac0806530378fe49a3d61622ca8b9957e" target="_top" xlink:title="Zobrazení hodnoty statistik počtu operací s elementy vektoru.">
<polygon fill="white" stroke="#666666" points="346.5,-410 237.5,-410 237.5,-390 346.5,-390 346.5,-410"/>
<text text-anchor="middle" x="292" y="-396.5" font-family="Helvetica,sans-Serif" font-size="10.00">vector_print_sortstats</text>
</a>
</g>
</g>
<!-- Node16&#45;&gt;Node28 -->
<g id="edge47_Node000016_Node000028" class="edge">
<title>Node16&#45;&gt;Node28</title>
<g id="a_edge47_Node000016_Node000028"><a xlink:title=" ">
<path fill="none" stroke="#63b8ff" d="M151.75,-344.32C170.46,-354.56 200.52,-370.22 227.75,-381 232.19,-382.76 236.85,-384.44 241.56,-386.04"/>
<polygon fill="#63b8ff" stroke="#63b8ff" points="240.48,-389.37 251.07,-389.11 242.63,-382.71 240.48,-389.37"/>
</a>
</g>
</g>
<!-- Node19 -->
<g id="Node000019" class="node">
<title>Node19</title>
<g id="a_Node000019"><a xlink:href="group___t_vector_element.html#gaaae5b52d7f1d155134792f040f00a385" target="_top" xlink:title="Uložení elementu do souboru.">
<polygon fill="white" stroke="#666666" points="522.62,-146 397.12,-146 397.12,-126 522.62,-126 522.62,-146"/>
<text text-anchor="middle" x="459.88" y="-132.5" font-family="Helvetica,sans-Serif" font-size="10.00">vector_element_store_file</text>
</a>
</g>
</g>
<!-- Node18&#45;&gt;Node19 -->
<g id="edge31_Node000018_Node000019" class="edge">
<title>Node18&#45;&gt;Node19</title>
<g id="a_edge31_Node000018_Node000019"><a xlink:title=" ">
<path fill="none" stroke="#63b8ff" d="M329.4,-136C345.9,-136 366.04,-136 385.47,-136"/>
<polygon fill="#63b8ff" stroke="#63b8ff" points="385.28,-139.5 395.28,-136 385.28,-132.5 385.28,-139.5"/>
</a>
</g>
</g>
<!-- Node20 -->
<g id="Node000020" class="node">
<title>Node20</title>
<g id="a_Node000020"><a xlink:href="group___t_vector_iterator.html#ga4d8032eb9dbbdccf794611f2b0c9821c" target="_top" xlink:title="Přečtení hodnoty elementu z vektoru pomocí iterátoru.">
<polygon fill="white" stroke="#666666" points="511.75,-184 408,-184 408,-164 511.75,-164 511.75,-184"/>
<text text-anchor="middle" x="459.88" y="-170.5" font-family="Helvetica,sans-Serif" font-size="10.00">vector_iterator_value</text>
</a>
</g>
</g>
<!-- Node18&#45;&gt;Node20 -->
<g id="edge32_Node000018_Node000020" class="edge">
<title>Node18&#45;&gt;Node20</title>
<g id="a_edge32_Node000018_Node000020"><a xlink:title=" ">
<path fill="none" stroke="#63b8ff" d="M329.4,-144.34C350.64,-149.21 377.9,-155.45 401.93,-160.95"/>
<polygon fill="#63b8ff" stroke="#63b8ff" points="401.06,-164.35 411.59,-163.17 402.62,-157.52 401.06,-164.35"/>
</a>
</g>
</g>
<!-- Node20&#45;&gt;Node21 -->
<g id="edge33_Node000020_Node000021" class="edge">
<title>Node20&#45;&gt;Node21</title>
<g id="a_edge33_Node000020_Node000021"><a xlink:title=" ">
<path fill="none" stroke="#63b8ff" d="M512.07,-174C524.95,-174 538.83,-174 551.91,-174"/>
<polygon fill="#63b8ff" stroke="#63b8ff" points="551.63,-177.5 561.63,-174 551.63,-170.5 551.63,-177.5"/>
</a>
</g>
</g>
<!-- Node24&#45;&gt;Node21 -->
<g id="edge38_Node000024_Node000021" class="edge">
<title>Node24&#45;&gt;Node21</title>
<g id="a_edge38_Node000024_Node000021"><a xlink:title=" ">
<path fill="none" stroke="#63b8ff" d="M329.52,-316.41C378.15,-328.08 465.27,-341.11 527.5,-306 567.17,-283.62 589.33,-232.7 599.74,-201.05"/>
<polygon fill="#63b8ff" stroke="#63b8ff" points="602.99,-202.38 602.6,-191.79 596.3,-200.31 602.99,-202.38"/>
</a>
</g>
</g>
<!-- Node24&#45;&gt;Node24 -->
<g id="edge37_Node000024_Node000024" class="edge">
<title>Node24&#45;&gt;Node24</title>
<g id="a_edge37_Node000024_Node000024"><a xlink:title=" ">
<path fill="none" stroke="#63b8ff" d="M266.64,-316.34C255.8,-324.98 264.25,-334 292,-334 307.17,-334 316.58,-331.3 320.21,-327.44"/>
<polygon fill="#63b8ff" stroke="#63b8ff" points="323.62,-326.62 317.74,-317.8 316.84,-328.36 323.62,-326.62"/>
</a>
</g>
</g>
<!-- Node25 -->
<g id="Node000025" class="node">
<title>Node25</title>
<g id="a_Node000025"><a xlink:href="group___t_vector_iterator.html#ga7ce07cda016d67e3ca891125613ece56" target="_top" xlink:title="Posunutí iterátoru vpřed.">
<polygon fill="white" stroke="#666666" points="517,-297 402.75,-297 402.75,-277 517,-277 517,-297"/>
<text text-anchor="middle" x="459.88" y="-283.5" font-family="Helvetica,sans-Serif" font-size="10.00">vector_iterator_to_next</text>
</a>
</g>
</g>
<!-- Node24&#45;&gt;Node25 -->
<g id="edge39_Node000024_Node000025" class="edge">
<title>Node24&#45;&gt;Node25</title>
<g id="a_edge39_Node000024_Node000025"><a xlink:title=" ">
<path fill="none" stroke="#63b8ff" d="M339.21,-300.71C355.25,-298.87 373.59,-296.77 391.01,-294.77"/>
<polygon fill="#63b8ff" stroke="#63b8ff" points="391.25,-298.27 400.79,-293.65 390.45,-291.31 391.25,-298.27"/>
</a>
</g>
</g>
<!-- Node26&#45;&gt;Node4 -->
<g id="edge43_Node000026_Node000004" class="edge">
<title>Node26&#45;&gt;Node4</title>
<g id="a_edge43_Node000026_Node000004"><a xlink:title=" ">
<path fill="none" stroke="#63b8ff" d="M310.91,-460.44C323.99,-472.77 341.88,-490.33 356.25,-507 391.17,-547.49 427.21,-598.97 445.88,-626.52"/>
<polygon fill="#63b8ff" stroke="#63b8ff" points="442.82,-628.23 451.31,-634.58 448.63,-624.33 442.82,-628.23"/>
</a>
</g>
</g>
<!-- Node26&#45;&gt;Node22 -->
<g id="edge41_Node000026_Node000022" class="edge">
<title>Node26&#45;&gt;Node22</title>
<g id="a_edge41_Node000026_Node000022"><a xlink:title=" ">
<path fill="none" stroke="#63b8ff" d="M348.23,-451.33C369.35,-454.13 393.17,-457.29 413.28,-459.95"/>
<polygon fill="#63b8ff" stroke="#63b8ff" points="412.78,-463.42 423.15,-461.26 413.7,-456.48 412.78,-463.42"/>
</a>
</g>
</g>
<!-- Node26&#45;&gt;Node23 -->
<g id="edge42_Node000026_Node000023" class="edge">
<title>Node26&#45;&gt;Node23</title>
<g id="a_edge42_Node000026_Node000023"><a xlink:title=" ">
<path fill="none" stroke="#63b8ff" d="M346.39,-427.66C350.03,-425.17 353.39,-422.3 356.25,-419 401.44,-366.87 344.54,-317.84 392.25,-268 396.94,-263.1 402.79,-259.44 409.07,-256.71"/>
<polygon fill="#63b8ff" stroke="#63b8ff" points="410.19,-260.02 418.48,-253.43 407.89,-253.41 410.19,-260.02"/>
</a>
</g>
</g>
<!-- Node27&#45;&gt;Node27 -->
<g id="edge45_Node000027_Node000027" class="edge">
<title>Node27&#45;&gt;Node27</title>
<g id="a_edge45_Node000027_Node000027"><a xlink:title=" ">
<path fill="none" stroke="#63b8ff" d="M266.64,-222.34C255.8,-230.98 264.25,-240 292,-240 307.17,-240 316.58,-237.3 320.21,-233.44"/>
<polygon fill="#63b8ff" stroke="#63b8ff" points="323.62,-232.62 317.74,-223.8 316.84,-234.36 323.62,-232.62"/>
</a>
</g>
</g>
<!-- Node30 -->
<g id="Node000030" class="node">
<title>Node30</title>
<g id="a_Node000030"><a xlink:href="group___t_vector_element.html#gaf9a34133c2292f807fe184c72fd3f8d8" target="_top" xlink:title="Načtení elementu ze souboru.">
<polygon fill="white" stroke="#666666" points="352.88,-70 231.12,-70 231.12,-50 352.88,-50 352.88,-70"/>
<text text-anchor="middle" x="292" y="-56.5" font-family="Helvetica,sans-Serif" font-size="10.00">vector_element_load_file</text>
</a>
</g>
</g>
<!-- Node29&#45;&gt;Node30 -->
<g id="edge50_Node000029_Node000030" class="edge">
<title>Node29&#45;&gt;Node30</title>
<g id="a_edge50_Node000029_Node000030"><a xlink:title=" ">
<path fill="none" stroke="#63b8ff" d="M162.65,-105.6C187.46,-96.79 223.27,-84.06 250.77,-74.29"/>
<polygon fill="#63b8ff" stroke="#63b8ff" points="251.93,-77.59 260.18,-70.95 249.59,-71 251.93,-77.59"/>
</a>
</g>
</g>
<!-- Node32 -->
<g id="Node000032" class="node">
<title>Node32</title>
<g id="a_Node000032"><a xlink:href="group___t_vector_element.html#gac2485005f9b85ee450e159a793583c9b" target="_top" xlink:title="Vrací nový element s náhodnou hodnotou.">
<polygon fill="white" stroke="#666666" points="351.38,-32 232.62,-32 232.62,0 351.38,0 351.38,-32"/>
<text text-anchor="start" x="240.62" y="-18.5" font-family="Helvetica,sans-Serif" font-size="10.00">vector_element_random</text>
<text text-anchor="middle" x="292" y="-6.5" font-family="Helvetica,sans-Serif" font-size="10.00">_value</text>
</a>
</g>
</g>
<!-- Node31&#45;&gt;Node32 -->
<g id="edge52_Node000031_Node000032" class="edge">
<title>Node31&#45;&gt;Node32</title>
<g id="a_edge52_Node000031_Node000032"><a xlink:title=" ">
<path fill="none" stroke="#63b8ff" d="M181.1,-30.64C193.7,-28.96 207.56,-27.12 221.07,-25.32"/>
<polygon fill="#63b8ff" stroke="#63b8ff" points="221.35,-28.81 230.8,-24.02 220.43,-21.87 221.35,-28.81"/>
</a>
</g>
</g>
</g>
</svg>
