<?xml version="1.0" encoding="UTF-8" standalone="no"?>
<!DOCTYPE svg PUBLIC "-//W3C//DTD SVG 1.1//EN"
 "http://www.w3.org/Graphics/SVG/1.1/DTD/svg11.dtd">
<!-- Generated by graphviz version 11.0.0 (20240428.1522)
 -->
<!-- Title: vector_element_comparator Pages: 1 -->
<svg width="536pt" height="356pt"
 viewBox="0.00 0.00 535.50 356.00" xmlns="http://www.w3.org/2000/svg" xmlns:xlink="http://www.w3.org/1999/xlink">
<g id="graph0" class="graph" transform="scale(1 1) rotate(0) translate(4 352)">
<title>vector_element_comparator</title>
<!-- Node1 -->
<g id="Node000001" class="node">
<title>Node1</title>
<g id="a_Node000001"><a xlink:title="Porovnání dvou elementů">
<polygon fill="#999999" stroke="#666666" points="527.5,-165 392.25,-165 392.25,-145 527.5,-145 527.5,-165"/>
<text text-anchor="middle" x="459.88" y="-151.5" font-family="Helvetica,sans-Serif" font-size="10.00">vector_element_comparator</text>
</a>
</g>
</g>
<!-- Node2 -->
<g id="Node000002" class="node">
<title>Node2</title>
<g id="a_Node000002"><a xlink:href="group__sortable___t_vector.html#ga09e150aa4cdd8faabf43474ab1dbe454" target="_top" xlink:title="Porovnání mezi hodnotou elementu vektoru a hodnotou typu VectorElement.">
<polygon fill="white" stroke="#666666" points="353.62,-310 230.38,-310 230.38,-278 353.62,-278 353.62,-310"/>
<text text-anchor="start" x="238.38" y="-296.5" font-family="Helvetica,sans-Serif" font-size="10.00">vector_compare_position</text>
<text text-anchor="middle" x="292" y="-284.5" font-family="Helvetica,sans-Serif" font-size="10.00">_value</text>
</a>
</g>
</g>
<!-- Node1&#45;&gt;Node2 -->
<g id="edge1_Node000001_Node000002" class="edge">
<title>Node1&#45;&gt;Node2</title>
<g id="a_edge1_Node000001_Node000002"><a xlink:title=" ">
<path fill="none" stroke="#63b8ff" d="M437.73,-172.72C405.38,-199.83 344.04,-251.23 312.62,-277.56"/>
<polygon fill="#63b8ff" stroke="#63b8ff" points="439.83,-175.53 445.25,-166.42 435.33,-170.16 439.83,-175.53"/>
</a>
</g>
</g>
<!-- Node6 -->
<g id="Node000006" class="node">
<title>Node6</title>
<g id="a_Node000006"><a xlink:href="group__sortable___t_vector.html#gaedaf9c79afa345e5e71e5c66ab25fa26" target="_top" xlink:title="Porovnání hodnot elementů vektorů">
<polygon fill="white" stroke="#666666" points="356.25,-165 227.75,-165 227.75,-145 356.25,-145 356.25,-165"/>
<text text-anchor="middle" x="292" y="-151.5" font-family="Helvetica,sans-Serif" font-size="10.00">vector_compare_positions</text>
</a>
</g>
</g>
<!-- Node1&#45;&gt;Node6 -->
<g id="edge5_Node000001_Node000006" class="edge">
<title>Node1&#45;&gt;Node6</title>
<g id="a_edge5_Node000001_Node000006"><a xlink:title=" ">
<path fill="none" stroke="#63b8ff" d="M380.64,-155C372.63,-155 364.57,-155 356.75,-155"/>
<polygon fill="#63b8ff" stroke="#63b8ff" points="380.37,-158.5 390.37,-155 380.37,-151.5 380.37,-158.5"/>
</a>
</g>
</g>
<!-- Node13 -->
<g id="Node000013" class="node">
<title>Node13</title>
<g id="a_Node000013"><a xlink:href="group__sortable___t_vector.html#ga1b7a4850be6488c69c293bdd13f729a7" target="_top" xlink:title="Ověření korektního setřídění vektoru.">
<polygon fill="white" stroke="#666666" points="348,-67 236,-67 236,-35 348,-35 348,-67"/>
<text text-anchor="start" x="244" y="-53.5" font-family="Helvetica,sans-Serif" font-size="10.00">vector_is_ascendantly</text>
<text text-anchor="middle" x="292" y="-41.5" font-family="Helvetica,sans-Serif" font-size="10.00">_sorted</text>
</a>
</g>
</g>
<!-- Node1&#45;&gt;Node13 -->
<g id="edge17_Node000001_Node000013" class="edge">
<title>Node1&#45;&gt;Node13</title>
<g id="a_edge17_Node000001_Node000013"><a xlink:title=" ">
<path fill="none" stroke="#63b8ff" d="M432.68,-138.57C401.64,-119.11 350.23,-86.88 319.19,-67.42"/>
<polygon fill="#63b8ff" stroke="#63b8ff" points="430.75,-141.5 441.08,-143.84 434.47,-135.57 430.75,-141.5"/>
</a>
</g>
</g>
<!-- Node3 -->
<g id="Node000003" class="node">
<title>Node3</title>
<g id="a_Node000003"><a xlink:href="group___basic_sorts.html#gac3903c3fd846908cd362e293ed40582e" target="_top" xlink:title="Třídění přímým vkládáním (Insert Sort).">
<polygon fill="white" stroke="#666666" points="163.25,-348 101.5,-348 101.5,-328 163.25,-328 163.25,-348"/>
<text text-anchor="middle" x="132.38" y="-334.5" font-family="Helvetica,sans-Serif" font-size="10.00">insert_sort</text>
</a>
</g>
</g>
<!-- Node2&#45;&gt;Node3 -->
<g id="edge2_Node000002_Node000003" class="edge">
<title>Node2&#45;&gt;Node3</title>
<g id="a_edge2_Node000002_Node000003"><a xlink:title=" ">
<path fill="none" stroke="#63b8ff" d="M221.44,-313.42C201.08,-319.1 179.88,-325.02 163.38,-329.62"/>
<polygon fill="#63b8ff" stroke="#63b8ff" points="222.16,-316.85 230.85,-310.79 220.28,-310.11 222.16,-316.85"/>
</a>
</g>
</g>
<!-- Node5 -->
<g id="Node000005" class="node">
<title>Node5</title>
<g id="a_Node000005"><a xlink:href="group__sortable___t_vector_iterator.html#gaa359594c5556fb685473666fad583ddf" target="_top" xlink:title="Porovnání mezi hodnotou elementu vektoru určenou iterátorem a hodnotou typu VectorElement.">
<polygon fill="white" stroke="#666666" points="185.75,-310 79,-310 79,-278 185.75,-278 185.75,-310"/>
<text text-anchor="start" x="87" y="-296.5" font-family="Helvetica,sans-Serif" font-size="10.00">vector_compare_with</text>
<text text-anchor="middle" x="132.38" y="-284.5" font-family="Helvetica,sans-Serif" font-size="10.00">_iterator_value</text>
</a>
</g>
</g>
<!-- Node2&#45;&gt;Node5 -->
<g id="edge4_Node000002_Node000005" class="edge">
<title>Node2&#45;&gt;Node5</title>
<g id="a_edge4_Node000002_Node000005"><a xlink:title=" ">
<path fill="none" stroke="#63b8ff" d="M218.74,-294C207.78,-294 196.65,-294 186.2,-294"/>
<polygon fill="#63b8ff" stroke="#63b8ff" points="218.54,-297.5 228.54,-294 218.54,-290.5 218.54,-297.5"/>
</a>
</g>
</g>
<!-- Node4 -->
<g id="Node000004" class="node">
<title>Node4</title>
<g id="a_Node000004"><a xlink:href="group___main_program.html#ga0ddf1224851353fc92bfbff6f499fa97" target="_top" xlink:title=" ">
<polygon fill="white" stroke="#666666" points="37,-184 0,-184 0,-164 37,-164 37,-184"/>
<text text-anchor="middle" x="18.5" y="-170.5" font-family="Helvetica,sans-Serif" font-size="10.00">main</text>
</a>
</g>
</g>
<!-- Node3&#45;&gt;Node4 -->
<g id="edge3_Node000003_Node000004" class="edge">
<title>Node3&#45;&gt;Node4</title>
<g id="a_edge3_Node000003_Node000004"><a xlink:title=" ">
<path fill="none" stroke="#63b8ff" d="M90.24,-329.88C83.91,-327.22 77.87,-323.69 73,-319 33.36,-280.87 22.9,-210.82 20.3,-184.43"/>
<polygon fill="#63b8ff" stroke="#63b8ff" points="88.99,-333.15 99.59,-333.09 91.27,-326.53 88.99,-333.15"/>
</a>
</g>
</g>
<!-- Node7 -->
<g id="Node000007" class="node">
<title>Node7</title>
<g id="a_Node000007"><a xlink:href="group___basic_sorts.html#gaa1ef093f5205f293df8303ac228452fc" target="_top" xlink:title="Třídění přímou výměnou (Bubble Sort).">
<polygon fill="white" stroke="#666666" points="165.5,-260 99.25,-260 99.25,-240 165.5,-240 165.5,-260"/>
<text text-anchor="middle" x="132.38" y="-246.5" font-family="Helvetica,sans-Serif" font-size="10.00">bubble_sort</text>
</a>
</g>
</g>
<!-- Node6&#45;&gt;Node7 -->
<g id="edge6_Node000006_Node000007" class="edge">
<title>Node6&#45;&gt;Node7</title>
<g id="a_edge6_Node000006_Node000007"><a xlink:title=" ">
<path fill="none" stroke="#63b8ff" d="M271.89,-172.83C252.84,-189.79 222.12,-215.03 191.75,-231 183.73,-235.22 174.6,-238.73 165.98,-241.54"/>
<polygon fill="#63b8ff" stroke="#63b8ff" points="274.08,-175.57 279.13,-166.26 269.37,-170.39 274.08,-175.57"/>
</a>
</g>
</g>
<!-- Node8 -->
<g id="Node000008" class="node">
<title>Node8</title>
<g id="a_Node000008"><a xlink:href="group___basic_sorts.html#ga62a36eb31bf0a873f7c027e145843b1a" target="_top" xlink:title="Třídění přímou výměnou včetně optimalizace s pomocným příznakem ukončení třídění (Bubble Sort Optimiz...">
<polygon fill="white" stroke="#666666" points="189.12,-222 75.62,-222 75.62,-202 189.12,-202 189.12,-222"/>
<text text-anchor="middle" x="132.38" y="-208.5" font-family="Helvetica,sans-Serif" font-size="10.00">bubble_sort_optimized</text>
</a>
</g>
</g>
<!-- Node6&#45;&gt;Node8 -->
<g id="edge8_Node000006_Node000008" class="edge">
<title>Node6&#45;&gt;Node8</title>
<g id="a_edge8_Node000006_Node000008"><a xlink:title=" ">
<path fill="none" stroke="#63b8ff" d="M254.31,-169.56C235.66,-176.83 212.59,-185.62 191.75,-193 183.61,-195.88 174.78,-198.84 166.51,-201.54"/>
<polygon fill="#63b8ff" stroke="#63b8ff" points="255.57,-172.83 263.6,-165.92 253.02,-166.31 255.57,-172.83"/>
</a>
</g>
</g>
<!-- Node9 -->
<g id="Node000009" class="node">
<title>Node9</title>
<g id="a_Node000009"><a xlink:href="group___basic_sorts.html#gaba41a68f00241f38f7864b4e1dacd086" target="_top" xlink:title="Třídění přímou výměnou včetně optimalizace s výpočtem indexu poslední změny (Bubble Sort Optimized2).">
<polygon fill="white" stroke="#666666" points="191.75,-184 73,-184 73,-164 191.75,-164 191.75,-184"/>
<text text-anchor="middle" x="132.38" y="-170.5" font-family="Helvetica,sans-Serif" font-size="10.00">bubble_sort_optimized2</text>
</a>
</g>
</g>
<!-- Node6&#45;&gt;Node9 -->
<g id="edge10_Node000006_Node000009" class="edge">
<title>Node6&#45;&gt;Node9</title>
<g id="a_edge10_Node000006_Node000009"><a xlink:title=" ">
<path fill="none" stroke="#63b8ff" d="M216.07,-164.03C208.05,-165 199.97,-165.97 192.17,-166.91"/>
<polygon fill="#63b8ff" stroke="#63b8ff" points="216.33,-167.53 225.84,-162.85 215.49,-160.58 216.33,-167.53"/>
</a>
</g>
</g>
<!-- Node10 -->
<g id="Node000010" class="node">
<title>Node10</title>
<g id="a_Node000010"><a xlink:href="group___basic_sorts.html#ga3688a58781905ac2e518285b8bb711ec" target="_top" xlink:title="Třídění přímým výběrem (Select Sort).">
<polygon fill="white" stroke="#666666" points="164.38,-146 100.38,-146 100.38,-126 164.38,-126 164.38,-146"/>
<text text-anchor="middle" x="132.38" y="-132.5" font-family="Helvetica,sans-Serif" font-size="10.00">select_sort</text>
</a>
</g>
</g>
<!-- Node6&#45;&gt;Node10 -->
<g id="edge12_Node000006_Node000010" class="edge">
<title>Node6&#45;&gt;Node10</title>
<g id="a_edge12_Node000006_Node000010"><a xlink:title=" ">
<path fill="none" stroke="#63b8ff" d="M216.14,-145.98C198.02,-143.79 179.63,-141.58 164.8,-139.79"/>
<polygon fill="#63b8ff" stroke="#63b8ff" points="215.49,-149.42 225.84,-147.15 216.33,-142.47 215.49,-149.42"/>
</a>
</g>
</g>
<!-- Node11 -->
<g id="Node000011" class="node">
<title>Node11</title>
<g id="a_Node000011"><a xlink:href="group___basic_sorts.html#gaacee5d609500566a6ad1724486ab8bb2" target="_top" xlink:title="Třídění přímou výměnou se změnou postupu třídění (Shaker Sort).">
<polygon fill="white" stroke="#666666" points="165.88,-108 98.88,-108 98.88,-88 165.88,-88 165.88,-108"/>
<text text-anchor="middle" x="132.38" y="-94.5" font-family="Helvetica,sans-Serif" font-size="10.00">shaker_sort</text>
</a>
</g>
</g>
<!-- Node6&#45;&gt;Node11 -->
<g id="edge14_Node000006_Node000011" class="edge">
<title>Node6&#45;&gt;Node11</title>
<g id="a_edge14_Node000006_Node000011"><a xlink:title=" ">
<path fill="none" stroke="#63b8ff" d="M254.31,-140.44C235.66,-133.17 212.59,-124.38 191.75,-117 183.51,-114.08 174.56,-111.09 166.2,-108.36"/>
<polygon fill="#63b8ff" stroke="#63b8ff" points="253.02,-143.69 263.6,-144.08 255.57,-137.17 253.02,-143.69"/>
</a>
</g>
</g>
<!-- Node12 -->
<g id="Node000012" class="node">
<title>Node12</title>
<g id="a_Node000012"><a xlink:href="group__sortable___t_vector_iterator.html#gadd8aded92ce2c6402742a57316412d39" target="_top" xlink:title="Porovnání hodnot elementů vektorů určených dvěma iterátory.">
<polygon fill="white" stroke="#666666" points="185.75,-70 79,-70 79,-38 185.75,-38 185.75,-70"/>
<text text-anchor="start" x="87" y="-56.5" font-family="Helvetica,sans-Serif" font-size="10.00">vector_compare_with</text>
<text text-anchor="middle" x="132.38" y="-44.5" font-family="Helvetica,sans-Serif" font-size="10.00">_iterators</text>
</a>
</g>
</g>
<!-- Node6&#45;&gt;Node12 -->
<g id="edge16_Node000006_Node000012" class="edge">
<title>Node6&#45;&gt;Node12</title>
<g id="a_edge16_Node000006_Node000012"><a xlink:title=" ">
<path fill="none" stroke="#63b8ff" d="M270.93,-137.22C251.6,-120.7 221.05,-96.13 191.75,-79 186.52,-75.94 180.84,-73.04 175.14,-70.37"/>
<polygon fill="#63b8ff" stroke="#63b8ff" points="268.47,-139.72 278.32,-143.63 273.05,-134.43 268.47,-139.72"/>
</a>
</g>
</g>
<!-- Node7&#45;&gt;Node4 -->
<g id="edge7_Node000007_Node000004" class="edge">
<title>Node7&#45;&gt;Node4</title>
<g id="a_edge7_Node000007_Node000004"><a xlink:title=" ">
<path fill="none" stroke="#63b8ff" d="M88.47,-238.82C83.07,-236.62 77.77,-234.03 73,-231 53.29,-218.48 35.92,-197.06 26.64,-184.34"/>
<polygon fill="#63b8ff" stroke="#63b8ff" points="86.86,-241.96 97.45,-242.08 89.24,-235.38 86.86,-241.96"/>
</a>
</g>
</g>
<!-- Node8&#45;&gt;Node4 -->
<g id="edge9_Node000008_Node000004" class="edge">
<title>Node8&#45;&gt;Node4</title>
<g id="a_edge9_Node000008_Node000004"><a xlink:title=" ">
<path fill="none" stroke="#63b8ff" d="M87.79,-197.95C82.8,-196.3 77.78,-194.63 73,-193 61.06,-188.94 47.68,-184.19 37.29,-180.45"/>
<polygon fill="#63b8ff" stroke="#63b8ff" points="86.57,-201.24 97.16,-201.03 88.75,-194.59 86.57,-201.24"/>
</a>
</g>
</g>
<!-- Node9&#45;&gt;Node4 -->
<g id="edge11_Node000009_Node000004" class="edge">
<title>Node9&#45;&gt;Node4</title>
<g id="a_edge11_Node000009_Node000004"><a xlink:title=" ">
<path fill="none" stroke="#63b8ff" d="M61.45,-174C52.63,-174 44.3,-174 37.43,-174"/>
<polygon fill="#63b8ff" stroke="#63b8ff" points="61.3,-177.5 71.3,-174 61.3,-170.5 61.3,-177.5"/>
</a>
</g>
</g>
<!-- Node10&#45;&gt;Node4 -->
<g id="edge13_Node000010_Node000004" class="edge">
<title>Node10&#45;&gt;Node4</title>
<g id="a_edge13_Node000010_Node000004"><a xlink:title=" ">
<path fill="none" stroke="#63b8ff" d="M89.56,-149.46C83.99,-151.3 78.35,-153.18 73,-155 61.06,-159.06 47.68,-163.81 37.29,-167.55"/>
<polygon fill="#63b8ff" stroke="#63b8ff" points="90.27,-152.91 98.68,-146.47 88.09,-146.26 90.27,-152.91"/>
</a>
</g>
</g>
<!-- Node11&#45;&gt;Node4 -->
<g id="edge15_Node000011_Node000004" class="edge">
<title>Node11&#45;&gt;Node4</title>
<g id="a_edge15_Node000011_Node000004"><a xlink:title=" ">
<path fill="none" stroke="#63b8ff" d="M87.87,-109.42C82.68,-111.57 77.59,-114.08 73,-117 53.29,-129.52 35.92,-150.94 26.64,-163.66"/>
<polygon fill="#63b8ff" stroke="#63b8ff" points="88.96,-112.75 97.15,-106.03 86.56,-106.18 88.96,-112.75"/>
</a>
</g>
</g>
<!-- Node14 -->
<g id="Node000014" class="node">
<title>Node14</title>
<g id="a_Node000014"><a xlink:href="group___main_program.html#ga7343209645c93203da0a86613abfed04" target="_top" xlink:title="Testování třídicí metody.">
<polygon fill="white" stroke="#666666" points="165.88,-20 98.88,-20 98.88,0 165.88,0 165.88,-20"/>
<text text-anchor="middle" x="132.38" y="-6.5" font-family="Helvetica,sans-Serif" font-size="10.00">sort_testing</text>
</a>
</g>
</g>
<!-- Node13&#45;&gt;Node14 -->
<g id="edge18_Node000013_Node000014" class="edge">
<title>Node13&#45;&gt;Node14</title>
<g id="a_edge18_Node000013_Node000014"><a xlink:title=" ">
<path fill="none" stroke="#63b8ff" d="M224.78,-33.78C204.54,-28.51 183.17,-22.95 166.18,-18.53"/>
<polygon fill="#63b8ff" stroke="#63b8ff" points="223.85,-37.15 234.41,-36.28 225.61,-30.37 223.85,-37.15"/>
</a>
</g>
</g>
<!-- Node14&#45;&gt;Node4 -->
<g id="edge19_Node000014_Node000004" class="edge">
<title>Node14&#45;&gt;Node4</title>
<g id="a_edge19_Node000014_Node000004"><a xlink:title=" ">
<path fill="none" stroke="#63b8ff" d="M87.87,-19.17C82.41,-21.69 77.26,-24.9 73,-29 33.36,-67.13 22.9,-137.18 20.3,-163.57"/>
<polygon fill="#63b8ff" stroke="#63b8ff" points="89.06,-22.46 97.18,-15.66 86.59,-15.91 89.06,-22.46"/>
</a>
</g>
</g>
</g>
</svg>
