<?xml version="1.0" encoding="UTF-8" standalone="no"?>
<!DOCTYPE svg PUBLIC "-//W3C//DTD SVG 1.1//EN"
 "http://www.w3.org/Graphics/SVG/1.1/DTD/svg11.dtd">
<!-- Generated by graphviz version 11.0.0 (20240428.1522)
 -->
<!-- Title: vector_for_each Pages: 1 -->
<svg width="242pt" height="78pt"
 viewBox="0.00 0.00 241.75 78.00" xmlns="http://www.w3.org/2000/svg" xmlns:xlink="http://www.w3.org/1999/xlink">
<g id="graph0" class="graph" transform="scale(1 1) rotate(0) translate(4 74)">
<title>vector_for_each</title>
<!-- Node1 -->
<g id="Node000001" class="node">
<title>Node1</title>
<g id="a_Node000001"><a xlink:title="Zavolání zvolené funkce na každý element vektoru od pozice určené iterátorem až do konce vektoru.">
<polygon fill="#999999" stroke="#666666" points="83.5,-42 0,-42 0,-22 83.5,-22 83.5,-42"/>
<text text-anchor="middle" x="41.75" y="-28.5" font-family="Helvetica,sans-Serif" font-size="10.00">vector_for_each</text>
</a>
</g>
</g>
<!-- Node2 -->
<g id="Node000002" class="node">
<title>Node2</title>
<g id="a_Node000002"><a xlink:href="group___t_vector_iterator.html#ga3f8a97a63f887539e270f6845bf22b9a" target="_top" xlink:title="Zjištění platnosti iterátoru.">
<polygon fill="white" stroke="#666666" points="221.38,-70 131.88,-70 131.88,-38 221.38,-38 221.38,-70"/>
<text text-anchor="start" x="139.88" y="-56.5" font-family="Helvetica,sans-Serif" font-size="10.00">vector_iterator_is</text>
<text text-anchor="middle" x="176.62" y="-44.5" font-family="Helvetica,sans-Serif" font-size="10.00">_valid</text>
</a>
</g>
</g>
<!-- Node1&#45;&gt;Node2 -->
<g id="edge1_Node000001_Node000002" class="edge">
<title>Node1&#45;&gt;Node2</title>
<g id="a_edge1_Node000001_Node000002"><a xlink:title=" ">
<path fill="none" stroke="#63b8ff" d="M83.7,-38.78C95.38,-40.71 108.29,-42.85 120.66,-44.9"/>
<polygon fill="#63b8ff" stroke="#63b8ff" points="119.88,-48.32 130.32,-46.5 121.02,-41.41 119.88,-48.32"/>
</a>
</g>
</g>
<!-- Node3 -->
<g id="Node000003" class="node">
<title>Node3</title>
<g id="a_Node000003"><a xlink:href="group___t_vector_iterator.html#ga7ce07cda016d67e3ca891125613ece56" target="_top" xlink:title="Posunutí iterátoru vpřed.">
<polygon fill="white" stroke="#666666" points="233.75,-20 119.5,-20 119.5,0 233.75,0 233.75,-20"/>
<text text-anchor="middle" x="176.62" y="-6.5" font-family="Helvetica,sans-Serif" font-size="10.00">vector_iterator_to_next</text>
</a>
</g>
</g>
<!-- Node1&#45;&gt;Node3 -->
<g id="edge2_Node000001_Node000003" class="edge">
<title>Node1&#45;&gt;Node3</title>
<g id="a_edge2_Node000001_Node000003"><a xlink:title=" ">
<path fill="none" stroke="#63b8ff" d="M83.7,-25.22C91.46,-23.94 99.77,-22.56 108.09,-21.18"/>
<polygon fill="#63b8ff" stroke="#63b8ff" points="108.63,-24.64 117.92,-19.55 107.48,-17.73 108.63,-24.64"/>
</a>
</g>
</g>
</g>
</svg>
