<?xml version="1.0" encoding="UTF-8" standalone="no"?>
<!DOCTYPE svg PUBLIC "-//W3C//DTD SVG 1.1//EN"
 "http://www.w3.org/Graphics/SVG/1.1/DTD/svg11.dtd">
<!-- Generated by graphviz version 11.0.0 (20240428.1522)
 -->
<!-- Title: main.c Pages: 1 -->
<svg width="450pt" height="252pt"
 viewBox="0.00 0.00 450.10 252.00" xmlns="http://www.w3.org/2000/svg" xmlns:xlink="http://www.w3.org/1999/xlink">
<g id="graph0" class="graph" transform="scale(1 1) rotate(0) translate(4 248)">
<title>main.c</title>
<!-- Node1 -->
<g id="Node000001" class="node">
<title>Node1</title>
<g id="a_Node000001"><a xlink:title="Hlavní program testující API přímých metod třídění">
<polygon fill="#999999" stroke="#666666" points="126.48,-244 81.23,-244 81.23,-224 126.48,-224 126.48,-244"/>
<text text-anchor="middle" x="103.85" y="-230.5" font-family="Helvetica,sans-Serif" font-size="10.00">main.c</text>
</a>
</g>
</g>
<!-- Node2 -->
<g id="Node000002" class="node">
<title>Node2</title>
<g id="a_Node000002"><a xlink:title=" ">
<polygon fill="#e0e0e0" stroke="#999999" points="130.48,-20 85.23,-20 85.23,0 130.48,0 130.48,-20"/>
<text text-anchor="middle" x="107.85" y="-6.5" font-family="Helvetica,sans-Serif" font-size="10.00">stdio.h</text>
</a>
</g>
</g>
<!-- Node1&#45;&gt;Node2 -->
<g id="edge1_Node000001_Node000002" class="edge">
<title>Node1&#45;&gt;Node2</title>
<g id="a_edge1_Node000001_Node000002"><a xlink:title=" ">
<path fill="none" stroke="#63b8ff" d="M85.21,-223.57C50.96,-204.85 -16.68,-160.57 3.85,-112 19.78,-74.34 57.36,-43.81 82.71,-26.52"/>
<polygon fill="#63b8ff" stroke="#63b8ff" points="84.39,-29.61 90.82,-21.18 80.54,-23.76 84.39,-29.61"/>
</a>
</g>
</g>
<!-- Node3 -->
<g id="Node000003" class="node">
<title>Node3</title>
<g id="a_Node000003"><a xlink:title=" ">
<polygon fill="#e0e0e0" stroke="#999999" points="56.35,-132 13.35,-132 13.35,-112 56.35,-112 56.35,-132"/>
<text text-anchor="middle" x="34.85" y="-118.5" font-family="Helvetica,sans-Serif" font-size="10.00">time.h</text>
</a>
</g>
</g>
<!-- Node1&#45;&gt;Node3 -->
<g id="edge2_Node000001_Node000003" class="edge">
<title>Node1&#45;&gt;Node3</title>
<g id="a_edge2_Node000001_Node000003"><a xlink:title=" ">
<path fill="none" stroke="#63b8ff" d="M89.58,-223.54C78.33,-215.39 63.05,-202.63 53.85,-188 45.33,-174.43 40.49,-156.89 37.84,-143.45"/>
<polygon fill="#63b8ff" stroke="#63b8ff" points="41.36,-143.25 36.22,-133.98 34.46,-144.43 41.36,-143.25"/>
</a>
</g>
</g>
<!-- Node4 -->
<g id="Node000004" class="node">
<title>Node4</title>
<g id="a_Node000004"><a xlink:href="basic__sorts_8h.html" target="_top" xlink:title="Deklarace API přímých metod třídění">
<polygon fill="white" stroke="#666666" points="257.1,-188 182.6,-188 182.6,-168 257.1,-168 257.1,-188"/>
<text text-anchor="middle" x="219.85" y="-174.5" font-family="Helvetica,sans-Serif" font-size="10.00">basic_sorts.h</text>
</a>
</g>
</g>
<!-- Node1&#45;&gt;Node4 -->
<g id="edge3_Node000001_Node000004" class="edge">
<title>Node1&#45;&gt;Node4</title>
<g id="a_edge3_Node000001_Node000004"><a xlink:title=" ">
<path fill="none" stroke="#63b8ff" d="M124.06,-223.59C142.08,-215.21 168.72,-202.8 189.34,-193.21"/>
<polygon fill="#63b8ff" stroke="#63b8ff" points="190.53,-196.51 198.12,-189.12 187.58,-190.17 190.53,-196.51"/>
</a>
</g>
</g>
<!-- Node11 -->
<g id="Node000011" class="node">
<title>Node11</title>
<g id="a_Node000011"><a xlink:title=" ">
<polygon fill="#e0e0e0" stroke="#999999" points="442.1,-20 391.6,-20 391.6,0 442.1,0 442.1,-20"/>
<text text-anchor="middle" x="416.85" y="-6.5" font-family="Helvetica,sans-Serif" font-size="10.00">check.h</text>
</a>
</g>
</g>
<!-- Node1&#45;&gt;Node11 -->
<g id="edge19_Node000001_Node000011" class="edge">
<title>Node1&#45;&gt;Node11</title>
<g id="a_edge19_Node000001_Node000011"><a xlink:title=" ">
<path fill="none" stroke="#63b8ff" d="M126.8,-229.35C159.07,-223.61 219.14,-210.74 265.85,-188 341.3,-151.27 380.01,-150.9 417.85,-76 424.79,-62.27 424.06,-44.74 421.86,-31.34"/>
<polygon fill="#63b8ff" stroke="#63b8ff" points="425.36,-31 419.91,-21.91 418.5,-32.42 425.36,-31"/>
</a>
</g>
</g>
<!-- Node12 -->
<g id="Node000012" class="node">
<title>Node12</title>
<g id="a_Node000012"><a xlink:href="main__support_8h.html" target="_top" xlink:title="Soubor pro multiplatformní podporu programu v různých OS.">
<polygon fill="white" stroke="#666666" points="145.23,-188 62.48,-188 62.48,-168 145.23,-168 145.23,-188"/>
<text text-anchor="middle" x="103.85" y="-174.5" font-family="Helvetica,sans-Serif" font-size="10.00">main_support.h</text>
</a>
</g>
</g>
<!-- Node1&#45;&gt;Node12 -->
<g id="edge15_Node000001_Node000012" class="edge">
<title>Node1&#45;&gt;Node12</title>
<g id="a_edge15_Node000001_Node000012"><a xlink:title=" ">
<path fill="none" stroke="#63b8ff" d="M103.85,-223.59C103.85,-217.01 103.85,-207.96 103.85,-199.73"/>
<polygon fill="#63b8ff" stroke="#63b8ff" points="107.35,-199.81 103.85,-189.81 100.35,-199.81 107.35,-199.81"/>
</a>
</g>
</g>
<!-- Node5 -->
<g id="Node000005" class="node">
<title>Node5</title>
<g id="a_Node000005"><a xlink:href="_t_vector_8h.html" target="_top" xlink:title="Definice typu Sortable Vector.">
<polygon fill="white" stroke="#666666" points="266.85,-132 208.85,-132 208.85,-112 266.85,-112 266.85,-132"/>
<text text-anchor="middle" x="237.85" y="-118.5" font-family="Helvetica,sans-Serif" font-size="10.00">TVector.h</text>
</a>
</g>
</g>
<!-- Node4&#45;&gt;Node5 -->
<g id="edge4_Node000004_Node000005" class="edge">
<title>Node4&#45;&gt;Node5</title>
<g id="a_edge4_Node000004_Node000005"><a xlink:title=" ">
<path fill="none" stroke="#63b8ff" d="M222.99,-167.59C225.24,-160.86 228.34,-151.53 231.14,-143.15"/>
<polygon fill="#63b8ff" stroke="#63b8ff" points="234.43,-144.33 234.28,-133.73 227.79,-142.11 234.43,-144.33"/>
</a>
</g>
</g>
<!-- Node5&#45;&gt;Node2 -->
<g id="edge5_Node000005_Node000002" class="edge">
<title>Node5&#45;&gt;Node2</title>
<g id="a_edge5_Node000005_Node000002"><a xlink:title=" ">
<path fill="none" stroke="#63b8ff" d="M226.77,-111.62C204.7,-92.95 155.03,-50.92 127.37,-27.52"/>
<polygon fill="#63b8ff" stroke="#63b8ff" points="129.96,-25.12 120.07,-21.33 125.44,-30.46 129.96,-25.12"/>
</a>
</g>
</g>
<!-- Node6 -->
<g id="Node000006" class="node">
<title>Node6</title>
<g id="a_Node000006"><a xlink:title=" ">
<polygon fill="#e0e0e0" stroke="#999999" points="226.73,-20 170.98,-20 170.98,0 226.73,0 226.73,-20"/>
<text text-anchor="middle" x="198.85" y="-6.5" font-family="Helvetica,sans-Serif" font-size="10.00">stdbool.h</text>
</a>
</g>
</g>
<!-- Node5&#45;&gt;Node6 -->
<g id="edge6_Node000005_Node000006" class="edge">
<title>Node5&#45;&gt;Node6</title>
<g id="a_edge6_Node000005_Node000006"><a xlink:title=" ">
<path fill="none" stroke="#63b8ff" d="M233.35,-111.84C229.03,-102.85 222.5,-88.68 217.85,-76 212.46,-61.28 207.53,-44.25 204.04,-31.32"/>
<polygon fill="#63b8ff" stroke="#63b8ff" points="207.48,-30.63 201.56,-21.85 200.71,-32.41 207.48,-30.63"/>
</a>
</g>
</g>
<!-- Node7 -->
<g id="Node000007" class="node">
<title>Node7</title>
<g id="a_Node000007"><a xlink:title=" ">
<polygon fill="#e0e0e0" stroke="#999999" points="389.1,-76 338.6,-76 338.6,-56 389.1,-56 389.1,-76"/>
<text text-anchor="middle" x="363.85" y="-62.5" font-family="Helvetica,sans-Serif" font-size="10.00">stddef.h</text>
</a>
</g>
</g>
<!-- Node5&#45;&gt;Node7 -->
<g id="edge7_Node000005_Node000007" class="edge">
<title>Node5&#45;&gt;Node7</title>
<g id="a_edge7_Node000005_Node000007"><a xlink:title=" ">
<path fill="none" stroke="#63b8ff" d="M259.8,-111.59C279.55,-103.13 308.84,-90.58 331.32,-80.94"/>
<polygon fill="#63b8ff" stroke="#63b8ff" points="332.53,-84.23 340.34,-77.08 329.77,-77.8 332.53,-84.23"/>
</a>
</g>
</g>
<!-- Node8 -->
<g id="Node000008" class="node">
<title>Node8</title>
<g id="a_Node000008"><a xlink:href="_t_vector_element_8h.html" target="_top" xlink:title="Definice typu Basic VectorElement a implementace API.">
<polygon fill="white" stroke="#666666" points="320.85,-76 226.85,-76 226.85,-56 320.85,-56 320.85,-76"/>
<text text-anchor="middle" x="273.85" y="-62.5" font-family="Helvetica,sans-Serif" font-size="10.00">TVectorElement.h</text>
</a>
</g>
</g>
<!-- Node5&#45;&gt;Node8 -->
<g id="edge8_Node000005_Node000008" class="edge">
<title>Node5&#45;&gt;Node8</title>
<g id="a_edge8_Node000005_Node000008"><a xlink:title=" ">
<path fill="none" stroke="#63b8ff" d="M244.12,-111.59C248.87,-104.47 255.55,-94.45 261.38,-85.72"/>
<polygon fill="#63b8ff" stroke="#63b8ff" points="264.18,-87.82 266.82,-77.56 258.36,-83.94 264.18,-87.82"/>
</a>
</g>
</g>
<!-- Node5&#45;&gt;Node11 -->
<g id="edge14_Node000005_Node000011" class="edge">
<title>Node5&#45;&gt;Node11</title>
<g id="a_edge14_Node000005_Node000011"><a xlink:title=" ">
<path fill="none" stroke="#63b8ff" d="M267.15,-120.91C302.83,-119.18 362.68,-110.81 397.85,-76 409.62,-64.36 414.19,-45.87 415.92,-31.58"/>
<polygon fill="#63b8ff" stroke="#63b8ff" points="419.39,-32.14 416.7,-21.89 412.41,-31.58 419.39,-32.14"/>
</a>
</g>
</g>
<!-- Node8&#45;&gt;Node2 -->
<g id="edge9_Node000008_Node000002" class="edge">
<title>Node8&#45;&gt;Node2</title>
<g id="a_edge9_Node000008_Node000002"><a xlink:title=" ">
<path fill="none" stroke="#63b8ff" d="M244.94,-55.59C216.19,-46.24 172.12,-31.9 141.74,-22.02"/>
<polygon fill="#63b8ff" stroke="#63b8ff" points="142.86,-18.71 132.27,-18.94 140.7,-25.36 142.86,-18.71"/>
</a>
</g>
</g>
<!-- Node8&#45;&gt;Node6 -->
<g id="edge11_Node000008_Node000006" class="edge">
<title>Node8&#45;&gt;Node6</title>
<g id="a_edge11_Node000008_Node000006"><a xlink:title=" ">
<path fill="none" stroke="#63b8ff" d="M260.79,-55.59C249.89,-47.74 234.1,-36.38 221.2,-27.09"/>
<polygon fill="#63b8ff" stroke="#63b8ff" points="223.41,-24.37 213.25,-21.36 219.32,-30.05 223.41,-24.37"/>
</a>
</g>
</g>
<!-- Node9 -->
<g id="Node000009" class="node">
<title>Node9</title>
<g id="a_Node000009"><a xlink:title=" ">
<polygon fill="#e0e0e0" stroke="#999999" points="295.6,-20 248.1,-20 248.1,0 295.6,0 295.6,-20"/>
<text text-anchor="middle" x="271.85" y="-6.5" font-family="Helvetica,sans-Serif" font-size="10.00">stdlib.h</text>
</a>
</g>
</g>
<!-- Node8&#45;&gt;Node9 -->
<g id="edge10_Node000008_Node000009" class="edge">
<title>Node8&#45;&gt;Node9</title>
<g id="a_edge10_Node000008_Node000009"><a xlink:title=" ">
<path fill="none" stroke="#63b8ff" d="M273.51,-55.59C273.26,-49.01 272.93,-39.96 272.62,-31.73"/>
<polygon fill="#63b8ff" stroke="#63b8ff" points="276.12,-31.67 272.25,-21.81 269.13,-31.93 276.12,-31.67"/>
</a>
</g>
</g>
<!-- Node10 -->
<g id="Node000010" class="node">
<title>Node10</title>
<g id="a_Node000010"><a xlink:title=" ">
<polygon fill="#e0e0e0" stroke="#999999" points="364.48,-20 313.23,-20 313.23,0 364.48,0 364.48,-20"/>
<text text-anchor="middle" x="338.85" y="-6.5" font-family="Helvetica,sans-Serif" font-size="10.00">assert.h</text>
</a>
</g>
</g>
<!-- Node8&#45;&gt;Node10 -->
<g id="edge12_Node000008_Node000010" class="edge">
<title>Node8&#45;&gt;Node10</title>
<g id="a_edge12_Node000008_Node000010"><a xlink:title=" ">
<path fill="none" stroke="#63b8ff" d="M285.18,-55.59C294.5,-47.85 307.93,-36.69 319.03,-27.47"/>
<polygon fill="#63b8ff" stroke="#63b8ff" points="321.04,-30.35 326.5,-21.27 316.57,-24.96 321.04,-30.35"/>
</a>
</g>
</g>
<!-- Node8&#45;&gt;Node11 -->
<g id="edge13_Node000008_Node000011" class="edge">
<title>Node8&#45;&gt;Node11</title>
<g id="a_edge13_Node000008_Node000011"><a xlink:title=" ">
<path fill="none" stroke="#63b8ff" d="M298.76,-55.59C321.59,-46.97 355.64,-34.12 381.31,-24.42"/>
<polygon fill="#63b8ff" stroke="#63b8ff" points="382.22,-27.82 390.34,-21.01 379.74,-21.27 382.22,-27.82"/>
</a>
</g>
</g>
<!-- Node12&#45;&gt;Node2 -->
<g id="edge16_Node000012_Node000002" class="edge">
<title>Node12&#45;&gt;Node2</title>
<g id="a_edge16_Node000012_Node000002"><a xlink:title=" ">
<path fill="none" stroke="#63b8ff" d="M104.08,-167.6C104.71,-141.46 106.49,-67.48 107.36,-31.36"/>
<polygon fill="#63b8ff" stroke="#63b8ff" points="110.85,-31.89 107.59,-21.81 103.85,-31.72 110.85,-31.89"/>
</a>
</g>
</g>
<!-- Node12&#45;&gt;Node3 -->
<g id="edge17_Node000012_Node000003" class="edge">
<title>Node12&#45;&gt;Node3</title>
<g id="a_edge17_Node000012_Node000003"><a xlink:title=" ">
<path fill="none" stroke="#63b8ff" d="M91.84,-167.59C81.84,-159.77 67.39,-148.46 55.54,-139.19"/>
<polygon fill="#63b8ff" stroke="#63b8ff" points="57.96,-136.64 47.93,-133.23 53.65,-142.15 57.96,-136.64"/>
</a>
</g>
</g>
<!-- Node12&#45;&gt;Node6 -->
<g id="edge18_Node000012_Node000006" class="edge">
<title>Node12&#45;&gt;Node6</title>
<g id="a_edge18_Node000012_Node000006"><a xlink:title=" ">
<path fill="none" stroke="#63b8ff" d="M109.23,-167.6C124.39,-141.12 167.64,-65.54 188.01,-29.96"/>
<polygon fill="#63b8ff" stroke="#63b8ff" points="190.85,-32.03 192.78,-21.61 184.78,-28.55 190.85,-32.03"/>
</a>
</g>
</g>
</g>
</svg>
