<?xml version="1.0" encoding="UTF-8" standalone="no"?>
<!DOCTYPE svg PUBLIC "-//W3C//DTD SVG 1.1//EN"
 "http://www.w3.org/Graphics/SVG/1.1/DTD/svg11.dtd">
<!-- Generated by graphviz version 11.0.0 (20240428.1522)
 -->
<!-- Title: TVectorIterator Pages: 1 -->
<svg width="137pt" height="352pt"
 viewBox="0.00 0.00 137.00 352.00" xmlns="http://www.w3.org/2000/svg" xmlns:xlink="http://www.w3.org/1999/xlink">
<g id="graph0" class="graph" transform="scale(1 1) rotate(0) translate(4 348)">
<title>TVectorIterator</title>
<!-- Node1 -->
<g id="Node000001" class="node">
<title>Node1</title>
<g id="a_Node000001"><a xlink:title="Definice typu VectorIterator.">
<polygon fill="#999999" stroke="none" points="101,-52 28,-52 28,0 101,0 101,-52"/>
<text text-anchor="start" x="32.62" y="-38.5" font-family="Helvetica,sans-Serif" font-size="10.00">TVectorIterator</text>
<text text-anchor="start" x="33.5" y="-22.5" font-family="Helvetica,sans-Serif" font-size="10.00">+</text>
<text text-anchor="start" x="45" y="-22.5" font-family="Helvetica,sans-Serif" font-size="10.00">size_t iPos</text>
<text text-anchor="start" x="63" y="-6.5" font-family="Helvetica,sans-Serif" font-size="10.00"> </text>
<polygon fill="#666666" stroke="#666666" points="28,-34 28,-34 101,-34 101,-34 28,-34"/>
<polygon fill="#666666" stroke="#666666" points="28,-18 28,-18 43,-18 43,-18 28,-18"/>
<polygon fill="#666666" stroke="#666666" points="43,-18 43,-18 101,-18 101,-18 43,-18"/>
<polygon fill="none" stroke="#666666" points="28,0 28,-52 101,-52 101,0 28,0"/>
</a>
</g>
</g>
<!-- Node2 -->
<g id="Node000002" class="node">
<title>Node2</title>
<g id="a_Node000002"><a xlink:href="group___t_vector.html#struct_t_vector" target="_top" xlink:title="Definice typu Vector.">
<polygon fill="white" stroke="none" points="129,-174 0,-174 0,-106 129,-106 129,-174"/>
<text text-anchor="start" x="47.62" y="-160.5" font-family="Helvetica,sans-Serif" font-size="10.00">TVector</text>
<text text-anchor="start" x="4" y="-144.5" font-family="Helvetica,sans-Serif" font-size="10.00">+</text>
<text text-anchor="start" x="14" y="-144.5" font-family="Helvetica,sans-Serif" font-size="10.00">TVectorElement * iValues</text>
<text text-anchor="start" x="4" y="-128.5" font-family="Helvetica,sans-Serif" font-size="10.00">+</text>
<text text-anchor="start" x="14" y="-128.5" font-family="Helvetica,sans-Serif" font-size="10.00">size_t iSize</text>
<text text-anchor="start" x="63" y="-112.5" font-family="Helvetica,sans-Serif" font-size="10.00"> </text>
<polygon fill="#666666" stroke="#666666" points="0,-156 0,-156 129,-156 129,-156 0,-156"/>
<polygon fill="#666666" stroke="#666666" points="0,-124 0,-124 12,-124 12,-124 0,-124"/>
<polygon fill="#666666" stroke="#666666" points="12,-124 12,-124 129,-124 129,-124 12,-124"/>
<polygon fill="none" stroke="#666666" points="0,-106 0,-174 129,-174 129,-106 0,-106"/>
</a>
</g>
</g>
<!-- Node2&#45;&gt;Node1 -->
<g id="edge1_Node000001_Node000002" class="edge">
<title>Node2&#45;&gt;Node1</title>
<g id="a_edge1_Node000001_Node000002"><a xlink:title=" ">
<path fill="none" stroke="#63b8ff" d="M64.5,-106C64.5,-93.03 64.5,-78.07 64.5,-64.68"/>
<polygon fill="none" stroke="#63b8ff" points="64.5,-64.84 60.5,-58.84 64.5,-52.84 68.5,-58.84 64.5,-64.84"/>
</a>
</g>
<text text-anchor="start" x="67.5" y="-75.5" font-family="Helvetica,sans-Serif" font-size="10.00" fill="grey">+iVector</text>
</g>
<!-- Node3 -->
<g id="Node000003" class="node">
<title>Node3</title>
<g id="a_Node000003"><a xlink:href="group__sortable___t_vector.html#struct_t_vector_sort_stats" target="_top" xlink:title="Definice typu VectorSortStats.">
<polygon fill="white" stroke="none" points="117.5,-344 11.5,-344 11.5,-228 117.5,-228 117.5,-344"/>
<text text-anchor="start" x="27" y="-330.5" font-family="Helvetica,sans-Serif" font-size="10.00">TVectorSortStats</text>
<text text-anchor="start" x="15.5" y="-314.5" font-family="Helvetica,sans-Serif" font-size="10.00">+</text>
<text text-anchor="start" x="25.5" y="-314.5" font-family="Helvetica,sans-Serif" font-size="10.00">size_t iComparisons</text>
<text text-anchor="start" x="15.5" y="-298.5" font-family="Helvetica,sans-Serif" font-size="10.00">+</text>
<text text-anchor="start" x="25.5" y="-298.5" font-family="Helvetica,sans-Serif" font-size="10.00">size_t iSwaps</text>
<text text-anchor="start" x="15.5" y="-282.5" font-family="Helvetica,sans-Serif" font-size="10.00">+</text>
<text text-anchor="start" x="25.5" y="-282.5" font-family="Helvetica,sans-Serif" font-size="10.00">size_t iMoves</text>
<text text-anchor="start" x="15.5" y="-266.5" font-family="Helvetica,sans-Serif" font-size="10.00">+</text>
<text text-anchor="start" x="25.5" y="-266.5" font-family="Helvetica,sans-Serif" font-size="10.00">size_t iGets</text>
<text text-anchor="start" x="15.5" y="-250.5" font-family="Helvetica,sans-Serif" font-size="10.00">+</text>
<text text-anchor="start" x="25.5" y="-250.5" font-family="Helvetica,sans-Serif" font-size="10.00">size_t iSets</text>
<text text-anchor="start" x="63" y="-234.5" font-family="Helvetica,sans-Serif" font-size="10.00"> </text>
<polygon fill="#666666" stroke="#666666" points="11.5,-326 11.5,-326 117.5,-326 117.5,-326 11.5,-326"/>
<polygon fill="#666666" stroke="#666666" points="11.5,-246 11.5,-246 23.5,-246 23.5,-246 11.5,-246"/>
<polygon fill="#666666" stroke="#666666" points="23.5,-246 23.5,-246 117.5,-246 117.5,-246 23.5,-246"/>
<polygon fill="none" stroke="#666666" points="11.5,-228 11.5,-344 117.5,-344 117.5,-228 11.5,-228"/>
</a>
</g>
</g>
<!-- Node3&#45;&gt;Node2 -->
<g id="edge2_Node000002_Node000003" class="edge">
<title>Node3&#45;&gt;Node2</title>
<g id="a_edge2_Node000002_Node000003"><a xlink:title=" ">
<path fill="none" stroke="#63b8ff" d="M64.5,-228.09C64.5,-214.29 64.5,-199.72 64.5,-186.53"/>
<polygon fill="none" stroke="#63b8ff" points="64.5,-186.77 60.5,-180.77 64.5,-174.77 68.5,-180.77 64.5,-186.77"/>
</a>
</g>
<text text-anchor="start" x="67.5" y="-197.5" font-family="Helvetica,sans-Serif" font-size="10.00" fill="grey">+iStats</text>
</g>
</g>
</svg>
