<?xml version="1.0" encoding="UTF-8" standalone="no"?>
<!DOCTYPE svg PUBLIC "-//W3C//DTD SVG 1.1//EN"
 "http://www.w3.org/Graphics/SVG/1.1/DTD/svg11.dtd">
<!-- Generated by graphviz version 11.0.0 (20240428.1522)
 -->
<!-- Title: testQuestionWildcardNotMatchEmpty Pages: 1 -->
<svg width="279pt" height="58pt"
 viewBox="0.00 0.00 279.25 58.00" xmlns="http://www.w3.org/2000/svg" xmlns:xlink="http://www.w3.org/1999/xlink">
<g id="graph0" class="graph" transform="scale(1 1) rotate(0) translate(4 54)">
<title>testQuestionWildcardNotMatchEmpty</title>
<!-- Node1 -->
<g id="Node000001" class="node">
<title>Node1</title>
<g id="a_Node000001"><a xlink:title=" ">
<polygon fill="#999999" stroke="#666666" points="151.75,-32 0,-32 0,0 151.75,0 151.75,-32"/>
<text text-anchor="start" x="8" y="-18.5" font-family="Helvetica,sans-Serif" font-size="10.00">testQuestionWildcardNotMatch</text>
<text text-anchor="middle" x="75.88" y="-6.5" font-family="Helvetica,sans-Serif" font-size="10.00">Empty</text>
</a>
</g>
</g>
<!-- Node1&#45;&gt;Node1 -->
<g id="edge1_Node000001_Node000001" class="edge">
<title>Node1&#45;&gt;Node1</title>
<g id="a_edge1_Node000001_Node000001"><a xlink:title=" ">
<path fill="none" stroke="#63b8ff" d="M48.45,-32.44C43.33,-41.58 52.47,-50 75.88,-50 88.67,-50 97.21,-47.48 101.48,-43.71"/>
<polygon fill="#63b8ff" stroke="#63b8ff" points="104.91,-44.37 103.06,-33.94 98,-43.25 104.91,-44.37"/>
</a>
</g>
</g>
<!-- Node2 -->
<g id="Node000002" class="node">
<title>Node2</title>
<g id="a_Node000002"><a xlink:href="group___wildcard__matching.html#gad9e22c13e3865398e2e951469482b622" target="_top" xlink:title="Implementace funkce pro ověření shody řetězců z nichž jeden obsahuje žolíkové znaky.">
<polygon fill="white" stroke="#666666" points="271.25,-26 187.75,-26 187.75,-6 271.25,-6 271.25,-26"/>
<text text-anchor="middle" x="229.5" y="-12.5" font-family="Helvetica,sans-Serif" font-size="10.00">wildcard_match</text>
</a>
</g>
</g>
<!-- Node1&#45;&gt;Node2 -->
<g id="edge2_Node000001_Node000002" class="edge">
<title>Node1&#45;&gt;Node2</title>
<g id="a_edge2_Node000001_Node000002"><a xlink:title=" ">
<path fill="none" stroke="#63b8ff" d="M152.24,-16C160.34,-16 168.44,-16 176.18,-16"/>
<polygon fill="#63b8ff" stroke="#63b8ff" points="176.08,-19.5 186.08,-16 176.08,-12.5 176.08,-19.5"/>
</a>
</g>
</g>
<!-- Node2&#45;&gt;Node2 -->
<g id="edge3_Node000002_Node000002" class="edge">
<title>Node2&#45;&gt;Node2</title>
<g id="a_edge3_Node000002_Node000002"><a xlink:title=" ">
<path fill="none" stroke="#63b8ff" d="M205.09,-26.34C194.66,-34.98 202.8,-44 229.5,-44 244.1,-44 253.15,-41.3 256.65,-37.44"/>
<polygon fill="#63b8ff" stroke="#63b8ff" points="260.07,-36.68 254.27,-27.81 253.27,-38.36 260.07,-36.68"/>
</a>
</g>
</g>
</g>
</svg>
