<?xml version="1.0" encoding="UTF-8" standalone="no"?>
<!DOCTYPE svg PUBLIC "-//W3C//DTD SVG 1.1//EN"
 "http://www.w3.org/Graphics/SVG/1.1/DTD/svg11.dtd">
<!-- Generated by graphviz version 11.0.0 (20240428.1522)
 -->
<!-- Title: testStarQuestionStarMatchChar Pages: 1 -->
<svg width="282pt" height="46pt"
 viewBox="0.00 0.00 282.25 46.00" xmlns="http://www.w3.org/2000/svg" xmlns:xlink="http://www.w3.org/1999/xlink">
<g id="graph0" class="graph" transform="scale(1 1) rotate(0) translate(4 42)">
<title>testStarQuestionStarMatchChar</title>
<!-- Node1 -->
<g id="Node000001" class="node">
<title>Node1</title>
<g id="a_Node000001"><a xlink:title=" ">
<polygon fill="#999999" stroke="#666666" points="154.75,-20 0,-20 0,0 154.75,0 154.75,-20"/>
<text text-anchor="middle" x="77.38" y="-6.5" font-family="Helvetica,sans-Serif" font-size="10.00">testStarQuestionStarMatchChar</text>
</a>
</g>
</g>
<!-- Node1&#45;&gt;Node1 -->
<g id="edge1_Node000001_Node000001" class="edge">
<title>Node1&#45;&gt;Node1</title>
<g id="a_edge1_Node000001_Node000001"><a xlink:title=" ">
<path fill="none" stroke="#63b8ff" d="M52.73,-20.34C42.19,-28.98 50.41,-38 77.38,-38 92.12,-38 101.26,-35.3 104.79,-31.44"/>
<polygon fill="#63b8ff" stroke="#63b8ff" points="108.21,-30.66 102.39,-21.81 101.41,-32.36 108.21,-30.66"/>
</a>
</g>
</g>
<!-- Node2 -->
<g id="Node000002" class="node">
<title>Node2</title>
<g id="a_Node000002"><a xlink:href="group___wildcard__matching.html#gad9e22c13e3865398e2e951469482b622" target="_top" xlink:title="Implementace funkce pro ověření shody řetězců z nichž jeden obsahuje žolíkové znaky.">
<polygon fill="white" stroke="#666666" points="274.25,-20 190.75,-20 190.75,0 274.25,0 274.25,-20"/>
<text text-anchor="middle" x="232.5" y="-6.5" font-family="Helvetica,sans-Serif" font-size="10.00">wildcard_match</text>
</a>
</g>
</g>
<!-- Node1&#45;&gt;Node2 -->
<g id="edge2_Node000001_Node000002" class="edge">
<title>Node1&#45;&gt;Node2</title>
<g id="a_edge2_Node000001_Node000002"><a xlink:title=" ">
<path fill="none" stroke="#63b8ff" d="M154.94,-10C163.08,-10 171.22,-10 179,-10"/>
<polygon fill="#63b8ff" stroke="#63b8ff" points="178.95,-13.5 188.95,-10 178.95,-6.5 178.95,-13.5"/>
</a>
</g>
</g>
<!-- Node2&#45;&gt;Node2 -->
<g id="edge3_Node000002_Node000002" class="edge">
<title>Node2&#45;&gt;Node2</title>
<g id="a_edge3_Node000002_Node000002"><a xlink:title=" ">
<path fill="none" stroke="#63b8ff" d="M207.85,-20.34C197.32,-28.98 205.53,-38 232.5,-38 247.25,-38 256.39,-35.3 259.92,-31.44"/>
<polygon fill="#63b8ff" stroke="#63b8ff" points="263.33,-30.66 257.51,-21.81 256.54,-32.36 263.33,-30.66"/>
</a>
</g>
</g>
</g>
</svg>
