<?xml version="1.0" encoding="UTF-8" standalone="no"?>
<!DOCTYPE svg PUBLIC "-//W3C//DTD SVG 1.1//EN"
 "http://www.w3.org/Graphics/SVG/1.1/DTD/svg11.dtd">
<!-- Generated by graphviz version 11.0.0 (20240428.1522)
 -->
<!-- Title: testStarQuestionCharStarMatch Pages: 1 -->
<svg width="255pt" height="58pt"
 viewBox="0.00 0.00 255.25 58.00" xmlns="http://www.w3.org/2000/svg" xmlns:xlink="http://www.w3.org/1999/xlink">
<g id="graph0" class="graph" transform="scale(1 1) rotate(0) translate(4 54)">
<title>testStarQuestionCharStarMatch</title>
<!-- Node1 -->
<g id="Node000001" class="node">
<title>Node1</title>
<g id="a_Node000001"><a xlink:title=" ">
<polygon fill="#999999" stroke="#666666" points="127.75,-32 0,-32 0,0 127.75,0 127.75,-32"/>
<text text-anchor="start" x="8" y="-18.5" font-family="Helvetica,sans-Serif" font-size="10.00">testStarQuestionCharStar</text>
<text text-anchor="middle" x="63.88" y="-6.5" font-family="Helvetica,sans-Serif" font-size="10.00">Match</text>
</a>
</g>
</g>
<!-- Node1&#45;&gt;Node1 -->
<g id="edge1_Node000001_Node000001" class="edge">
<title>Node1&#45;&gt;Node1</title>
<g id="a_edge1_Node000001_Node000001"><a xlink:title=" ">
<path fill="none" stroke="#63b8ff" d="M38.59,-32.44C33.87,-41.58 42.3,-50 63.88,-50 75.67,-50 83.54,-47.48 87.48,-43.71"/>
<polygon fill="#63b8ff" stroke="#63b8ff" points="90.92,-44.35 88.94,-33.94 84,-43.31 90.92,-44.35"/>
</a>
</g>
</g>
<!-- Node2 -->
<g id="Node000002" class="node">
<title>Node2</title>
<g id="a_Node000002"><a xlink:href="group___wildcard__matching.html#gad9e22c13e3865398e2e951469482b622" target="_top" xlink:title="Implementace funkce pro ověření shody řetězců z nichž jeden obsahuje žolíkové znaky.">
<polygon fill="white" stroke="#666666" points="247.25,-26 163.75,-26 163.75,-6 247.25,-6 247.25,-26"/>
<text text-anchor="middle" x="205.5" y="-12.5" font-family="Helvetica,sans-Serif" font-size="10.00">wildcard_match</text>
</a>
</g>
</g>
<!-- Node1&#45;&gt;Node2 -->
<g id="edge2_Node000001_Node000002" class="edge">
<title>Node1&#45;&gt;Node2</title>
<g id="a_edge2_Node000001_Node000002"><a xlink:title=" ">
<path fill="none" stroke="#63b8ff" d="M128.15,-16C136.1,-16 144.17,-16 151.94,-16"/>
<polygon fill="#63b8ff" stroke="#63b8ff" points="151.92,-19.5 161.92,-16 151.92,-12.5 151.92,-19.5"/>
</a>
</g>
</g>
<!-- Node2&#45;&gt;Node2 -->
<g id="edge3_Node000002_Node000002" class="edge">
<title>Node2&#45;&gt;Node2</title>
<g id="a_edge3_Node000002_Node000002"><a xlink:title=" ">
<path fill="none" stroke="#63b8ff" d="M183,-26.34C173.38,-34.98 180.88,-44 205.5,-44 218.96,-44 227.31,-41.3 230.53,-37.44"/>
<polygon fill="#63b8ff" stroke="#63b8ff" points="233.97,-36.79 228.34,-27.81 227.15,-38.34 233.97,-36.79"/>
</a>
</g>
</g>
</g>
</svg>
