<?xml version="1.0" encoding="UTF-8" standalone="no"?>
<!DOCTYPE svg PUBLIC "-//W3C//DTD SVG 1.1//EN"
 "http://www.w3.org/Graphics/SVG/1.1/DTD/svg11.dtd">
<!-- Generated by graphviz version 11.0.0 (20240428.1522)
 -->
<!-- Title: wildcard_match Pages: 1 -->
<svg width="314pt" height="1834pt"
 viewBox="0.00 0.00 313.75 1834.00" xmlns="http://www.w3.org/2000/svg" xmlns:xlink="http://www.w3.org/1999/xlink">
<g id="graph0" class="graph" transform="scale(1 1) rotate(0) translate(4 1830)">
<title>wildcard_match</title>
<!-- Node1 -->
<g id="Node000001" class="node">
<title>Node1</title>
<g id="a_Node000001"><a xlink:title="Implementace funkce pro ověření shody řetězců z nichž jeden obsahuje žolíkové znaky.">
<polygon fill="#999999" stroke="#666666" points="305.75,-914 222.25,-914 222.25,-894 305.75,-894 305.75,-914"/>
<text text-anchor="middle" x="264" y="-900.5" font-family="Helvetica,sans-Serif" font-size="10.00">wildcard_match</text>
</a>
</g>
</g>
<!-- Node1&#45;&gt;Node1 -->
<g id="edge54_Node000001_Node000001" class="edge">
<title>Node1&#45;&gt;Node1</title>
<g id="a_edge54_Node000001_Node000001"><a xlink:title=" ">
<path fill="none" stroke="#63b8ff" d="M294.52,-925.11C290.88,-929.14 280.71,-932 264,-932 234.3,-932 225.25,-922.98 236.85,-914.34"/>
<polygon fill="#63b8ff" stroke="#63b8ff" points="297.93,-924.28 291.6,-915.78 291.25,-926.37 297.93,-924.28"/>
</a>
</g>
</g>
<!-- Node2 -->
<g id="Node000002" class="node">
<title>Node2</title>
<g id="a_Node000002"><a xlink:href="group___main_program.html#ga0ddf1224851353fc92bfbff6f499fa97" target="_top" xlink:title=" ">
<polygon fill="white" stroke="#666666" points="111.62,-1826 74.62,-1826 74.62,-1806 111.62,-1806 111.62,-1826"/>
<text text-anchor="middle" x="93.12" y="-1812.5" font-family="Helvetica,sans-Serif" font-size="10.00">main</text>
</a>
</g>
</g>
<!-- Node1&#45;&gt;Node2 -->
<g id="edge1_Node000001_Node000002" class="edge">
<title>Node1&#45;&gt;Node2</title>
<g id="a_edge1_Node000001_Node000002"><a xlink:title=" ">
<path fill="none" stroke="#63b8ff" d="M262.66,-925.85C260.41,-1056.4 245.96,-1729.81 186.25,-1797 167.81,-1817.75 133.23,-1819.32 112.09,-1818.03"/>
<polygon fill="#63b8ff" stroke="#63b8ff" points="266.16,-925.94 262.82,-915.88 259.16,-925.83 266.16,-925.94"/>
</a>
</g>
</g>
<!-- Node3 -->
<g id="Node000003" class="node">
<title>Node3</title>
<g id="a_Node000003"><a xlink:href="class_string_match_test.html#a13df43b861e11512fed69827f1b5cf6a" target="_top" xlink:title=" ">
<polygon fill="white" stroke="#666666" points="158.88,-1770 27.38,-1770 27.38,-1738 158.88,-1738 158.88,-1770"/>
<text text-anchor="start" x="35.38" y="-1756.5" font-family="Helvetica,sans-Serif" font-size="10.00">StringMatchTest::testDiffer</text>
<text text-anchor="middle" x="93.12" y="-1744.5" font-family="Helvetica,sans-Serif" font-size="10.00">Chars</text>
</a>
</g>
</g>
<!-- Node1&#45;&gt;Node3 -->
<g id="edge2_Node000001_Node000003" class="edge">
<title>Node1&#45;&gt;Node3</title>
<g id="a_edge2_Node000001_Node000003"><a xlink:title=" ">
<path fill="none" stroke="#63b8ff" d="M262.44,-925.67C259.03,-1049.64 239.51,-1665.67 186.25,-1729 179.1,-1737.5 169.39,-1743.26 158.94,-1747.14"/>
<polygon fill="#63b8ff" stroke="#63b8ff" points="265.93,-926.01 262.7,-915.92 258.93,-925.82 265.93,-926.01"/>
</a>
</g>
</g>
<!-- Node4 -->
<g id="Node000004" class="node">
<title>Node4</title>
<g id="a_Node000004"><a xlink:href="class_string_match_test.html#ad9d0ae566141e667fd56f84d6b97ef91" target="_top" xlink:title=" ">
<polygon fill="white" stroke="#666666" points="158.88,-1702 27.38,-1702 27.38,-1670 158.88,-1670 158.88,-1702"/>
<text text-anchor="start" x="35.38" y="-1688.5" font-family="Helvetica,sans-Serif" font-size="10.00">StringMatchTest::testDiffer</text>
<text text-anchor="middle" x="93.12" y="-1676.5" font-family="Helvetica,sans-Serif" font-size="10.00">String</text>
</a>
</g>
</g>
<!-- Node1&#45;&gt;Node4 -->
<g id="edge4_Node000001_Node000004" class="edge">
<title>Node1&#45;&gt;Node4</title>
<g id="a_edge4_Node000001_Node000004"><a xlink:title=" ">
<path fill="none" stroke="#63b8ff" d="M262.25,-925.69C257.97,-1043.49 235.15,-1603.35 186.25,-1661 179.18,-1669.34 169.62,-1675.04 159.35,-1678.91"/>
<polygon fill="#63b8ff" stroke="#63b8ff" points="265.74,-925.98 262.6,-915.86 258.74,-925.73 265.74,-925.98"/>
</a>
</g>
</g>
<!-- Node5 -->
<g id="Node000005" class="node">
<title>Node5</title>
<g id="a_Node000005"><a xlink:href="class_string_match_test.html#a90de716f6e2dbc4dbbe99b8020ae81ed" target="_top" xlink:title=" ">
<polygon fill="white" stroke="#666666" points="162.25,-1634 24,-1634 24,-1602 162.25,-1602 162.25,-1634"/>
<text text-anchor="start" x="32" y="-1620.5" font-family="Helvetica,sans-Serif" font-size="10.00">StringMatchTest::testEmpty</text>
<text text-anchor="middle" x="93.12" y="-1608.5" font-family="Helvetica,sans-Serif" font-size="10.00">Strings</text>
</a>
</g>
</g>
<!-- Node1&#45;&gt;Node5 -->
<g id="edge6_Node000001_Node000005" class="edge">
<title>Node1&#45;&gt;Node5</title>
<g id="a_edge6_Node000001_Node000005"><a xlink:title=" ">
<path fill="none" stroke="#63b8ff" d="M262.01,-925.79C256.78,-1037.33 230.78,-1541.02 186.25,-1593 179.89,-1600.43 171.57,-1605.76 162.52,-1609.56"/>
<polygon fill="#63b8ff" stroke="#63b8ff" points="265.5,-926.11 262.47,-915.96 258.51,-925.78 265.5,-926.11"/>
</a>
</g>
</g>
<!-- Node6 -->
<g id="Node000006" class="node">
<title>Node6</title>
<g id="a_Node000006"><a xlink:href="class_star_wildcard_match_test.html#a96739c0a96e844df415fc281e6aa0ee1" target="_top" xlink:title=" ">
<polygon fill="white" stroke="#666666" points="153.25,-1566 33,-1566 33,-1534 153.25,-1534 153.25,-1566"/>
<text text-anchor="start" x="41" y="-1552.5" font-family="Helvetica,sans-Serif" font-size="10.00">StarWildcardMatchTest</text>
<text text-anchor="middle" x="93.12" y="-1540.5" font-family="Helvetica,sans-Serif" font-size="10.00">::testMatchLongerString</text>
</a>
</g>
</g>
<!-- Node1&#45;&gt;Node6 -->
<g id="edge8_Node000001_Node000006" class="edge">
<title>Node1&#45;&gt;Node6</title>
<g id="a_edge8_Node000001_Node000006"><a xlink:title=" ">
<path fill="none" stroke="#63b8ff" d="M263.43,-925.81C264.94,-1025.03 266.11,-1432.91 186.25,-1525 177.78,-1534.77 165.92,-1540.9 153.52,-1544.71"/>
<polygon fill="#63b8ff" stroke="#63b8ff" points="266.93,-925.82 263.26,-915.88 259.93,-925.94 266.93,-925.82"/>
</a>
</g>
</g>
<!-- Node7 -->
<g id="Node000007" class="node">
<title>Node7</title>
<g id="a_Node000007"><a xlink:href="class_star_wildcard_match_test.html#a3901368dca871df82802b9db2656a26e" target="_top" xlink:title=" ">
<polygon fill="white" stroke="#666666" points="157,-1498 29.25,-1498 29.25,-1466 157,-1466 157,-1498"/>
<text text-anchor="start" x="37.25" y="-1484.5" font-family="Helvetica,sans-Serif" font-size="10.00">StarWildcardMatchTest</text>
<text text-anchor="middle" x="93.12" y="-1472.5" font-family="Helvetica,sans-Serif" font-size="10.00">::testNotMatchDifferString</text>
</a>
</g>
</g>
<!-- Node1&#45;&gt;Node7 -->
<g id="edge10_Node000001_Node000007" class="edge">
<title>Node1&#45;&gt;Node7</title>
<g id="a_edge10_Node000001_Node000007"><a xlink:title=" ">
<path fill="none" stroke="#63b8ff" d="M263.06,-925.42C262.89,-1017.17 257.59,-1375.96 186.25,-1457 178.58,-1465.71 168.22,-1471.52 157.21,-1475.37"/>
<polygon fill="#63b8ff" stroke="#63b8ff" points="266.56,-925.61 263.06,-915.61 259.56,-925.61 266.56,-925.61"/>
</a>
</g>
</g>
<!-- Node8 -->
<g id="Node000008" class="node">
<title>Node8</title>
<g id="a_Node000008"><a xlink:href="class_star_wildcard_match_test.html#ab20a9b97145c7c6881da57d368fa8488" target="_top" xlink:title=" ">
<polygon fill="white" stroke="#666666" points="160.75,-1430 25.5,-1430 25.5,-1398 160.75,-1398 160.75,-1430"/>
<text text-anchor="start" x="33.5" y="-1416.5" font-family="Helvetica,sans-Serif" font-size="10.00">StarWildcardMatchTest</text>
<text text-anchor="middle" x="93.12" y="-1404.5" font-family="Helvetica,sans-Serif" font-size="10.00">::testNotMatchLongerString</text>
</a>
</g>
</g>
<!-- Node1&#45;&gt;Node8 -->
<g id="edge12_Node000001_Node000008" class="edge">
<title>Node1&#45;&gt;Node8</title>
<g id="a_edge12_Node000001_Node000008"><a xlink:title=" ">
<path fill="none" stroke="#63b8ff" d="M262.59,-925.71C260.57,-1010.64 248.94,-1319.15 186.25,-1389 179.39,-1396.65 170.45,-1402.06 160.83,-1405.86"/>
<polygon fill="#63b8ff" stroke="#63b8ff" points="266.09,-926.04 262.8,-915.97 259.09,-925.89 266.09,-926.04"/>
</a>
</g>
</g>
<!-- Node9 -->
<g id="Node000009" class="node">
<title>Node9</title>
<g id="a_Node000009"><a xlink:href="class_advanced_wildcard_match_test.html#a1f84b83aed937cc3a3398b41e6005033" target="_top" xlink:title=" ">
<polygon fill="white" stroke="#666666" points="176.5,-1362 9.75,-1362 9.75,-1330 176.5,-1330 176.5,-1362"/>
<text text-anchor="start" x="17.75" y="-1348.5" font-family="Helvetica,sans-Serif" font-size="10.00">AdvancedWildcardMatchTest</text>
<text text-anchor="middle" x="93.12" y="-1336.5" font-family="Helvetica,sans-Serif" font-size="10.00">::testQuestionAndStarAtEndMatch</text>
</a>
</g>
</g>
<!-- Node1&#45;&gt;Node9 -->
<g id="edge14_Node000001_Node000009" class="edge">
<title>Node1&#45;&gt;Node9</title>
<g id="a_edge14_Node000001_Node000009"><a xlink:title=" ">
<path fill="none" stroke="#63b8ff" d="M261.99,-925.57C257.94,-1002.52 240.43,-1262.12 186.25,-1321 183.22,-1324.29 179.8,-1327.17 176.12,-1329.68"/>
<polygon fill="#63b8ff" stroke="#63b8ff" points="265.46,-926.16 262.47,-915.99 258.47,-925.81 265.46,-926.16"/>
</a>
</g>
</g>
<!-- Node10 -->
<g id="Node000010" class="node">
<title>Node10</title>
<g id="a_Node000010"><a xlink:href="class_question_wildcard_match_test.html#ad353cfcda80201ef27d8859b73da13ac" target="_top" xlink:title=" ">
<polygon fill="white" stroke="#666666" points="173.12,-1294 13.12,-1294 13.12,-1262 173.12,-1262 173.12,-1294"/>
<text text-anchor="start" x="21.12" y="-1280.5" font-family="Helvetica,sans-Serif" font-size="10.00">QuestionWildcardMatchTest</text>
<text text-anchor="middle" x="93.12" y="-1268.5" font-family="Helvetica,sans-Serif" font-size="10.00">::testQuestionWildcardMatchAny</text>
</a>
</g>
</g>
<!-- Node1&#45;&gt;Node10 -->
<g id="edge16_Node000001_Node000010" class="edge">
<title>Node1&#45;&gt;Node10</title>
<g id="a_edge16_Node000001_Node000010"><a xlink:title=" ">
<path fill="none" stroke="#63b8ff" d="M261.15,-925.51C254.84,-993.95 231.97,-1205 186.25,-1253 182.48,-1256.96 178.15,-1260.31 173.47,-1263.15"/>
<polygon fill="#63b8ff" stroke="#63b8ff" points="264.6,-926.24 262,-915.97 257.63,-925.61 264.6,-926.24"/>
</a>
</g>
</g>
<!-- Node11 -->
<g id="Node000011" class="node">
<title>Node11</title>
<g id="a_Node000011"><a xlink:href="class_question_wildcard_match_test.html#a8e2d9e4fcbfe0daa73a89059ca02bd09" target="_top" xlink:title=" ">
<polygon fill="white" stroke="#666666" points="186.25,-1226 0,-1226 0,-1194 186.25,-1194 186.25,-1226"/>
<text text-anchor="start" x="8" y="-1212.5" font-family="Helvetica,sans-Serif" font-size="10.00">QuestionWildcardMatchTest</text>
<text text-anchor="middle" x="93.12" y="-1200.5" font-family="Helvetica,sans-Serif" font-size="10.00">::testQuestionWildcardNotMatchEmpty</text>
</a>
</g>
</g>
<!-- Node1&#45;&gt;Node11 -->
<g id="edge18_Node000001_Node000011" class="edge">
<title>Node1&#45;&gt;Node11</title>
<g id="a_edge18_Node000001_Node000011"><a xlink:title=" ">
<path fill="none" stroke="#63b8ff" d="M263.83,-925.63C264.61,-977.95 258.99,-1112.38 186.25,-1185 182.97,-1188.28 179.3,-1191.14 175.37,-1193.63"/>
<polygon fill="#63b8ff" stroke="#63b8ff" points="267.34,-925.86 263.58,-915.96 260.34,-926.04 267.34,-925.86"/>
</a>
</g>
</g>
<!-- Node12 -->
<g id="Node000012" class="node">
<title>Node12</title>
<g id="a_Node000012"><a xlink:href="class_string_match_test.html#a5a354ed6a7987fd272dcc0c002fd49b2" target="_top" xlink:title=" ">
<polygon fill="white" stroke="#666666" points="160.75,-1158 25.5,-1158 25.5,-1126 160.75,-1126 160.75,-1158"/>
<text text-anchor="start" x="33.5" y="-1144.5" font-family="Helvetica,sans-Serif" font-size="10.00">StringMatchTest::testSame</text>
<text text-anchor="middle" x="93.12" y="-1132.5" font-family="Helvetica,sans-Serif" font-size="10.00">Chars</text>
</a>
</g>
</g>
<!-- Node1&#45;&gt;Node12 -->
<g id="edge20_Node000001_Node000012" class="edge">
<title>Node1&#45;&gt;Node12</title>
<g id="a_edge20_Node000001_Node000012"><a xlink:title=" ">
<path fill="none" stroke="#63b8ff" d="M261.62,-925.49C257.67,-968.39 242.67,-1064.97 186.25,-1117 179.06,-1123.63 170.29,-1128.53 161.06,-1132.15"/>
<polygon fill="#63b8ff" stroke="#63b8ff" points="265.09,-925.98 262.39,-915.74 258.11,-925.43 265.09,-925.98"/>
</a>
</g>
</g>
<!-- Node13 -->
<g id="Node000013" class="node">
<title>Node13</title>
<g id="a_Node000013"><a xlink:href="class_string_match_test.html#aea960a1b1d06ec05b13cf4013f64f581" target="_top" xlink:title=" ">
<polygon fill="white" stroke="#666666" points="160.75,-1090 25.5,-1090 25.5,-1058 160.75,-1058 160.75,-1090"/>
<text text-anchor="start" x="33.5" y="-1076.5" font-family="Helvetica,sans-Serif" font-size="10.00">StringMatchTest::testSame</text>
<text text-anchor="middle" x="93.12" y="-1064.5" font-family="Helvetica,sans-Serif" font-size="10.00">Strings</text>
</a>
</g>
</g>
<!-- Node1&#45;&gt;Node13 -->
<g id="edge22_Node000001_Node000013" class="edge">
<title>Node1&#45;&gt;Node13</title>
<g id="a_edge22_Node000001_Node000013"><a xlink:title=" ">
<path fill="none" stroke="#63b8ff" d="M257.6,-925.3C248.42,-957.09 226.71,-1016.65 186.25,-1049 178.87,-1054.9 170.21,-1059.41 161.21,-1062.86"/>
<polygon fill="#63b8ff" stroke="#63b8ff" points="260.96,-926.27 260.21,-915.7 254.21,-924.43 260.96,-926.27"/>
</a>
</g>
</g>
<!-- Node14 -->
<g id="Node000014" class="node">
<title>Node14</title>
<g id="a_Node000014"><a xlink:href="class_advanced_wildcard_match_test.html#a9987bb9bde26c3d8ec7568cc2fef6057" target="_top" xlink:title=" ">
<polygon fill="white" stroke="#666666" points="172,-1022 14.25,-1022 14.25,-990 172,-990 172,-1022"/>
<text text-anchor="start" x="22.25" y="-1008.5" font-family="Helvetica,sans-Serif" font-size="10.00">AdvancedWildcardMatchTest</text>
<text text-anchor="middle" x="93.12" y="-996.5" font-family="Helvetica,sans-Serif" font-size="10.00">::testStarCharQuestionNotMatch</text>
</a>
</g>
</g>
<!-- Node1&#45;&gt;Node14 -->
<g id="edge24_Node000001_Node000014" class="edge">
<title>Node1&#45;&gt;Node14</title>
<g id="a_edge24_Node000001_Node000014"><a xlink:title=" ">
<path fill="none" stroke="#63b8ff" d="M248.7,-923.27C234.67,-940.83 211.73,-966.21 186.25,-981 180.66,-984.25 174.64,-987.08 168.44,-989.56"/>
<polygon fill="#63b8ff" stroke="#63b8ff" points="251.25,-925.69 254.61,-915.63 245.72,-921.4 251.25,-925.69"/>
</a>
</g>
</g>
<!-- Node15 -->
<g id="Node000015" class="node">
<title>Node15</title>
<g id="a_Node000015"><a xlink:href="class_star_wildcard_match_test.html#a4d6c195dcb8c8309af338514a646d55c" target="_top" xlink:title=" ">
<polygon fill="white" stroke="#666666" points="164.12,-954 22.12,-954 22.12,-922 164.12,-922 164.12,-954"/>
<text text-anchor="start" x="30.12" y="-940.5" font-family="Helvetica,sans-Serif" font-size="10.00">StarWildcardMatchTest</text>
<text text-anchor="middle" x="93.12" y="-928.5" font-family="Helvetica,sans-Serif" font-size="10.00">::testStarCharStarCharMatch</text>
</a>
</g>
</g>
<!-- Node1&#45;&gt;Node15 -->
<g id="edge26_Node000001_Node000015" class="edge">
<title>Node1&#45;&gt;Node15</title>
<g id="a_edge26_Node000001_Node000015"><a xlink:title=" ">
<path fill="none" stroke="#63b8ff" d="M211.21,-914.43C196.5,-917.39 180.23,-920.66 164.62,-923.81"/>
<polygon fill="#63b8ff" stroke="#63b8ff" points="211.52,-917.93 220.64,-912.53 210.14,-911.07 211.52,-917.93"/>
</a>
</g>
</g>
<!-- Node16 -->
<g id="Node000016" class="node">
<title>Node16</title>
<g id="a_Node000016"><a xlink:href="class_star_wildcard_match_test.html#a90d1e31631e4a0e81c42566aca392d63" target="_top" xlink:title=" ">
<polygon fill="white" stroke="#666666" points="164.12,-886 22.12,-886 22.12,-854 164.12,-854 164.12,-886"/>
<text text-anchor="start" x="30.12" y="-872.5" font-family="Helvetica,sans-Serif" font-size="10.00">StarWildcardMatchTest</text>
<text text-anchor="middle" x="93.12" y="-860.5" font-family="Helvetica,sans-Serif" font-size="10.00">::testStarCharStarMatchChar</text>
</a>
</g>
</g>
<!-- Node1&#45;&gt;Node16 -->
<g id="edge28_Node000001_Node000016" class="edge">
<title>Node1&#45;&gt;Node16</title>
<g id="a_edge28_Node000001_Node000016"><a xlink:title=" ">
<path fill="none" stroke="#63b8ff" d="M211.21,-893.57C196.5,-890.61 180.23,-887.34 164.62,-884.19"/>
<polygon fill="#63b8ff" stroke="#63b8ff" points="210.14,-896.93 220.64,-895.47 211.52,-890.07 210.14,-896.93"/>
</a>
</g>
</g>
<!-- Node17 -->
<g id="Node000017" class="node">
<title>Node17</title>
<g id="a_Node000017"><a xlink:href="class_star_wildcard_match_test.html#a6b8e01cb29c30134929dc26b3357e627" target="_top" xlink:title=" ">
<polygon fill="white" stroke="#666666" points="153.25,-818 33,-818 33,-786 153.25,-786 153.25,-818"/>
<text text-anchor="start" x="41" y="-804.5" font-family="Helvetica,sans-Serif" font-size="10.00">StarWildcardMatchTest</text>
<text text-anchor="middle" x="93.12" y="-792.5" font-family="Helvetica,sans-Serif" font-size="10.00">::testStarMatchAllString</text>
</a>
</g>
</g>
<!-- Node1&#45;&gt;Node17 -->
<g id="edge30_Node000001_Node000017" class="edge">
<title>Node1&#45;&gt;Node17</title>
<g id="a_edge30_Node000001_Node000017"><a xlink:title=" ">
<path fill="none" stroke="#63b8ff" d="M242.64,-886.37C227.66,-873.9 206.47,-857.29 186.25,-845 169.81,-835.01 150.67,-825.73 134.1,-818.37"/>
<polygon fill="#63b8ff" stroke="#63b8ff" points="240.05,-888.76 249.95,-892.54 244.57,-883.42 240.05,-888.76"/>
</a>
</g>
</g>
<!-- Node18 -->
<g id="Node000018" class="node">
<title>Node18</title>
<g id="a_Node000018"><a xlink:href="class_star_wildcard_match_test.html#af77593932f74c9ced8b18cc12940c665" target="_top" xlink:title=" ">
<polygon fill="white" stroke="#666666" points="152.12,-750 34.12,-750 34.12,-718 152.12,-718 152.12,-750"/>
<text text-anchor="start" x="42.12" y="-736.5" font-family="Helvetica,sans-Serif" font-size="10.00">StarWildcardMatchTest</text>
<text text-anchor="middle" x="93.12" y="-724.5" font-family="Helvetica,sans-Serif" font-size="10.00">::testStarMatchEmpty</text>
</a>
</g>
</g>
<!-- Node1&#45;&gt;Node18 -->
<g id="edge32_Node000001_Node000018" class="edge">
<title>Node1&#45;&gt;Node18</title>
<g id="a_edge32_Node000001_Node000018"><a xlink:title=" ">
<path fill="none" stroke="#63b8ff" d="M255.06,-883.36C243.57,-855.9 219.95,-807.28 186.25,-777 173.78,-765.79 157.87,-756.98 142.81,-750.33"/>
<polygon fill="#63b8ff" stroke="#63b8ff" points="251.68,-884.35 258.66,-892.32 258.17,-881.74 251.68,-884.35"/>
</a>
</g>
</g>
<!-- Node19 -->
<g id="Node000019" class="node">
<title>Node19</title>
<g id="a_Node000019"><a xlink:href="class_star_wildcard_match_test.html#a8f4f7cdf271d671e4e3fda33c7a2c61c" target="_top" xlink:title=" ">
<polygon fill="white" stroke="#666666" points="154,-682 32.25,-682 32.25,-650 154,-650 154,-682"/>
<text text-anchor="start" x="40.25" y="-668.5" font-family="Helvetica,sans-Serif" font-size="10.00">StarWildcardMatchTest</text>
<text text-anchor="middle" x="93.12" y="-656.5" font-family="Helvetica,sans-Serif" font-size="10.00">::testStarMatchOneChar</text>
</a>
</g>
</g>
<!-- Node1&#45;&gt;Node19 -->
<g id="edge34_Node000001_Node000019" class="edge">
<title>Node1&#45;&gt;Node19</title>
<g id="a_edge34_Node000001_Node000019"><a xlink:title=" ">
<path fill="none" stroke="#63b8ff" d="M259.86,-882.39C253.12,-843.16 233.82,-759.6 186.25,-709 175.49,-697.55 161.08,-688.87 146.85,-682.41"/>
<polygon fill="#63b8ff" stroke="#63b8ff" points="256.39,-882.86 261.42,-892.18 263.31,-881.76 256.39,-882.86"/>
</a>
</g>
</g>
<!-- Node20 -->
<g id="Node000020" class="node">
<title>Node20</title>
<g id="a_Node000020"><a xlink:href="class_star_wildcard_match_test.html#a882700254eca863f91e0fc51fe160c6e" target="_top" xlink:title=" ">
<polygon fill="white" stroke="#666666" points="172,-614 14.25,-614 14.25,-582 172,-582 172,-614"/>
<text text-anchor="start" x="22.25" y="-600.5" font-family="Helvetica,sans-Serif" font-size="10.00">StarWildcardMatchTest</text>
<text text-anchor="middle" x="93.12" y="-588.5" font-family="Helvetica,sans-Serif" font-size="10.00">::testStarMatchOneCharInMiddle</text>
</a>
</g>
</g>
<!-- Node1&#45;&gt;Node20 -->
<g id="edge36_Node000001_Node000020" class="edge">
<title>Node1&#45;&gt;Node20</title>
<g id="a_edge36_Node000001_Node000020"><a xlink:title=" ">
<path fill="none" stroke="#63b8ff" d="M262.48,-882.2C260.21,-833.25 248.22,-713.25 186.25,-641 176.37,-629.48 162.73,-620.85 148.97,-614.46"/>
<polygon fill="#63b8ff" stroke="#63b8ff" points="258.98,-882.16 262.84,-892.03 265.98,-881.91 258.98,-882.16"/>
</a>
</g>
</g>
<!-- Node21 -->
<g id="Node000021" class="node">
<title>Node21</title>
<g id="a_Node000021"><a xlink:href="class_star_wildcard_match_test.html#ad7a130b787846ecc25bf0aa680ff5e4b" target="_top" xlink:title=" ">
<polygon fill="white" stroke="#666666" points="165.62,-546 20.62,-546 20.62,-514 165.62,-514 165.62,-546"/>
<text text-anchor="start" x="28.62" y="-532.5" font-family="Helvetica,sans-Serif" font-size="10.00">StarWildcardMatchTest</text>
<text text-anchor="middle" x="93.12" y="-520.5" font-family="Helvetica,sans-Serif" font-size="10.00">::testStarMatchStringInMiddle</text>
</a>
</g>
</g>
<!-- Node1&#45;&gt;Node21 -->
<g id="edge38_Node000001_Node000021" class="edge">
<title>Node1&#45;&gt;Node21</title>
<g id="a_edge38_Node000001_Node000021"><a xlink:title=" ">
<path fill="none" stroke="#63b8ff" d="M260.45,-882.22C252.38,-816.47 225.59,-621.55 186.25,-573 176.81,-561.34 163.48,-552.69 149.88,-546.32"/>
<polygon fill="#63b8ff" stroke="#63b8ff" points="256.97,-882.55 261.63,-892.06 263.92,-881.71 256.97,-882.55"/>
</a>
</g>
</g>
<!-- Node22 -->
<g id="Node000022" class="node">
<title>Node22</title>
<g id="a_Node000022"><a xlink:href="class_advanced_wildcard_match_test.html#a744add3a616a8eb39360f9a10ce20033" target="_top" xlink:title=" ">
<polygon fill="white" stroke="#666666" points="173.5,-478 12.75,-478 12.75,-446 173.5,-446 173.5,-478"/>
<text text-anchor="start" x="20.75" y="-464.5" font-family="Helvetica,sans-Serif" font-size="10.00">AdvancedWildcardMatchTest</text>
<text text-anchor="middle" x="93.12" y="-452.5" font-family="Helvetica,sans-Serif" font-size="10.00">::testStarQuestionCharStarMatch</text>
</a>
</g>
</g>
<!-- Node1&#45;&gt;Node22 -->
<g id="edge40_Node000001_Node000022" class="edge">
<title>Node1&#45;&gt;Node22</title>
<g id="a_edge40_Node000001_Node000022"><a xlink:title=" ">
<path fill="none" stroke="#63b8ff" d="M261.43,-882.71C255.62,-808.9 233.19,-565.22 186.25,-505 177.14,-493.31 164.08,-484.66 150.66,-478.31"/>
<polygon fill="#63b8ff" stroke="#63b8ff" points="257.91,-882.53 262.16,-892.24 264.89,-882 257.91,-882.53"/>
</a>
</g>
</g>
<!-- Node23 -->
<g id="Node000023" class="node">
<title>Node23</title>
<g id="a_Node000023"><a xlink:href="class_advanced_wildcard_match_test.html#a66592688e3b026d69fbbd829cefd901f" target="_top" xlink:title=" ">
<polygon fill="white" stroke="#666666" points="173.5,-410 12.75,-410 12.75,-378 173.5,-378 173.5,-410"/>
<text text-anchor="start" x="20.75" y="-396.5" font-family="Helvetica,sans-Serif" font-size="10.00">AdvancedWildcardMatchTest</text>
<text text-anchor="middle" x="93.12" y="-384.5" font-family="Helvetica,sans-Serif" font-size="10.00">::testStarQuestionStarMatchChar</text>
</a>
</g>
</g>
<!-- Node1&#45;&gt;Node23 -->
<g id="edge42_Node000001_Node000023" class="edge">
<title>Node1&#45;&gt;Node23</title>
<g id="a_edge42_Node000001_Node000023"><a xlink:title=" ">
<path fill="none" stroke="#63b8ff" d="M262.07,-882.35C258.17,-800.21 240.66,-508.79 186.25,-437 177.4,-425.32 164.61,-416.7 151.36,-410.37"/>
<polygon fill="#63b8ff" stroke="#63b8ff" points="258.57,-882.33 262.52,-892.16 265.56,-882.01 258.57,-882.33"/>
</a>
</g>
</g>
<!-- Node24 -->
<g id="Node000024" class="node">
<title>Node24</title>
<g id="a_Node000024"><a xlink:href="class_advanced_wildcard_match_test.html#aca46915cd7a86f4dc14438de7dc85173" target="_top" xlink:title=" ">
<polygon fill="white" stroke="#666666" points="185.12,-342 1.12,-342 1.12,-310 185.12,-310 185.12,-342"/>
<text text-anchor="start" x="9.12" y="-328.5" font-family="Helvetica,sans-Serif" font-size="10.00">AdvancedWildcardMatchTest</text>
<text text-anchor="middle" x="93.12" y="-316.5" font-family="Helvetica,sans-Serif" font-size="10.00">::testStarQuestionStarNotMatchEmpty</text>
</a>
</g>
</g>
<!-- Node1&#45;&gt;Node24 -->
<g id="edge44_Node000001_Node000024" class="edge">
<title>Node1&#45;&gt;Node24</title>
<g id="a_edge44_Node000001_Node000024"><a xlink:title=" ">
<path fill="none" stroke="#63b8ff" d="M262.57,-882.14C260.41,-792.32 248.2,-452.5 186.25,-369 177.63,-357.38 165.08,-348.79 152,-342.48"/>
<polygon fill="#63b8ff" stroke="#63b8ff" points="259.07,-882.08 262.79,-892 266.07,-881.93 259.07,-882.08"/>
</a>
</g>
</g>
<!-- Node25 -->
<g id="Node000025" class="node">
<title>Node25</title>
<g id="a_Node000025"><a xlink:href="class_star_wildcard_match_test.html#a6b83a759a88e0dffb3836cd7d92169aa" target="_top" xlink:title=" ">
<polygon fill="white" stroke="#666666" points="161.12,-274 25.12,-274 25.12,-242 161.12,-242 161.12,-274"/>
<text text-anchor="start" x="33.12" y="-260.5" font-family="Helvetica,sans-Serif" font-size="10.00">StarWildcardMatchTest</text>
<text text-anchor="middle" x="93.12" y="-248.5" font-family="Helvetica,sans-Serif" font-size="10.00">::testThreeStarMatchEmpty</text>
</a>
</g>
</g>
<!-- Node1&#45;&gt;Node25 -->
<g id="edge46_Node000001_Node000025" class="edge">
<title>Node1&#45;&gt;Node25</title>
<g id="a_edge46_Node000001_Node000025"><a xlink:title=" ">
<path fill="none" stroke="#63b8ff" d="M262.97,-882.2C262.41,-785.56 255.83,-396.36 186.25,-301 177.72,-289.31 165.2,-280.69 152.13,-274.39"/>
<polygon fill="#63b8ff" stroke="#63b8ff" points="259.47,-882.12 263,-892.1 266.47,-882.09 259.47,-882.12"/>
</a>
</g>
</g>
<!-- Node26 -->
<g id="Node000026" class="node">
<title>Node26</title>
<g id="a_Node000026"><a xlink:href="class_star_wildcard_match_test.html#a2b44f3332756c23c80b2541148370776" target="_top" xlink:title=" ">
<polygon fill="white" stroke="#666666" points="152.12,-206 34.12,-206 34.12,-174 152.12,-174 152.12,-206"/>
<text text-anchor="start" x="42.12" y="-192.5" font-family="Helvetica,sans-Serif" font-size="10.00">StarWildcardMatchTest</text>
<text text-anchor="middle" x="93.12" y="-180.5" font-family="Helvetica,sans-Serif" font-size="10.00">::testTwoStarMatchAny</text>
</a>
</g>
</g>
<!-- Node1&#45;&gt;Node26 -->
<g id="edge48_Node000001_Node000026" class="edge">
<title>Node1&#45;&gt;Node26</title>
<g id="a_edge48_Node000001_Node000026"><a xlink:title=" ">
<path fill="none" stroke="#63b8ff" d="M263.28,-882.73C264.21,-780.53 263.61,-340.45 186.25,-233 177.79,-221.25 165.3,-212.62 152.23,-206.31"/>
<polygon fill="#63b8ff" stroke="#63b8ff" points="259.78,-882.39 263.17,-892.42 266.78,-882.46 259.78,-882.39"/>
</a>
</g>
</g>
<!-- Node27 -->
<g id="Node000027" class="node">
<title>Node27</title>
<g id="a_Node000027"><a xlink:href="class_star_wildcard_match_test.html#a9f5b82fcf9cb04a95a87db69f87d60ec" target="_top" xlink:title=" ">
<polygon fill="white" stroke="#666666" points="153.62,-138 32.62,-138 32.62,-106 153.62,-106 153.62,-138"/>
<text text-anchor="start" x="40.62" y="-124.5" font-family="Helvetica,sans-Serif" font-size="10.00">StarWildcardMatchTest</text>
<text text-anchor="middle" x="93.12" y="-112.5" font-family="Helvetica,sans-Serif" font-size="10.00">::testTwoStarMatchChar</text>
</a>
</g>
</g>
<!-- Node1&#45;&gt;Node27 -->
<g id="edge50_Node000001_Node000027" class="edge">
<title>Node1&#45;&gt;Node27</title>
<g id="a_edge50_Node000001_Node000027"><a xlink:title=" ">
<path fill="none" stroke="#63b8ff" d="M262.01,-882.24C256.57,-766.4 228.98,-225.01 186.25,-165 177.96,-153.35 165.69,-144.77 152.79,-138.48"/>
<polygon fill="#63b8ff" stroke="#63b8ff" points="258.51,-882.35 262.47,-892.18 265.5,-882.03 258.51,-882.35"/>
</a>
</g>
</g>
<!-- Node28 -->
<g id="Node000028" class="node">
<title>Node28</title>
<g id="a_Node000028"><a xlink:href="class_star_wildcard_match_test.html#a97faccbac8772fcd06724770d82b0768" target="_top" xlink:title=" ">
<polygon fill="white" stroke="#666666" points="157.75,-70 28.5,-70 28.5,-38 157.75,-38 157.75,-70"/>
<text text-anchor="start" x="36.5" y="-56.5" font-family="Helvetica,sans-Serif" font-size="10.00">StarWildcardMatchTest</text>
<text text-anchor="middle" x="93.12" y="-44.5" font-family="Helvetica,sans-Serif" font-size="10.00">::testTwoStarMatchEmpty</text>
</a>
</g>
</g>
<!-- Node1&#45;&gt;Node28 -->
<g id="edge52_Node000001_Node000028" class="edge">
<title>Node1&#45;&gt;Node28</title>
<g id="a_edge52_Node000001_Node000028"><a xlink:title=" ">
<path fill="none" stroke="#63b8ff" d="M262.21,-882.18C257.6,-759.92 232.83,-163.02 186.25,-97 178.01,-85.32 165.76,-76.72 152.86,-70.43"/>
<polygon fill="#63b8ff" stroke="#63b8ff" points="258.71,-882.23 262.57,-892.09 265.7,-881.97 258.71,-882.23"/>
</a>
</g>
</g>
<!-- Node29 -->
<g id="Node000029" class="node">
<title>Node29</title>
<g id="a_Node000029"><a xlink:href="wildcard__match_8c.html#ad0cd27b3eefad6864aee0a652cba6649" target="_top" xlink:title=" ">
<polygon fill="white" stroke="#666666" points="158.5,-20 27.75,-20 27.75,0 158.5,0 158.5,-20"/>
<text text-anchor="middle" x="93.12" y="-6.5" font-family="Helvetica,sans-Serif" font-size="10.00">wildcard_match_optimised</text>
</a>
</g>
</g>
<!-- Node1&#45;&gt;Node29 -->
<g id="edge55_Node000001_Node000029" class="edge">
<title>Node1&#45;&gt;Node29</title>
<g id="a_edge55_Node000001_Node000029"><a xlink:title=" ">
<path fill="none" stroke="#63b8ff" d="M262.62,-882.18C260.16,-753.28 244.77,-94.72 186.25,-29 178.97,-20.83 169.2,-15.63 158.73,-12.41"/>
<polygon fill="#63b8ff" stroke="#63b8ff" points="259.11,-882.1 262.8,-892.03 266.11,-881.97 259.11,-882.1"/>
</a>
</g>
</g>
<!-- Node3&#45;&gt;Node3 -->
<g id="edge3_Node000003_Node000003" class="edge">
<title>Node3&#45;&gt;Node3</title>
<g id="a_edge3_Node000003_Node000003"><a xlink:title=" ">
<path fill="none" stroke="#63b8ff" d="M121.6,-1781.71C116.85,-1785.48 107.36,-1788 93.12,-1788 67.09,-1788 56.92,-1779.58 62.62,-1770.44"/>
<polygon fill="#63b8ff" stroke="#63b8ff" points="125.03,-1782.39 123.36,-1771.93 118.14,-1781.15 125.03,-1782.39"/>
</a>
</g>
</g>
<!-- Node4&#45;&gt;Node4 -->
<g id="edge5_Node000004_Node000004" class="edge">
<title>Node4&#45;&gt;Node4</title>
<g id="a_edge5_Node000004_Node000004"><a xlink:title=" ">
<path fill="none" stroke="#63b8ff" d="M121.6,-1713.71C116.85,-1717.48 107.36,-1720 93.12,-1720 67.09,-1720 56.92,-1711.58 62.62,-1702.44"/>
<polygon fill="#63b8ff" stroke="#63b8ff" points="125.03,-1714.39 123.36,-1703.93 118.14,-1713.15 125.03,-1714.39"/>
</a>
</g>
</g>
<!-- Node5&#45;&gt;Node5 -->
<g id="edge7_Node000005_Node000005" class="edge">
<title>Node5&#45;&gt;Node5</title>
<g id="a_edge7_Node000005_Node000005"><a xlink:title=" ">
<path fill="none" stroke="#63b8ff" d="M121.6,-1645.71C116.85,-1649.48 107.36,-1652 93.12,-1652 67.09,-1652 56.92,-1643.58 62.62,-1634.44"/>
<polygon fill="#63b8ff" stroke="#63b8ff" points="125.03,-1646.39 123.36,-1635.93 118.14,-1645.15 125.03,-1646.39"/>
</a>
</g>
</g>
<!-- Node6&#45;&gt;Node6 -->
<g id="edge9_Node000006_Node000006" class="edge">
<title>Node6&#45;&gt;Node6</title>
<g id="a_edge9_Node000006_Node000006"><a xlink:title=" ">
<path fill="none" stroke="#63b8ff" d="M121.6,-1577.71C116.85,-1581.48 107.36,-1584 93.12,-1584 67.09,-1584 56.92,-1575.58 62.62,-1566.44"/>
<polygon fill="#63b8ff" stroke="#63b8ff" points="125.03,-1578.39 123.36,-1567.93 118.14,-1577.15 125.03,-1578.39"/>
</a>
</g>
</g>
<!-- Node7&#45;&gt;Node7 -->
<g id="edge11_Node000007_Node000007" class="edge">
<title>Node7&#45;&gt;Node7</title>
<g id="a_edge11_Node000007_Node000007"><a xlink:title=" ">
<path fill="none" stroke="#63b8ff" d="M121.6,-1509.71C116.85,-1513.48 107.36,-1516 93.12,-1516 67.09,-1516 56.92,-1507.58 62.62,-1498.44"/>
<polygon fill="#63b8ff" stroke="#63b8ff" points="125.03,-1510.39 123.36,-1499.93 118.14,-1509.15 125.03,-1510.39"/>
</a>
</g>
</g>
<!-- Node8&#45;&gt;Node8 -->
<g id="edge13_Node000008_Node000008" class="edge">
<title>Node8&#45;&gt;Node8</title>
<g id="a_edge13_Node000008_Node000008"><a xlink:title=" ">
<path fill="none" stroke="#63b8ff" d="M121.6,-1441.71C116.85,-1445.48 107.36,-1448 93.12,-1448 67.09,-1448 56.92,-1439.58 62.62,-1430.44"/>
<polygon fill="#63b8ff" stroke="#63b8ff" points="125.03,-1442.39 123.36,-1431.93 118.14,-1441.15 125.03,-1442.39"/>
</a>
</g>
</g>
<!-- Node9&#45;&gt;Node9 -->
<g id="edge15_Node000009_Node000009" class="edge">
<title>Node9&#45;&gt;Node9</title>
<g id="a_edge15_Node000009_Node000009"><a xlink:title=" ">
<path fill="none" stroke="#63b8ff" d="M121.6,-1373.71C116.85,-1377.48 107.36,-1380 93.12,-1380 67.09,-1380 56.92,-1371.58 62.62,-1362.44"/>
<polygon fill="#63b8ff" stroke="#63b8ff" points="125.03,-1374.39 123.36,-1363.93 118.14,-1373.15 125.03,-1374.39"/>
</a>
</g>
</g>
<!-- Node10&#45;&gt;Node10 -->
<g id="edge17_Node000010_Node000010" class="edge">
<title>Node10&#45;&gt;Node10</title>
<g id="a_edge17_Node000010_Node000010"><a xlink:title=" ">
<path fill="none" stroke="#63b8ff" d="M121.6,-1305.71C116.85,-1309.48 107.36,-1312 93.12,-1312 67.09,-1312 56.92,-1303.58 62.62,-1294.44"/>
<polygon fill="#63b8ff" stroke="#63b8ff" points="125.03,-1306.39 123.36,-1295.93 118.14,-1305.15 125.03,-1306.39"/>
</a>
</g>
</g>
<!-- Node11&#45;&gt;Node11 -->
<g id="edge19_Node000011_Node000011" class="edge">
<title>Node11&#45;&gt;Node11</title>
<g id="a_edge19_Node000011_Node000011"><a xlink:title=" ">
<path fill="none" stroke="#63b8ff" d="M121.6,-1237.71C116.85,-1241.48 107.36,-1244 93.12,-1244 67.09,-1244 56.92,-1235.58 62.62,-1226.44"/>
<polygon fill="#63b8ff" stroke="#63b8ff" points="125.03,-1238.39 123.36,-1227.93 118.14,-1237.15 125.03,-1238.39"/>
</a>
</g>
</g>
<!-- Node12&#45;&gt;Node12 -->
<g id="edge21_Node000012_Node000012" class="edge">
<title>Node12&#45;&gt;Node12</title>
<g id="a_edge21_Node000012_Node000012"><a xlink:title=" ">
<path fill="none" stroke="#63b8ff" d="M121.6,-1169.71C116.85,-1173.48 107.36,-1176 93.12,-1176 67.09,-1176 56.92,-1167.58 62.62,-1158.44"/>
<polygon fill="#63b8ff" stroke="#63b8ff" points="125.03,-1170.39 123.36,-1159.93 118.14,-1169.15 125.03,-1170.39"/>
</a>
</g>
</g>
<!-- Node13&#45;&gt;Node13 -->
<g id="edge23_Node000013_Node000013" class="edge">
<title>Node13&#45;&gt;Node13</title>
<g id="a_edge23_Node000013_Node000013"><a xlink:title=" ">
<path fill="none" stroke="#63b8ff" d="M121.6,-1101.71C116.85,-1105.48 107.36,-1108 93.12,-1108 67.09,-1108 56.92,-1099.58 62.62,-1090.44"/>
<polygon fill="#63b8ff" stroke="#63b8ff" points="125.03,-1102.39 123.36,-1091.93 118.14,-1101.15 125.03,-1102.39"/>
</a>
</g>
</g>
<!-- Node14&#45;&gt;Node14 -->
<g id="edge25_Node000014_Node000014" class="edge">
<title>Node14&#45;&gt;Node14</title>
<g id="a_edge25_Node000014_Node000014"><a xlink:title=" ">
<path fill="none" stroke="#63b8ff" d="M121.6,-1033.71C116.85,-1037.48 107.36,-1040 93.12,-1040 67.09,-1040 56.92,-1031.58 62.62,-1022.44"/>
<polygon fill="#63b8ff" stroke="#63b8ff" points="125.03,-1034.39 123.36,-1023.93 118.14,-1033.15 125.03,-1034.39"/>
</a>
</g>
</g>
<!-- Node15&#45;&gt;Node15 -->
<g id="edge27_Node000015_Node000015" class="edge">
<title>Node15&#45;&gt;Node15</title>
<g id="a_edge27_Node000015_Node000015"><a xlink:title=" ">
<path fill="none" stroke="#63b8ff" d="M121.6,-965.71C116.85,-969.48 107.36,-972 93.12,-972 67.09,-972 56.92,-963.58 62.62,-954.44"/>
<polygon fill="#63b8ff" stroke="#63b8ff" points="125.03,-966.39 123.36,-955.93 118.14,-965.15 125.03,-966.39"/>
</a>
</g>
</g>
<!-- Node16&#45;&gt;Node16 -->
<g id="edge29_Node000016_Node000016" class="edge">
<title>Node16&#45;&gt;Node16</title>
<g id="a_edge29_Node000016_Node000016"><a xlink:title=" ">
<path fill="none" stroke="#63b8ff" d="M121.6,-897.71C116.85,-901.48 107.36,-904 93.12,-904 67.09,-904 56.92,-895.58 62.62,-886.44"/>
<polygon fill="#63b8ff" stroke="#63b8ff" points="125.03,-898.39 123.36,-887.93 118.14,-897.15 125.03,-898.39"/>
</a>
</g>
</g>
<!-- Node17&#45;&gt;Node17 -->
<g id="edge31_Node000017_Node000017" class="edge">
<title>Node17&#45;&gt;Node17</title>
<g id="a_edge31_Node000017_Node000017"><a xlink:title=" ">
<path fill="none" stroke="#63b8ff" d="M121.6,-829.71C116.85,-833.48 107.36,-836 93.12,-836 67.09,-836 56.92,-827.58 62.62,-818.44"/>
<polygon fill="#63b8ff" stroke="#63b8ff" points="125.03,-830.39 123.36,-819.93 118.14,-829.15 125.03,-830.39"/>
</a>
</g>
</g>
<!-- Node18&#45;&gt;Node18 -->
<g id="edge33_Node000018_Node000018" class="edge">
<title>Node18&#45;&gt;Node18</title>
<g id="a_edge33_Node000018_Node000018"><a xlink:title=" ">
<path fill="none" stroke="#63b8ff" d="M121.6,-761.71C116.85,-765.48 107.36,-768 93.12,-768 67.09,-768 56.92,-759.58 62.62,-750.44"/>
<polygon fill="#63b8ff" stroke="#63b8ff" points="125.03,-762.39 123.36,-751.93 118.14,-761.15 125.03,-762.39"/>
</a>
</g>
</g>
<!-- Node19&#45;&gt;Node19 -->
<g id="edge35_Node000019_Node000019" class="edge">
<title>Node19&#45;&gt;Node19</title>
<g id="a_edge35_Node000019_Node000019"><a xlink:title=" ">
<path fill="none" stroke="#63b8ff" d="M121.6,-693.71C116.85,-697.48 107.36,-700 93.12,-700 67.09,-700 56.92,-691.58 62.62,-682.44"/>
<polygon fill="#63b8ff" stroke="#63b8ff" points="125.03,-694.39 123.36,-683.93 118.14,-693.15 125.03,-694.39"/>
</a>
</g>
</g>
<!-- Node20&#45;&gt;Node20 -->
<g id="edge37_Node000020_Node000020" class="edge">
<title>Node20&#45;&gt;Node20</title>
<g id="a_edge37_Node000020_Node000020"><a xlink:title=" ">
<path fill="none" stroke="#63b8ff" d="M121.6,-625.71C116.85,-629.48 107.36,-632 93.12,-632 67.09,-632 56.92,-623.58 62.62,-614.44"/>
<polygon fill="#63b8ff" stroke="#63b8ff" points="125.03,-626.39 123.36,-615.93 118.14,-625.15 125.03,-626.39"/>
</a>
</g>
</g>
<!-- Node21&#45;&gt;Node21 -->
<g id="edge39_Node000021_Node000021" class="edge">
<title>Node21&#45;&gt;Node21</title>
<g id="a_edge39_Node000021_Node000021"><a xlink:title=" ">
<path fill="none" stroke="#63b8ff" d="M121.6,-557.71C116.85,-561.48 107.36,-564 93.12,-564 67.09,-564 56.92,-555.58 62.62,-546.44"/>
<polygon fill="#63b8ff" stroke="#63b8ff" points="125.03,-558.39 123.36,-547.93 118.14,-557.15 125.03,-558.39"/>
</a>
</g>
</g>
<!-- Node22&#45;&gt;Node22 -->
<g id="edge41_Node000022_Node000022" class="edge">
<title>Node22&#45;&gt;Node22</title>
<g id="a_edge41_Node000022_Node000022"><a xlink:title=" ">
<path fill="none" stroke="#63b8ff" d="M121.6,-489.71C116.85,-493.48 107.36,-496 93.12,-496 67.09,-496 56.92,-487.58 62.62,-478.44"/>
<polygon fill="#63b8ff" stroke="#63b8ff" points="125.03,-490.39 123.36,-479.93 118.14,-489.15 125.03,-490.39"/>
</a>
</g>
</g>
<!-- Node23&#45;&gt;Node23 -->
<g id="edge43_Node000023_Node000023" class="edge">
<title>Node23&#45;&gt;Node23</title>
<g id="a_edge43_Node000023_Node000023"><a xlink:title=" ">
<path fill="none" stroke="#63b8ff" d="M121.6,-421.71C116.85,-425.48 107.36,-428 93.12,-428 67.09,-428 56.92,-419.58 62.62,-410.44"/>
<polygon fill="#63b8ff" stroke="#63b8ff" points="125.03,-422.39 123.36,-411.93 118.14,-421.15 125.03,-422.39"/>
</a>
</g>
</g>
<!-- Node24&#45;&gt;Node24 -->
<g id="edge45_Node000024_Node000024" class="edge">
<title>Node24&#45;&gt;Node24</title>
<g id="a_edge45_Node000024_Node000024"><a xlink:title=" ">
<path fill="none" stroke="#63b8ff" d="M121.6,-353.71C116.85,-357.48 107.36,-360 93.12,-360 67.09,-360 56.92,-351.58 62.62,-342.44"/>
<polygon fill="#63b8ff" stroke="#63b8ff" points="125.03,-354.39 123.36,-343.93 118.14,-353.15 125.03,-354.39"/>
</a>
</g>
</g>
<!-- Node25&#45;&gt;Node25 -->
<g id="edge47_Node000025_Node000025" class="edge">
<title>Node25&#45;&gt;Node25</title>
<g id="a_edge47_Node000025_Node000025"><a xlink:title=" ">
<path fill="none" stroke="#63b8ff" d="M121.6,-285.71C116.85,-289.48 107.36,-292 93.12,-292 67.09,-292 56.92,-283.58 62.62,-274.44"/>
<polygon fill="#63b8ff" stroke="#63b8ff" points="125.03,-286.39 123.36,-275.93 118.14,-285.15 125.03,-286.39"/>
</a>
</g>
</g>
<!-- Node26&#45;&gt;Node26 -->
<g id="edge49_Node000026_Node000026" class="edge">
<title>Node26&#45;&gt;Node26</title>
<g id="a_edge49_Node000026_Node000026"><a xlink:title=" ">
<path fill="none" stroke="#63b8ff" d="M121.6,-217.71C116.85,-221.48 107.36,-224 93.12,-224 67.09,-224 56.92,-215.58 62.62,-206.44"/>
<polygon fill="#63b8ff" stroke="#63b8ff" points="125.03,-218.39 123.36,-207.93 118.14,-217.15 125.03,-218.39"/>
</a>
</g>
</g>
<!-- Node27&#45;&gt;Node27 -->
<g id="edge51_Node000027_Node000027" class="edge">
<title>Node27&#45;&gt;Node27</title>
<g id="a_edge51_Node000027_Node000027"><a xlink:title=" ">
<path fill="none" stroke="#63b8ff" d="M121.6,-149.71C116.85,-153.48 107.36,-156 93.12,-156 67.09,-156 56.92,-147.58 62.62,-138.44"/>
<polygon fill="#63b8ff" stroke="#63b8ff" points="125.03,-150.39 123.36,-139.93 118.14,-149.15 125.03,-150.39"/>
</a>
</g>
</g>
<!-- Node28&#45;&gt;Node28 -->
<g id="edge53_Node000028_Node000028" class="edge">
<title>Node28&#45;&gt;Node28</title>
<g id="a_edge53_Node000028_Node000028"><a xlink:title=" ">
<path fill="none" stroke="#63b8ff" d="M121.6,-81.71C116.85,-85.48 107.36,-88 93.12,-88 67.09,-88 56.92,-79.58 62.62,-70.44"/>
<polygon fill="#63b8ff" stroke="#63b8ff" points="125.03,-82.39 123.36,-71.93 118.14,-81.15 125.03,-82.39"/>
</a>
</g>
</g>
</g>
</svg>
