<?xml version="1.0" encoding="UTF-8" standalone="no"?>
<!DOCTYPE svg PUBLIC "-//W3C//DTD SVG 1.1//EN"
 "http://www.w3.org/Graphics/SVG/1.1/DTD/svg11.dtd">
<!-- Generated by graphviz version 11.0.0 (20240428.1522)
 -->
<!-- Title: wildcard_match.h Pages: 1 -->
<svg width="298pt" height="84pt"
 viewBox="0.00 0.00 297.50 84.00" xmlns="http://www.w3.org/2000/svg" xmlns:xlink="http://www.w3.org/1999/xlink">
<g id="graph0" class="graph" transform="scale(1 1) rotate(0) translate(4 80)">
<title>wildcard_match.h</title>
<!-- Node1 -->
<g id="Node000001" class="node">
<title>Node1</title>
<g id="a_Node000001"><a xlink:title="Deklarace funkce wildcard_match() realizující test na shodu řetězců z nichž jeden obsahuje žolíkové z...">
<polygon fill="#999999" stroke="#666666" points="155.5,-76 63.75,-76 63.75,-56 155.5,-56 155.5,-76"/>
<text text-anchor="middle" x="109.62" y="-62.5" font-family="Helvetica,sans-Serif" font-size="10.00">wildcard_match.h</text>
</a>
</g>
</g>
<!-- Node2 -->
<g id="Node000002" class="node">
<title>Node2</title>
<g id="a_Node000002"><a xlink:href="main_8c.html" target="_top" xlink:title="Hlavní program (testbench) pro manuální testování správnosti implementace funkce wildcard_match().">
<polygon fill="white" stroke="#666666" points="45.25,-20 0,-20 0,0 45.25,0 45.25,-20"/>
<text text-anchor="middle" x="22.62" y="-6.5" font-family="Helvetica,sans-Serif" font-size="10.00">main.c</text>
</a>
</g>
</g>
<!-- Node1&#45;&gt;Node2 -->
<g id="edge1_Node000001_Node000002" class="edge">
<title>Node1&#45;&gt;Node2</title>
<g id="a_edge1_Node000001_Node000002"><a xlink:title=" ">
<path fill="none" stroke="#63b8ff" d="M84.72,-49.54C69.62,-40.17 50.83,-28.51 37.9,-20.48"/>
<polygon fill="#63b8ff" stroke="#63b8ff" points="82.84,-52.5 93.18,-54.8 86.53,-46.55 82.84,-52.5"/>
</a>
</g>
</g>
<!-- Node3 -->
<g id="Node000003" class="node">
<title>Node3</title>
<g id="a_Node000003"><a xlink:href="wildcard__match_8c.html" target="_top" xlink:title="Definice funkce wildcard_match() realizující test na shodu řetězců z nichž jeden obsahuje žolíkové zn...">
<polygon fill="white" stroke="#666666" points="155.5,-20 63.75,-20 63.75,0 155.5,0 155.5,-20"/>
<text text-anchor="middle" x="109.62" y="-6.5" font-family="Helvetica,sans-Serif" font-size="10.00">wildcard_match.c</text>
</a>
</g>
</g>
<!-- Node1&#45;&gt;Node3 -->
<g id="edge2_Node000001_Node000003" class="edge">
<title>Node1&#45;&gt;Node3</title>
<g id="a_edge2_Node000001_Node000003"><a xlink:title=" ">
<path fill="none" stroke="#63b8ff" d="M109.62,-44.13C109.62,-35.9 109.62,-26.85 109.62,-20.3"/>
<polygon fill="#63b8ff" stroke="#63b8ff" points="106.13,-44.08 109.63,-54.08 113.13,-44.08 106.13,-44.08"/>
</a>
</g>
</g>
<!-- Node4 -->
<g id="Node000004" class="node">
<title>Node4</title>
<g id="a_Node000004"><a xlink:href="wildcard__match__ut_8cpp.html" target="_top" xlink:title="Definice metod pro automatizované testování správnosti implementace funkce wildcard_match() v prostře...">
<polygon fill="white" stroke="#666666" points="289.5,-20 173.75,-20 173.75,0 289.5,0 289.5,-20"/>
<text text-anchor="middle" x="231.62" y="-6.5" font-family="Helvetica,sans-Serif" font-size="10.00">wildcard_match_ut.cpp</text>
</a>
</g>
</g>
<!-- Node1&#45;&gt;Node4 -->
<g id="edge3_Node000001_Node000004" class="edge">
<title>Node1&#45;&gt;Node4</title>
<g id="a_edge3_Node000001_Node000004"><a xlink:title=" ">
<path fill="none" stroke="#63b8ff" d="M141.23,-51.01C162.92,-41.41 191.12,-28.93 210.21,-20.48"/>
<polygon fill="#63b8ff" stroke="#63b8ff" points="139.99,-47.73 132.26,-54.98 142.82,-54.13 139.99,-47.73"/>
</a>
</g>
</g>
</g>
</svg>
