<?xml version="1.0" encoding="UTF-8" standalone="no"?>
<!DOCTYPE svg PUBLIC "-//W3C//DTD SVG 1.1//EN"
 "http://www.w3.org/Graphics/SVG/1.1/DTD/svg11.dtd">
<!-- Generated by graphviz version 11.0.0 (20240428.1522)
 -->
<!-- Title: wildcard_match_ut.cpp Pages: 1 -->
<svg width="188pt" height="140pt"
 viewBox="0.00 0.00 187.88 140.00" xmlns="http://www.w3.org/2000/svg" xmlns:xlink="http://www.w3.org/1999/xlink">
<g id="graph0" class="graph" transform="scale(1 1) rotate(0) translate(4 136)">
<title>wildcard_match_ut.cpp</title>
<!-- Node1 -->
<g id="Node000001" class="node">
<title>Node1</title>
<g id="a_Node000001"><a xlink:title="Definice metod pro automatizované testování správnosti implementace funkce wildcard_match() v prostře...">
<polygon fill="#999999" stroke="#666666" points="141.88,-132 26.12,-132 26.12,-112 141.88,-112 141.88,-132"/>
<text text-anchor="middle" x="84" y="-118.5" font-family="Helvetica,sans-Serif" font-size="10.00">wildcard_match_ut.cpp</text>
</a>
</g>
</g>
<!-- Node2 -->
<g id="Node000002" class="node">
<title>Node2</title>
<g id="a_Node000002"><a xlink:title=" ">
<polygon fill="#e0e0e0" stroke="#999999" points="70,-76 0,-76 0,-56 70,-56 70,-76"/>
<text text-anchor="middle" x="35" y="-62.5" font-family="Helvetica,sans-Serif" font-size="10.00">ut_adapter.h</text>
</a>
</g>
</g>
<!-- Node1&#45;&gt;Node2 -->
<g id="edge1_Node000001_Node000002" class="edge">
<title>Node1&#45;&gt;Node2</title>
<g id="a_edge1_Node000001_Node000002"><a xlink:title=" ">
<path fill="none" stroke="#63b8ff" d="M75.46,-111.59C68.72,-104.16 59.11,-93.58 50.96,-84.58"/>
<polygon fill="#63b8ff" stroke="#63b8ff" points="53.77,-82.47 44.45,-77.42 48.58,-87.18 53.77,-82.47"/>
</a>
</g>
</g>
<!-- Node3 -->
<g id="Node000003" class="node">
<title>Node3</title>
<g id="a_Node000003"><a xlink:href="wildcard__match_8h.html" target="_top" xlink:title="Deklarace funkce wildcard_match() realizující test na shodu řetězců z nichž jeden obsahuje žolíkové z...">
<polygon fill="white" stroke="#666666" points="179.88,-76 88.12,-76 88.12,-56 179.88,-56 179.88,-76"/>
<text text-anchor="middle" x="134" y="-62.5" font-family="Helvetica,sans-Serif" font-size="10.00">wildcard_match.h</text>
</a>
</g>
</g>
<!-- Node1&#45;&gt;Node3 -->
<g id="edge2_Node000001_Node000003" class="edge">
<title>Node1&#45;&gt;Node3</title>
<g id="a_edge2_Node000001_Node000003"><a xlink:title=" ">
<path fill="none" stroke="#63b8ff" d="M92.71,-111.59C99.59,-104.16 109.39,-93.58 117.72,-84.58"/>
<polygon fill="#63b8ff" stroke="#63b8ff" points="120.14,-87.12 124.36,-77.41 115,-82.37 120.14,-87.12"/>
</a>
</g>
</g>
<!-- Node4 -->
<g id="Node000004" class="node">
<title>Node4</title>
<g id="a_Node000004"><a xlink:title=" ">
<polygon fill="#e0e0e0" stroke="#999999" points="161.88,-20 106.12,-20 106.12,0 161.88,0 161.88,-20"/>
<text text-anchor="middle" x="134" y="-6.5" font-family="Helvetica,sans-Serif" font-size="10.00">stdbool.h</text>
</a>
</g>
</g>
<!-- Node3&#45;&gt;Node4 -->
<g id="edge3_Node000003_Node000004" class="edge">
<title>Node3&#45;&gt;Node4</title>
<g id="a_edge3_Node000003_Node000004"><a xlink:title=" ">
<path fill="none" stroke="#63b8ff" d="M134,-55.59C134,-49.01 134,-39.96 134,-31.73"/>
<polygon fill="#63b8ff" stroke="#63b8ff" points="137.5,-31.81 134,-21.81 130.5,-31.81 137.5,-31.81"/>
</a>
</g>
</g>
</g>
</svg>
