<?xml version="1.0" encoding="UTF-8" standalone="no"?>
<!DOCTYPE svg PUBLIC "-//W3C//DTD SVG 1.1//EN"
 "http://www.w3.org/Graphics/SVG/1.1/DTD/svg11.dtd">
<!-- Generated by graphviz version 11.0.0 (20240428.1522)
 -->
<!-- Title: wildcard_match_optimised Pages: 1 -->
<svg width="258pt" height="46pt"
 viewBox="0.00 0.00 258.25 46.00" xmlns="http://www.w3.org/2000/svg" xmlns:xlink="http://www.w3.org/1999/xlink">
<g id="graph0" class="graph" transform="scale(1 1) rotate(0) translate(4 42)">
<title>wildcard_match_optimised</title>
<!-- Node1 -->
<g id="Node000001" class="node">
<title>Node1</title>
<g id="a_Node000001"><a xlink:title=" ">
<polygon fill="#999999" stroke="#666666" points="130.75,-20 0,-20 0,0 130.75,0 130.75,-20"/>
<text text-anchor="middle" x="65.38" y="-6.5" font-family="Helvetica,sans-Serif" font-size="10.00">wildcard_match_optimised</text>
</a>
</g>
</g>
<!-- Node2 -->
<g id="Node000002" class="node">
<title>Node2</title>
<g id="a_Node000002"><a xlink:href="group___wildcard__matching.html#gad9e22c13e3865398e2e951469482b622" target="_top" xlink:title="Implementace funkce pro ověření shody řetězců z nichž jeden obsahuje žolíkové znaky.">
<polygon fill="white" stroke="#666666" points="250.25,-20 166.75,-20 166.75,0 250.25,0 250.25,-20"/>
<text text-anchor="middle" x="208.5" y="-6.5" font-family="Helvetica,sans-Serif" font-size="10.00">wildcard_match</text>
</a>
</g>
</g>
<!-- Node1&#45;&gt;Node2 -->
<g id="edge1_Node000001_Node000002" class="edge">
<title>Node1&#45;&gt;Node2</title>
<g id="a_edge1_Node000001_Node000002"><a xlink:title=" ">
<path fill="none" stroke="#63b8ff" d="M131.15,-10C139.14,-10 147.23,-10 155,-10"/>
<polygon fill="#63b8ff" stroke="#63b8ff" points="154.99,-13.5 164.99,-10 154.99,-6.5 154.99,-13.5"/>
</a>
</g>
</g>
<!-- Node2&#45;&gt;Node2 -->
<g id="edge2_Node000002_Node000002" class="edge">
<title>Node2&#45;&gt;Node2</title>
<g id="a_edge2_Node000002_Node000002"><a xlink:title=" ">
<path fill="none" stroke="#63b8ff" d="M185.76,-20.34C176.04,-28.98 183.62,-38 208.5,-38 222.11,-38 230.54,-35.3 233.8,-31.44"/>
<polygon fill="#63b8ff" stroke="#63b8ff" points="237.23,-30.77 231.58,-21.81 230.41,-32.34 237.23,-30.77"/>
</a>
</g>
</g>
</g>
</svg>
