<?xml version="1.0" encoding="UTF-8" standalone="no"?>
<!DOCTYPE svg PUBLIC "-//W3C//DTD SVG 1.1//EN"
 "http://www.w3.org/Graphics/SVG/1.1/DTD/svg11.dtd">
<!-- Generated by graphviz version 11.0.0 (20240428.1522)
 -->
<!-- Title: wildcard_match.c Pages: 1 -->
<svg width="164pt" height="140pt"
 viewBox="0.00 0.00 163.50 140.00" xmlns="http://www.w3.org/2000/svg" xmlns:xlink="http://www.w3.org/1999/xlink">
<g id="graph0" class="graph" transform="scale(1 1) rotate(0) translate(4 136)">
<title>wildcard_match.c</title>
<!-- Node1 -->
<g id="Node000001" class="node">
<title>Node1</title>
<g id="a_Node000001"><a xlink:title="Definice funkce wildcard_match() realizující test na shodu řetězců z nichž jeden obsahuje žolíkové zn...">
<polygon fill="#999999" stroke="#666666" points="134.75,-132 43,-132 43,-112 134.75,-112 134.75,-132"/>
<text text-anchor="middle" x="88.88" y="-118.5" font-family="Helvetica,sans-Serif" font-size="10.00">wildcard_match.c</text>
</a>
</g>
</g>
<!-- Node2 -->
<g id="Node000002" class="node">
<title>Node2</title>
<g id="a_Node000002"><a xlink:href="wildcard__match_8h.html" target="_top" xlink:title="Deklarace funkce wildcard_match() realizující test na shodu řetězců z nichž jeden obsahuje žolíkové z...">
<polygon fill="white" stroke="#666666" points="91.75,-76 0,-76 0,-56 91.75,-56 91.75,-76"/>
<text text-anchor="middle" x="45.88" y="-62.5" font-family="Helvetica,sans-Serif" font-size="10.00">wildcard_match.h</text>
</a>
</g>
</g>
<!-- Node1&#45;&gt;Node2 -->
<g id="edge1_Node000001_Node000002" class="edge">
<title>Node1&#45;&gt;Node2</title>
<g id="a_edge1_Node000001_Node000002"><a xlink:title=" ">
<path fill="none" stroke="#63b8ff" d="M81.38,-111.59C75.59,-104.32 67.39,-94.02 60.33,-85.15"/>
<polygon fill="#63b8ff" stroke="#63b8ff" points="63.19,-83.12 54.22,-77.48 57.71,-87.49 63.19,-83.12"/>
</a>
</g>
</g>
<!-- Node4 -->
<g id="Node000004" class="node">
<title>Node4</title>
<g id="a_Node000004"><a xlink:title=" ">
<polygon fill="#e0e0e0" stroke="#999999" points="155.5,-76 110.25,-76 110.25,-56 155.5,-56 155.5,-76"/>
<text text-anchor="middle" x="132.88" y="-62.5" font-family="Helvetica,sans-Serif" font-size="10.00">stdio.h</text>
</a>
</g>
</g>
<!-- Node1&#45;&gt;Node4 -->
<g id="edge3_Node000001_Node000004" class="edge">
<title>Node1&#45;&gt;Node4</title>
<g id="a_edge3_Node000001_Node000004"><a xlink:title=" ">
<path fill="none" stroke="#63b8ff" d="M96.54,-111.59C102.47,-104.32 110.86,-94.02 118.09,-85.15"/>
<polygon fill="#63b8ff" stroke="#63b8ff" points="120.74,-87.43 124.34,-77.47 115.31,-83.01 120.74,-87.43"/>
</a>
</g>
</g>
<!-- Node3 -->
<g id="Node000003" class="node">
<title>Node3</title>
<g id="a_Node000003"><a xlink:title=" ">
<polygon fill="#e0e0e0" stroke="#999999" points="73.75,-20 18,-20 18,0 73.75,0 73.75,-20"/>
<text text-anchor="middle" x="45.88" y="-6.5" font-family="Helvetica,sans-Serif" font-size="10.00">stdbool.h</text>
</a>
</g>
</g>
<!-- Node2&#45;&gt;Node3 -->
<g id="edge2_Node000002_Node000003" class="edge">
<title>Node2&#45;&gt;Node3</title>
<g id="a_edge2_Node000002_Node000003"><a xlink:title=" ">
<path fill="none" stroke="#63b8ff" d="M45.88,-55.59C45.88,-49.01 45.88,-39.96 45.88,-31.73"/>
<polygon fill="#63b8ff" stroke="#63b8ff" points="49.38,-31.81 45.88,-21.81 42.38,-31.81 49.38,-31.81"/>
</a>
</g>
</g>
</g>
</svg>
