<?xml version="1.0" encoding="UTF-8" standalone="no"?>
<!DOCTYPE svg PUBLIC "-//W3C//DTD SVG 1.1//EN"
 "http://www.w3.org/Graphics/SVG/1.1/DTD/svg11.dtd">
<!-- Generated by graphviz version 11.0.0 (20240428.1522)
 -->
<!-- Title: vector_size Pages: 1 -->
<svg width="301pt" height="294pt"
 viewBox="0.00 0.00 300.50 294.00" xmlns="http://www.w3.org/2000/svg" xmlns:xlink="http://www.w3.org/1999/xlink">
<g id="graph0" class="graph" transform="scale(1 1) rotate(0) translate(4 290)">
<title>vector_size</title>
<!-- Node1 -->
<g id="Node000001" class="node">
<title>Node1</title>
<g id="a_Node000001"><a xlink:title="Přečtení počtu elementů vektoru.">
<polygon fill="#999999" stroke="#666666" points="292.5,-153 227.75,-153 227.75,-133 292.5,-133 292.5,-153"/>
<text text-anchor="middle" x="260.12" y="-139.5" font-family="Helvetica,sans-Serif" font-size="10.00">vector_size</text>
</a>
</g>
</g>
<!-- Node2 -->
<g id="Node000002" class="node">
<title>Node2</title>
<g id="a_Node000002"><a xlink:href="group___basic_sorts.html#gaa1ef093f5205f293df8303ac228452fc" target="_top" xlink:title="Třídění přímou výměnou (Bubble Sort).">
<polygon fill="white" stroke="#666666" points="165.5,-286 99.25,-286 99.25,-266 165.5,-266 165.5,-286"/>
<text text-anchor="middle" x="132.38" y="-272.5" font-family="Helvetica,sans-Serif" font-size="10.00">bubble_sort</text>
</a>
</g>
</g>
<!-- Node1&#45;&gt;Node2 -->
<g id="edge1_Node000001_Node000002" class="edge">
<title>Node1&#45;&gt;Node2</title>
<g id="a_edge1_Node000001_Node000002"><a xlink:title=" ">
<path fill="none" stroke="#63b8ff" d="M252.05,-163.87C242.36,-189.41 222.56,-232.29 191.75,-257 184.27,-263 174.83,-267.13 165.74,-269.96"/>
<polygon fill="#63b8ff" stroke="#63b8ff" points="255.29,-165.2 255.39,-154.61 248.71,-162.83 255.29,-165.2"/>
</a>
</g>
</g>
<!-- Node3 -->
<g id="Node000003" class="node">
<title>Node3</title>
<g id="a_Node000003"><a xlink:href="group___basic_sorts.html#ga62a36eb31bf0a873f7c027e145843b1a" target="_top" xlink:title="Třídění přímou výměnou včetně optimalizace s pomocným příznakem ukončení třídění (Bubble Sort Optimiz...">
<polygon fill="white" stroke="#666666" points="189.12,-248 75.62,-248 75.62,-228 189.12,-228 189.12,-248"/>
<text text-anchor="middle" x="132.38" y="-234.5" font-family="Helvetica,sans-Serif" font-size="10.00">bubble_sort_optimized</text>
</a>
</g>
</g>
<!-- Node1&#45;&gt;Node3 -->
<g id="edge2_Node000001_Node000003" class="edge">
<title>Node1&#45;&gt;Node3</title>
<g id="a_edge2_Node000001_Node000003"><a xlink:title=" ">
<path fill="none" stroke="#63b8ff" d="M246.33,-162.56C234.18,-179.7 214.43,-204.14 191.75,-219 186.58,-222.39 180.76,-225.22 174.84,-227.56"/>
<polygon fill="#63b8ff" stroke="#63b8ff" points="248.96,-164.91 251.72,-154.68 243.18,-160.96 248.96,-164.91"/>
</a>
</g>
</g>
<!-- Node4 -->
<g id="Node000004" class="node">
<title>Node4</title>
<g id="a_Node000004"><a xlink:href="group___basic_sorts.html#gaba41a68f00241f38f7864b4e1dacd086" target="_top" xlink:title="Třídění přímou výměnou včetně optimalizace s výpočtem indexu poslední změny (Bubble Sort Optimized2).">
<polygon fill="white" stroke="#666666" points="191.75,-210 73,-210 73,-190 191.75,-190 191.75,-210"/>
<text text-anchor="middle" x="132.38" y="-196.5" font-family="Helvetica,sans-Serif" font-size="10.00">bubble_sort_optimized2</text>
</a>
</g>
</g>
<!-- Node1&#45;&gt;Node4 -->
<g id="edge3_Node000001_Node000004" class="edge">
<title>Node1&#45;&gt;Node4</title>
<g id="a_edge3_Node000001_Node000004"><a xlink:title=" ">
<path fill="none" stroke="#63b8ff" d="M228.67,-158.44C217.18,-164.13 203.94,-170.52 191.75,-176 181.36,-180.68 169.77,-185.51 159.68,-189.61"/>
<polygon fill="#63b8ff" stroke="#63b8ff" points="229.91,-161.73 237.29,-154.14 226.78,-155.47 229.91,-161.73"/>
</a>
</g>
</g>
<!-- Node5 -->
<g id="Node000005" class="node">
<title>Node5</title>
<g id="a_Node000005"><a xlink:href="group___main_program.html#ga0ddf1224851353fc92bfbff6f499fa97" target="_top" xlink:title=" ">
<polygon fill="white" stroke="#666666" points="37,-153 0,-153 0,-133 37,-133 37,-153"/>
<text text-anchor="middle" x="18.5" y="-139.5" font-family="Helvetica,sans-Serif" font-size="10.00">main</text>
</a>
</g>
</g>
<!-- Node1&#45;&gt;Node5 -->
<g id="edge4_Node000001_Node000005" class="edge">
<title>Node1&#45;&gt;Node5</title>
<g id="a_edge4_Node000001_Node000005"><a xlink:title=" ">
<path fill="none" stroke="#63b8ff" d="M215.87,-143C162.68,-143 74.86,-143 37.37,-143"/>
<polygon fill="#63b8ff" stroke="#63b8ff" points="215.79,-146.5 225.79,-143 215.79,-139.5 215.79,-146.5"/>
</a>
</g>
</g>
<!-- Node6 -->
<g id="Node000006" class="node">
<title>Node6</title>
<g id="a_Node000006"><a xlink:href="group___advanced_sorts.html#gaa369b74c9050d30aa2416f9dba8cc8f5" target="_top" xlink:title="Rychlé třídění výměnou (Quick Sort) s volbou prostředního elementu jako pivota.">
<polygon fill="white" stroke="#666666" points="162.88,-134 101.88,-134 101.88,-114 162.88,-114 162.88,-134"/>
<text text-anchor="middle" x="132.38" y="-120.5" font-family="Helvetica,sans-Serif" font-size="10.00">quick_sort</text>
</a>
</g>
</g>
<!-- Node1&#45;&gt;Node6 -->
<g id="edge5_Node000001_Node000006" class="edge">
<title>Node1&#45;&gt;Node6</title>
<g id="a_edge5_Node000001_Node000006"><a xlink:title=" ">
<path fill="none" stroke="#63b8ff" d="M216.34,-136.54C198.92,-133.9 179.21,-130.92 163.37,-128.53"/>
<polygon fill="#63b8ff" stroke="#63b8ff" points="215.49,-139.95 225.9,-137.98 216.53,-133.02 215.49,-139.95"/>
</a>
</g>
</g>
<!-- Node7 -->
<g id="Node000007" class="node">
<title>Node7</title>
<g id="a_Node000007"><a xlink:href="group___basic_sorts.html#ga3688a58781905ac2e518285b8bb711ec" target="_top" xlink:title="Třídění přímým výběrem (Select Sort).">
<polygon fill="white" stroke="#666666" points="164.38,-96 100.38,-96 100.38,-76 164.38,-76 164.38,-96"/>
<text text-anchor="middle" x="132.38" y="-82.5" font-family="Helvetica,sans-Serif" font-size="10.00">select_sort</text>
</a>
</g>
</g>
<!-- Node1&#45;&gt;Node7 -->
<g id="edge7_Node000001_Node000007" class="edge">
<title>Node1&#45;&gt;Node7</title>
<g id="a_edge7_Node000001_Node000007"><a xlink:title=" ">
<path fill="none" stroke="#63b8ff" d="M233.14,-126.74C220.88,-119.49 205.87,-111.21 191.75,-105 183.16,-101.23 173.58,-97.8 164.71,-94.93"/>
<polygon fill="#63b8ff" stroke="#63b8ff" points="231.05,-129.57 241.42,-131.74 234.66,-123.57 231.05,-129.57"/>
</a>
</g>
</g>
<!-- Node8 -->
<g id="Node000008" class="node">
<title>Node8</title>
<g id="a_Node000008"><a xlink:href="group___basic_sorts.html#gaacee5d609500566a6ad1724486ab8bb2" target="_top" xlink:title="Třídění přímou výměnou se změnou postupu třídění (Shaker Sort).">
<polygon fill="white" stroke="#666666" points="165.88,-58 98.88,-58 98.88,-38 165.88,-38 165.88,-58"/>
<text text-anchor="middle" x="132.38" y="-44.5" font-family="Helvetica,sans-Serif" font-size="10.00">shaker_sort</text>
</a>
</g>
</g>
<!-- Node1&#45;&gt;Node8 -->
<g id="edge8_Node000001_Node000008" class="edge">
<title>Node1&#45;&gt;Node8</title>
<g id="a_edge8_Node000001_Node000008"><a xlink:title=" ">
<path fill="none" stroke="#63b8ff" d="M246.33,-123.44C234.18,-106.3 214.43,-81.86 191.75,-67 184.08,-61.98 174.98,-58.18 166.27,-55.36"/>
<polygon fill="#63b8ff" stroke="#63b8ff" points="243.18,-125.04 251.72,-131.32 248.96,-121.09 243.18,-125.04"/>
</a>
</g>
</g>
<!-- Node9 -->
<g id="Node000009" class="node">
<title>Node9</title>
<g id="a_Node000009"><a xlink:href="group___t_vector.html#ga744f02ddf3e1909e408b28b148b5076b" target="_top" xlink:title="Zjištění, zda je vektor prázdný">
<polygon fill="white" stroke="#666666" points="175.62,-20 89.12,-20 89.12,0 175.62,0 175.62,-20"/>
<text text-anchor="middle" x="132.38" y="-6.5" font-family="Helvetica,sans-Serif" font-size="10.00">vector_is_empty</text>
</a>
</g>
</g>
<!-- Node1&#45;&gt;Node9 -->
<g id="edge9_Node000001_Node000009" class="edge">
<title>Node1&#45;&gt;Node9</title>
<g id="a_edge9_Node000001_Node000009"><a xlink:title=" ">
<path fill="none" stroke="#63b8ff" d="M252.05,-122.13C242.36,-96.59 222.56,-53.71 191.75,-29 187.09,-25.27 181.68,-22.26 176.07,-19.83"/>
<polygon fill="#63b8ff" stroke="#63b8ff" points="248.71,-123.17 255.39,-131.39 255.29,-120.8 248.71,-123.17"/>
</a>
</g>
</g>
<!-- Node6&#45;&gt;Node5 -->
<g id="edge6_Node000006_Node000005" class="edge">
<title>Node6&#45;&gt;Node5</title>
<g id="a_edge6_Node000006_Node000005"><a xlink:title=" ">
<path fill="none" stroke="#63b8ff" d="M90.14,-131C71.94,-134.09 51.51,-137.56 37.32,-139.97"/>
<polygon fill="#63b8ff" stroke="#63b8ff" points="90.63,-134.47 99.9,-129.35 89.46,-127.57 90.63,-134.47"/>
</a>
</g>
</g>
</g>
</svg>
