<?xml version="1.0" encoding="UTF-8" standalone="no"?>
<!DOCTYPE svg PUBLIC "-//W3C//DTD SVG 1.1//EN"
 "http://www.w3.org/Graphics/SVG/1.1/DTD/svg11.dtd">
<!-- Generated by graphviz version 11.0.0 (20240428.1522)
 -->
<!-- Title: sort_testing Pages: 1 -->
<svg width="539pt" height="388pt"
 viewBox="0.00 0.00 538.50 388.00" xmlns="http://www.w3.org/2000/svg" xmlns:xlink="http://www.w3.org/1999/xlink">
<g id="graph0" class="graph" transform="scale(1 1) rotate(0) translate(4 384)">
<title>sort_testing</title>
<!-- Node1 -->
<g id="Node000001" class="node">
<title>Node1</title>
<g id="a_Node000001"><a xlink:title="Testování třídicí metody.">
<polygon fill="#999999" stroke="#666666" points="67,-216 0,-216 0,-196 67,-196 67,-216"/>
<text text-anchor="middle" x="33.5" y="-202.5" font-family="Helvetica,sans-Serif" font-size="10.00">sort_testing</text>
</a>
</g>
</g>
<!-- Node2 -->
<g id="Node000002" class="node">
<title>Node2</title>
<g id="a_Node000002"><a xlink:href="main__support_8h.html#aa291195ad453d2b1e29004cc2e043c01" target="_top" xlink:title="Výpočet doby trvání časového intervalu.">
<polygon fill="white" stroke="#666666" points="192.88,-380 125.12,-380 125.12,-360 192.88,-360 192.88,-380"/>
<text text-anchor="middle" x="159" y="-366.5" font-family="Helvetica,sans-Serif" font-size="10.00">difftimespec</text>
</a>
</g>
</g>
<!-- Node1&#45;&gt;Node2 -->
<g id="edge1_Node000001_Node000002" class="edge">
<title>Node1&#45;&gt;Node2</title>
<g id="a_edge1_Node000001_Node000002"><a xlink:title=" ">
<path fill="none" stroke="#63b8ff" d="M36.51,-216.43C42.14,-242.84 60.51,-312.89 103,-351 106.37,-354.02 110.25,-356.57 114.36,-358.72"/>
<polygon fill="#63b8ff" stroke="#63b8ff" points="112.9,-361.9 123.47,-362.66 115.68,-355.48 112.9,-361.9"/>
</a>
</g>
</g>
<!-- Node3 -->
<g id="Node000003" class="node">
<title>Node3</title>
<g id="a_Node000003"><a xlink:href="group___basic_sorts.html#ga25c7ac8991c266d71b75cf20c14b67cf" target="_top" xlink:title="Vytisknutí elementu vektoru pomocí iterátoru.">
<polygon fill="white" stroke="#666666" points="196.25,-342 121.75,-342 121.75,-322 196.25,-322 196.25,-342"/>
<text text-anchor="middle" x="159" y="-328.5" font-family="Helvetica,sans-Serif" font-size="10.00">print_element</text>
</a>
</g>
</g>
<!-- Node1&#45;&gt;Node3 -->
<g id="edge2_Node000001_Node000003" class="edge">
<title>Node1&#45;&gt;Node3</title>
<g id="a_edge2_Node000001_Node000003"><a xlink:title=" ">
<path fill="none" stroke="#63b8ff" d="M39.02,-216.38C48.27,-236.58 71.23,-281.49 103,-308 106.84,-311.2 111.17,-314.05 115.68,-316.56"/>
<polygon fill="#63b8ff" stroke="#63b8ff" points="113.82,-319.55 124.34,-320.85 116.93,-313.27 113.82,-319.55"/>
</a>
</g>
</g>
<!-- Node7 -->
<g id="Node000007" class="node">
<title>Node7</title>
<g id="a_Node000007"><a xlink:href="group___t_vector_iterator.html#ga3f8a97a63f887539e270f6845bf22b9a" target="_top" xlink:title="Zjištění platnosti iterátoru.">
<polygon fill="white" stroke="#666666" points="530.5,-196 441,-196 441,-164 530.5,-164 530.5,-196"/>
<text text-anchor="start" x="449" y="-182.5" font-family="Helvetica,sans-Serif" font-size="10.00">vector_iterator_is</text>
<text text-anchor="middle" x="485.75" y="-170.5" font-family="Helvetica,sans-Serif" font-size="10.00">_valid</text>
</a>
</g>
</g>
<!-- Node1&#45;&gt;Node7 -->
<g id="edge19_Node000001_Node000007" class="edge">
<title>Node1&#45;&gt;Node7</title>
<g id="a_edge19_Node000001_Node000007"><a xlink:title=" ">
<path fill="none" stroke="#63b8ff" d="M40.25,-195.67C50.38,-178.63 73.2,-145.12 103,-131 224.35,-73.53 277.14,-82.01 405,-123 425.53,-129.58 445.28,-143.61 459.98,-156.11"/>
<polygon fill="#63b8ff" stroke="#63b8ff" points="457.51,-158.59 467.32,-162.6 462.15,-153.35 457.51,-158.59"/>
</a>
</g>
</g>
<!-- Node8 -->
<g id="Node000008" class="node">
<title>Node8</title>
<g id="a_Node000008"><a xlink:href="group___t_vector.html#ga6b0b8780d60dad02b8569be119769548" target="_top" xlink:title="Vytvoření úplné kopie vektoru.">
<polygon fill="white" stroke="#666666" points="363,-304 293,-304 293,-284 363,-284 363,-304"/>
<text text-anchor="middle" x="328" y="-290.5" font-family="Helvetica,sans-Serif" font-size="10.00">vector_clone</text>
</a>
</g>
</g>
<!-- Node1&#45;&gt;Node8 -->
<g id="edge7_Node000001_Node000008" class="edge">
<title>Node1&#45;&gt;Node8</title>
<g id="a_edge7_Node000001_Node000008"><a xlink:title=" ">
<path fill="none" stroke="#63b8ff" d="M41.21,-216.44C52.03,-232.29 75.01,-261.93 103,-275 160.05,-301.64 234.16,-302.25 281.16,-299.06"/>
<polygon fill="#63b8ff" stroke="#63b8ff" points="281.29,-302.56 290.99,-298.29 280.75,-295.58 281.29,-302.56"/>
</a>
</g>
</g>
<!-- Node9 -->
<g id="Node000009" class="node">
<title>Node9</title>
<g id="a_Node000009"><a xlink:href="group___t_vector.html#ga41fcff5418fe213f2caaa586f521bcd6" target="_top" xlink:title="Dealokace vektoru.">
<polygon fill="white" stroke="#666666" points="367.5,-228 288.5,-228 288.5,-208 367.5,-208 367.5,-228"/>
<text text-anchor="middle" x="328" y="-214.5" font-family="Helvetica,sans-Serif" font-size="10.00">vector_destroy</text>
</a>
</g>
</g>
<!-- Node1&#45;&gt;Node9 -->
<g id="edge8_Node000001_Node000009" class="edge">
<title>Node1&#45;&gt;Node9</title>
<g id="a_edge8_Node000001_Node000009"><a xlink:title=" ">
<path fill="none" stroke="#63b8ff" d="M67.48,-207.35C118.47,-209.44 216.78,-213.48 276.67,-215.94"/>
<polygon fill="#63b8ff" stroke="#63b8ff" points="276.47,-219.43 286.6,-216.34 276.76,-212.44 276.47,-219.43"/>
</a>
</g>
</g>
<!-- Node10 -->
<g id="Node000010" class="node">
<title>Node10</title>
<g id="a_Node000010"><a xlink:href="group___iterator_algorithms.html#ga914d4c2ad472c0d71a4b5e9265b60e9c" target="_top" xlink:title="Zavolání zvolené funkce na prvních N elementů vektoru od pozice určené iterátorem.">
<polygon fill="white" stroke="#666666" points="206,-160 112,-160 112,-140 206,-140 206,-160"/>
<text text-anchor="middle" x="159" y="-146.5" font-family="Helvetica,sans-Serif" font-size="10.00">vector_for_each_n</text>
</a>
</g>
</g>
<!-- Node1&#45;&gt;Node10 -->
<g id="edge9_Node000001_Node000010" class="edge">
<title>Node1&#45;&gt;Node10</title>
<g id="a_edge9_Node000001_Node000010"><a xlink:title=" ">
<path fill="none" stroke="#63b8ff" d="M57.44,-195.6C76.42,-186.99 103.62,-174.66 124.94,-164.99"/>
<polygon fill="#63b8ff" stroke="#63b8ff" points="126.14,-168.29 133.8,-160.97 123.25,-161.91 126.14,-168.29"/>
</a>
</g>
</g>
<!-- Node12 -->
<g id="Node000012" class="node">
<title>Node12</title>
<g id="a_Node000012"><a xlink:href="group__sortable___t_vector.html#ga1b7a4850be6488c69c293bdd13f729a7" target="_top" xlink:title="Ověření korektního setřídění vektoru.">
<polygon fill="white" stroke="#666666" points="215,-266 103,-266 103,-234 215,-234 215,-266"/>
<text text-anchor="start" x="111" y="-252.5" font-family="Helvetica,sans-Serif" font-size="10.00">vector_is_ascendantly</text>
<text text-anchor="middle" x="159" y="-240.5" font-family="Helvetica,sans-Serif" font-size="10.00">_sorted</text>
</a>
</g>
</g>
<!-- Node1&#45;&gt;Node12 -->
<g id="edge13_Node000001_Node000012" class="edge">
<title>Node1&#45;&gt;Node12</title>
<g id="a_edge13_Node000001_Node000012"><a xlink:title=" ">
<path fill="none" stroke="#63b8ff" d="M63.77,-216.43C75.02,-220.44 88.29,-225.17 101.27,-229.79"/>
<polygon fill="#63b8ff" stroke="#63b8ff" points="100.02,-233.06 110.62,-233.12 102.37,-226.47 100.02,-233.06"/>
</a>
</g>
</g>
<!-- Node14 -->
<g id="Node000014" class="node">
<title>Node14</title>
<g id="a_Node000014"><a xlink:href="group___t_vector_iterator.html#ga40d7eff2ece0eb356d27cdcdef255560" target="_top" xlink:title="Vytvoření nového iterátoru ukazujícího na počáteční element.">
<polygon fill="white" stroke="#666666" points="211.62,-58 106.38,-58 106.38,-38 211.62,-38 211.62,-58"/>
<text text-anchor="middle" x="159" y="-44.5" font-family="Helvetica,sans-Serif" font-size="10.00">vector_iterator_begin</text>
</a>
</g>
</g>
<!-- Node1&#45;&gt;Node14 -->
<g id="edge17_Node000001_Node000014" class="edge">
<title>Node1&#45;&gt;Node14</title>
<g id="a_edge17_Node000001_Node000014"><a xlink:title=" ">
<path fill="none" stroke="#63b8ff" d="M39.01,-195.52C48.58,-174.07 72.57,-124.28 103,-90 111.32,-80.63 121.98,-71.93 131.7,-64.9"/>
<polygon fill="#63b8ff" stroke="#63b8ff" points="133.51,-67.91 139.74,-59.34 129.53,-62.15 133.51,-67.91"/>
</a>
</g>
</g>
<!-- Node15 -->
<g id="Node000015" class="node">
<title>Node15</title>
<g id="a_Node000015"><a xlink:href="group__sortable___t_vector.html#gad07e8b97c61b8342ae9ab2a25a382b36" target="_top" xlink:title="Uložení do souboru (zobrazení) hodnoty statistik počtu operací s elementy vektoru.">
<polygon fill="white" stroke="#666666" points="213.5,-20 104.5,-20 104.5,0 213.5,0 213.5,-20"/>
<text text-anchor="middle" x="159" y="-6.5" font-family="Helvetica,sans-Serif" font-size="10.00">vector_print_sortstats</text>
</a>
</g>
</g>
<!-- Node1&#45;&gt;Node15 -->
<g id="edge20_Node000001_Node000015" class="edge">
<title>Node1&#45;&gt;Node15</title>
<g id="a_edge20_Node000001_Node000015"><a xlink:title=" ">
<path fill="none" stroke="#63b8ff" d="M35.51,-195.56C39,-165.36 53.18,-77.02 103,-29 103.89,-28.14 104.82,-27.32 105.79,-26.54"/>
<polygon fill="#63b8ff" stroke="#63b8ff" points="107.48,-29.61 113.99,-21.26 103.69,-23.73 107.48,-29.61"/>
</a>
</g>
</g>
<!-- Node4 -->
<g id="Node000004" class="node">
<title>Node4</title>
<g id="a_Node000004"><a xlink:href="group___t_vector_element.html#gaaae5b52d7f1d155134792f040f00a385" target="_top" xlink:title="Uložení elementu do souboru.">
<polygon fill="white" stroke="#666666" points="390.75,-342 265.25,-342 265.25,-322 390.75,-322 390.75,-342"/>
<text text-anchor="middle" x="328" y="-328.5" font-family="Helvetica,sans-Serif" font-size="10.00">vector_element_store_file</text>
</a>
</g>
</g>
<!-- Node3&#45;&gt;Node4 -->
<g id="edge3_Node000003_Node000004" class="edge">
<title>Node3&#45;&gt;Node4</title>
<g id="a_edge3_Node000003_Node000004"><a xlink:title=" ">
<path fill="none" stroke="#63b8ff" d="M196.65,-332C213.34,-332 233.73,-332 253.38,-332"/>
<polygon fill="#63b8ff" stroke="#63b8ff" points="253.32,-335.5 263.32,-332 253.32,-328.5 253.32,-335.5"/>
</a>
</g>
</g>
<!-- Node5 -->
<g id="Node000005" class="node">
<title>Node5</title>
<g id="a_Node000005"><a xlink:href="group___t_vector_iterator.html#ga4d8032eb9dbbdccf794611f2b0c9821c" target="_top" xlink:title="Přečtení hodnoty elementu z vektoru pomocí iterátoru.">
<polygon fill="white" stroke="#666666" points="379.88,-380 276.12,-380 276.12,-360 379.88,-360 379.88,-380"/>
<text text-anchor="middle" x="328" y="-366.5" font-family="Helvetica,sans-Serif" font-size="10.00">vector_iterator_value</text>
</a>
</g>
</g>
<!-- Node3&#45;&gt;Node5 -->
<g id="edge4_Node000003_Node000005" class="edge">
<title>Node3&#45;&gt;Node5</title>
<g id="a_edge4_Node000003_Node000005"><a xlink:title=" ">
<path fill="none" stroke="#63b8ff" d="M196.65,-340.34C218.03,-345.21 245.48,-351.45 269.67,-356.95"/>
<polygon fill="#63b8ff" stroke="#63b8ff" points="268.87,-360.36 279.4,-359.17 270.43,-353.54 268.87,-360.36"/>
</a>
</g>
</g>
<!-- Node6 -->
<g id="Node000006" class="node">
<title>Node6</title>
<g id="a_Node000006"><a xlink:href="_t_vector_8c.html#a0fe5f1145e51f154b5470d640c5d682c" target="_top" xlink:title=" ">
<polygon fill="white" stroke="#666666" points="530.5,-380 441,-380 441,-360 530.5,-360 530.5,-380"/>
<text text-anchor="middle" x="485.75" y="-366.5" font-family="Helvetica,sans-Serif" font-size="10.00">vector_fast_value</text>
</a>
</g>
</g>
<!-- Node5&#45;&gt;Node6 -->
<g id="edge5_Node000005_Node000006" class="edge">
<title>Node5&#45;&gt;Node6</title>
<g id="a_edge5_Node000005_Node000006"><a xlink:title=" ">
<path fill="none" stroke="#63b8ff" d="M380,-370C395.78,-370 413.23,-370 429.29,-370"/>
<polygon fill="#63b8ff" stroke="#63b8ff" points="429.19,-373.5 439.19,-370 429.19,-366.5 429.19,-373.5"/>
</a>
</g>
</g>
<!-- Node5&#45;&gt;Node7 -->
<g id="edge6_Node000005_Node000007" class="edge">
<title>Node5&#45;&gt;Node7</title>
<g id="a_edge6_Node000005_Node000007"><a xlink:title=" ">
<path fill="none" stroke="#63b8ff" d="M380.22,-363.83C389.16,-360.98 397.87,-356.88 405,-351 450.04,-313.85 471.02,-245.56 479.61,-207.48"/>
<polygon fill="#63b8ff" stroke="#63b8ff" points="483.02,-208.25 481.67,-197.74 476.18,-206.8 483.02,-208.25"/>
</a>
</g>
</g>
<!-- Node10&#45;&gt;Node7 -->
<g id="edge11_Node000010_Node000007" class="edge">
<title>Node10&#45;&gt;Node7</title>
<g id="a_edge11_Node000010_Node000007"><a xlink:title=" ">
<path fill="none" stroke="#63b8ff" d="M206.26,-155.95C220.58,-157.69 236.43,-159.53 251,-161 312,-167.16 382.12,-172.65 429.52,-176.12"/>
<polygon fill="#63b8ff" stroke="#63b8ff" points="429.02,-179.6 439.25,-176.83 429.53,-172.62 429.02,-179.6"/>
</a>
</g>
</g>
<!-- Node10&#45;&gt;Node10 -->
<g id="edge10_Node000010_Node000010" class="edge">
<title>Node10&#45;&gt;Node10</title>
<g id="a_edge10_Node000010_Node000010"><a xlink:title=" ">
<path fill="none" stroke="#63b8ff" d="M139.06,-160.34C130.54,-168.98 137.18,-178 159,-178 170.93,-178 178.32,-175.3 181.18,-171.44"/>
<polygon fill="#63b8ff" stroke="#63b8ff" points="184.65,-170.93 179.24,-161.82 177.79,-172.32 184.65,-170.93"/>
</a>
</g>
</g>
<!-- Node11 -->
<g id="Node000011" class="node">
<title>Node11</title>
<g id="a_Node000011"><a xlink:href="group___t_vector_iterator.html#ga7ce07cda016d67e3ca891125613ece56" target="_top" xlink:title="Posunutí iterátoru vpřed.">
<polygon fill="white" stroke="#666666" points="385.12,-152 270.88,-152 270.88,-132 385.12,-132 385.12,-152"/>
<text text-anchor="middle" x="328" y="-138.5" font-family="Helvetica,sans-Serif" font-size="10.00">vector_iterator_to_next</text>
</a>
</g>
</g>
<!-- Node10&#45;&gt;Node11 -->
<g id="edge12_Node000010_Node000011" class="edge">
<title>Node10&#45;&gt;Node11</title>
<g id="a_edge12_Node000010_Node000011"><a xlink:title=" ">
<path fill="none" stroke="#63b8ff" d="M206.08,-147.79C222.55,-147 241.47,-146.1 259.38,-145.24"/>
<polygon fill="#63b8ff" stroke="#63b8ff" points="259.33,-148.75 269.15,-144.77 259,-141.75 259.33,-148.75"/>
</a>
</g>
</g>
<!-- Node12&#45;&gt;Node8 -->
<g id="edge14_Node000012_Node000008" class="edge">
<title>Node12&#45;&gt;Node8</title>
<g id="a_edge14_Node000012_Node000008"><a xlink:title=" ">
<path fill="none" stroke="#63b8ff" d="M215.29,-265.41C227.06,-268.63 239.43,-271.97 251,-275 260.84,-277.58 271.43,-280.28 281.48,-282.8"/>
<polygon fill="#63b8ff" stroke="#63b8ff" points="280.51,-286.17 291.06,-285.19 282.21,-279.38 280.51,-286.17"/>
</a>
</g>
</g>
<!-- Node12&#45;&gt;Node9 -->
<g id="edge15_Node000012_Node000009" class="edge">
<title>Node12&#45;&gt;Node9</title>
<g id="a_edge15_Node000012_Node000009"><a xlink:title=" ">
<path fill="none" stroke="#63b8ff" d="M215.14,-239.43C235.08,-235.61 257.46,-231.33 276.93,-227.59"/>
<polygon fill="#63b8ff" stroke="#63b8ff" points="277.38,-231.07 286.54,-225.75 276.06,-224.2 277.38,-231.07"/>
</a>
</g>
</g>
<!-- Node13 -->
<g id="Node000013" class="node">
<title>Node13</title>
<g id="a_Node000013"><a xlink:href="group___t_vector_element.html#ga82e527836fce12c93af896f65e9f701d" target="_top" xlink:title="Porovnání dvou elementů">
<polygon fill="white" stroke="#666666" points="395.62,-266 260.38,-266 260.38,-246 395.62,-246 395.62,-266"/>
<text text-anchor="middle" x="328" y="-252.5" font-family="Helvetica,sans-Serif" font-size="10.00">vector_element_comparator</text>
</a>
</g>
</g>
<!-- Node12&#45;&gt;Node13 -->
<g id="edge16_Node000012_Node000013" class="edge">
<title>Node12&#45;&gt;Node13</title>
<g id="a_edge16_Node000012_Node000013"><a xlink:title=" ">
<path fill="none" stroke="#63b8ff" d="M215.14,-251.98C225.9,-252.37 237.38,-252.78 248.72,-253.19"/>
<polygon fill="#63b8ff" stroke="#63b8ff" points="248.36,-256.68 258.48,-253.54 248.61,-249.68 248.36,-256.68"/>
</a>
</g>
</g>
<!-- Node14&#45;&gt;Node14 -->
<g id="edge18_Node000014_Node000014" class="edge">
<title>Node14&#45;&gt;Node14</title>
<g id="a_edge18_Node000014_Node000014"><a xlink:title=" ">
<path fill="none" stroke="#63b8ff" d="M139.06,-58.34C130.54,-66.98 137.18,-76 159,-76 170.93,-76 178.32,-73.3 181.18,-69.44"/>
<polygon fill="#63b8ff" stroke="#63b8ff" points="184.65,-68.93 179.24,-59.82 177.79,-70.32 184.65,-68.93"/>
</a>
</g>
</g>
<!-- Node16 -->
<g id="Node000016" class="node">
<title>Node16</title>
<g id="a_Node000016"><a xlink:href="_t_vector_8c.html#a89aab766a7765dafc1ace4d04b43c775" target="_top" xlink:title=" ">
<polygon fill="white" stroke="#666666" points="405,-20 251,-20 251,0 405,0 405,-20"/>
<text text-anchor="middle" x="328" y="-6.5" font-family="Helvetica,sans-Serif" font-size="10.00">vector_fast_print_sortstats_item</text>
</a>
</g>
</g>
<!-- Node15&#45;&gt;Node16 -->
<g id="edge21_Node000015_Node000016" class="edge">
<title>Node15&#45;&gt;Node16</title>
<g id="a_edge21_Node000015_Node000016"><a xlink:title=" ">
<path fill="none" stroke="#63b8ff" d="M213.76,-10C221.91,-10 230.5,-10 239.16,-10"/>
<polygon fill="#63b8ff" stroke="#63b8ff" points="239.02,-13.5 249.02,-10 239.02,-6.5 239.02,-13.5"/>
</a>
</g>
</g>
</g>
</svg>
