<?xml version="1.0" encoding="UTF-8" standalone="no"?>
<!DOCTYPE svg PUBLIC "-//W3C//DTD SVG 1.1//EN"
 "http://www.w3.org/Graphics/SVG/1.1/DTD/svg11.dtd">
<!-- Generated by graphviz version 11.0.0 (20240428.1522)
 -->
<!-- Title: vector_swap_positions Pages: 1 -->
<svg width="641pt" height="274pt"
 viewBox="0.00 0.00 640.75 274.00" xmlns="http://www.w3.org/2000/svg" xmlns:xlink="http://www.w3.org/1999/xlink">
<g id="graph0" class="graph" transform="scale(1 1) rotate(0) translate(4 270)">
<title>vector_swap_positions</title>
<!-- Node1 -->
<g id="Node000001" class="node">
<title>Node1</title>
<g id="a_Node000001"><a xlink:title="Výměna hodnot elementů vektorů">
<polygon fill="#999999" stroke="#666666" points="632.75,-134 519.25,-134 519.25,-114 632.75,-114 632.75,-134"/>
<text text-anchor="middle" x="576" y="-120.5" font-family="Helvetica,sans-Serif" font-size="10.00">vector_swap_positions</text>
</a>
</g>
</g>
<!-- Node2 -->
<g id="Node000002" class="node">
<title>Node2</title>
<g id="a_Node000002"><a xlink:href="group___basic_sorts.html#gaa1ef093f5205f293df8303ac228452fc" target="_top" xlink:title="Třídění přímou výměnou (Bubble Sort).">
<polygon fill="white" stroke="#666666" points="457,-266 390.75,-266 390.75,-246 457,-246 457,-266"/>
<text text-anchor="middle" x="423.88" y="-252.5" font-family="Helvetica,sans-Serif" font-size="10.00">bubble_sort</text>
</a>
</g>
</g>
<!-- Node1&#45;&gt;Node2 -->
<g id="edge1_Node000001_Node000002" class="edge">
<title>Node1&#45;&gt;Node2</title>
<g id="a_edge1_Node000001_Node000002"><a xlink:title=" ">
<path fill="none" stroke="#63b8ff" d="M563.75,-144.02C548.6,-169.22 519.34,-212.22 483.25,-237 475.52,-242.31 466.2,-246.21 457.31,-249.05"/>
<polygon fill="#63b8ff" stroke="#63b8ff" points="566.58,-146.12 568.59,-135.72 560.53,-142.59 566.58,-146.12"/>
</a>
</g>
</g>
<!-- Node3 -->
<g id="Node000003" class="node">
<title>Node3</title>
<g id="a_Node000003"><a xlink:href="group___basic_sorts.html#ga62a36eb31bf0a873f7c027e145843b1a" target="_top" xlink:title="Třídění přímou výměnou včetně optimalizace s pomocným příznakem ukončení třídění (Bubble Sort Optimiz...">
<polygon fill="white" stroke="#666666" points="480.62,-228 367.12,-228 367.12,-208 480.62,-208 480.62,-228"/>
<text text-anchor="middle" x="423.88" y="-214.5" font-family="Helvetica,sans-Serif" font-size="10.00">bubble_sort_optimized</text>
</a>
</g>
</g>
<!-- Node1&#45;&gt;Node3 -->
<g id="edge2_Node000001_Node000003" class="edge">
<title>Node1&#45;&gt;Node3</title>
<g id="a_edge2_Node000001_Node000003"><a xlink:title=" ">
<path fill="none" stroke="#63b8ff" d="M556.78,-142.4C539.27,-159.18 511.39,-183.63 483.25,-199 477.17,-202.32 470.41,-205.18 463.72,-207.6"/>
<polygon fill="#63b8ff" stroke="#63b8ff" points="559.15,-144.97 563.85,-135.47 554.26,-139.97 559.15,-144.97"/>
</a>
</g>
</g>
<!-- Node4 -->
<g id="Node000004" class="node">
<title>Node4</title>
<g id="a_Node000004"><a xlink:href="group___basic_sorts.html#gaba41a68f00241f38f7864b4e1dacd086" target="_top" xlink:title="Třídění přímou výměnou včetně optimalizace s výpočtem indexu poslední změny (Bubble Sort Optimized2).">
<polygon fill="white" stroke="#666666" points="483.25,-190 364.5,-190 364.5,-170 483.25,-170 483.25,-190"/>
<text text-anchor="middle" x="423.88" y="-176.5" font-family="Helvetica,sans-Serif" font-size="10.00">bubble_sort_optimized2</text>
</a>
</g>
</g>
<!-- Node1&#45;&gt;Node4 -->
<g id="edge3_Node000001_Node000004" class="edge">
<title>Node1&#45;&gt;Node4</title>
<g id="a_edge3_Node000001_Node000004"><a xlink:title=" ">
<path fill="none" stroke="#63b8ff" d="M540.06,-138.75C523.03,-145.77 502.18,-154.11 483.25,-161 475.24,-163.92 466.53,-166.86 458.35,-169.54"/>
<polygon fill="#63b8ff" stroke="#63b8ff" points="541.35,-142 549.24,-134.93 538.67,-135.54 541.35,-142"/>
</a>
</g>
</g>
<!-- Node5 -->
<g id="Node000005" class="node">
<title>Node5</title>
<g id="a_Node000005"><a xlink:href="advanced__sorts_8c.html#a0ae77c9640aa821e5507079ec5d2eb1d" target="_top" xlink:title="Vnitřní a lokální funkce realizující rekurzivní pracovní funkci pro metodu (Quick Sort).">
<polygon fill="white" stroke="#666666" points="471.25,-134 376.5,-134 376.5,-114 471.25,-114 471.25,-134"/>
<text text-anchor="middle" x="423.88" y="-120.5" font-family="Helvetica,sans-Serif" font-size="10.00">quick_sort_worker</text>
</a>
</g>
</g>
<!-- Node1&#45;&gt;Node5 -->
<g id="edge4_Node000001_Node000005" class="edge">
<title>Node1&#45;&gt;Node5</title>
<g id="a_edge4_Node000001_Node000005"><a xlink:title=" ">
<path fill="none" stroke="#63b8ff" d="M507.92,-124C495.62,-124 483.03,-124 471.49,-124"/>
<polygon fill="#63b8ff" stroke="#63b8ff" points="507.59,-127.5 517.59,-124 507.59,-120.5 507.59,-127.5"/>
</a>
</g>
</g>
<!-- Node8 -->
<g id="Node000008" class="node">
<title>Node8</title>
<g id="a_Node000008"><a xlink:href="group___basic_sorts.html#ga3688a58781905ac2e518285b8bb711ec" target="_top" xlink:title="Třídění přímým výběrem (Select Sort).">
<polygon fill="white" stroke="#666666" points="455.88,-96 391.88,-96 391.88,-76 455.88,-76 455.88,-96"/>
<text text-anchor="middle" x="423.88" y="-82.5" font-family="Helvetica,sans-Serif" font-size="10.00">select_sort</text>
</a>
</g>
</g>
<!-- Node1&#45;&gt;Node8 -->
<g id="edge8_Node000001_Node000008" class="edge">
<title>Node1&#45;&gt;Node8</title>
<g id="a_edge8_Node000001_Node000008"><a xlink:title=" ">
<path fill="none" stroke="#63b8ff" d="M522.63,-110.74C500.46,-105.13 475.37,-98.78 456.16,-93.92"/>
<polygon fill="#63b8ff" stroke="#63b8ff" points="521.56,-114.08 532.11,-113.14 523.28,-107.3 521.56,-114.08"/>
</a>
</g>
</g>
<!-- Node9 -->
<g id="Node000009" class="node">
<title>Node9</title>
<g id="a_Node000009"><a xlink:href="group___basic_sorts.html#gaacee5d609500566a6ad1724486ab8bb2" target="_top" xlink:title="Třídění přímou výměnou se změnou postupu třídění (Shaker Sort).">
<polygon fill="white" stroke="#666666" points="457.38,-58 390.38,-58 390.38,-38 457.38,-38 457.38,-58"/>
<text text-anchor="middle" x="423.88" y="-44.5" font-family="Helvetica,sans-Serif" font-size="10.00">shaker_sort</text>
</a>
</g>
</g>
<!-- Node1&#45;&gt;Node9 -->
<g id="edge9_Node000001_Node000009" class="edge">
<title>Node1&#45;&gt;Node9</title>
<g id="a_edge9_Node000001_Node000009"><a xlink:title=" ">
<path fill="none" stroke="#63b8ff" d="M551.28,-107.04C533.26,-94.72 507.53,-78.29 483.25,-67 475.23,-63.27 466.27,-59.96 457.83,-57.19"/>
<polygon fill="#63b8ff" stroke="#63b8ff" points="549.23,-109.88 559.44,-112.71 553.23,-104.13 549.23,-109.88"/>
</a>
</g>
</g>
<!-- Node10 -->
<g id="Node000010" class="node">
<title>Node10</title>
<g id="a_Node000010"><a xlink:href="group___t_span.html#gae81c37610069e0d3c8d3182ca4964c1a" target="_top" xlink:title="Výměna hodnot elementů Spanů">
<polygon fill="white" stroke="#666666" points="478.38,-20 369.38,-20 369.38,0 478.38,0 478.38,-20"/>
<text text-anchor="middle" x="423.88" y="-6.5" font-family="Helvetica,sans-Serif" font-size="10.00">span_swap_positions</text>
</a>
</g>
</g>
<!-- Node1&#45;&gt;Node10 -->
<g id="edge10_Node000001_Node000010" class="edge">
<title>Node1&#45;&gt;Node10</title>
<g id="a_edge10_Node000001_Node000010"><a xlink:title=" ">
<path fill="none" stroke="#63b8ff" d="M560.85,-104.42C544.43,-83.03 515.48,-49.15 483.25,-29 477.83,-25.61 471.74,-22.77 465.6,-20.4"/>
<polygon fill="#63b8ff" stroke="#63b8ff" points="557.97,-106.41 566.76,-112.32 563.57,-102.22 557.97,-106.41"/>
</a>
</g>
</g>
<!-- Node5&#45;&gt;Node5 -->
<g id="edge7_Node000005_Node000005" class="edge">
<title>Node5&#45;&gt;Node5</title>
<g id="a_edge7_Node000005_Node000005"><a xlink:title=" ">
<path fill="none" stroke="#63b8ff" d="M450.43,-145.44C447.01,-149.3 438.16,-152 423.88,-152 397.76,-152 389.8,-142.98 400,-134.34"/>
<polygon fill="#63b8ff" stroke="#63b8ff" points="453.85,-144.71 448.1,-135.81 447.05,-146.35 453.85,-144.71"/>
</a>
</g>
</g>
<!-- Node6 -->
<g id="Node000006" class="node">
<title>Node6</title>
<g id="a_Node000006"><a xlink:href="group___advanced_sorts.html#gaa369b74c9050d30aa2416f9dba8cc8f5" target="_top" xlink:title="Rychlé třídění výměnou (Quick Sort) s volbou prostředního elementu jako pivota.">
<polygon fill="white" stroke="#666666" points="158.38,-102 97.38,-102 97.38,-82 158.38,-82 158.38,-102"/>
<text text-anchor="middle" x="127.88" y="-88.5" font-family="Helvetica,sans-Serif" font-size="10.00">quick_sort</text>
</a>
</g>
</g>
<!-- Node5&#45;&gt;Node6 -->
<g id="edge5_Node000005_Node000006" class="edge">
<title>Node5&#45;&gt;Node6</title>
<g id="a_edge5_Node000005_Node000006"><a xlink:title=" ">
<path fill="none" stroke="#63b8ff" d="M365.12,-117.71C303.09,-110.96 206.95,-100.5 158.68,-95.24"/>
<polygon fill="#63b8ff" stroke="#63b8ff" points="364.47,-121.16 374.79,-118.77 365.22,-114.2 364.47,-121.16"/>
</a>
</g>
</g>
<!-- Node7 -->
<g id="Node000007" class="node">
<title>Node7</title>
<g id="a_Node000007"><a xlink:href="group___main_program.html#ga0ddf1224851353fc92bfbff6f499fa97" target="_top" xlink:title=" ">
<polygon fill="white" stroke="#666666" points="37,-77 0,-77 0,-57 37,-57 37,-77"/>
<text text-anchor="middle" x="18.5" y="-63.5" font-family="Helvetica,sans-Serif" font-size="10.00">main</text>
</a>
</g>
</g>
<!-- Node6&#45;&gt;Node7 -->
<g id="edge6_Node000006_Node000007" class="edge">
<title>Node6&#45;&gt;Node7</title>
<g id="a_edge6_Node000006_Node000007"><a xlink:title=" ">
<path fill="none" stroke="#63b8ff" d="M85.77,-82.43C69.08,-78.54 50.66,-74.26 37.49,-71.19"/>
<polygon fill="#63b8ff" stroke="#63b8ff" points="84.96,-85.83 95.49,-84.69 86.55,-79.02 84.96,-85.83"/>
</a>
</g>
</g>
<!-- Node11 -->
<g id="Node000011" class="node">
<title>Node11</title>
<g id="a_Node000011"><a xlink:href="advanced__sorts__with__span_8c.html#a1526ecf4371ecb71f2bc68954f16681f" target="_top" xlink:title="Vnitřní a lokální funkce realizující rekurzivní funkci pro metodu (Quick Sort).">
<polygon fill="white" stroke="#666666" points="328.5,-52 218.75,-52 218.75,-20 328.5,-20 328.5,-52"/>
<text text-anchor="start" x="226.75" y="-38.5" font-family="Helvetica,sans-Serif" font-size="10.00">quick_sort_with_span</text>
<text text-anchor="middle" x="273.62" y="-26.5" font-family="Helvetica,sans-Serif" font-size="10.00">_worker</text>
</a>
</g>
</g>
<!-- Node10&#45;&gt;Node11 -->
<g id="edge11_Node000010_Node000011" class="edge">
<title>Node10&#45;&gt;Node11</title>
<g id="a_edge11_Node000010_Node000011"><a xlink:title=" ">
<path fill="none" stroke="#63b8ff" d="M357.72,-21.43C348.06,-23.12 338.18,-24.85 328.77,-26.5"/>
<polygon fill="#63b8ff" stroke="#63b8ff" points="358.2,-24.9 367.44,-19.72 356.99,-18 358.2,-24.9"/>
</a>
</g>
</g>
<!-- Node11&#45;&gt;Node11 -->
<g id="edge14_Node000011_Node000011" class="edge">
<title>Node11&#45;&gt;Node11</title>
<g id="a_edge14_Node000011_Node000011"><a xlink:title=" ">
<path fill="none" stroke="#63b8ff" d="M297.91,-63.71C293.86,-67.48 285.77,-70 273.62,-70 251.42,-70 242.75,-61.58 247.6,-52.44"/>
<polygon fill="#63b8ff" stroke="#63b8ff" points="301.36,-64.35 299.42,-53.94 294.44,-63.29 301.36,-64.35"/>
</a>
</g>
</g>
<!-- Node12 -->
<g id="Node000012" class="node">
<title>Node12</title>
<g id="a_Node000012"><a xlink:href="group___advanced_sorts_with_span.html#ga451c79ea7ae3de87d73ed333460ea2d5" target="_top" xlink:title="Rychlé třídění výměnou (Quick Sort with span) s volbou prostředního elementu jako pivota a využívajíc...">
<polygon fill="white" stroke="#666666" points="182.75,-58 73,-58 73,-38 182.75,-38 182.75,-58"/>
<text text-anchor="middle" x="127.88" y="-44.5" font-family="Helvetica,sans-Serif" font-size="10.00">quick_sort_with_span</text>
</a>
</g>
</g>
<!-- Node11&#45;&gt;Node12 -->
<g id="edge12_Node000011_Node000012" class="edge">
<title>Node11&#45;&gt;Node12</title>
<g id="a_edge12_Node000011_Node000012"><a xlink:title=" ">
<path fill="none" stroke="#63b8ff" d="M206.97,-41.48C198.89,-42.16 190.7,-42.84 182.82,-43.5"/>
<polygon fill="#63b8ff" stroke="#63b8ff" points="207.1,-44.98 216.77,-40.66 206.51,-38.01 207.1,-44.98"/>
</a>
</g>
</g>
<!-- Node12&#45;&gt;Node7 -->
<g id="edge13_Node000012_Node000007" class="edge">
<title>Node12&#45;&gt;Node7</title>
<g id="a_edge13_Node000012_Node000007"><a xlink:title=" ">
<path fill="none" stroke="#63b8ff" d="M61.34,-59.6C52.61,-61.14 44.32,-62.61 37.46,-63.82"/>
<polygon fill="#63b8ff" stroke="#63b8ff" points="61.83,-63.06 71.07,-57.88 60.61,-56.17 61.83,-63.06"/>
</a>
</g>
</g>
</g>
</svg>
