<?xml version="1.0" encoding="UTF-8" standalone="no"?>
<!DOCTYPE svg PUBLIC "-//W3C//DTD SVG 1.1//EN"
 "http://www.w3.org/Graphics/SVG/1.1/DTD/svg11.dtd">
<!-- Generated by graphviz version 11.0.0 (20240428.1522)
 -->
<!-- Title: fibonacci.h Pages: 1 -->
<svg width="134pt" height="84pt"
 viewBox="0.00 0.00 133.88 84.00" xmlns="http://www.w3.org/2000/svg" xmlns:xlink="http://www.w3.org/1999/xlink">
<g id="graph0" class="graph" transform="scale(1 1) rotate(0) translate(4 80)">
<title>fibonacci.h</title>
<!-- Node1 -->
<g id="Node000001" class="node">
<title>Node1</title>
<g id="a_Node000001"><a xlink:title="Deklarace různých variant implementace výpočtu hodnot Fibonacciho posloupnosti.">
<polygon fill="#999999" stroke="#666666" points="98.5,-76 36,-76 36,-56 98.5,-56 98.5,-76"/>
<text text-anchor="middle" x="67.25" y="-62.5" font-family="Helvetica,sans-Serif" font-size="10.00">fibonacci.h</text>
</a>
</g>
</g>
<!-- Node2 -->
<g id="Node000002" class="node">
<title>Node2</title>
<g id="a_Node000002"><a xlink:href="fibonacci_8c.html" target="_top" xlink:title="Definice různých variant implementace výpočtu hodnot Fibonacciho posloupnosti.">
<polygon fill="white" stroke="#666666" points="62.5,-20 0,-20 0,0 62.5,0 62.5,-20"/>
<text text-anchor="middle" x="31.25" y="-6.5" font-family="Helvetica,sans-Serif" font-size="10.00">fibonacci.c</text>
</a>
</g>
</g>
<!-- Node1&#45;&gt;Node2 -->
<g id="edge1_Node000001_Node000002" class="edge">
<title>Node1&#45;&gt;Node2</title>
<g id="a_edge1_Node000001_Node000002"><a xlink:title=" ">
<path fill="none" stroke="#63b8ff" d="M54.68,-46.15C48.85,-37.4 42.18,-27.39 37.45,-20.3"/>
<polygon fill="#63b8ff" stroke="#63b8ff" points="51.68,-47.96 60.14,-54.33 57.5,-44.07 51.68,-47.96"/>
</a>
</g>
</g>
<!-- Node3 -->
<g id="Node000003" class="node">
<title>Node3</title>
<g id="a_Node000003"><a xlink:href="main_8c.html" target="_top" xlink:title="Hlavní program (testbench) testující různé implementace výpočtu hodnot Fibonacciho posloupnosti.">
<polygon fill="white" stroke="#666666" points="125.88,-20 80.62,-20 80.62,0 125.88,0 125.88,-20"/>
<text text-anchor="middle" x="103.25" y="-6.5" font-family="Helvetica,sans-Serif" font-size="10.00">main.c</text>
</a>
</g>
</g>
<!-- Node1&#45;&gt;Node3 -->
<g id="edge2_Node000001_Node000003" class="edge">
<title>Node1&#45;&gt;Node3</title>
<g id="a_edge2_Node000001_Node000003"><a xlink:title=" ">
<path fill="none" stroke="#63b8ff" d="M79.82,-46.15C85.65,-37.4 92.32,-27.39 97.05,-20.3"/>
<polygon fill="#63b8ff" stroke="#63b8ff" points="77,-44.07 74.36,-54.33 82.82,-47.96 77,-44.07"/>
</a>
</g>
</g>
</g>
</svg>
