<?xml version="1.0" encoding="UTF-8" standalone="no"?>
<!DOCTYPE svg PUBLIC "-//W3C//DTD SVG 1.1//EN"
 "http://www.w3.org/Graphics/SVG/1.1/DTD/svg11.dtd">
<!-- Generated by graphviz version 11.0.0 (20240428.1522)
 -->
<!-- Title: fibonacci4_worker Pages: 1 -->
<svg width="270pt" height="46pt"
 viewBox="0.00 0.00 269.75 46.00" xmlns="http://www.w3.org/2000/svg" xmlns:xlink="http://www.w3.org/1999/xlink">
<g id="graph0" class="graph" transform="scale(1 1) rotate(0) translate(4 42)">
<title>fibonacci4_worker</title>
<!-- Node1 -->
<g id="Node000001" class="node">
<title>Node1</title>
<g id="a_Node000001"><a xlink:title="Vnitřní, lokální pracovní funkce realizující koncovou rekurzi.">
<polygon fill="#999999" stroke="#666666" points="261.75,-20 168.5,-20 168.5,0 261.75,0 261.75,-20"/>
<text text-anchor="middle" x="215.12" y="-6.5" font-family="Helvetica,sans-Serif" font-size="10.00">fibonacci4_worker</text>
</a>
</g>
</g>
<!-- Node1&#45;&gt;Node1 -->
<g id="edge3_Node000001_Node000001" class="edge">
<title>Node1&#45;&gt;Node1</title>
<g id="a_edge3_Node000001_Node000001"><a xlink:title=" ">
<path fill="none" stroke="#63b8ff" d="M234.99,-31.44C232.43,-35.3 225.81,-38 215.12,-38 195.59,-38 189.64,-28.98 197.27,-20.34"/>
<polygon fill="#63b8ff" stroke="#63b8ff" points="238.47,-31.05 233.25,-21.83 231.58,-32.29 238.47,-31.05"/>
</a>
</g>
</g>
<!-- Node2 -->
<g id="Node000002" class="node">
<title>Node2</title>
<g id="a_Node000002"><a xlink:href="group___fibonacci__recursion__tail__call.html#ga2176ac33f9dd8338fb49db64d3dc0fae" target="_top" xlink:title="Implementace výpočtu Fibonacciho čísla pomocí koncové rekurze.">
<polygon fill="white" stroke="#666666" points="132.5,-20 73,-20 73,0 132.5,0 132.5,-20"/>
<text text-anchor="middle" x="102.75" y="-6.5" font-family="Helvetica,sans-Serif" font-size="10.00">fibonacci4</text>
</a>
</g>
</g>
<!-- Node1&#45;&gt;Node2 -->
<g id="edge1_Node000001_Node000002" class="edge">
<title>Node1&#45;&gt;Node2</title>
<g id="a_edge1_Node000001_Node000002"><a xlink:title=" ">
<path fill="none" stroke="#63b8ff" d="M156.95,-10C148.63,-10 140.36,-10 132.91,-10"/>
<polygon fill="#63b8ff" stroke="#63b8ff" points="156.76,-13.5 166.76,-10 156.76,-6.5 156.76,-13.5"/>
</a>
</g>
</g>
<!-- Node3 -->
<g id="Node000003" class="node">
<title>Node3</title>
<g id="a_Node000003"><a xlink:href="group___main_program.html#ga0ddf1224851353fc92bfbff6f499fa97" target="_top" xlink:title=" ">
<polygon fill="white" stroke="#666666" points="37,-20 0,-20 0,0 37,0 37,-20"/>
<text text-anchor="middle" x="18.5" y="-6.5" font-family="Helvetica,sans-Serif" font-size="10.00">main</text>
</a>
</g>
</g>
<!-- Node2&#45;&gt;Node3 -->
<g id="edge2_Node000002_Node000003" class="edge">
<title>Node2&#45;&gt;Node3</title>
<g id="a_edge2_Node000002_Node000003"><a xlink:title=" ">
<path fill="none" stroke="#63b8ff" d="M61.15,-10C52.7,-10 44.23,-10 37.14,-10"/>
<polygon fill="#63b8ff" stroke="#63b8ff" points="61.01,-13.5 71.01,-10 61.01,-6.5 61.01,-13.5"/>
</a>
</g>
</g>
</g>
</svg>
