<?xml version="1.0" encoding="UTF-8" standalone="no"?>
<!DOCTYPE svg PUBLIC "-//W3C//DTD SVG 1.1//EN"
 "http://www.w3.org/Graphics/SVG/1.1/DTD/svg11.dtd">
<!-- Generated by graphviz version 11.0.0 (20240428.1522)
 -->
<!-- Title: 1. Fibonacci Pages: 1 -->
<svg width="267pt" height="190pt"
 viewBox="0.00 0.00 267.25 190.00" xmlns="http://www.w3.org/2000/svg" xmlns:xlink="http://www.w3.org/1999/xlink">
<g id="graph0" class="graph" transform="scale(1 1) rotate(0) translate(4 186)">
<title>1. Fibonacci</title>
<!-- Node1 -->
<g id="Node000001" class="node">
<title>Node1</title>
<g id="a_Node000001"><a xlink:title="Implementace funkcí pro výpočet Fibonacciho čísel.">
<polygon fill="#999999" stroke="#666666" points="69.25,-101 0,-101 0,-81 69.25,-81 69.25,-101"/>
<text text-anchor="middle" x="34.62" y="-87.5" font-family="Helvetica,sans-Serif" font-size="10.00">1. Fibonacci</text>
</a>
</g>
</g>
<!-- Node3 -->
<g id="Node000003" class="node">
<title>Node3</title>
<g id="a_Node000003"><a xlink:href="group___fibonacci__iteration.html" target="_top" xlink:title="Implementace funkce pro výpočet Fibonacciho čísel pomocí iterace.">
<polygon fill="white" stroke="#666666" points="255.88,-182 108.62,-182 108.62,-150 255.88,-150 255.88,-182"/>
<text text-anchor="start" x="116.62" y="-168.5" font-family="Helvetica,sans-Serif" font-size="10.00">1.2. Fibonacci &#45; Implementace</text>
<text text-anchor="middle" x="182.25" y="-156.5" font-family="Helvetica,sans-Serif" font-size="10.00"> pomocí iterace</text>
</a>
</g>
</g>
<!-- Node1&#45;&gt;Node3 -->
<g id="edge2" class="edge">
<title>Node1&#45;&gt;Node3</title>
<path fill="none" stroke="black" d="M56.49,-108.57C69.78,-119.09 87.74,-132.1 105.25,-141 111.44,-144.15 118.11,-147.02 124.84,-149.6"/>
<polygon fill="black" stroke="black" points="58.85,-105.98 48.88,-102.4 54.44,-111.42 58.85,-105.98"/>
</g>
<!-- Node2 -->
<g id="Node000002" class="node">
<title>Node2</title>
<g id="a_Node000002"><a xlink:href="group___fibonacci__recursion.html" target="_top" xlink:title="Implementace funkce pro výpočet Fibonacciho čísel pomocí stromové rekurze.">
<polygon fill="white" stroke="#666666" points="255.88,-132 108.62,-132 108.62,-100 255.88,-100 255.88,-132"/>
<text text-anchor="start" x="116.62" y="-118.5" font-family="Helvetica,sans-Serif" font-size="10.00">1.1. Fibonacci &#45; Implementace</text>
<text text-anchor="middle" x="182.25" y="-106.5" font-family="Helvetica,sans-Serif" font-size="10.00"> stromovou rekurzí</text>
</a>
</g>
</g>
<!-- Node1&#45;&gt;Node2 -->
<g id="edge1" class="edge">
<title>Node1&#45;&gt;Node2</title>
<path fill="none" stroke="black" d="M80.55,-98.71C89.36,-100.22 98.8,-101.85 108.25,-103.47"/>
<polygon fill="black" stroke="black" points="81.34,-95.3 70.89,-97.05 80.16,-102.2 81.34,-95.3"/>
</g>
<!-- Node4 -->
<g id="Node000004" class="node">
<title>Node4</title>
<g id="a_Node000004"><a xlink:href="group___fibonacci__recursion__memoize.html" target="_top" xlink:title="Implementace funkce pro výpočet Fibonacciho čísel pomocí stromové rekurze s využitím memoizace.">
<polygon fill="white" stroke="#666666" points="259.25,-82 105.25,-82 105.25,-50 259.25,-50 259.25,-82"/>
<text text-anchor="start" x="113.25" y="-68.5" font-family="Helvetica,sans-Serif" font-size="10.00">1.3. Fibonacci &#45; Implementace</text>
<text text-anchor="middle" x="182.25" y="-56.5" font-family="Helvetica,sans-Serif" font-size="10.00"> stromovou rekurzí s memoizací</text>
</a>
</g>
</g>
<!-- Node1&#45;&gt;Node4 -->
<g id="edge3" class="edge">
<title>Node1&#45;&gt;Node4</title>
<path fill="none" stroke="black" d="M80.73,-83.26C88.48,-81.93 96.72,-80.51 105.03,-79.09"/>
<polygon fill="black" stroke="black" points="80.16,-79.8 70.89,-84.95 81.34,-86.7 80.16,-79.8"/>
</g>
<!-- Node5 -->
<g id="Node000005" class="node">
<title>Node5</title>
<g id="a_Node000005"><a xlink:href="group___fibonacci__recursion__tail__call.html" target="_top" xlink:title="Implementace funkce pro výpočet Fibonacciho čísel pomocí koncové rekurze.">
<polygon fill="white" stroke="#666666" points="255.88,-32 108.62,-32 108.62,0 255.88,0 255.88,-32"/>
<text text-anchor="start" x="116.62" y="-18.5" font-family="Helvetica,sans-Serif" font-size="10.00">1.4. Fibonacci &#45; Implementace</text>
<text text-anchor="middle" x="182.25" y="-6.5" font-family="Helvetica,sans-Serif" font-size="10.00"> s koncovou rekurzí</text>
</a>
</g>
</g>
<!-- Node1&#45;&gt;Node5 -->
<g id="edge4" class="edge">
<title>Node1&#45;&gt;Node5</title>
<path fill="none" stroke="black" d="M56.49,-73.43C69.78,-62.91 87.74,-49.9 105.25,-41 111.44,-37.85 118.11,-34.98 124.84,-32.4"/>
<polygon fill="black" stroke="black" points="54.44,-70.58 48.88,-79.6 58.85,-76.02 54.44,-70.58"/>
</g>
</g>
</svg>
