<?xml version="1.0" encoding="UTF-8" standalone="no"?>
<!DOCTYPE svg PUBLIC "-//W3C//DTD SVG 1.1//EN"
 "http://www.w3.org/Graphics/SVG/1.1/DTD/svg11.dtd">
<!-- Generated by graphviz version 11.0.0 (20240428.1522)
 -->
<!-- Title: main Pages: 1 -->
<svg width="320pt" height="388pt"
 viewBox="0.00 0.00 320.00 388.00" xmlns="http://www.w3.org/2000/svg" xmlns:xlink="http://www.w3.org/1999/xlink">
<g id="graph0" class="graph" transform="scale(1 1) rotate(0) translate(4 384)">
<title>main</title>
<!-- Node1 -->
<g id="Node000001" class="node">
<title>Node1</title>
<g id="a_Node000001"><a xlink:title=" ">
<polygon fill="#999999" stroke="#666666" points="37,-191 0,-191 0,-171 37,-171 37,-191"/>
<text text-anchor="middle" x="18.5" y="-177.5" font-family="Helvetica,sans-Serif" font-size="10.00">main</text>
</a>
</g>
</g>
<!-- Node2 -->
<g id="Node000002" class="node">
<title>Node2</title>
<g id="a_Node000002"><a xlink:href="group___fibonacci__recursion.html#gaf07a76ad6b1e0083c161055bac707795" target="_top" xlink:title="Implementace výpočtu Fibonacciho čísla pomocí stromové rekurze.">
<polygon fill="white" stroke="#666666" points="157.62,-362 98.12,-362 98.12,-342 157.62,-342 157.62,-362"/>
<text text-anchor="middle" x="127.88" y="-348.5" font-family="Helvetica,sans-Serif" font-size="10.00">fibonacci1</text>
</a>
</g>
</g>
<!-- Node1&#45;&gt;Node2 -->
<g id="edge1_Node000001_Node000002" class="edge">
<title>Node1&#45;&gt;Node2</title>
<g id="a_edge1_Node000001_Node000002"><a xlink:title=" ">
<path fill="none" stroke="#63b8ff" d="M20.16,-191.47C22.44,-218.65 32.26,-292.24 73,-333 77.06,-337.06 82.04,-340.26 87.31,-342.77"/>
<polygon fill="#63b8ff" stroke="#63b8ff" points="85.66,-345.88 96.24,-346.26 88.21,-339.36 85.66,-345.88"/>
</a>
</g>
</g>
<!-- Node3 -->
<g id="Node000003" class="node">
<title>Node3</title>
<g id="a_Node000003"><a xlink:href="group___fibonacci__iteration.html#gaf0bff30a2b6ec37a67dac2b6cec2662d" target="_top" xlink:title="Implementace výpočtu Fibonacciho čísla pomocí iterace (cyklu).">
<polygon fill="white" stroke="#666666" points="157.62,-324 98.12,-324 98.12,-304 157.62,-304 157.62,-324"/>
<text text-anchor="middle" x="127.88" y="-310.5" font-family="Helvetica,sans-Serif" font-size="10.00">fibonacci2</text>
</a>
</g>
</g>
<!-- Node1&#45;&gt;Node3 -->
<g id="edge3_Node000001_Node000003" class="edge">
<title>Node1&#45;&gt;Node3</title>
<g id="a_edge3_Node000001_Node000003"><a xlink:title=" ">
<path fill="none" stroke="#63b8ff" d="M21.55,-191.43C26.45,-213.64 40.9,-265.95 73,-295 77.1,-298.71 81.98,-301.71 87.1,-304.13"/>
<polygon fill="#63b8ff" stroke="#63b8ff" points="85.77,-307.37 96.35,-307.77 88.32,-300.85 85.77,-307.37"/>
</a>
</g>
</g>
<!-- Node4 -->
<g id="Node000004" class="node">
<title>Node4</title>
<g id="a_Node000004"><a xlink:href="group___fibonacci__recursion__memoize.html#ga719efe552f8fecbc8e8b0f1e6c1cce50" target="_top" xlink:title="Implementace výpočtu Fibonacciho čísla pomocí stromové rekurze s využitím memoizace.">
<polygon fill="white" stroke="#666666" points="157.62,-286 98.12,-286 98.12,-266 157.62,-266 157.62,-286"/>
<text text-anchor="middle" x="127.88" y="-272.5" font-family="Helvetica,sans-Serif" font-size="10.00">fibonacci3</text>
</a>
</g>
</g>
<!-- Node1&#45;&gt;Node4 -->
<g id="edge4_Node000001_Node000004" class="edge">
<title>Node1&#45;&gt;Node4</title>
<g id="a_edge4_Node000001_Node000004"><a xlink:title=" ">
<path fill="none" stroke="#63b8ff" d="M24.2,-191.4C32.05,-207.65 49.33,-239.07 73,-257 77.32,-260.27 82.25,-263.01 87.33,-265.3"/>
<polygon fill="#63b8ff" stroke="#63b8ff" points="85.83,-268.47 96.42,-268.83 88.37,-261.95 85.83,-268.47"/>
</a>
</g>
</g>
<!-- Node6 -->
<g id="Node000006" class="node">
<title>Node6</title>
<g id="a_Node000006"><a xlink:href="group___fibonacci__recursion__memoize.html#ga7038381d3a82a541aa892899347446f4" target="_top" xlink:title="Funkce výpočtu Fibonacciho čísla pomocí stromové rekurze s využitím memoizace volaná z main() jako tz...">
<polygon fill="white" stroke="#666666" points="177.12,-248 78.62,-248 78.62,-228 177.12,-228 177.12,-248"/>
<text text-anchor="middle" x="127.88" y="-234.5" font-family="Helvetica,sans-Serif" font-size="10.00">fibonacci3_wrapper</text>
</a>
</g>
</g>
<!-- Node1&#45;&gt;Node6 -->
<g id="edge6_Node000001_Node000006" class="edge">
<title>Node1&#45;&gt;Node6</title>
<g id="a_edge6_Node000001_Node000006"><a xlink:title=" ">
<path fill="none" stroke="#63b8ff" d="M32.04,-191.44C42.49,-199.75 58.03,-211.24 73,-219 75.89,-220.5 78.92,-221.92 82.02,-223.27"/>
<polygon fill="#63b8ff" stroke="#63b8ff" points="80.65,-226.5 91.24,-226.98 83.27,-220 80.65,-226.5"/>
</a>
</g>
</g>
<!-- Node7 -->
<g id="Node000007" class="node">
<title>Node7</title>
<g id="a_Node000007"><a xlink:href="group___fibonacci__recursion__tail__call.html#ga2176ac33f9dd8338fb49db64d3dc0fae" target="_top" xlink:title="Implementace výpočtu Fibonacciho čísla pomocí koncové rekurze.">
<polygon fill="white" stroke="#666666" points="157.62,-210 98.12,-210 98.12,-190 157.62,-190 157.62,-210"/>
<text text-anchor="middle" x="127.88" y="-196.5" font-family="Helvetica,sans-Serif" font-size="10.00">fibonacci4</text>
</a>
</g>
</g>
<!-- Node1&#45;&gt;Node7 -->
<g id="edge8_Node000001_Node000007" class="edge">
<title>Node1&#45;&gt;Node7</title>
<g id="a_edge8_Node000001_Node000007"><a xlink:title=" ">
<path fill="none" stroke="#63b8ff" d="M37.23,-184.14C50.72,-186.52 69.8,-189.9 86.9,-192.93"/>
<polygon fill="#63b8ff" stroke="#63b8ff" points="85.83,-196.29 96.28,-194.59 87.05,-189.4 85.83,-196.29"/>
</a>
</g>
</g>
<!-- Node9 -->
<g id="Node000009" class="node">
<title>Node9</title>
<g id="a_Node000009"><a xlink:href="group___main_program.html#gacddcd824577bbc488d7c8c67a2f5a6fa" target="_top" xlink:title="Testování funkcí fibonacciX().">
<polygon fill="white" stroke="#666666" points="172.25,-172 83.5,-172 83.5,-152 172.25,-152 172.25,-172"/>
<text text-anchor="middle" x="127.88" y="-158.5" font-family="Helvetica,sans-Serif" font-size="10.00">fibonacci_testing</text>
</a>
</g>
</g>
<!-- Node1&#45;&gt;Node9 -->
<g id="edge11_Node000001_Node000009" class="edge">
<title>Node1&#45;&gt;Node9</title>
<g id="a_edge11_Node000001_Node000009"><a xlink:title=" ">
<path fill="none" stroke="#63b8ff" d="M37.23,-177.86C46.91,-176.15 59.46,-173.93 72.1,-171.69"/>
<polygon fill="#63b8ff" stroke="#63b8ff" points="72.43,-175.19 81.67,-170 71.21,-168.3 72.43,-175.19"/>
</a>
</g>
</g>
<!-- Node11 -->
<g id="Node000011" class="node">
<title>Node11</title>
<g id="a_Node000011"><a xlink:href="group___t_memoizer.html#gac3b680c64e6cdba34bd7bfab1bd68d66" target="_top" xlink:title="Smazání archivovaných hodnot v memoizeru, vynulování statistik o počty volání memoizeru.">
<polygon fill="white" stroke="#666666" points="170.38,-134 85.38,-134 85.38,-114 170.38,-114 170.38,-134"/>
<text text-anchor="middle" x="127.88" y="-120.5" font-family="Helvetica,sans-Serif" font-size="10.00">memoizer_clear</text>
</a>
</g>
</g>
<!-- Node1&#45;&gt;Node11 -->
<g id="edge13_Node000001_Node000011" class="edge">
<title>Node1&#45;&gt;Node11</title>
<g id="a_edge13_Node000001_Node000011"><a xlink:title=" ">
<path fill="none" stroke="#63b8ff" d="M32.04,-170.56C42.49,-162.25 58.03,-150.76 73,-143 75.89,-141.5 78.92,-140.08 82.02,-138.73"/>
<polygon fill="#63b8ff" stroke="#63b8ff" points="83.27,-142 91.24,-135.02 80.65,-135.5 83.27,-142"/>
</a>
</g>
</g>
<!-- Node12 -->
<g id="Node000012" class="node">
<title>Node12</title>
<g id="a_Node000012"><a xlink:href="group___t_memoizer.html#gae130deba979f5244c43be229606bf163" target="_top" xlink:title="Deinicializace memoizeru.">
<polygon fill="white" stroke="#666666" points="176,-96 79.75,-96 79.75,-76 176,-76 176,-96"/>
<text text-anchor="middle" x="127.88" y="-82.5" font-family="Helvetica,sans-Serif" font-size="10.00">memoizer_destroy</text>
</a>
</g>
</g>
<!-- Node1&#45;&gt;Node12 -->
<g id="edge14_Node000001_Node000012" class="edge">
<title>Node1&#45;&gt;Node12</title>
<g id="a_edge14_Node000001_Node000012"><a xlink:title=" ">
<path fill="none" stroke="#63b8ff" d="M24.2,-170.6C32.05,-154.35 49.33,-122.93 73,-105 74.55,-103.83 76.18,-102.72 77.86,-101.68"/>
<polygon fill="#63b8ff" stroke="#63b8ff" points="79.4,-104.83 86.65,-97.11 76.16,-98.62 79.4,-104.83"/>
</a>
</g>
</g>
<!-- Node13 -->
<g id="Node000013" class="node">
<title>Node13</title>
<g id="a_Node000013"><a xlink:href="group___t_memoizer.html#ga7fd4a076d3b98ab7b0f67fcdb797b67c" target="_top" xlink:title="Inicializace memoizeru, asociace s memoizovanou funkcí, alokace vnitřního pole pro pár hodnot vstup a...">
<polygon fill="white" stroke="#666666" points="166.25,-58 89.5,-58 89.5,-38 166.25,-38 166.25,-58"/>
<text text-anchor="middle" x="127.88" y="-44.5" font-family="Helvetica,sans-Serif" font-size="10.00">memoizer_init</text>
</a>
</g>
</g>
<!-- Node1&#45;&gt;Node13 -->
<g id="edge15_Node000001_Node000013" class="edge">
<title>Node1&#45;&gt;Node13</title>
<g id="a_edge15_Node000001_Node000013"><a xlink:title=" ">
<path fill="none" stroke="#63b8ff" d="M21.55,-170.57C26.45,-148.36 40.9,-96.05 73,-67 74.88,-65.3 76.93,-63.74 79.08,-62.33"/>
<polygon fill="#63b8ff" stroke="#63b8ff" points="80.59,-65.49 87.75,-57.68 77.28,-59.32 80.59,-65.49"/>
</a>
</g>
</g>
<!-- Node14 -->
<g id="Node000014" class="node">
<title>Node14</title>
<g id="a_Node000014"><a xlink:href="group___t_memoizer.html#ga0bbdcccd8a7105b3113829fd80f2cada" target="_top" xlink:title="Zobrazení hodnoty statistik počtu volání memoizeru.">
<polygon fill="white" stroke="#666666" points="182.75,-20 73,-20 73,0 182.75,0 182.75,-20"/>
<text text-anchor="middle" x="127.88" y="-6.5" font-family="Helvetica,sans-Serif" font-size="10.00">memoizer_print_stats</text>
</a>
</g>
</g>
<!-- Node1&#45;&gt;Node14 -->
<g id="edge16_Node000001_Node000014" class="edge">
<title>Node1&#45;&gt;Node14</title>
<g id="a_edge16_Node000001_Node000014"><a xlink:title=" ">
<path fill="none" stroke="#63b8ff" d="M20.16,-170.53C22.44,-143.35 32.26,-69.76 73,-29 73.75,-28.25 74.53,-27.53 75.35,-26.83"/>
<polygon fill="#63b8ff" stroke="#63b8ff" points="77.28,-29.75 83.65,-21.28 73.39,-23.93 77.28,-29.75"/>
</a>
</g>
</g>
<!-- Node2&#45;&gt;Node2 -->
<g id="edge2_Node000002_Node000002" class="edge">
<title>Node2&#45;&gt;Node2</title>
<g id="a_edge2_Node000002_Node000002"><a xlink:title=" ">
<path fill="none" stroke="#63b8ff" d="M110.5,-362.34C103.07,-370.98 108.86,-380 127.88,-380 138.27,-380 144.72,-377.3 147.21,-373.44"/>
<polygon fill="#63b8ff" stroke="#63b8ff" points="150.7,-373.07 145.52,-363.83 143.8,-374.28 150.7,-373.07"/>
</a>
</g>
</g>
<!-- Node5 -->
<g id="Node000005" class="node">
<title>Node5</title>
<g id="a_Node000005"><a xlink:href="group___t_memoizer.html#ga3cdbc39bcc445c7d6d8c6afd9376a632" target="_top" xlink:title="Volání memoizeru zajišťující získání výsledku asociované funkce pro zadaný parametr.">
<polygon fill="white" stroke="#666666" points="305.62,-276 225.12,-276 225.12,-256 305.62,-256 305.62,-276"/>
<text text-anchor="middle" x="265.38" y="-262.5" font-family="Helvetica,sans-Serif" font-size="10.00">memoizer_eval</text>
</a>
</g>
</g>
<!-- Node4&#45;&gt;Node5 -->
<g id="edge5_Node000004_Node000005" class="edge">
<title>Node4&#45;&gt;Node5</title>
<g id="a_edge5_Node000004_Node000005"><a xlink:title=" ">
<path fill="none" stroke="#63b8ff" d="M157.94,-273.85C174.11,-272.66 194.69,-271.14 213.44,-269.76"/>
<polygon fill="#63b8ff" stroke="#63b8ff" points="213.59,-273.26 223.31,-269.03 213.08,-266.28 213.59,-273.26"/>
</a>
</g>
</g>
<!-- Node6&#45;&gt;Node5 -->
<g id="edge7_Node000006_Node000005" class="edge">
<title>Node6&#45;&gt;Node5</title>
<g id="a_edge7_Node000006_Node000005"><a xlink:title=" ">
<path fill="none" stroke="#63b8ff" d="M177.41,-248.03C189.15,-250.46 201.73,-253.05 213.57,-255.5"/>
<polygon fill="#63b8ff" stroke="#63b8ff" points="212.66,-258.89 223.16,-257.48 214.08,-252.03 212.66,-258.89"/>
</a>
</g>
</g>
<!-- Node8 -->
<g id="Node000008" class="node">
<title>Node8</title>
<g id="a_Node000008"><a xlink:href="fibonacci_8c.html#a7ab5a4974db38c8b9a1a41f2d6a0d205" target="_top" xlink:title="Vnitřní, lokální pracovní funkce realizující koncovou rekurzi.">
<polygon fill="white" stroke="#666666" points="312,-210 218.75,-210 218.75,-190 312,-190 312,-210"/>
<text text-anchor="middle" x="265.38" y="-196.5" font-family="Helvetica,sans-Serif" font-size="10.00">fibonacci4_worker</text>
</a>
</g>
</g>
<!-- Node7&#45;&gt;Node8 -->
<g id="edge9_Node000007_Node000008" class="edge">
<title>Node7&#45;&gt;Node8</title>
<g id="a_edge9_Node000007_Node000008"><a xlink:title=" ">
<path fill="none" stroke="#63b8ff" d="M157.94,-200C172.22,-200 189.95,-200 206.81,-200"/>
<polygon fill="#63b8ff" stroke="#63b8ff" points="206.78,-203.5 216.78,-200 206.78,-196.5 206.78,-203.5"/>
</a>
</g>
</g>
<!-- Node8&#45;&gt;Node8 -->
<g id="edge10_Node000008_Node000008" class="edge">
<title>Node8&#45;&gt;Node8</title>
<g id="a_edge10_Node000008_Node000008"><a xlink:title=" ">
<path fill="none" stroke="#63b8ff" d="M243.53,-210.34C234.19,-218.98 241.47,-228 265.38,-228 278.45,-228 286.55,-225.3 289.68,-221.44"/>
<polygon fill="#63b8ff" stroke="#63b8ff" points="293.13,-220.83 287.55,-211.82 286.29,-222.34 293.13,-220.83"/>
</a>
</g>
</g>
<!-- Node10 -->
<g id="Node000010" class="node">
<title>Node10</title>
<g id="a_Node000010"><a xlink:href="main__support_8h.html#aa291195ad453d2b1e29004cc2e043c01" target="_top" xlink:title="Výpočet doby trvání časového intervalu.">
<polygon fill="white" stroke="#666666" points="299.25,-172 231.5,-172 231.5,-152 299.25,-152 299.25,-172"/>
<text text-anchor="middle" x="265.38" y="-158.5" font-family="Helvetica,sans-Serif" font-size="10.00">difftimespec</text>
</a>
</g>
</g>
<!-- Node9&#45;&gt;Node10 -->
<g id="edge12_Node000009_Node000010" class="edge">
<title>Node9&#45;&gt;Node10</title>
<g id="a_edge12_Node000009_Node000010"><a xlink:title=" ">
<path fill="none" stroke="#63b8ff" d="M172.49,-162C187.66,-162 204.68,-162 219.91,-162"/>
<polygon fill="#63b8ff" stroke="#63b8ff" points="219.64,-165.5 229.64,-162 219.64,-158.5 219.64,-165.5"/>
</a>
</g>
</g>
</g>
</svg>
