<?xml version="1.0" encoding="UTF-8" standalone="no"?>
<!DOCTYPE svg PUBLIC "-//W3C//DTD SVG 1.1//EN"
 "http://www.w3.org/Graphics/SVG/1.1/DTD/svg11.dtd">
<!-- Generated by graphviz version 11.0.0 (20240428.1522)
 -->
<!-- Title: fibonacci4 Pages: 1 -->
<svg width="197pt" height="46pt"
 viewBox="0.00 0.00 196.75 46.00" xmlns="http://www.w3.org/2000/svg" xmlns:xlink="http://www.w3.org/1999/xlink">
<g id="graph0" class="graph" transform="scale(1 1) rotate(0) translate(4 42)">
<title>fibonacci4</title>
<!-- Node1 -->
<g id="Node000001" class="node">
<title>Node1</title>
<g id="a_Node000001"><a xlink:title="Implementace výpočtu Fibonacciho čísla pomocí koncové rekurze.">
<polygon fill="#999999" stroke="#666666" points="59.5,-20 0,-20 0,0 59.5,0 59.5,-20"/>
<text text-anchor="middle" x="29.75" y="-6.5" font-family="Helvetica,sans-Serif" font-size="10.00">fibonacci4</text>
</a>
</g>
</g>
<!-- Node2 -->
<g id="Node000002" class="node">
<title>Node2</title>
<g id="a_Node000002"><a xlink:href="fibonacci_8c.html#a7ab5a4974db38c8b9a1a41f2d6a0d205" target="_top" xlink:title="Vnitřní, lokální pracovní funkce realizující koncovou rekurzi.">
<polygon fill="white" stroke="#666666" points="188.75,-20 95.5,-20 95.5,0 188.75,0 188.75,-20"/>
<text text-anchor="middle" x="142.12" y="-6.5" font-family="Helvetica,sans-Serif" font-size="10.00">fibonacci4_worker</text>
</a>
</g>
</g>
<!-- Node1&#45;&gt;Node2 -->
<g id="edge1_Node000001_Node000002" class="edge">
<title>Node1&#45;&gt;Node2</title>
<g id="a_edge1_Node000001_Node000002"><a xlink:title=" ">
<path fill="none" stroke="#63b8ff" d="M59.75,-10C67.21,-10 75.51,-10 83.87,-10"/>
<polygon fill="#63b8ff" stroke="#63b8ff" points="83.73,-13.5 93.73,-10 83.73,-6.5 83.73,-13.5"/>
</a>
</g>
</g>
<!-- Node2&#45;&gt;Node2 -->
<g id="edge2_Node000002_Node000002" class="edge">
<title>Node2&#45;&gt;Node2</title>
<g id="a_edge2_Node000002_Node000002"><a xlink:title=" ">
<path fill="none" stroke="#63b8ff" d="M124.27,-20.34C116.64,-28.98 122.59,-38 142.12,-38 152.81,-38 159.43,-35.3 161.99,-31.44"/>
<polygon fill="#63b8ff" stroke="#63b8ff" points="165.47,-31.05 160.25,-21.83 158.58,-32.29 165.47,-31.05"/>
</a>
</g>
</g>
</g>
</svg>
