<?xml version="1.0" encoding="UTF-8" standalone="no"?>
<!DOCTYPE svg PUBLIC "-//W3C//DTD SVG 1.1//EN"
 "http://www.w3.org/Graphics/SVG/1.1/DTD/svg11.dtd">
<!-- Generated by graphviz version 11.0.0 (20240428.1522)
 -->
<!-- Title: memoizer_eval Pages: 1 -->
<svg width="296pt" height="66pt"
 viewBox="0.00 0.00 296.00 66.00" xmlns="http://www.w3.org/2000/svg" xmlns:xlink="http://www.w3.org/1999/xlink">
<g id="graph0" class="graph" transform="scale(1 1) rotate(0) translate(4 62)">
<title>memoizer_eval</title>
<!-- Node1 -->
<g id="Node000001" class="node">
<title>Node1</title>
<g id="a_Node000001"><a xlink:title="Volání memoizeru zajišťující získání výsledku asociované funkce pro zadaný parametr.">
<polygon fill="#999999" stroke="#666666" points="288,-39 207.5,-39 207.5,-19 288,-19 288,-39"/>
<text text-anchor="middle" x="247.75" y="-25.5" font-family="Helvetica,sans-Serif" font-size="10.00">memoizer_eval</text>
</a>
</g>
</g>
<!-- Node2 -->
<g id="Node000002" class="node">
<title>Node2</title>
<g id="a_Node000002"><a xlink:href="group___fibonacci__recursion__memoize.html#ga719efe552f8fecbc8e8b0f1e6c1cce50" target="_top" xlink:title="Implementace výpočtu Fibonacciho čísla pomocí stromové rekurze s využitím memoizace.">
<polygon fill="white" stroke="#666666" points="152,-58 92.5,-58 92.5,-38 152,-38 152,-58"/>
<text text-anchor="middle" x="122.25" y="-44.5" font-family="Helvetica,sans-Serif" font-size="10.00">fibonacci3</text>
</a>
</g>
</g>
<!-- Node1&#45;&gt;Node2 -->
<g id="edge1_Node000001_Node000002" class="edge">
<title>Node1&#45;&gt;Node2</title>
<g id="a_edge1_Node000001_Node000002"><a xlink:title=" ">
<path fill="none" stroke="#63b8ff" d="M196.11,-36.79C181.12,-39.1 165.23,-41.54 152.13,-43.56"/>
<polygon fill="#63b8ff" stroke="#63b8ff" points="196.49,-40.27 205.84,-35.29 195.42,-33.36 196.49,-40.27"/>
</a>
</g>
</g>
<!-- Node4 -->
<g id="Node000004" class="node">
<title>Node4</title>
<g id="a_Node000004"><a xlink:href="group___fibonacci__recursion__memoize.html#ga7038381d3a82a541aa892899347446f4" target="_top" xlink:title="Funkce výpočtu Fibonacciho čísla pomocí stromové rekurze s využitím memoizace volaná z main() jako tz...">
<polygon fill="white" stroke="#666666" points="171.5,-20 73,-20 73,0 171.5,0 171.5,-20"/>
<text text-anchor="middle" x="122.25" y="-6.5" font-family="Helvetica,sans-Serif" font-size="10.00">fibonacci3_wrapper</text>
</a>
</g>
</g>
<!-- Node1&#45;&gt;Node4 -->
<g id="edge3_Node000001_Node000004" class="edge">
<title>Node1&#45;&gt;Node4</title>
<g id="a_edge3_Node000001_Node000004"><a xlink:title=" ">
<path fill="none" stroke="#63b8ff" d="M196.19,-21.22C188.13,-19.98 179.82,-18.7 171.82,-17.47"/>
<polygon fill="#63b8ff" stroke="#63b8ff" points="195.42,-24.64 205.84,-22.71 196.49,-17.73 195.42,-24.64"/>
</a>
</g>
</g>
<!-- Node3 -->
<g id="Node000003" class="node">
<title>Node3</title>
<g id="a_Node000003"><a xlink:href="group___main_program.html#ga0ddf1224851353fc92bfbff6f499fa97" target="_top" xlink:title=" ">
<polygon fill="white" stroke="#666666" points="37,-39 0,-39 0,-19 37,-19 37,-39"/>
<text text-anchor="middle" x="18.5" y="-25.5" font-family="Helvetica,sans-Serif" font-size="10.00">main</text>
</a>
</g>
</g>
<!-- Node2&#45;&gt;Node3 -->
<g id="edge2_Node000002_Node000003" class="edge">
<title>Node2&#45;&gt;Node3</title>
<g id="a_edge2_Node000002_Node000003"><a xlink:title=" ">
<path fill="none" stroke="#63b8ff" d="M80.92,-40.47C65.86,-37.66 49.51,-34.6 37.47,-32.36"/>
<polygon fill="#63b8ff" stroke="#63b8ff" points="80.13,-43.88 90.6,-42.28 81.42,-37 80.13,-43.88"/>
</a>
</g>
</g>
<!-- Node4&#45;&gt;Node3 -->
<g id="edge4_Node000004_Node000003" class="edge">
<title>Node4&#45;&gt;Node3</title>
<g id="a_edge4_Node000004_Node000003"><a xlink:title=" ">
<path fill="none" stroke="#63b8ff" d="M61.48,-21.16C52.67,-22.81 44.23,-24.38 37.25,-25.69"/>
<polygon fill="#63b8ff" stroke="#63b8ff" points="62.08,-24.61 71.27,-19.33 60.8,-17.73 62.08,-24.61"/>
</a>
</g>
</g>
</g>
</svg>
