<?xml version="1.0" encoding="UTF-8" standalone="no"?>
<!DOCTYPE svg PUBLIC "-//W3C//DTD SVG 1.1//EN"
 "http://www.w3.org/Graphics/SVG/1.1/DTD/svg11.dtd">
<!-- Generated by graphviz version 11.0.0 (20240428.1522)
 -->
<!-- Title: main.c Pages: 1 -->
<svg width="334pt" height="196pt"
 viewBox="0.00 0.00 333.88 196.00" xmlns="http://www.w3.org/2000/svg" xmlns:xlink="http://www.w3.org/1999/xlink">
<g id="graph0" class="graph" transform="scale(1 1) rotate(0) translate(4 192)">
<title>main.c</title>
<!-- Node1 -->
<g id="Node000001" class="node">
<title>Node1</title>
<g id="a_Node000001"><a xlink:title="Hlavní program (testbench) testující různé implementace výpočtu hodnot Fibonacciho posloupnosti.">
<polygon fill="#999999" stroke="#666666" points="201.25,-188 156,-188 156,-168 201.25,-168 201.25,-188"/>
<text text-anchor="middle" x="178.62" y="-174.5" font-family="Helvetica,sans-Serif" font-size="10.00">main.c</text>
</a>
</g>
</g>
<!-- Node2 -->
<g id="Node000002" class="node">
<title>Node2</title>
<g id="a_Node000002"><a xlink:title=" ">
<polygon fill="#e0e0e0" stroke="#999999" points="45.25,-20 0,-20 0,0 45.25,0 45.25,-20"/>
<text text-anchor="middle" x="22.62" y="-6.5" font-family="Helvetica,sans-Serif" font-size="10.00">stdio.h</text>
</a>
</g>
</g>
<!-- Node1&#45;&gt;Node2 -->
<g id="edge1_Node000001_Node000002" class="edge">
<title>Node1&#45;&gt;Node2</title>
<g id="a_edge1_Node000001_Node000002"><a xlink:title=" ">
<path fill="none" stroke="#63b8ff" d="M155.68,-175.8C126.15,-172.96 75.35,-163.5 47.62,-132 22.9,-103.91 20.26,-57.91 21.09,-31.46"/>
<polygon fill="#63b8ff" stroke="#63b8ff" points="24.57,-31.89 21.62,-21.72 17.58,-31.52 24.57,-31.89"/>
</a>
</g>
</g>
<!-- Node3 -->
<g id="Node000003" class="node">
<title>Node3</title>
<g id="a_Node000003"><a xlink:title=" ">
<polygon fill="#e0e0e0" stroke="#999999" points="265.12,-76 222.12,-76 222.12,-56 265.12,-56 265.12,-76"/>
<text text-anchor="middle" x="243.62" y="-62.5" font-family="Helvetica,sans-Serif" font-size="10.00">time.h</text>
</a>
</g>
</g>
<!-- Node1&#45;&gt;Node3 -->
<g id="edge2_Node000001_Node000003" class="edge">
<title>Node1&#45;&gt;Node3</title>
<g id="a_edge2_Node000001_Node000003"><a xlink:title=" ">
<path fill="none" stroke="#63b8ff" d="M193.13,-167.68C204.51,-159.61 219.85,-146.89 228.62,-132 236.55,-118.54 240.29,-101.22 242.05,-87.84"/>
<polygon fill="#63b8ff" stroke="#63b8ff" points="245.53,-88.29 243.06,-77.98 238.56,-87.58 245.53,-88.29"/>
</a>
</g>
</g>
<!-- Node4 -->
<g id="Node000004" class="node">
<title>Node4</title>
<g id="a_Node000004"><a xlink:href="main__support_8h.html" target="_top" xlink:title="Soubor pro multiplatformní podporu programu v různých OS.">
<polygon fill="white" stroke="#666666" points="220,-132 137.25,-132 137.25,-112 220,-112 220,-132"/>
<text text-anchor="middle" x="178.62" y="-118.5" font-family="Helvetica,sans-Serif" font-size="10.00">main_support.h</text>
</a>
</g>
</g>
<!-- Node1&#45;&gt;Node4 -->
<g id="edge3_Node000001_Node000004" class="edge">
<title>Node1&#45;&gt;Node4</title>
<g id="a_edge3_Node000001_Node000004"><a xlink:title=" ">
<path fill="none" stroke="#63b8ff" d="M178.62,-167.59C178.62,-161.01 178.62,-151.96 178.62,-143.73"/>
<polygon fill="#63b8ff" stroke="#63b8ff" points="182.13,-143.81 178.63,-133.81 175.13,-143.81 182.13,-143.81"/>
</a>
</g>
</g>
<!-- Node6 -->
<g id="Node000006" class="node">
<title>Node6</title>
<g id="a_Node000006"><a xlink:href="fibonacci_8h.html" target="_top" xlink:title="Deklarace různých variant implementace výpočtu hodnot Fibonacciho posloupnosti.">
<polygon fill="white" stroke="#666666" points="118.88,-132 56.38,-132 56.38,-112 118.88,-112 118.88,-132"/>
<text text-anchor="middle" x="87.62" y="-118.5" font-family="Helvetica,sans-Serif" font-size="10.00">fibonacci.h</text>
</a>
</g>
</g>
<!-- Node1&#45;&gt;Node6 -->
<g id="edge7_Node000001_Node000006" class="edge">
<title>Node1&#45;&gt;Node6</title>
<g id="a_edge7_Node000001_Node000006"><a xlink:title=" ">
<path fill="none" stroke="#63b8ff" d="M162.77,-167.59C149.16,-159.51 129.26,-147.71 113.36,-138.27"/>
<polygon fill="#63b8ff" stroke="#63b8ff" points="115.29,-135.35 104.9,-133.25 111.72,-141.37 115.29,-135.35"/>
</a>
</g>
</g>
<!-- Node10 -->
<g id="Node000010" class="node">
<title>Node10</title>
<g id="a_Node000010"><a xlink:title=" ">
<polygon fill="#e0e0e0" stroke="#999999" points="325.88,-132 275.38,-132 275.38,-112 325.88,-112 325.88,-132"/>
<text text-anchor="middle" x="300.62" y="-118.5" font-family="Helvetica,sans-Serif" font-size="10.00">check.h</text>
</a>
</g>
</g>
<!-- Node1&#45;&gt;Node10 -->
<g id="edge13_Node000001_Node000010" class="edge">
<title>Node1&#45;&gt;Node10</title>
<g id="a_edge13_Node000001_Node000010"><a xlink:title=" ">
<path fill="none" stroke="#63b8ff" d="M199.88,-167.59C218.91,-159.17 247.1,-146.69 268.83,-137.07"/>
<polygon fill="#63b8ff" stroke="#63b8ff" points="270.1,-140.34 277.82,-133.09 267.26,-133.94 270.1,-140.34"/>
</a>
</g>
</g>
<!-- Node4&#45;&gt;Node2 -->
<g id="edge4_Node000004_Node000002" class="edge">
<title>Node4&#45;&gt;Node2</title>
<g id="a_edge4_Node000004_Node000002"><a xlink:title=" ">
<path fill="none" stroke="#63b8ff" d="M150.35,-111.58C129.82,-103.92 102.01,-91.8 80.62,-76 62.81,-62.84 46.4,-43.46 35.61,-29.29"/>
<polygon fill="#63b8ff" stroke="#63b8ff" points="38.46,-27.25 29.71,-21.27 32.82,-31.4 38.46,-27.25"/>
</a>
</g>
</g>
<!-- Node4&#45;&gt;Node3 -->
<g id="edge5_Node000004_Node000003" class="edge">
<title>Node4&#45;&gt;Node3</title>
<g id="a_edge5_Node000004_Node000003"><a xlink:title=" ">
<path fill="none" stroke="#63b8ff" d="M189.95,-111.59C199.27,-103.85 212.7,-92.69 223.8,-83.47"/>
<polygon fill="#63b8ff" stroke="#63b8ff" points="225.81,-86.35 231.27,-77.27 221.34,-80.96 225.81,-86.35"/>
</a>
</g>
</g>
<!-- Node5 -->
<g id="Node000005" class="node">
<title>Node5</title>
<g id="a_Node000005"><a xlink:title=" ">
<polygon fill="#e0e0e0" stroke="#999999" points="253.5,-20 197.75,-20 197.75,0 253.5,0 253.5,-20"/>
<text text-anchor="middle" x="225.62" y="-6.5" font-family="Helvetica,sans-Serif" font-size="10.00">stdbool.h</text>
</a>
</g>
</g>
<!-- Node4&#45;&gt;Node5 -->
<g id="edge6_Node000004_Node000005" class="edge">
<title>Node4&#45;&gt;Node5</title>
<g id="a_edge6_Node000004_Node000005"><a xlink:title=" ">
<path fill="none" stroke="#63b8ff" d="M182.63,-111.62C190.26,-93.76 207.03,-54.53 217.22,-30.67"/>
<polygon fill="#63b8ff" stroke="#63b8ff" points="220.32,-32.32 221.03,-21.75 213.89,-29.57 220.32,-32.32"/>
</a>
</g>
</g>
<!-- Node7 -->
<g id="Node000007" class="node">
<title>Node7</title>
<g id="a_Node000007"><a xlink:href="memoizer_8h.html" target="_top" xlink:title="Definice typu reprezentující memoizační funktor.">
<polygon fill="white" stroke="#666666" points="156.12,-76 89.12,-76 89.12,-56 156.12,-56 156.12,-76"/>
<text text-anchor="middle" x="122.62" y="-62.5" font-family="Helvetica,sans-Serif" font-size="10.00">memoizer.h</text>
</a>
</g>
</g>
<!-- Node6&#45;&gt;Node7 -->
<g id="edge8_Node000006_Node000007" class="edge">
<title>Node6&#45;&gt;Node7</title>
<g id="a_edge8_Node000006_Node000007"><a xlink:title=" ">
<path fill="none" stroke="#63b8ff" d="M93.72,-111.59C98.34,-104.47 104.83,-94.45 110.49,-85.72"/>
<polygon fill="#63b8ff" stroke="#63b8ff" points="113.27,-87.86 115.78,-77.57 107.4,-84.06 113.27,-87.86"/>
</a>
</g>
</g>
<!-- Node7&#45;&gt;Node2 -->
<g id="edge9_Node000007_Node000002" class="edge">
<title>Node7&#45;&gt;Node2</title>
<g id="a_edge9_Node000007_Node000002"><a xlink:title=" ">
<path fill="none" stroke="#63b8ff" d="M105.21,-55.59C89.96,-47.36 67.55,-35.26 49.92,-25.74"/>
<polygon fill="#63b8ff" stroke="#63b8ff" points="51.97,-22.87 41.51,-21.2 48.65,-29.03 51.97,-22.87"/>
</a>
</g>
</g>
<!-- Node7&#45;&gt;Node5 -->
<g id="edge11_Node000007_Node000005" class="edge">
<title>Node7&#45;&gt;Node5</title>
<g id="a_edge11_Node000007_Node000005"><a xlink:title=" ">
<path fill="none" stroke="#63b8ff" d="M140.57,-55.59C156.27,-47.36 179.36,-35.26 197.51,-25.74"/>
<polygon fill="#63b8ff" stroke="#63b8ff" points="198.97,-28.93 206.2,-21.18 195.72,-22.73 198.97,-28.93"/>
</a>
</g>
</g>
<!-- Node8 -->
<g id="Node000008" class="node">
<title>Node8</title>
<g id="a_Node000008"><a xlink:title=" ">
<polygon fill="#e0e0e0" stroke="#999999" points="110.38,-20 62.88,-20 62.88,0 110.38,0 110.38,-20"/>
<text text-anchor="middle" x="86.62" y="-6.5" font-family="Helvetica,sans-Serif" font-size="10.00">stdlib.h</text>
</a>
</g>
</g>
<!-- Node7&#45;&gt;Node8 -->
<g id="edge10_Node000007_Node000008" class="edge">
<title>Node7&#45;&gt;Node8</title>
<g id="a_edge10_Node000007_Node000008"><a xlink:title=" ">
<path fill="none" stroke="#63b8ff" d="M116.35,-55.59C111.61,-48.47 104.93,-38.45 99.1,-29.72"/>
<polygon fill="#63b8ff" stroke="#63b8ff" points="102.12,-27.94 93.66,-21.56 96.3,-31.82 102.12,-27.94"/>
</a>
</g>
</g>
<!-- Node9 -->
<g id="Node000009" class="node">
<title>Node9</title>
<g id="a_Node000009"><a xlink:title=" ">
<polygon fill="#e0e0e0" stroke="#999999" points="179.25,-20 128,-20 128,0 179.25,0 179.25,-20"/>
<text text-anchor="middle" x="153.62" y="-6.5" font-family="Helvetica,sans-Serif" font-size="10.00">assert.h</text>
</a>
</g>
</g>
<!-- Node7&#45;&gt;Node9 -->
<g id="edge12_Node000007_Node000009" class="edge">
<title>Node7&#45;&gt;Node9</title>
<g id="a_edge12_Node000007_Node000009"><a xlink:title=" ">
<path fill="none" stroke="#63b8ff" d="M128.02,-55.59C132.07,-48.55 137.74,-38.67 142.72,-30"/>
<polygon fill="#63b8ff" stroke="#63b8ff" points="145.59,-32.03 147.53,-21.61 139.52,-28.54 145.59,-32.03"/>
</a>
</g>
</g>
</g>
</svg>
