<?xml version="1.0" encoding="UTF-8" standalone="no"?>
<!DOCTYPE svg PUBLIC "-//W3C//DTD SVG 1.1//EN"
 "http://www.w3.org/Graphics/SVG/1.1/DTD/svg11.dtd">
<!-- Generated by graphviz version 11.0.0 (20240428.1522)
 -->
<!-- Title: TMemoizer Pages: 1 -->
<svg width="256pt" height="282pt"
 viewBox="0.00 0.00 255.50 282.00" xmlns="http://www.w3.org/2000/svg" xmlns:xlink="http://www.w3.org/1999/xlink">
<g id="graph0" class="graph" transform="scale(1 1) rotate(0) translate(4 278)">
<title>TMemoizer</title>
<!-- Node1 -->
<g id="Node000001" class="node">
<title>Node1</title>
<g id="a_Node000001"><a xlink:title="Definice typu TMemoizer.">
<polygon fill="#999999" stroke="none" points="209.5,-128 41.5,-128 41.5,0 209.5,0 209.5,-128"/>
<text text-anchor="start" x="101.5" y="-114.5" font-family="Helvetica,sans-Serif" font-size="10.00">TMemoizer</text>
<text text-anchor="start" x="45.5" y="-98.5" font-family="Helvetica,sans-Serif" font-size="10.00">+</text>
<text text-anchor="start" x="55.5" y="-98.5" font-family="Helvetica,sans-Serif" font-size="10.00">TMemoizedFunc * iMemoizedFunc</text>
<text text-anchor="start" x="45.5" y="-82.5" font-family="Helvetica,sans-Serif" font-size="10.00">+</text>
<text text-anchor="start" x="55.5" y="-82.5" font-family="Helvetica,sans-Serif" font-size="10.00">size_t iCapacity</text>
<text text-anchor="start" x="45.5" y="-66.5" font-family="Helvetica,sans-Serif" font-size="10.00">+</text>
<text text-anchor="start" x="55.5" y="-66.5" font-family="Helvetica,sans-Serif" font-size="10.00">size_t iPos</text>
<text text-anchor="start" x="45.5" y="-50.5" font-family="Helvetica,sans-Serif" font-size="10.00">+</text>
<text text-anchor="start" x="55.5" y="-50.5" font-family="Helvetica,sans-Serif" font-size="10.00">size_t iSize</text>
<text text-anchor="start" x="45.5" y="-34.5" font-family="Helvetica,sans-Serif" font-size="10.00">+</text>
<text text-anchor="start" x="55.5" y="-34.5" font-family="Helvetica,sans-Serif" font-size="10.00">TMemoizedFuncOutput</text>
<text text-anchor="start" x="55.5" y="-22.5" font-family="Helvetica,sans-Serif" font-size="10.00"> iTmpOutput</text>
<text text-anchor="start" x="124" y="-6.5" font-family="Helvetica,sans-Serif" font-size="10.00"> </text>
<polygon fill="#666666" stroke="#666666" points="41.5,-110 41.5,-110 209.5,-110 209.5,-110 41.5,-110"/>
<polygon fill="#666666" stroke="#666666" points="41.5,-18 41.5,-18 53.5,-18 53.5,-18 41.5,-18"/>
<polygon fill="#666666" stroke="#666666" points="53.5,-18 53.5,-18 209.5,-18 209.5,-18 53.5,-18"/>
<polygon fill="none" stroke="#666666" points="41.5,0 41.5,-128 209.5,-128 209.5,0 41.5,0"/>
</a>
</g>
</g>
<!-- Node2 -->
<g id="Node000002" class="node">
<title>Node2</title>
<g id="a_Node000002"><a xlink:href="group___t_memoizer.html#struct_t_memoizer_item" target="_top" xlink:title="Definice typu TMemoizerItem.">
<polygon fill="white" stroke="none" points="119,-274 0,-274 0,-182 119,-182 119,-274"/>
<text text-anchor="start" x="26.12" y="-260.5" font-family="Helvetica,sans-Serif" font-size="10.00">TMemoizerItem</text>
<text text-anchor="start" x="4" y="-244.5" font-family="Helvetica,sans-Serif" font-size="10.00">+</text>
<text text-anchor="start" x="14" y="-244.5" font-family="Helvetica,sans-Serif" font-size="10.00">TMemoizedFuncInput</text>
<text text-anchor="start" x="14" y="-232.5" font-family="Helvetica,sans-Serif" font-size="10.00"> iInput</text>
<text text-anchor="start" x="4" y="-216.5" font-family="Helvetica,sans-Serif" font-size="10.00">+</text>
<text text-anchor="start" x="14" y="-216.5" font-family="Helvetica,sans-Serif" font-size="10.00">TMemoizedFuncOutput</text>
<text text-anchor="start" x="14" y="-204.5" font-family="Helvetica,sans-Serif" font-size="10.00"> iOutput</text>
<text text-anchor="start" x="58" y="-188.5" font-family="Helvetica,sans-Serif" font-size="10.00"> </text>
<polygon fill="#666666" stroke="#666666" points="0,-256 0,-256 119,-256 119,-256 0,-256"/>
<polygon fill="#666666" stroke="#666666" points="0,-200 0,-200 12,-200 12,-200 0,-200"/>
<polygon fill="#666666" stroke="#666666" points="12,-200 12,-200 119,-200 119,-200 12,-200"/>
<polygon fill="none" stroke="#666666" points="0,-182 0,-274 119,-274 119,-182 0,-182"/>
</a>
</g>
</g>
<!-- Node2&#45;&gt;Node1 -->
<g id="edge1_Node000001_Node000002" class="edge">
<title>Node2&#45;&gt;Node1</title>
<g id="a_edge1_Node000001_Node000002"><a xlink:title=" ">
<path fill="none" stroke="#63b8ff" d="M77.71,-182.3C83.13,-169 89.22,-154.05 95.19,-139.39"/>
<polygon fill="none" stroke="#63b8ff" points="95.07,-139.69 93.63,-132.62 99.6,-128.57 101.04,-135.64 95.07,-139.69"/>
</a>
</g>
<text text-anchor="start" x="95.5" y="-151.5" font-family="Helvetica,sans-Serif" font-size="10.00" fill="grey">+iArchive</text>
</g>
<!-- Node3 -->
<g id="Node000003" class="node">
<title>Node3</title>
<g id="a_Node000003"><a xlink:href="group___t_memoizer.html#struct_t_memoizer_stats" target="_top" xlink:title="Definice typu MemoizerStats.">
<polygon fill="white" stroke="none" points="247.5,-262 137.5,-262 137.5,-194 247.5,-194 247.5,-262"/>
<text text-anchor="start" x="156.88" y="-248.5" font-family="Helvetica,sans-Serif" font-size="10.00">TMemoizerStats</text>
<text text-anchor="start" x="141.5" y="-232.5" font-family="Helvetica,sans-Serif" font-size="10.00">+</text>
<text text-anchor="start" x="151.5" y="-232.5" font-family="Helvetica,sans-Serif" font-size="10.00">size_t iMemoizations</text>
<text text-anchor="start" x="141.5" y="-216.5" font-family="Helvetica,sans-Serif" font-size="10.00">+</text>
<text text-anchor="start" x="151.5" y="-216.5" font-family="Helvetica,sans-Serif" font-size="10.00">size_t iCalculations</text>
<text text-anchor="start" x="191" y="-200.5" font-family="Helvetica,sans-Serif" font-size="10.00"> </text>
<polygon fill="#666666" stroke="#666666" points="137.5,-244 137.5,-244 247.5,-244 247.5,-244 137.5,-244"/>
<polygon fill="#666666" stroke="#666666" points="137.5,-212 137.5,-212 149.5,-212 149.5,-212 137.5,-212"/>
<polygon fill="#666666" stroke="#666666" points="149.5,-212 149.5,-212 247.5,-212 247.5,-212 149.5,-212"/>
<polygon fill="none" stroke="#666666" points="137.5,-194 137.5,-262 247.5,-262 247.5,-194 137.5,-194"/>
</a>
</g>
</g>
<!-- Node3&#45;&gt;Node1 -->
<g id="edge2_Node000001_Node000003" class="edge">
<title>Node3&#45;&gt;Node1</title>
<g id="a_edge2_Node000001_Node000003"><a xlink:title=" ">
<path fill="none" stroke="#63b8ff" d="M178.94,-194.22C172.42,-178.44 164.31,-158.84 156.4,-139.7"/>
<polygon fill="none" stroke="#63b8ff" points="156.44,-139.81 150.45,-135.79 151.85,-128.72 157.84,-132.74 156.44,-139.81"/>
</a>
</g>
<text text-anchor="start" x="167.5" y="-151.5" font-family="Helvetica,sans-Serif" font-size="10.00" fill="grey">+iStats</text>
</g>
</g>
</svg>
