<?xml version="1.0" encoding="UTF-8" standalone="no"?>
<!DOCTYPE svg PUBLIC "-//W3C//DTD SVG 1.1//EN"
 "http://www.w3.org/Graphics/SVG/1.1/DTD/svg11.dtd">
<!-- Generated by graphviz version 11.0.0 (20240428.1522)
 -->
<!-- Title: TVector.h Pages: 1 -->
<svg width="331pt" height="140pt"
 viewBox="0.00 0.00 330.88 140.00" xmlns="http://www.w3.org/2000/svg" xmlns:xlink="http://www.w3.org/1999/xlink">
<g id="graph0" class="graph" transform="scale(1 1) rotate(0) translate(4 136)">
<title>TVector.h</title>
<!-- Node1 -->
<g id="Node000001" class="node">
<title>Node1</title>
<g id="a_Node000001"><a xlink:title="Definice typu Basic Vector.">
<polygon fill="#999999" stroke="#666666" points="193.62,-132 135.62,-132 135.62,-112 193.62,-112 193.62,-132"/>
<text text-anchor="middle" x="164.62" y="-118.5" font-family="Helvetica,sans-Serif" font-size="10.00">TVector.h</text>
</a>
</g>
</g>
<!-- Node2 -->
<g id="Node000002" class="node">
<title>Node2</title>
<g id="a_Node000002"><a xlink:title=" ">
<polygon fill="#e0e0e0" stroke="#999999" points="45.25,-20 0,-20 0,0 45.25,0 45.25,-20"/>
<text text-anchor="middle" x="22.62" y="-6.5" font-family="Helvetica,sans-Serif" font-size="10.00">stdio.h</text>
</a>
</g>
</g>
<!-- Node1&#45;&gt;Node2 -->
<g id="edge1_Node000001_Node000002" class="edge">
<title>Node1&#45;&gt;Node2</title>
<g id="a_edge1_Node000001_Node000002"><a xlink:title=" ">
<path fill="none" stroke="#63b8ff" d="M148.28,-111.53C133.76,-102.88 112.18,-89.43 94.62,-76 74.91,-60.92 54.02,-41.66 39.86,-28.03"/>
<polygon fill="#63b8ff" stroke="#63b8ff" points="42.67,-25.88 33.06,-21.41 37.78,-30.89 42.67,-25.88"/>
</a>
</g>
</g>
<!-- Node3 -->
<g id="Node000003" class="node">
<title>Node3</title>
<g id="a_Node000003"><a xlink:title=" ">
<polygon fill="#e0e0e0" stroke="#999999" points="119.5,-20 63.75,-20 63.75,0 119.5,0 119.5,-20"/>
<text text-anchor="middle" x="91.62" y="-6.5" font-family="Helvetica,sans-Serif" font-size="10.00">stdbool.h</text>
</a>
</g>
</g>
<!-- Node1&#45;&gt;Node3 -->
<g id="edge2_Node000001_Node000003" class="edge">
<title>Node1&#45;&gt;Node3</title>
<g id="a_edge2_Node000001_Node000003"><a xlink:title=" ">
<path fill="none" stroke="#63b8ff" d="M147.72,-111.52C135.12,-103.6 118.46,-91.18 108.62,-76 99.89,-62.51 95.63,-44.71 93.56,-31.14"/>
<polygon fill="#63b8ff" stroke="#63b8ff" points="97.09,-31.13 92.4,-21.63 90.14,-31.98 97.09,-31.13"/>
</a>
</g>
</g>
<!-- Node4 -->
<g id="Node000004" class="node">
<title>Node4</title>
<g id="a_Node000004"><a xlink:title=" ">
<polygon fill="#e0e0e0" stroke="#999999" points="317.88,-76 267.38,-76 267.38,-56 317.88,-56 317.88,-76"/>
<text text-anchor="middle" x="292.62" y="-62.5" font-family="Helvetica,sans-Serif" font-size="10.00">stddef.h</text>
</a>
</g>
</g>
<!-- Node1&#45;&gt;Node4 -->
<g id="edge3_Node000001_Node000004" class="edge">
<title>Node1&#45;&gt;Node4</title>
<g id="a_edge3_Node000001_Node000004"><a xlink:title=" ">
<path fill="none" stroke="#63b8ff" d="M186.92,-111.59C206.99,-103.13 236.74,-90.58 259.58,-80.94"/>
<polygon fill="#63b8ff" stroke="#63b8ff" points="260.91,-84.18 268.76,-77.07 258.19,-77.73 260.91,-84.18"/>
</a>
</g>
</g>
<!-- Node5 -->
<g id="Node000005" class="node">
<title>Node5</title>
<g id="a_Node000005"><a xlink:href="_t_vector_element_8h.html" target="_top" xlink:title="Definice typu Basic VectorElement a implementace API.">
<polygon fill="white" stroke="#666666" points="211.62,-76 117.62,-76 117.62,-56 211.62,-56 211.62,-76"/>
<text text-anchor="middle" x="164.62" y="-62.5" font-family="Helvetica,sans-Serif" font-size="10.00">TVectorElement.h</text>
</a>
</g>
</g>
<!-- Node1&#45;&gt;Node5 -->
<g id="edge4_Node000001_Node000005" class="edge">
<title>Node1&#45;&gt;Node5</title>
<g id="a_edge4_Node000001_Node000005"><a xlink:title=" ">
<path fill="none" stroke="#63b8ff" d="M164.62,-111.59C164.62,-105.01 164.62,-95.96 164.62,-87.73"/>
<polygon fill="#63b8ff" stroke="#63b8ff" points="168.13,-87.81 164.63,-77.81 161.13,-87.81 168.13,-87.81"/>
</a>
</g>
</g>
<!-- Node8 -->
<g id="Node000008" class="node">
<title>Node8</title>
<g id="a_Node000008"><a xlink:title=" ">
<polygon fill="#e0e0e0" stroke="#999999" points="322.88,-20 272.38,-20 272.38,0 322.88,0 322.88,-20"/>
<text text-anchor="middle" x="297.62" y="-6.5" font-family="Helvetica,sans-Serif" font-size="10.00">check.h</text>
</a>
</g>
</g>
<!-- Node1&#45;&gt;Node8 -->
<g id="edge10_Node000001_Node000008" class="edge">
<title>Node1&#45;&gt;Node8</title>
<g id="a_edge10_Node000001_Node000008"><a xlink:title=" ">
<path fill="none" stroke="#63b8ff" d="M176.27,-111.77C187.65,-102.73 205.41,-88.53 220.62,-76 240.31,-59.79 262.54,-40.97 278.03,-27.76"/>
<polygon fill="#63b8ff" stroke="#63b8ff" points="280.24,-30.48 285.58,-21.32 275.7,-25.15 280.24,-30.48"/>
</a>
</g>
</g>
<!-- Node5&#45;&gt;Node2 -->
<g id="edge5_Node000005_Node000002" class="edge">
<title>Node5&#45;&gt;Node2</title>
<g id="a_edge5_Node000005_Node000002"><a xlink:title=" ">
<path fill="none" stroke="#63b8ff" d="M139.89,-55.59C116.77,-46.8 82.06,-33.6 56.4,-23.84"/>
<polygon fill="#63b8ff" stroke="#63b8ff" points="57.67,-20.58 47.08,-20.3 55.18,-27.13 57.67,-20.58"/>
</a>
</g>
</g>
<!-- Node5&#45;&gt;Node3 -->
<g id="edge7_Node000005_Node000003" class="edge">
<title>Node5&#45;&gt;Node3</title>
<g id="a_edge7_Node000005_Node000003"><a xlink:title=" ">
<path fill="none" stroke="#63b8ff" d="M151.91,-55.59C141.23,-47.7 125.75,-36.24 113.14,-26.92"/>
<polygon fill="#63b8ff" stroke="#63b8ff" points="115.53,-24.33 105.41,-21.2 111.37,-29.96 115.53,-24.33"/>
</a>
</g>
</g>
<!-- Node6 -->
<g id="Node000006" class="node">
<title>Node6</title>
<g id="a_Node000006"><a xlink:title=" ">
<polygon fill="#e0e0e0" stroke="#999999" points="254.38,-20 206.88,-20 206.88,0 254.38,0 254.38,-20"/>
<text text-anchor="middle" x="230.62" y="-6.5" font-family="Helvetica,sans-Serif" font-size="10.00">stdlib.h</text>
</a>
</g>
</g>
<!-- Node5&#45;&gt;Node6 -->
<g id="edge6_Node000005_Node000006" class="edge">
<title>Node5&#45;&gt;Node6</title>
<g id="a_edge6_Node000005_Node000006"><a xlink:title=" ">
<path fill="none" stroke="#63b8ff" d="M176.12,-55.59C185.59,-47.85 199.23,-36.69 210.5,-27.47"/>
<polygon fill="#63b8ff" stroke="#63b8ff" points="212.57,-30.3 218.09,-21.26 208.13,-24.88 212.57,-30.3"/>
</a>
</g>
</g>
<!-- Node7 -->
<g id="Node000007" class="node">
<title>Node7</title>
<g id="a_Node000007"><a xlink:title=" ">
<polygon fill="#e0e0e0" stroke="#999999" points="189.25,-20 138,-20 138,0 189.25,0 189.25,-20"/>
<text text-anchor="middle" x="163.62" y="-6.5" font-family="Helvetica,sans-Serif" font-size="10.00">assert.h</text>
</a>
</g>
</g>
<!-- Node5&#45;&gt;Node7 -->
<g id="edge8_Node000005_Node000007" class="edge">
<title>Node5&#45;&gt;Node7</title>
<g id="a_edge8_Node000005_Node000007"><a xlink:title=" ">
<path fill="none" stroke="#63b8ff" d="M164.45,-55.59C164.33,-49.01 164.16,-39.96 164.01,-31.73"/>
<polygon fill="#63b8ff" stroke="#63b8ff" points="167.51,-31.75 163.83,-21.81 160.51,-31.87 167.51,-31.75"/>
</a>
</g>
</g>
<!-- Node5&#45;&gt;Node8 -->
<g id="edge9_Node000005_Node000008" class="edge">
<title>Node5&#45;&gt;Node8</title>
<g id="a_edge9_Node000005_Node000008"><a xlink:title=" ">
<path fill="none" stroke="#63b8ff" d="M187.79,-55.59C208.83,-47.05 240.12,-34.35 263.93,-24.68"/>
<polygon fill="#63b8ff" stroke="#63b8ff" points="264.93,-28.05 272.88,-21.05 262.29,-21.57 264.93,-28.05"/>
</a>
</g>
</g>
</g>
</svg>
