<?xml version="1.0" encoding="UTF-8" standalone="no"?>
<!DOCTYPE svg PUBLIC "-//W3C//DTD SVG 1.1//EN"
 "http://www.w3.org/Graphics/SVG/1.1/DTD/svg11.dtd">
<!-- Generated by graphviz version 11.0.0 (20240428.1522)
 -->
<!-- Title: TVector.h Pages: 1 -->
<svg width="130pt" height="84pt"
 viewBox="0.00 0.00 129.62 84.00" xmlns="http://www.w3.org/2000/svg" xmlns:xlink="http://www.w3.org/1999/xlink">
<g id="graph0" class="graph" transform="scale(1 1) rotate(0) translate(4 80)">
<title>TVector.h</title>
<!-- Node1 -->
<g id="Node000001" class="node">
<title>Node1</title>
<g id="a_Node000001"><a xlink:title="Definice typu Basic Vector.">
<polygon fill="#999999" stroke="#666666" points="93,-76 35,-76 35,-56 93,-56 93,-76"/>
<text text-anchor="middle" x="64" y="-62.5" font-family="Helvetica,sans-Serif" font-size="10.00">TVector.h</text>
</a>
</g>
</g>
<!-- Node2 -->
<g id="Node000002" class="node">
<title>Node2</title>
<g id="a_Node000002"><a xlink:href="_t_vector_8c.html" target="_top" xlink:title="Implementace Basic Vector API.">
<polygon fill="white" stroke="#666666" points="58,-20 0,-20 0,0 58,0 58,-20"/>
<text text-anchor="middle" x="29" y="-6.5" font-family="Helvetica,sans-Serif" font-size="10.00">TVector.c</text>
</a>
</g>
</g>
<!-- Node1&#45;&gt;Node2 -->
<g id="edge1_Node000001_Node000002" class="edge">
<title>Node1&#45;&gt;Node2</title>
<g id="a_edge1_Node000001_Node000002"><a xlink:title=" ">
<path fill="none" stroke="#63b8ff" d="M51.78,-46.15C46.11,-37.4 39.62,-27.39 35.03,-20.3"/>
<polygon fill="#63b8ff" stroke="#63b8ff" points="48.7,-47.84 57.08,-54.32 54.58,-44.03 48.7,-47.84"/>
</a>
</g>
</g>
<!-- Node3 -->
<g id="Node000003" class="node">
<title>Node3</title>
<g id="a_Node000003"><a xlink:href="main_8c.html" target="_top" xlink:title="Hlavní program testující Basic Vector API.">
<polygon fill="white" stroke="#666666" points="121.62,-20 76.38,-20 76.38,0 121.62,0 121.62,-20"/>
<text text-anchor="middle" x="99" y="-6.5" font-family="Helvetica,sans-Serif" font-size="10.00">main.c</text>
</a>
</g>
</g>
<!-- Node1&#45;&gt;Node3 -->
<g id="edge2_Node000001_Node000003" class="edge">
<title>Node1&#45;&gt;Node3</title>
<g id="a_edge2_Node000001_Node000003"><a xlink:title=" ">
<path fill="none" stroke="#63b8ff" d="M76.22,-46.15C81.89,-37.4 88.38,-27.39 92.97,-20.3"/>
<polygon fill="#63b8ff" stroke="#63b8ff" points="73.42,-44.03 70.92,-54.32 79.3,-47.84 73.42,-44.03"/>
</a>
</g>
</g>
</g>
</svg>
