<?xml version="1.0" encoding="UTF-8" standalone="no"?>
<!DOCTYPE svg PUBLIC "-//W3C//DTD SVG 1.1//EN"
 "http://www.w3.org/Graphics/SVG/1.1/DTD/svg11.dtd">
<!-- Generated by graphviz version 11.0.0 (20240428.1522)
 -->
<!-- Title: vector_invariant Pages: 1 -->
<svg width="437pt" height="531pt"
 viewBox="0.00 0.00 437.25 530.85" xmlns="http://www.w3.org/2000/svg" xmlns:xlink="http://www.w3.org/1999/xlink">
<g id="graph0" class="graph" transform="scale(1 1) rotate(0) translate(4 526.85)">
<title>vector_invariant</title>
<!-- Node1 -->
<g id="Node000001" class="node">
<title>Node1</title>
<g id="a_Node000001"><a xlink:title=" ">
<polygon fill="#999999" stroke="#666666" points="429.25,-258.85 347.25,-258.85 347.25,-238.85 429.25,-238.85 429.25,-258.85"/>
<text text-anchor="middle" x="388.25" y="-245.35" font-family="Helvetica,sans-Serif" font-size="10.00">vector_invariant</text>
</a>
</g>
</g>
<!-- Node2 -->
<g id="Node000002" class="node">
<title>Node2</title>
<g id="a_Node000002"><a xlink:href="group___t_vector.html#ga6b0b8780d60dad02b8569be119769548" target="_top" xlink:title="Vytvoření úplné kopie vektoru.">
<polygon fill="white" stroke="#666666" points="293.62,-408.85 223.62,-408.85 223.62,-388.85 293.62,-388.85 293.62,-408.85"/>
<text text-anchor="middle" x="258.62" y="-395.35" font-family="Helvetica,sans-Serif" font-size="10.00">vector_clone</text>
</a>
</g>
</g>
<!-- Node1&#45;&gt;Node2 -->
<g id="edge1_Node000001_Node000002" class="edge">
<title>Node1&#45;&gt;Node2</title>
<g id="a_edge1_Node000001_Node000002"><a xlink:title=" ">
<path fill="none" stroke="#63b8ff" d="M379.25,-269.7C367.84,-297.02 344.53,-344.97 311.25,-374.85 305.07,-380.4 297.39,-384.89 289.86,-388.42"/>
<polygon fill="#63b8ff" stroke="#63b8ff" points="382.48,-271.04 382.96,-260.46 375.99,-268.43 382.48,-271.04"/>
</a>
</g>
</g>
<!-- Node5 -->
<g id="Node000005" class="node">
<title>Node5</title>
<g id="a_Node000005"><a xlink:href="group___t_vector.html#ga41fcff5418fe213f2caaa586f521bcd6" target="_top" xlink:title="Dealokace vektoru.">
<polygon fill="white" stroke="#666666" points="298.12,-522.85 219.12,-522.85 219.12,-502.85 298.12,-502.85 298.12,-522.85"/>
<text text-anchor="middle" x="258.62" y="-509.35" font-family="Helvetica,sans-Serif" font-size="10.00">vector_destroy</text>
</a>
</g>
</g>
<!-- Node1&#45;&gt;Node5 -->
<g id="edge4_Node000001_Node000005" class="edge">
<title>Node1&#45;&gt;Node5</title>
<g id="a_edge4_Node000001_Node000005"><a xlink:title=" ">
<path fill="none" stroke="#63b8ff" d="M386.68,-270.78C384.27,-317.92 372.07,-429.79 311.25,-493.85 307.63,-497.66 303.19,-500.71 298.44,-503.15"/>
<polygon fill="#63b8ff" stroke="#63b8ff" points="390.17,-270.94 387.07,-260.81 383.18,-270.67 390.17,-270.94"/>
</a>
</g>
</g>
<!-- Node6 -->
<g id="Node000006" class="node">
<title>Node6</title>
<g id="a_Node000006"><a xlink:href="group___t_vector.html#ga1eb7199db0e7fd0d114fbf2903f05ca5" target="_top" xlink:title="Alokace vektoru a inicializace jeho elementů na hodnotu 0.">
<polygon fill="white" stroke="#666666" points="288.38,-446.85 228.88,-446.85 228.88,-426.85 288.38,-426.85 288.38,-446.85"/>
<text text-anchor="middle" x="258.62" y="-433.35" font-family="Helvetica,sans-Serif" font-size="10.00">vector_init</text>
</a>
</g>
</g>
<!-- Node1&#45;&gt;Node6 -->
<g id="edge7_Node000001_Node000006" class="edge">
<title>Node1&#45;&gt;Node6</title>
<g id="a_edge7_Node000001_Node000006"><a xlink:title=" ">
<path fill="none" stroke="#63b8ff" d="M383.25,-270.15C375.51,-305.59 355.24,-376.84 311.25,-417.85 304.96,-423.71 296.72,-427.8 288.66,-430.64"/>
<polygon fill="#63b8ff" stroke="#63b8ff" points="386.61,-271.19 385.18,-260.7 379.75,-269.79 386.61,-271.19"/>
</a>
</g>
</g>
<!-- Node7 -->
<g id="Node000007" class="node">
<title>Node7</title>
<g id="a_Node000007"><a xlink:href="group___t_vector.html#gac0009a6c19dd42237bbb6af9897f2e44" target="_top" xlink:title="Alokace vektoru a inicializace jeho elementů ze souboru.">
<polygon fill="white" stroke="#666666" points="159.88,-286.85 83.12,-286.85 83.12,-266.85 159.88,-266.85 159.88,-286.85"/>
<text text-anchor="middle" x="121.5" y="-273.35" font-family="Helvetica,sans-Serif" font-size="10.00">vector_init_file</text>
</a>
</g>
</g>
<!-- Node1&#45;&gt;Node7 -->
<g id="edge8_Node000001_Node000007" class="edge">
<title>Node1&#45;&gt;Node7</title>
<g id="a_edge8_Node000001_Node000007"><a xlink:title=" ">
<path fill="none" stroke="#63b8ff" d="M377.45,-269.42C365.42,-291.98 342.68,-326.95 311.25,-341.85 268.98,-361.9 250.24,-357.04 206,-341.85 174.38,-330.99 145.51,-302.72 131.47,-287.28"/>
<polygon fill="#63b8ff" stroke="#63b8ff" points="380.54,-271.06 381.94,-260.56 374.3,-267.9 380.54,-271.06"/>
</a>
</g>
</g>
<!-- Node8 -->
<g id="Node000008" class="node">
<title>Node8</title>
<g id="a_Node000008"><a xlink:href="group___t_vector.html#ga088d8ae405d0c100abe583c583d27ed3" target="_top" xlink:title="Alokace vektoru a inicializace jeho elementů na náhodné hodnoty.">
<polygon fill="white" stroke="#666666" points="170,-164.85 73,-164.85 73,-144.85 170,-144.85 170,-164.85"/>
<text text-anchor="middle" x="121.5" y="-151.35" font-family="Helvetica,sans-Serif" font-size="10.00">vector_init_random</text>
</a>
</g>
</g>
<!-- Node1&#45;&gt;Node8 -->
<g id="edge10_Node000001_Node000008" class="edge">
<title>Node1&#45;&gt;Node8</title>
<g id="a_edge10_Node000001_Node000008"><a xlink:title=" ">
<path fill="none" stroke="#63b8ff" d="M373.55,-229.17C359.98,-211.38 337.45,-186.17 311.25,-173.85 266.69,-152.9 209.81,-149.94 170.19,-151.1"/>
<polygon fill="#63b8ff" stroke="#63b8ff" points="370.68,-231.17 379.41,-237.17 376.33,-227.03 370.68,-231.17"/>
</a>
</g>
</g>
<!-- Node9 -->
<g id="Node000009" class="node">
<title>Node9</title>
<g id="a_Node000009"><a xlink:href="group___t_vector_iterator.html#ga40d7eff2ece0eb356d27cdcdef255560" target="_top" xlink:title="Vytvoření nového iterátoru ukazujícího na počáteční element.">
<polygon fill="white" stroke="#666666" points="311.25,-314.85 206,-314.85 206,-294.85 311.25,-294.85 311.25,-314.85"/>
<text text-anchor="middle" x="258.62" y="-301.35" font-family="Helvetica,sans-Serif" font-size="10.00">vector_iterator_begin</text>
</a>
</g>
</g>
<!-- Node1&#45;&gt;Node9 -->
<g id="edge12_Node000001_Node000009" class="edge">
<title>Node1&#45;&gt;Node9</title>
<g id="a_edge12_Node000001_Node000009"><a xlink:title=" ">
<path fill="none" stroke="#63b8ff" d="M357.23,-264.33C343.38,-271.25 326.63,-279.3 311.25,-285.85 304.31,-288.81 296.74,-291.75 289.58,-294.41"/>
<polygon fill="#63b8ff" stroke="#63b8ff" points="358.48,-267.62 365.83,-259.99 355.33,-261.37 358.48,-267.62"/>
</a>
</g>
</g>
<!-- Node10 -->
<g id="Node000010" class="node">
<title>Node10</title>
<g id="a_Node000010"><a xlink:href="group___t_vector_iterator.html#ga6c42552246c50cfa270c3eb0f58c239a" target="_top" xlink:title="Vytvoření nového iterátoru ukazujícího na poslední element.">
<polygon fill="white" stroke="#666666" points="307.5,-258.85 209.75,-258.85 209.75,-238.85 307.5,-238.85 307.5,-258.85"/>
<text text-anchor="middle" x="258.62" y="-245.35" font-family="Helvetica,sans-Serif" font-size="10.00">vector_iterator_last</text>
</a>
</g>
</g>
<!-- Node1&#45;&gt;Node10 -->
<g id="edge14_Node000001_Node000010" class="edge">
<title>Node1&#45;&gt;Node10</title>
<g id="a_edge14_Node000001_Node000010"><a xlink:title=" ">
<path fill="none" stroke="#63b8ff" d="M335.51,-248.85C326.35,-248.85 316.84,-248.85 307.78,-248.85"/>
<polygon fill="#63b8ff" stroke="#63b8ff" points="335.36,-252.35 345.36,-248.85 335.36,-245.35 335.36,-252.35"/>
</a>
</g>
</g>
<!-- Node11 -->
<g id="Node000011" class="node">
<title>Node11</title>
<g id="a_Node000011"><a xlink:href="group___t_vector_iterator.html#ga133f7ac7efd8456d0964bf8fcd2995e6" target="_top" xlink:title="Vytvoření nového iterátoru ukazujícího na zadanou pozici.">
<polygon fill="white" stroke="#666666" points="307.5,-202.85 209.75,-202.85 209.75,-182.85 307.5,-182.85 307.5,-202.85"/>
<text text-anchor="middle" x="258.62" y="-189.35" font-family="Helvetica,sans-Serif" font-size="10.00">vector_iterator_pos</text>
</a>
</g>
</g>
<!-- Node1&#45;&gt;Node11 -->
<g id="edge16_Node000001_Node000011" class="edge">
<title>Node1&#45;&gt;Node11</title>
<g id="a_edge16_Node000001_Node000011"><a xlink:title=" ">
<path fill="none" stroke="#63b8ff" d="M353.25,-233.93C331.14,-224.23 302.87,-211.83 283.2,-203.2"/>
<polygon fill="#63b8ff" stroke="#63b8ff" points="351.59,-237.03 362.16,-237.84 354.41,-230.62 351.59,-237.03"/>
</a>
</g>
</g>
<!-- Node12 -->
<g id="Node000012" class="node">
<title>Node12</title>
<g id="a_Node000012"><a xlink:href="group___t_vector.html#gabf502ae8257c371ab9c7fb95a242ccb2" target="_top" xlink:title="Změna velikosti existujícího vektoru.">
<polygon fill="white" stroke="#666666" points="295.12,-484.85 222.12,-484.85 222.12,-464.85 295.12,-464.85 295.12,-484.85"/>
<text text-anchor="middle" x="258.62" y="-471.35" font-family="Helvetica,sans-Serif" font-size="10.00">vector_resize</text>
</a>
</g>
</g>
<!-- Node1&#45;&gt;Node12 -->
<g id="edge18_Node000001_Node000012" class="edge">
<title>Node1&#45;&gt;Node12</title>
<g id="a_edge18_Node000001_Node000012"><a xlink:title=" ">
<path fill="none" stroke="#63b8ff" d="M385.24,-270.46C380.24,-311.98 363.62,-403.45 311.25,-455.85 306.79,-460.31 301.21,-463.73 295.36,-466.36"/>
<polygon fill="#63b8ff" stroke="#63b8ff" points="388.71,-270.88 386.3,-260.56 381.75,-270.13 388.71,-270.88"/>
</a>
</g>
</g>
<!-- Node13 -->
<g id="Node000013" class="node">
<title>Node13</title>
<g id="a_Node000013"><a xlink:href="group___t_vector.html#gabd5ba54950295545d27b1286234ead39" target="_top" xlink:title="Zapsání hodnoty elementu do vektoru na požadovanou pozici.">
<polygon fill="white" stroke="#666666" points="302.25,-126.85 215,-126.85 215,-106.85 302.25,-106.85 302.25,-126.85"/>
<text text-anchor="middle" x="258.62" y="-113.35" font-family="Helvetica,sans-Serif" font-size="10.00">vector_set_value</text>
</a>
</g>
</g>
<!-- Node1&#45;&gt;Node13 -->
<g id="edge20_Node000001_Node000013" class="edge">
<title>Node1&#45;&gt;Node13</title>
<g id="a_edge20_Node000001_Node000013"><a xlink:title=" ">
<path fill="none" stroke="#63b8ff" d="M377.23,-228.61C364.63,-204.91 341.01,-165.74 311.25,-140.85 304.73,-135.4 296.76,-130.9 289.06,-127.33"/>
<polygon fill="#63b8ff" stroke="#63b8ff" points="373.98,-229.95 381.67,-237.24 380.21,-226.75 373.98,-229.95"/>
</a>
</g>
</g>
<!-- Node14 -->
<g id="Node000014" class="node">
<title>Node14</title>
<g id="a_Node000014"><a xlink:href="group___t_vector.html#ga2502e6ec116dbac5e49f5b62b07dc898" target="_top" xlink:title="Přečtení počtu elementů vektoru.">
<polygon fill="white" stroke="#666666" points="291,-88.85 226.25,-88.85 226.25,-68.85 291,-68.85 291,-88.85"/>
<text text-anchor="middle" x="258.62" y="-75.35" font-family="Helvetica,sans-Serif" font-size="10.00">vector_size</text>
</a>
</g>
</g>
<!-- Node1&#45;&gt;Node14 -->
<g id="edge21_Node000001_Node000014" class="edge">
<title>Node1&#45;&gt;Node14</title>
<g id="a_edge21_Node000001_Node000014"><a xlink:title=" ">
<path fill="none" stroke="#63b8ff" d="M381.96,-227.56C372.86,-195.18 351.25,-133.55 311.25,-97.85 305.62,-92.83 298.55,-89.1 291.46,-86.34"/>
<polygon fill="#63b8ff" stroke="#63b8ff" points="378.51,-228.2 384.46,-236.97 385.27,-226.4 378.51,-228.2"/>
</a>
</g>
</g>
<!-- Node16 -->
<g id="Node000016" class="node">
<title>Node16</title>
<g id="a_Node000016"><a xlink:href="group___t_vector.html#gabc5c4a8f6f5f38932380f5e475ce862f" target="_top" xlink:title="Uložení vektoru a jeho elementů do souboru.">
<polygon fill="white" stroke="#666666" points="301.5,-50.85 215.75,-50.85 215.75,-30.85 301.5,-30.85 301.5,-50.85"/>
<text text-anchor="middle" x="258.62" y="-37.35" font-family="Helvetica,sans-Serif" font-size="10.00">vector_store_file</text>
</a>
</g>
</g>
<!-- Node1&#45;&gt;Node16 -->
<g id="edge25_Node000001_Node000016" class="edge">
<title>Node1&#45;&gt;Node16</title>
<g id="a_edge25_Node000001_Node000016"><a xlink:title=" ">
<path fill="none" stroke="#63b8ff" d="M384.36,-227.26C378.07,-188.5 359.58,-106.77 311.25,-59.85 307.69,-56.39 303.44,-53.56 298.94,-51.23"/>
<polygon fill="#63b8ff" stroke="#63b8ff" points="380.9,-227.78 385.83,-237.15 387.82,-226.75 380.9,-227.78"/>
</a>
</g>
</g>
<!-- Node17 -->
<g id="Node000017" class="node">
<title>Node17</title>
<g id="a_Node000017"><a xlink:href="group___t_vector.html#ga2b08236d9825632cd96bcc89faed929c" target="_top" xlink:title="Přečtení hodnoty elementu z vektoru na požadované pozici.">
<polygon fill="white" stroke="#666666" points="155.75,-31.85 87.25,-31.85 87.25,-11.85 155.75,-11.85 155.75,-31.85"/>
<text text-anchor="middle" x="121.5" y="-18.35" font-family="Helvetica,sans-Serif" font-size="10.00">vector_value</text>
</a>
</g>
</g>
<!-- Node1&#45;&gt;Node17 -->
<g id="edge26_Node000001_Node000017" class="edge">
<title>Node1&#45;&gt;Node17</title>
<g id="a_edge26_Node000001_Node000017"><a xlink:title=" ">
<path fill="none" stroke="#63b8ff" d="M387.61,-227.15C387.05,-180.32 378.31,-70.12 311.25,-21.85 265.24,11.26 195.22,-0.38 154.65,-11.41"/>
<polygon fill="#63b8ff" stroke="#63b8ff" points="384.11,-227.06 387.59,-237.06 391.11,-227.07 384.11,-227.06"/>
</a>
</g>
</g>
<!-- Node3 -->
<g id="Node000003" class="node">
<title>Node3</title>
<g id="a_Node000003"><a xlink:href="group___main_program.html#ga389209d8bde0a8922177efb8ed7a22a6" target="_top" xlink:title="Testování funkce vector_resize().">
<polygon fill="white" stroke="#666666" points="159.88,-446.85 83.12,-446.85 83.12,-426.85 159.88,-426.85 159.88,-446.85"/>
<text text-anchor="middle" x="121.5" y="-433.35" font-family="Helvetica,sans-Serif" font-size="10.00">resize_testing</text>
</a>
</g>
</g>
<!-- Node2&#45;&gt;Node3 -->
<g id="edge2_Node000002_Node000003" class="edge">
<title>Node2&#45;&gt;Node3</title>
<g id="a_edge2_Node000002_Node000003"><a xlink:title=" ">
<path fill="none" stroke="#63b8ff" d="M212.31,-411.6C195.22,-416.4 176,-421.81 159.73,-426.38"/>
<polygon fill="#63b8ff" stroke="#63b8ff" points="213.04,-415.03 221.72,-408.95 211.15,-408.29 213.04,-415.03"/>
</a>
</g>
</g>
<!-- Node4 -->
<g id="Node000004" class="node">
<title>Node4</title>
<g id="a_Node000004"><a xlink:href="group___main_program.html#ga0ddf1224851353fc92bfbff6f499fa97" target="_top" xlink:title=" ">
<polygon fill="white" stroke="#666666" points="37,-164.85 0,-164.85 0,-144.85 37,-144.85 37,-164.85"/>
<text text-anchor="middle" x="18.5" y="-151.35" font-family="Helvetica,sans-Serif" font-size="10.00">main</text>
</a>
</g>
</g>
<!-- Node3&#45;&gt;Node4 -->
<g id="edge3_Node000003_Node000004" class="edge">
<title>Node3&#45;&gt;Node4</title>
<g id="a_edge3_Node000003_Node000004"><a xlink:title=" ">
<path fill="none" stroke="#63b8ff" d="M112.92,-415.7C92.71,-359.27 38.06,-206.68 23.25,-165.32"/>
<polygon fill="#63b8ff" stroke="#63b8ff" points="109.61,-416.82 116.28,-425.06 116.2,-414.46 109.61,-416.82"/>
</a>
</g>
</g>
<!-- Node5&#45;&gt;Node3 -->
<g id="edge6_Node000005_Node000003" class="edge">
<title>Node5&#45;&gt;Node3</title>
<g id="a_edge6_Node000005_Node000003"><a xlink:title=" ">
<path fill="none" stroke="#63b8ff" d="M214.93,-498.09C211.87,-496.75 208.87,-495.33 206,-493.85 179.48,-480.18 151.36,-459.53 135.46,-447.2"/>
<polygon fill="#63b8ff" stroke="#63b8ff" points="213.45,-501.27 224.03,-501.82 216.1,-494.79 213.45,-501.27"/>
</a>
</g>
</g>
<!-- Node5&#45;&gt;Node4 -->
<g id="edge5_Node000005_Node000004" class="edge">
<title>Node5&#45;&gt;Node4</title>
<g id="a_edge5_Node000005_Node000004"><a xlink:title=" ">
<path fill="none" stroke="#63b8ff" d="M207.47,-511.17C165.31,-506.95 106.7,-494 73,-455.85 33.47,-411.1 22.1,-212.5 19.92,-165.06"/>
<polygon fill="#63b8ff" stroke="#63b8ff" points="207.11,-514.65 217.38,-512.02 207.71,-507.68 207.11,-514.65"/>
</a>
</g>
</g>
<!-- Node7&#45;&gt;Node4 -->
<g id="edge9_Node000007_Node000004" class="edge">
<title>Node7&#45;&gt;Node4</title>
<g id="a_edge9_Node000007_Node000004"><a xlink:title=" ">
<path fill="none" stroke="#63b8ff" d="M104.74,-257.82C83.14,-231.72 45.07,-185.73 28.09,-165.23"/>
<polygon fill="#63b8ff" stroke="#63b8ff" points="101.85,-259.81 110.92,-265.28 107.24,-255.35 101.85,-259.81"/>
</a>
</g>
</g>
<!-- Node8&#45;&gt;Node4 -->
<g id="edge11_Node000008_Node000004" class="edge">
<title>Node8&#45;&gt;Node4</title>
<g id="a_edge11_Node000008_Node000004"><a xlink:title=" ">
<path fill="none" stroke="#63b8ff" d="M61.42,-154.85C52.64,-154.85 44.21,-154.85 37.24,-154.85"/>
<polygon fill="#63b8ff" stroke="#63b8ff" points="61.15,-158.35 71.15,-154.85 61.15,-151.35 61.15,-158.35"/>
</a>
</g>
</g>
<!-- Node9&#45;&gt;Node9 -->
<g id="edge13_Node000009_Node000009" class="edge">
<title>Node9&#45;&gt;Node9</title>
<g id="a_edge13_Node000009_Node000009"><a xlink:title=" ">
<path fill="none" stroke="#63b8ff" d="M281.54,-326.29C278.58,-330.15 270.95,-332.85 258.62,-332.85 236.09,-332.85 229.23,-323.83 238.03,-315.19"/>
<polygon fill="#63b8ff" stroke="#63b8ff" points="285,-325.75 279.53,-316.67 278.14,-327.18 285,-325.75"/>
</a>
</g>
</g>
<!-- Node10&#45;&gt;Node10 -->
<g id="edge15_Node000010_Node000010" class="edge">
<title>Node10&#45;&gt;Node10</title>
<g id="a_edge15_Node000010_Node000010"><a xlink:title=" ">
<path fill="none" stroke="#63b8ff" d="M281.54,-270.29C278.58,-274.15 270.95,-276.85 258.62,-276.85 236.09,-276.85 229.23,-267.83 238.03,-259.19"/>
<polygon fill="#63b8ff" stroke="#63b8ff" points="285,-269.75 279.53,-260.67 278.14,-271.18 285,-269.75"/>
</a>
</g>
</g>
<!-- Node11&#45;&gt;Node11 -->
<g id="edge17_Node000011_Node000011" class="edge">
<title>Node11&#45;&gt;Node11</title>
<g id="a_edge17_Node000011_Node000011"><a xlink:title=" ">
<path fill="none" stroke="#63b8ff" d="M281.54,-214.29C278.58,-218.15 270.95,-220.85 258.62,-220.85 236.09,-220.85 229.23,-211.83 238.03,-203.19"/>
<polygon fill="#63b8ff" stroke="#63b8ff" points="285,-213.75 279.53,-204.67 278.14,-215.18 285,-213.75"/>
</a>
</g>
</g>
<!-- Node12&#45;&gt;Node3 -->
<g id="edge19_Node000012_Node000003" class="edge">
<title>Node12&#45;&gt;Node3</title>
<g id="a_edge19_Node000012_Node000003"><a xlink:title=" ">
<path fill="none" stroke="#63b8ff" d="M211.02,-461.75C194.17,-457.01 175.38,-451.72 159.47,-447.25"/>
<polygon fill="#63b8ff" stroke="#63b8ff" points="209.74,-465.02 220.31,-464.36 211.63,-458.28 209.74,-465.02"/>
</a>
</g>
</g>
<!-- Node14&#45;&gt;Node4 -->
<g id="edge22_Node000014_Node000004" class="edge">
<title>Node14&#45;&gt;Node4</title>
<g id="a_edge22_Node000014_Node000004"><a xlink:title=" ">
<path fill="none" stroke="#63b8ff" d="M214.62,-75.03C175.63,-73.41 117.62,-75.76 73,-97.85 51.59,-108.45 34.33,-131.42 25.64,-144.74"/>
<polygon fill="#63b8ff" stroke="#63b8ff" points="214.39,-78.52 224.56,-75.56 214.76,-71.53 214.39,-78.52"/>
</a>
</g>
</g>
<!-- Node15 -->
<g id="Node000015" class="node">
<title>Node15</title>
<g id="a_Node000015"><a xlink:href="group___t_vector.html#ga744f02ddf3e1909e408b28b148b5076b" target="_top" xlink:title="Zjištění, zda je vektor prázdný">
<polygon fill="white" stroke="#666666" points="164.75,-126.85 78.25,-126.85 78.25,-106.85 164.75,-106.85 164.75,-126.85"/>
<text text-anchor="middle" x="121.5" y="-113.35" font-family="Helvetica,sans-Serif" font-size="10.00">vector_is_empty</text>
</a>
</g>
</g>
<!-- Node14&#45;&gt;Node15 -->
<g id="edge23_Node000014_Node000015" class="edge">
<title>Node14&#45;&gt;Node15</title>
<g id="a_edge23_Node000014_Node000015"><a xlink:title=" ">
<path fill="none" stroke="#63b8ff" d="M215.02,-90.83C197.28,-95.82 176.86,-101.56 159.74,-106.38"/>
<polygon fill="#63b8ff" stroke="#63b8ff" points="215.81,-94.25 224.49,-88.17 213.91,-87.51 215.81,-94.25"/>
</a>
</g>
</g>
<!-- Node15&#45;&gt;Node4 -->
<g id="edge24_Node000015_Node000004" class="edge">
<title>Node15&#45;&gt;Node4</title>
<g id="a_edge24_Node000015_Node000004"><a xlink:title=" ">
<path fill="none" stroke="#63b8ff" d="M82.3,-131.22C66.89,-137.02 49.85,-143.43 37.42,-148.11"/>
<polygon fill="#63b8ff" stroke="#63b8ff" points="83.09,-134.67 91.22,-127.87 80.63,-128.12 83.09,-134.67"/>
</a>
</g>
</g>
<!-- Node17&#45;&gt;Node4 -->
<g id="edge27_Node000017_Node000004" class="edge">
<title>Node17&#45;&gt;Node4</title>
<g id="a_edge27_Node000017_Node000004"><a xlink:title=" ">
<path fill="none" stroke="#63b8ff" d="M98.32,-39.49C89.85,-46.83 80.45,-55.75 73,-64.85 51.48,-91.16 32.85,-127.06 24.37,-144.5"/>
<polygon fill="#63b8ff" stroke="#63b8ff" points="100.42,-42.3 105.84,-33.19 95.93,-36.93 100.42,-42.3"/>
</a>
</g>
</g>
</g>
</svg>
