<?xml version="1.0" encoding="UTF-8" standalone="no"?>
<!DOCTYPE svg PUBLIC "-//W3C//DTD SVG 1.1//EN"
 "http://www.w3.org/Graphics/SVG/1.1/DTD/svg11.dtd">
<!-- Generated by graphviz version 11.0.0 (20240428.1522)
 -->
<!-- Title: vector_iterator_pos Pages: 1 -->
<svg width="224pt" height="46pt"
 viewBox="0.00 0.00 223.75 46.00" xmlns="http://www.w3.org/2000/svg" xmlns:xlink="http://www.w3.org/1999/xlink">
<g id="graph0" class="graph" transform="scale(1 1) rotate(0) translate(4 42)">
<title>vector_iterator_pos</title>
<!-- Node1 -->
<g id="Node000001" class="node">
<title>Node1</title>
<g id="a_Node000001"><a xlink:title="Vytvoření nového iterátoru ukazujícího na zadanou pozici.">
<polygon fill="#999999" stroke="#666666" points="97.75,-20 0,-20 0,0 97.75,0 97.75,-20"/>
<text text-anchor="middle" x="48.88" y="-6.5" font-family="Helvetica,sans-Serif" font-size="10.00">vector_iterator_pos</text>
</a>
</g>
</g>
<!-- Node1&#45;&gt;Node1 -->
<g id="edge2_Node000001_Node000001" class="edge">
<title>Node1&#45;&gt;Node1</title>
<g id="a_edge2_Node000001_Node000001"><a xlink:title=" ">
<path fill="none" stroke="#63b8ff" d="M28.87,-20.34C20.33,-28.98 26.99,-38 48.88,-38 60.84,-38 68.26,-35.3 71.12,-31.44"/>
<polygon fill="#63b8ff" stroke="#63b8ff" points="74.59,-30.93 69.18,-21.82 67.73,-32.32 74.59,-30.93"/>
</a>
</g>
</g>
<!-- Node2 -->
<g id="Node000002" class="node">
<title>Node2</title>
<g id="a_Node000002"><a xlink:href="_t_vector_8c.html#abdc337025358dbee53543c33ffc7383b" target="_top" xlink:title=" ">
<polygon fill="white" stroke="#666666" points="215.75,-20 133.75,-20 133.75,0 215.75,0 215.75,-20"/>
<text text-anchor="middle" x="174.75" y="-6.5" font-family="Helvetica,sans-Serif" font-size="10.00">vector_invariant</text>
</a>
</g>
</g>
<!-- Node1&#45;&gt;Node2 -->
<g id="edge1_Node000001_Node000002" class="edge">
<title>Node1&#45;&gt;Node2</title>
<g id="a_edge1_Node000001_Node000002"><a xlink:title=" ">
<path fill="none" stroke="#63b8ff" d="M98.12,-10C105.97,-10 114.13,-10 122.06,-10"/>
<polygon fill="#63b8ff" stroke="#63b8ff" points="121.94,-13.5 131.94,-10 121.94,-6.5 121.94,-13.5"/>
</a>
</g>
</g>
</g>
</svg>
