<?xml version="1.0" encoding="UTF-8" standalone="no"?>
<!DOCTYPE svg PUBLIC "-//W3C//DTD SVG 1.1//EN"
 "http://www.w3.org/Graphics/SVG/1.1/DTD/svg11.dtd">
<!-- Generated by graphviz version 11.0.0 (20240428.1522)
 -->
<!-- Title: print_element Pages: 1 -->
<svg width="348pt" height="40pt"
 viewBox="0.00 0.00 347.75 40.00" xmlns="http://www.w3.org/2000/svg" xmlns:xlink="http://www.w3.org/1999/xlink">
<g id="graph0" class="graph" transform="scale(1 1) rotate(0) translate(4 36)">
<title>print_element</title>
<!-- Node1 -->
<g id="Node000001" class="node">
<title>Node1</title>
<g id="a_Node000001"><a xlink:title="Vytisknutí elementu vektoru pomocí iterátoru.">
<polygon fill="#999999" stroke="#666666" points="74.5,-26 0,-26 0,-6 74.5,-6 74.5,-26"/>
<text text-anchor="middle" x="37.25" y="-12.5" font-family="Helvetica,sans-Serif" font-size="10.00">print_element</text>
</a>
</g>
</g>
<!-- Node2 -->
<g id="Node000002" class="node">
<title>Node2</title>
<g id="a_Node000002"><a xlink:href="group___t_vector_iterator.html#ga4d8032eb9dbbdccf794611f2b0c9821c" target="_top" xlink:title="Přečtení hodnoty elementu z vektoru pomocí iterátoru.">
<polygon fill="white" stroke="#666666" points="214.25,-26 110.5,-26 110.5,-6 214.25,-6 214.25,-26"/>
<text text-anchor="middle" x="162.38" y="-12.5" font-family="Helvetica,sans-Serif" font-size="10.00">vector_iterator_value</text>
</a>
</g>
</g>
<!-- Node1&#45;&gt;Node2 -->
<g id="edge1_Node000001_Node000002" class="edge">
<title>Node1&#45;&gt;Node2</title>
<g id="a_edge1_Node000001_Node000002"><a xlink:title=" ">
<path fill="none" stroke="#63b8ff" d="M74.86,-16C82.37,-16 90.49,-16 98.63,-16"/>
<polygon fill="#63b8ff" stroke="#63b8ff" points="98.58,-19.5 108.58,-16 98.58,-12.5 98.58,-19.5"/>
</a>
</g>
</g>
<!-- Node3 -->
<g id="Node000003" class="node">
<title>Node3</title>
<g id="a_Node000003"><a xlink:href="group___t_vector_iterator.html#ga3f8a97a63f887539e270f6845bf22b9a" target="_top" xlink:title="Zjištění platnosti iterátoru.">
<polygon fill="white" stroke="#666666" points="339.75,-32 250.25,-32 250.25,0 339.75,0 339.75,-32"/>
<text text-anchor="start" x="258.25" y="-18.5" font-family="Helvetica,sans-Serif" font-size="10.00">vector_iterator_is</text>
<text text-anchor="middle" x="295" y="-6.5" font-family="Helvetica,sans-Serif" font-size="10.00">_valid</text>
</a>
</g>
</g>
<!-- Node2&#45;&gt;Node3 -->
<g id="edge2_Node000002_Node000003" class="edge">
<title>Node2&#45;&gt;Node3</title>
<g id="a_edge2_Node000002_Node000003"><a xlink:title=" ">
<path fill="none" stroke="#63b8ff" d="M214.63,-16C222.5,-16 230.66,-16 238.62,-16"/>
<polygon fill="#63b8ff" stroke="#63b8ff" points="238.57,-19.5 248.57,-16 238.57,-12.5 238.57,-19.5"/>
</a>
</g>
</g>
</g>
</svg>
