<?xml version="1.0" encoding="UTF-8" standalone="no"?>
<!DOCTYPE svg PUBLIC "-//W3C//DTD SVG 1.1//EN"
 "http://www.w3.org/Graphics/SVG/1.1/DTD/svg11.dtd">
<!-- Generated by graphviz version 11.0.0 (20240428.1522)
 -->
<!-- Title: resize_testing Pages: 1 -->
<svg width="318pt" height="142pt"
 viewBox="0.00 0.00 317.75 142.00" xmlns="http://www.w3.org/2000/svg" xmlns:xlink="http://www.w3.org/1999/xlink">
<g id="graph0" class="graph" transform="scale(1 1) rotate(0) translate(4 138)">
<title>resize_testing</title>
<!-- Node1 -->
<g id="Node000001" class="node">
<title>Node1</title>
<g id="a_Node000001"><a xlink:title="Testování funkce vector_resize().">
<polygon fill="#999999" stroke="#666666" points="76.75,-77 0,-77 0,-57 76.75,-57 76.75,-77"/>
<text text-anchor="middle" x="38.38" y="-63.5" font-family="Helvetica,sans-Serif" font-size="10.00">resize_testing</text>
</a>
</g>
</g>
<!-- Node2 -->
<g id="Node000002" class="node">
<title>Node2</title>
<g id="a_Node000002"><a xlink:href="main__support_8h.html#aa291195ad453d2b1e29004cc2e043c01" target="_top" xlink:title="Výpočet doby trvání časového intervalu.">
<polygon fill="white" stroke="#666666" points="186.12,-134 118.38,-134 118.38,-114 186.12,-114 186.12,-134"/>
<text text-anchor="middle" x="152.25" y="-120.5" font-family="Helvetica,sans-Serif" font-size="10.00">difftimespec</text>
</a>
</g>
</g>
<!-- Node1&#45;&gt;Node2 -->
<g id="edge1_Node000001_Node000002" class="edge">
<title>Node1&#45;&gt;Node2</title>
<g id="a_edge1_Node000001_Node000002"><a xlink:title=" ">
<path fill="none" stroke="#63b8ff" d="M59.25,-77.43C73.98,-85.12 94.57,-95.81 112.75,-105 115.02,-106.15 117.37,-107.33 119.74,-108.51"/>
<polygon fill="#63b8ff" stroke="#63b8ff" points="118.16,-111.64 128.68,-112.95 121.28,-105.37 118.16,-111.64"/>
</a>
</g>
</g>
<!-- Node3 -->
<g id="Node000003" class="node">
<title>Node3</title>
<g id="a_Node000003"><a xlink:href="group___t_vector.html#ga6b0b8780d60dad02b8569be119769548" target="_top" xlink:title="Vytvoření úplné kopie vektoru.">
<polygon fill="white" stroke="#666666" points="187.25,-96 117.25,-96 117.25,-76 187.25,-76 187.25,-96"/>
<text text-anchor="middle" x="152.25" y="-82.5" font-family="Helvetica,sans-Serif" font-size="10.00">vector_clone</text>
</a>
</g>
</g>
<!-- Node1&#45;&gt;Node3 -->
<g id="edge2_Node000001_Node000003" class="edge">
<title>Node1&#45;&gt;Node3</title>
<g id="a_edge2_Node000001_Node000003"><a xlink:title=" ">
<path fill="none" stroke="#63b8ff" d="M76.94,-73.38C86.15,-74.94 96.1,-76.63 105.64,-78.25"/>
<polygon fill="#63b8ff" stroke="#63b8ff" points="105.05,-81.7 115.5,-79.93 106.22,-74.8 105.05,-81.7"/>
</a>
</g>
</g>
<!-- Node5 -->
<g id="Node000005" class="node">
<title>Node5</title>
<g id="a_Node000005"><a xlink:href="group___t_vector.html#ga41fcff5418fe213f2caaa586f521bcd6" target="_top" xlink:title="Dealokace vektoru.">
<polygon fill="white" stroke="#666666" points="191.75,-58 112.75,-58 112.75,-38 191.75,-38 191.75,-58"/>
<text text-anchor="middle" x="152.25" y="-44.5" font-family="Helvetica,sans-Serif" font-size="10.00">vector_destroy</text>
</a>
</g>
</g>
<!-- Node1&#45;&gt;Node5 -->
<g id="edge4_Node000001_Node000005" class="edge">
<title>Node1&#45;&gt;Node5</title>
<g id="a_edge4_Node000001_Node000005"><a xlink:title=" ">
<path fill="none" stroke="#63b8ff" d="M76.94,-60.62C84.71,-59.3 93,-57.89 101.13,-56.51"/>
<polygon fill="#63b8ff" stroke="#63b8ff" points="101.68,-59.97 110.96,-54.84 100.51,-53.07 101.68,-59.97"/>
</a>
</g>
</g>
<!-- Node6 -->
<g id="Node000006" class="node">
<title>Node6</title>
<g id="a_Node000006"><a xlink:href="group___t_vector.html#gabf502ae8257c371ab9c7fb95a242ccb2" target="_top" xlink:title="Změna velikosti existujícího vektoru.">
<polygon fill="white" stroke="#666666" points="188.75,-20 115.75,-20 115.75,0 188.75,0 188.75,-20"/>
<text text-anchor="middle" x="152.25" y="-6.5" font-family="Helvetica,sans-Serif" font-size="10.00">vector_resize</text>
</a>
</g>
</g>
<!-- Node1&#45;&gt;Node6 -->
<g id="edge6_Node000001_Node000006" class="edge">
<title>Node1&#45;&gt;Node6</title>
<g id="a_edge6_Node000001_Node000006"><a xlink:title=" ">
<path fill="none" stroke="#63b8ff" d="M59.25,-56.57C73.98,-48.88 94.57,-38.19 112.75,-29 115.02,-27.85 117.37,-26.67 119.74,-25.49"/>
<polygon fill="#63b8ff" stroke="#63b8ff" points="121.28,-28.63 128.68,-21.05 118.16,-22.36 121.28,-28.63"/>
</a>
</g>
</g>
<!-- Node4 -->
<g id="Node000004" class="node">
<title>Node4</title>
<g id="a_Node000004"><a xlink:href="_t_vector_8c.html#abdc337025358dbee53543c33ffc7383b" target="_top" xlink:title=" ">
<polygon fill="white" stroke="#666666" points="309.75,-58 227.75,-58 227.75,-38 309.75,-38 309.75,-58"/>
<text text-anchor="middle" x="268.75" y="-44.5" font-family="Helvetica,sans-Serif" font-size="10.00">vector_invariant</text>
</a>
</g>
</g>
<!-- Node3&#45;&gt;Node4 -->
<g id="edge3_Node000003_Node000004" class="edge">
<title>Node3&#45;&gt;Node4</title>
<g id="a_edge3_Node000003_Node000004"><a xlink:title=" ">
<path fill="none" stroke="#63b8ff" d="M184.84,-75.52C197.36,-71.36 211.93,-66.52 225.34,-62.07"/>
<polygon fill="#63b8ff" stroke="#63b8ff" points="226.44,-65.4 234.83,-58.93 224.23,-58.75 226.44,-65.4"/>
</a>
</g>
</g>
<!-- Node5&#45;&gt;Node4 -->
<g id="edge5_Node000005_Node000004" class="edge">
<title>Node5&#45;&gt;Node4</title>
<g id="a_edge5_Node000005_Node000004"><a xlink:title=" ">
<path fill="none" stroke="#63b8ff" d="M192.01,-48C199.78,-48 208.04,-48 216.16,-48"/>
<polygon fill="#63b8ff" stroke="#63b8ff" points="215.95,-51.5 225.95,-48 215.95,-44.5 215.95,-51.5"/>
</a>
</g>
</g>
<!-- Node6&#45;&gt;Node4 -->
<g id="edge7_Node000006_Node000004" class="edge">
<title>Node6&#45;&gt;Node4</title>
<g id="a_edge7_Node000006_Node000004"><a xlink:title=" ">
<path fill="none" stroke="#63b8ff" d="M184.84,-20.48C197.36,-24.64 211.93,-29.48 225.34,-33.93"/>
<polygon fill="#63b8ff" stroke="#63b8ff" points="224.23,-37.25 234.83,-37.07 226.44,-30.6 224.23,-37.25"/>
</a>
</g>
</g>
</g>
</svg>
