<?xml version="1.0" encoding="UTF-8" standalone="no"?>
<!DOCTYPE svg PUBLIC "-//W3C//DTD SVG 1.1//EN"
 "http://www.w3.org/Graphics/SVG/1.1/DTD/svg11.dtd">
<!-- Generated by graphviz version 11.0.0 (20240428.1522)
 -->
<!-- Title: vector_is_empty Pages: 1 -->
<svg width="313pt" height="28pt"
 viewBox="0.00 0.00 313.25 28.00" xmlns="http://www.w3.org/2000/svg" xmlns:xlink="http://www.w3.org/1999/xlink">
<g id="graph0" class="graph" transform="scale(1 1) rotate(0) translate(4 24)">
<title>vector_is_empty</title>
<!-- Node1 -->
<g id="Node000001" class="node">
<title>Node1</title>
<g id="a_Node000001"><a xlink:title="Zjištění, zda je vektor prázdný">
<polygon fill="#999999" stroke="#666666" points="86.5,-20 0,-20 0,0 86.5,0 86.5,-20"/>
<text text-anchor="middle" x="43.25" y="-6.5" font-family="Helvetica,sans-Serif" font-size="10.00">vector_is_empty</text>
</a>
</g>
</g>
<!-- Node2 -->
<g id="Node000002" class="node">
<title>Node2</title>
<g id="a_Node000002"><a xlink:href="group___t_vector.html#ga2502e6ec116dbac5e49f5b62b07dc898" target="_top" xlink:title="Přečtení počtu elementů vektoru.">
<polygon fill="white" stroke="#666666" points="187.25,-20 122.5,-20 122.5,0 187.25,0 187.25,-20"/>
<text text-anchor="middle" x="154.88" y="-6.5" font-family="Helvetica,sans-Serif" font-size="10.00">vector_size</text>
</a>
</g>
</g>
<!-- Node1&#45;&gt;Node2 -->
<g id="edge1_Node000001_Node000002" class="edge">
<title>Node1&#45;&gt;Node2</title>
<g id="a_edge1_Node000001_Node000002"><a xlink:title=" ">
<path fill="none" stroke="#63b8ff" d="M86.95,-10C94.86,-10 103.14,-10 111.06,-10"/>
<polygon fill="#63b8ff" stroke="#63b8ff" points="110.81,-13.5 120.81,-10 110.81,-6.5 110.81,-13.5"/>
</a>
</g>
</g>
<!-- Node3 -->
<g id="Node000003" class="node">
<title>Node3</title>
<g id="a_Node000003"><a xlink:href="_t_vector_8c.html#abdc337025358dbee53543c33ffc7383b" target="_top" xlink:title=" ">
<polygon fill="white" stroke="#666666" points="305.25,-20 223.25,-20 223.25,0 305.25,0 305.25,-20"/>
<text text-anchor="middle" x="264.25" y="-6.5" font-family="Helvetica,sans-Serif" font-size="10.00">vector_invariant</text>
</a>
</g>
</g>
<!-- Node2&#45;&gt;Node3 -->
<g id="edge2_Node000002_Node000003" class="edge">
<title>Node2&#45;&gt;Node3</title>
<g id="a_edge2_Node000002_Node000003"><a xlink:title=" ">
<path fill="none" stroke="#63b8ff" d="M187.51,-10C195.08,-10 203.35,-10 211.57,-10"/>
<polygon fill="#63b8ff" stroke="#63b8ff" points="211.54,-13.5 221.54,-10 211.54,-6.5 211.54,-13.5"/>
</a>
</g>
</g>
</g>
</svg>
