<?xml version="1.0" encoding="UTF-8" standalone="no"?>
<!DOCTYPE svg PUBLIC "-//W3C//DTD SVG 1.1//EN"
 "http://www.w3.org/Graphics/SVG/1.1/DTD/svg11.dtd">
<!-- Generated by graphviz version 11.0.0 (20240428.1522)
 -->
<!-- Title: main Pages: 1 -->
<svg width="454pt" height="383pt"
 viewBox="0.00 0.00 453.75 382.71" xmlns="http://www.w3.org/2000/svg" xmlns:xlink="http://www.w3.org/1999/xlink">
<g id="graph0" class="graph" transform="scale(1 1) rotate(0) translate(4 378.71)">
<title>main</title>
<!-- Node1 -->
<g id="Node000001" class="node">
<title>Node1</title>
<g id="a_Node000001"><a xlink:title=" ">
<polygon fill="#999999" stroke="#666666" points="37,-165.71 0,-165.71 0,-145.71 37,-145.71 37,-165.71"/>
<text text-anchor="middle" x="18.5" y="-152.21" font-family="Helvetica,sans-Serif" font-size="10.00">main</text>
</a>
</g>
</g>
<!-- Node2 -->
<g id="Node000002" class="node">
<title>Node2</title>
<g id="a_Node000002"><a xlink:href="main__support_8h.html#a2d31e17cb6a745a38f21a15a8b9f6142" target="_top" xlink:title="Konverzní funkce z hodnoty typu bool na C&#45;řetězec.">
<polygon fill="white" stroke="#666666" points="162.5,-326.71 80.5,-326.71 80.5,-306.71 162.5,-306.71 162.5,-326.71"/>
<text text-anchor="middle" x="121.5" y="-313.21" font-family="Helvetica,sans-Serif" font-size="10.00">bool_to_cstring</text>
</a>
</g>
</g>
<!-- Node1&#45;&gt;Node2 -->
<g id="edge1_Node000001_Node000002" class="edge">
<title>Node1&#45;&gt;Node2</title>
<g id="a_edge1_Node000001_Node000002"><a xlink:title=" ">
<path fill="none" stroke="#63b8ff" d="M20.57,-166.15C23.75,-191.94 35.38,-259.32 73,-297.71 73.73,-298.46 74.5,-299.18 75.3,-299.87"/>
<polygon fill="#63b8ff" stroke="#63b8ff" points="73.23,-302.7 83.47,-305.43 77.17,-296.91 73.23,-302.7"/>
</a>
</g>
</g>
<!-- Node3 -->
<g id="Node000003" class="node">
<title>Node3</title>
<g id="a_Node000003"><a xlink:href="group___main_program.html#ga389209d8bde0a8922177efb8ed7a22a6" target="_top" xlink:title="Testování funkce vector_resize().">
<polygon fill="white" stroke="#666666" points="159.88,-288.71 83.12,-288.71 83.12,-268.71 159.88,-268.71 159.88,-288.71"/>
<text text-anchor="middle" x="121.5" y="-275.21" font-family="Helvetica,sans-Serif" font-size="10.00">resize_testing</text>
</a>
</g>
</g>
<!-- Node1&#45;&gt;Node3 -->
<g id="edge2_Node000001_Node000003" class="edge">
<title>Node1&#45;&gt;Node3</title>
<g id="a_edge2_Node000001_Node000003"><a xlink:title=" ">
<path fill="none" stroke="#63b8ff" d="M23.89,-166.09C31.77,-183.89 49.71,-220.7 73,-245.71 78.74,-251.87 85.82,-257.54 92.74,-262.37"/>
<polygon fill="#63b8ff" stroke="#63b8ff" points="90.4,-265.02 100.68,-267.58 94.24,-259.17 90.4,-265.02"/>
</a>
</g>
</g>
<!-- Node7 -->
<g id="Node000007" class="node">
<title>Node7</title>
<g id="a_Node000007"><a xlink:href="group___t_vector.html#ga41fcff5418fe213f2caaa586f521bcd6" target="_top" xlink:title="Dealokace vektoru.">
<polygon fill="white" stroke="#666666" points="306.38,-260.71 227.38,-260.71 227.38,-240.71 306.38,-240.71 306.38,-260.71"/>
<text text-anchor="middle" x="266.88" y="-247.21" font-family="Helvetica,sans-Serif" font-size="10.00">vector_destroy</text>
</a>
</g>
</g>
<!-- Node1&#45;&gt;Node7 -->
<g id="edge10_Node000001_Node000007" class="edge">
<title>Node1&#45;&gt;Node7</title>
<g id="a_edge10_Node000001_Node000007"><a xlink:title=" ">
<path fill="none" stroke="#63b8ff" d="M31.52,-166.01C41.9,-174.47 57.63,-186.24 73,-193.71 119.26,-216.19 176.14,-231.67 216.11,-240.77"/>
<polygon fill="#63b8ff" stroke="#63b8ff" points="215.17,-244.14 225.69,-242.89 216.68,-237.31 215.17,-244.14"/>
</a>
</g>
</g>
<!-- Node9 -->
<g id="Node000009" class="node">
<title>Node9</title>
<g id="a_Node000009"><a xlink:href="group___t_vector.html#gac0009a6c19dd42237bbb6af9897f2e44" target="_top" xlink:title="Alokace vektoru a inicializace jeho elementů ze souboru.">
<polygon fill="white" stroke="#666666" points="159.88,-184.71 83.12,-184.71 83.12,-164.71 159.88,-164.71 159.88,-184.71"/>
<text text-anchor="middle" x="121.5" y="-171.21" font-family="Helvetica,sans-Serif" font-size="10.00">vector_init_file</text>
</a>
</g>
</g>
<!-- Node1&#45;&gt;Node9 -->
<g id="edge11_Node000001_Node000009" class="edge">
<title>Node1&#45;&gt;Node9</title>
<g id="a_edge11_Node000001_Node000009"><a xlink:title=" ">
<path fill="none" stroke="#63b8ff" d="M37.09,-159.02C46.79,-160.84 59.34,-163.2 71.76,-165.54"/>
<polygon fill="#63b8ff" stroke="#63b8ff" points="71.07,-168.97 81.55,-167.38 72.37,-162.09 71.07,-168.97"/>
</a>
</g>
</g>
<!-- Node11 -->
<g id="Node000011" class="node">
<title>Node11</title>
<g id="a_Node000011"><a xlink:href="group___t_vector.html#ga088d8ae405d0c100abe583c583d27ed3" target="_top" xlink:title="Alokace vektoru a inicializace jeho elementů na náhodné hodnoty.">
<polygon fill="white" stroke="#666666" points="170,-146.71 73,-146.71 73,-126.71 170,-126.71 170,-146.71"/>
<text text-anchor="middle" x="121.5" y="-133.21" font-family="Helvetica,sans-Serif" font-size="10.00">vector_init_random</text>
</a>
</g>
</g>
<!-- Node1&#45;&gt;Node11 -->
<g id="edge14_Node000001_Node000011" class="edge">
<title>Node1&#45;&gt;Node11</title>
<g id="a_edge14_Node000001_Node000011"><a xlink:title=" ">
<path fill="none" stroke="#63b8ff" d="M37.09,-152.4C44.16,-151.07 52.76,-149.45 61.72,-147.77"/>
<polygon fill="#63b8ff" stroke="#63b8ff" points="62.07,-151.26 71.25,-145.97 60.77,-144.38 62.07,-151.26"/>
</a>
</g>
</g>
<!-- Node13 -->
<g id="Node000013" class="node">
<title>Node13</title>
<g id="a_Node000013"><a xlink:href="group___t_vector.html#ga744f02ddf3e1909e408b28b148b5076b" target="_top" xlink:title="Zjištění, zda je vektor prázdný">
<polygon fill="white" stroke="#666666" points="164.75,-107.71 78.25,-107.71 78.25,-87.71 164.75,-87.71 164.75,-107.71"/>
<text text-anchor="middle" x="121.5" y="-94.21" font-family="Helvetica,sans-Serif" font-size="10.00">vector_is_empty</text>
</a>
</g>
</g>
<!-- Node1&#45;&gt;Node13 -->
<g id="edge17_Node000001_Node000013" class="edge">
<title>Node1&#45;&gt;Node13</title>
<g id="a_edge17_Node000001_Node000013"><a xlink:title=" ">
<path fill="none" stroke="#63b8ff" d="M32.17,-145.5C42.69,-137.33 58.27,-125.91 73,-117.71 76.03,-116.02 79.23,-114.39 82.48,-112.83"/>
<polygon fill="#63b8ff" stroke="#63b8ff" points="83.83,-116.06 91.51,-108.75 80.95,-109.68 83.83,-116.06"/>
</a>
</g>
</g>
<!-- Node14 -->
<g id="Node000014" class="node">
<title>Node14</title>
<g id="a_Node000014"><a xlink:href="group___t_vector.html#ga2502e6ec116dbac5e49f5b62b07dc898" target="_top" xlink:title="Přečtení počtu elementů vektoru.">
<polygon fill="white" stroke="#666666" points="299.25,-58.71 234.5,-58.71 234.5,-38.71 299.25,-38.71 299.25,-58.71"/>
<text text-anchor="middle" x="266.88" y="-45.21" font-family="Helvetica,sans-Serif" font-size="10.00">vector_size</text>
</a>
</g>
</g>
<!-- Node1&#45;&gt;Node14 -->
<g id="edge20_Node000001_Node000014" class="edge">
<title>Node1&#45;&gt;Node14</title>
<g id="a_edge20_Node000001_Node000014"><a xlink:title=" ">
<path fill="none" stroke="#63b8ff" d="M23.44,-145.46C30.54,-128.49 47.19,-94.85 73,-78.71 118.47,-50.27 181.43,-45.53 222.88,-46.05"/>
<polygon fill="#63b8ff" stroke="#63b8ff" points="222.63,-49.54 232.71,-46.29 222.8,-42.55 222.63,-49.54"/>
</a>
</g>
</g>
<!-- Node15 -->
<g id="Node000015" class="node">
<title>Node15</title>
<g id="a_Node000015"><a xlink:href="group___t_vector.html#ga2b08236d9825632cd96bcc89faed929c" target="_top" xlink:title="Přečtení hodnoty elementu z vektoru na požadované pozici.">
<polygon fill="white" stroke="#666666" points="155.75,-22.71 87.25,-22.71 87.25,-2.71 155.75,-2.71 155.75,-22.71"/>
<text text-anchor="middle" x="121.5" y="-9.21" font-family="Helvetica,sans-Serif" font-size="10.00">vector_value</text>
</a>
</g>
</g>
<!-- Node1&#45;&gt;Node15 -->
<g id="edge21_Node000001_Node000015" class="edge">
<title>Node1&#45;&gt;Node15</title>
<g id="a_edge21_Node000001_Node000015"><a xlink:title=" ">
<path fill="none" stroke="#63b8ff" d="M22.29,-145.24C28.42,-123.87 44.79,-74.55 73,-42.71 77.56,-37.56 83.2,-32.98 89,-29.03"/>
<polygon fill="#63b8ff" stroke="#63b8ff" points="90.77,-32.05 97.43,-23.81 87.08,-26.1 90.77,-32.05"/>
</a>
</g>
</g>
<!-- Node4 -->
<g id="Node000004" class="node">
<title>Node4</title>
<g id="a_Node000004"><a xlink:href="main__support_8h.html#aa291195ad453d2b1e29004cc2e043c01" target="_top" xlink:title="Výpočet doby trvání časového intervalu.">
<polygon fill="white" stroke="#666666" points="300.75,-374.71 233,-374.71 233,-354.71 300.75,-354.71 300.75,-374.71"/>
<text text-anchor="middle" x="266.88" y="-361.21" font-family="Helvetica,sans-Serif" font-size="10.00">difftimespec</text>
</a>
</g>
</g>
<!-- Node3&#45;&gt;Node4 -->
<g id="edge3_Node000003_Node000004" class="edge">
<title>Node3&#45;&gt;Node4</title>
<g id="a_edge3_Node000003_Node000004"><a xlink:title=" ">
<path fill="none" stroke="#63b8ff" d="M155.46,-289.13C160.59,-291.52 165.63,-294.36 170,-297.71 191.17,-313.93 184.25,-330.27 206,-345.71 210.95,-349.22 216.57,-352.1 222.34,-354.46"/>
<polygon fill="#63b8ff" stroke="#63b8ff" points="220.76,-357.61 231.36,-357.66 223.11,-351.02 220.76,-357.61"/>
</a>
</g>
</g>
<!-- Node5 -->
<g id="Node000005" class="node">
<title>Node5</title>
<g id="a_Node000005"><a xlink:href="group___t_vector.html#ga6b0b8780d60dad02b8569be119769548" target="_top" xlink:title="Vytvoření úplné kopie vektoru.">
<polygon fill="white" stroke="#666666" points="301.88,-336.71 231.88,-336.71 231.88,-316.71 301.88,-316.71 301.88,-336.71"/>
<text text-anchor="middle" x="266.88" y="-323.21" font-family="Helvetica,sans-Serif" font-size="10.00">vector_clone</text>
</a>
</g>
</g>
<!-- Node3&#45;&gt;Node5 -->
<g id="edge4_Node000003_Node000005" class="edge">
<title>Node3&#45;&gt;Node5</title>
<g id="a_edge4_Node000003_Node000005"><a xlink:title=" ">
<path fill="none" stroke="#63b8ff" d="M151.8,-289.1C167.79,-294.72 187.94,-301.71 206,-307.71 211.04,-309.38 216.33,-311.11 221.59,-312.8"/>
<polygon fill="#63b8ff" stroke="#63b8ff" points="220.22,-316.04 230.81,-315.75 222.36,-309.37 220.22,-316.04"/>
</a>
</g>
</g>
<!-- Node3&#45;&gt;Node7 -->
<g id="edge6_Node000003_Node000007" class="edge">
<title>Node3&#45;&gt;Node7</title>
<g id="a_edge6_Node000003_Node000007"><a xlink:title=" ">
<path fill="none" stroke="#63b8ff" d="M160.17,-271.35C177.21,-268.02 197.59,-264.04 215.88,-260.47"/>
<polygon fill="#63b8ff" stroke="#63b8ff" points="216.33,-263.95 225.47,-258.6 214.99,-257.08 216.33,-263.95"/>
</a>
</g>
</g>
<!-- Node8 -->
<g id="Node000008" class="node">
<title>Node8</title>
<g id="a_Node000008"><a xlink:href="group___t_vector.html#gabf502ae8257c371ab9c7fb95a242ccb2" target="_top" xlink:title="Změna velikosti existujícího vektoru.">
<polygon fill="white" stroke="#666666" points="303.38,-298.71 230.38,-298.71 230.38,-278.71 303.38,-278.71 303.38,-298.71"/>
<text text-anchor="middle" x="266.88" y="-285.21" font-family="Helvetica,sans-Serif" font-size="10.00">vector_resize</text>
</a>
</g>
</g>
<!-- Node3&#45;&gt;Node8 -->
<g id="edge8_Node000003_Node000008" class="edge">
<title>Node3&#45;&gt;Node8</title>
<g id="a_edge8_Node000003_Node000008"><a xlink:title=" ">
<path fill="none" stroke="#63b8ff" d="M160.17,-281.33C178.03,-282.58 199.57,-284.08 218.52,-285.4"/>
<polygon fill="#63b8ff" stroke="#63b8ff" points="218.21,-288.89 228.43,-286.09 218.7,-281.91 218.21,-288.89"/>
</a>
</g>
</g>
<!-- Node6 -->
<g id="Node000006" class="node">
<title>Node6</title>
<g id="a_Node000006"><a xlink:href="_t_vector_8c.html#abdc337025358dbee53543c33ffc7383b" target="_top" xlink:title=" ">
<polygon fill="white" stroke="#666666" points="445.75,-222.71 363.75,-222.71 363.75,-202.71 445.75,-202.71 445.75,-222.71"/>
<text text-anchor="middle" x="404.75" y="-209.21" font-family="Helvetica,sans-Serif" font-size="10.00">vector_invariant</text>
</a>
</g>
</g>
<!-- Node5&#45;&gt;Node6 -->
<g id="edge5_Node000005_Node000006" class="edge">
<title>Node5&#45;&gt;Node6</title>
<g id="a_edge5_Node000005_Node000006"><a xlink:title=" ">
<path fill="none" stroke="#63b8ff" d="M302.1,-319.62C310.94,-316.81 320.11,-312.95 327.75,-307.71 356.5,-287.97 379.78,-254.17 392.68,-232.67"/>
<polygon fill="#63b8ff" stroke="#63b8ff" points="395.57,-234.66 397.55,-224.25 389.51,-231.15 395.57,-234.66"/>
</a>
</g>
</g>
<!-- Node7&#45;&gt;Node6 -->
<g id="edge7_Node000007_Node000006" class="edge">
<title>Node7&#45;&gt;Node6</title>
<g id="a_edge7_Node000007_Node000006"><a xlink:title=" ">
<path fill="none" stroke="#63b8ff" d="M305.36,-240.22C320.81,-235.9 338.9,-230.84 355.33,-226.25"/>
<polygon fill="#63b8ff" stroke="#63b8ff" points="356.24,-229.63 364.93,-223.56 354.35,-222.89 356.24,-229.63"/>
</a>
</g>
</g>
<!-- Node8&#45;&gt;Node6 -->
<g id="edge9_Node000008_Node000006" class="edge">
<title>Node8&#45;&gt;Node6</title>
<g id="a_edge9_Node000008_Node000006"><a xlink:title=" ">
<path fill="none" stroke="#63b8ff" d="M303.81,-279.47C311.89,-276.8 320.28,-273.55 327.75,-269.71 348.44,-259.06 369.41,-242.83 384.07,-230.41"/>
<polygon fill="#63b8ff" stroke="#63b8ff" points="386.32,-233.09 391.58,-223.89 381.73,-227.8 386.32,-233.09"/>
</a>
</g>
</g>
<!-- Node9&#45;&gt;Node6 -->
<g id="edge13_Node000009_Node000006" class="edge">
<title>Node9&#45;&gt;Node6</title>
<g id="a_edge13_Node000009_Node000006"><a xlink:title=" ">
<path fill="none" stroke="#63b8ff" d="M160.13,-184.34C174.41,-187.72 190.88,-191.27 206,-193.71 255.28,-201.65 312.03,-206.68 352.07,-209.56"/>
<polygon fill="#63b8ff" stroke="#63b8ff" points="351.68,-213.04 361.9,-210.24 352.17,-206.06 351.68,-213.04"/>
</a>
</g>
</g>
<!-- Node10 -->
<g id="Node000010" class="node">
<title>Node10</title>
<g id="a_Node000010"><a xlink:href="group___t_vector_element.html#gaf9a34133c2292f807fe184c72fd3f8d8" target="_top" xlink:title="Načtení elementu ze souboru.">
<polygon fill="white" stroke="#666666" points="327.75,-184.71 206,-184.71 206,-164.71 327.75,-164.71 327.75,-184.71"/>
<text text-anchor="middle" x="266.88" y="-171.21" font-family="Helvetica,sans-Serif" font-size="10.00">vector_element_load_file</text>
</a>
</g>
</g>
<!-- Node9&#45;&gt;Node10 -->
<g id="edge12_Node000009_Node000010" class="edge">
<title>Node9&#45;&gt;Node10</title>
<g id="a_edge12_Node000009_Node000010"><a xlink:title=" ">
<path fill="none" stroke="#63b8ff" d="M160.17,-174.71C170.73,-174.71 182.58,-174.71 194.42,-174.71"/>
<polygon fill="#63b8ff" stroke="#63b8ff" points="194.21,-178.21 204.21,-174.71 194.21,-171.21 194.21,-178.21"/>
</a>
</g>
</g>
<!-- Node11&#45;&gt;Node6 -->
<g id="edge16_Node000011_Node000006" class="edge">
<title>Node11&#45;&gt;Node6</title>
<g id="a_edge16_Node000011_Node000006"><a xlink:title=" ">
<path fill="none" stroke="#63b8ff" d="M170.21,-133.9C212.91,-133.05 276.49,-135.95 327.75,-155.71 350.18,-164.35 371.7,-181.63 386.08,-194.91"/>
<polygon fill="#63b8ff" stroke="#63b8ff" points="383.32,-197.11 392.97,-201.5 388.16,-192.05 383.32,-197.11"/>
</a>
</g>
</g>
<!-- Node12 -->
<g id="Node000012" class="node">
<title>Node12</title>
<g id="a_Node000012"><a xlink:href="group___t_vector_element.html#gac2485005f9b85ee450e159a793583c9b" target="_top" xlink:title="Vrací nový element s náhodnou hodnotou.">
<polygon fill="white" stroke="#666666" points="326.25,-108.71 207.5,-108.71 207.5,-76.71 326.25,-76.71 326.25,-108.71"/>
<text text-anchor="start" x="215.5" y="-95.21" font-family="Helvetica,sans-Serif" font-size="10.00">vector_element_random</text>
<text text-anchor="middle" x="266.88" y="-83.21" font-family="Helvetica,sans-Serif" font-size="10.00">_value</text>
</a>
</g>
</g>
<!-- Node11&#45;&gt;Node12 -->
<g id="edge15_Node000011_Node000012" class="edge">
<title>Node11&#45;&gt;Node12</title>
<g id="a_edge15_Node000011_Node000012"><a xlink:title=" ">
<path fill="none" stroke="#63b8ff" d="M156.48,-126.28C170,-122.13 186.03,-117.21 201.59,-112.44"/>
<polygon fill="#63b8ff" stroke="#63b8ff" points="202.26,-115.89 210.8,-109.61 200.21,-109.2 202.26,-115.89"/>
</a>
</g>
</g>
<!-- Node13&#45;&gt;Node14 -->
<g id="edge18_Node000013_Node000014" class="edge">
<title>Node13&#45;&gt;Node14</title>
<g id="a_edge18_Node000013_Node000014"><a xlink:title=" ">
<path fill="none" stroke="#63b8ff" d="M150.62,-87.3C166.77,-81.41 187.47,-73.97 206,-67.71 211.54,-65.83 217.39,-63.91 223.17,-62.04"/>
<polygon fill="#63b8ff" stroke="#63b8ff" points="224.21,-65.38 232.67,-59 222.07,-58.72 224.21,-65.38"/>
</a>
</g>
</g>
<!-- Node14&#45;&gt;Node6 -->
<g id="edge19_Node000014_Node000006" class="edge">
<title>Node14&#45;&gt;Node6</title>
<g id="a_edge19_Node000014_Node000006"><a xlink:title=" ">
<path fill="none" stroke="#63b8ff" d="M299.71,-53.9C309.52,-56.72 319.81,-61.05 327.75,-67.71 367.36,-100.91 389.05,-160.11 398.29,-191.62"/>
<polygon fill="#63b8ff" stroke="#63b8ff" points="394.87,-192.42 400.92,-201.12 401.62,-190.55 394.87,-192.42"/>
</a>
</g>
</g>
<!-- Node15&#45;&gt;Node6 -->
<g id="edge22_Node000015_Node000006" class="edge">
<title>Node15&#45;&gt;Node6</title>
<g id="a_edge22_Node000015_Node000006"><a xlink:title=" ">
<path fill="none" stroke="#63b8ff" d="M155.96,-5.67C199.84,1.56 277.19,7.15 327.75,-29.71 381.06,-68.57 397.15,-151.91 401.87,-191.27"/>
<polygon fill="#63b8ff" stroke="#63b8ff" points="398.37,-191.52 402.89,-201.1 405.34,-190.79 398.37,-191.52"/>
</a>
</g>
</g>
</g>
</svg>
