<?xml version="1.0" encoding="UTF-8" standalone="no"?>
<!DOCTYPE svg PUBLIC "-//W3C//DTD SVG 1.1//EN"
 "http://www.w3.org/Graphics/SVG/1.1/DTD/svg11.dtd">
<!-- Generated by graphviz version 11.0.0 (20240428.1522)
 -->
<!-- Title: vector_init_random Pages: 1 -->
<svg width="260pt" height="78pt"
 viewBox="0.00 0.00 259.75 78.00" xmlns="http://www.w3.org/2000/svg" xmlns:xlink="http://www.w3.org/1999/xlink">
<g id="graph0" class="graph" transform="scale(1 1) rotate(0) translate(4 74)">
<title>vector_init_random</title>
<!-- Node1 -->
<g id="Node000001" class="node">
<title>Node1</title>
<g id="a_Node000001"><a xlink:title="Alokace vektoru a inicializace jeho elementů na náhodné hodnoty.">
<polygon fill="#999999" stroke="#666666" points="97,-42 0,-42 0,-22 97,-22 97,-42"/>
<text text-anchor="middle" x="48.5" y="-28.5" font-family="Helvetica,sans-Serif" font-size="10.00">vector_init_random</text>
</a>
</g>
</g>
<!-- Node2 -->
<g id="Node000002" class="node">
<title>Node2</title>
<g id="a_Node000002"><a xlink:href="group___t_vector_element.html#gac2485005f9b85ee450e159a793583c9b" target="_top" xlink:title="Vrací nový element s náhodnou hodnotou.">
<polygon fill="white" stroke="#666666" points="251.75,-70 133,-70 133,-38 251.75,-38 251.75,-70"/>
<text text-anchor="start" x="141" y="-56.5" font-family="Helvetica,sans-Serif" font-size="10.00">vector_element_random</text>
<text text-anchor="middle" x="192.38" y="-44.5" font-family="Helvetica,sans-Serif" font-size="10.00">_value</text>
</a>
</g>
</g>
<!-- Node1&#45;&gt;Node2 -->
<g id="edge1_Node000001_Node000002" class="edge">
<title>Node1&#45;&gt;Node2</title>
<g id="a_edge1_Node000001_Node000002"><a xlink:title=" ">
<path fill="none" stroke="#63b8ff" d="M97.14,-39.39C104.94,-40.6 113.17,-41.87 121.38,-43.15"/>
<polygon fill="#63b8ff" stroke="#63b8ff" points="120.61,-46.57 131.03,-44.64 121.68,-39.65 120.61,-46.57"/>
</a>
</g>
</g>
<!-- Node3 -->
<g id="Node000003" class="node">
<title>Node3</title>
<g id="a_Node000003"><a xlink:href="_t_vector_8c.html#abdc337025358dbee53543c33ffc7383b" target="_top" xlink:title=" ">
<polygon fill="white" stroke="#666666" points="233.38,-20 151.38,-20 151.38,0 233.38,0 233.38,-20"/>
<text text-anchor="middle" x="192.38" y="-6.5" font-family="Helvetica,sans-Serif" font-size="10.00">vector_invariant</text>
</a>
</g>
</g>
<!-- Node1&#45;&gt;Node3 -->
<g id="edge2_Node000001_Node000003" class="edge">
<title>Node1&#45;&gt;Node3</title>
<g id="a_edge2_Node000001_Node000003"><a xlink:title=" ">
<path fill="none" stroke="#63b8ff" d="M97.14,-24.61C110.98,-22.47 126.16,-20.11 140.22,-17.93"/>
<polygon fill="#63b8ff" stroke="#63b8ff" points="140.36,-21.45 149.71,-16.46 139.29,-14.54 140.36,-21.45"/>
</a>
</g>
</g>
</g>
</svg>
