<?xml version="1.0" encoding="UTF-8" standalone="no"?>
<!DOCTYPE svg PUBLIC "-//W3C//DTD SVG 1.1//EN"
 "http://www.w3.org/Graphics/SVG/1.1/DTD/svg11.dtd">
<!-- Generated by graphviz version 11.0.0 (20240428.1522)
 -->
<!-- Title: vector_init_file Pages: 1 -->
<svg width="243pt" height="66pt"
 viewBox="0.00 0.00 242.50 66.00" xmlns="http://www.w3.org/2000/svg" xmlns:xlink="http://www.w3.org/1999/xlink">
<g id="graph0" class="graph" transform="scale(1 1) rotate(0) translate(4 62)">
<title>vector_init_file</title>
<!-- Node1 -->
<g id="Node000001" class="node">
<title>Node1</title>
<g id="a_Node000001"><a xlink:title="Alokace vektoru a inicializace jeho elementů ze souboru.">
<polygon fill="#999999" stroke="#666666" points="76.75,-39 0,-39 0,-19 76.75,-19 76.75,-39"/>
<text text-anchor="middle" x="38.38" y="-25.5" font-family="Helvetica,sans-Serif" font-size="10.00">vector_init_file</text>
</a>
</g>
</g>
<!-- Node2 -->
<g id="Node000002" class="node">
<title>Node2</title>
<g id="a_Node000002"><a xlink:href="group___t_vector_element.html#gaf9a34133c2292f807fe184c72fd3f8d8" target="_top" xlink:title="Načtení elementu ze souboru.">
<polygon fill="white" stroke="#666666" points="234.5,-58 112.75,-58 112.75,-38 234.5,-38 234.5,-58"/>
<text text-anchor="middle" x="173.62" y="-44.5" font-family="Helvetica,sans-Serif" font-size="10.00">vector_element_load_file</text>
</a>
</g>
</g>
<!-- Node1&#45;&gt;Node2 -->
<g id="edge1_Node000001_Node000002" class="edge">
<title>Node1&#45;&gt;Node2</title>
<g id="a_edge1_Node000001_Node000002"><a xlink:title=" ">
<path fill="none" stroke="#63b8ff" d="M77.2,-34.39C84.71,-35.46 92.83,-36.62 101.05,-37.79"/>
<polygon fill="#63b8ff" stroke="#63b8ff" points="100.38,-41.23 110.77,-39.18 101.36,-34.3 100.38,-41.23"/>
</a>
</g>
</g>
<!-- Node3 -->
<g id="Node000003" class="node">
<title>Node3</title>
<g id="a_Node000003"><a xlink:href="_t_vector_8c.html#abdc337025358dbee53543c33ffc7383b" target="_top" xlink:title=" ">
<polygon fill="white" stroke="#666666" points="214.62,-20 132.62,-20 132.62,0 214.62,0 214.62,-20"/>
<text text-anchor="middle" x="173.62" y="-6.5" font-family="Helvetica,sans-Serif" font-size="10.00">vector_invariant</text>
</a>
</g>
</g>
<!-- Node1&#45;&gt;Node3 -->
<g id="edge2_Node000001_Node000003" class="edge">
<title>Node1&#45;&gt;Node3</title>
<g id="a_edge2_Node000001_Node000003"><a xlink:title=" ">
<path fill="none" stroke="#63b8ff" d="M77.2,-23.61C90.94,-21.65 106.69,-19.4 121.39,-17.31"/>
<polygon fill="#63b8ff" stroke="#63b8ff" points="121.47,-20.83 130.88,-15.95 120.48,-13.9 121.47,-20.83"/>
</a>
</g>
</g>
</g>
</svg>
