<?xml version="1.0" encoding="UTF-8" standalone="no"?>
<!DOCTYPE svg PUBLIC "-//W3C//DTD SVG 1.1//EN"
 "http://www.w3.org/Graphics/SVG/1.1/DTD/svg11.dtd">
<!-- Generated by graphviz version 11.0.0 (20240428.1522)
 -->
<!-- Title: vector_for_n Pages: 1 -->
<svg width="226pt" height="78pt"
 viewBox="0.00 0.00 226.00 78.00" xmlns="http://www.w3.org/2000/svg" xmlns:xlink="http://www.w3.org/1999/xlink">
<g id="graph0" class="graph" transform="scale(1 1) rotate(0) translate(4 74)">
<title>vector_for_n</title>
<!-- Node1 -->
<g id="Node000001" class="node">
<title>Node1</title>
<g id="a_Node000001"><a xlink:title="Zavolání zvolené funkce na prvních N elementů vektoru od pozice určené iterátorem.">
<polygon fill="#999999" stroke="#666666" points="67.75,-42 0,-42 0,-22 67.75,-22 67.75,-42"/>
<text text-anchor="middle" x="33.88" y="-28.5" font-family="Helvetica,sans-Serif" font-size="10.00">vector_for_n</text>
</a>
</g>
</g>
<!-- Node1&#45;&gt;Node1 -->
<g id="edge1_Node000001_Node000001" class="edge">
<title>Node1&#45;&gt;Node1</title>
<g id="a_edge1_Node000001_Node000001"><a xlink:title=" ">
<path fill="none" stroke="#63b8ff" d="M13.7,-42.34C5.07,-50.98 11.8,-60 33.88,-60 45.95,-60 53.43,-57.3 56.32,-53.44"/>
<polygon fill="#63b8ff" stroke="#63b8ff" points="59.79,-52.92 54.36,-43.82 52.93,-54.32 59.79,-52.92"/>
</a>
</g>
</g>
<!-- Node2 -->
<g id="Node000002" class="node">
<title>Node2</title>
<g id="a_Node000002"><a xlink:href="group___t_vector_iterator.html#ga3f8a97a63f887539e270f6845bf22b9a" target="_top" xlink:title="Zjištění platnosti iterátoru.">
<polygon fill="white" stroke="#666666" points="205.62,-70 116.12,-70 116.12,-38 205.62,-38 205.62,-70"/>
<text text-anchor="start" x="124.12" y="-56.5" font-family="Helvetica,sans-Serif" font-size="10.00">vector_iterator_is</text>
<text text-anchor="middle" x="160.88" y="-44.5" font-family="Helvetica,sans-Serif" font-size="10.00">_valid</text>
</a>
</g>
</g>
<!-- Node1&#45;&gt;Node2 -->
<g id="edge2_Node000001_Node000002" class="edge">
<title>Node1&#45;&gt;Node2</title>
<g id="a_edge2_Node000001_Node000002"><a xlink:title=" ">
<path fill="none" stroke="#63b8ff" d="M68.04,-37.84C79.23,-39.81 92.04,-42.06 104.47,-44.25"/>
<polygon fill="#63b8ff" stroke="#63b8ff" points="103.77,-47.68 114.22,-45.97 104.98,-40.79 103.77,-47.68"/>
</a>
</g>
</g>
<!-- Node3 -->
<g id="Node000003" class="node">
<title>Node3</title>
<g id="a_Node000003"><a xlink:href="group___t_vector_iterator.html#ga7ce07cda016d67e3ca891125613ece56" target="_top" xlink:title="Posunutí iterátoru vpřed.">
<polygon fill="white" stroke="#666666" points="218,-20 103.75,-20 103.75,0 218,0 218,-20"/>
<text text-anchor="middle" x="160.88" y="-6.5" font-family="Helvetica,sans-Serif" font-size="10.00">vector_iterator_to_next</text>
</a>
</g>
</g>
<!-- Node1&#45;&gt;Node3 -->
<g id="edge3_Node000001_Node000003" class="edge">
<title>Node1&#45;&gt;Node3</title>
<g id="a_edge3_Node000001_Node000003"><a xlink:title=" ">
<path fill="none" stroke="#63b8ff" d="M68.04,-26.16C75.59,-24.83 83.87,-23.38 92.27,-21.9"/>
<polygon fill="#63b8ff" stroke="#63b8ff" points="92.61,-25.39 101.85,-20.21 91.4,-18.5 92.61,-25.39"/>
</a>
</g>
</g>
</g>
</svg>
