<?xml version="1.0" encoding="UTF-8" standalone="no"?>
<!DOCTYPE svg PUBLIC "-//W3C//DTD SVG 1.1//EN"
 "http://www.w3.org/Graphics/SVG/1.1/DTD/svg11.dtd">
<!-- Generated by graphviz version 11.0.0 (20240428.1522)
 -->
<!-- Title: vector_element_random_value Pages: 1 -->
<svg width="333pt" height="40pt"
 viewBox="0.00 0.00 332.75 40.00" xmlns="http://www.w3.org/2000/svg" xmlns:xlink="http://www.w3.org/1999/xlink">
<g id="graph0" class="graph" transform="scale(1 1) rotate(0) translate(4 36)">
<title>vector_element_random_value</title>
<!-- Node1 -->
<g id="Node000001" class="node">
<title>Node1</title>
<g id="a_Node000001"><a xlink:title="Vrací nový element s náhodnou hodnotou.">
<polygon fill="#999999" stroke="#666666" points="324.75,-32 206,-32 206,0 324.75,0 324.75,-32"/>
<text text-anchor="start" x="214" y="-18.5" font-family="Helvetica,sans-Serif" font-size="10.00">vector_element_random</text>
<text text-anchor="middle" x="265.38" y="-6.5" font-family="Helvetica,sans-Serif" font-size="10.00">_value</text>
</a>
</g>
</g>
<!-- Node2 -->
<g id="Node000002" class="node">
<title>Node2</title>
<g id="a_Node000002"><a xlink:href="group___t_vector.html#ga088d8ae405d0c100abe583c583d27ed3" target="_top" xlink:title="Alokace vektoru a inicializace jeho elementů na náhodné hodnoty.">
<polygon fill="white" stroke="#666666" points="170,-26 73,-26 73,-6 170,-6 170,-26"/>
<text text-anchor="middle" x="121.5" y="-12.5" font-family="Helvetica,sans-Serif" font-size="10.00">vector_init_random</text>
</a>
</g>
</g>
<!-- Node1&#45;&gt;Node2 -->
<g id="edge1_Node000001_Node000002" class="edge">
<title>Node1&#45;&gt;Node2</title>
<g id="a_edge1_Node000001_Node000002"><a xlink:title=" ">
<path fill="none" stroke="#63b8ff" d="M194.59,-16C186.29,-16 177.97,-16 170.08,-16"/>
<polygon fill="#63b8ff" stroke="#63b8ff" points="194.34,-19.5 204.34,-16 194.34,-12.5 194.34,-19.5"/>
</a>
</g>
</g>
<!-- Node3 -->
<g id="Node000003" class="node">
<title>Node3</title>
<g id="a_Node000003"><a xlink:href="group___main_program.html#ga0ddf1224851353fc92bfbff6f499fa97" target="_top" xlink:title=" ">
<polygon fill="white" stroke="#666666" points="37,-26 0,-26 0,-6 37,-6 37,-26"/>
<text text-anchor="middle" x="18.5" y="-12.5" font-family="Helvetica,sans-Serif" font-size="10.00">main</text>
</a>
</g>
</g>
<!-- Node2&#45;&gt;Node3 -->
<g id="edge2_Node000002_Node000003" class="edge">
<title>Node2&#45;&gt;Node3</title>
<g id="a_edge2_Node000002_Node000003"><a xlink:title=" ">
<path fill="none" stroke="#63b8ff" d="M61.42,-16C52.64,-16 44.21,-16 37.24,-16"/>
<polygon fill="#63b8ff" stroke="#63b8ff" points="61.15,-19.5 71.15,-16 61.15,-12.5 61.15,-19.5"/>
</a>
</g>
</g>
</g>
</svg>
