<?xml version="1.0" encoding="UTF-8" standalone="no"?>
<!DOCTYPE svg PUBLIC "-//W3C//DTD SVG 1.1//EN"
 "http://www.w3.org/Graphics/SVG/1.1/DTD/svg11.dtd">
<!-- Generated by graphviz version 11.0.0 (20240428.1522)
 -->
<!-- Title: main.c Pages: 1 -->
<svg width="455pt" height="196pt"
 viewBox="0.00 0.00 455.00 196.00" xmlns="http://www.w3.org/2000/svg" xmlns:xlink="http://www.w3.org/1999/xlink">
<g id="graph0" class="graph" transform="scale(1 1) rotate(0) translate(4 192)">
<title>main.c</title>
<!-- Node1 -->
<g id="Node000001" class="node">
<title>Node1</title>
<g id="a_Node000001"><a xlink:title="Hlavní program testující Basic Vector API.">
<polygon fill="#999999" stroke="#666666" points="227.88,-188 182.62,-188 182.62,-168 227.88,-168 227.88,-188"/>
<text text-anchor="middle" x="205.25" y="-174.5" font-family="Helvetica,sans-Serif" font-size="10.00">main.c</text>
</a>
</g>
</g>
<!-- Node2 -->
<g id="Node000002" class="node">
<title>Node2</title>
<g id="a_Node000002"><a xlink:title=" ">
<polygon fill="#e0e0e0" stroke="#999999" points="172.88,-20 127.62,-20 127.62,0 172.88,0 172.88,-20"/>
<text text-anchor="middle" x="150.25" y="-6.5" font-family="Helvetica,sans-Serif" font-size="10.00">stdio.h</text>
</a>
</g>
</g>
<!-- Node1&#45;&gt;Node2 -->
<g id="edge1_Node000001_Node000002" class="edge">
<title>Node1&#45;&gt;Node2</title>
<g id="a_edge1_Node000001_Node000002"><a xlink:title=" ">
<path fill="none" stroke="#63b8ff" d="M182.34,-170.8C145.04,-159.29 72.51,-130.67 44.25,-76 27.45,-43.5 79.35,-25.55 116.35,-17.12"/>
<polygon fill="#63b8ff" stroke="#63b8ff" points="116.72,-20.62 125.78,-15.12 115.27,-13.77 116.72,-20.62"/>
</a>
</g>
</g>
<!-- Node3 -->
<g id="Node000003" class="node">
<title>Node3</title>
<g id="a_Node000003"><a xlink:title=" ">
<polygon fill="#e0e0e0" stroke="#999999" points="447,-20 399.5,-20 399.5,0 447,0 447,-20"/>
<text text-anchor="middle" x="423.25" y="-6.5" font-family="Helvetica,sans-Serif" font-size="10.00">stdlib.h</text>
</a>
</g>
</g>
<!-- Node1&#45;&gt;Node3 -->
<g id="edge2_Node000001_Node000003" class="edge">
<title>Node1&#45;&gt;Node3</title>
<g id="a_edge2_Node000001_Node000003"><a xlink:title=" ">
<path fill="none" stroke="#63b8ff" d="M228.29,-175.54C278.07,-170.95 394.73,-152.18 438.25,-76 446.24,-62.02 441.12,-44.04 434.78,-30.54"/>
<polygon fill="#63b8ff" stroke="#63b8ff" points="437.91,-28.98 430.14,-21.78 431.73,-32.25 437.91,-28.98"/>
</a>
</g>
</g>
<!-- Node4 -->
<g id="Node000004" class="node">
<title>Node4</title>
<g id="a_Node000004"><a xlink:title=" ">
<polygon fill="#e0e0e0" stroke="#999999" points="428.75,-76 385.75,-76 385.75,-56 428.75,-56 428.75,-76"/>
<text text-anchor="middle" x="407.25" y="-62.5" font-family="Helvetica,sans-Serif" font-size="10.00">time.h</text>
</a>
</g>
</g>
<!-- Node1&#45;&gt;Node4 -->
<g id="edge3_Node000001_Node000004" class="edge">
<title>Node1&#45;&gt;Node4</title>
<g id="a_edge3_Node000001_Node000004"><a xlink:title=" ">
<path fill="none" stroke="#63b8ff" d="M228.04,-169.25C250.56,-161.2 285.7,-147.63 314.25,-132 340.62,-117.57 368.59,-97.25 386.89,-83.19"/>
<polygon fill="#63b8ff" stroke="#63b8ff" points="388.82,-86.12 394.56,-77.21 384.52,-80.6 388.82,-86.12"/>
</a>
</g>
</g>
<!-- Node5 -->
<g id="Node000005" class="node">
<title>Node5</title>
<g id="a_Node000005"><a xlink:href="_t_vector_8h.html" target="_top" xlink:title="Definice typu Basic Vector.">
<polygon fill="white" stroke="#666666" points="190.25,-132 132.25,-132 132.25,-112 190.25,-112 190.25,-132"/>
<text text-anchor="middle" x="161.25" y="-118.5" font-family="Helvetica,sans-Serif" font-size="10.00">TVector.h</text>
</a>
</g>
</g>
<!-- Node1&#45;&gt;Node5 -->
<g id="edge4_Node000001_Node000005" class="edge">
<title>Node1&#45;&gt;Node5</title>
<g id="a_edge4_Node000001_Node000005"><a xlink:title=" ">
<path fill="none" stroke="#63b8ff" d="M197.59,-167.59C191.66,-160.32 183.26,-150.02 176.04,-141.15"/>
<polygon fill="#63b8ff" stroke="#63b8ff" points="178.81,-139.01 169.78,-133.47 173.39,-143.43 178.81,-139.01"/>
</a>
</g>
</g>
<!-- Node10 -->
<g id="Node000010" class="node">
<title>Node10</title>
<g id="a_Node000010"><a xlink:title=" ">
<polygon fill="#e0e0e0" stroke="#999999" points="50.5,-20 0,-20 0,0 50.5,0 50.5,-20"/>
<text text-anchor="middle" x="25.25" y="-6.5" font-family="Helvetica,sans-Serif" font-size="10.00">check.h</text>
</a>
</g>
</g>
<!-- Node1&#45;&gt;Node10 -->
<g id="edge19_Node000001_Node000010" class="edge">
<title>Node1&#45;&gt;Node10</title>
<g id="a_edge19_Node000001_Node000010"><a xlink:title=" ">
<path fill="none" stroke="#63b8ff" d="M182.13,-174.47C152.95,-170.21 102.55,-159.24 69.25,-132 38.78,-107.08 29.41,-59.18 26.53,-31.72"/>
<polygon fill="#63b8ff" stroke="#63b8ff" points="30.03,-31.56 25.71,-21.88 23.05,-32.14 30.03,-31.56"/>
</a>
</g>
</g>
<!-- Node11 -->
<g id="Node000011" class="node">
<title>Node11</title>
<g id="a_Node000011"><a xlink:href="main__support_8h.html" target="_top" xlink:title="Soubor pro multiplatformní podporu programu v různých OS.">
<polygon fill="white" stroke="#666666" points="305.62,-132 222.88,-132 222.88,-112 305.62,-112 305.62,-132"/>
<text text-anchor="middle" x="264.25" y="-118.5" font-family="Helvetica,sans-Serif" font-size="10.00">main_support.h</text>
</a>
</g>
</g>
<!-- Node1&#45;&gt;Node11 -->
<g id="edge15_Node000001_Node000011" class="edge">
<title>Node1&#45;&gt;Node11</title>
<g id="a_edge15_Node000001_Node000011"><a xlink:title=" ">
<path fill="none" stroke="#63b8ff" d="M215.53,-167.59C223.82,-160.01 235.7,-149.13 245.65,-140.02"/>
<polygon fill="#63b8ff" stroke="#63b8ff" points="247.96,-142.65 252.97,-133.32 243.23,-137.49 247.96,-142.65"/>
</a>
</g>
</g>
<!-- Node5&#45;&gt;Node2 -->
<g id="edge5_Node000005_Node000002" class="edge">
<title>Node5&#45;&gt;Node2</title>
<g id="a_edge5_Node000005_Node000002"><a xlink:title=" ">
<path fill="none" stroke="#63b8ff" d="M159.86,-111.71C158.53,-102.62 156.55,-88.38 155.25,-76 153.69,-61.14 152.41,-44.32 151.53,-31.52"/>
<polygon fill="#63b8ff" stroke="#63b8ff" points="155.04,-31.53 150.9,-21.78 148.06,-31.99 155.04,-31.53"/>
</a>
</g>
</g>
<!-- Node6 -->
<g id="Node000006" class="node">
<title>Node6</title>
<g id="a_Node000006"><a xlink:title=" ">
<polygon fill="#e0e0e0" stroke="#999999" points="347.12,-20 291.38,-20 291.38,0 347.12,0 347.12,-20"/>
<text text-anchor="middle" x="319.25" y="-6.5" font-family="Helvetica,sans-Serif" font-size="10.00">stdbool.h</text>
</a>
</g>
</g>
<!-- Node5&#45;&gt;Node6 -->
<g id="edge6_Node000005_Node000006" class="edge">
<title>Node5&#45;&gt;Node6</title>
<g id="a_edge6_Node000005_Node000006"><a xlink:title=" ">
<path fill="none" stroke="#63b8ff" d="M190.48,-114.91C226.52,-106.84 284.92,-91.78 300.25,-76 311.78,-64.13 316.38,-45.66 318.18,-31.44"/>
<polygon fill="#63b8ff" stroke="#63b8ff" points="321.63,-32.08 319.01,-21.81 314.66,-31.47 321.63,-32.08"/>
</a>
</g>
</g>
<!-- Node7 -->
<g id="Node000007" class="node">
<title>Node7</title>
<g id="a_Node000007"><a xlink:title=" ">
<polygon fill="#e0e0e0" stroke="#999999" points="103.5,-76 53,-76 53,-56 103.5,-56 103.5,-76"/>
<text text-anchor="middle" x="78.25" y="-62.5" font-family="Helvetica,sans-Serif" font-size="10.00">stddef.h</text>
</a>
</g>
</g>
<!-- Node5&#45;&gt;Node7 -->
<g id="edge7_Node000005_Node000007" class="edge">
<title>Node5&#45;&gt;Node7</title>
<g id="a_edge7_Node000005_Node000007"><a xlink:title=" ">
<path fill="none" stroke="#63b8ff" d="M146.79,-111.59C134.49,-103.59 116.57,-91.93 102.14,-82.54"/>
<polygon fill="#63b8ff" stroke="#63b8ff" points="104.38,-79.82 94.09,-77.3 100.56,-85.69 104.38,-79.82"/>
</a>
</g>
</g>
<!-- Node8 -->
<g id="Node000008" class="node">
<title>Node8</title>
<g id="a_Node000008"><a xlink:href="_t_vector_element_8h.html" target="_top" xlink:title="Definice typu Basic VectorElement a implementace API.">
<polygon fill="white" stroke="#666666" points="291.25,-76 197.25,-76 197.25,-56 291.25,-56 291.25,-76"/>
<text text-anchor="middle" x="244.25" y="-62.5" font-family="Helvetica,sans-Serif" font-size="10.00">TVectorElement.h</text>
</a>
</g>
</g>
<!-- Node5&#45;&gt;Node8 -->
<g id="edge8_Node000005_Node000008" class="edge">
<title>Node5&#45;&gt;Node8</title>
<g id="a_edge8_Node000005_Node000008"><a xlink:title=" ">
<path fill="none" stroke="#63b8ff" d="M175.71,-111.59C188.01,-103.59 205.93,-91.93 220.36,-82.54"/>
<polygon fill="#63b8ff" stroke="#63b8ff" points="221.94,-85.69 228.41,-77.3 218.12,-79.82 221.94,-85.69"/>
</a>
</g>
</g>
<!-- Node5&#45;&gt;Node10 -->
<g id="edge14_Node000005_Node000010" class="edge">
<title>Node5&#45;&gt;Node10</title>
<g id="a_edge14_Node000005_Node000010"><a xlink:title=" ">
<path fill="none" stroke="#63b8ff" d="M131.91,-117.15C105.41,-112.15 67.17,-100.9 44.25,-76 33.04,-63.82 28.41,-45.38 26.52,-31.25"/>
<polygon fill="#63b8ff" stroke="#63b8ff" points="30.04,-31.33 25.61,-21.71 23.08,-32 30.04,-31.33"/>
</a>
</g>
</g>
<!-- Node8&#45;&gt;Node2 -->
<g id="edge9_Node000008_Node000002" class="edge">
<title>Node8&#45;&gt;Node2</title>
<g id="a_edge9_Node000008_Node000002"><a xlink:title=" ">
<path fill="none" stroke="#63b8ff" d="M227.88,-55.59C213.68,-47.44 192.87,-35.48 176.37,-26"/>
<polygon fill="#63b8ff" stroke="#63b8ff" points="178.48,-23.18 168.06,-21.23 174.99,-29.25 178.48,-23.18"/>
</a>
</g>
</g>
<!-- Node8&#45;&gt;Node3 -->
<g id="edge10_Node000008_Node000003" class="edge">
<title>Node8&#45;&gt;Node3</title>
<g id="a_edge10_Node000008_Node000003"><a xlink:title=" ">
<path fill="none" stroke="#63b8ff" d="M275.43,-55.59C306.88,-46.11 355.35,-31.48 388.13,-21.59"/>
<polygon fill="#63b8ff" stroke="#63b8ff" points="389.01,-24.99 397.57,-18.75 386.99,-18.28 389.01,-24.99"/>
</a>
</g>
</g>
<!-- Node8&#45;&gt;Node6 -->
<g id="edge11_Node000008_Node000006" class="edge">
<title>Node8&#45;&gt;Node6</title>
<g id="a_edge11_Node000008_Node000006"><a xlink:title=" ">
<path fill="none" stroke="#63b8ff" d="M257.31,-55.59C268.22,-47.74 284,-36.38 296.91,-27.09"/>
<polygon fill="#63b8ff" stroke="#63b8ff" points="298.79,-30.05 304.86,-21.36 294.7,-24.37 298.79,-30.05"/>
</a>
</g>
</g>
<!-- Node9 -->
<g id="Node000009" class="node">
<title>Node9</title>
<g id="a_Node000009"><a xlink:title=" ">
<polygon fill="#e0e0e0" stroke="#999999" points="269.88,-20 218.62,-20 218.62,0 269.88,0 269.88,-20"/>
<text text-anchor="middle" x="244.25" y="-6.5" font-family="Helvetica,sans-Serif" font-size="10.00">assert.h</text>
</a>
</g>
</g>
<!-- Node8&#45;&gt;Node9 -->
<g id="edge12_Node000008_Node000009" class="edge">
<title>Node8&#45;&gt;Node9</title>
<g id="a_edge12_Node000008_Node000009"><a xlink:title=" ">
<path fill="none" stroke="#63b8ff" d="M244.25,-55.59C244.25,-49.01 244.25,-39.96 244.25,-31.73"/>
<polygon fill="#63b8ff" stroke="#63b8ff" points="247.75,-31.81 244.25,-21.81 240.75,-31.81 247.75,-31.81"/>
</a>
</g>
</g>
<!-- Node8&#45;&gt;Node10 -->
<g id="edge13_Node000008_Node000010" class="edge">
<title>Node8&#45;&gt;Node10</title>
<g id="a_edge13_Node000008_Node000010"><a xlink:title=" ">
<path fill="none" stroke="#63b8ff" d="M205.85,-55.53C165.32,-45.54 101.9,-29.9 62,-20.06"/>
<polygon fill="#63b8ff" stroke="#63b8ff" points="62.94,-16.69 52.39,-17.69 61.26,-23.48 62.94,-16.69"/>
</a>
</g>
</g>
<!-- Node11&#45;&gt;Node2 -->
<g id="edge16_Node000011_Node000002" class="edge">
<title>Node11&#45;&gt;Node2</title>
<g id="a_edge16_Node000011_Node000002"><a xlink:title=" ">
<path fill="none" stroke="#63b8ff" d="M241.94,-111.53C225.61,-103.77 203.71,-91.55 188.25,-76 175.29,-62.97 165.1,-44.64 158.55,-30.76"/>
<polygon fill="#63b8ff" stroke="#63b8ff" points="161.8,-29.47 154.54,-21.76 155.41,-32.32 161.8,-29.47"/>
</a>
</g>
</g>
<!-- Node11&#45;&gt;Node4 -->
<g id="edge17_Node000011_Node000004" class="edge">
<title>Node11&#45;&gt;Node4</title>
<g id="a_edge17_Node000011_Node000004"><a xlink:title=" ">
<path fill="none" stroke="#63b8ff" d="M289.16,-111.59C312.96,-102.6 348.98,-89.01 374.97,-79.19"/>
<polygon fill="#63b8ff" stroke="#63b8ff" points="375.9,-82.58 384.02,-75.77 373.43,-76.03 375.9,-82.58"/>
</a>
</g>
</g>
<!-- Node11&#45;&gt;Node6 -->
<g id="edge18_Node000011_Node000006" class="edge">
<title>Node11&#45;&gt;Node6</title>
<g id="a_edge18_Node000011_Node000006"><a xlink:title=" ">
<path fill="none" stroke="#63b8ff" d="M290.11,-111.56C305.64,-104.39 324.12,-92.85 333.25,-76 340.9,-61.89 336.1,-43.92 330.13,-30.46"/>
<polygon fill="#63b8ff" stroke="#63b8ff" points="333.37,-29.12 325.76,-21.75 327.11,-32.25 333.37,-29.12"/>
</a>
</g>
</g>
</g>
</svg>
