<?xml version="1.0" encoding="UTF-8" standalone="no"?>
<!DOCTYPE svg PUBLIC "-//W3C//DTD SVG 1.1//EN"
 "http://www.w3.org/Graphics/SVG/1.1/DTD/svg11.dtd">
<!-- Generated by graphviz version 11.0.0 (20240428.1522)
 -->
<!-- Title: difftimespec Pages: 1 -->
<svg width="262pt" height="28pt"
 viewBox="0.00 0.00 261.50 28.00" xmlns="http://www.w3.org/2000/svg" xmlns:xlink="http://www.w3.org/1999/xlink">
<g id="graph0" class="graph" transform="scale(1 1) rotate(0) translate(4 24)">
<title>difftimespec</title>
<!-- Node1 -->
<g id="Node000001" class="node">
<title>Node1</title>
<g id="a_Node000001"><a xlink:title="Výpočet doby trvání časového intervalu.">
<polygon fill="#999999" stroke="#666666" points="253.5,-20 185.75,-20 185.75,0 253.5,0 253.5,-20"/>
<text text-anchor="middle" x="219.62" y="-6.5" font-family="Helvetica,sans-Serif" font-size="10.00">difftimespec</text>
</a>
</g>
</g>
<!-- Node2 -->
<g id="Node000002" class="node">
<title>Node2</title>
<g id="a_Node000002"><a xlink:href="group___main_program.html#ga389209d8bde0a8922177efb8ed7a22a6" target="_top" xlink:title="Testování funkce vector_resize().">
<polygon fill="white" stroke="#666666" points="149.75,-20 73,-20 73,0 149.75,0 149.75,-20"/>
<text text-anchor="middle" x="111.38" y="-6.5" font-family="Helvetica,sans-Serif" font-size="10.00">resize_testing</text>
</a>
</g>
</g>
<!-- Node1&#45;&gt;Node2 -->
<g id="edge1_Node000001_Node000002" class="edge">
<title>Node1&#45;&gt;Node2</title>
<g id="a_edge1_Node000001_Node000002"><a xlink:title=" ">
<path fill="none" stroke="#63b8ff" d="M173.92,-10C165.97,-10 157.76,-10 150.03,-10"/>
<polygon fill="#63b8ff" stroke="#63b8ff" points="173.78,-13.5 183.78,-10 173.78,-6.5 173.78,-13.5"/>
</a>
</g>
</g>
<!-- Node3 -->
<g id="Node000003" class="node">
<title>Node3</title>
<g id="a_Node000003"><a xlink:href="group___main_program.html#ga0ddf1224851353fc92bfbff6f499fa97" target="_top" xlink:title=" ">
<polygon fill="white" stroke="#666666" points="37,-20 0,-20 0,0 37,0 37,-20"/>
<text text-anchor="middle" x="18.5" y="-6.5" font-family="Helvetica,sans-Serif" font-size="10.00">main</text>
</a>
</g>
</g>
<!-- Node2&#45;&gt;Node3 -->
<g id="edge2_Node000002_Node000003" class="edge">
<title>Node2&#45;&gt;Node3</title>
<g id="a_edge2_Node000002_Node000003"><a xlink:title=" ">
<path fill="none" stroke="#63b8ff" d="M61.28,-10C52.65,-10 44.2,-10 37.18,-10"/>
<polygon fill="#63b8ff" stroke="#63b8ff" points="61.11,-13.5 71.11,-10 61.11,-6.5 61.11,-13.5"/>
</a>
</g>
</g>
</g>
</svg>
