<?xml version="1.0" encoding="UTF-8" standalone="no"?>
<!DOCTYPE svg PUBLIC "-//W3C//DTD SVG 1.1//EN"
 "http://www.w3.org/Graphics/SVG/1.1/DTD/svg11.dtd">
<!-- Generated by graphviz version 11.0.0 (20240428.1522)
 -->
<!-- Title: TStack.c Pages: 1 -->
<svg width="198pt" height="140pt"
 viewBox="0.00 0.00 198.12 140.00" xmlns="http://www.w3.org/2000/svg" xmlns:xlink="http://www.w3.org/1999/xlink">
<g id="graph0" class="graph" transform="scale(1 1) rotate(0) translate(4 136)">
<title>TStack.c</title>
<!-- Node1 -->
<g id="Node000001" class="node">
<title>Node1</title>
<g id="a_Node000001"><a xlink:title="Implementace API pro typ zásobník (realizace pomocí lineárního jednosměrně vázaného seznamu).">
<polygon fill="#999999" stroke="#666666" points="125.38,-132 70.38,-132 70.38,-112 125.38,-112 125.38,-132"/>
<text text-anchor="middle" x="97.88" y="-118.5" font-family="Helvetica,sans-Serif" font-size="10.00">TStack.c</text>
</a>
</g>
</g>
<!-- Node2 -->
<g id="Node000002" class="node">
<title>Node2</title>
<g id="a_Node000002"><a xlink:href="_t_stack_8h.html" target="_top" xlink:title="Definice typu zásobník (realizace pomocí lineárního jednosměrně vázaného seznamu).">
<polygon fill="white" stroke="#666666" points="125.38,-76 70.38,-76 70.38,-56 125.38,-56 125.38,-76"/>
<text text-anchor="middle" x="97.88" y="-62.5" font-family="Helvetica,sans-Serif" font-size="10.00">TStack.h</text>
</a>
</g>
</g>
<!-- Node1&#45;&gt;Node2 -->
<g id="edge1_Node000001_Node000002" class="edge">
<title>Node1&#45;&gt;Node2</title>
<g id="a_edge1_Node000001_Node000002"><a xlink:title=" ">
<path fill="none" stroke="#63b8ff" d="M97.88,-111.59C97.88,-105.01 97.88,-95.96 97.88,-87.73"/>
<polygon fill="#63b8ff" stroke="#63b8ff" points="101.38,-87.81 97.88,-77.81 94.38,-87.81 101.38,-87.81"/>
</a>
</g>
</g>
<!-- Node3 -->
<g id="Node000003" class="node">
<title>Node3</title>
<g id="a_Node000003"><a xlink:title=" ">
<polygon fill="#e0e0e0" stroke="#999999" points="55.75,-20 0,-20 0,0 55.75,0 55.75,-20"/>
<text text-anchor="middle" x="27.88" y="-6.5" font-family="Helvetica,sans-Serif" font-size="10.00">stdbool.h</text>
</a>
</g>
</g>
<!-- Node2&#45;&gt;Node3 -->
<g id="edge2_Node000002_Node000003" class="edge">
<title>Node2&#45;&gt;Node3</title>
<g id="a_edge2_Node000002_Node000003"><a xlink:title=" ">
<path fill="none" stroke="#63b8ff" d="M85.68,-55.59C75.54,-47.77 60.88,-36.46 48.86,-27.19"/>
<polygon fill="#63b8ff" stroke="#63b8ff" points="51.18,-24.56 41.13,-21.22 46.91,-30.1 51.18,-24.56"/>
</a>
</g>
</g>
<!-- Node4 -->
<g id="Node000004" class="node">
<title>Node4</title>
<g id="a_Node000004"><a xlink:title=" ">
<polygon fill="#e0e0e0" stroke="#999999" points="121.62,-20 74.12,-20 74.12,0 121.62,0 121.62,-20"/>
<text text-anchor="middle" x="97.88" y="-6.5" font-family="Helvetica,sans-Serif" font-size="10.00">stdlib.h</text>
</a>
</g>
</g>
<!-- Node2&#45;&gt;Node4 -->
<g id="edge3_Node000002_Node000004" class="edge">
<title>Node2&#45;&gt;Node4</title>
<g id="a_edge3_Node000002_Node000004"><a xlink:title=" ">
<path fill="none" stroke="#63b8ff" d="M97.88,-55.59C97.88,-49.01 97.88,-39.96 97.88,-31.73"/>
<polygon fill="#63b8ff" stroke="#63b8ff" points="101.38,-31.81 97.88,-21.81 94.38,-31.81 101.38,-31.81"/>
</a>
</g>
</g>
<!-- Node5 -->
<g id="Node000005" class="node">
<title>Node5</title>
<g id="a_Node000005"><a xlink:title=" ">
<polygon fill="#e0e0e0" stroke="#999999" points="190.12,-20 139.62,-20 139.62,0 190.12,0 190.12,-20"/>
<text text-anchor="middle" x="164.88" y="-6.5" font-family="Helvetica,sans-Serif" font-size="10.00">check.h</text>
</a>
</g>
</g>
<!-- Node2&#45;&gt;Node5 -->
<g id="edge4_Node000002_Node000005" class="edge">
<title>Node2&#45;&gt;Node5</title>
<g id="a_edge4_Node000002_Node000005"><a xlink:title=" ">
<path fill="none" stroke="#63b8ff" d="M109.55,-55.59C119.15,-47.85 133,-36.69 144.44,-27.47"/>
<polygon fill="#63b8ff" stroke="#63b8ff" points="146.57,-30.25 152.16,-21.25 142.18,-24.8 146.57,-30.25"/>
</a>
</g>
</g>
</g>
</svg>
