<?xml version="1.0" encoding="UTF-8" standalone="no"?>
<!DOCTYPE svg PUBLIC "-//W3C//DTD SVG 1.1//EN"
 "http://www.w3.org/Graphics/SVG/1.1/DTD/svg11.dtd">
<!-- Generated by graphviz version 11.0.0 (20240428.1522)
 -->
<!-- Title: stack_is_empty Pages: 1 -->
<svg width="440pt" height="118pt"
 viewBox="0.00 0.00 439.50 117.72" xmlns="http://www.w3.org/2000/svg" xmlns:xlink="http://www.w3.org/1999/xlink">
<g id="graph0" class="graph" transform="scale(1 1) rotate(0) translate(4 113.72)">
<title>stack_is_empty</title>
<!-- Node1 -->
<g id="Node000001" class="node">
<title>Node1</title>
<g id="a_Node000001"><a xlink:title="Zjištění, zda je zásobník prázdný">
<polygon fill="#999999" stroke="#666666" points="431.5,-77 346.5,-77 346.5,-57 431.5,-57 431.5,-77"/>
<text text-anchor="middle" x="389" y="-63.5" font-family="Helvetica,sans-Serif" font-size="10.00">stack_is_empty</text>
</a>
</g>
</g>
<!-- Node2 -->
<g id="Node000002" class="node">
<title>Node2</title>
<g id="a_Node000002"><a xlink:href="group___main_program.html#ga367aadf6f2e33e86efe4a50daff32e81" target="_top" xlink:title="Testování API Stack.">
<polygon fill="white" stroke="#666666" points="213.5,-58 73,-58 73,-38 213.5,-38 213.5,-58"/>
<text text-anchor="middle" x="143.25" y="-44.5" font-family="Helvetica,sans-Serif" font-size="10.00">demo_tiskni_slova_pozpatku</text>
</a>
</g>
</g>
<!-- Node1&#45;&gt;Node2 -->
<g id="edge1_Node000001_Node000002" class="edge">
<title>Node1&#45;&gt;Node2</title>
<g id="a_edge1_Node000001_Node000002"><a xlink:title=" ">
<path fill="none" stroke="#63b8ff" d="M334.99,-62.87C299.44,-60.1 252.25,-56.42 213.71,-53.41"/>
<polygon fill="#63b8ff" stroke="#63b8ff" points="334.35,-66.33 344.59,-63.62 334.89,-59.35 334.35,-66.33"/>
</a>
</g>
</g>
<!-- Node3 -->
<g id="Node000003" class="node">
<title>Node3</title>
<g id="a_Node000003"><a xlink:href="group___main_program.html#ga0ddf1224851353fc92bfbff6f499fa97" target="_top" xlink:title=" ">
<polygon fill="white" stroke="#666666" points="37,-77 0,-77 0,-57 37,-57 37,-77"/>
<text text-anchor="middle" x="18.5" y="-63.5" font-family="Helvetica,sans-Serif" font-size="10.00">main</text>
</a>
</g>
</g>
<!-- Node1&#45;&gt;Node3 -->
<g id="edge3_Node000001_Node000003" class="edge">
<title>Node1&#45;&gt;Node3</title>
<g id="a_edge3_Node000001_Node000003"><a xlink:title=" ">
<path fill="none" stroke="#63b8ff" d="M362.41,-83.24C347.81,-91.53 328.82,-100.75 310.5,-105 258.39,-117.09 124.13,-102.81 73,-90 60.64,-86.91 47.49,-81.29 37.32,-76.38"/>
<polygon fill="#63b8ff" stroke="#63b8ff" points="364.06,-86.33 370.88,-78.22 360.5,-80.3 364.06,-86.33"/>
</a>
</g>
</g>
<!-- Node4 -->
<g id="Node000004" class="node">
<title>Node4</title>
<g id="a_Node000004"><a xlink:href="group___t_stack.html#ga480af197cbd84970291358c870ec9b90" target="_top" xlink:title="Odstranění elementu na vrcholu zásobníku.">
<polygon fill="white" stroke="#666666" points="310.5,-96 249.5,-96 249.5,-76 310.5,-76 310.5,-96"/>
<text text-anchor="middle" x="280" y="-82.5" font-family="Helvetica,sans-Serif" font-size="10.00">stack_pop</text>
</a>
</g>
</g>
<!-- Node1&#45;&gt;Node4 -->
<g id="edge4_Node000001_Node000004" class="edge">
<title>Node1&#45;&gt;Node4</title>
<g id="a_edge4_Node000001_Node000004"><a xlink:title=" ">
<path fill="none" stroke="#63b8ff" d="M334.89,-76.43C326.66,-77.89 318.43,-79.35 310.96,-80.68"/>
<polygon fill="#63b8ff" stroke="#63b8ff" points="335.29,-79.91 344.53,-74.72 334.07,-73.02 335.29,-79.91"/>
</a>
</g>
</g>
<!-- Node5 -->
<g id="Node000005" class="node">
<title>Node5</title>
<g id="a_Node000005"><a xlink:href="group___t_stack.html#gac84fd2f3c38113a7d9d4cf5123b581f3" target="_top" xlink:title="Získání hodnoty elementu na vrcholu zásobníku.">
<polygon fill="white" stroke="#666666" points="309.38,-20 250.62,-20 250.62,0 309.38,0 309.38,-20"/>
<text text-anchor="middle" x="280" y="-6.5" font-family="Helvetica,sans-Serif" font-size="10.00">stack_top</text>
</a>
</g>
</g>
<!-- Node1&#45;&gt;Node5 -->
<g id="edge7_Node000001_Node000005" class="edge">
<title>Node1&#45;&gt;Node5</title>
<g id="a_edge7_Node000001_Node000005"><a xlink:title=" ">
<path fill="none" stroke="#63b8ff" d="M358.41,-51.24C339.94,-41.4 316.68,-29.01 300.5,-20.39"/>
<polygon fill="#63b8ff" stroke="#63b8ff" points="356.57,-54.22 367.04,-55.83 359.86,-48.04 356.57,-54.22"/>
</a>
</g>
</g>
<!-- Node2&#45;&gt;Node3 -->
<g id="edge2_Node000002_Node000003" class="edge">
<title>Node2&#45;&gt;Node3</title>
<g id="a_edge2_Node000002_Node000003"><a xlink:title=" ">
<path fill="none" stroke="#63b8ff" d="M63.59,-60.18C53.87,-61.68 44.78,-63.09 37.41,-64.23"/>
<polygon fill="#63b8ff" stroke="#63b8ff" points="63.93,-63.66 73.27,-58.68 62.86,-56.75 63.93,-63.66"/>
</a>
</g>
</g>
<!-- Node4&#45;&gt;Node2 -->
<g id="edge5_Node000004_Node000002" class="edge">
<title>Node4&#45;&gt;Node2</title>
<g id="a_edge5_Node000004_Node000002"><a xlink:title=" ">
<path fill="none" stroke="#63b8ff" d="M238.27,-74.51C220.14,-69.4 198.96,-63.43 181.29,-58.44"/>
<polygon fill="#63b8ff" stroke="#63b8ff" points="237.06,-77.81 247.64,-77.16 238.96,-71.07 237.06,-77.81"/>
</a>
</g>
</g>
<!-- Node4&#45;&gt;Node3 -->
<g id="edge6_Node000004_Node000003" class="edge">
<title>Node4&#45;&gt;Node3</title>
<g id="a_edge6_Node000004_Node000003"><a xlink:title=" ">
<path fill="none" stroke="#63b8ff" d="M238.02,-83C180.56,-78.79 78.45,-71.32 37.36,-68.31"/>
<polygon fill="#63b8ff" stroke="#63b8ff" points="237.49,-86.47 247.72,-83.71 238,-79.49 237.49,-86.47"/>
</a>
</g>
</g>
<!-- Node5&#45;&gt;Node2 -->
<g id="edge8_Node000005_Node000002" class="edge">
<title>Node5&#45;&gt;Node2</title>
<g id="a_edge8_Node000005_Node000002"><a xlink:title=" ">
<path fill="none" stroke="#63b8ff" d="M239.47,-21.15C221.07,-26.34 199.31,-32.47 181.24,-37.57"/>
<polygon fill="#63b8ff" stroke="#63b8ff" points="240.29,-24.55 248.97,-18.47 238.39,-17.82 240.29,-24.55"/>
</a>
</g>
</g>
<!-- Node5&#45;&gt;Node3 -->
<g id="edge9_Node000005_Node000003" class="edge">
<title>Node5&#45;&gt;Node3</title>
<g id="a_edge9_Node000005_Node000003"><a xlink:title=" ">
<path fill="none" stroke="#63b8ff" d="M239.05,-7.65C196.54,-6.52 127.95,-8.64 73,-29 56.55,-35.09 40.53,-47.61 30.38,-56.61"/>
<polygon fill="#63b8ff" stroke="#63b8ff" points="238.69,-11.14 248.81,-7.99 238.94,-4.15 238.69,-11.14"/>
</a>
</g>
</g>
</g>
</svg>
