<?xml version="1.0" encoding="UTF-8" standalone="no"?>
<!DOCTYPE svg PUBLIC "-//W3C//DTD SVG 1.1//EN"
 "http://www.w3.org/Graphics/SVG/1.1/DTD/svg11.dtd">
<!-- Generated by graphviz version 11.0.0 (20240428.1522)
 -->
<!-- Title: main Pages: 1 -->
<svg width="491pt" height="464pt"
 viewBox="0.00 0.00 490.50 464.00" xmlns="http://www.w3.org/2000/svg" xmlns:xlink="http://www.w3.org/1999/xlink">
<g id="graph0" class="graph" transform="scale(1 1) rotate(0) translate(4 460)">
<title>main</title>
<!-- Node1 -->
<g id="Node000001" class="node">
<title>Node1</title>
<g id="a_Node000001"><a xlink:title=" ">
<polygon fill="#999999" stroke="#666666" points="37,-247 0,-247 0,-227 37,-227 37,-247"/>
<text text-anchor="middle" x="18.5" y="-233.5" font-family="Helvetica,sans-Serif" font-size="10.00">main</text>
</a>
</g>
</g>
<!-- Node2 -->
<g id="Node000002" class="node">
<title>Node2</title>
<g id="a_Node000002"><a xlink:href="main__support_8h.html#a2d31e17cb6a745a38f21a15a8b9f6142" target="_top" xlink:title="Konverzní funkce z hodnoty typu bool na C&#45;řetězec.">
<polygon fill="white" stroke="#666666" points="184.25,-456 102.25,-456 102.25,-436 184.25,-436 184.25,-456"/>
<text text-anchor="middle" x="143.25" y="-442.5" font-family="Helvetica,sans-Serif" font-size="10.00">bool_to_cstring</text>
</a>
</g>
</g>
<!-- Node1&#45;&gt;Node2 -->
<g id="edge1_Node000001_Node000002" class="edge">
<title>Node1&#45;&gt;Node2</title>
<g id="a_edge1_Node000001_Node000002"><a xlink:title=" ">
<path fill="none" stroke="#63b8ff" d="M19.38,-247.4C19.58,-278.33 24.43,-370.83 73,-422 78.18,-427.46 84.66,-431.67 91.56,-434.93"/>
<polygon fill="#63b8ff" stroke="#63b8ff" points="89.89,-438.03 100.48,-438.49 92.49,-431.53 89.89,-438.03"/>
</a>
</g>
</g>
<!-- Node3 -->
<g id="Node000003" class="node">
<title>Node3</title>
<g id="a_Node000003"><a xlink:href="group___main_program.html#ga367aadf6f2e33e86efe4a50daff32e81" target="_top" xlink:title="Testování API Stack.">
<polygon fill="white" stroke="#666666" points="213.5,-304 73,-304 73,-284 213.5,-284 213.5,-304"/>
<text text-anchor="middle" x="143.25" y="-290.5" font-family="Helvetica,sans-Serif" font-size="10.00">demo_tiskni_slova_pozpatku</text>
</a>
</g>
</g>
<!-- Node1&#45;&gt;Node3 -->
<g id="edge2_Node000001_Node000003" class="edge">
<title>Node1&#45;&gt;Node3</title>
<g id="a_edge2_Node000001_Node000003"><a xlink:title=" ">
<path fill="none" stroke="#63b8ff" d="M34.45,-247.45C44.91,-254.46 59.39,-263.54 73,-270 80.51,-273.56 88.69,-276.87 96.72,-279.82"/>
<polygon fill="#63b8ff" stroke="#63b8ff" points="95.47,-283.09 106.06,-283.11 97.79,-276.49 95.47,-283.09"/>
</a>
</g>
</g>
<!-- Node4 -->
<g id="Node000004" class="node">
<title>Node4</title>
<g id="a_Node000004"><a xlink:href="group___t_stack.html#ga543615a4df26ed863b9e92228b69d04a" target="_top" xlink:title="Deinicializace zásobníku.">
<polygon fill="white" stroke="#666666" points="344.25,-380 266.75,-380 266.75,-360 344.25,-360 344.25,-380"/>
<text text-anchor="middle" x="305.5" y="-366.5" font-family="Helvetica,sans-Serif" font-size="10.00">stack_destroy</text>
</a>
</g>
</g>
<!-- Node1&#45;&gt;Node4 -->
<g id="edge11_Node000001_Node000004" class="edge">
<title>Node1&#45;&gt;Node4</title>
<g id="a_edge11_Node000001_Node000004"><a xlink:title=" ">
<path fill="none" stroke="#63b8ff" d="M21.49,-247.37C26.21,-268.85 40.22,-318.08 73,-341 126.74,-378.57 205.09,-380.22 255.43,-376.36"/>
<polygon fill="#63b8ff" stroke="#63b8ff" points="255.5,-379.86 265.16,-375.5 254.89,-372.89 255.5,-379.86"/>
</a>
</g>
</g>
<!-- Node5 -->
<g id="Node000005" class="node">
<title>Node5</title>
<g id="a_Node000005"><a xlink:href="group___t_stack.html#ga22a9f4ad0c450cdbbfb7546493b1f781" target="_top" xlink:title="Inicializace prázdného zásobníku.">
<polygon fill="white" stroke="#666666" points="334.5,-342 276.5,-342 276.5,-322 334.5,-322 334.5,-342"/>
<text text-anchor="middle" x="305.5" y="-328.5" font-family="Helvetica,sans-Serif" font-size="10.00">stack_init</text>
</a>
</g>
</g>
<!-- Node1&#45;&gt;Node5 -->
<g id="edge12_Node000001_Node000005" class="edge">
<title>Node1&#45;&gt;Node5</title>
<g id="a_edge12_Node000001_Node000005"><a xlink:title=" ">
<path fill="none" stroke="#63b8ff" d="M23.36,-247.32C30.33,-264.37 46.81,-298.02 73,-313 132.98,-347.32 216.4,-344.2 264.99,-338.39"/>
<polygon fill="#63b8ff" stroke="#63b8ff" points="265.31,-341.88 274.77,-337.12 264.4,-334.94 265.31,-341.88"/>
</a>
</g>
</g>
<!-- Node6 -->
<g id="Node000006" class="node">
<title>Node6</title>
<g id="a_Node000006"><a xlink:href="group___t_stack.html#gab2a53c66f9bb439a8749c97f9c9d9f2d" target="_top" xlink:title="Zjištění, zda je zásobník prázdný">
<polygon fill="white" stroke="#666666" points="482.5,-285 397.5,-285 397.5,-265 482.5,-265 482.5,-285"/>
<text text-anchor="middle" x="440" y="-271.5" font-family="Helvetica,sans-Serif" font-size="10.00">stack_is_empty</text>
</a>
</g>
</g>
<!-- Node1&#45;&gt;Node6 -->
<g id="edge13_Node000001_Node000006" class="edge">
<title>Node1&#45;&gt;Node6</title>
<g id="a_edge13_Node000001_Node000006"><a xlink:title=" ">
<path fill="none" stroke="#63b8ff" d="M20.07,-247.33C22.11,-273.36 31.38,-341.8 73,-373 136.03,-420.24 170.81,-385.44 249.5,-389 299.23,-391.25 317.51,-412.29 361.5,-389 398.53,-369.4 421.16,-323.28 431.77,-296.09"/>
<polygon fill="#63b8ff" stroke="#63b8ff" points="435.01,-297.42 435.17,-286.83 428.44,-295.01 435.01,-297.42"/>
</a>
</g>
</g>
<!-- Node7 -->
<g id="Node000007" class="node">
<title>Node7</title>
<g id="a_Node000007"><a xlink:href="group___t_stack.html#ga480af197cbd84970291358c870ec9b90" target="_top" xlink:title="Odstranění elementu na vrcholu zásobníku.">
<polygon fill="white" stroke="#666666" points="336,-266 275,-266 275,-246 336,-246 336,-266"/>
<text text-anchor="middle" x="305.5" y="-252.5" font-family="Helvetica,sans-Serif" font-size="10.00">stack_pop</text>
</a>
</g>
</g>
<!-- Node1&#45;&gt;Node7 -->
<g id="edge20_Node000001_Node000007" class="edge">
<title>Node1&#45;&gt;Node7</title>
<g id="a_edge20_Node000001_Node000007"><a xlink:title=" ">
<path fill="none" stroke="#63b8ff" d="M37.33,-238.19C82.18,-241.18 200.63,-249.08 263.67,-253.28"/>
<polygon fill="#63b8ff" stroke="#63b8ff" points="263.05,-256.74 273.26,-253.92 263.52,-249.76 263.05,-256.74"/>
</a>
</g>
</g>
<!-- Node8 -->
<g id="Node000008" class="node">
<title>Node8</title>
<g id="a_Node000008"><a xlink:href="group___t_stack.html#ga8ee1e96ca9c6c84eb97fea0a3506938c" target="_top" xlink:title="Vložení elementu na vrchol zásobníku.">
<polygon fill="white" stroke="#666666" points="338.62,-190 272.38,-190 272.38,-170 338.62,-170 338.62,-190"/>
<text text-anchor="middle" x="305.5" y="-176.5" font-family="Helvetica,sans-Serif" font-size="10.00">stack_push</text>
</a>
</g>
</g>
<!-- Node1&#45;&gt;Node8 -->
<g id="edge21_Node000001_Node000008" class="edge">
<title>Node1&#45;&gt;Node8</title>
<g id="a_edge21_Node000001_Node000008"><a xlink:title=" ">
<path fill="none" stroke="#63b8ff" d="M37.16,-230.72C47.51,-227.21 60.88,-222.96 73,-220 137.65,-204.22 213.94,-192.31 260.76,-185.74"/>
<polygon fill="#63b8ff" stroke="#63b8ff" points="261.08,-189.23 270.51,-184.39 260.12,-182.29 261.08,-189.23"/>
</a>
</g>
</g>
<!-- Node9 -->
<g id="Node000009" class="node">
<title>Node9</title>
<g id="a_Node000009"><a xlink:href="group___t_stack.html#gac84fd2f3c38113a7d9d4cf5123b581f3" target="_top" xlink:title="Získání hodnoty elementu na vrcholu zásobníku.">
<polygon fill="white" stroke="#666666" points="334.88,-228 276.12,-228 276.12,-208 334.88,-208 334.88,-228"/>
<text text-anchor="middle" x="305.5" y="-214.5" font-family="Helvetica,sans-Serif" font-size="10.00">stack_top</text>
</a>
</g>
</g>
<!-- Node1&#45;&gt;Node9 -->
<g id="edge22_Node000001_Node000009" class="edge">
<title>Node1&#45;&gt;Node9</title>
<g id="a_edge22_Node000001_Node000009"><a xlink:title=" ">
<path fill="none" stroke="#63b8ff" d="M37.33,-235.81C82.32,-232.81 201.35,-224.88 264.25,-220.68"/>
<polygon fill="#63b8ff" stroke="#63b8ff" points="264.42,-224.18 274.16,-220.02 263.95,-217.2 264.42,-224.18"/>
</a>
</g>
</g>
<!-- Node10 -->
<g id="Node000010" class="node">
<title>Node10</title>
<g id="a_Node000010"><a xlink:href="group___t_stack_iterator.html#gaa3bbe9fce0de463850601e23ebc552ff" target="_top" xlink:title="Vytvoření nového iterátoru ukazujícího na vrchol zásobníku.">
<polygon fill="white" stroke="#666666" points="195.12,-134 91.38,-134 91.38,-114 195.12,-114 195.12,-134"/>
<text text-anchor="middle" x="143.25" y="-120.5" font-family="Helvetica,sans-Serif" font-size="10.00">stack_iterator_begin</text>
</a>
</g>
</g>
<!-- Node1&#45;&gt;Node10 -->
<g id="edge14_Node000001_Node000010" class="edge">
<title>Node1&#45;&gt;Node10</title>
<g id="a_edge14_Node000001_Node000010"><a xlink:title=" ">
<path fill="none" stroke="#63b8ff" d="M25.4,-226.87C34.32,-212.16 52.39,-184.63 73,-166 84.16,-155.91 98.1,-146.91 110.53,-139.86"/>
<polygon fill="#63b8ff" stroke="#63b8ff" points="112.1,-142.99 119.2,-135.14 108.75,-136.85 112.1,-142.99"/>
</a>
</g>
</g>
<!-- Node11 -->
<g id="Node000011" class="node">
<title>Node11</title>
<g id="a_Node000011"><a xlink:href="group___t_stack_iterator.html#gad5a597d5a1e8f27eaac18d9a030997e3" target="_top" xlink:title="Zjištění platnosti iterátoru.">
<polygon fill="white" stroke="#666666" points="361.5,-77 249.5,-77 249.5,-57 361.5,-57 361.5,-77"/>
<text text-anchor="middle" x="305.5" y="-63.5" font-family="Helvetica,sans-Serif" font-size="10.00">stack_iterator_is_valid</text>
</a>
</g>
</g>
<!-- Node1&#45;&gt;Node11 -->
<g id="edge16_Node000001_Node000011" class="edge">
<title>Node1&#45;&gt;Node11</title>
<g id="a_edge16_Node000001_Node000011"><a xlink:title=" ">
<path fill="none" stroke="#63b8ff" d="M20.35,-226.77C23.02,-201.61 33.59,-136.49 73,-105 97.88,-85.11 178.79,-75.34 237.96,-70.75"/>
<polygon fill="#63b8ff" stroke="#63b8ff" points="237.89,-74.26 247.6,-70.04 237.37,-67.28 237.89,-74.26"/>
</a>
</g>
</g>
<!-- Node12 -->
<g id="Node000012" class="node">
<title>Node12</title>
<g id="a_Node000012"><a xlink:href="group___t_stack_iterator.html#gaa94902ad8202ccc9fdfe08aa660e3903" target="_top" xlink:title="Posunutí iterátoru vpřed.">
<polygon fill="white" stroke="#666666" points="199.62,-20 86.88,-20 86.88,0 199.62,0 199.62,-20"/>
<text text-anchor="middle" x="143.25" y="-6.5" font-family="Helvetica,sans-Serif" font-size="10.00">stack_iterator_to_next</text>
</a>
</g>
</g>
<!-- Node1&#45;&gt;Node12 -->
<g id="edge17_Node000001_Node000012" class="edge">
<title>Node1&#45;&gt;Node12</title>
<g id="a_edge17_Node000001_Node000012"><a xlink:title=" ">
<path fill="none" stroke="#63b8ff" d="M20.8,-226.53C25.74,-188.43 44.49,-57.97 73,-29 74.35,-27.63 75.79,-26.35 77.31,-25.16"/>
<polygon fill="#63b8ff" stroke="#63b8ff" points="78.78,-28.37 85.4,-20.1 75.07,-22.43 78.78,-28.37"/>
</a>
</g>
</g>
<!-- Node13 -->
<g id="Node000013" class="node">
<title>Node13</title>
<g id="a_Node000013"><a xlink:href="group___t_stack_iterator.html#ga1e006b0649df0fac42315afb488f283e" target="_top" xlink:title="Přečtení hodnoty elementu ze zásobníku pomocí iterátoru.">
<polygon fill="white" stroke="#666666" points="194.38,-58 92.12,-58 92.12,-38 194.38,-38 194.38,-58"/>
<text text-anchor="middle" x="143.25" y="-44.5" font-family="Helvetica,sans-Serif" font-size="10.00">stack_iterator_value</text>
</a>
</g>
</g>
<!-- Node1&#45;&gt;Node13 -->
<g id="edge18_Node000001_Node000013" class="edge">
<title>Node1&#45;&gt;Node13</title>
<g id="a_edge18_Node000001_Node000013"><a xlink:title=" ">
<path fill="none" stroke="#63b8ff" d="M19.79,-226.9C21.16,-198.48 28.94,-116.95 73,-72 76.12,-68.82 79.68,-66.06 83.5,-63.67"/>
<polygon fill="#63b8ff" stroke="#63b8ff" points="84.88,-66.89 92.1,-59.14 81.62,-60.7 84.88,-66.89"/>
</a>
</g>
</g>
<!-- Node3&#45;&gt;Node4 -->
<g id="edge3_Node000003_Node000004" class="edge">
<title>Node3&#45;&gt;Node4</title>
<g id="a_edge3_Node000003_Node000004"><a xlink:title=" ">
<path fill="none" stroke="#63b8ff" d="M161.32,-304.37C181.78,-316.55 217.36,-336.86 249.5,-351 253.08,-352.57 256.83,-354.1 260.62,-355.57"/>
<polygon fill="#63b8ff" stroke="#63b8ff" points="259.28,-358.81 269.88,-358.99 261.71,-352.24 259.28,-358.81"/>
</a>
</g>
</g>
<!-- Node3&#45;&gt;Node5 -->
<g id="edge4_Node000003_Node000005" class="edge">
<title>Node3&#45;&gt;Node5</title>
<g id="a_edge4_Node000003_Node000005"><a xlink:title=" ">
<path fill="none" stroke="#63b8ff" d="M188.46,-304.48C212.4,-310.16 241.72,-317.11 264.9,-322.61"/>
<polygon fill="#63b8ff" stroke="#63b8ff" points="264.06,-326.01 274.6,-324.91 265.68,-319.2 264.06,-326.01"/>
</a>
</g>
</g>
<!-- Node3&#45;&gt;Node6 -->
<g id="edge5_Node000003_Node000006" class="edge">
<title>Node3&#45;&gt;Node6</title>
<g id="a_edge5_Node000003_Node000006"><a xlink:title=" ">
<path fill="none" stroke="#63b8ff" d="M213.73,-289.52C266.4,-286.13 337.7,-281.53 385.87,-278.42"/>
<polygon fill="#63b8ff" stroke="#63b8ff" points="386.02,-281.92 395.78,-277.79 385.57,-274.94 386.02,-281.92"/>
</a>
</g>
</g>
<!-- Node3&#45;&gt;Node7 -->
<g id="edge6_Node000003_Node000007" class="edge">
<title>Node3&#45;&gt;Node7</title>
<g id="a_edge6_Node000003_Node000007"><a xlink:title=" ">
<path fill="none" stroke="#63b8ff" d="M188.46,-283.52C211.92,-277.95 240.56,-271.16 263.51,-265.72"/>
<polygon fill="#63b8ff" stroke="#63b8ff" points="264.22,-269.15 273.14,-263.44 262.6,-262.34 264.22,-269.15"/>
</a>
</g>
</g>
<!-- Node3&#45;&gt;Node8 -->
<g id="edge8_Node000003_Node000008" class="edge">
<title>Node3&#45;&gt;Node8</title>
<g id="a_edge8_Node000003_Node000008"><a xlink:title=" ">
<path fill="none" stroke="#63b8ff" d="M153.07,-283.66C169.95,-264.45 208.81,-223.03 249.5,-199 253.31,-196.75 257.42,-194.72 261.62,-192.89"/>
<polygon fill="#63b8ff" stroke="#63b8ff" points="262.69,-196.23 270.72,-189.32 260.13,-189.72 262.69,-196.23"/>
</a>
</g>
</g>
<!-- Node3&#45;&gt;Node9 -->
<g id="edge9_Node000003_Node000009" class="edge">
<title>Node3&#45;&gt;Node9</title>
<g id="a_edge9_Node000003_Node000009"><a xlink:title=" ">
<path fill="none" stroke="#63b8ff" d="M161.32,-283.63C181.78,-271.45 217.36,-251.14 249.5,-237 254.5,-234.8 259.83,-232.69 265.15,-230.71"/>
<polygon fill="#63b8ff" stroke="#63b8ff" points="266.22,-234.05 274.47,-227.4 263.87,-227.45 266.22,-234.05"/>
</a>
</g>
</g>
<!-- Node7&#45;&gt;Node6 -->
<g id="edge7_Node000007_Node000006" class="edge">
<title>Node7&#45;&gt;Node6</title>
<g id="a_edge7_Node000007_Node000006"><a xlink:title=" ">
<path fill="none" stroke="#63b8ff" d="M336.24,-260.26C350.94,-262.37 369.14,-264.98 386.12,-267.42"/>
<polygon fill="#63b8ff" stroke="#63b8ff" points="385.16,-270.82 395.56,-268.77 386.15,-263.89 385.16,-270.82"/>
</a>
</g>
</g>
<!-- Node9&#45;&gt;Node6 -->
<g id="edge10_Node000009_Node000006" class="edge">
<title>Node9&#45;&gt;Node6</title>
<g id="a_edge10_Node000009_Node000006"><a xlink:title=" ">
<path fill="none" stroke="#63b8ff" d="M335.3,-227.2C343.82,-230.12 353.11,-233.51 361.5,-237 377.6,-243.7 395.07,-252.16 409.34,-259.39"/>
<polygon fill="#63b8ff" stroke="#63b8ff" points="407.72,-262.49 418.21,-263.94 410.92,-256.26 407.72,-262.49"/>
</a>
</g>
</g>
<!-- Node10&#45;&gt;Node10 -->
<g id="edge15_Node000010_Node000010" class="edge">
<title>Node10&#45;&gt;Node10</title>
<g id="a_edge15_Node000010_Node000010"><a xlink:title=" ">
<path fill="none" stroke="#63b8ff" d="M123.43,-134.34C114.96,-142.98 121.56,-152 143.25,-152 155.11,-152 162.46,-149.3 165.3,-145.44"/>
<polygon fill="#63b8ff" stroke="#63b8ff" points="168.77,-144.94 163.37,-135.82 161.9,-146.32 168.77,-144.94"/>
</a>
</g>
</g>
<!-- Node13&#45;&gt;Node11 -->
<g id="edge19_Node000013_Node000011" class="edge">
<title>Node13&#45;&gt;Node11</title>
<g id="a_edge19_Node000013_Node000011"><a xlink:title=" ">
<path fill="none" stroke="#63b8ff" d="M194.51,-53.96C208.2,-55.58 223.25,-57.37 237.7,-59.08"/>
<polygon fill="#63b8ff" stroke="#63b8ff" points="237.28,-62.55 247.62,-60.26 238.1,-55.6 237.28,-62.55"/>
</a>
</g>
</g>
</g>
</svg>
