<?xml version="1.0" encoding="UTF-8" standalone="no"?>
<!DOCTYPE svg PUBLIC "-//W3C//DTD SVG 1.1//EN"
 "http://www.w3.org/Graphics/SVG/1.1/DTD/svg11.dtd">
<!-- Generated by graphviz version 11.0.0 (20240428.1522)
 -->
<!-- Title: demo_tiskni_slova_pozpatku Pages: 1 -->
<svg width="383pt" height="218pt"
 viewBox="0.00 0.00 383.00 218.00" xmlns="http://www.w3.org/2000/svg" xmlns:xlink="http://www.w3.org/1999/xlink">
<g id="graph0" class="graph" transform="scale(1 1) rotate(0) translate(4 214)">
<title>demo_tiskni_slova_pozpatku</title>
<!-- Node1 -->
<g id="Node000001" class="node">
<title>Node1</title>
<g id="a_Node000001"><a xlink:title="Testování API Stack.">
<polygon fill="#999999" stroke="#666666" points="140.5,-115 0,-115 0,-95 140.5,-95 140.5,-115"/>
<text text-anchor="middle" x="70.25" y="-101.5" font-family="Helvetica,sans-Serif" font-size="10.00">demo_tiskni_slova_pozpatku</text>
</a>
</g>
</g>
<!-- Node2 -->
<g id="Node000002" class="node">
<title>Node2</title>
<g id="a_Node000002"><a xlink:href="group___t_stack.html#ga543615a4df26ed863b9e92228b69d04a" target="_top" xlink:title="Deinicializace zásobníku.">
<polygon fill="white" stroke="#666666" points="254,-210 176.5,-210 176.5,-190 254,-190 254,-210"/>
<text text-anchor="middle" x="215.25" y="-196.5" font-family="Helvetica,sans-Serif" font-size="10.00">stack_destroy</text>
</a>
</g>
</g>
<!-- Node1&#45;&gt;Node2 -->
<g id="edge1_Node000001_Node000002" class="edge">
<title>Node1&#45;&gt;Node2</title>
<g id="a_edge1_Node000001_Node000002"><a xlink:title=" ">
<path fill="none" stroke="#63b8ff" d="M84.08,-115.29C103.46,-130.6 141.63,-159.82 176.5,-181 178.33,-182.11 180.24,-183.22 182.18,-184.31"/>
<polygon fill="#63b8ff" stroke="#63b8ff" points="180.17,-187.2 190.64,-188.81 183.46,-181.02 180.17,-187.2"/>
</a>
</g>
</g>
<!-- Node3 -->
<g id="Node000003" class="node">
<title>Node3</title>
<g id="a_Node000003"><a xlink:href="group___t_stack.html#ga22a9f4ad0c450cdbbfb7546493b1f781" target="_top" xlink:title="Inicializace prázdného zásobníku.">
<polygon fill="white" stroke="#666666" points="244.25,-172 186.25,-172 186.25,-152 244.25,-152 244.25,-172"/>
<text text-anchor="middle" x="215.25" y="-158.5" font-family="Helvetica,sans-Serif" font-size="10.00">stack_init</text>
</a>
</g>
</g>
<!-- Node1&#45;&gt;Node3 -->
<g id="edge2_Node000001_Node000003" class="edge">
<title>Node1&#45;&gt;Node3</title>
<g id="a_edge2_Node000001_Node000003"><a xlink:title=" ">
<path fill="none" stroke="#63b8ff" d="M97.48,-115.45C119.95,-124.41 152.57,-137.41 177.62,-147.4"/>
<polygon fill="#63b8ff" stroke="#63b8ff" points="176.2,-150.6 186.78,-151.05 178.79,-144.1 176.2,-150.6"/>
</a>
</g>
</g>
<!-- Node4 -->
<g id="Node000004" class="node">
<title>Node4</title>
<g id="a_Node000004"><a xlink:href="group___t_stack.html#gab2a53c66f9bb439a8749c97f9c9d9f2d" target="_top" xlink:title="Zjištění, zda je zásobník prázdný">
<polygon fill="white" stroke="#666666" points="375,-96 290,-96 290,-76 375,-76 375,-96"/>
<text text-anchor="middle" x="332.5" y="-82.5" font-family="Helvetica,sans-Serif" font-size="10.00">stack_is_empty</text>
</a>
</g>
</g>
<!-- Node1&#45;&gt;Node4 -->
<g id="edge3_Node000001_Node000004" class="edge">
<title>Node1&#45;&gt;Node4</title>
<g id="a_edge3_Node000001_Node000004"><a xlink:title=" ">
<path fill="none" stroke="#63b8ff" d="M140.91,-108.91C175.1,-109.84 216.83,-109.49 254,-105 264.4,-103.74 275.42,-101.57 285.79,-99.13"/>
<polygon fill="#63b8ff" stroke="#63b8ff" points="286.39,-102.59 295.25,-96.78 284.7,-95.8 286.39,-102.59"/>
</a>
</g>
</g>
<!-- Node5 -->
<g id="Node000005" class="node">
<title>Node5</title>
<g id="a_Node000005"><a xlink:href="group___t_stack.html#ga480af197cbd84970291358c870ec9b90" target="_top" xlink:title="Odstranění elementu na vrcholu zásobníku.">
<polygon fill="white" stroke="#666666" points="245.75,-96 184.75,-96 184.75,-76 245.75,-76 245.75,-96"/>
<text text-anchor="middle" x="215.25" y="-82.5" font-family="Helvetica,sans-Serif" font-size="10.00">stack_pop</text>
</a>
</g>
</g>
<!-- Node1&#45;&gt;Node5 -->
<g id="edge4_Node000001_Node000005" class="edge">
<title>Node1&#45;&gt;Node5</title>
<g id="a_edge4_Node000001_Node000005"><a xlink:title=" ">
<path fill="none" stroke="#63b8ff" d="M140.66,-95.78C151.7,-94.31 162.82,-92.83 172.94,-91.49"/>
<polygon fill="#63b8ff" stroke="#63b8ff" points="173.36,-94.96 182.81,-90.18 172.44,-88.02 173.36,-94.96"/>
</a>
</g>
</g>
<!-- Node6 -->
<g id="Node000006" class="node">
<title>Node6</title>
<g id="a_Node000006"><a xlink:href="group___t_stack.html#ga8ee1e96ca9c6c84eb97fea0a3506938c" target="_top" xlink:title="Vložení elementu na vrchol zásobníku.">
<polygon fill="white" stroke="#666666" points="248.38,-58 182.12,-58 182.12,-38 248.38,-38 248.38,-58"/>
<text text-anchor="middle" x="215.25" y="-44.5" font-family="Helvetica,sans-Serif" font-size="10.00">stack_push</text>
</a>
</g>
</g>
<!-- Node1&#45;&gt;Node6 -->
<g id="edge6_Node000001_Node000006" class="edge">
<title>Node1&#45;&gt;Node6</title>
<g id="a_edge6_Node000001_Node000006"><a xlink:title=" ">
<path fill="none" stroke="#63b8ff" d="M97.48,-94.55C119.95,-85.59 152.57,-72.59 177.62,-62.6"/>
<polygon fill="#63b8ff" stroke="#63b8ff" points="178.79,-65.9 186.78,-58.95 176.2,-59.4 178.79,-65.9"/>
</a>
</g>
</g>
<!-- Node7 -->
<g id="Node000007" class="node">
<title>Node7</title>
<g id="a_Node000007"><a xlink:href="group___t_stack.html#gac84fd2f3c38113a7d9d4cf5123b581f3" target="_top" xlink:title="Získání hodnoty elementu na vrcholu zásobníku.">
<polygon fill="white" stroke="#666666" points="244.62,-20 185.88,-20 185.88,0 244.62,0 244.62,-20"/>
<text text-anchor="middle" x="215.25" y="-6.5" font-family="Helvetica,sans-Serif" font-size="10.00">stack_top</text>
</a>
</g>
</g>
<!-- Node1&#45;&gt;Node7 -->
<g id="edge7_Node000001_Node000007" class="edge">
<title>Node1&#45;&gt;Node7</title>
<g id="a_edge7_Node000001_Node000007"><a xlink:title=" ">
<path fill="none" stroke="#63b8ff" d="M84.08,-94.71C103.46,-79.4 141.63,-50.18 176.5,-29 178.33,-27.89 180.24,-26.78 182.18,-25.69"/>
<polygon fill="#63b8ff" stroke="#63b8ff" points="183.46,-28.98 190.64,-21.19 180.17,-22.8 183.46,-28.98"/>
</a>
</g>
</g>
<!-- Node5&#45;&gt;Node4 -->
<g id="edge5_Node000005_Node000004" class="edge">
<title>Node5&#45;&gt;Node4</title>
<g id="a_edge5_Node000005_Node000004"><a xlink:title=" ">
<path fill="none" stroke="#63b8ff" d="M246.23,-86C256.03,-86 267.23,-86 278.22,-86"/>
<polygon fill="#63b8ff" stroke="#63b8ff" points="278.01,-89.5 288.01,-86 278.01,-82.5 278.01,-89.5"/>
</a>
</g>
</g>
<!-- Node7&#45;&gt;Node4 -->
<g id="edge8_Node000007_Node000004" class="edge">
<title>Node7&#45;&gt;Node4</title>
<g id="a_edge8_Node000007_Node000004"><a xlink:title=" ">
<path fill="none" stroke="#63b8ff" d="M238.55,-20.44C243.71,-23.07 249.12,-26.01 254,-29 273.81,-41.15 294.98,-56.93 310.17,-68.8"/>
<polygon fill="#63b8ff" stroke="#63b8ff" points="307.6,-71.23 317.61,-74.69 311.94,-65.74 307.6,-71.23"/>
</a>
</g>
</g>
</g>
</svg>
