<?xml version="1.0" encoding="UTF-8" standalone="no"?>
<!DOCTYPE svg PUBLIC "-//W3C//DTD SVG 1.1//EN"
 "http://www.w3.org/Graphics/SVG/1.1/DTD/svg11.dtd">
<!-- Generated by graphviz version 11.0.0 (20240428.1522)
 -->
<!-- Title: stack_destroy Pages: 1 -->
<svg width="335pt" height="47pt"
 viewBox="0.00 0.00 335.00 47.00" xmlns="http://www.w3.org/2000/svg" xmlns:xlink="http://www.w3.org/1999/xlink">
<g id="graph0" class="graph" transform="scale(1 1) rotate(0) translate(4 43)">
<title>stack_destroy</title>
<!-- Node1 -->
<g id="Node000001" class="node">
<title>Node1</title>
<g id="a_Node000001"><a xlink:title="Deinicializace zásobníku.">
<polygon fill="#999999" stroke="#666666" points="327,-20 249.5,-20 249.5,0 327,0 327,-20"/>
<text text-anchor="middle" x="288.25" y="-6.5" font-family="Helvetica,sans-Serif" font-size="10.00">stack_destroy</text>
</a>
</g>
</g>
<!-- Node2 -->
<g id="Node000002" class="node">
<title>Node2</title>
<g id="a_Node000002"><a xlink:href="group___main_program.html#ga367aadf6f2e33e86efe4a50daff32e81" target="_top" xlink:title="Testování API Stack.">
<polygon fill="white" stroke="#666666" points="213.5,-39 73,-39 73,-19 213.5,-19 213.5,-39"/>
<text text-anchor="middle" x="143.25" y="-25.5" font-family="Helvetica,sans-Serif" font-size="10.00">demo_tiskni_slova_pozpatku</text>
</a>
</g>
</g>
<!-- Node1&#45;&gt;Node2 -->
<g id="edge1_Node000001_Node000002" class="edge">
<title>Node1&#45;&gt;Node2</title>
<g id="a_edge1_Node000001_Node000002"><a xlink:title=" ">
<path fill="none" stroke="#63b8ff" d="M237.89,-16.56C230.14,-17.59 222.01,-18.67 213.91,-19.74"/>
<polygon fill="#63b8ff" stroke="#63b8ff" points="238.35,-20.03 247.8,-15.24 237.43,-13.09 238.35,-20.03"/>
</a>
</g>
</g>
<!-- Node3 -->
<g id="Node000003" class="node">
<title>Node3</title>
<g id="a_Node000003"><a xlink:href="group___main_program.html#ga0ddf1224851353fc92bfbff6f499fa97" target="_top" xlink:title=" ">
<polygon fill="white" stroke="#666666" points="37,-20 0,-20 0,0 37,0 37,-20"/>
<text text-anchor="middle" x="18.5" y="-6.5" font-family="Helvetica,sans-Serif" font-size="10.00">main</text>
</a>
</g>
</g>
<!-- Node1&#45;&gt;Node3 -->
<g id="edge3_Node000001_Node000003" class="edge">
<title>Node1&#45;&gt;Node3</title>
<g id="a_edge3_Node000001_Node000003"><a xlink:title=" ">
<path fill="none" stroke="#63b8ff" d="M237.99,-10C177.47,-10 77.88,-10 37.42,-10"/>
<polygon fill="#63b8ff" stroke="#63b8ff" points="237.66,-13.5 247.66,-10 237.66,-6.5 237.66,-13.5"/>
</a>
</g>
</g>
<!-- Node2&#45;&gt;Node3 -->
<g id="edge2_Node000002_Node000003" class="edge">
<title>Node2&#45;&gt;Node3</title>
<g id="a_edge2_Node000002_Node000003"><a xlink:title=" ">
<path fill="none" stroke="#63b8ff" d="M63.59,-16.82C53.87,-15.32 44.78,-13.91 37.41,-12.77"/>
<polygon fill="#63b8ff" stroke="#63b8ff" points="62.86,-20.25 73.27,-18.32 63.93,-13.34 62.86,-20.25"/>
</a>
</g>
</g>
</g>
</svg>
