<?xml version="1.0" encoding="UTF-8" standalone="no"?>
<!DOCTYPE svg PUBLIC "-//W3C//DTD SVG 1.1//EN"
 "http://www.w3.org/Graphics/SVG/1.1/DTD/svg11.dtd">
<!-- Generated by graphviz version 11.0.0 (20240428.1522)
 -->
<!-- Title: main.c Pages: 1 -->
<svg width="334pt" height="140pt"
 viewBox="0.00 0.00 333.88 140.00" xmlns="http://www.w3.org/2000/svg" xmlns:xlink="http://www.w3.org/1999/xlink">
<g id="graph0" class="graph" transform="scale(1 1) rotate(0) translate(4 136)">
<title>main.c</title>
<!-- Node1 -->
<g id="Node000001" class="node">
<title>Node1</title>
<g id="a_Node000001"><a xlink:title="Hlavní program pro testování ADT TStack.">
<polygon fill="#999999" stroke="#666666" points="127.25,-132 82,-132 82,-112 127.25,-112 127.25,-132"/>
<text text-anchor="middle" x="104.62" y="-118.5" font-family="Helvetica,sans-Serif" font-size="10.00">main.c</text>
</a>
</g>
</g>
<!-- Node2 -->
<g id="Node000002" class="node">
<title>Node2</title>
<g id="a_Node000002"><a xlink:title=" ">
<polygon fill="#e0e0e0" stroke="#999999" points="45.25,-20 0,-20 0,0 45.25,0 45.25,-20"/>
<text text-anchor="middle" x="22.62" y="-6.5" font-family="Helvetica,sans-Serif" font-size="10.00">stdio.h</text>
</a>
</g>
</g>
<!-- Node1&#45;&gt;Node2 -->
<g id="edge1_Node000001_Node000002" class="edge">
<title>Node1&#45;&gt;Node2</title>
<g id="a_edge1_Node000001_Node000002"><a xlink:title=" ">
<path fill="none" stroke="#63b8ff" d="M81.6,-113.56C64.28,-106.69 41.57,-94.68 29.62,-76 21.2,-62.82 19.82,-44.99 20.34,-31.34"/>
<polygon fill="#63b8ff" stroke="#63b8ff" points="23.8,-31.98 21.08,-21.74 16.82,-31.44 23.8,-31.98"/>
</a>
</g>
</g>
<!-- Node3 -->
<g id="Node000003" class="node">
<title>Node3</title>
<g id="a_Node000003"><a xlink:title=" ">
<polygon fill="#e0e0e0" stroke="#999999" points="86.75,-76 38.5,-76 38.5,-56 86.75,-56 86.75,-76"/>
<text text-anchor="middle" x="62.62" y="-62.5" font-family="Helvetica,sans-Serif" font-size="10.00">ctype.h</text>
</a>
</g>
</g>
<!-- Node1&#45;&gt;Node3 -->
<g id="edge2_Node000001_Node000003" class="edge">
<title>Node1&#45;&gt;Node3</title>
<g id="a_edge2_Node000001_Node000003"><a xlink:title=" ">
<path fill="none" stroke="#63b8ff" d="M97.31,-111.59C91.65,-104.32 83.64,-94.02 76.74,-85.15"/>
<polygon fill="#63b8ff" stroke="#63b8ff" points="79.69,-83.24 70.79,-77.49 74.16,-87.54 79.69,-83.24"/>
</a>
</g>
</g>
<!-- Node4 -->
<g id="Node000004" class="node">
<title>Node4</title>
<g id="a_Node000004"><a xlink:href="_t_stack_8h.html" target="_top" xlink:title="Definice typu zásobník (realizace pomocí lineárního jednosměrně vázaného seznamu).">
<polygon fill="white" stroke="#666666" points="261.12,-76 206.12,-76 206.12,-56 261.12,-56 261.12,-76"/>
<text text-anchor="middle" x="233.62" y="-62.5" font-family="Helvetica,sans-Serif" font-size="10.00">TStack.h</text>
</a>
</g>
</g>
<!-- Node1&#45;&gt;Node4 -->
<g id="edge3_Node000001_Node000004" class="edge">
<title>Node1&#45;&gt;Node4</title>
<g id="a_edge3_Node000001_Node000004"><a xlink:title=" ">
<path fill="none" stroke="#63b8ff" d="M127.1,-111.59C147.41,-103.09 177.58,-90.46 200.63,-80.81"/>
<polygon fill="#63b8ff" stroke="#63b8ff" points="201.71,-84.15 209.58,-77.06 199.01,-77.7 201.71,-84.15"/>
</a>
</g>
</g>
<!-- Node8 -->
<g id="Node000008" class="node">
<title>Node8</title>
<g id="a_Node000008"><a xlink:href="main__support_8h.html" target="_top" xlink:title="Soubor pro multiplatformní podporu programu v různých OS.">
<polygon fill="white" stroke="#666666" points="188,-76 105.25,-76 105.25,-56 188,-56 188,-76"/>
<text text-anchor="middle" x="146.62" y="-62.5" font-family="Helvetica,sans-Serif" font-size="10.00">main_support.h</text>
</a>
</g>
</g>
<!-- Node1&#45;&gt;Node8 -->
<g id="edge7_Node000001_Node000008" class="edge">
<title>Node1&#45;&gt;Node8</title>
<g id="a_edge7_Node000001_Node000008"><a xlink:title=" ">
<path fill="none" stroke="#63b8ff" d="M111.94,-111.59C117.6,-104.32 125.61,-94.02 132.51,-85.15"/>
<polygon fill="#63b8ff" stroke="#63b8ff" points="135.09,-87.54 138.46,-77.49 129.56,-83.24 135.09,-87.54"/>
</a>
</g>
</g>
<!-- Node5 -->
<g id="Node000005" class="node">
<title>Node5</title>
<g id="a_Node000005"><a xlink:title=" ">
<polygon fill="#e0e0e0" stroke="#999999" points="191.5,-20 135.75,-20 135.75,0 191.5,0 191.5,-20"/>
<text text-anchor="middle" x="163.62" y="-6.5" font-family="Helvetica,sans-Serif" font-size="10.00">stdbool.h</text>
</a>
</g>
</g>
<!-- Node4&#45;&gt;Node5 -->
<g id="edge4_Node000004_Node000005" class="edge">
<title>Node4&#45;&gt;Node5</title>
<g id="a_edge4_Node000004_Node000005"><a xlink:title=" ">
<path fill="none" stroke="#63b8ff" d="M221.43,-55.59C211.29,-47.77 196.63,-36.46 184.61,-27.19"/>
<polygon fill="#63b8ff" stroke="#63b8ff" points="186.93,-24.56 176.88,-21.22 182.66,-30.1 186.93,-24.56"/>
</a>
</g>
</g>
<!-- Node6 -->
<g id="Node000006" class="node">
<title>Node6</title>
<g id="a_Node000006"><a xlink:title=" ">
<polygon fill="#e0e0e0" stroke="#999999" points="257.38,-20 209.88,-20 209.88,0 257.38,0 257.38,-20"/>
<text text-anchor="middle" x="233.62" y="-6.5" font-family="Helvetica,sans-Serif" font-size="10.00">stdlib.h</text>
</a>
</g>
</g>
<!-- Node4&#45;&gt;Node6 -->
<g id="edge5_Node000004_Node000006" class="edge">
<title>Node4&#45;&gt;Node6</title>
<g id="a_edge5_Node000004_Node000006"><a xlink:title=" ">
<path fill="none" stroke="#63b8ff" d="M233.62,-55.59C233.62,-49.01 233.62,-39.96 233.62,-31.73"/>
<polygon fill="#63b8ff" stroke="#63b8ff" points="237.13,-31.81 233.63,-21.81 230.13,-31.81 237.13,-31.81"/>
</a>
</g>
</g>
<!-- Node7 -->
<g id="Node000007" class="node">
<title>Node7</title>
<g id="a_Node000007"><a xlink:title=" ">
<polygon fill="#e0e0e0" stroke="#999999" points="325.88,-20 275.38,-20 275.38,0 325.88,0 325.88,-20"/>
<text text-anchor="middle" x="300.62" y="-6.5" font-family="Helvetica,sans-Serif" font-size="10.00">check.h</text>
</a>
</g>
</g>
<!-- Node4&#45;&gt;Node7 -->
<g id="edge6_Node000004_Node000007" class="edge">
<title>Node4&#45;&gt;Node7</title>
<g id="a_edge6_Node000004_Node000007"><a xlink:title=" ">
<path fill="none" stroke="#63b8ff" d="M245.3,-55.59C254.9,-47.85 268.75,-36.69 280.19,-27.47"/>
<polygon fill="#63b8ff" stroke="#63b8ff" points="282.32,-30.25 287.91,-21.25 277.93,-24.8 282.32,-30.25"/>
</a>
</g>
</g>
<!-- Node8&#45;&gt;Node2 -->
<g id="edge8_Node000008_Node000002" class="edge">
<title>Node8&#45;&gt;Node2</title>
<g id="a_edge8_Node000008_Node000002"><a xlink:title=" ">
<path fill="none" stroke="#63b8ff" d="M125.03,-55.59C105.67,-47.17 77.02,-34.69 54.94,-25.07"/>
<polygon fill="#63b8ff" stroke="#63b8ff" points="56.35,-21.87 45.78,-21.08 53.55,-28.29 56.35,-21.87"/>
</a>
</g>
</g>
<!-- Node8&#45;&gt;Node5 -->
<g id="edge10_Node000008_Node000005" class="edge">
<title>Node8&#45;&gt;Node5</title>
<g id="a_edge10_Node000008_Node000005"><a xlink:title=" ">
<path fill="none" stroke="#63b8ff" d="M149.59,-55.59C151.71,-48.86 154.64,-39.53 157.28,-31.15"/>
<polygon fill="#63b8ff" stroke="#63b8ff" points="160.58,-32.33 160.24,-21.74 153.9,-30.23 160.58,-32.33"/>
</a>
</g>
</g>
<!-- Node9 -->
<g id="Node000009" class="node">
<title>Node9</title>
<g id="a_Node000009"><a xlink:title=" ">
<polygon fill="#e0e0e0" stroke="#999999" points="118.12,-20 75.12,-20 75.12,0 118.12,0 118.12,-20"/>
<text text-anchor="middle" x="96.62" y="-6.5" font-family="Helvetica,sans-Serif" font-size="10.00">time.h</text>
</a>
</g>
</g>
<!-- Node8&#45;&gt;Node9 -->
<g id="edge9_Node000008_Node000009" class="edge">
<title>Node8&#45;&gt;Node9</title>
<g id="a_edge9_Node000008_Node000009"><a xlink:title=" ">
<path fill="none" stroke="#63b8ff" d="M137.92,-55.59C131.03,-48.16 121.23,-37.58 112.91,-28.58"/>
<polygon fill="#63b8ff" stroke="#63b8ff" points="115.63,-26.37 106.26,-21.41 110.49,-31.12 115.63,-26.37"/>
</a>
</g>
</g>
</g>
</svg>
