<?xml version="1.0" encoding="UTF-8" standalone="no"?>
<!DOCTYPE svg PUBLIC "-//W3C//DTD SVG 1.1//EN"
 "http://www.w3.org/Graphics/SVG/1.1/DTD/svg11.dtd">
<!-- Generated by graphviz version 11.0.0 (20240428.1522)
 -->
<!-- Title: TStack Pages: 1 -->
<svg width="175pt" height="166pt"
 viewBox="0.00 0.00 174.50 166.00" xmlns="http://www.w3.org/2000/svg" xmlns:xlink="http://www.w3.org/1999/xlink">
<g id="graph0" class="graph" transform="scale(1 1) rotate(0) translate(4 162)">
<title>TStack</title>
<!-- Node1 -->
<g id="Node000001" class="node">
<title>Node1</title>
<g id="a_Node000001"><a xlink:title="Definice typu Stack.">
<polygon fill="#999999" stroke="none" points="77,-52 37,-52 37,0 77,0 77,-52"/>
<text text-anchor="start" x="41.62" y="-38.5" font-family="Helvetica,sans-Serif" font-size="10.00">TStack</text>
<text text-anchor="start" x="55.5" y="-22.5" font-family="Helvetica,sans-Serif" font-size="10.00"> </text>
<text text-anchor="start" x="55.5" y="-6.5" font-family="Helvetica,sans-Serif" font-size="10.00"> </text>
<polygon fill="#666666" stroke="#666666" points="37,-34 37,-34 77,-34 77,-34 37,-34"/>
<polygon fill="#666666" stroke="#666666" points="37,-18 37,-18 77,-18 77,-18 37,-18"/>
<polygon fill="none" stroke="#666666" points="37,0 37,-52 77,-52 77,0 37,0"/>
</a>
</g>
</g>
<!-- Node2 -->
<g id="Node000002" class="node">
<title>Node2</title>
<g id="a_Node000002"><a xlink:href="struct_t_stack_node.html" target="_top" xlink:title="Úplná definice privátního typu StackNode.">
<polygon fill="white" stroke="none" points="114,-158 0,-158 0,-106 114,-106 114,-158"/>
<text text-anchor="start" x="30.38" y="-144.5" font-family="Helvetica,sans-Serif" font-size="10.00">TStackNode</text>
<text text-anchor="start" x="4" y="-128.5" font-family="Helvetica,sans-Serif" font-size="10.00">+</text>
<text text-anchor="start" x="14" y="-128.5" font-family="Helvetica,sans-Serif" font-size="10.00">TStackElement iValue</text>
<text text-anchor="start" x="55.5" y="-112.5" font-family="Helvetica,sans-Serif" font-size="10.00"> </text>
<polygon fill="#666666" stroke="#666666" points="0,-140 0,-140 114,-140 114,-140 0,-140"/>
<polygon fill="#666666" stroke="#666666" points="0,-124 0,-124 12,-124 12,-124 0,-124"/>
<polygon fill="#666666" stroke="#666666" points="12,-124 12,-124 114,-124 114,-124 12,-124"/>
<polygon fill="none" stroke="#666666" points="0,-106 0,-158 114,-158 114,-106 0,-106"/>
</a>
</g>
</g>
<!-- Node2&#45;&gt;Node1 -->
<g id="edge1_Node000001_Node000002" class="edge">
<title>Node2&#45;&gt;Node1</title>
<g id="a_edge1_Node000001_Node000002"><a xlink:title=" ">
<path fill="none" stroke="#63b8ff" d="M57,-106.09C57,-93.61 57,-78.25 57,-64.39"/>
<polygon fill="none" stroke="#63b8ff" points="57,-64.61 53,-58.61 57,-52.61 61,-58.61 57,-64.61"/>
</a>
</g>
<text text-anchor="start" x="60" y="-75.5" font-family="Helvetica,sans-Serif" font-size="10.00" fill="grey">+iTop</text>
</g>
<!-- Node2&#45;&gt;Node2 -->
<g id="edge2_Node000002_Node000002" class="edge">
<title>Node2&#45;&gt;Node2</title>
<g id="a_edge2_Node000002_Node000002"><a xlink:title=" ">
<path fill="none" stroke="#63b8ff" d="M113.9,-141.43C124.52,-140.27 132,-137.12 132,-132 132,-129.28 129.89,-127.11 126.32,-125.51"/>
<polygon fill="none" stroke="#63b8ff" points="126.46,-125.54 119.7,-128.05 114.78,-122.78 121.54,-120.27 126.46,-125.54"/>
</a>
</g>
<text text-anchor="start" x="135" y="-128.5" font-family="Helvetica,sans-Serif" font-size="10.00" fill="grey">+iNext</text>
</g>
</g>
</svg>
