<?xml version="1.0" encoding="UTF-8" standalone="no"?>
<!DOCTYPE svg PUBLIC "-//W3C//DTD SVG 1.1//EN"
 "http://www.w3.org/Graphics/SVG/1.1/DTD/svg11.dtd">
<!-- Generated by graphviz version 11.0.0 (20240428.1522)
 -->
<!-- Title: TStackIterator Pages: 1 -->
<svg width="175pt" height="272pt"
 viewBox="0.00 0.00 174.50 272.00" xmlns="http://www.w3.org/2000/svg" xmlns:xlink="http://www.w3.org/1999/xlink">
<g id="graph0" class="graph" transform="scale(1 1) rotate(0) translate(4 268)">
<title>TStackIterator</title>
<!-- Node1 -->
<g id="Node000001" class="node">
<title>Node1</title>
<g id="a_Node000001"><a xlink:title="Definice typu StackIterator.">
<polygon fill="#999999" stroke="none" points="104,-52 34,-52 34,0 104,0 104,-52"/>
<text text-anchor="start" x="38.62" y="-38.5" font-family="Helvetica,sans-Serif" font-size="10.00">TStackIterator</text>
<text text-anchor="start" x="67.5" y="-22.5" font-family="Helvetica,sans-Serif" font-size="10.00"> </text>
<text text-anchor="start" x="67.5" y="-6.5" font-family="Helvetica,sans-Serif" font-size="10.00"> </text>
<polygon fill="#666666" stroke="#666666" points="34,-34 34,-34 104,-34 104,-34 34,-34"/>
<polygon fill="#666666" stroke="#666666" points="34,-18 34,-18 104,-18 104,-18 34,-18"/>
<polygon fill="none" stroke="#666666" points="34,0 34,-52 104,-52 104,0 34,0"/>
</a>
</g>
</g>
<!-- Node2 -->
<g id="Node000002" class="node">
<title>Node2</title>
<g id="a_Node000002"><a xlink:href="group___t_stack.html#struct_t_stack" target="_top" xlink:title="Definice typu Stack.">
<polygon fill="white" stroke="none" points="141,-158 101,-158 101,-106 141,-106 141,-158"/>
<text text-anchor="start" x="105.62" y="-144.5" font-family="Helvetica,sans-Serif" font-size="10.00">TStack</text>
<text text-anchor="start" x="119.5" y="-128.5" font-family="Helvetica,sans-Serif" font-size="10.00"> </text>
<text text-anchor="start" x="119.5" y="-112.5" font-family="Helvetica,sans-Serif" font-size="10.00"> </text>
<polygon fill="#666666" stroke="#666666" points="101,-140 101,-140 141,-140 141,-140 101,-140"/>
<polygon fill="#666666" stroke="#666666" points="101,-124 101,-124 141,-124 141,-124 101,-124"/>
<polygon fill="none" stroke="#666666" points="101,-106 101,-158 141,-158 141,-106 101,-106"/>
</a>
</g>
</g>
<!-- Node2&#45;&gt;Node1 -->
<g id="edge1_Node000001_Node000002" class="edge">
<title>Node2&#45;&gt;Node1</title>
<g id="a_edge1_Node000001_Node000002"><a xlink:title=" ">
<path fill="none" stroke="#63b8ff" d="M108.54,-106.09C102.11,-93.23 94.15,-77.29 87.05,-63.11"/>
<polygon fill="none" stroke="#63b8ff" points="87.12,-63.25 80.86,-59.67 81.76,-52.51 88.02,-56.09 87.12,-63.25"/>
</a>
</g>
<text text-anchor="start" x="101" y="-75.5" font-family="Helvetica,sans-Serif" font-size="10.00" fill="grey">+iStack</text>
</g>
<!-- Node3 -->
<g id="Node000003" class="node">
<title>Node3</title>
<g id="a_Node000003"><a xlink:href="struct_t_stack_node.html" target="_top" xlink:title="Úplná definice privátního typu StackNode.">
<polygon fill="white" stroke="none" points="114,-264 0,-264 0,-212 114,-212 114,-264"/>
<text text-anchor="start" x="30.38" y="-250.5" font-family="Helvetica,sans-Serif" font-size="10.00">TStackNode</text>
<text text-anchor="start" x="4" y="-234.5" font-family="Helvetica,sans-Serif" font-size="10.00">+</text>
<text text-anchor="start" x="14" y="-234.5" font-family="Helvetica,sans-Serif" font-size="10.00">TStackElement iValue</text>
<text text-anchor="start" x="55.5" y="-218.5" font-family="Helvetica,sans-Serif" font-size="10.00"> </text>
<polygon fill="#666666" stroke="#666666" points="0,-246 0,-246 114,-246 114,-246 0,-246"/>
<polygon fill="#666666" stroke="#666666" points="0,-230 0,-230 12,-230 12,-230 0,-230"/>
<polygon fill="#666666" stroke="#666666" points="12,-230 12,-230 114,-230 114,-230 12,-230"/>
<polygon fill="none" stroke="#666666" points="0,-212 0,-264 114,-264 114,-212 0,-212"/>
</a>
</g>
</g>
<!-- Node3&#45;&gt;Node1 -->
<g id="edge4_Node000001_Node000003" class="edge">
<title>Node3&#45;&gt;Node1</title>
<g id="a_edge4_Node000001_Node000003"><a xlink:title=" ">
<path fill="none" stroke="#63b8ff" d="M53.17,-212.29C49.66,-185.89 45.63,-142.87 50,-106 51.63,-92.24 54.81,-77.4 58.11,-64.34"/>
<polygon fill="none" stroke="#63b8ff" points="58.08,-64.45 55.75,-57.63 61.16,-52.86 63.48,-59.68 58.08,-64.45"/>
</a>
</g>
<text text-anchor="start" x="53" y="-128.5" font-family="Helvetica,sans-Serif" font-size="10.00" fill="grey">+iActual</text>
</g>
<!-- Node3&#45;&gt;Node2 -->
<g id="edge2_Node000002_Node000003" class="edge">
<title>Node3&#45;&gt;Node2</title>
<g id="a_edge2_Node000002_Node000003"><a xlink:title=" ">
<path fill="none" stroke="#63b8ff" d="M72.33,-212.09C80.32,-199.1 90.25,-182.97 99.04,-168.68"/>
<polygon fill="none" stroke="#63b8ff" points="99.03,-168.69 98.77,-161.49 105.32,-158.47 105.59,-165.68 99.03,-168.69"/>
</a>
</g>
<text text-anchor="start" x="95" y="-181.5" font-family="Helvetica,sans-Serif" font-size="10.00" fill="grey">+iTop</text>
</g>
<!-- Node3&#45;&gt;Node3 -->
<g id="edge3_Node000003_Node000003" class="edge">
<title>Node3&#45;&gt;Node3</title>
<g id="a_edge3_Node000003_Node000003"><a xlink:title=" ">
<path fill="none" stroke="#63b8ff" d="M113.9,-247.43C124.52,-246.27 132,-243.12 132,-238 132,-235.28 129.89,-233.11 126.32,-231.51"/>
<polygon fill="none" stroke="#63b8ff" points="126.46,-231.54 119.7,-234.05 114.78,-228.78 121.54,-226.27 126.46,-231.54"/>
</a>
</g>
<text text-anchor="start" x="135" y="-234.5" font-family="Helvetica,sans-Serif" font-size="10.00" fill="grey">+iNext</text>
</g>
</g>
</svg>
