<?xml version="1.0" encoding="UTF-8" standalone="no"?>
<!DOCTYPE svg PUBLIC "-//W3C//DTD SVG 1.1//EN"
 "http://www.w3.org/Graphics/SVG/1.1/DTD/svg11.dtd">
<!-- Generated by graphviz version 11.0.0 (20240428.1522)
 -->
<!-- Title: set_for_each_n Pages: 1 -->
<svg width="681pt" height="104pt"
 viewBox="0.00 0.00 680.50 104.00" xmlns="http://www.w3.org/2000/svg" xmlns:xlink="http://www.w3.org/1999/xlink">
<g id="graph0" class="graph" transform="scale(1 1) rotate(0) translate(4 100)">
<title>set_for_each_n</title>
<!-- Node1 -->
<g id="Node000001" class="node">
<title>Node1</title>
<g id="a_Node000001"><a xlink:title="Zavolání zvolené funkce na prvních N elementů množiny od pozice určené iterátorem.">
<polygon fill="#999999" stroke="#666666" points="82,-77 0,-77 0,-57 82,-57 82,-77"/>
<text text-anchor="middle" x="41" y="-63.5" font-family="Helvetica,sans-Serif" font-size="10.00">set_for_each_n</text>
</a>
</g>
</g>
<!-- Node1&#45;&gt;Node1 -->
<g id="edge1_Node000001_Node000001" class="edge">
<title>Node1&#45;&gt;Node1</title>
<g id="a_edge1_Node000001_Node000001"><a xlink:title=" ">
<path fill="none" stroke="#63b8ff" d="M20.64,-77.34C11.94,-85.98 18.73,-95 41,-95 53.18,-95 60.73,-92.3 63.65,-88.44"/>
<polygon fill="#63b8ff" stroke="#63b8ff" points="67.11,-87.91 61.66,-78.82 60.25,-89.32 67.11,-87.91"/>
</a>
</g>
</g>
<!-- Node2 -->
<g id="Node000002" class="node">
<title>Node2</title>
<g id="a_Node000002"><a xlink:href="group___t_set_iterator.html#ga089f24c81ac3da7d1ac7ca24cc078dd8" target="_top" xlink:title="Zjištění platnosti iterátoru.">
<polygon fill="white" stroke="#666666" points="357.75,-96 256.25,-96 256.25,-76 357.75,-76 357.75,-96"/>
<text text-anchor="middle" x="307" y="-82.5" font-family="Helvetica,sans-Serif" font-size="10.00">set_iterator_is_valid</text>
</a>
</g>
</g>
<!-- Node1&#45;&gt;Node2 -->
<g id="edge2_Node000001_Node000002" class="edge">
<title>Node1&#45;&gt;Node2</title>
<g id="a_edge2_Node000001_Node000002"><a xlink:title=" ">
<path fill="none" stroke="#63b8ff" d="M82.38,-69.91C125.67,-73.02 194.88,-78 244.85,-81.6"/>
<polygon fill="#63b8ff" stroke="#63b8ff" points="244.42,-85.08 254.65,-82.3 244.92,-78.1 244.42,-85.08"/>
</a>
</g>
</g>
<!-- Node5 -->
<g id="Node000005" class="node">
<title>Node5</title>
<g id="a_Node000005"><a xlink:href="group___t_set_iterator.html#ga6723a05c864198597ff49718020bd0d6" target="_top" xlink:title="Posunutí iterátoru vpřed.">
<polygon fill="white" stroke="#666666" points="220.25,-58 118,-58 118,-38 220.25,-38 220.25,-58"/>
<text text-anchor="middle" x="169.12" y="-44.5" font-family="Helvetica,sans-Serif" font-size="10.00">set_iterator_to_next</text>
</a>
</g>
</g>
<!-- Node1&#45;&gt;Node5 -->
<g id="edge5_Node000001_Node000005" class="edge">
<title>Node1&#45;&gt;Node5</title>
<g id="a_edge5_Node000001_Node000005"><a xlink:title=" ">
<path fill="none" stroke="#63b8ff" d="M82.25,-60.94C89.99,-59.77 98.25,-58.53 106.47,-57.29"/>
<polygon fill="#63b8ff" stroke="#63b8ff" points="106.76,-60.78 116.13,-55.83 105.72,-53.86 106.76,-60.78"/>
</a>
</g>
</g>
<!-- Node3 -->
<g id="Node000003" class="node">
<title>Node3</title>
<g id="a_Node000003"><a xlink:href="group___t_set_hash_table.html#ga891b531cc6373331e55101f2dd75ac4a" target="_top" xlink:title="Zjištění platnosti pozice v hašovací tabulce.">
<polygon fill="white" stroke="#666666" points="533.5,-58 393.75,-58 393.75,-38 533.5,-38 533.5,-58"/>
<text text-anchor="middle" x="463.62" y="-44.5" font-family="Helvetica,sans-Serif" font-size="10.00">set_hash_table_is_valid_pos</text>
</a>
</g>
</g>
<!-- Node2&#45;&gt;Node3 -->
<g id="edge3_Node000002_Node000003" class="edge">
<title>Node2&#45;&gt;Node3</title>
<g id="a_edge3_Node000002_Node000003"><a xlink:title=" ">
<path fill="none" stroke="#63b8ff" d="M350.66,-75.52C368.74,-71.07 390.02,-65.84 409.14,-61.15"/>
<polygon fill="#63b8ff" stroke="#63b8ff" points="409.76,-64.6 418.63,-58.81 408.09,-57.8 409.76,-64.6"/>
</a>
</g>
</g>
<!-- Node4 -->
<g id="Node000004" class="node">
<title>Node4</title>
<g id="a_Node000004"><a xlink:href="_t_set_hash_table_open_addr_8c.html#aa4a90f23bbdbe5bb71a49d7df2ee5fc1" target="_top" xlink:title="Funkce vracející hodnotu reprezentující smazanou přihrádku.">
<polygon fill="white" stroke="#666666" points="672.5,-45 569.5,-45 569.5,-13 672.5,-13 672.5,-45"/>
<text text-anchor="start" x="577.5" y="-31.5" font-family="Helvetica,sans-Serif" font-size="10.00">calc_erased_bucket</text>
<text text-anchor="middle" x="621" y="-19.5" font-family="Helvetica,sans-Serif" font-size="10.00">_marker</text>
</a>
</g>
</g>
<!-- Node3&#45;&gt;Node4 -->
<g id="edge4_Node000003_Node000004" class="edge">
<title>Node3&#45;&gt;Node4</title>
<g id="a_edge4_Node000003_Node000004"><a xlink:title=" ">
<path fill="none" stroke="#63b8ff" d="M533.68,-39.56C541.83,-38.56 550.11,-37.55 558.16,-36.56"/>
<polygon fill="#63b8ff" stroke="#63b8ff" points="558.33,-40.07 567.83,-35.38 557.48,-33.12 558.33,-40.07"/>
</a>
</g>
</g>
<!-- Node5&#45;&gt;Node2 -->
<g id="edge9_Node000005_Node000002" class="edge">
<title>Node5&#45;&gt;Node2</title>
<g id="a_edge9_Node000005_Node000002"><a xlink:title=" ">
<path fill="none" stroke="#63b8ff" d="M207.61,-58.48C223.06,-62.8 241.15,-67.86 257.58,-72.46"/>
<polygon fill="#63b8ff" stroke="#63b8ff" points="256.6,-75.82 267.18,-75.14 258.49,-69.08 256.6,-75.82"/>
</a>
</g>
</g>
<!-- Node5&#45;&gt;Node3 -->
<g id="edge6_Node000005_Node000003" class="edge">
<title>Node5&#45;&gt;Node3</title>
<g id="a_edge6_Node000005_Node000003"><a xlink:title=" ">
<path fill="none" stroke="#63b8ff" d="M220.74,-48C265.13,-48 330.45,-48 382.02,-48"/>
<polygon fill="#63b8ff" stroke="#63b8ff" points="381.96,-51.5 391.96,-48 381.96,-44.5 381.96,-51.5"/>
</a>
</g>
</g>
<!-- Node6 -->
<g id="Node000006" class="node">
<title>Node6</title>
<g id="a_Node000006"><a xlink:href="group___t_set_hash_table.html#ga9218e24d2cc5a61596c4a45ef76f4c75" target="_top" xlink:title="Výpočet následující pozice platné přihrádky v hašovací tabulce.">
<polygon fill="white" stroke="#666666" points="527.12,-20 400.12,-20 400.12,0 527.12,0 527.12,-20"/>
<text text-anchor="middle" x="463.62" y="-6.5" font-family="Helvetica,sans-Serif" font-size="10.00">set_hash_table_next_pos</text>
</a>
</g>
</g>
<!-- Node5&#45;&gt;Node6 -->
<g id="edge7_Node000005_Node000006" class="edge">
<title>Node5&#45;&gt;Node6</title>
<g id="a_edge7_Node000005_Node000006"><a xlink:title=" ">
<path fill="none" stroke="#63b8ff" d="M220.74,-41.42C266.97,-35.42 335.91,-26.46 388.38,-19.65"/>
<polygon fill="#63b8ff" stroke="#63b8ff" points="388.68,-23.14 398.14,-18.38 387.78,-16.19 388.68,-23.14"/>
</a>
</g>
</g>
<!-- Node6&#45;&gt;Node4 -->
<g id="edge8_Node000006_Node000004" class="edge">
<title>Node6&#45;&gt;Node4</title>
<g id="a_edge8_Node000006_Node000004"><a xlink:title=" ">
<path fill="none" stroke="#63b8ff" d="M527.37,-17.67C537.53,-18.92 548.04,-20.2 558.18,-21.44"/>
<polygon fill="#63b8ff" stroke="#63b8ff" points="557.57,-24.89 567.92,-22.63 558.42,-17.94 557.57,-24.89"/>
</a>
</g>
</g>
</g>
</svg>
