<?xml version="1.0" encoding="UTF-8" standalone="no"?>
<!DOCTYPE svg PUBLIC "-//W3C//DTD SVG 1.1//EN"
 "http://www.w3.org/Graphics/SVG/1.1/DTD/svg11.dtd">
<!-- Generated by graphviz version 11.0.0 (20240428.1522)
 -->
<!-- Title: stack_invariant Pages: 1 -->
<svg width="573pt" height="312pt"
 viewBox="0.00 0.00 572.50 312.00" xmlns="http://www.w3.org/2000/svg" xmlns:xlink="http://www.w3.org/1999/xlink">
<g id="graph0" class="graph" transform="scale(1 1) rotate(0) translate(4 308)">
<title>stack_invariant</title>
<!-- Node1 -->
<g id="Node000001" class="node">
<title>Node1</title>
<g id="a_Node000001"><a xlink:title=" ">
<polygon fill="#999999" stroke="#666666" points="564.5,-180 484,-180 484,-160 564.5,-160 564.5,-180"/>
<text text-anchor="middle" x="524.25" y="-166.5" font-family="Helvetica,sans-Serif" font-size="10.00">stack_invariant</text>
</a>
</g>
</g>
<!-- Node2 -->
<g id="Node000002" class="node">
<title>Node2</title>
<g id="a_Node000002"><a xlink:href="group___t_stack.html#ga543615a4df26ed863b9e92228b69d04a" target="_top" xlink:title="Deinicializace zásobníku.">
<polygon fill="white" stroke="#666666" points="327,-304 249.5,-304 249.5,-284 327,-284 327,-304"/>
<text text-anchor="middle" x="288.25" y="-290.5" font-family="Helvetica,sans-Serif" font-size="10.00">stack_destroy</text>
</a>
</g>
</g>
<!-- Node1&#45;&gt;Node2 -->
<g id="edge1_Node000001_Node000002" class="edge">
<title>Node1&#45;&gt;Node2</title>
<g id="a_edge1_Node000001_Node000002"><a xlink:title=" ">
<path fill="none" stroke="#63b8ff" d="M507.04,-188.23C492.77,-203.33 470.77,-224.45 448,-238 409.7,-260.8 360.7,-276.31 327.33,-285.12"/>
<polygon fill="#63b8ff" stroke="#63b8ff" points="509.27,-190.97 513.47,-181.25 504.12,-186.23 509.27,-190.97"/>
</a>
</g>
</g>
<!-- Node5 -->
<g id="Node000005" class="node">
<title>Node5</title>
<g id="a_Node000005"><a xlink:href="group___t_stack.html#ga22a9f4ad0c450cdbbfb7546493b1f781" target="_top" xlink:title="Inicializace prázdného zásobníku.">
<polygon fill="white" stroke="#666666" points="317.25,-266 259.25,-266 259.25,-246 317.25,-246 317.25,-266"/>
<text text-anchor="middle" x="288.25" y="-252.5" font-family="Helvetica,sans-Serif" font-size="10.00">stack_init</text>
</a>
</g>
</g>
<!-- Node1&#45;&gt;Node5 -->
<g id="edge5_Node000001_Node000005" class="edge">
<title>Node1&#45;&gt;Node5</title>
<g id="a_edge5_Node000001_Node000005"><a xlink:title=" ">
<path fill="none" stroke="#63b8ff" d="M497.18,-186.08C483.01,-194.33 464.96,-204.08 448,-211 403.84,-229.03 349.97,-242.64 317.7,-249.95"/>
<polygon fill="#63b8ff" stroke="#63b8ff" points="498.63,-189.28 505.44,-181.17 495.06,-183.27 498.63,-189.28"/>
</a>
</g>
</g>
<!-- Node6 -->
<g id="Node000006" class="node">
<title>Node6</title>
<g id="a_Node000006"><a xlink:href="group___t_stack.html#gab2a53c66f9bb439a8749c97f9c9d9f2d" target="_top" xlink:title="Zjištění, zda je zásobník prázdný">
<polygon fill="white" stroke="#666666" points="448,-180 363,-180 363,-160 448,-160 448,-180"/>
<text text-anchor="middle" x="405.5" y="-166.5" font-family="Helvetica,sans-Serif" font-size="10.00">stack_is_empty</text>
</a>
</g>
</g>
<!-- Node1&#45;&gt;Node6 -->
<g id="edge8_Node000001_Node000006" class="edge">
<title>Node1&#45;&gt;Node6</title>
<g id="a_edge8_Node000001_Node000006"><a xlink:title=" ">
<path fill="none" stroke="#63b8ff" d="M472.25,-170C464.28,-170 456.12,-170 448.38,-170"/>
<polygon fill="#63b8ff" stroke="#63b8ff" points="472.21,-173.5 482.21,-170 472.21,-166.5 472.21,-173.5"/>
</a>
</g>
</g>
<!-- Node7 -->
<g id="Node000007" class="node">
<title>Node7</title>
<g id="a_Node000007"><a xlink:href="group___t_stack.html#ga480af197cbd84970291358c870ec9b90" target="_top" xlink:title="Odstranění elementu na vrcholu zásobníku.">
<polygon fill="white" stroke="#666666" points="318.75,-228 257.75,-228 257.75,-208 318.75,-208 318.75,-228"/>
<text text-anchor="middle" x="288.25" y="-214.5" font-family="Helvetica,sans-Serif" font-size="10.00">stack_pop</text>
</a>
</g>
</g>
<!-- Node1&#45;&gt;Node7 -->
<g id="edge20_Node000001_Node000007" class="edge">
<title>Node1&#45;&gt;Node7</title>
<g id="a_edge20_Node000001_Node000007"><a xlink:title=" ">
<path fill="none" stroke="#63b8ff" d="M472.84,-183.22C464.56,-185.25 456.06,-187.25 448,-189 403.37,-198.7 351.22,-207.8 319.21,-213.14"/>
<polygon fill="#63b8ff" stroke="#63b8ff" points="473.6,-186.64 482.45,-180.82 471.9,-179.85 473.6,-186.64"/>
</a>
</g>
</g>
<!-- Node8 -->
<g id="Node000008" class="node">
<title>Node8</title>
<g id="a_Node000008"><a xlink:href="group___t_stack.html#gac84fd2f3c38113a7d9d4cf5123b581f3" target="_top" xlink:title="Získání hodnoty elementu na vrcholu zásobníku.">
<polygon fill="white" stroke="#666666" points="317.62,-114 258.88,-114 258.88,-94 317.62,-94 317.62,-114"/>
<text text-anchor="middle" x="288.25" y="-100.5" font-family="Helvetica,sans-Serif" font-size="10.00">stack_top</text>
</a>
</g>
</g>
<!-- Node1&#45;&gt;Node8 -->
<g id="edge24_Node000001_Node000008" class="edge">
<title>Node1&#45;&gt;Node8</title>
<g id="a_edge24_Node000001_Node000008"><a xlink:title=" ">
<path fill="none" stroke="#63b8ff" d="M475.28,-156.47C427.98,-143.13 357.25,-123.18 318.04,-112.12"/>
<polygon fill="#63b8ff" stroke="#63b8ff" points="474.14,-159.79 484.72,-159.13 476.04,-153.05 474.14,-159.79"/>
</a>
</g>
</g>
<!-- Node9 -->
<g id="Node000009" class="node">
<title>Node9</title>
<g id="a_Node000009"><a xlink:href="group___t_stack_iterator.html#gaa3bbe9fce0de463850601e23ebc552ff" target="_top" xlink:title="Vytvoření nového iterátoru ukazujícího na vrchol zásobníku.">
<polygon fill="white" stroke="#666666" points="195.12,-20 91.38,-20 91.38,0 195.12,0 195.12,-20"/>
<text text-anchor="middle" x="143.25" y="-6.5" font-family="Helvetica,sans-Serif" font-size="10.00">stack_iterator_begin</text>
</a>
</g>
</g>
<!-- Node1&#45;&gt;Node9 -->
<g id="edge17_Node000001_Node000009" class="edge">
<title>Node1&#45;&gt;Node9</title>
<g id="a_edge17_Node000001_Node000009"><a xlink:title=" ">
<path fill="none" stroke="#63b8ff" d="M511.02,-150.18C497.82,-130.38 475.02,-100.45 448,-83 369.64,-32.39 259.46,-16.83 195.59,-12.07"/>
<polygon fill="#63b8ff" stroke="#63b8ff" points="508.01,-151.95 516.36,-158.47 513.89,-148.16 508.01,-151.95"/>
</a>
</g>
</g>
<!-- Node10 -->
<g id="Node000010" class="node">
<title>Node10</title>
<g id="a_Node000010"><a xlink:href="group___t_stack.html#ga8ee1e96ca9c6c84eb97fea0a3506938c" target="_top" xlink:title="Vložení elementu na vrchol zásobníku.">
<polygon fill="white" stroke="#666666" points="321.38,-76 255.12,-76 255.12,-56 321.38,-56 321.38,-76"/>
<text text-anchor="middle" x="288.25" y="-62.5" font-family="Helvetica,sans-Serif" font-size="10.00">stack_push</text>
</a>
</g>
</g>
<!-- Node1&#45;&gt;Node10 -->
<g id="edge21_Node000001_Node000010" class="edge">
<title>Node1&#45;&gt;Node10</title>
<g id="a_edge21_Node000001_Node000010"><a xlink:title=" ">
<path fill="none" stroke="#63b8ff" d="M500.27,-152.93C485.8,-142.72 466.43,-130.02 448,-121 406.09,-100.48 354.55,-84.12 321.8,-74.74"/>
<polygon fill="#63b8ff" stroke="#63b8ff" points="498.05,-155.64 508.21,-158.64 502.14,-149.96 498.05,-155.64"/>
</a>
</g>
</g>
<!-- Node3 -->
<g id="Node000003" class="node">
<title>Node3</title>
<g id="a_Node000003"><a xlink:href="group___main_program.html#ga367aadf6f2e33e86efe4a50daff32e81" target="_top" xlink:title="Testování API Stack.">
<polygon fill="white" stroke="#666666" points="213.5,-190 73,-190 73,-170 213.5,-170 213.5,-190"/>
<text text-anchor="middle" x="143.25" y="-176.5" font-family="Helvetica,sans-Serif" font-size="10.00">demo_tiskni_slova_pozpatku</text>
</a>
</g>
</g>
<!-- Node2&#45;&gt;Node3 -->
<g id="edge2_Node000002_Node000003" class="edge">
<title>Node2&#45;&gt;Node3</title>
<g id="a_edge2_Node000002_Node000003"><a xlink:title=" ">
<path fill="none" stroke="#63b8ff" d="M254.43,-278.17C252.73,-277.14 251.08,-276.08 249.5,-275 210.91,-248.58 171.62,-209.05 153.93,-190.42"/>
<polygon fill="#63b8ff" stroke="#63b8ff" points="252.57,-281.15 263.01,-282.96 255.98,-275.03 252.57,-281.15"/>
</a>
</g>
</g>
<!-- Node4 -->
<g id="Node000004" class="node">
<title>Node4</title>
<g id="a_Node000004"><a xlink:href="group___main_program.html#ga0ddf1224851353fc92bfbff6f499fa97" target="_top" xlink:title=" ">
<polygon fill="white" stroke="#666666" points="37,-171 0,-171 0,-151 37,-151 37,-171"/>
<text text-anchor="middle" x="18.5" y="-157.5" font-family="Helvetica,sans-Serif" font-size="10.00">main</text>
</a>
</g>
</g>
<!-- Node2&#45;&gt;Node4 -->
<g id="edge4_Node000002_Node000004" class="edge">
<title>Node2&#45;&gt;Node4</title>
<g id="a_edge4_Node000002_Node000004"><a xlink:title=" ">
<path fill="none" stroke="#63b8ff" d="M237.81,-296.1C191.23,-295.63 121.52,-288.4 73,-254 43.67,-233.21 28.16,-190.91 22.3,-171.35"/>
<polygon fill="#63b8ff" stroke="#63b8ff" points="237.62,-299.6 247.62,-296.08 237.61,-292.6 237.62,-299.6"/>
</a>
</g>
</g>
<!-- Node3&#45;&gt;Node4 -->
<g id="edge3_Node000003_Node000004" class="edge">
<title>Node3&#45;&gt;Node4</title>
<g id="a_edge3_Node000003_Node000004"><a xlink:title=" ">
<path fill="none" stroke="#63b8ff" d="M63.59,-167.82C53.87,-166.32 44.78,-164.91 37.41,-163.77"/>
<polygon fill="#63b8ff" stroke="#63b8ff" points="62.86,-171.25 73.27,-169.32 63.93,-164.34 62.86,-171.25"/>
</a>
</g>
</g>
<!-- Node5&#45;&gt;Node3 -->
<g id="edge6_Node000005_Node000003" class="edge">
<title>Node5&#45;&gt;Node3</title>
<g id="a_edge6_Node000005_Node000003"><a xlink:title=" ">
<path fill="none" stroke="#63b8ff" d="M256.33,-240.53C254.02,-239.35 251.72,-238.16 249.5,-237 219.11,-221.13 184.17,-202.04 163.17,-190.47"/>
<polygon fill="#63b8ff" stroke="#63b8ff" points="254.57,-243.57 265.07,-244.97 257.74,-237.32 254.57,-243.57"/>
</a>
</g>
</g>
<!-- Node5&#45;&gt;Node4 -->
<g id="edge7_Node000005_Node000004" class="edge">
<title>Node5&#45;&gt;Node4</title>
<g id="a_edge7_Node000005_Node000004"><a xlink:title=" ">
<path fill="none" stroke="#63b8ff" d="M247.56,-257.85C202.47,-258.22 128,-253.47 73,-223 50.86,-210.74 33.64,-185.55 25.21,-171.34"/>
<polygon fill="#63b8ff" stroke="#63b8ff" points="247.47,-261.35 257.4,-257.67 247.34,-254.35 247.47,-261.35"/>
</a>
</g>
</g>
<!-- Node6&#45;&gt;Node3 -->
<g id="edge9_Node000006_Node000003" class="edge">
<title>Node6&#45;&gt;Node3</title>
<g id="a_edge9_Node000006_Node000003"><a xlink:title=" ">
<path fill="none" stroke="#63b8ff" d="M351.39,-172.04C311.7,-173.57 257.07,-175.66 213.88,-177.32"/>
<polygon fill="#63b8ff" stroke="#63b8ff" points="351.32,-175.55 361.17,-171.66 351.05,-168.55 351.32,-175.55"/>
</a>
</g>
</g>
<!-- Node6&#45;&gt;Node4 -->
<g id="edge10_Node000006_Node000004" class="edge">
<title>Node6&#45;&gt;Node4</title>
<g id="a_edge10_Node000006_Node000004"><a xlink:title=" ">
<path fill="none" stroke="#63b8ff" d="M351.39,-166.83C313.08,-164.7 260.12,-162.1 213.5,-161 148.68,-159.47 71.65,-160.24 37.42,-160.72"/>
<polygon fill="#63b8ff" stroke="#63b8ff" points="351.1,-170.31 361.28,-167.38 351.49,-163.33 351.1,-170.31"/>
</a>
</g>
</g>
<!-- Node6&#45;&gt;Node7 -->
<g id="edge11_Node000006_Node000007" class="edge">
<title>Node6&#45;&gt;Node7</title>
<g id="a_edge11_Node000006_Node000007"><a xlink:title=" ">
<path fill="none" stroke="#63b8ff" d="M368.95,-184.81C351.22,-192.19 330.21,-200.94 314.21,-207.61"/>
<polygon fill="#63b8ff" stroke="#63b8ff" points="370.21,-188.07 378.1,-181 367.52,-181.61 370.21,-188.07"/>
</a>
</g>
</g>
<!-- Node6&#45;&gt;Node8 -->
<g id="edge14_Node000006_Node000008" class="edge">
<title>Node6&#45;&gt;Node8</title>
<g id="a_edge14_Node000006_Node000008"><a xlink:title=" ">
<path fill="none" stroke="#63b8ff" d="M376.38,-153.89C354.9,-141.6 325.94,-125.01 307.43,-114.41"/>
<polygon fill="#63b8ff" stroke="#63b8ff" points="374.51,-156.86 384.92,-158.79 377.99,-150.78 374.51,-156.86"/>
</a>
</g>
</g>
<!-- Node7&#45;&gt;Node3 -->
<g id="edge12_Node000007_Node000003" class="edge">
<title>Node7&#45;&gt;Node3</title>
<g id="a_edge12_Node000007_Node000003"><a xlink:title=" ">
<path fill="none" stroke="#63b8ff" d="M246.2,-207.09C226.55,-201.87 203.13,-195.65 183.69,-190.48"/>
<polygon fill="#63b8ff" stroke="#63b8ff" points="245.25,-210.46 255.81,-209.65 247.04,-203.69 245.25,-210.46"/>
</a>
</g>
</g>
<!-- Node7&#45;&gt;Node4 -->
<g id="edge13_Node000007_Node000004" class="edge">
<title>Node7&#45;&gt;Node4</title>
<g id="a_edge13_Node000007_Node000004"><a xlink:title=" ">
<path fill="none" stroke="#63b8ff" d="M245.99,-220.62C201.8,-222 130.29,-220.11 73,-199 56.54,-192.93 40.52,-180.41 30.37,-171.4"/>
<polygon fill="#63b8ff" stroke="#63b8ff" points="246.06,-224.12 255.92,-220.23 245.79,-217.12 246.06,-224.12"/>
</a>
</g>
</g>
<!-- Node8&#45;&gt;Node3 -->
<g id="edge15_Node000008_Node000003" class="edge">
<title>Node8&#45;&gt;Node3</title>
<g id="a_edge15_Node000008_Node000003"><a xlink:title=" ">
<path fill="none" stroke="#63b8ff" d="M257.58,-119.77C229.37,-134.76 187.77,-156.87 163.6,-169.72"/>
<polygon fill="#63b8ff" stroke="#63b8ff" points="259.14,-122.9 266.33,-115.12 255.86,-116.72 259.14,-122.9"/>
</a>
</g>
</g>
<!-- Node8&#45;&gt;Node4 -->
<g id="edge16_Node000008_Node000004" class="edge">
<title>Node8&#45;&gt;Node4</title>
<g id="a_edge16_Node000008_Node000004"><a xlink:title=" ">
<path fill="none" stroke="#63b8ff" d="M247.32,-103.31C203.41,-103.72 131.34,-107.88 73,-128 58.14,-133.12 43.07,-142.92 32.73,-150.52"/>
<polygon fill="#63b8ff" stroke="#63b8ff" points="247.15,-106.81 257.14,-103.29 247.13,-99.81 247.15,-106.81"/>
</a>
</g>
</g>
<!-- Node9&#45;&gt;Node4 -->
<g id="edge18_Node000009_Node000004" class="edge">
<title>Node9&#45;&gt;Node4</title>
<g id="a_edge18_Node000009_Node000004"><a xlink:title=" ">
<path fill="none" stroke="#63b8ff" d="M108.13,-25.6C95.93,-32.41 82.79,-41.3 73,-52 45.25,-82.33 28.74,-129.7 22.44,-150.55"/>
<polygon fill="#63b8ff" stroke="#63b8ff" points="109.5,-28.83 116.73,-21.08 106.25,-22.64 109.5,-28.83"/>
</a>
</g>
</g>
<!-- Node9&#45;&gt;Node9 -->
<g id="edge19_Node000009_Node000009" class="edge">
<title>Node9&#45;&gt;Node9</title>
<g id="a_edge19_Node000009_Node000009"><a xlink:title=" ">
<path fill="none" stroke="#63b8ff" d="M165.3,-31.44C162.46,-35.3 155.11,-38 143.25,-38 121.56,-38 114.96,-28.98 123.43,-20.34"/>
<polygon fill="#63b8ff" stroke="#63b8ff" points="168.77,-30.94 163.37,-21.82 161.9,-32.32 168.77,-30.94"/>
</a>
</g>
</g>
<!-- Node10&#45;&gt;Node3 -->
<g id="edge22_Node000010_Node000003" class="edge">
<title>Node10&#45;&gt;Node3</title>
<g id="a_edge22_Node000010_Node000003"><a xlink:title=" ">
<path fill="none" stroke="#63b8ff" d="M254.43,-81.83C252.73,-82.86 251.08,-83.92 249.5,-85 210.91,-111.42 171.62,-150.95 153.93,-169.58"/>
<polygon fill="#63b8ff" stroke="#63b8ff" points="255.98,-84.97 263.01,-77.04 252.57,-78.85 255.98,-84.97"/>
</a>
</g>
</g>
<!-- Node10&#45;&gt;Node4 -->
<g id="edge23_Node000010_Node000004" class="edge">
<title>Node10&#45;&gt;Node4</title>
<g id="a_edge23_Node000010_Node000004"><a xlink:title=" ">
<path fill="none" stroke="#63b8ff" d="M243.43,-64.47C198.05,-64.74 126.43,-70.53 73,-100 51.05,-112.11 33.76,-136.87 25.26,-150.84"/>
<polygon fill="#63b8ff" stroke="#63b8ff" points="243.41,-67.97 253.42,-64.51 243.44,-60.97 243.41,-67.97"/>
</a>
</g>
</g>
</g>
</svg>
