<?xml version="1.0" encoding="UTF-8" standalone="no"?>
<!DOCTYPE svg PUBLIC "-//W3C//DTD SVG 1.1//EN"
 "http://www.w3.org/Graphics/SVG/1.1/DTD/svg11.dtd">
<!-- Generated by graphviz version 11.0.0 (20240428.1522)
 -->
<!-- Title: TStack.c Pages: 1 -->
<svg width="165pt" height="140pt"
 viewBox="0.00 0.00 164.88 140.00" xmlns="http://www.w3.org/2000/svg" xmlns:xlink="http://www.w3.org/1999/xlink">
<g id="graph0" class="graph" transform="scale(1 1) rotate(0) translate(4 136)">
<title>TStack.c</title>
<!-- Node1 -->
<g id="Node000001" class="node">
<title>Node1</title>
<g id="a_Node000001"><a xlink:title="Implementace API pro typ zásobník (realizace pomocí pole).">
<polygon fill="#999999" stroke="#666666" points="88.12,-132 33.12,-132 33.12,-112 88.12,-112 88.12,-132"/>
<text text-anchor="middle" x="60.62" y="-118.5" font-family="Helvetica,sans-Serif" font-size="10.00">TStack.c</text>
</a>
</g>
</g>
<!-- Node2 -->
<g id="Node000002" class="node">
<title>Node2</title>
<g id="a_Node000002"><a xlink:title=" ">
<polygon fill="#e0e0e0" stroke="#999999" points="51.25,-76 0,-76 0,-56 51.25,-56 51.25,-76"/>
<text text-anchor="middle" x="25.62" y="-62.5" font-family="Helvetica,sans-Serif" font-size="10.00">assert.h</text>
</a>
</g>
</g>
<!-- Node1&#45;&gt;Node2 -->
<g id="edge1_Node000001_Node000002" class="edge">
<title>Node1&#45;&gt;Node2</title>
<g id="a_edge1_Node000001_Node000002"><a xlink:title=" ">
<path fill="none" stroke="#63b8ff" d="M54.53,-111.59C49.91,-104.47 43.42,-94.45 37.76,-85.72"/>
<polygon fill="#63b8ff" stroke="#63b8ff" points="40.85,-84.06 32.47,-77.57 34.98,-87.86 40.85,-84.06"/>
</a>
</g>
</g>
<!-- Node3 -->
<g id="Node000003" class="node">
<title>Node3</title>
<g id="a_Node000003"><a xlink:href="_t_stack_8h.html" target="_top" xlink:title="Definice typu zásobník (realizace pomocí pole).">
<polygon fill="white" stroke="#666666" points="124.12,-76 69.12,-76 69.12,-56 124.12,-56 124.12,-76"/>
<text text-anchor="middle" x="96.62" y="-62.5" font-family="Helvetica,sans-Serif" font-size="10.00">TStack.h</text>
</a>
</g>
</g>
<!-- Node1&#45;&gt;Node3 -->
<g id="edge2_Node000001_Node000003" class="edge">
<title>Node1&#45;&gt;Node3</title>
<g id="a_edge2_Node000001_Node000003"><a xlink:title=" ">
<path fill="none" stroke="#63b8ff" d="M66.9,-111.59C71.64,-104.47 78.32,-94.45 84.15,-85.72"/>
<polygon fill="#63b8ff" stroke="#63b8ff" points="86.95,-87.82 89.59,-77.56 81.13,-83.94 86.95,-87.82"/>
</a>
</g>
</g>
<!-- Node4 -->
<g id="Node000004" class="node">
<title>Node4</title>
<g id="a_Node000004"><a xlink:title=" ">
<polygon fill="#e0e0e0" stroke="#999999" points="88.5,-20 32.75,-20 32.75,0 88.5,0 88.5,-20"/>
<text text-anchor="middle" x="60.62" y="-6.5" font-family="Helvetica,sans-Serif" font-size="10.00">stdbool.h</text>
</a>
</g>
</g>
<!-- Node3&#45;&gt;Node4 -->
<g id="edge3_Node000003_Node000004" class="edge">
<title>Node3&#45;&gt;Node4</title>
<g id="a_edge3_Node000003_Node000004"><a xlink:title=" ">
<path fill="none" stroke="#63b8ff" d="M90.35,-55.59C85.61,-48.47 78.93,-38.45 73.1,-29.72"/>
<polygon fill="#63b8ff" stroke="#63b8ff" points="76.12,-27.94 67.66,-21.56 70.3,-31.82 76.12,-27.94"/>
</a>
</g>
</g>
<!-- Node5 -->
<g id="Node000005" class="node">
<title>Node5</title>
<g id="a_Node000005"><a xlink:title=" ">
<polygon fill="#e0e0e0" stroke="#999999" points="156.88,-20 106.38,-20 106.38,0 156.88,0 156.88,-20"/>
<text text-anchor="middle" x="131.62" y="-6.5" font-family="Helvetica,sans-Serif" font-size="10.00">stddef.h</text>
</a>
</g>
</g>
<!-- Node3&#45;&gt;Node5 -->
<g id="edge4_Node000003_Node000005" class="edge">
<title>Node3&#45;&gt;Node5</title>
<g id="a_edge4_Node000003_Node000005"><a xlink:title=" ">
<path fill="none" stroke="#63b8ff" d="M102.72,-55.59C107.34,-48.47 113.83,-38.45 119.49,-29.72"/>
<polygon fill="#63b8ff" stroke="#63b8ff" points="122.27,-31.86 124.78,-21.57 116.4,-28.06 122.27,-31.86"/>
</a>
</g>
</g>
</g>
</svg>
