<?xml version="1.0" encoding="UTF-8" standalone="no"?>
<!DOCTYPE svg PUBLIC "-//W3C//DTD SVG 1.1//EN"
 "http://www.w3.org/Graphics/SVG/1.1/DTD/svg11.dtd">
<!-- Generated by graphviz version 11.0.0 (20240428.1522)
 -->
<!-- Title: TStack.h Pages: 1 -->
<svg width="126pt" height="84pt"
 viewBox="0.00 0.00 126.12 84.00" xmlns="http://www.w3.org/2000/svg" xmlns:xlink="http://www.w3.org/1999/xlink">
<g id="graph0" class="graph" transform="scale(1 1) rotate(0) translate(4 80)">
<title>TStack.h</title>
<!-- Node1 -->
<g id="Node000001" class="node">
<title>Node1</title>
<g id="a_Node000001"><a xlink:title="Definice typu zásobník (realizace pomocí pole).">
<polygon fill="#999999" stroke="#666666" points="89,-76 34,-76 34,-56 89,-56 89,-76"/>
<text text-anchor="middle" x="61.5" y="-62.5" font-family="Helvetica,sans-Serif" font-size="10.00">TStack.h</text>
</a>
</g>
</g>
<!-- Node2 -->
<g id="Node000002" class="node">
<title>Node2</title>
<g id="a_Node000002"><a xlink:href="_t_stack_8c.html" target="_top" xlink:title="Implementace API pro typ zásobník (realizace pomocí pole).">
<polygon fill="white" stroke="#666666" points="55,-20 0,-20 0,0 55,0 55,-20"/>
<text text-anchor="middle" x="27.5" y="-6.5" font-family="Helvetica,sans-Serif" font-size="10.00">TStack.c</text>
</a>
</g>
</g>
<!-- Node1&#45;&gt;Node2 -->
<g id="edge1_Node000001_Node000002" class="edge">
<title>Node1&#45;&gt;Node2</title>
<g id="a_edge1_Node000001_Node000002"><a xlink:title=" ">
<path fill="none" stroke="#63b8ff" d="M49.45,-45.87C43.99,-37.19 37.77,-27.32 33.35,-20.3"/>
<polygon fill="#63b8ff" stroke="#63b8ff" points="46.48,-47.72 54.77,-54.31 52.4,-43.99 46.48,-47.72"/>
</a>
</g>
</g>
<!-- Node3 -->
<g id="Node000003" class="node">
<title>Node3</title>
<g id="a_Node000003"><a xlink:href="main_8c.html" target="_top" xlink:title="Hlavní program pro testování ADT TStack.">
<polygon fill="white" stroke="#666666" points="118.12,-20 72.88,-20 72.88,0 118.12,0 118.12,-20"/>
<text text-anchor="middle" x="95.5" y="-6.5" font-family="Helvetica,sans-Serif" font-size="10.00">main.c</text>
</a>
</g>
</g>
<!-- Node1&#45;&gt;Node3 -->
<g id="edge2_Node000001_Node000003" class="edge">
<title>Node1&#45;&gt;Node3</title>
<g id="a_edge2_Node000001_Node000003"><a xlink:title=" ">
<path fill="none" stroke="#63b8ff" d="M73.55,-45.87C79.01,-37.19 85.23,-27.32 89.65,-20.3"/>
<polygon fill="#63b8ff" stroke="#63b8ff" points="70.6,-43.99 68.23,-54.31 76.52,-47.72 70.6,-43.99"/>
</a>
</g>
</g>
</g>
</svg>
