<?xml version="1.0" encoding="UTF-8" standalone="no"?>
<!DOCTYPE svg PUBLIC "-//W3C//DTD SVG 1.1//EN"
 "http://www.w3.org/Graphics/SVG/1.1/DTD/svg11.dtd">
<!-- Generated by graphviz version 11.0.0 (20240428.1522)
 -->
<!-- Title: main Pages: 1 -->
<svg width="626pt" height="446pt"
 viewBox="0.00 0.00 625.75 446.00" xmlns="http://www.w3.org/2000/svg" xmlns:xlink="http://www.w3.org/1999/xlink">
<g id="graph0" class="graph" transform="scale(1 1) rotate(0) translate(4 442)">
<title>main</title>
<!-- Node1 -->
<g id="Node000001" class="node">
<title>Node1</title>
<g id="a_Node000001"><a xlink:title=" ">
<polygon fill="#999999" stroke="#666666" points="37,-229 0,-229 0,-209 37,-209 37,-229"/>
<text text-anchor="middle" x="18.5" y="-215.5" font-family="Helvetica,sans-Serif" font-size="10.00">main</text>
</a>
</g>
</g>
<!-- Node2 -->
<g id="Node000002" class="node">
<title>Node2</title>
<g id="a_Node000002"><a xlink:href="main__support_8h.html#a2d31e17cb6a745a38f21a15a8b9f6142" target="_top" xlink:title="Konverzní funkce z hodnoty typu bool na C&#45;řetězec.">
<polygon fill="white" stroke="#666666" points="184.25,-438 102.25,-438 102.25,-418 184.25,-418 184.25,-438"/>
<text text-anchor="middle" x="143.25" y="-424.5" font-family="Helvetica,sans-Serif" font-size="10.00">bool_to_cstring</text>
</a>
</g>
</g>
<!-- Node1&#45;&gt;Node2 -->
<g id="edge1_Node000001_Node000002" class="edge">
<title>Node1&#45;&gt;Node2</title>
<g id="a_edge1_Node000001_Node000002"><a xlink:title=" ">
<path fill="none" stroke="#63b8ff" d="M19.38,-229.4C19.58,-260.33 24.43,-352.83 73,-404 78.18,-409.46 84.66,-413.67 91.56,-416.93"/>
<polygon fill="#63b8ff" stroke="#63b8ff" points="89.89,-420.03 100.48,-420.49 92.49,-413.53 89.89,-420.03"/>
</a>
</g>
</g>
<!-- Node3 -->
<g id="Node000003" class="node">
<title>Node3</title>
<g id="a_Node000003"><a xlink:href="group___main_program.html#ga367aadf6f2e33e86efe4a50daff32e81" target="_top" xlink:title="Testování API Stack.">
<polygon fill="white" stroke="#666666" points="213.5,-286 73,-286 73,-266 213.5,-266 213.5,-286"/>
<text text-anchor="middle" x="143.25" y="-272.5" font-family="Helvetica,sans-Serif" font-size="10.00">demo_tiskni_slova_pozpatku</text>
</a>
</g>
</g>
<!-- Node1&#45;&gt;Node3 -->
<g id="edge2_Node000001_Node000003" class="edge">
<title>Node1&#45;&gt;Node3</title>
<g id="a_edge2_Node000001_Node000003"><a xlink:title=" ">
<path fill="none" stroke="#63b8ff" d="M34.45,-229.45C44.91,-236.46 59.39,-245.54 73,-252 80.51,-255.56 88.69,-258.87 96.72,-261.82"/>
<polygon fill="#63b8ff" stroke="#63b8ff" points="95.47,-265.09 106.06,-265.11 97.79,-258.49 95.47,-265.09"/>
</a>
</g>
</g>
<!-- Node4 -->
<g id="Node000004" class="node">
<title>Node4</title>
<g id="a_Node000004"><a xlink:href="group___t_stack.html#ga543615a4df26ed863b9e92228b69d04a" target="_top" xlink:title="Deinicializace zásobníku.">
<polygon fill="white" stroke="#666666" points="344.25,-400 266.75,-400 266.75,-380 344.25,-380 344.25,-400"/>
<text text-anchor="middle" x="305.5" y="-386.5" font-family="Helvetica,sans-Serif" font-size="10.00">stack_destroy</text>
</a>
</g>
</g>
<!-- Node1&#45;&gt;Node4 -->
<g id="edge17_Node000001_Node000004" class="edge">
<title>Node1&#45;&gt;Node4</title>
<g id="a_edge17_Node000001_Node000004"><a xlink:title=" ">
<path fill="none" stroke="#63b8ff" d="M20.18,-229.18C22.49,-254.87 32.33,-322.58 73,-355 124.6,-396.14 203.86,-399.17 254.95,-395.89"/>
<polygon fill="#63b8ff" stroke="#63b8ff" points="255.13,-399.39 264.83,-395.14 254.6,-392.41 255.13,-399.39"/>
</a>
</g>
</g>
<!-- Node6 -->
<g id="Node000006" class="node">
<title>Node6</title>
<g id="a_Node000006"><a xlink:href="group___t_stack.html#ga22a9f4ad0c450cdbbfb7546493b1f781" target="_top" xlink:title="Inicializace prázdného zásobníku.">
<polygon fill="white" stroke="#666666" points="334.5,-362 276.5,-362 276.5,-342 334.5,-342 334.5,-362"/>
<text text-anchor="middle" x="305.5" y="-348.5" font-family="Helvetica,sans-Serif" font-size="10.00">stack_init</text>
</a>
</g>
</g>
<!-- Node1&#45;&gt;Node6 -->
<g id="edge18_Node000001_Node000006" class="edge">
<title>Node1&#45;&gt;Node6</title>
<g id="a_edge18_Node000001_Node000006"><a xlink:title=" ">
<path fill="none" stroke="#63b8ff" d="M21.49,-229.37C26.21,-250.85 40.22,-300.08 73,-323 130.32,-363.07 215.62,-362.28 265.09,-357.52"/>
<polygon fill="#63b8ff" stroke="#63b8ff" points="265.19,-361.03 274.76,-356.48 264.44,-354.07 265.19,-361.03"/>
</a>
</g>
</g>
<!-- Node7 -->
<g id="Node000007" class="node">
<title>Node7</title>
<g id="a_Node000007"><a xlink:href="group___t_stack.html#gab2a53c66f9bb439a8749c97f9c9d9f2d" target="_top" xlink:title="Zjištění, zda je zásobník prázdný">
<polygon fill="white" stroke="#666666" points="491.88,-284 406.88,-284 406.88,-264 491.88,-264 491.88,-284"/>
<text text-anchor="middle" x="449.38" y="-270.5" font-family="Helvetica,sans-Serif" font-size="10.00">stack_is_empty</text>
</a>
</g>
</g>
<!-- Node1&#45;&gt;Node7 -->
<g id="edge19_Node000001_Node000007" class="edge">
<title>Node1&#45;&gt;Node7</title>
<g id="a_edge19_Node000001_Node000007"><a xlink:title=" ">
<path fill="none" stroke="#63b8ff" d="M37.38,-221.29C98.17,-229.09 298.39,-254.77 395.13,-267.17"/>
<polygon fill="#63b8ff" stroke="#63b8ff" points="394.53,-270.62 404.9,-268.42 395.42,-263.68 394.53,-270.62"/>
</a>
</g>
</g>
<!-- Node8 -->
<g id="Node000008" class="node">
<title>Node8</title>
<g id="a_Node000008"><a xlink:href="group___t_stack.html#ga480af197cbd84970291358c870ec9b90" target="_top" xlink:title="Odstranění elementu na vrcholu zásobníku.">
<polygon fill="white" stroke="#666666" points="336,-324 275,-324 275,-304 336,-304 336,-324"/>
<text text-anchor="middle" x="305.5" y="-310.5" font-family="Helvetica,sans-Serif" font-size="10.00">stack_pop</text>
</a>
</g>
</g>
<!-- Node1&#45;&gt;Node8 -->
<g id="edge27_Node000001_Node000008" class="edge">
<title>Node1&#45;&gt;Node8</title>
<g id="a_edge27_Node000001_Node000008"><a xlink:title=" ">
<path fill="none" stroke="#63b8ff" d="M23.36,-229.32C30.33,-246.37 46.81,-280.02 73,-295 132.34,-328.95 214.6,-326.27 263.41,-320.58"/>
<polygon fill="#63b8ff" stroke="#63b8ff" points="263.79,-324.06 273.27,-319.32 262.91,-317.12 263.79,-324.06"/>
</a>
</g>
</g>
<!-- Node9 -->
<g id="Node000009" class="node">
<title>Node9</title>
<g id="a_Node000009"><a xlink:href="group___t_stack.html#ga8ee1e96ca9c6c84eb97fea0a3506938c" target="_top" xlink:title="Vložení elementu na vrchol zásobníku.">
<polygon fill="white" stroke="#666666" points="338.62,-172 272.38,-172 272.38,-152 338.62,-152 338.62,-172"/>
<text text-anchor="middle" x="305.5" y="-158.5" font-family="Helvetica,sans-Serif" font-size="10.00">stack_push</text>
</a>
</g>
</g>
<!-- Node1&#45;&gt;Node9 -->
<g id="edge28_Node000001_Node000009" class="edge">
<title>Node1&#45;&gt;Node9</title>
<g id="a_edge28_Node000001_Node000009"><a xlink:title=" ">
<path fill="none" stroke="#63b8ff" d="M37.16,-212.72C47.51,-209.21 60.88,-204.96 73,-202 137.65,-186.22 213.94,-174.31 260.76,-167.74"/>
<polygon fill="#63b8ff" stroke="#63b8ff" points="261.08,-171.23 270.51,-166.39 260.12,-164.29 261.08,-171.23"/>
</a>
</g>
</g>
<!-- Node10 -->
<g id="Node000010" class="node">
<title>Node10</title>
<g id="a_Node000010"><a xlink:href="group___t_stack.html#gac84fd2f3c38113a7d9d4cf5123b581f3" target="_top" xlink:title="Získání hodnoty elementu na vrcholu zásobníku.">
<polygon fill="white" stroke="#666666" points="334.88,-210 276.12,-210 276.12,-190 334.88,-190 334.88,-210"/>
<text text-anchor="middle" x="305.5" y="-196.5" font-family="Helvetica,sans-Serif" font-size="10.00">stack_top</text>
</a>
</g>
</g>
<!-- Node1&#45;&gt;Node10 -->
<g id="edge29_Node000001_Node000010" class="edge">
<title>Node1&#45;&gt;Node10</title>
<g id="a_edge29_Node000001_Node000010"><a xlink:title=" ">
<path fill="none" stroke="#63b8ff" d="M37.33,-217.81C82.32,-214.81 201.35,-206.88 264.25,-202.68"/>
<polygon fill="#63b8ff" stroke="#63b8ff" points="264.42,-206.18 274.16,-202.02 263.95,-199.2 264.42,-206.18"/>
</a>
</g>
</g>
<!-- Node11 -->
<g id="Node000011" class="node">
<title>Node11</title>
<g id="a_Node000011"><a xlink:href="group___t_stack_iterator.html#gaa3bbe9fce0de463850601e23ebc552ff" target="_top" xlink:title="Vytvoření nového iterátoru ukazujícího na vrchol zásobníku.">
<polygon fill="white" stroke="#666666" points="501.25,-144 397.5,-144 397.5,-124 501.25,-124 501.25,-144"/>
<text text-anchor="middle" x="449.38" y="-130.5" font-family="Helvetica,sans-Serif" font-size="10.00">stack_iterator_begin</text>
</a>
</g>
</g>
<!-- Node1&#45;&gt;Node11 -->
<g id="edge20_Node000001_Node000011" class="edge">
<title>Node1&#45;&gt;Node11</title>
<g id="a_edge20_Node000001_Node000011"><a xlink:title=" ">
<path fill="none" stroke="#63b8ff" d="M27.75,-208.67C37.35,-197.44 54.3,-179.9 73,-171 174.37,-122.74 308.33,-122.53 385.76,-127.65"/>
<polygon fill="#63b8ff" stroke="#63b8ff" points="385.49,-131.14 395.71,-128.37 385.99,-124.16 385.49,-131.14"/>
</a>
</g>
</g>
<!-- Node12 -->
<g id="Node000012" class="node">
<title>Node12</title>
<g id="a_Node000012"><a xlink:href="group___t_stack_iterator.html#gad5a597d5a1e8f27eaac18d9a030997e3" target="_top" xlink:title="Zjištění platnosti iterátoru.">
<polygon fill="white" stroke="#666666" points="361.5,-77 249.5,-77 249.5,-57 361.5,-57 361.5,-77"/>
<text text-anchor="middle" x="305.5" y="-63.5" font-family="Helvetica,sans-Serif" font-size="10.00">stack_iterator_is_valid</text>
</a>
</g>
</g>
<!-- Node1&#45;&gt;Node12 -->
<g id="edge23_Node000001_Node000012" class="edge">
<title>Node1&#45;&gt;Node12</title>
<g id="a_edge23_Node000001_Node000012"><a xlink:title=" ">
<path fill="none" stroke="#63b8ff" d="M21.37,-208.64C25.93,-186.64 39.75,-135.23 73,-110 98.43,-90.7 179,-78.95 237.96,-72.71"/>
<polygon fill="#63b8ff" stroke="#63b8ff" points="237.97,-76.23 247.57,-71.73 237.26,-69.27 237.97,-76.23"/>
</a>
</g>
</g>
<!-- Node13 -->
<g id="Node000013" class="node">
<title>Node13</title>
<g id="a_Node000013"><a xlink:href="group___t_stack_iterator.html#gaa94902ad8202ccc9fdfe08aa660e3903" target="_top" xlink:title="Posunutí iterátoru vpřed.">
<polygon fill="white" stroke="#666666" points="199.62,-20 86.88,-20 86.88,0 199.62,0 199.62,-20"/>
<text text-anchor="middle" x="143.25" y="-6.5" font-family="Helvetica,sans-Serif" font-size="10.00">stack_iterator_to_next</text>
</a>
</g>
</g>
<!-- Node1&#45;&gt;Node13 -->
<g id="edge24_Node000001_Node000013" class="edge">
<title>Node1&#45;&gt;Node13</title>
<g id="a_edge24_Node000001_Node000013"><a xlink:title=" ">
<path fill="none" stroke="#63b8ff" d="M19.13,-208.63C18.59,-176.9 21.46,-80.2 73,-29 74.22,-27.79 75.5,-26.66 76.84,-25.6"/>
<polygon fill="#63b8ff" stroke="#63b8ff" points="78.56,-28.65 85.16,-20.36 74.83,-22.73 78.56,-28.65"/>
</a>
</g>
</g>
<!-- Node14 -->
<g id="Node000014" class="node">
<title>Node14</title>
<g id="a_Node000014"><a xlink:href="group___t_stack_iterator.html#ga1e006b0649df0fac42315afb488f283e" target="_top" xlink:title="Přečtení hodnoty elementu ze zásobníku pomocí iterátoru.">
<polygon fill="white" stroke="#666666" points="194.38,-58 92.12,-58 92.12,-38 194.38,-38 194.38,-58"/>
<text text-anchor="middle" x="143.25" y="-44.5" font-family="Helvetica,sans-Serif" font-size="10.00">stack_iterator_value</text>
</a>
</g>
</g>
<!-- Node1&#45;&gt;Node14 -->
<g id="edge25_Node000001_Node000014" class="edge">
<title>Node1&#45;&gt;Node14</title>
<g id="a_edge25_Node000001_Node000014"><a xlink:title=" ">
<path fill="none" stroke="#63b8ff" d="M20.26,-208.86C22.79,-182.52 33.14,-111.25 73,-72 76.22,-68.83 79.89,-66.07 83.8,-63.68"/>
<polygon fill="#63b8ff" stroke="#63b8ff" points="85.33,-66.83 92.62,-59.15 82.13,-60.61 85.33,-66.83"/>
</a>
</g>
</g>
<!-- Node3&#45;&gt;Node4 -->
<g id="edge3_Node000003_Node000004" class="edge">
<title>Node3&#45;&gt;Node4</title>
<g id="a_edge3_Node000003_Node000004"><a xlink:title=" ">
<path fill="none" stroke="#63b8ff" d="M153.07,-286.34C169.95,-305.55 208.81,-346.97 249.5,-371 251.94,-372.44 254.5,-373.79 257.13,-375.05"/>
<polygon fill="#63b8ff" stroke="#63b8ff" points="255.53,-378.18 266.1,-378.92 258.3,-371.75 255.53,-378.18"/>
</a>
</g>
</g>
<!-- Node3&#45;&gt;Node6 -->
<g id="edge5_Node000003_Node000006" class="edge">
<title>Node3&#45;&gt;Node6</title>
<g id="a_edge5_Node000003_Node000006"><a xlink:title=" ">
<path fill="none" stroke="#63b8ff" d="M161.32,-286.37C181.78,-298.55 217.36,-318.86 249.5,-333 254.68,-335.28 260.24,-337.47 265.74,-339.51"/>
<polygon fill="#63b8ff" stroke="#63b8ff" points="264.16,-342.66 274.75,-342.7 266.5,-336.06 264.16,-342.66"/>
</a>
</g>
</g>
<!-- Node3&#45;&gt;Node7 -->
<g id="edge7_Node000003_Node000007" class="edge">
<title>Node3&#45;&gt;Node7</title>
<g id="a_edge7_Node000003_Node000007"><a xlink:title=" ">
<path fill="none" stroke="#63b8ff" d="M213.64,-275.54C268.78,-275.18 344.75,-274.68 395.15,-274.35"/>
<polygon fill="#63b8ff" stroke="#63b8ff" points="394.95,-277.85 404.93,-274.29 394.91,-270.85 394.95,-277.85"/>
</a>
</g>
</g>
<!-- Node3&#45;&gt;Node8 -->
<g id="edge9_Node000003_Node000008" class="edge">
<title>Node3&#45;&gt;Node8</title>
<g id="a_edge9_Node000003_Node000008"><a xlink:title=" ">
<path fill="none" stroke="#63b8ff" d="M188.46,-286.48C211.92,-292.05 240.56,-298.84 263.51,-304.28"/>
<polygon fill="#63b8ff" stroke="#63b8ff" points="262.6,-307.66 273.14,-306.56 264.22,-300.85 262.6,-307.66"/>
</a>
</g>
</g>
<!-- Node3&#45;&gt;Node9 -->
<g id="edge12_Node000003_Node000009" class="edge">
<title>Node3&#45;&gt;Node9</title>
<g id="a_edge12_Node000003_Node000009"><a xlink:title=" ">
<path fill="none" stroke="#63b8ff" d="M153.07,-265.66C169.95,-246.45 208.81,-205.03 249.5,-181 253.31,-178.75 257.42,-176.72 261.62,-174.89"/>
<polygon fill="#63b8ff" stroke="#63b8ff" points="262.69,-178.23 270.72,-171.32 260.13,-171.72 262.69,-178.23"/>
</a>
</g>
</g>
<!-- Node3&#45;&gt;Node10 -->
<g id="edge14_Node000003_Node000010" class="edge">
<title>Node3&#45;&gt;Node10</title>
<g id="a_edge14_Node000003_Node000010"><a xlink:title=" ">
<path fill="none" stroke="#63b8ff" d="M166.2,-265.59C193.69,-252.55 241.01,-230.11 272.53,-215.16"/>
<polygon fill="#63b8ff" stroke="#63b8ff" points="273.66,-218.5 281.19,-211.05 270.66,-212.18 273.66,-218.5"/>
</a>
</g>
</g>
<!-- Node5 -->
<g id="Node000005" class="node">
<title>Node5</title>
<g id="a_Node000005"><a xlink:href="_t_stack_8c.html#a842bb6cb1446d6730f9ceece2849f307" target="_top" xlink:title=" ">
<polygon fill="white" stroke="#666666" points="617.75,-284 537.25,-284 537.25,-264 617.75,-264 617.75,-284"/>
<text text-anchor="middle" x="577.5" y="-270.5" font-family="Helvetica,sans-Serif" font-size="10.00">stack_invariant</text>
</a>
</g>
</g>
<!-- Node4&#45;&gt;Node5 -->
<g id="edge4_Node000004_Node000005" class="edge">
<title>Node4&#45;&gt;Node5</title>
<g id="a_edge4_Node000004_Node000005"><a xlink:title=" ">
<path fill="none" stroke="#63b8ff" d="M344.6,-385.26C385.26,-379.03 450.68,-365.61 501.25,-339 523.77,-327.15 545.31,-307.4 559.52,-292.77"/>
<polygon fill="#63b8ff" stroke="#63b8ff" points="562.02,-295.22 566.34,-285.54 556.93,-290.42 562.02,-295.22"/>
</a>
</g>
</g>
<!-- Node6&#45;&gt;Node5 -->
<g id="edge6_Node000006_Node000005" class="edge">
<title>Node6&#45;&gt;Node5</title>
<g id="a_edge6_Node000006_Node000005"><a xlink:title=" ">
<path fill="none" stroke="#63b8ff" d="M334.89,-348.85C373.41,-344.01 443.99,-333.12 501.25,-313 518.07,-307.09 535.81,-298.04 549.85,-290.15"/>
<polygon fill="#63b8ff" stroke="#63b8ff" points="551.56,-293.2 558.47,-285.17 548.06,-287.14 551.56,-293.2"/>
</a>
</g>
</g>
<!-- Node7&#45;&gt;Node5 -->
<g id="edge8_Node000007_Node000005" class="edge">
<title>Node7&#45;&gt;Node5</title>
<g id="a_edge8_Node000007_Node000005"><a xlink:title=" ">
<path fill="none" stroke="#63b8ff" d="M492.37,-274C503.01,-274 514.55,-274 525.58,-274"/>
<polygon fill="#63b8ff" stroke="#63b8ff" points="525.31,-277.5 535.31,-274 525.31,-270.5 525.31,-277.5"/>
</a>
</g>
</g>
<!-- Node8&#45;&gt;Node5 -->
<g id="edge10_Node000008_Node000005" class="edge">
<title>Node8&#45;&gt;Node5</title>
<g id="a_edge10_Node000008_Node000005"><a xlink:title=" ">
<path fill="none" stroke="#63b8ff" d="M336.38,-312.08C374.76,-309.32 443.34,-303.38 501.25,-293 510.11,-291.41 519.47,-289.36 528.46,-287.19"/>
<polygon fill="#63b8ff" stroke="#63b8ff" points="529.27,-290.6 538.13,-284.78 527.58,-283.81 529.27,-290.6"/>
</a>
</g>
</g>
<!-- Node8&#45;&gt;Node7 -->
<g id="edge11_Node000008_Node000007" class="edge">
<title>Node8&#45;&gt;Node7</title>
<g id="a_edge11_Node000008_Node000007"><a xlink:title=" ">
<path fill="none" stroke="#63b8ff" d="M336.24,-305.61C354.85,-300.37 379.26,-293.49 400.55,-287.49"/>
<polygon fill="#63b8ff" stroke="#63b8ff" points="401.21,-290.93 409.89,-284.85 399.31,-284.2 401.21,-290.93"/>
</a>
</g>
</g>
<!-- Node9&#45;&gt;Node5 -->
<g id="edge13_Node000009_Node000005" class="edge">
<title>Node9&#45;&gt;Node5</title>
<g id="a_edge13_Node000009_Node000005"><a xlink:title=" ">
<path fill="none" stroke="#63b8ff" d="M339,-168.8C378.61,-177.8 446.98,-195.67 501.25,-222 520.7,-231.44 540.75,-245.55 555.26,-256.69"/>
<polygon fill="#63b8ff" stroke="#63b8ff" points="552.72,-259.14 562.74,-262.57 557.04,-253.64 552.72,-259.14"/>
</a>
</g>
</g>
<!-- Node10&#45;&gt;Node5 -->
<g id="edge15_Node000010_Node000005" class="edge">
<title>Node10&#45;&gt;Node5</title>
<g id="a_edge15_Node000010_Node000005"><a xlink:title=" ">
<path fill="none" stroke="#63b8ff" d="M335.14,-207.85C380.94,-220.4 471.24,-245.15 527.46,-260.56"/>
<polygon fill="#63b8ff" stroke="#63b8ff" points="526.2,-263.84 536.77,-263.11 528.05,-257.09 526.2,-263.84"/>
</a>
</g>
</g>
<!-- Node10&#45;&gt;Node7 -->
<g id="edge16_Node000010_Node000007" class="edge">
<title>Node10&#45;&gt;Node7</title>
<g id="a_edge16_Node000010_Node000007"><a xlink:title=" ">
<path fill="none" stroke="#63b8ff" d="M333.3,-210.45C342.44,-214.34 352.59,-219.02 361.5,-224 378.51,-233.5 380.71,-239.12 397.5,-249 403.01,-252.24 409.01,-255.45 414.88,-258.43"/>
<polygon fill="#63b8ff" stroke="#63b8ff" points="413.32,-261.57 423.84,-262.85 416.41,-255.29 413.32,-261.57"/>
</a>
</g>
</g>
<!-- Node11&#45;&gt;Node5 -->
<g id="edge21_Node000011_Node000005" class="edge">
<title>Node11&#45;&gt;Node5</title>
<g id="a_edge21_Node000011_Node000005"><a xlink:title=" ">
<path fill="none" stroke="#63b8ff" d="M462.56,-144.36C473.16,-153.59 488.76,-167.66 501.25,-181 523.86,-205.14 547.46,-235.23 562.07,-254.53"/>
<polygon fill="#63b8ff" stroke="#63b8ff" points="559.12,-256.44 567.92,-262.34 564.72,-252.24 559.12,-256.44"/>
</a>
</g>
</g>
<!-- Node11&#45;&gt;Node11 -->
<g id="edge22_Node000011_Node000011" class="edge">
<title>Node11&#45;&gt;Node11</title>
<g id="a_edge22_Node000011_Node000011"><a xlink:title=" ">
<path fill="none" stroke="#63b8ff" d="M429.02,-144.34C420.32,-152.98 427.1,-162 449.38,-162 461.55,-162 469.1,-159.3 472.02,-155.44"/>
<polygon fill="#63b8ff" stroke="#63b8ff" points="475.48,-154.91 470.04,-145.82 468.63,-156.32 475.48,-154.91"/>
</a>
</g>
</g>
<!-- Node14&#45;&gt;Node12 -->
<g id="edge26_Node000014_Node000012" class="edge">
<title>Node14&#45;&gt;Node12</title>
<g id="a_edge26_Node000014_Node000012"><a xlink:title=" ">
<path fill="none" stroke="#63b8ff" d="M194.51,-53.96C208.2,-55.58 223.25,-57.37 237.7,-59.08"/>
<polygon fill="#63b8ff" stroke="#63b8ff" points="237.28,-62.55 247.62,-60.26 238.1,-55.6 237.28,-62.55"/>
</a>
</g>
</g>
</g>
</svg>
