<?xml version="1.0" encoding="UTF-8" standalone="no"?>
<!DOCTYPE svg PUBLIC "-//W3C//DTD SVG 1.1//EN"
 "http://www.w3.org/Graphics/SVG/1.1/DTD/svg11.dtd">
<!-- Generated by graphviz version 11.0.0 (20240428.1522)
 -->
<!-- Title: demo_tiskni_slova_pozpatku Pages: 1 -->
<svg width="500pt" height="218pt"
 viewBox="0.00 0.00 499.50 218.00" xmlns="http://www.w3.org/2000/svg" xmlns:xlink="http://www.w3.org/1999/xlink">
<g id="graph0" class="graph" transform="scale(1 1) rotate(0) translate(4 214)">
<title>demo_tiskni_slova_pozpatku</title>
<!-- Node1 -->
<g id="Node000001" class="node">
<title>Node1</title>
<g id="a_Node000001"><a xlink:title="Testování API Stack.">
<polygon fill="#999999" stroke="#666666" points="140.5,-115 0,-115 0,-95 140.5,-95 140.5,-115"/>
<text text-anchor="middle" x="70.25" y="-101.5" font-family="Helvetica,sans-Serif" font-size="10.00">demo_tiskni_slova_pozpatku</text>
</a>
</g>
</g>
<!-- Node2 -->
<g id="Node000002" class="node">
<title>Node2</title>
<g id="a_Node000002"><a xlink:href="group___t_stack.html#ga543615a4df26ed863b9e92228b69d04a" target="_top" xlink:title="Deinicializace zásobníku.">
<polygon fill="white" stroke="#666666" points="254,-210 176.5,-210 176.5,-190 254,-190 254,-210"/>
<text text-anchor="middle" x="215.25" y="-196.5" font-family="Helvetica,sans-Serif" font-size="10.00">stack_destroy</text>
</a>
</g>
</g>
<!-- Node1&#45;&gt;Node2 -->
<g id="edge1_Node000001_Node000002" class="edge">
<title>Node1&#45;&gt;Node2</title>
<g id="a_edge1_Node000001_Node000002"><a xlink:title=" ">
<path fill="none" stroke="#63b8ff" d="M86.5,-115.48C106.9,-129.45 144.23,-154.87 176.5,-176 180.27,-178.47 184.26,-181.05 188.19,-183.56"/>
<polygon fill="#63b8ff" stroke="#63b8ff" points="186.06,-186.35 196.37,-188.77 189.82,-180.45 186.06,-186.35"/>
</a>
</g>
</g>
<!-- Node4 -->
<g id="Node000004" class="node">
<title>Node4</title>
<g id="a_Node000004"><a xlink:href="group___t_stack.html#ga22a9f4ad0c450cdbbfb7546493b1f781" target="_top" xlink:title="Inicializace prázdného zásobníku.">
<polygon fill="white" stroke="#666666" points="361.5,-172 303.5,-172 303.5,-152 361.5,-152 361.5,-172"/>
<text text-anchor="middle" x="332.5" y="-158.5" font-family="Helvetica,sans-Serif" font-size="10.00">stack_init</text>
</a>
</g>
</g>
<!-- Node1&#45;&gt;Node4 -->
<g id="edge3_Node000001_Node000004" class="edge">
<title>Node1&#45;&gt;Node4</title>
<g id="a_edge3_Node000001_Node000004"><a xlink:title=" ">
<path fill="none" stroke="#63b8ff" d="M95.44,-115.5C116.48,-124.19 147.97,-136.19 176.5,-143 215.08,-152.21 260.19,-157.1 291.77,-159.59"/>
<polygon fill="#63b8ff" stroke="#63b8ff" points="291.42,-163.08 301.65,-160.33 291.94,-156.1 291.42,-163.08"/>
</a>
</g>
</g>
<!-- Node5 -->
<g id="Node000005" class="node">
<title>Node5</title>
<g id="a_Node000005"><a xlink:href="group___t_stack.html#gab2a53c66f9bb439a8749c97f9c9d9f2d" target="_top" xlink:title="Zjištění, zda je zásobník prázdný">
<polygon fill="white" stroke="#666666" points="375,-96 290,-96 290,-76 375,-76 375,-96"/>
<text text-anchor="middle" x="332.5" y="-82.5" font-family="Helvetica,sans-Serif" font-size="10.00">stack_is_empty</text>
</a>
</g>
</g>
<!-- Node1&#45;&gt;Node5 -->
<g id="edge5_Node000001_Node000005" class="edge">
<title>Node1&#45;&gt;Node5</title>
<g id="a_edge5_Node000001_Node000005"><a xlink:title=" ">
<path fill="none" stroke="#63b8ff" d="M140.99,-99.91C184.16,-96.76 238.72,-92.77 278.37,-89.88"/>
<polygon fill="#63b8ff" stroke="#63b8ff" points="278.43,-93.38 288.15,-89.17 277.92,-86.4 278.43,-93.38"/>
</a>
</g>
</g>
<!-- Node6 -->
<g id="Node000006" class="node">
<title>Node6</title>
<g id="a_Node000006"><a xlink:href="group___t_stack.html#ga480af197cbd84970291358c870ec9b90" target="_top" xlink:title="Odstranění elementu na vrcholu zásobníku.">
<polygon fill="white" stroke="#666666" points="245.75,-134 184.75,-134 184.75,-114 245.75,-114 245.75,-134"/>
<text text-anchor="middle" x="215.25" y="-120.5" font-family="Helvetica,sans-Serif" font-size="10.00">stack_pop</text>
</a>
</g>
</g>
<!-- Node1&#45;&gt;Node6 -->
<g id="edge7_Node000001_Node000006" class="edge">
<title>Node1&#45;&gt;Node6</title>
<g id="a_edge7_Node000001_Node000006"><a xlink:title=" ">
<path fill="none" stroke="#63b8ff" d="M140.66,-114.22C151.7,-115.69 162.82,-117.17 172.94,-118.51"/>
<polygon fill="#63b8ff" stroke="#63b8ff" points="172.44,-121.98 182.81,-119.82 173.36,-115.04 172.44,-121.98"/>
</a>
</g>
</g>
<!-- Node7 -->
<g id="Node000007" class="node">
<title>Node7</title>
<g id="a_Node000007"><a xlink:href="group___t_stack.html#ga8ee1e96ca9c6c84eb97fea0a3506938c" target="_top" xlink:title="Vložení elementu na vrchol zásobníku.">
<polygon fill="white" stroke="#666666" points="365.62,-20 299.38,-20 299.38,0 365.62,0 365.62,-20"/>
<text text-anchor="middle" x="332.5" y="-6.5" font-family="Helvetica,sans-Serif" font-size="10.00">stack_push</text>
</a>
</g>
</g>
<!-- Node1&#45;&gt;Node7 -->
<g id="edge10_Node000001_Node000007" class="edge">
<title>Node1&#45;&gt;Node7</title>
<g id="a_edge10_Node000001_Node000007"><a xlink:title=" ">
<path fill="none" stroke="#63b8ff" d="M81.51,-94.77C99.19,-77.85 137.26,-44.39 176.5,-29 212.24,-14.99 255.87,-10.66 287.72,-9.6"/>
<polygon fill="#63b8ff" stroke="#63b8ff" points="287.46,-13.1 297.38,-9.37 287.3,-6.1 287.46,-13.1"/>
</a>
</g>
</g>
<!-- Node8 -->
<g id="Node000008" class="node">
<title>Node8</title>
<g id="a_Node000008"><a xlink:href="group___t_stack.html#gac84fd2f3c38113a7d9d4cf5123b581f3" target="_top" xlink:title="Získání hodnoty elementu na vrcholu zásobníku.">
<polygon fill="white" stroke="#666666" points="244.62,-58 185.88,-58 185.88,-38 244.62,-38 244.62,-58"/>
<text text-anchor="middle" x="215.25" y="-44.5" font-family="Helvetica,sans-Serif" font-size="10.00">stack_top</text>
</a>
</g>
</g>
<!-- Node1&#45;&gt;Node8 -->
<g id="edge12_Node000001_Node000008" class="edge">
<title>Node1&#45;&gt;Node8</title>
<g id="a_edge12_Node000001_Node000008"><a xlink:title=" ">
<path fill="none" stroke="#63b8ff" d="M97.48,-94.55C119.95,-85.59 152.57,-72.59 177.62,-62.6"/>
<polygon fill="#63b8ff" stroke="#63b8ff" points="178.79,-65.9 186.78,-58.95 176.2,-59.4 178.79,-65.9"/>
</a>
</g>
</g>
<!-- Node3 -->
<g id="Node000003" class="node">
<title>Node3</title>
<g id="a_Node000003"><a xlink:href="_t_stack_8c.html#a842bb6cb1446d6730f9ceece2849f307" target="_top" xlink:title=" ">
<polygon fill="white" stroke="#666666" points="491.5,-115 411,-115 411,-95 491.5,-95 491.5,-115"/>
<text text-anchor="middle" x="451.25" y="-101.5" font-family="Helvetica,sans-Serif" font-size="10.00">stack_invariant</text>
</a>
</g>
</g>
<!-- Node2&#45;&gt;Node3 -->
<g id="edge2_Node000002_Node000003" class="edge">
<title>Node2&#45;&gt;Node3</title>
<g id="a_edge2_Node000002_Node000003"><a xlink:title=" ">
<path fill="none" stroke="#63b8ff" d="M254.47,-202.31C287.92,-202.78 336.97,-199.59 375,-181 401.2,-168.19 423.57,-142.5 436.96,-124.54"/>
<polygon fill="#63b8ff" stroke="#63b8ff" points="439.74,-126.66 442.71,-116.49 434.05,-122.59 439.74,-126.66"/>
</a>
</g>
</g>
<!-- Node4&#45;&gt;Node3 -->
<g id="edge4_Node000004_Node000003" class="edge">
<title>Node4&#45;&gt;Node3</title>
<g id="a_edge4_Node000004_Node000003"><a xlink:title=" ">
<path fill="none" stroke="#63b8ff" d="M354.91,-151.55C372.77,-142.83 398.46,-130.28 418.68,-120.41"/>
<polygon fill="#63b8ff" stroke="#63b8ff" points="420.16,-123.58 427.61,-116.05 417.09,-117.29 420.16,-123.58"/>
</a>
</g>
</g>
<!-- Node5&#45;&gt;Node3 -->
<g id="edge6_Node000005_Node000003" class="edge">
<title>Node5&#45;&gt;Node3</title>
<g id="a_edge6_Node000005_Node000003"><a xlink:title=" ">
<path fill="none" stroke="#63b8ff" d="M375.32,-92.81C383.15,-94.08 391.41,-95.42 399.47,-96.74"/>
<polygon fill="#63b8ff" stroke="#63b8ff" points="398.75,-100.16 409.18,-98.32 399.87,-93.26 398.75,-100.16"/>
</a>
</g>
</g>
<!-- Node6&#45;&gt;Node3 -->
<g id="edge8_Node000006_Node000003" class="edge">
<title>Node6&#45;&gt;Node3</title>
<g id="a_edge8_Node000006_Node000003"><a xlink:title=" ">
<path fill="none" stroke="#63b8ff" d="M245.89,-121.59C284.43,-118.46 352.37,-112.95 399.27,-109.14"/>
<polygon fill="#63b8ff" stroke="#63b8ff" points="399.52,-112.63 409.2,-108.33 398.95,-105.65 399.52,-112.63"/>
</a>
</g>
</g>
<!-- Node6&#45;&gt;Node5 -->
<g id="edge9_Node000006_Node000005" class="edge">
<title>Node6&#45;&gt;Node5</title>
<g id="a_edge9_Node000006_Node000005"><a xlink:title=" ">
<path fill="none" stroke="#63b8ff" d="M246.23,-114.12C259.41,-109.77 275.12,-104.59 289.44,-99.87"/>
<polygon fill="#63b8ff" stroke="#63b8ff" points="290.22,-103.3 298.62,-96.84 288.03,-96.65 290.22,-103.3"/>
</a>
</g>
</g>
<!-- Node7&#45;&gt;Node3 -->
<g id="edge11_Node000007_Node000003" class="edge">
<title>Node7&#45;&gt;Node3</title>
<g id="a_edge11_Node000007_Node000003"><a xlink:title=" ">
<path fill="none" stroke="#63b8ff" d="M353.51,-20.34C360.53,-24.28 368.33,-29.03 375,-34 396.43,-49.97 418.37,-71.36 432.99,-86.48"/>
<polygon fill="#63b8ff" stroke="#63b8ff" points="430.22,-88.64 439.65,-93.47 435.28,-83.81 430.22,-88.64"/>
</a>
</g>
</g>
<!-- Node8&#45;&gt;Node3 -->
<g id="edge13_Node000008_Node000003" class="edge">
<title>Node8&#45;&gt;Node3</title>
<g id="a_edge13_Node000008_Node000003"><a xlink:title=" ">
<path fill="none" stroke="#63b8ff" d="M244.96,-48.45C277.24,-49.64 330.89,-53.68 375,-67 392.08,-72.16 409.96,-81.02 424,-88.89"/>
<polygon fill="#63b8ff" stroke="#63b8ff" points="422.2,-91.89 432.61,-93.88 425.71,-85.84 422.2,-91.89"/>
</a>
</g>
</g>
<!-- Node8&#45;&gt;Node5 -->
<g id="edge14_Node000008_Node000005" class="edge">
<title>Node8&#45;&gt;Node5</title>
<g id="a_edge14_Node000008_Node000005"><a xlink:title=" ">
<path fill="none" stroke="#63b8ff" d="M245.04,-57.49C258.32,-61.87 274.35,-67.16 288.99,-71.98"/>
<polygon fill="#63b8ff" stroke="#63b8ff" points="287.81,-75.28 298.4,-75.09 290,-68.63 287.81,-75.28"/>
</a>
</g>
</g>
</g>
</svg>
