<?xml version="1.0" encoding="UTF-8" standalone="no"?>
<!DOCTYPE svg PUBLIC "-//W3C//DTD SVG 1.1//EN"
 "http://www.w3.org/Graphics/SVG/1.1/DTD/svg11.dtd">
<!-- Generated by graphviz version 11.0.0 (20240428.1522)
 -->
<!-- Title: stack_iterator_is_valid Pages: 1 -->
<svg width="331pt" height="47pt"
 viewBox="0.00 0.00 331.25 47.00" xmlns="http://www.w3.org/2000/svg" xmlns:xlink="http://www.w3.org/1999/xlink">
<g id="graph0" class="graph" transform="scale(1 1) rotate(0) translate(4 43)">
<title>stack_iterator_is_valid</title>
<!-- Node1 -->
<g id="Node000001" class="node">
<title>Node1</title>
<g id="a_Node000001"><a xlink:title="Zjištění platnosti iterátoru.">
<polygon fill="#999999" stroke="#666666" points="323.25,-39 211.25,-39 211.25,-19 323.25,-19 323.25,-39"/>
<text text-anchor="middle" x="267.25" y="-25.5" font-family="Helvetica,sans-Serif" font-size="10.00">stack_iterator_is_valid</text>
</a>
</g>
</g>
<!-- Node2 -->
<g id="Node000002" class="node">
<title>Node2</title>
<g id="a_Node000002"><a xlink:href="group___main_program.html#ga0ddf1224851353fc92bfbff6f499fa97" target="_top" xlink:title=" ">
<polygon fill="white" stroke="#666666" points="37,-39 0,-39 0,-19 37,-19 37,-39"/>
<text text-anchor="middle" x="18.5" y="-25.5" font-family="Helvetica,sans-Serif" font-size="10.00">main</text>
</a>
</g>
</g>
<!-- Node1&#45;&gt;Node2 -->
<g id="edge1_Node000001_Node000002" class="edge">
<title>Node1&#45;&gt;Node2</title>
<g id="a_edge1_Node000001_Node000002"><a xlink:title=" ">
<path fill="none" stroke="#63b8ff" d="M199.5,-29C144.77,-29 71.04,-29 37.48,-29"/>
<polygon fill="#63b8ff" stroke="#63b8ff" points="199.36,-32.5 209.36,-29 199.36,-25.5 199.36,-32.5"/>
</a>
</g>
</g>
<!-- Node3 -->
<g id="Node000003" class="node">
<title>Node3</title>
<g id="a_Node000003"><a xlink:href="group___t_stack_iterator.html#ga1e006b0649df0fac42315afb488f283e" target="_top" xlink:title="Přečtení hodnoty elementu ze zásobníku pomocí iterátoru.">
<polygon fill="white" stroke="#666666" points="175.25,-20 73,-20 73,0 175.25,0 175.25,-20"/>
<text text-anchor="middle" x="124.12" y="-6.5" font-family="Helvetica,sans-Serif" font-size="10.00">stack_iterator_value</text>
</a>
</g>
</g>
<!-- Node1&#45;&gt;Node3 -->
<g id="edge2_Node000001_Node000003" class="edge">
<title>Node1&#45;&gt;Node3</title>
<g id="a_edge2_Node000001_Node000003"><a xlink:title=" ">
<path fill="none" stroke="#63b8ff" d="M199.62,-20.03C191.59,-18.95 183.49,-17.86 175.74,-16.81"/>
<polygon fill="#63b8ff" stroke="#63b8ff" points="199,-23.48 209.38,-21.34 199.94,-16.54 199,-23.48"/>
</a>
</g>
</g>
<!-- Node3&#45;&gt;Node2 -->
<g id="edge3_Node000003_Node000002" class="edge">
<title>Node3&#45;&gt;Node2</title>
<g id="a_edge3_Node000003_Node000002"><a xlink:title=" ">
<path fill="none" stroke="#63b8ff" d="M61.23,-21.35C52.43,-22.96 44.02,-24.5 37.09,-25.77"/>
<polygon fill="#63b8ff" stroke="#63b8ff" points="61.83,-24.8 71.04,-19.55 60.57,-17.91 61.83,-24.8"/>
</a>
</g>
</g>
</g>
</svg>
