<?xml version="1.0" encoding="UTF-8" standalone="no"?>
<!DOCTYPE svg PUBLIC "-//W3C//DTD SVG 1.1//EN"
 "http://www.w3.org/Graphics/SVG/1.1/DTD/svg11.dtd">
<!-- Generated by graphviz version 11.0.0 (20240428.1522)
 -->
<!-- Title: stack_pop Pages: 1 -->
<svg width="307pt" height="47pt"
 viewBox="0.00 0.00 306.50 47.00" xmlns="http://www.w3.org/2000/svg" xmlns:xlink="http://www.w3.org/1999/xlink">
<g id="graph0" class="graph" transform="scale(1 1) rotate(0) translate(4 43)">
<title>stack_pop</title>
<!-- Node1 -->
<g id="Node000001" class="node">
<title>Node1</title>
<g id="a_Node000001"><a xlink:title="Odstranění elementu na vrcholu zásobníku.">
<polygon fill="#999999" stroke="#666666" points="61,-39 0,-39 0,-19 61,-19 61,-39"/>
<text text-anchor="middle" x="30.5" y="-25.5" font-family="Helvetica,sans-Serif" font-size="10.00">stack_pop</text>
</a>
</g>
</g>
<!-- Node2 -->
<g id="Node000002" class="node">
<title>Node2</title>
<g id="a_Node000002"><a xlink:href="_t_stack_8c.html#a842bb6cb1446d6730f9ceece2849f307" target="_top" xlink:title=" ">
<polygon fill="white" stroke="#666666" points="298.5,-39 218,-39 218,-19 298.5,-19 298.5,-39"/>
<text text-anchor="middle" x="258.25" y="-25.5" font-family="Helvetica,sans-Serif" font-size="10.00">stack_invariant</text>
</a>
</g>
</g>
<!-- Node1&#45;&gt;Node2 -->
<g id="edge1_Node000001_Node000002" class="edge">
<title>Node1&#45;&gt;Node2</title>
<g id="a_edge1_Node000001_Node000002"><a xlink:title=" ">
<path fill="none" stroke="#63b8ff" d="M61.48,-29C98.36,-29 161.56,-29 206.16,-29"/>
<polygon fill="#63b8ff" stroke="#63b8ff" points="206.13,-32.5 216.13,-29 206.13,-25.5 206.13,-32.5"/>
</a>
</g>
</g>
<!-- Node3 -->
<g id="Node000003" class="node">
<title>Node3</title>
<g id="a_Node000003"><a xlink:href="group___t_stack.html#gab2a53c66f9bb439a8749c97f9c9d9f2d" target="_top" xlink:title="Zjištění, zda je zásobník prázdný">
<polygon fill="white" stroke="#666666" points="182,-20 97,-20 97,0 182,0 182,-20"/>
<text text-anchor="middle" x="139.5" y="-6.5" font-family="Helvetica,sans-Serif" font-size="10.00">stack_is_empty</text>
</a>
</g>
</g>
<!-- Node1&#45;&gt;Node3 -->
<g id="edge2_Node000001_Node000003" class="edge">
<title>Node1&#45;&gt;Node3</title>
<g id="a_edge2_Node000001_Node000003"><a xlink:title=" ">
<path fill="none" stroke="#63b8ff" d="M61.31,-23.71C68.87,-22.36 77.23,-20.88 85.57,-19.4"/>
<polygon fill="#63b8ff" stroke="#63b8ff" points="86.14,-22.85 95.37,-17.66 84.91,-15.96 86.14,-22.85"/>
</a>
</g>
</g>
<!-- Node3&#45;&gt;Node2 -->
<g id="edge3_Node000003_Node000002" class="edge">
<title>Node3&#45;&gt;Node2</title>
<g id="a_edge3_Node000003_Node000002"><a xlink:title=" ">
<path fill="none" stroke="#63b8ff" d="M182.32,-16.81C190.15,-18.08 198.41,-19.42 206.47,-20.74"/>
<polygon fill="#63b8ff" stroke="#63b8ff" points="205.75,-24.16 216.18,-22.32 206.87,-17.26 205.75,-24.16"/>
</a>
</g>
</g>
</g>
</svg>
