<?xml version="1.0" encoding="UTF-8" standalone="no"?>
<!DOCTYPE svg PUBLIC "-//W3C//DTD SVG 1.1//EN"
 "http://www.w3.org/Graphics/SVG/1.1/DTD/svg11.dtd">
<!-- Generated by graphviz version 11.0.0 (20240428.1522)
 -->
<!-- Title: stack_top Pages: 1 -->
<svg width="304pt" height="47pt"
 viewBox="0.00 0.00 304.25 47.00" xmlns="http://www.w3.org/2000/svg" xmlns:xlink="http://www.w3.org/1999/xlink">
<g id="graph0" class="graph" transform="scale(1 1) rotate(0) translate(4 43)">
<title>stack_top</title>
<!-- Node1 -->
<g id="Node000001" class="node">
<title>Node1</title>
<g id="a_Node000001"><a xlink:title="Získání hodnoty elementu na vrcholu zásobníku.">
<polygon fill="#999999" stroke="#666666" points="58.75,-39 0,-39 0,-19 58.75,-19 58.75,-39"/>
<text text-anchor="middle" x="29.38" y="-25.5" font-family="Helvetica,sans-Serif" font-size="10.00">stack_top</text>
</a>
</g>
</g>
<!-- Node2 -->
<g id="Node000002" class="node">
<title>Node2</title>
<g id="a_Node000002"><a xlink:href="_t_stack_8c.html#a842bb6cb1446d6730f9ceece2849f307" target="_top" xlink:title=" ">
<polygon fill="white" stroke="#666666" points="296.25,-39 215.75,-39 215.75,-19 296.25,-19 296.25,-39"/>
<text text-anchor="middle" x="256" y="-25.5" font-family="Helvetica,sans-Serif" font-size="10.00">stack_invariant</text>
</a>
</g>
</g>
<!-- Node1&#45;&gt;Node2 -->
<g id="edge1_Node000001_Node000002" class="edge">
<title>Node1&#45;&gt;Node2</title>
<g id="a_edge1_Node000001_Node000002"><a xlink:title=" ">
<path fill="none" stroke="#63b8ff" d="M58.82,-29C95.31,-29 159.24,-29 204.18,-29"/>
<polygon fill="#63b8ff" stroke="#63b8ff" points="203.94,-32.5 213.94,-29 203.94,-25.5 203.94,-32.5"/>
</a>
</g>
</g>
<!-- Node3 -->
<g id="Node000003" class="node">
<title>Node3</title>
<g id="a_Node000003"><a xlink:href="group___t_stack.html#gab2a53c66f9bb439a8749c97f9c9d9f2d" target="_top" xlink:title="Zjištění, zda je zásobník prázdný">
<polygon fill="white" stroke="#666666" points="179.75,-20 94.75,-20 94.75,0 179.75,0 179.75,-20"/>
<text text-anchor="middle" x="137.25" y="-6.5" font-family="Helvetica,sans-Serif" font-size="10.00">stack_is_empty</text>
</a>
</g>
</g>
<!-- Node1&#45;&gt;Node3 -->
<g id="edge2_Node000001_Node000003" class="edge">
<title>Node1&#45;&gt;Node3</title>
<g id="a_edge2_Node000001_Node000003"><a xlink:title=" ">
<path fill="none" stroke="#63b8ff" d="M59.03,-23.86C66.52,-22.51 74.84,-21.02 83.17,-19.53"/>
<polygon fill="#63b8ff" stroke="#63b8ff" points="83.74,-22.98 92.96,-17.77 82.5,-16.09 83.74,-22.98"/>
</a>
</g>
</g>
<!-- Node3&#45;&gt;Node2 -->
<g id="edge3_Node000003_Node000002" class="edge">
<title>Node3&#45;&gt;Node2</title>
<g id="a_edge3_Node000003_Node000002"><a xlink:title=" ">
<path fill="none" stroke="#63b8ff" d="M180.07,-16.81C187.9,-18.08 196.16,-19.42 204.22,-20.74"/>
<polygon fill="#63b8ff" stroke="#63b8ff" points="203.5,-24.16 213.93,-22.32 204.62,-17.26 203.5,-24.16"/>
</a>
</g>
</g>
</g>
</svg>
