<?xml version="1.0" encoding="UTF-8" standalone="no"?>
<!DOCTYPE svg PUBLIC "-//W3C//DTD SVG 1.1//EN"
 "http://www.w3.org/Graphics/SVG/1.1/DTD/svg11.dtd">
<!-- Generated by graphviz version 11.0.0 (20240428.1522)
 -->
<!-- Title: main.c Pages: 1 -->
<svg width="267pt" height="140pt"
 viewBox="0.00 0.00 266.88 140.00" xmlns="http://www.w3.org/2000/svg" xmlns:xlink="http://www.w3.org/1999/xlink">
<g id="graph0" class="graph" transform="scale(1 1) rotate(0) translate(4 136)">
<title>main.c</title>
<!-- Node1 -->
<g id="Node000001" class="node">
<title>Node1</title>
<g id="a_Node000001"><a xlink:title="Hlavní program pro testování ADT TStack.">
<polygon fill="#999999" stroke="#666666" points="102.25,-132 57,-132 57,-112 102.25,-112 102.25,-132"/>
<text text-anchor="middle" x="79.62" y="-118.5" font-family="Helvetica,sans-Serif" font-size="10.00">main.c</text>
</a>
</g>
</g>
<!-- Node2 -->
<g id="Node000002" class="node">
<title>Node2</title>
<g id="a_Node000002"><a xlink:title=" ">
<polygon fill="#e0e0e0" stroke="#999999" points="45.25,-20 0,-20 0,0 45.25,0 45.25,-20"/>
<text text-anchor="middle" x="22.62" y="-6.5" font-family="Helvetica,sans-Serif" font-size="10.00">stdio.h</text>
</a>
</g>
</g>
<!-- Node1&#45;&gt;Node2 -->
<g id="edge1_Node000001_Node000002" class="edge">
<title>Node1&#45;&gt;Node2</title>
<g id="a_edge1_Node000001_Node000002"><a xlink:title=" ">
<path fill="none" stroke="#63b8ff" d="M56.75,-114.17C39.03,-107.54 15.7,-95.56 4.62,-76 -3.48,-61.69 2.73,-43.52 9.98,-30.03"/>
<polygon fill="#63b8ff" stroke="#63b8ff" points="12.85,-32.05 14.99,-21.67 6.85,-28.45 12.85,-32.05"/>
</a>
</g>
</g>
<!-- Node3 -->
<g id="Node000003" class="node">
<title>Node3</title>
<g id="a_Node000003"><a xlink:title=" ">
<polygon fill="#e0e0e0" stroke="#999999" points="61.75,-76 13.5,-76 13.5,-56 61.75,-56 61.75,-76"/>
<text text-anchor="middle" x="37.62" y="-62.5" font-family="Helvetica,sans-Serif" font-size="10.00">ctype.h</text>
</a>
</g>
</g>
<!-- Node1&#45;&gt;Node3 -->
<g id="edge2_Node000001_Node000003" class="edge">
<title>Node1&#45;&gt;Node3</title>
<g id="a_edge2_Node000001_Node000003"><a xlink:title=" ">
<path fill="none" stroke="#63b8ff" d="M72.31,-111.59C66.65,-104.32 58.64,-94.02 51.74,-85.15"/>
<polygon fill="#63b8ff" stroke="#63b8ff" points="54.69,-83.24 45.79,-77.49 49.16,-87.54 54.69,-83.24"/>
</a>
</g>
</g>
<!-- Node4 -->
<g id="Node000004" class="node">
<title>Node4</title>
<g id="a_Node000004"><a xlink:href="_t_stack_8h.html" target="_top" xlink:title="Definice typu zásobník (realizace pomocí pole).">
<polygon fill="white" stroke="#666666" points="236.12,-76 181.12,-76 181.12,-56 236.12,-56 236.12,-76"/>
<text text-anchor="middle" x="208.62" y="-62.5" font-family="Helvetica,sans-Serif" font-size="10.00">TStack.h</text>
</a>
</g>
</g>
<!-- Node1&#45;&gt;Node4 -->
<g id="edge3_Node000001_Node000004" class="edge">
<title>Node1&#45;&gt;Node4</title>
<g id="a_edge3_Node000001_Node000004"><a xlink:title=" ">
<path fill="none" stroke="#63b8ff" d="M102.1,-111.59C122.41,-103.09 152.58,-90.46 175.63,-80.81"/>
<polygon fill="#63b8ff" stroke="#63b8ff" points="176.71,-84.15 184.58,-77.06 174.01,-77.7 176.71,-84.15"/>
</a>
</g>
</g>
<!-- Node7 -->
<g id="Node000007" class="node">
<title>Node7</title>
<g id="a_Node000007"><a xlink:href="main__support_8h.html" target="_top" xlink:title="Soubor pro multiplatformní podporu programu v různých OS.">
<polygon fill="white" stroke="#666666" points="163,-76 80.25,-76 80.25,-56 163,-56 163,-76"/>
<text text-anchor="middle" x="121.62" y="-62.5" font-family="Helvetica,sans-Serif" font-size="10.00">main_support.h</text>
</a>
</g>
</g>
<!-- Node1&#45;&gt;Node7 -->
<g id="edge6_Node000001_Node000007" class="edge">
<title>Node1&#45;&gt;Node7</title>
<g id="a_edge6_Node000001_Node000007"><a xlink:title=" ">
<path fill="none" stroke="#63b8ff" d="M86.94,-111.59C92.6,-104.32 100.61,-94.02 107.51,-85.15"/>
<polygon fill="#63b8ff" stroke="#63b8ff" points="110.09,-87.54 113.46,-77.49 104.56,-83.24 110.09,-87.54"/>
</a>
</g>
</g>
<!-- Node5 -->
<g id="Node000005" class="node">
<title>Node5</title>
<g id="a_Node000005"><a xlink:title=" ">
<polygon fill="#e0e0e0" stroke="#999999" points="190.5,-20 134.75,-20 134.75,0 190.5,0 190.5,-20"/>
<text text-anchor="middle" x="162.62" y="-6.5" font-family="Helvetica,sans-Serif" font-size="10.00">stdbool.h</text>
</a>
</g>
</g>
<!-- Node4&#45;&gt;Node5 -->
<g id="edge4_Node000004_Node000005" class="edge">
<title>Node4&#45;&gt;Node5</title>
<g id="a_edge4_Node000004_Node000005"><a xlink:title=" ">
<path fill="none" stroke="#63b8ff" d="M200.61,-55.59C194.35,-48.24 185.45,-37.8 177.84,-28.87"/>
<polygon fill="#63b8ff" stroke="#63b8ff" points="180.68,-26.79 171.53,-21.45 175.35,-31.33 180.68,-26.79"/>
</a>
</g>
</g>
<!-- Node6 -->
<g id="Node000006" class="node">
<title>Node6</title>
<g id="a_Node000006"><a xlink:title=" ">
<polygon fill="#e0e0e0" stroke="#999999" points="258.88,-20 208.38,-20 208.38,0 258.88,0 258.88,-20"/>
<text text-anchor="middle" x="233.62" y="-6.5" font-family="Helvetica,sans-Serif" font-size="10.00">stddef.h</text>
</a>
</g>
</g>
<!-- Node4&#45;&gt;Node6 -->
<g id="edge5_Node000004_Node000006" class="edge">
<title>Node4&#45;&gt;Node6</title>
<g id="a_edge5_Node000004_Node000006"><a xlink:title=" ">
<path fill="none" stroke="#63b8ff" d="M212.98,-55.59C216.17,-48.7 220.61,-39.1 224.56,-30.57"/>
<polygon fill="#63b8ff" stroke="#63b8ff" points="227.66,-32.22 228.68,-21.67 221.31,-29.28 227.66,-32.22"/>
</a>
</g>
</g>
<!-- Node7&#45;&gt;Node2 -->
<g id="edge7_Node000007_Node000002" class="edge">
<title>Node7&#45;&gt;Node2</title>
<g id="a_edge7_Node000007_Node000002"><a xlink:title=" ">
<path fill="none" stroke="#63b8ff" d="M104.38,-55.59C89.28,-47.36 67.1,-35.26 49.64,-25.74"/>
<polygon fill="#63b8ff" stroke="#63b8ff" points="51.79,-22.92 41.33,-21.2 48.44,-29.07 51.79,-22.92"/>
</a>
</g>
</g>
<!-- Node7&#45;&gt;Node5 -->
<g id="edge9_Node000007_Node000005" class="edge">
<title>Node7&#45;&gt;Node5</title>
<g id="a_edge9_Node000007_Node000005"><a xlink:title=" ">
<path fill="none" stroke="#63b8ff" d="M128.77,-55.59C134.23,-48.39 141.95,-38.23 148.63,-29.43"/>
<polygon fill="#63b8ff" stroke="#63b8ff" points="151.39,-31.58 154.65,-21.5 145.82,-27.35 151.39,-31.58"/>
</a>
</g>
</g>
<!-- Node8 -->
<g id="Node000008" class="node">
<title>Node8</title>
<g id="a_Node000008"><a xlink:title=" ">
<polygon fill="#e0e0e0" stroke="#999999" points="117.12,-20 74.12,-20 74.12,0 117.12,0 117.12,-20"/>
<text text-anchor="middle" x="95.62" y="-6.5" font-family="Helvetica,sans-Serif" font-size="10.00">time.h</text>
</a>
</g>
</g>
<!-- Node7&#45;&gt;Node8 -->
<g id="edge8_Node000007_Node000008" class="edge">
<title>Node7&#45;&gt;Node8</title>
<g id="a_edge8_Node000007_Node000008"><a xlink:title=" ">
<path fill="none" stroke="#63b8ff" d="M117.1,-55.59C113.78,-48.7 109.16,-39.1 105.05,-30.57"/>
<polygon fill="#63b8ff" stroke="#63b8ff" points="108.25,-29.15 100.76,-21.66 101.94,-32.19 108.25,-29.15"/>
</a>
</g>
</g>
</g>
</svg>
