<?xml version="1.0" encoding="UTF-8" standalone="no"?>
<!DOCTYPE svg PUBLIC "-//W3C//DTD SVG 1.1//EN"
 "http://www.w3.org/Graphics/SVG/1.1/DTD/svg11.dtd">
<!-- Generated by graphviz version 11.0.0 (20240428.1522)
 -->
<!-- Title: TStackIterator Pages: 1 -->
<svg width="128pt" height="182pt"
 viewBox="0.00 0.00 128.00 182.00" xmlns="http://www.w3.org/2000/svg" xmlns:xlink="http://www.w3.org/1999/xlink">
<g id="graph0" class="graph" transform="scale(1 1) rotate(0) translate(4 178)">
<title>TStackIterator</title>
<!-- Node1 -->
<g id="Node000001" class="node">
<title>Node1</title>
<g id="a_Node000001"><a xlink:title="Definice typu StackIterator.">
<polygon fill="#999999" stroke="none" points="95,-52 25,-52 25,0 95,0 95,-52"/>
<text text-anchor="start" x="29.62" y="-38.5" font-family="Helvetica,sans-Serif" font-size="10.00">TStackIterator</text>
<text text-anchor="start" x="30" y="-22.5" font-family="Helvetica,sans-Serif" font-size="10.00">+</text>
<text text-anchor="start" x="41" y="-22.5" font-family="Helvetica,sans-Serif" font-size="10.00">size_t iPos</text>
<text text-anchor="start" x="58.5" y="-6.5" font-family="Helvetica,sans-Serif" font-size="10.00"> </text>
<polygon fill="#666666" stroke="#666666" points="25,-34 25,-34 95,-34 95,-34 25,-34"/>
<polygon fill="#666666" stroke="#666666" points="25,-18 25,-18 39,-18 39,-18 25,-18"/>
<polygon fill="#666666" stroke="#666666" points="39,-18 39,-18 95,-18 95,-18 39,-18"/>
<polygon fill="none" stroke="#666666" points="25,0 25,-52 95,-52 95,0 25,0"/>
</a>
</g>
</g>
<!-- Node2 -->
<g id="Node000002" class="node">
<title>Node2</title>
<g id="a_Node000002"><a xlink:href="group___t_stack.html#struct_t_stack" target="_top" xlink:title="Definice typu Stack.">
<polygon fill="white" stroke="none" points="120,-174 0,-174 0,-106 120,-106 120,-174"/>
<text text-anchor="start" x="44.62" y="-160.5" font-family="Helvetica,sans-Serif" font-size="10.00">TStack</text>
<text text-anchor="start" x="4" y="-144.5" font-family="Helvetica,sans-Serif" font-size="10.00">+</text>
<text text-anchor="start" x="14" y="-144.5" font-family="Helvetica,sans-Serif" font-size="10.00">size_t iCount</text>
<text text-anchor="start" x="4" y="-128.5" font-family="Helvetica,sans-Serif" font-size="10.00">+</text>
<text text-anchor="start" x="14" y="-128.5" font-family="Helvetica,sans-Serif" font-size="10.00">TStackElement iValues</text>
<text text-anchor="start" x="58.5" y="-112.5" font-family="Helvetica,sans-Serif" font-size="10.00"> </text>
<polygon fill="#666666" stroke="#666666" points="0,-156 0,-156 120,-156 120,-156 0,-156"/>
<polygon fill="#666666" stroke="#666666" points="0,-124 0,-124 12,-124 12,-124 0,-124"/>
<polygon fill="#666666" stroke="#666666" points="12,-124 12,-124 120,-124 120,-124 12,-124"/>
<polygon fill="none" stroke="#666666" points="0,-106 0,-174 120,-174 120,-106 0,-106"/>
</a>
</g>
</g>
<!-- Node2&#45;&gt;Node1 -->
<g id="edge1_Node000001_Node000002" class="edge">
<title>Node2&#45;&gt;Node1</title>
<g id="a_edge1_Node000001_Node000002"><a xlink:title=" ">
<path fill="none" stroke="#63b8ff" d="M60,-106C60,-93.03 60,-78.07 60,-64.68"/>
<polygon fill="none" stroke="#63b8ff" points="60,-64.84 56,-58.84 60,-52.84 64,-58.84 60,-64.84"/>
</a>
</g>
<text text-anchor="start" x="63" y="-75.5" font-family="Helvetica,sans-Serif" font-size="10.00" fill="grey">+iStack</text>
</g>
</g>
</svg>
