<?xml version="1.0" encoding="UTF-8" standalone="no"?>
<!DOCTYPE svg PUBLIC "-//W3C//DTD SVG 1.1//EN"
 "http://www.w3.org/Graphics/SVG/1.1/DTD/svg11.dtd">
<!-- Generated by graphviz version 11.0.0 (20240428.1522)
 -->
<!-- Title: TQueue.c Pages: 1 -->
<svg width="167pt" height="140pt"
 viewBox="0.00 0.00 166.88 140.00" xmlns="http://www.w3.org/2000/svg" xmlns:xlink="http://www.w3.org/1999/xlink">
<g id="graph0" class="graph" transform="scale(1 1) rotate(0) translate(4 136)">
<title>TQueue.c</title>
<!-- Node1 -->
<g id="Node000001" class="node">
<title>Node1</title>
<g id="a_Node000001"><a xlink:title="Implementace API pro typ fronta (realizace pomocí kruhového pole).">
<polygon fill="#999999" stroke="#666666" points="90.62,-132 32.62,-132 32.62,-112 90.62,-112 90.62,-132"/>
<text text-anchor="middle" x="61.62" y="-118.5" font-family="Helvetica,sans-Serif" font-size="10.00">TQueue.c</text>
</a>
</g>
</g>
<!-- Node2 -->
<g id="Node000002" class="node">
<title>Node2</title>
<g id="a_Node000002"><a xlink:title=" ">
<polygon fill="#e0e0e0" stroke="#999999" points="51.25,-76 0,-76 0,-56 51.25,-56 51.25,-76"/>
<text text-anchor="middle" x="25.62" y="-62.5" font-family="Helvetica,sans-Serif" font-size="10.00">assert.h</text>
</a>
</g>
</g>
<!-- Node1&#45;&gt;Node2 -->
<g id="edge1_Node000001_Node000002" class="edge">
<title>Node1&#45;&gt;Node2</title>
<g id="a_edge1_Node000001_Node000002"><a xlink:title=" ">
<path fill="none" stroke="#63b8ff" d="M55.35,-111.59C50.61,-104.47 43.93,-94.45 38.1,-85.72"/>
<polygon fill="#63b8ff" stroke="#63b8ff" points="41.12,-83.94 32.66,-77.56 35.3,-87.82 41.12,-83.94"/>
</a>
</g>
</g>
<!-- Node3 -->
<g id="Node000003" class="node">
<title>Node3</title>
<g id="a_Node000003"><a xlink:href="_t_queue_8h.html" target="_top" xlink:title="Definice typu fronta (realizace pomocí kruhového pole).">
<polygon fill="white" stroke="#666666" points="127.62,-76 69.62,-76 69.62,-56 127.62,-56 127.62,-76"/>
<text text-anchor="middle" x="98.62" y="-62.5" font-family="Helvetica,sans-Serif" font-size="10.00">TQueue.h</text>
</a>
</g>
</g>
<!-- Node1&#45;&gt;Node3 -->
<g id="edge2_Node000001_Node000003" class="edge">
<title>Node1&#45;&gt;Node3</title>
<g id="a_edge2_Node000001_Node000003"><a xlink:title=" ">
<path fill="none" stroke="#63b8ff" d="M68.07,-111.59C72.95,-104.47 79.82,-94.45 85.8,-85.72"/>
<polygon fill="#63b8ff" stroke="#63b8ff" points="88.63,-87.77 91.4,-77.55 82.86,-83.82 88.63,-87.77"/>
</a>
</g>
</g>
<!-- Node4 -->
<g id="Node000004" class="node">
<title>Node4</title>
<g id="a_Node000004"><a xlink:title=" ">
<polygon fill="#e0e0e0" stroke="#999999" points="90.5,-20 34.75,-20 34.75,0 90.5,0 90.5,-20"/>
<text text-anchor="middle" x="62.62" y="-6.5" font-family="Helvetica,sans-Serif" font-size="10.00">stdbool.h</text>
</a>
</g>
</g>
<!-- Node3&#45;&gt;Node4 -->
<g id="edge3_Node000003_Node000004" class="edge">
<title>Node3&#45;&gt;Node4</title>
<g id="a_edge3_Node000003_Node000004"><a xlink:title=" ">
<path fill="none" stroke="#63b8ff" d="M92.35,-55.59C87.61,-48.47 80.93,-38.45 75.1,-29.72"/>
<polygon fill="#63b8ff" stroke="#63b8ff" points="78.12,-27.94 69.66,-21.56 72.3,-31.82 78.12,-27.94"/>
</a>
</g>
</g>
<!-- Node5 -->
<g id="Node000005" class="node">
<title>Node5</title>
<g id="a_Node000005"><a xlink:title=" ">
<polygon fill="#e0e0e0" stroke="#999999" points="158.88,-20 108.38,-20 108.38,0 158.88,0 158.88,-20"/>
<text text-anchor="middle" x="133.62" y="-6.5" font-family="Helvetica,sans-Serif" font-size="10.00">stddef.h</text>
</a>
</g>
</g>
<!-- Node3&#45;&gt;Node5 -->
<g id="edge4_Node000003_Node000005" class="edge">
<title>Node3&#45;&gt;Node5</title>
<g id="a_edge4_Node000003_Node000005"><a xlink:title=" ">
<path fill="none" stroke="#63b8ff" d="M104.72,-55.59C109.34,-48.47 115.83,-38.45 121.49,-29.72"/>
<polygon fill="#63b8ff" stroke="#63b8ff" points="124.27,-31.86 126.78,-21.57 118.4,-28.06 124.27,-31.86"/>
</a>
</g>
</g>
</g>
</svg>
