<?xml version="1.0" encoding="UTF-8" standalone="no"?>
<!DOCTYPE svg PUBLIC "-//W3C//DTD SVG 1.1//EN"
 "http://www.w3.org/Graphics/SVG/1.1/DTD/svg11.dtd">
<!-- Generated by graphviz version 11.0.0 (20240428.1522)
 -->
<!-- Title: queue_pop Pages: 1 -->
<svg width="313pt" height="47pt"
 viewBox="0.00 0.00 313.25 47.00" xmlns="http://www.w3.org/2000/svg" xmlns:xlink="http://www.w3.org/1999/xlink">
<g id="graph0" class="graph" transform="scale(1 1) rotate(0) translate(4 43)">
<title>queue_pop</title>
<!-- Node1 -->
<g id="Node000001" class="node">
<title>Node1</title>
<g id="a_Node000001"><a xlink:title="Odstranění elementu z čela fronty.">
<polygon fill="#999999" stroke="#666666" points="63.25,-39 0,-39 0,-19 63.25,-19 63.25,-39"/>
<text text-anchor="middle" x="31.62" y="-25.5" font-family="Helvetica,sans-Serif" font-size="10.00">queue_pop</text>
</a>
</g>
</g>
<!-- Node2 -->
<g id="Node000002" class="node">
<title>Node2</title>
<g id="a_Node000002"><a xlink:href="_t_queue_8c.html#ae5f315571880047e27e4417d5b3cf110" target="_top" xlink:title=" ">
<polygon fill="white" stroke="#666666" points="305.25,-39 222.5,-39 222.5,-19 305.25,-19 305.25,-39"/>
<text text-anchor="middle" x="263.88" y="-25.5" font-family="Helvetica,sans-Serif" font-size="10.00">queue_invariant</text>
</a>
</g>
</g>
<!-- Node1&#45;&gt;Node2 -->
<g id="edge1_Node000001_Node000002" class="edge">
<title>Node1&#45;&gt;Node2</title>
<g id="a_edge1_Node000001_Node000002"><a xlink:title=" ">
<path fill="none" stroke="#63b8ff" d="M63.68,-29C101.39,-29 165.58,-29 210.88,-29"/>
<polygon fill="#63b8ff" stroke="#63b8ff" points="210.74,-32.5 220.74,-29 210.74,-25.5 210.74,-32.5"/>
</a>
</g>
</g>
<!-- Node3 -->
<g id="Node000003" class="node">
<title>Node3</title>
<g id="a_Node000003"><a xlink:href="group___t_queue.html#gaa9812b8f3c1b0707450f91283f97384c" target="_top" xlink:title="Zjištění, zda je fronta prázdná">
<polygon fill="white" stroke="#666666" points="186.5,-20 99.25,-20 99.25,0 186.5,0 186.5,-20"/>
<text text-anchor="middle" x="142.88" y="-6.5" font-family="Helvetica,sans-Serif" font-size="10.00">queue_is_empty</text>
</a>
</g>
</g>
<!-- Node1&#45;&gt;Node3 -->
<g id="edge2_Node000001_Node000003" class="edge">
<title>Node1&#45;&gt;Node3</title>
<g id="a_edge2_Node000001_Node000003"><a xlink:title=" ">
<path fill="none" stroke="#63b8ff" d="M63.64,-23.61C71.19,-22.29 79.48,-20.85 87.75,-19.41"/>
<polygon fill="#63b8ff" stroke="#63b8ff" points="88.21,-22.89 97.47,-17.72 87.01,-15.99 88.21,-22.89"/>
</a>
</g>
</g>
<!-- Node3&#45;&gt;Node2 -->
<g id="edge3_Node000003_Node000002" class="edge">
<title>Node3&#45;&gt;Node2</title>
<g id="a_edge3_Node000003_Node000002"><a xlink:title=" ">
<path fill="none" stroke="#63b8ff" d="M186.84,-16.86C194.71,-18.12 203,-19.44 211.1,-20.73"/>
<polygon fill="#63b8ff" stroke="#63b8ff" points="210.44,-24.17 220.86,-22.29 211.54,-17.26 210.44,-24.17"/>
</a>
</g>
</g>
</g>
</svg>
