<?xml version="1.0" encoding="UTF-8" standalone="no"?>
<!DOCTYPE svg PUBLIC "-//W3C//DTD SVG 1.1//EN"
 "http://www.w3.org/Graphics/SVG/1.1/DTD/svg11.dtd">
<!-- Generated by graphviz version 11.0.0 (20240428.1522)
 -->
<!-- Title: queue_for_each Pages: 1 -->
<svg width="243pt" height="66pt"
 viewBox="0.00 0.00 243.25 66.00" xmlns="http://www.w3.org/2000/svg" xmlns:xlink="http://www.w3.org/1999/xlink">
<g id="graph0" class="graph" transform="scale(1 1) rotate(0) translate(4 62)">
<title>queue_for_each</title>
<!-- Node1 -->
<g id="Node000001" class="node">
<title>Node1</title>
<g id="a_Node000001"><a xlink:title="Zavolání zvolené funkce na každý element fronty od pozice určené iterátorem až do konce fronty.">
<polygon fill="#999999" stroke="#666666" points="84.25,-39 0,-39 0,-19 84.25,-19 84.25,-39"/>
<text text-anchor="middle" x="42.12" y="-25.5" font-family="Helvetica,sans-Serif" font-size="10.00">queue_for_each</text>
</a>
</g>
</g>
<!-- Node2 -->
<g id="Node000002" class="node">
<title>Node2</title>
<g id="a_Node000002"><a xlink:href="group___t_queue_iterator.html#ga6cbf7aa3d466d2bf585fe988b8bc9593" target="_top" xlink:title="Zjištění platnosti iterátoru.">
<polygon fill="white" stroke="#666666" points="234.88,-58 120.62,-58 120.62,-38 234.88,-38 234.88,-58"/>
<text text-anchor="middle" x="177.75" y="-44.5" font-family="Helvetica,sans-Serif" font-size="10.00">queue_iterator_is_valid</text>
</a>
</g>
</g>
<!-- Node1&#45;&gt;Node2 -->
<g id="edge1_Node000001_Node000002" class="edge">
<title>Node1&#45;&gt;Node2</title>
<g id="a_edge1_Node000001_Node000002"><a xlink:title=" ">
<path fill="none" stroke="#63b8ff" d="M84.67,-34.91C92.47,-36.02 100.8,-37.2 109.15,-38.39"/>
<polygon fill="#63b8ff" stroke="#63b8ff" points="108.61,-41.85 119,-39.79 109.59,-34.92 108.61,-41.85"/>
</a>
</g>
</g>
<!-- Node3 -->
<g id="Node000003" class="node">
<title>Node3</title>
<g id="a_Node000003"><a xlink:href="group___t_queue_iterator.html#gae7e6145571ff51446a96862cda3d6e07" target="_top" xlink:title="Posunutí iterátoru vpřed.">
<polygon fill="white" stroke="#666666" points="235.25,-20 120.25,-20 120.25,0 235.25,0 235.25,-20"/>
<text text-anchor="middle" x="177.75" y="-6.5" font-family="Helvetica,sans-Serif" font-size="10.00">queue_iterator_to_next</text>
</a>
</g>
</g>
<!-- Node1&#45;&gt;Node3 -->
<g id="edge2_Node000001_Node000003" class="edge">
<title>Node1&#45;&gt;Node3</title>
<g id="a_edge2_Node000001_Node000003"><a xlink:title=" ">
<path fill="none" stroke="#63b8ff" d="M84.67,-23.09C92.36,-22 100.58,-20.83 108.81,-19.66"/>
<polygon fill="#63b8ff" stroke="#63b8ff" points="109.11,-23.15 118.51,-18.28 108.12,-16.22 109.11,-23.15"/>
</a>
</g>
</g>
</g>
</svg>
