<?xml version="1.0" encoding="UTF-8" standalone="no"?>
<!DOCTYPE svg PUBLIC "-//W3C//DTD SVG 1.1//EN"
 "http://www.w3.org/Graphics/SVG/1.1/DTD/svg11.dtd">
<!-- Generated by graphviz version 11.0.0 (20240428.1522)
 -->
<!-- Title: queue_iterator_is_valid Pages: 1 -->
<svg width="500pt" height="327pt"
 viewBox="0.00 0.00 500.25 327.11" xmlns="http://www.w3.org/2000/svg" xmlns:xlink="http://www.w3.org/1999/xlink">
<g id="graph0" class="graph" transform="scale(1 1) rotate(0) translate(4 323.11)">
<title>queue_iterator_is_valid</title>
<!-- Node1 -->
<g id="Node000001" class="node">
<title>Node1</title>
<g id="a_Node000001"><a xlink:title="Zjištění platnosti iterátoru.">
<polygon fill="#999999" stroke="#666666" points="492.25,-196 378,-196 378,-176 492.25,-176 492.25,-196"/>
<text text-anchor="middle" x="435.12" y="-182.5" font-family="Helvetica,sans-Serif" font-size="10.00">queue_iterator_is_valid</text>
</a>
</g>
</g>
<!-- Node2 -->
<g id="Node000002" class="node">
<title>Node2</title>
<g id="a_Node000002"><a xlink:href="group___main_program.html#ga0ddf1224851353fc92bfbff6f499fa97" target="_top" xlink:title=" ">
<polygon fill="white" stroke="#666666" points="37,-153 0,-153 0,-133 37,-133 37,-153"/>
<text text-anchor="middle" x="18.5" y="-139.5" font-family="Helvetica,sans-Serif" font-size="10.00">main</text>
</a>
</g>
</g>
<!-- Node1&#45;&gt;Node2 -->
<g id="edge1_Node000001_Node000002" class="edge">
<title>Node1&#45;&gt;Node2</title>
<g id="a_edge1_Node000001_Node000002"><a xlink:title=" ">
<path fill="none" stroke="#63b8ff" d="M413.26,-203.55C354.5,-250.75 184.63,-371.7 73,-293 26,-259.86 20.06,-181.55 19.48,-153.35"/>
<polygon fill="#63b8ff" stroke="#63b8ff" points="415.31,-206.39 420.84,-197.35 410.89,-200.97 415.31,-206.39"/>
</a>
</g>
</g>
<!-- Node3 -->
<g id="Node000003" class="node">
<title>Node3</title>
<g id="a_Node000003"><a xlink:href="group___iterator_algorithms.html#gadccc11c611587469295868641ce95925" target="_top" xlink:title="Vyhledání prvního elementu fronty splňujícího zadaný predikát.">
<polygon fill="white" stroke="#666666" points="173.38,-266 101.12,-266 101.12,-246 173.38,-246 173.38,-266"/>
<text text-anchor="middle" x="137.25" y="-252.5" font-family="Helvetica,sans-Serif" font-size="10.00">queue_find_if</text>
</a>
</g>
</g>
<!-- Node1&#45;&gt;Node3 -->
<g id="edge2_Node000001_Node000003" class="edge">
<title>Node1&#45;&gt;Node3</title>
<g id="a_edge2_Node000001_Node000003"><a xlink:title=" ">
<path fill="none" stroke="#63b8ff" d="M398.94,-200.67C381.97,-207.31 361.17,-214.81 342,-220 283.92,-235.71 214.62,-246.28 173.64,-251.7"/>
<polygon fill="#63b8ff" stroke="#63b8ff" points="400.09,-203.98 408.09,-197.02 397.5,-197.47 400.09,-203.98"/>
</a>
</g>
</g>
<!-- Node4 -->
<g id="Node000004" class="node">
<title>Node4</title>
<g id="a_Node000004"><a xlink:href="group___iterator_algorithms.html#ga299db40016266a1a943c32a3a528ea9b" target="_top" xlink:title="Vyhledání prvního elementu fronty nesplňujícího zadaný predikát.">
<polygon fill="white" stroke="#666666" points="182.75,-210 91.75,-210 91.75,-190 182.75,-190 182.75,-210"/>
<text text-anchor="middle" x="137.25" y="-196.5" font-family="Helvetica,sans-Serif" font-size="10.00">queue_find_if_not</text>
</a>
</g>
</g>
<!-- Node1&#45;&gt;Node4 -->
<g id="edge5_Node000001_Node000004" class="edge">
<title>Node1&#45;&gt;Node4</title>
<g id="a_edge5_Node000001_Node000004"><a xlink:title=" ">
<path fill="none" stroke="#63b8ff" d="M381.63,-198.75C368.75,-201.34 354.94,-203.68 342,-205 287.44,-210.57 224.25,-207.56 182.89,-204.32"/>
<polygon fill="#63b8ff" stroke="#63b8ff" points="382.13,-202.22 391.19,-196.73 380.68,-195.37 382.13,-202.22"/>
</a>
</g>
</g>
<!-- Node5 -->
<g id="Node000005" class="node">
<title>Node5</title>
<g id="a_Node000005"><a xlink:href="group___iterator_algorithms.html#gade8cfe850fd247bfb33b1aa44e13bcff" target="_top" xlink:title="Zavolání zvolené funkce na každý element fronty od pozice určené iterátorem až do konce fronty.">
<polygon fill="white" stroke="#666666" points="331.88,-196 247.62,-196 247.62,-176 331.88,-176 331.88,-196"/>
<text text-anchor="middle" x="289.75" y="-182.5" font-family="Helvetica,sans-Serif" font-size="10.00">queue_for_each</text>
</a>
</g>
</g>
<!-- Node1&#45;&gt;Node5 -->
<g id="edge8_Node000001_Node000005" class="edge">
<title>Node1&#45;&gt;Node5</title>
<g id="a_edge8_Node000001_Node000005"><a xlink:title=" ">
<path fill="none" stroke="#63b8ff" d="M366.68,-186C354.92,-186 343.01,-186 332.21,-186"/>
<polygon fill="#63b8ff" stroke="#63b8ff" points="366.36,-189.5 376.36,-186 366.36,-182.5 366.36,-189.5"/>
</a>
</g>
</g>
<!-- Node6 -->
<g id="Node000006" class="node">
<title>Node6</title>
<g id="a_Node000006"><a xlink:href="group___iterator_algorithms.html#ga93c632584a1d9425fee15fb6b10c3e40" target="_top" xlink:title="Zavolání zvolené funkce na prvních N elementů fronty od pozice určené iterátorem.">
<polygon fill="white" stroke="#666666" points="337.12,-140 242.38,-140 242.38,-120 337.12,-120 337.12,-140"/>
<text text-anchor="middle" x="289.75" y="-126.5" font-family="Helvetica,sans-Serif" font-size="10.00">queue_for_each_n</text>
</a>
</g>
</g>
<!-- Node1&#45;&gt;Node6 -->
<g id="edge10_Node000001_Node000006" class="edge">
<title>Node1&#45;&gt;Node6</title>
<g id="a_edge10_Node000001_Node000006"><a xlink:title=" ">
<path fill="none" stroke="#63b8ff" d="M396.94,-171.48C371.96,-161.72 339.63,-149.09 317.24,-140.35"/>
<polygon fill="#63b8ff" stroke="#63b8ff" points="395.5,-174.67 406.08,-175.05 398.04,-168.15 395.5,-174.67"/>
</a>
</g>
</g>
<!-- Node7 -->
<g id="Node000007" class="node">
<title>Node7</title>
<g id="a_Node000007"><a xlink:href="group___t_queue_iterator.html#ga43c723f0d3c461ff6b340e3a22885c94" target="_top" xlink:title="Zapsání hodnoty elementu do fronty pomocí iterátoru.">
<polygon fill="white" stroke="#666666" points="337.88,-102 241.62,-102 241.62,-70 337.88,-70 337.88,-102"/>
<text text-anchor="start" x="249.62" y="-88.5" font-family="Helvetica,sans-Serif" font-size="10.00">queue_iterator_set</text>
<text text-anchor="middle" x="289.75" y="-76.5" font-family="Helvetica,sans-Serif" font-size="10.00">_value</text>
</a>
</g>
</g>
<!-- Node1&#45;&gt;Node7 -->
<g id="edge12_Node000001_Node000007" class="edge">
<title>Node1&#45;&gt;Node7</title>
<g id="a_edge12_Node000001_Node000007"><a xlink:title=" ">
<path fill="none" stroke="#63b8ff" d="M414.7,-167.95C396.71,-151.81 368.79,-128.12 342,-111 337.33,-108.02 332.25,-105.14 327.16,-102.47"/>
<polygon fill="#63b8ff" stroke="#63b8ff" points="412.27,-170.47 422.02,-174.62 416.98,-165.3 412.27,-170.47"/>
</a>
</g>
</g>
<!-- Node8 -->
<g id="Node000008" class="node">
<title>Node8</title>
<g id="a_Node000008"><a xlink:href="group___t_queue_iterator.html#ga30db60bf663f58b83b1181d5406ec879" target="_top" xlink:title="Přečtení hodnoty elementu z fronty pomocí iterátoru.">
<polygon fill="white" stroke="#666666" points="342,-52 237.5,-52 237.5,-32 342,-32 342,-52"/>
<text text-anchor="middle" x="289.75" y="-38.5" font-family="Helvetica,sans-Serif" font-size="10.00">queue_iterator_value</text>
</a>
</g>
</g>
<!-- Node1&#45;&gt;Node8 -->
<g id="edge14_Node000001_Node000008" class="edge">
<title>Node1&#45;&gt;Node8</title>
<g id="a_edge14_Node000001_Node000008"><a xlink:title=" ">
<path fill="none" stroke="#63b8ff" d="M424.03,-165.68C409.45,-138.28 380.05,-89.65 342,-61 337.53,-57.63 332.39,-54.81 327.14,-52.46"/>
<polygon fill="#63b8ff" stroke="#63b8ff" points="420.8,-167.06 428.5,-174.34 427.02,-163.85 420.8,-167.06"/>
</a>
</g>
</g>
<!-- Node3&#45;&gt;Node2 -->
<g id="edge3_Node000003_Node000002" class="edge">
<title>Node3&#45;&gt;Node2</title>
<g id="a_edge3_Node000003_Node000002"><a xlink:title=" ">
<path fill="none" stroke="#63b8ff" d="M90.28,-246.79C84.09,-244.27 78.11,-241.07 73,-237 44.8,-214.54 28.81,-172.89 22.57,-153.48"/>
<polygon fill="#63b8ff" stroke="#63b8ff" points="88.78,-249.97 99.38,-249.92 91.06,-243.36 88.78,-249.97"/>
</a>
</g>
</g>
<!-- Node3&#45;&gt;Node3 -->
<g id="edge4_Node000003_Node000003" class="edge">
<title>Node3&#45;&gt;Node3</title>
<g id="a_edge4_Node000003_Node000003"><a xlink:title=" ">
<path fill="none" stroke="#63b8ff" d="M158.24,-277.44C155.53,-281.3 148.54,-284 137.25,-284 116.61,-284 110.32,-274.98 118.38,-266.34"/>
<polygon fill="#63b8ff" stroke="#63b8ff" points="161.72,-276.99 156.4,-267.83 154.84,-278.3 161.72,-276.99"/>
</a>
</g>
</g>
<!-- Node4&#45;&gt;Node2 -->
<g id="edge6_Node000004_Node000002" class="edge">
<title>Node4&#45;&gt;Node2</title>
<g id="a_edge6_Node000004_Node000002"><a xlink:title=" ">
<path fill="none" stroke="#63b8ff" d="M94.66,-185.51C87.34,-182.6 79.87,-179.38 73,-176 59.49,-169.35 45,-160.28 34.51,-153.33"/>
<polygon fill="#63b8ff" stroke="#63b8ff" points="93.18,-188.7 103.77,-189.01 95.69,-182.16 93.18,-188.7"/>
</a>
</g>
</g>
<!-- Node4&#45;&gt;Node4 -->
<g id="edge7_Node000004_Node000004" class="edge">
<title>Node4&#45;&gt;Node4</title>
<g id="a_edge7_Node000004_Node000004"><a xlink:title=" ">
<path fill="none" stroke="#63b8ff" d="M158.24,-221.44C155.53,-225.3 148.54,-228 137.25,-228 116.61,-228 110.32,-218.98 118.38,-210.34"/>
<polygon fill="#63b8ff" stroke="#63b8ff" points="161.72,-220.99 156.4,-211.83 154.84,-222.3 161.72,-220.99"/>
</a>
</g>
</g>
<!-- Node5&#45;&gt;Node2 -->
<g id="edge9_Node000005_Node000002" class="edge">
<title>Node5&#45;&gt;Node2</title>
<g id="a_edge9_Node000005_Node000002"><a xlink:title=" ">
<path fill="none" stroke="#63b8ff" d="M235.92,-177.56C174.72,-167.79 77.21,-152.22 37.36,-145.85"/>
<polygon fill="#63b8ff" stroke="#63b8ff" points="235.35,-181.02 245.78,-179.14 236.45,-174.1 235.35,-181.02"/>
</a>
</g>
</g>
<!-- Node6&#45;&gt;Node6 -->
<g id="edge11_Node000006_Node000006" class="edge">
<title>Node6&#45;&gt;Node6</title>
<g id="a_edge11_Node000006_Node000006"><a xlink:title=" ">
<path fill="none" stroke="#63b8ff" d="M315.44,-151.44C312.13,-155.3 303.57,-158 289.75,-158 264.48,-158 256.78,-148.98 266.65,-140.34"/>
<polygon fill="#63b8ff" stroke="#63b8ff" points="318.88,-150.75 313.19,-141.81 312.06,-152.35 318.88,-150.75"/>
</a>
</g>
</g>
<!-- Node7&#45;&gt;Node2 -->
<g id="edge13_Node000007_Node000002" class="edge">
<title>Node7&#45;&gt;Node2</title>
<g id="a_edge13_Node000007_Node000002"><a xlink:title=" ">
<path fill="none" stroke="#63b8ff" d="M230.16,-98.4C168.79,-111.4 76.06,-131.03 37.4,-139.21"/>
<polygon fill="#63b8ff" stroke="#63b8ff" points="230.69,-101.87 239.75,-96.37 229.24,-95.02 230.69,-101.87"/>
</a>
</g>
</g>
<!-- Node8&#45;&gt;Node2 -->
<g id="edge17_Node000008_Node000002" class="edge">
<title>Node8&#45;&gt;Node2</title>
<g id="a_edge17_Node000008_Node000002"><a xlink:title=" ">
<path fill="none" stroke="#63b8ff" d="M242.02,-55.51C228.92,-59.27 214.66,-63.32 201.5,-67 144.49,-82.93 126.04,-75.73 73,-102 56.64,-110.1 40.35,-123.56 30.12,-132.83"/>
<polygon fill="#63b8ff" stroke="#63b8ff" points="242.6,-58.99 251.24,-52.86 240.67,-52.26 242.6,-58.99"/>
</a>
</g>
</g>
<!-- Node9 -->
<g id="Node000009" class="node">
<title>Node9</title>
<g id="a_Node000009"><a xlink:href="group___main_program.html#ga5ec1bf27394ea27ffb0109783ddf69ff" target="_top" xlink:title="Porovnání hodnoty elementu fronty pomocí iterátoru s hodnotou 43.">
<polygon fill="white" stroke="#666666" points="201.5,-58 73,-58 73,-38 201.5,-38 201.5,-58"/>
<text text-anchor="middle" x="137.25" y="-44.5" font-family="Helvetica,sans-Serif" font-size="10.00">is_element_with_value_43</text>
</a>
</g>
</g>
<!-- Node8&#45;&gt;Node9 -->
<g id="edge15_Node000008_Node000009" class="edge">
<title>Node8&#45;&gt;Node9</title>
<g id="a_edge15_Node000008_Node000009"><a xlink:title=" ">
<path fill="none" stroke="#63b8ff" d="M225.92,-44.5C217.98,-44.82 209.86,-45.15 201.9,-45.46"/>
<polygon fill="#63b8ff" stroke="#63b8ff" points="226.01,-48 235.87,-44.11 225.73,-41.01 226.01,-48"/>
</a>
</g>
</g>
<!-- Node10 -->
<g id="Node000010" class="node">
<title>Node10</title>
<g id="a_Node000010"><a xlink:href="group___main_program.html#ga46eef449f9e5694614f26704628baf7d" target="_top" xlink:title="Vytisknutí elementu fronty pomocí iterátoru.">
<polygon fill="white" stroke="#666666" points="174.5,-20 100,-20 100,0 174.5,0 174.5,-20"/>
<text text-anchor="middle" x="137.25" y="-6.5" font-family="Helvetica,sans-Serif" font-size="10.00">print_element</text>
</a>
</g>
</g>
<!-- Node8&#45;&gt;Node10 -->
<g id="edge18_Node000008_Node000010" class="edge">
<title>Node8&#45;&gt;Node10</title>
<g id="a_edge18_Node000008_Node000010"><a xlink:title=" ">
<path fill="none" stroke="#63b8ff" d="M228.36,-29.16C210.21,-25.3 190.85,-21.18 174.75,-17.76"/>
<polygon fill="#63b8ff" stroke="#63b8ff" points="227.48,-32.55 237.99,-31.21 228.94,-25.7 227.48,-32.55"/>
</a>
</g>
</g>
<!-- Node9&#45;&gt;Node2 -->
<g id="edge16_Node000009_Node000002" class="edge">
<title>Node9&#45;&gt;Node2</title>
<g id="a_edge16_Node000009_Node000002"><a xlink:title=" ">
<path fill="none" stroke="#63b8ff" d="M88.01,-62.96C82.71,-65.56 77.58,-68.56 73,-72 50.66,-88.77 33.16,-117.32 24.83,-132.61"/>
<polygon fill="#63b8ff" stroke="#63b8ff" points="89.19,-66.27 96.94,-59.04 86.38,-59.86 89.19,-66.27"/>
</a>
</g>
</g>
<!-- Node10&#45;&gt;Node2 -->
<g id="edge19_Node000010_Node000002" class="edge">
<title>Node10&#45;&gt;Node2</title>
<g id="a_edge19_Node000010_Node000002"><a xlink:title=" ">
<path fill="none" stroke="#63b8ff" d="M89.13,-19.21C83.29,-21.73 77.72,-24.93 73,-29 40.06,-57.42 26,-110.54 21.38,-132.79"/>
<polygon fill="#63b8ff" stroke="#63b8ff" points="90.16,-22.56 98.4,-15.9 87.8,-15.97 90.16,-22.56"/>
</a>
</g>
</g>
</g>
</svg>
