<?xml version="1.0" encoding="UTF-8" standalone="no"?>
<!DOCTYPE svg PUBLIC "-//W3C//DTD SVG 1.1//EN"
 "http://www.w3.org/Graphics/SVG/1.1/DTD/svg11.dtd">
<!-- Generated by graphviz version 11.0.0 (20240428.1522)
 -->
<!-- Title: queue_find_if_not Pages: 1 -->
<svg width="250pt" height="66pt"
 viewBox="0.00 0.00 250.00 66.00" xmlns="http://www.w3.org/2000/svg" xmlns:xlink="http://www.w3.org/1999/xlink">
<g id="graph0" class="graph" transform="scale(1 1) rotate(0) translate(4 62)">
<title>queue_find_if_not</title>
<!-- Node1 -->
<g id="Node000001" class="node">
<title>Node1</title>
<g id="a_Node000001"><a xlink:title="Vyhledání prvního elementu fronty nesplňujícího zadaný predikát.">
<polygon fill="#999999" stroke="#666666" points="91,-39 0,-39 0,-19 91,-19 91,-39"/>
<text text-anchor="middle" x="45.5" y="-25.5" font-family="Helvetica,sans-Serif" font-size="10.00">queue_find_if_not</text>
</a>
</g>
</g>
<!-- Node1&#45;&gt;Node1 -->
<g id="edge1_Node000001_Node000001" class="edge">
<title>Node1&#45;&gt;Node1</title>
<g id="a_edge1_Node000001_Node000001"><a xlink:title=" ">
<path fill="none" stroke="#63b8ff" d="M23.41,-39.34C13.98,-47.98 21.34,-57 45.5,-57 58.71,-57 66.9,-54.3 70.07,-50.44"/>
<polygon fill="#63b8ff" stroke="#63b8ff" points="73.51,-49.81 67.92,-40.82 66.68,-51.34 73.51,-49.81"/>
</a>
</g>
</g>
<!-- Node2 -->
<g id="Node000002" class="node">
<title>Node2</title>
<g id="a_Node000002"><a xlink:href="group___t_queue_iterator.html#ga6cbf7aa3d466d2bf585fe988b8bc9593" target="_top" xlink:title="Zjištění platnosti iterátoru.">
<polygon fill="white" stroke="#666666" points="241.62,-58 127.38,-58 127.38,-38 241.62,-38 241.62,-58"/>
<text text-anchor="middle" x="184.5" y="-44.5" font-family="Helvetica,sans-Serif" font-size="10.00">queue_iterator_is_valid</text>
</a>
</g>
</g>
<!-- Node1&#45;&gt;Node2 -->
<g id="edge2_Node000001_Node000002" class="edge">
<title>Node1&#45;&gt;Node2</title>
<g id="a_edge2_Node000001_Node000002"><a xlink:title=" ">
<path fill="none" stroke="#63b8ff" d="M91.36,-35.22C99.19,-36.31 107.49,-37.46 115.78,-38.61"/>
<polygon fill="#63b8ff" stroke="#63b8ff" points="115.14,-42.05 125.53,-39.96 116.11,-35.12 115.14,-42.05"/>
</a>
</g>
</g>
<!-- Node3 -->
<g id="Node000003" class="node">
<title>Node3</title>
<g id="a_Node000003"><a xlink:href="group___t_queue_iterator.html#gae7e6145571ff51446a96862cda3d6e07" target="_top" xlink:title="Posunutí iterátoru vpřed.">
<polygon fill="white" stroke="#666666" points="242,-20 127,-20 127,0 242,0 242,-20"/>
<text text-anchor="middle" x="184.5" y="-6.5" font-family="Helvetica,sans-Serif" font-size="10.00">queue_iterator_to_next</text>
</a>
</g>
</g>
<!-- Node1&#45;&gt;Node3 -->
<g id="edge3_Node000001_Node000003" class="edge">
<title>Node1&#45;&gt;Node3</title>
<g id="a_edge3_Node000001_Node000003"><a xlink:title=" ">
<path fill="none" stroke="#63b8ff" d="M91.36,-22.78C99,-21.72 107.08,-20.6 115.16,-19.48"/>
<polygon fill="#63b8ff" stroke="#63b8ff" points="115.62,-22.95 125.04,-18.11 114.66,-16.01 115.62,-22.95"/>
</a>
</g>
</g>
</g>
</svg>
