<?xml version="1.0" encoding="UTF-8" standalone="no"?>
<!DOCTYPE svg PUBLIC "-//W3C//DTD SVG 1.1//EN"
 "http://www.w3.org/Graphics/SVG/1.1/DTD/svg11.dtd">
<!-- Generated by graphviz version 11.0.0 (20240428.1522)
 -->
<!-- Title: queue_is_empty Pages: 1 -->
<svg width="273pt" height="119pt"
 viewBox="0.00 0.00 272.75 119.17" xmlns="http://www.w3.org/2000/svg" xmlns:xlink="http://www.w3.org/1999/xlink">
<g id="graph0" class="graph" transform="scale(1 1) rotate(0) translate(4 115.17)">
<title>queue_is_empty</title>
<!-- Node1 -->
<g id="Node000001" class="node">
<title>Node1</title>
<g id="a_Node000001"><a xlink:title="Zjištění, zda je fronta prázdná">
<polygon fill="#999999" stroke="#666666" points="264.75,-77 177.5,-77 177.5,-57 264.75,-57 264.75,-77"/>
<text text-anchor="middle" x="221.12" y="-63.5" font-family="Helvetica,sans-Serif" font-size="10.00">queue_is_empty</text>
</a>
</g>
</g>
<!-- Node2 -->
<g id="Node000002" class="node">
<title>Node2</title>
<g id="a_Node000002"><a xlink:href="group___main_program.html#ga0ddf1224851353fc92bfbff6f499fa97" target="_top" xlink:title=" ">
<polygon fill="white" stroke="#666666" points="37,-77 0,-77 0,-57 37,-57 37,-77"/>
<text text-anchor="middle" x="18.5" y="-63.5" font-family="Helvetica,sans-Serif" font-size="10.00">main</text>
</a>
</g>
</g>
<!-- Node1&#45;&gt;Node2 -->
<g id="edge1_Node000001_Node000002" class="edge">
<title>Node1&#45;&gt;Node2</title>
<g id="a_edge1_Node000001_Node000002"><a xlink:title=" ">
<path fill="none" stroke="#63b8ff" d="M194.13,-83.24C179.31,-91.53 160.05,-100.75 141.5,-105 111.82,-111.8 102,-114.25 73,-105 56.07,-99.6 39.91,-86.67 29.86,-77.39"/>
<polygon fill="#63b8ff" stroke="#63b8ff" points="195.88,-86.27 202.75,-78.21 192.35,-80.23 195.88,-86.27"/>
</a>
</g>
</g>
<!-- Node3 -->
<g id="Node000003" class="node">
<title>Node3</title>
<g id="a_Node000003"><a xlink:href="group___t_queue.html#gabdf5c3e56234ff344f49c206632f7fbb" target="_top" xlink:title="Získání hodnoty elementu z konce fronty.">
<polygon fill="white" stroke="#666666" points="141.5,-96 73,-96 73,-76 141.5,-76 141.5,-96"/>
<text text-anchor="middle" x="107.25" y="-82.5" font-family="Helvetica,sans-Serif" font-size="10.00">queue_back</text>
</a>
</g>
</g>
<!-- Node1&#45;&gt;Node3 -->
<g id="edge2_Node000001_Node000003" class="edge">
<title>Node1&#45;&gt;Node3</title>
<g id="a_edge2_Node000001_Node000003"><a xlink:title=" ">
<path fill="none" stroke="#63b8ff" d="M166.05,-76.18C157.8,-77.58 149.5,-78.99 141.86,-80.29"/>
<polygon fill="#63b8ff" stroke="#63b8ff" points="166.43,-79.67 175.7,-74.54 165.25,-72.77 166.43,-79.67"/>
</a>
</g>
</g>
<!-- Node4 -->
<g id="Node000004" class="node">
<title>Node4</title>
<g id="a_Node000004"><a xlink:href="group___t_queue.html#gadf7ec766208c056364fba19f6d6b5d3f" target="_top" xlink:title="Získání hodnoty elementu z čela fronty.">
<polygon fill="white" stroke="#666666" points="140.38,-58 74.12,-58 74.12,-38 140.38,-38 140.38,-58"/>
<text text-anchor="middle" x="107.25" y="-44.5" font-family="Helvetica,sans-Serif" font-size="10.00">queue_front</text>
</a>
</g>
</g>
<!-- Node1&#45;&gt;Node4 -->
<g id="edge4_Node000001_Node000004" class="edge">
<title>Node1&#45;&gt;Node4</title>
<g id="a_edge4_Node000001_Node000004"><a xlink:title=" ">
<path fill="none" stroke="#63b8ff" d="M165.98,-57.8C157.38,-56.34 148.72,-54.87 140.82,-53.53"/>
<polygon fill="#63b8ff" stroke="#63b8ff" points="165.25,-61.23 175.7,-59.46 166.43,-54.33 165.25,-61.23"/>
</a>
</g>
</g>
<!-- Node5 -->
<g id="Node000005" class="node">
<title>Node5</title>
<g id="a_Node000005"><a xlink:href="group___t_queue.html#ga100499d1e5ff881cd97b03484f6e744b" target="_top" xlink:title="Odstranění elementu z čela fronty.">
<polygon fill="white" stroke="#666666" points="138.88,-20 75.62,-20 75.62,0 138.88,0 138.88,-20"/>
<text text-anchor="middle" x="107.25" y="-6.5" font-family="Helvetica,sans-Serif" font-size="10.00">queue_pop</text>
</a>
</g>
</g>
<!-- Node1&#45;&gt;Node5 -->
<g id="edge6_Node000001_Node000005" class="edge">
<title>Node1&#45;&gt;Node5</title>
<g id="a_edge6_Node000001_Node000005"><a xlink:title=" ">
<path fill="none" stroke="#63b8ff" d="M189.46,-51.38C170.1,-41.51 145.63,-29.05 128.64,-20.39"/>
<polygon fill="#63b8ff" stroke="#63b8ff" points="187.76,-54.44 198.26,-55.86 190.94,-48.2 187.76,-54.44"/>
</a>
</g>
</g>
<!-- Node3&#45;&gt;Node2 -->
<g id="edge3_Node000003_Node000002" class="edge">
<title>Node3&#45;&gt;Node2</title>
<g id="a_edge3_Node000003_Node000002"><a xlink:title=" ">
<path fill="none" stroke="#63b8ff" d="M61.87,-76.28C53.06,-74.35 44.3,-72.43 37.06,-70.84"/>
<polygon fill="#63b8ff" stroke="#63b8ff" points="60.96,-79.66 71.48,-78.38 62.46,-72.83 60.96,-79.66"/>
</a>
</g>
</g>
<!-- Node4&#45;&gt;Node2 -->
<g id="edge5_Node000004_Node000002" class="edge">
<title>Node4&#45;&gt;Node2</title>
<g id="a_edge5_Node000004_Node000002"><a xlink:title=" ">
<path fill="none" stroke="#63b8ff" d="M62.74,-57.53C53.81,-59.49 44.88,-61.44 37.47,-63.06"/>
<polygon fill="#63b8ff" stroke="#63b8ff" points="63.45,-60.96 72.47,-55.4 61.95,-54.12 63.45,-60.96"/>
</a>
</g>
</g>
<!-- Node5&#45;&gt;Node2 -->
<g id="edge7_Node000005_Node000002" class="edge">
<title>Node5&#45;&gt;Node2</title>
<g id="a_edge7_Node000005_Node000002"><a xlink:title=" ">
<path fill="none" stroke="#63b8ff" d="M77.87,-25.96C76.21,-26.97 74.58,-27.99 73,-29 59.17,-37.83 43.97,-48.75 33.32,-56.61"/>
<polygon fill="#63b8ff" stroke="#63b8ff" points="79.28,-29.2 86.11,-21.1 75.72,-23.17 79.28,-29.2"/>
</a>
</g>
</g>
</g>
</svg>
