<?xml version="1.0" encoding="UTF-8" standalone="no"?>
<!DOCTYPE svg PUBLIC "-//W3C//DTD SVG 1.1//EN"
 "http://www.w3.org/Graphics/SVG/1.1/DTD/svg11.dtd">
<!-- Generated by graphviz version 11.0.0 (20240428.1522)
 -->
<!-- Title: queue_iterator_value Pages: 1 -->
<svg width="350pt" height="104pt"
 viewBox="0.00 0.00 350.00 104.00" xmlns="http://www.w3.org/2000/svg" xmlns:xlink="http://www.w3.org/1999/xlink">
<g id="graph0" class="graph" transform="scale(1 1) rotate(0) translate(4 100)">
<title>queue_iterator_value</title>
<!-- Node1 -->
<g id="Node000001" class="node">
<title>Node1</title>
<g id="a_Node000001"><a xlink:title="Přečtení hodnoty elementu z fronty pomocí iterátoru.">
<polygon fill="#999999" stroke="#666666" points="342,-58 237.5,-58 237.5,-38 342,-38 342,-58"/>
<text text-anchor="middle" x="289.75" y="-44.5" font-family="Helvetica,sans-Serif" font-size="10.00">queue_iterator_value</text>
</a>
</g>
</g>
<!-- Node2 -->
<g id="Node000002" class="node">
<title>Node2</title>
<g id="a_Node000002"><a xlink:href="group___main_program.html#ga5ec1bf27394ea27ffb0109783ddf69ff" target="_top" xlink:title="Porovnání hodnoty elementu fronty pomocí iterátoru s hodnotou 43.">
<polygon fill="white" stroke="#666666" points="201.5,-96 73,-96 73,-76 201.5,-76 201.5,-96"/>
<text text-anchor="middle" x="137.25" y="-82.5" font-family="Helvetica,sans-Serif" font-size="10.00">is_element_with_value_43</text>
</a>
</g>
</g>
<!-- Node1&#45;&gt;Node2 -->
<g id="edge1_Node000001_Node000002" class="edge">
<title>Node1&#45;&gt;Node2</title>
<g id="a_edge1_Node000001_Node000002"><a xlink:title=" ">
<path fill="none" stroke="#63b8ff" d="M236.28,-61.25C217.73,-65.93 197.14,-71.13 179.64,-75.55"/>
<polygon fill="#63b8ff" stroke="#63b8ff" points="236.92,-64.7 245.76,-58.85 235.21,-57.91 236.92,-64.7"/>
</a>
</g>
</g>
<!-- Node3 -->
<g id="Node000003" class="node">
<title>Node3</title>
<g id="a_Node000003"><a xlink:href="group___main_program.html#ga0ddf1224851353fc92bfbff6f499fa97" target="_top" xlink:title=" ">
<polygon fill="white" stroke="#666666" points="37,-58 0,-58 0,-38 37,-38 37,-58"/>
<text text-anchor="middle" x="18.5" y="-44.5" font-family="Helvetica,sans-Serif" font-size="10.00">main</text>
</a>
</g>
</g>
<!-- Node1&#45;&gt;Node3 -->
<g id="edge3_Node000001_Node000003" class="edge">
<title>Node1&#45;&gt;Node3</title>
<g id="a_edge3_Node000001_Node000003"><a xlink:title=" ">
<path fill="none" stroke="#63b8ff" d="M225.67,-48C164.36,-48 75.15,-48 37.42,-48"/>
<polygon fill="#63b8ff" stroke="#63b8ff" points="225.64,-51.5 235.64,-48 225.64,-44.5 225.64,-51.5"/>
</a>
</g>
</g>
<!-- Node4 -->
<g id="Node000004" class="node">
<title>Node4</title>
<g id="a_Node000004"><a xlink:href="group___main_program.html#ga46eef449f9e5694614f26704628baf7d" target="_top" xlink:title="Vytisknutí elementu fronty pomocí iterátoru.">
<polygon fill="white" stroke="#666666" points="174.5,-20 100,-20 100,0 174.5,0 174.5,-20"/>
<text text-anchor="middle" x="137.25" y="-6.5" font-family="Helvetica,sans-Serif" font-size="10.00">print_element</text>
</a>
</g>
</g>
<!-- Node1&#45;&gt;Node4 -->
<g id="edge4_Node000001_Node000004" class="edge">
<title>Node1&#45;&gt;Node4</title>
<g id="a_edge4_Node000001_Node000004"><a xlink:title=" ">
<path fill="none" stroke="#63b8ff" d="M236.25,-34.74C215.95,-29.62 193.23,-23.88 174.77,-19.22"/>
<polygon fill="#63b8ff" stroke="#63b8ff" points="235.21,-38.09 245.76,-37.15 236.92,-31.3 235.21,-38.09"/>
</a>
</g>
</g>
<!-- Node2&#45;&gt;Node3 -->
<g id="edge2_Node000002_Node000003" class="edge">
<title>Node2&#45;&gt;Node3</title>
<g id="a_edge2_Node000002_Node000003"><a xlink:title=" ">
<path fill="none" stroke="#63b8ff" d="M93.33,-72.03C74.04,-65.75 52.33,-58.69 37.47,-53.85"/>
<polygon fill="#63b8ff" stroke="#63b8ff" points="92.01,-75.28 102.6,-75.05 94.17,-68.62 92.01,-75.28"/>
</a>
</g>
</g>
<!-- Node4&#45;&gt;Node3 -->
<g id="edge5_Node000004_Node000003" class="edge">
<title>Node4&#45;&gt;Node3</title>
<g id="a_edge5_Node000004_Node000003"><a xlink:title=" ">
<path fill="none" stroke="#63b8ff" d="M93.33,-23.97C74.04,-30.25 52.33,-37.31 37.47,-42.15"/>
<polygon fill="#63b8ff" stroke="#63b8ff" points="94.17,-27.38 102.6,-20.95 92.01,-20.72 94.17,-27.38"/>
</a>
</g>
</g>
</g>
</svg>
