<?xml version="1.0" encoding="UTF-8" standalone="no"?>
<!DOCTYPE svg PUBLIC "-//W3C//DTD SVG 1.1//EN"
 "http://www.w3.org/Graphics/SVG/1.1/DTD/svg11.dtd">
<!-- Generated by graphviz version 11.0.0 (20240428.1522)
 -->
<!-- Title: print_element Pages: 1 -->
<svg width="373pt" height="28pt"
 viewBox="0.00 0.00 373.25 28.00" xmlns="http://www.w3.org/2000/svg" xmlns:xlink="http://www.w3.org/1999/xlink">
<g id="graph0" class="graph" transform="scale(1 1) rotate(0) translate(4 24)">
<title>print_element</title>
<!-- Node1 -->
<g id="Node000001" class="node">
<title>Node1</title>
<g id="a_Node000001"><a xlink:title="Vytisknutí elementu fronty pomocí iterátoru.">
<polygon fill="#999999" stroke="#666666" points="74.5,-20 0,-20 0,0 74.5,0 74.5,-20"/>
<text text-anchor="middle" x="37.25" y="-6.5" font-family="Helvetica,sans-Serif" font-size="10.00">print_element</text>
</a>
</g>
</g>
<!-- Node2 -->
<g id="Node000002" class="node">
<title>Node2</title>
<g id="a_Node000002"><a xlink:href="group___t_queue_iterator.html#ga30db60bf663f58b83b1181d5406ec879" target="_top" xlink:title="Přečtení hodnoty elementu z fronty pomocí iterátoru.">
<polygon fill="white" stroke="#666666" points="215,-20 110.5,-20 110.5,0 215,0 215,-20"/>
<text text-anchor="middle" x="162.75" y="-6.5" font-family="Helvetica,sans-Serif" font-size="10.00">queue_iterator_value</text>
</a>
</g>
</g>
<!-- Node1&#45;&gt;Node2 -->
<g id="edge1_Node000001_Node000002" class="edge">
<title>Node1&#45;&gt;Node2</title>
<g id="a_edge1_Node000001_Node000002"><a xlink:title=" ">
<path fill="none" stroke="#63b8ff" d="M74.97,-10C82.51,-10 90.65,-10 98.81,-10"/>
<polygon fill="#63b8ff" stroke="#63b8ff" points="98.8,-13.5 108.8,-10 98.8,-6.5 98.8,-13.5"/>
</a>
</g>
</g>
<!-- Node3 -->
<g id="Node000003" class="node">
<title>Node3</title>
<g id="a_Node000003"><a xlink:href="group___t_queue_iterator.html#ga6cbf7aa3d466d2bf585fe988b8bc9593" target="_top" xlink:title="Zjištění platnosti iterátoru.">
<polygon fill="white" stroke="#666666" points="365.25,-20 251,-20 251,0 365.25,0 365.25,-20"/>
<text text-anchor="middle" x="308.12" y="-6.5" font-family="Helvetica,sans-Serif" font-size="10.00">queue_iterator_is_valid</text>
</a>
</g>
</g>
<!-- Node2&#45;&gt;Node3 -->
<g id="edge2_Node000002_Node000003" class="edge">
<title>Node2&#45;&gt;Node3</title>
<g id="a_edge2_Node000002_Node000003"><a xlink:title=" ">
<path fill="none" stroke="#63b8ff" d="M215.11,-10C222.97,-10 231.19,-10 239.34,-10"/>
<polygon fill="#63b8ff" stroke="#63b8ff" points="239.27,-13.5 249.27,-10 239.27,-6.5 239.27,-13.5"/>
</a>
</g>
</g>
</g>
</svg>
