<?xml version="1.0" encoding="UTF-8" standalone="no"?>
<!DOCTYPE svg PUBLIC "-//W3C//DTD SVG 1.1//EN"
 "http://www.w3.org/Graphics/SVG/1.1/DTD/svg11.dtd">
<!-- Generated by graphviz version 11.0.0 (20240428.1522)
 -->
<!-- Title: queue_find_if_not Pages: 1 -->
<svg width="172pt" height="46pt"
 viewBox="0.00 0.00 172.00 46.00" xmlns="http://www.w3.org/2000/svg" xmlns:xlink="http://www.w3.org/1999/xlink">
<g id="graph0" class="graph" transform="scale(1 1) rotate(0) translate(4 42)">
<title>queue_find_if_not</title>
<!-- Node1 -->
<g id="Node000001" class="node">
<title>Node1</title>
<g id="a_Node000001"><a xlink:title="Vyhledání prvního elementu fronty nesplňujícího zadaný predikát.">
<polygon fill="#999999" stroke="#666666" points="164,-20 73,-20 73,0 164,0 164,-20"/>
<text text-anchor="middle" x="118.5" y="-6.5" font-family="Helvetica,sans-Serif" font-size="10.00">queue_find_if_not</text>
</a>
</g>
</g>
<!-- Node1&#45;&gt;Node1 -->
<g id="edge2_Node000001_Node000001" class="edge">
<title>Node1&#45;&gt;Node1</title>
<g id="a_edge2_Node000001_Node000001"><a xlink:title=" ">
<path fill="none" stroke="#63b8ff" d="M136.17,-31.44C133.9,-35.3 128.01,-38 118.5,-38 101.12,-38 95.82,-28.98 102.61,-20.34"/>
<polygon fill="#63b8ff" stroke="#63b8ff" points="139.67,-31.15 134.63,-21.83 132.76,-32.26 139.67,-31.15"/>
</a>
</g>
</g>
<!-- Node2 -->
<g id="Node000002" class="node">
<title>Node2</title>
<g id="a_Node000002"><a xlink:href="group___main_program.html#ga0ddf1224851353fc92bfbff6f499fa97" target="_top" xlink:title=" ">
<polygon fill="white" stroke="#666666" points="37,-20 0,-20 0,0 37,0 37,-20"/>
<text text-anchor="middle" x="18.5" y="-6.5" font-family="Helvetica,sans-Serif" font-size="10.00">main</text>
</a>
</g>
</g>
<!-- Node1&#45;&gt;Node2 -->
<g id="edge1_Node000001_Node000002" class="edge">
<title>Node1&#45;&gt;Node2</title>
<g id="a_edge1_Node000001_Node000002"><a xlink:title=" ">
<path fill="none" stroke="#63b8ff" d="M61.1,-10C52.49,-10 44.19,-10 37.3,-10"/>
<polygon fill="#63b8ff" stroke="#63b8ff" points="61,-13.5 71,-10 61,-6.5 61,-13.5"/>
</a>
</g>
</g>
</g>
</svg>
