<?xml version="1.0" encoding="UTF-8" standalone="no"?>
<!DOCTYPE svg PUBLIC "-//W3C//DTD SVG 1.1//EN"
 "http://www.w3.org/Graphics/SVG/1.1/DTD/svg11.dtd">
<!-- Generated by graphviz version 11.0.0 (20240428.1522)
 -->
<!-- Title: queue_iterator_begin Pages: 1 -->
<svg width="233pt" height="46pt"
 viewBox="0.00 0.00 232.75 46.00" xmlns="http://www.w3.org/2000/svg" xmlns:xlink="http://www.w3.org/1999/xlink">
<g id="graph0" class="graph" transform="scale(1 1) rotate(0) translate(4 42)">
<title>queue_iterator_begin</title>
<!-- Node1 -->
<g id="Node000001" class="node">
<title>Node1</title>
<g id="a_Node000001"><a xlink:title="Vytvoření nového iterátoru ukazujícího na čelo fronty.">
<polygon fill="#999999" stroke="#666666" points="106,-20 0,-20 0,0 106,0 106,-20"/>
<text text-anchor="middle" x="53" y="-6.5" font-family="Helvetica,sans-Serif" font-size="10.00">queue_iterator_begin</text>
</a>
</g>
</g>
<!-- Node1&#45;&gt;Node1 -->
<g id="edge2_Node000001_Node000001" class="edge">
<title>Node1&#45;&gt;Node1</title>
<g id="a_edge2_Node000001_Node000001"><a xlink:title=" ">
<path fill="none" stroke="#63b8ff" d="M32.28,-20.34C23.43,-28.98 30.34,-38 53,-38 65.39,-38 73.07,-35.3 76.04,-31.44"/>
<polygon fill="#63b8ff" stroke="#63b8ff" points="79.5,-30.89 74.03,-21.82 72.65,-32.33 79.5,-30.89"/>
</a>
</g>
</g>
<!-- Node2 -->
<g id="Node000002" class="node">
<title>Node2</title>
<g id="a_Node000002"><a xlink:href="_t_queue_8c.html#ae5f315571880047e27e4417d5b3cf110" target="_top" xlink:title=" ">
<polygon fill="white" stroke="#666666" points="224.75,-20 142,-20 142,0 224.75,0 224.75,-20"/>
<text text-anchor="middle" x="183.38" y="-6.5" font-family="Helvetica,sans-Serif" font-size="10.00">queue_invariant</text>
</a>
</g>
</g>
<!-- Node1&#45;&gt;Node2 -->
<g id="edge1_Node000001_Node000002" class="edge">
<title>Node1&#45;&gt;Node2</title>
<g id="a_edge1_Node000001_Node000002"><a xlink:title=" ">
<path fill="none" stroke="#63b8ff" d="M106.22,-10C114.14,-10 122.33,-10 130.25,-10"/>
<polygon fill="#63b8ff" stroke="#63b8ff" points="130.11,-13.5 140.11,-10 130.11,-6.5 130.11,-13.5"/>
</a>
</g>
</g>
</g>
</svg>
