<?xml version="1.0" encoding="UTF-8" standalone="no"?>
<!DOCTYPE svg PUBLIC "-//W3C//DTD SVG 1.1//EN"
 "http://www.w3.org/Graphics/SVG/1.1/DTD/svg11.dtd">
<!-- Generated by graphviz version 11.0.0 (20240428.1522)
 -->
<!-- Title: main.c Pages: 1 -->
<svg width="258pt" height="140pt"
 viewBox="0.00 0.00 257.88 140.00" xmlns="http://www.w3.org/2000/svg" xmlns:xlink="http://www.w3.org/1999/xlink">
<g id="graph0" class="graph" transform="scale(1 1) rotate(0) translate(4 136)">
<title>main.c</title>
<!-- Node1 -->
<g id="Node000001" class="node">
<title>Node1</title>
<g id="a_Node000001"><a xlink:title="Hlavní program pro testování ADT TQueue.">
<polygon fill="#999999" stroke="#666666" points="111.25,-132 66,-132 66,-112 111.25,-112 111.25,-132"/>
<text text-anchor="middle" x="88.62" y="-118.5" font-family="Helvetica,sans-Serif" font-size="10.00">main.c</text>
</a>
</g>
</g>
<!-- Node2 -->
<g id="Node000002" class="node">
<title>Node2</title>
<g id="a_Node000002"><a xlink:title=" ">
<polygon fill="#e0e0e0" stroke="#999999" points="45.25,-20 0,-20 0,0 45.25,0 45.25,-20"/>
<text text-anchor="middle" x="22.62" y="-6.5" font-family="Helvetica,sans-Serif" font-size="10.00">stdio.h</text>
</a>
</g>
</g>
<!-- Node1&#45;&gt;Node2 -->
<g id="edge1_Node000001_Node000002" class="edge">
<title>Node1&#45;&gt;Node2</title>
<g id="a_edge1_Node000001_Node000002"><a xlink:title=" ">
<path fill="none" stroke="#63b8ff" d="M74.18,-111.65C62.83,-103.55 47.51,-90.83 38.62,-76 30.57,-62.55 26.56,-45.23 24.57,-31.85"/>
<polygon fill="#63b8ff" stroke="#63b8ff" points="28.05,-31.5 23.39,-21.99 21.1,-32.33 28.05,-31.5"/>
</a>
</g>
</g>
<!-- Node3 -->
<g id="Node000003" class="node">
<title>Node3</title>
<g id="a_Node000003"><a xlink:href="_t_queue_8h.html" target="_top" xlink:title="Definice typu fronta (realizace pomocí kruhového pole).">
<polygon fill="white" stroke="#666666" points="205.62,-76 147.62,-76 147.62,-56 205.62,-56 205.62,-76"/>
<text text-anchor="middle" x="176.62" y="-62.5" font-family="Helvetica,sans-Serif" font-size="10.00">TQueue.h</text>
</a>
</g>
</g>
<!-- Node1&#45;&gt;Node3 -->
<g id="edge2_Node000001_Node000003" class="edge">
<title>Node1&#45;&gt;Node3</title>
<g id="a_edge2_Node000001_Node000003"><a xlink:title=" ">
<path fill="none" stroke="#63b8ff" d="M103.95,-111.59C117.12,-103.51 136.36,-91.71 151.73,-82.27"/>
<polygon fill="#63b8ff" stroke="#63b8ff" points="153.19,-85.48 159.89,-77.27 149.53,-79.52 153.19,-85.48"/>
</a>
</g>
</g>
<!-- Node6 -->
<g id="Node000006" class="node">
<title>Node6</title>
<g id="a_Node000006"><a xlink:href="main__support_8h.html" target="_top" xlink:title="Soubor pro multiplatformní podporu programu v různých OS.">
<polygon fill="white" stroke="#666666" points="130,-76 47.25,-76 47.25,-56 130,-56 130,-76"/>
<text text-anchor="middle" x="88.62" y="-62.5" font-family="Helvetica,sans-Serif" font-size="10.00">main_support.h</text>
</a>
</g>
</g>
<!-- Node1&#45;&gt;Node6 -->
<g id="edge5_Node000001_Node000006" class="edge">
<title>Node1&#45;&gt;Node6</title>
<g id="a_edge5_Node000001_Node000006"><a xlink:title=" ">
<path fill="none" stroke="#63b8ff" d="M88.62,-111.59C88.62,-105.01 88.62,-95.96 88.62,-87.73"/>
<polygon fill="#63b8ff" stroke="#63b8ff" points="92.13,-87.81 88.63,-77.81 85.13,-87.81 92.13,-87.81"/>
</a>
</g>
</g>
<!-- Node4 -->
<g id="Node000004" class="node">
<title>Node4</title>
<g id="a_Node000004"><a xlink:title=" ">
<polygon fill="#e0e0e0" stroke="#999999" points="181.5,-20 125.75,-20 125.75,0 181.5,0 181.5,-20"/>
<text text-anchor="middle" x="153.62" y="-6.5" font-family="Helvetica,sans-Serif" font-size="10.00">stdbool.h</text>
</a>
</g>
</g>
<!-- Node3&#45;&gt;Node4 -->
<g id="edge3_Node000003_Node000004" class="edge">
<title>Node3&#45;&gt;Node4</title>
<g id="a_edge3_Node000003_Node000004"><a xlink:title=" ">
<path fill="none" stroke="#63b8ff" d="M172.62,-55.59C169.72,-48.78 165.69,-39.32 162.08,-30.86"/>
<polygon fill="#63b8ff" stroke="#63b8ff" points="165.32,-29.52 158.18,-21.69 158.88,-32.26 165.32,-29.52"/>
</a>
</g>
</g>
<!-- Node5 -->
<g id="Node000005" class="node">
<title>Node5</title>
<g id="a_Node000005"><a xlink:title=" ">
<polygon fill="#e0e0e0" stroke="#999999" points="249.88,-20 199.38,-20 199.38,0 249.88,0 249.88,-20"/>
<text text-anchor="middle" x="224.62" y="-6.5" font-family="Helvetica,sans-Serif" font-size="10.00">stddef.h</text>
</a>
</g>
</g>
<!-- Node3&#45;&gt;Node5 -->
<g id="edge4_Node000003_Node000005" class="edge">
<title>Node3&#45;&gt;Node5</title>
<g id="a_edge4_Node000003_Node000005"><a xlink:title=" ">
<path fill="none" stroke="#63b8ff" d="M184.99,-55.59C191.52,-48.24 200.81,-37.8 208.74,-28.87"/>
<polygon fill="#63b8ff" stroke="#63b8ff" points="211.33,-31.23 215.35,-21.43 206.09,-26.58 211.33,-31.23"/>
</a>
</g>
</g>
<!-- Node6&#45;&gt;Node2 -->
<g id="edge6_Node000006_Node000002" class="edge">
<title>Node6&#45;&gt;Node2</title>
<g id="a_edge6_Node000006_Node000002"><a xlink:title=" ">
<path fill="none" stroke="#63b8ff" d="M77.13,-55.59C67.66,-47.85 54.02,-36.69 42.75,-27.47"/>
<polygon fill="#63b8ff" stroke="#63b8ff" points="45.12,-24.88 35.16,-21.26 40.68,-30.3 45.12,-24.88"/>
</a>
</g>
</g>
<!-- Node6&#45;&gt;Node4 -->
<g id="edge8_Node000006_Node000004" class="edge">
<title>Node6&#45;&gt;Node4</title>
<g id="a_edge8_Node000006_Node000004"><a xlink:title=" ">
<path fill="none" stroke="#63b8ff" d="M99.95,-55.59C109.27,-47.85 122.7,-36.69 133.8,-27.47"/>
<polygon fill="#63b8ff" stroke="#63b8ff" points="135.81,-30.35 141.27,-21.27 131.34,-24.96 135.81,-30.35"/>
</a>
</g>
</g>
<!-- Node7 -->
<g id="Node000007" class="node">
<title>Node7</title>
<g id="a_Node000007"><a xlink:title=" ">
<polygon fill="#e0e0e0" stroke="#999999" points="108.12,-20 65.12,-20 65.12,0 108.12,0 108.12,-20"/>
<text text-anchor="middle" x="86.62" y="-6.5" font-family="Helvetica,sans-Serif" font-size="10.00">time.h</text>
</a>
</g>
</g>
<!-- Node6&#45;&gt;Node7 -->
<g id="edge7_Node000006_Node000007" class="edge">
<title>Node6&#45;&gt;Node7</title>
<g id="a_edge7_Node000006_Node000007"><a xlink:title=" ">
<path fill="none" stroke="#63b8ff" d="M88.28,-55.59C88.03,-49.01 87.7,-39.96 87.39,-31.73"/>
<polygon fill="#63b8ff" stroke="#63b8ff" points="90.89,-31.67 87.03,-21.81 83.9,-31.93 90.89,-31.67"/>
</a>
</g>
</g>
</g>
</svg>
