<?xml version="1.0" encoding="UTF-8" standalone="no"?>
<!DOCTYPE svg PUBLIC "-//W3C//DTD SVG 1.1//EN"
 "http://www.w3.org/Graphics/SVG/1.1/DTD/svg11.dtd">
<!-- Generated by graphviz version 11.0.0 (20240428.1522)
 -->
<!-- Title: TQueueIterator Pages: 1 -->
<svg width="131pt" height="198pt"
 viewBox="0.00 0.00 131.00 198.00" xmlns="http://www.w3.org/2000/svg" xmlns:xlink="http://www.w3.org/1999/xlink">
<g id="graph0" class="graph" transform="scale(1 1) rotate(0) translate(4 194)">
<title>TQueueIterator</title>
<!-- Node1 -->
<g id="Node000001" class="node">
<title>Node1</title>
<g id="a_Node000001"><a xlink:title="Definice typu QueueIterator.">
<polygon fill="#999999" stroke="none" points="98,-52 25,-52 25,0 98,0 98,-52"/>
<text text-anchor="start" x="29.62" y="-38.5" font-family="Helvetica,sans-Serif" font-size="10.00">TQueueIterator</text>
<text text-anchor="start" x="30.5" y="-22.5" font-family="Helvetica,sans-Serif" font-size="10.00">+</text>
<text text-anchor="start" x="42" y="-22.5" font-family="Helvetica,sans-Serif" font-size="10.00">size_t iPos</text>
<text text-anchor="start" x="60" y="-6.5" font-family="Helvetica,sans-Serif" font-size="10.00"> </text>
<polygon fill="#666666" stroke="#666666" points="25,-34 25,-34 98,-34 98,-34 25,-34"/>
<polygon fill="#666666" stroke="#666666" points="25,-18 25,-18 40,-18 40,-18 25,-18"/>
<polygon fill="#666666" stroke="#666666" points="40,-18 40,-18 98,-18 98,-18 40,-18"/>
<polygon fill="none" stroke="#666666" points="25,0 25,-52 98,-52 98,0 25,0"/>
</a>
</g>
</g>
<!-- Node2 -->
<g id="Node000002" class="node">
<title>Node2</title>
<g id="a_Node000002"><a xlink:href="group___t_queue.html#struct_t_queue" target="_top" xlink:title="Definice typu Queue.">
<polygon fill="white" stroke="none" points="123,-190 0,-190 0,-106 123,-106 123,-190"/>
<text text-anchor="start" x="44.62" y="-176.5" font-family="Helvetica,sans-Serif" font-size="10.00">TQueue</text>
<text text-anchor="start" x="4" y="-160.5" font-family="Helvetica,sans-Serif" font-size="10.00">+</text>
<text text-anchor="start" x="14" y="-160.5" font-family="Helvetica,sans-Serif" font-size="10.00">size_t iFrontPos</text>
<text text-anchor="start" x="4" y="-144.5" font-family="Helvetica,sans-Serif" font-size="10.00">+</text>
<text text-anchor="start" x="14" y="-144.5" font-family="Helvetica,sans-Serif" font-size="10.00">size_t iBackPos</text>
<text text-anchor="start" x="4" y="-128.5" font-family="Helvetica,sans-Serif" font-size="10.00">+</text>
<text text-anchor="start" x="14" y="-128.5" font-family="Helvetica,sans-Serif" font-size="10.00">TQueueElement iValues</text>
<text text-anchor="start" x="60" y="-112.5" font-family="Helvetica,sans-Serif" font-size="10.00"> </text>
<polygon fill="#666666" stroke="#666666" points="0,-172 0,-172 123,-172 123,-172 0,-172"/>
<polygon fill="#666666" stroke="#666666" points="0,-124 0,-124 12,-124 12,-124 0,-124"/>
<polygon fill="#666666" stroke="#666666" points="12,-124 12,-124 123,-124 123,-124 12,-124"/>
<polygon fill="none" stroke="#666666" points="0,-106 0,-190 123,-190 123,-106 0,-106"/>
</a>
</g>
</g>
<!-- Node2&#45;&gt;Node1 -->
<g id="edge1_Node000001_Node000002" class="edge">
<title>Node2&#45;&gt;Node1</title>
<g id="a_edge1_Node000001_Node000002"><a xlink:title=" ">
<path fill="none" stroke="#63b8ff" d="M61.5,-106.04C61.5,-92.63 61.5,-77.82 61.5,-64.67"/>
<polygon fill="none" stroke="#63b8ff" points="61.5,-64.6 57.5,-58.6 61.5,-52.6 65.5,-58.6 61.5,-64.6"/>
</a>
</g>
<text text-anchor="start" x="64.5" y="-75.5" font-family="Helvetica,sans-Serif" font-size="10.00" fill="grey">+iQueue</text>
</g>
</g>
</svg>
