<?xml version="1.0" encoding="UTF-8" standalone="no"?>
<!DOCTYPE svg PUBLIC "-//W3C//DTD SVG 1.1//EN"
 "http://www.w3.org/Graphics/SVG/1.1/DTD/svg11.dtd">
<!-- Generated by graphviz version 11.0.0 (20240428.1522)
 -->
<!-- Title: vector_iterator_is_equal Pages: 1 -->
<svg width="247pt" height="104pt"
 viewBox="0.00 0.00 247.00 104.00" xmlns="http://www.w3.org/2000/svg" xmlns:xlink="http://www.w3.org/1999/xlink">
<g id="graph0" class="graph" transform="scale(1 1) rotate(0) translate(4 100)">
<title>vector_iterator_is_equal</title>
<!-- Node1 -->
<g id="Node000001" class="node">
<title>Node1</title>
<g id="a_Node000001"><a xlink:title="Test shodnosti dvou iterátorů">
<polygon fill="#999999" stroke="#666666" points="239,-64 149.5,-64 149.5,-32 239,-32 239,-64"/>
<text text-anchor="start" x="157.5" y="-50.5" font-family="Helvetica,sans-Serif" font-size="10.00">vector_iterator_is</text>
<text text-anchor="middle" x="194.25" y="-38.5" font-family="Helvetica,sans-Serif" font-size="10.00">_equal</text>
</a>
</g>
</g>
<!-- Node2 -->
<g id="Node000002" class="node">
<title>Node2</title>
<g id="a_Node000002"><a xlink:href="group___t_heap.html#ga25c0a1a3e3d287c0d8894ebc8b7f29ca" target="_top" xlink:title="Test shodnosti dvou iterátorů">
<polygon fill="white" stroke="#666666" points="113.5,-96 0,-96 0,-76 113.5,-76 113.5,-96"/>
<text text-anchor="middle" x="56.75" y="-82.5" font-family="Helvetica,sans-Serif" font-size="10.00">heap_iterator_is_equal</text>
</a>
</g>
</g>
<!-- Node1&#45;&gt;Node2 -->
<g id="edge1_Node000001_Node000002" class="edge">
<title>Node1&#45;&gt;Node2</title>
<g id="a_edge1_Node000001_Node000002"><a xlink:title=" ">
<path fill="none" stroke="#63b8ff" d="M138.36,-63.39C123.85,-67.46 108.51,-71.76 95.16,-75.51"/>
<polygon fill="#63b8ff" stroke="#63b8ff" points="139.12,-66.82 147.8,-60.75 137.23,-60.08 139.12,-66.82"/>
</a>
</g>
</g>
<!-- Node3 -->
<g id="Node000003" class="node">
<title>Node3</title>
<g id="a_Node000003"><a xlink:href="group___t_span.html#ga798f020061122cbc5fcc57d4aebc8232" target="_top" xlink:title="Test shodnosti dvou iterátorů">
<polygon fill="white" stroke="#666666" points="113.5,-58 0,-58 0,-38 113.5,-38 113.5,-58"/>
<text text-anchor="middle" x="56.75" y="-44.5" font-family="Helvetica,sans-Serif" font-size="10.00">span_iterator_is_equal</text>
</a>
</g>
</g>
<!-- Node1&#45;&gt;Node3 -->
<g id="edge2_Node000001_Node000003" class="edge">
<title>Node1&#45;&gt;Node3</title>
<g id="a_edge2_Node000001_Node000003"><a xlink:title=" ">
<path fill="none" stroke="#63b8ff" d="M137.88,-48C129.96,-48 121.81,-48 113.88,-48"/>
<polygon fill="#63b8ff" stroke="#63b8ff" points="137.74,-51.5 147.74,-48 137.74,-44.5 137.74,-51.5"/>
</a>
</g>
</g>
<!-- Node4 -->
<g id="Node000004" class="node">
<title>Node4</title>
<g id="a_Node000004"><a xlink:href="group___iterator_algorithms.html#ga1d2c7d1789945fe998c218ebb8d76004" target="_top" xlink:title="Zavolání zvolené funkce na každý element vektoru v zadaném rozsahu pozic určených dvěma iterátory.">
<polygon fill="white" stroke="#666666" points="100,-20 13.5,-20 13.5,0 100,0 100,-20"/>
<text text-anchor="middle" x="56.75" y="-6.5" font-family="Helvetica,sans-Serif" font-size="10.00">vector_for_range</text>
</a>
</g>
</g>
<!-- Node1&#45;&gt;Node4 -->
<g id="edge3_Node000001_Node000004" class="edge">
<title>Node1&#45;&gt;Node4</title>
<g id="a_edge3_Node000001_Node000004"><a xlink:title=" ">
<path fill="none" stroke="#63b8ff" d="M138.36,-32.61C123.85,-28.54 108.51,-24.24 95.16,-20.49"/>
<polygon fill="#63b8ff" stroke="#63b8ff" points="137.23,-35.92 147.8,-35.25 139.12,-29.18 137.23,-35.92"/>
</a>
</g>
</g>
</g>
</svg>
