<?xml version="1.0" encoding="UTF-8" standalone="no"?>
<!DOCTYPE svg PUBLIC "-//W3C//DTD SVG 1.1//EN"
 "http://www.w3.org/Graphics/SVG/1.1/DTD/svg11.dtd">
<!-- Generated by graphviz version 11.0.0 (20240428.1522)
 -->
<!-- Title: merge_sort Pages: 1 -->
<svg width="816pt" height="208pt"
 viewBox="0.00 0.00 815.75 208.00" xmlns="http://www.w3.org/2000/svg" xmlns:xlink="http://www.w3.org/1999/xlink">
<g id="graph0" class="graph" transform="scale(1 1) rotate(0) translate(4 204)">
<title>merge_sort</title>
<!-- Node1 -->
<g id="Node000001" class="node">
<title>Node1</title>
<g id="a_Node000001"><a xlink:title="Třídění pomocí metody slučováním (Merge sort) využívající rekurzivní rozklad.">
<polygon fill="#999999" stroke="#666666" points="64.75,-96 0,-96 0,-76 64.75,-76 64.75,-96"/>
<text text-anchor="middle" x="32.38" y="-82.5" font-family="Helvetica,sans-Serif" font-size="10.00">merge_sort</text>
</a>
</g>
</g>
<!-- Node2 -->
<g id="Node000002" class="node">
<title>Node2</title>
<g id="a_Node000002"><a xlink:href="merge__sort_8c.html#a41bfb4129631a73ffc60c10381af80c2" target="_top" xlink:title="Vnitřní a lokální funkce realizující rekurzivní funkci pro metodu (Merge Sort).">
<polygon fill="white" stroke="#666666" points="208.62,-172 110.12,-172 110.12,-152 208.62,-152 208.62,-172"/>
<text text-anchor="middle" x="159.38" y="-158.5" font-family="Helvetica,sans-Serif" font-size="10.00">merge_sort_worker</text>
</a>
</g>
</g>
<!-- Node1&#45;&gt;Node2 -->
<g id="edge1_Node000001_Node000002" class="edge">
<title>Node1&#45;&gt;Node2</title>
<g id="a_edge1_Node000001_Node000002"><a xlink:title=" ">
<path fill="none" stroke="#63b8ff" d="M42.95,-96.23C55.25,-108.82 77.75,-130.13 100.75,-143 103.42,-144.49 106.22,-145.89 109.09,-147.2"/>
<polygon fill="#63b8ff" stroke="#63b8ff" points="107.7,-150.41 118.28,-150.95 110.35,-143.93 107.7,-150.41"/>
</a>
</g>
</g>
<!-- Node9 -->
<g id="Node000009" class="node">
<title>Node9</title>
<g id="a_Node000009"><a xlink:href="group__sortable___t_vector__with__shareable__sortstats.html#gad8dab56657c4e8504ecdfef34ca91f19" target="_top" xlink:title="Napojení statistik o počtu operací s elementy jednoho vektoru na statistiky jiného vektoru.">
<polygon fill="white" stroke="#666666" points="218,-134 100.75,-134 100.75,-114 218,-114 218,-134"/>
<text text-anchor="middle" x="159.38" y="-120.5" font-family="Helvetica,sans-Serif" font-size="10.00">vector_attach_sortstats</text>
</a>
</g>
</g>
<!-- Node1&#45;&gt;Node9 -->
<g id="edge9_Node000001_Node000009" class="edge">
<title>Node1&#45;&gt;Node9</title>
<g id="a_edge9_Node000001_Node000009"><a xlink:title=" ">
<path fill="none" stroke="#63b8ff" d="M65.24,-95.69C79.82,-100.12 97.34,-105.45 113.24,-110.28"/>
<polygon fill="#63b8ff" stroke="#63b8ff" points="111.9,-113.53 122.49,-113.09 113.94,-106.83 111.9,-113.53"/>
</a>
</g>
</g>
<!-- Node10 -->
<g id="Node000010" class="node">
<title>Node10</title>
<g id="a_Node000010"><a xlink:href="group___t_vector.html#ga6b0b8780d60dad02b8569be119769548" target="_top" xlink:title="Vytvoření úplné kopie vektoru.">
<polygon fill="white" stroke="#666666" points="194.38,-96 124.38,-96 124.38,-76 194.38,-76 194.38,-96"/>
<text text-anchor="middle" x="159.38" y="-82.5" font-family="Helvetica,sans-Serif" font-size="10.00">vector_clone</text>
</a>
</g>
</g>
<!-- Node1&#45;&gt;Node10 -->
<g id="edge10_Node000001_Node000010" class="edge">
<title>Node1&#45;&gt;Node10</title>
<g id="a_edge10_Node000001_Node000010"><a xlink:title=" ">
<path fill="none" stroke="#63b8ff" d="M65.24,-86C79.68,-86 97.01,-86 112.78,-86"/>
<polygon fill="#63b8ff" stroke="#63b8ff" points="112.42,-89.5 122.42,-86 112.42,-82.5 112.42,-89.5"/>
</a>
</g>
</g>
<!-- Node11 -->
<g id="Node000011" class="node">
<title>Node11</title>
<g id="a_Node000011"><a xlink:href="group___t_vector.html#ga41fcff5418fe213f2caaa586f521bcd6" target="_top" xlink:title="Dealokace vektoru.">
<polygon fill="white" stroke="#666666" points="198.88,-58 119.88,-58 119.88,-38 198.88,-38 198.88,-58"/>
<text text-anchor="middle" x="159.38" y="-44.5" font-family="Helvetica,sans-Serif" font-size="10.00">vector_destroy</text>
</a>
</g>
</g>
<!-- Node1&#45;&gt;Node11 -->
<g id="edge11_Node000001_Node000011" class="edge">
<title>Node1&#45;&gt;Node11</title>
<g id="a_edge11_Node000001_Node000011"><a xlink:title=" ">
<path fill="none" stroke="#63b8ff" d="M65.24,-76.31C79.82,-71.88 97.34,-66.55 113.24,-61.72"/>
<polygon fill="#63b8ff" stroke="#63b8ff" points="113.94,-65.17 122.49,-58.91 111.9,-58.47 113.94,-65.17"/>
</a>
</g>
</g>
<!-- Node12 -->
<g id="Node000012" class="node">
<title>Node12</title>
<g id="a_Node000012"><a xlink:href="group___t_vector.html#ga2502e6ec116dbac5e49f5b62b07dc898" target="_top" xlink:title="Přečtení počtu elementů vektoru.">
<polygon fill="white" stroke="#666666" points="191.75,-20 127,-20 127,0 191.75,0 191.75,-20"/>
<text text-anchor="middle" x="159.38" y="-6.5" font-family="Helvetica,sans-Serif" font-size="10.00">vector_size</text>
</a>
</g>
</g>
<!-- Node1&#45;&gt;Node12 -->
<g id="edge12_Node000001_Node000012" class="edge">
<title>Node1&#45;&gt;Node12</title>
<g id="a_edge12_Node000001_Node000012"><a xlink:title=" ">
<path fill="none" stroke="#63b8ff" d="M42.95,-75.77C55.25,-63.18 77.75,-41.87 100.75,-29 105.5,-26.34 110.68,-23.98 115.92,-21.91"/>
<polygon fill="#63b8ff" stroke="#63b8ff" points="117,-25.24 125.22,-18.57 114.63,-18.65 117,-25.24"/>
</a>
</g>
</g>
<!-- Node2&#45;&gt;Node2 -->
<g id="edge2_Node000002_Node000002" class="edge">
<title>Node2&#45;&gt;Node2</title>
<g id="a_edge2_Node000002_Node000002"><a xlink:title=" ">
<path fill="none" stroke="#63b8ff" d="M140.57,-172.34C132.53,-180.98 138.8,-190 159.38,-190 170.63,-190 177.6,-187.3 180.3,-183.44"/>
<polygon fill="#63b8ff" stroke="#63b8ff" points="183.77,-182.99 178.47,-173.83 176.9,-184.3 183.77,-182.99"/>
</a>
</g>
</g>
<!-- Node3 -->
<g id="Node000003" class="node">
<title>Node3</title>
<g id="a_Node000003"><a xlink:href="merge__sort_8c.html#ab598840f792dce8f32c5a6c14467612a" target="_top" xlink:title="Vnitřní a lokální funkce realizující algoritmus sloučení dvou již setříděných rozsahů z vektoru aFrom...">
<polygon fill="white" stroke="#666666" points="301.5,-172 254,-172 254,-152 301.5,-152 301.5,-172"/>
<text text-anchor="middle" x="277.75" y="-158.5" font-family="Helvetica,sans-Serif" font-size="10.00">mergify</text>
</a>
</g>
</g>
<!-- Node2&#45;&gt;Node3 -->
<g id="edge3_Node000002_Node000003" class="edge">
<title>Node2&#45;&gt;Node3</title>
<g id="a_edge3_Node000002_Node000003"><a xlink:title=" ">
<path fill="none" stroke="#63b8ff" d="M209.05,-162C220.28,-162 231.99,-162 242.45,-162"/>
<polygon fill="#63b8ff" stroke="#63b8ff" points="242.12,-165.5 252.12,-162 242.12,-158.5 242.12,-165.5"/>
</a>
</g>
</g>
<!-- Node4 -->
<g id="Node000004" class="node">
<title>Node4</title>
<g id="a_Node000004"><a xlink:href="group__sortable___t_vector.html#gaedaf9c79afa345e5e71e5c66ab25fa26" target="_top" xlink:title="Porovnání hodnot elementů vektorů">
<polygon fill="white" stroke="#666666" points="466,-192 337.5,-192 337.5,-172 466,-172 466,-192"/>
<text text-anchor="middle" x="401.75" y="-178.5" font-family="Helvetica,sans-Serif" font-size="10.00">vector_compare_positions</text>
</a>
</g>
</g>
<!-- Node3&#45;&gt;Node4 -->
<g id="edge4_Node000003_Node000004" class="edge">
<title>Node3&#45;&gt;Node4</title>
<g id="a_edge4_Node000003_Node000004"><a xlink:title=" ">
<path fill="none" stroke="#63b8ff" d="M301.98,-165.81C309.13,-166.98 317.42,-168.34 326.09,-169.76"/>
<polygon fill="#63b8ff" stroke="#63b8ff" points="325.3,-173.18 335.73,-171.34 326.43,-166.27 325.3,-173.18"/>
</a>
</g>
</g>
<!-- Node7 -->
<g id="Node000007" class="node">
<title>Node7</title>
<g id="a_Node000007"><a xlink:href="group__sortable___t_vector.html#ga16623c06371077674f5d4d31e38e42a4" target="_top" xlink:title="Přesun hodnoty elementu vektoru.">
<polygon fill="white" stroke="#666666" points="458.5,-153 345,-153 345,-133 458.5,-133 458.5,-153"/>
<text text-anchor="middle" x="401.75" y="-139.5" font-family="Helvetica,sans-Serif" font-size="10.00">vector_move_positions</text>
</a>
</g>
</g>
<!-- Node3&#45;&gt;Node7 -->
<g id="edge7_Node000003_Node000007" class="edge">
<title>Node3&#45;&gt;Node7</title>
<g id="a_edge7_Node000003_Node000007"><a xlink:title=" ">
<path fill="none" stroke="#63b8ff" d="M301.98,-158.38C311.11,-156.96 322.1,-155.25 333.37,-153.49"/>
<polygon fill="#63b8ff" stroke="#63b8ff" points="333.86,-156.96 343.2,-151.96 332.78,-150.04 333.86,-156.96"/>
</a>
</g>
</g>
<!-- Node5 -->
<g id="Node000005" class="node">
<title>Node5</title>
<g id="a_Node000005"><a xlink:href="_t_vector_8c.html#a188bab569c3ae8a25070f632a6f53e62" target="_top" xlink:title=" ">
<polygon fill="white" stroke="#666666" points="621.88,-200 516.62,-200 516.62,-168 621.88,-168 621.88,-200"/>
<text text-anchor="start" x="524.62" y="-186.5" font-family="Helvetica,sans-Serif" font-size="10.00">vector_fast_compare</text>
<text text-anchor="middle" x="569.25" y="-174.5" font-family="Helvetica,sans-Serif" font-size="10.00">_positions</text>
</a>
</g>
</g>
<!-- Node4&#45;&gt;Node5 -->
<g id="edge5_Node000004_Node000005" class="edge">
<title>Node4&#45;&gt;Node5</title>
<g id="a_edge5_Node000004_Node000005"><a xlink:title=" ">
<path fill="none" stroke="#63b8ff" d="M466.26,-182.77C478.9,-182.92 492.16,-183.08 504.79,-183.23"/>
<polygon fill="#63b8ff" stroke="#63b8ff" points="504.62,-186.73 514.66,-183.35 504.71,-179.73 504.62,-186.73"/>
</a>
</g>
</g>
<!-- Node6 -->
<g id="Node000006" class="node">
<title>Node6</title>
<g id="a_Node000006"><a xlink:href="group___t_vector_element.html#ga82e527836fce12c93af896f65e9f701d" target="_top" xlink:title="Porovnání dvou elementů">
<polygon fill="white" stroke="#666666" points="807.75,-194 672.5,-194 672.5,-174 807.75,-174 807.75,-194"/>
<text text-anchor="middle" x="740.12" y="-180.5" font-family="Helvetica,sans-Serif" font-size="10.00">vector_element_comparator</text>
</a>
</g>
</g>
<!-- Node5&#45;&gt;Node6 -->
<g id="edge6_Node000005_Node000006" class="edge">
<title>Node5&#45;&gt;Node6</title>
<g id="a_edge6_Node000005_Node000006"><a xlink:title=" ">
<path fill="none" stroke="#63b8ff" d="M622.3,-184C634.51,-184 647.8,-184 660.88,-184"/>
<polygon fill="#63b8ff" stroke="#63b8ff" points="660.79,-187.5 670.79,-184 660.79,-180.5 660.79,-187.5"/>
</a>
</g>
</g>
<!-- Node8 -->
<g id="Node000008" class="node">
<title>Node8</title>
<g id="a_Node000008"><a xlink:href="_t_vector_8c.html#a0e3151269c65b7033ddecb4c3aee6566" target="_top" xlink:title=" ">
<polygon fill="white" stroke="#666666" points="636.5,-150 502,-150 502,-130 636.5,-130 636.5,-150"/>
<text text-anchor="middle" x="569.25" y="-136.5" font-family="Helvetica,sans-Serif" font-size="10.00">vector_fast_move_positions</text>
</a>
</g>
</g>
<!-- Node7&#45;&gt;Node8 -->
<g id="edge8_Node000007_Node000008" class="edge">
<title>Node7&#45;&gt;Node8</title>
<g id="a_edge8_Node000007_Node000008"><a xlink:title=" ">
<path fill="none" stroke="#63b8ff" d="M458.78,-141.98C468.9,-141.8 479.63,-141.61 490.24,-141.41"/>
<polygon fill="#63b8ff" stroke="#63b8ff" points="490.24,-144.91 500.17,-141.23 490.11,-137.92 490.24,-144.91"/>
</a>
</g>
</g>
</g>
</svg>
