<?xml version="1.0" encoding="UTF-8" standalone="no"?>
<!DOCTYPE svg PUBLIC "-//W3C//DTD SVG 1.1//EN"
 "http://www.w3.org/Graphics/SVG/1.1/DTD/svg11.dtd">
<!-- Generated by graphviz version 11.0.0 (20240428.1522)
 -->
<!-- Title: queue_invariant Pages: 1 -->
<svg width="429pt" height="309pt"
 viewBox="0.00 0.00 429.00 309.14" xmlns="http://www.w3.org/2000/svg" xmlns:xlink="http://www.w3.org/1999/xlink">
<g id="graph0" class="graph" transform="scale(1 1) rotate(0) translate(4 305.14)">
<title>queue_invariant</title>
<!-- Node1 -->
<g id="Node000001" class="node">
<title>Node1</title>
<g id="a_Node000001"><a xlink:title=" ">
<polygon fill="#999999" stroke="#666666" points="421,-168.14 338.25,-168.14 338.25,-148.14 421,-148.14 421,-168.14"/>
<text text-anchor="middle" x="379.62" y="-154.64" font-family="Helvetica,sans-Serif" font-size="10.00">queue_invariant</text>
</a>
</g>
</g>
<!-- Node2 -->
<g id="Node000002" class="node">
<title>Node2</title>
<g id="a_Node000002"><a xlink:href="group___t_queue.html#gabdf5c3e56234ff344f49c206632f7fbb" target="_top" xlink:title="Získání hodnoty elementu z konce fronty.">
<polygon fill="white" stroke="#666666" points="160.25,-263.14 91.75,-263.14 91.75,-243.14 160.25,-243.14 160.25,-263.14"/>
<text text-anchor="middle" x="126" y="-249.64" font-family="Helvetica,sans-Serif" font-size="10.00">queue_back</text>
</a>
</g>
</g>
<!-- Node1&#45;&gt;Node2 -->
<g id="edge1_Node000001_Node000002" class="edge">
<title>Node1&#45;&gt;Node2</title>
<g id="a_edge1_Node000001_Node000002"><a xlink:title=" ">
<path fill="none" stroke="#63b8ff" d="M365.1,-177.75C351.49,-195.75 328.76,-221.48 302.25,-234.14 256.82,-255.83 197.41,-257.49 160.75,-255.91"/>
<polygon fill="#63b8ff" stroke="#63b8ff" points="367.92,-179.82 370.96,-169.67 362.26,-175.71 367.92,-179.82"/>
</a>
</g>
</g>
<!-- Node4 -->
<g id="Node000004" class="node">
<title>Node4</title>
<g id="a_Node000004"><a xlink:href="group___t_queue.html#ga85b3f0ae9d6f44ca6c102df1e0619dc9" target="_top" xlink:title="Deinicializace fronty.">
<polygon fill="white" stroke="#666666" points="298.5,-301.14 218.75,-301.14 218.75,-281.14 298.5,-281.14 298.5,-301.14"/>
<text text-anchor="middle" x="258.62" y="-287.64" font-family="Helvetica,sans-Serif" font-size="10.00">queue_destroy</text>
</a>
</g>
</g>
<!-- Node1&#45;&gt;Node4 -->
<g id="edge3_Node000001_Node000004" class="edge">
<title>Node1&#45;&gt;Node4</title>
<g id="a_edge3_Node000001_Node000004"><a xlink:title=" ">
<path fill="none" stroke="#63b8ff" d="M368.03,-178.54C355.02,-202.12 331.07,-241.02 302.25,-267.14 296.46,-272.39 289.33,-276.96 282.56,-280.67"/>
<polygon fill="#63b8ff" stroke="#63b8ff" points="371,-180.41 372.65,-169.94 364.84,-177.09 371,-180.41"/>
</a>
</g>
</g>
<!-- Node5 -->
<g id="Node000005" class="node">
<title>Node5</title>
<g id="a_Node000005"><a xlink:href="group___t_queue.html#gadf7ec766208c056364fba19f6d6b5d3f" target="_top" xlink:title="Získání hodnoty elementu z čela fronty.">
<polygon fill="white" stroke="#666666" points="159.12,-187.14 92.88,-187.14 92.88,-167.14 159.12,-167.14 159.12,-187.14"/>
<text text-anchor="middle" x="126" y="-173.64" font-family="Helvetica,sans-Serif" font-size="10.00">queue_front</text>
</a>
</g>
</g>
<!-- Node1&#45;&gt;Node5 -->
<g id="edge5_Node000001_Node000005" class="edge">
<title>Node1&#45;&gt;Node5</title>
<g id="a_edge5_Node000001_Node000005"><a xlink:title=" ">
<path fill="none" stroke="#63b8ff" d="M326.62,-162.07C276.28,-165.87 201.55,-171.51 159.25,-174.71"/>
<polygon fill="#63b8ff" stroke="#63b8ff" points="326.7,-165.57 336.41,-161.33 326.17,-158.59 326.7,-165.57"/>
</a>
</g>
</g>
<!-- Node6 -->
<g id="Node000006" class="node">
<title>Node6</title>
<g id="a_Node000006"><a xlink:href="group___t_queue.html#gaed24a08c3da331c9d4651464901f9acc" target="_top" xlink:title="Inicializace prázdné fronty.">
<polygon fill="white" stroke="#666666" points="288.75,-111.14 228.5,-111.14 228.5,-91.14 288.75,-91.14 288.75,-111.14"/>
<text text-anchor="middle" x="258.62" y="-97.64" font-family="Helvetica,sans-Serif" font-size="10.00">queue_init</text>
</a>
</g>
</g>
<!-- Node1&#45;&gt;Node6 -->
<g id="edge7_Node000001_Node000006" class="edge">
<title>Node1&#45;&gt;Node6</title>
<g id="a_edge7_Node000001_Node000006"><a xlink:title=" ">
<path fill="none" stroke="#63b8ff" d="M346.57,-142.79C325.9,-132.89 299.56,-120.27 281.31,-111.53"/>
<polygon fill="#63b8ff" stroke="#63b8ff" points="344.9,-145.87 355.43,-147.03 347.93,-139.56 344.9,-145.87"/>
</a>
</g>
</g>
<!-- Node7 -->
<g id="Node000007" class="node">
<title>Node7</title>
<g id="a_Node000007"><a xlink:href="group___t_queue.html#gaa9812b8f3c1b0707450f91283f97384c" target="_top" xlink:title="Zjištění, zda je fronta prázdná">
<polygon fill="white" stroke="#666666" points="302.25,-225.14 215,-225.14 215,-205.14 302.25,-205.14 302.25,-225.14"/>
<text text-anchor="middle" x="258.62" y="-211.64" font-family="Helvetica,sans-Serif" font-size="10.00">queue_is_empty</text>
</a>
</g>
</g>
<!-- Node1&#45;&gt;Node7 -->
<g id="edge9_Node000001_Node000007" class="edge">
<title>Node1&#45;&gt;Node7</title>
<g id="a_edge9_Node000001_Node000007"><a xlink:title=" ">
<path fill="none" stroke="#63b8ff" d="M346.57,-173.49C325.9,-183.4 299.56,-196.02 281.31,-204.75"/>
<polygon fill="#63b8ff" stroke="#63b8ff" points="347.93,-176.73 355.43,-169.25 344.9,-170.41 347.93,-176.73"/>
</a>
</g>
</g>
<!-- Node8 -->
<g id="Node000008" class="node">
<title>Node8</title>
<g id="a_Node000008"><a xlink:href="group___t_queue.html#ga100499d1e5ff881cd97b03484f6e744b" target="_top" xlink:title="Odstranění elementu z čela fronty.">
<polygon fill="white" stroke="#666666" points="157.62,-149.14 94.38,-149.14 94.38,-129.14 157.62,-129.14 157.62,-149.14"/>
<text text-anchor="middle" x="126" y="-135.64" font-family="Helvetica,sans-Serif" font-size="10.00">queue_pop</text>
</a>
</g>
</g>
<!-- Node1&#45;&gt;Node8 -->
<g id="edge18_Node000001_Node000008" class="edge">
<title>Node1&#45;&gt;Node8</title>
<g id="a_edge18_Node000001_Node000008"><a xlink:title=" ">
<path fill="none" stroke="#63b8ff" d="M326.53,-154.21C275.73,-150.37 200.17,-144.67 158.11,-141.49"/>
<polygon fill="#63b8ff" stroke="#63b8ff" points="326.17,-157.69 336.41,-154.95 326.7,-150.71 326.17,-157.69"/>
</a>
</g>
</g>
<!-- Node9 -->
<g id="Node000009" class="node">
<title>Node9</title>
<g id="a_Node000009"><a xlink:href="group___t_queue_iterator.html#gad0164ae101775a2ee1387b0a514d1f45" target="_top" xlink:title="Vytvoření nového iterátoru ukazujícího na čelo fronty.">
<polygon fill="white" stroke="#666666" points="179,-55.14 73,-55.14 73,-35.14 179,-35.14 179,-55.14"/>
<text text-anchor="middle" x="126" y="-41.64" font-family="Helvetica,sans-Serif" font-size="10.00">queue_iterator_begin</text>
</a>
</g>
</g>
<!-- Node1&#45;&gt;Node9 -->
<g id="edge15_Node000001_Node000009" class="edge">
<title>Node1&#45;&gt;Node9</title>
<g id="a_edge15_Node000001_Node000009"><a xlink:title=" ">
<path fill="none" stroke="#63b8ff" d="M364.54,-138.8C350.69,-121.23 327.94,-96.03 302.25,-82.14 264.09,-61.52 215.48,-52.38 179.14,-48.34"/>
<polygon fill="#63b8ff" stroke="#63b8ff" points="361.52,-140.61 370.37,-146.44 367.09,-136.36 361.52,-140.61"/>
</a>
</g>
</g>
<!-- Node10 -->
<g id="Node000010" class="node">
<title>Node10</title>
<g id="a_Node000010"><a xlink:href="group___t_queue.html#gab5ceca2541159a4e940cb4b80bba411b" target="_top" xlink:title="Vložení elementu na konec fronty.">
<polygon fill="white" stroke="#666666" points="292.88,-22.14 224.38,-22.14 224.38,-2.14 292.88,-2.14 292.88,-22.14"/>
<text text-anchor="middle" x="258.62" y="-8.64" font-family="Helvetica,sans-Serif" font-size="10.00">queue_push</text>
</a>
</g>
</g>
<!-- Node1&#45;&gt;Node10 -->
<g id="edge19_Node000001_Node000010" class="edge">
<title>Node1&#45;&gt;Node10</title>
<g id="a_edge19_Node000001_Node000010"><a xlink:title=" ">
<path fill="none" stroke="#63b8ff" d="M367.48,-137.7C353.95,-113.92 329.51,-74.22 302.25,-45.14 294.18,-36.54 283.73,-28.41 275.2,-22.37"/>
<polygon fill="#63b8ff" stroke="#63b8ff" points="364.39,-139.34 372.32,-146.37 370.51,-135.93 364.39,-139.34"/>
</a>
</g>
</g>
<!-- Node3 -->
<g id="Node000003" class="node">
<title>Node3</title>
<g id="a_Node000003"><a xlink:href="group___main_program.html#ga0ddf1224851353fc92bfbff6f499fa97" target="_top" xlink:title=" ">
<polygon fill="white" stroke="#666666" points="37,-168.14 0,-168.14 0,-148.14 37,-148.14 37,-168.14"/>
<text text-anchor="middle" x="18.5" y="-154.64" font-family="Helvetica,sans-Serif" font-size="10.00">main</text>
</a>
</g>
</g>
<!-- Node2&#45;&gt;Node3 -->
<g id="edge2_Node000002_Node000003" class="edge">
<title>Node2&#45;&gt;Node3</title>
<g id="a_edge2_Node000002_Node000003"><a xlink:title=" ">
<path fill="none" stroke="#63b8ff" d="M85.77,-237.64C81.26,-235.11 76.89,-232.28 73,-229.14 51.38,-211.7 33.71,-183.69 25.13,-168.59"/>
<polygon fill="#63b8ff" stroke="#63b8ff" points="83.88,-240.61 94.39,-241.99 87.04,-234.36 83.88,-240.61"/>
</a>
</g>
</g>
<!-- Node4&#45;&gt;Node3 -->
<g id="edge4_Node000004_Node000003" class="edge">
<title>Node4&#45;&gt;Node3</title>
<g id="a_edge4_Node000004_Node000003"><a xlink:title=" ">
<path fill="none" stroke="#63b8ff" d="M207.09,-298.63C167.1,-301.77 111.74,-299.64 73,-272.14 37.34,-246.83 24.75,-191.49 20.94,-168.49"/>
<polygon fill="#63b8ff" stroke="#63b8ff" points="207.31,-302.12 216.94,-297.7 206.66,-295.15 207.31,-302.12"/>
</a>
</g>
</g>
<!-- Node5&#45;&gt;Node3 -->
<g id="edge6_Node000005_Node000003" class="edge">
<title>Node5&#45;&gt;Node3</title>
<g id="a_edge6_Node000005_Node000003"><a xlink:title=" ">
<path fill="none" stroke="#63b8ff" d="M81.49,-169.31C66.02,-166.52 49.45,-163.54 37.34,-161.35"/>
<polygon fill="#63b8ff" stroke="#63b8ff" points="80.53,-172.69 91,-171.02 81.77,-165.8 80.53,-172.69"/>
</a>
</g>
</g>
<!-- Node6&#45;&gt;Node3 -->
<g id="edge8_Node000006_Node000003" class="edge">
<title>Node6&#45;&gt;Node3</title>
<g id="a_edge8_Node000006_Node000003"><a xlink:title=" ">
<path fill="none" stroke="#63b8ff" d="M216.9,-99.47C178.56,-99.24 120.14,-102.39 73,-120.14 56.58,-126.32 40.56,-138.82 30.39,-147.8"/>
<polygon fill="#63b8ff" stroke="#63b8ff" points="216.55,-102.96 226.6,-99.61 216.66,-95.96 216.55,-102.96"/>
</a>
</g>
</g>
<!-- Node7&#45;&gt;Node2 -->
<g id="edge11_Node000007_Node000002" class="edge">
<title>Node7&#45;&gt;Node2</title>
<g id="a_edge11_Node000007_Node000002"><a xlink:title=" ">
<path fill="none" stroke="#63b8ff" d="M210.97,-228.71C194.36,-233.55 175.99,-238.89 160.68,-243.35"/>
<polygon fill="#63b8ff" stroke="#63b8ff" points="211.51,-232.2 220.13,-226.05 209.55,-225.48 211.51,-232.2"/>
</a>
</g>
</g>
<!-- Node7&#45;&gt;Node3 -->
<g id="edge10_Node000007_Node000003" class="edge">
<title>Node7&#45;&gt;Node3</title>
<g id="a_edge10_Node000007_Node000003"><a xlink:title=" ">
<path fill="none" stroke="#63b8ff" d="M203.54,-216.75C165.82,-216.18 114.95,-211.94 73,-196.14 56.58,-189.96 40.56,-177.47 30.39,-168.49"/>
<polygon fill="#63b8ff" stroke="#63b8ff" points="203.26,-220.25 213.28,-216.82 203.3,-213.25 203.26,-220.25"/>
</a>
</g>
</g>
<!-- Node7&#45;&gt;Node5 -->
<g id="edge12_Node000007_Node000005" class="edge">
<title>Node7&#45;&gt;Node5</title>
<g id="a_edge12_Node000007_Node000005"><a xlink:title=" ">
<path fill="none" stroke="#63b8ff" d="M210.71,-201.5C193.69,-196.54 174.84,-191.06 159.35,-186.55"/>
<polygon fill="#63b8ff" stroke="#63b8ff" points="209.55,-204.8 220.13,-204.24 211.51,-198.08 209.55,-204.8"/>
</a>
</g>
</g>
<!-- Node7&#45;&gt;Node8 -->
<g id="edge13_Node000007_Node000008" class="edge">
<title>Node7&#45;&gt;Node8</title>
<g id="a_edge13_Node000007_Node000008"><a xlink:title=" ">
<path fill="none" stroke="#63b8ff" d="M236.92,-197.67C221.64,-185.41 199.96,-169.29 179,-158.14 172.38,-154.62 164.97,-151.48 157.86,-148.82"/>
<polygon fill="#63b8ff" stroke="#63b8ff" points="234.41,-200.14 244.36,-203.76 238.84,-194.72 234.41,-200.14"/>
</a>
</g>
</g>
<!-- Node8&#45;&gt;Node3 -->
<g id="edge14_Node000008_Node000003" class="edge">
<title>Node8&#45;&gt;Node3</title>
<g id="a_edge14_Node000008_Node000003"><a xlink:title=" ">
<path fill="none" stroke="#63b8ff" d="M82.69,-146.76C66.82,-149.62 49.65,-152.71 37.22,-154.95"/>
<polygon fill="#63b8ff" stroke="#63b8ff" points="83.21,-150.23 92.43,-145.01 81.97,-143.34 83.21,-150.23"/>
</a>
</g>
</g>
<!-- Node9&#45;&gt;Node3 -->
<g id="edge16_Node000009_Node000003" class="edge">
<title>Node9&#45;&gt;Node3</title>
<g id="a_edge16_Node000009_Node000003"><a xlink:title=" ">
<path fill="none" stroke="#63b8ff" d="M101.4,-62.22C92.11,-69.43 81.62,-78.23 73,-87.14 53.9,-106.89 35.5,-133.5 26.05,-147.89"/>
<polygon fill="#63b8ff" stroke="#63b8ff" points="103.44,-65.06 109.31,-56.24 99.22,-59.47 103.44,-65.06"/>
</a>
</g>
</g>
<!-- Node9&#45;&gt;Node9 -->
<g id="edge17_Node000009_Node000009" class="edge">
<title>Node9&#45;&gt;Node9</title>
<g id="a_edge17_Node000009_Node000009"><a xlink:title=" ">
<path fill="none" stroke="#63b8ff" d="M145,-66.58C142.55,-70.44 136.22,-73.14 126,-73.14 107.31,-73.14 101.62,-64.12 108.92,-55.48"/>
<polygon fill="#63b8ff" stroke="#63b8ff" points="148.49,-66.23 143.34,-56.97 141.59,-67.42 148.49,-66.23"/>
</a>
</g>
</g>
<!-- Node10&#45;&gt;Node3 -->
<g id="edge20_Node000010_Node000003" class="edge">
<title>Node10&#45;&gt;Node3</title>
<g id="a_edge20_Node000010_Node000003"><a xlink:title=" ">
<path fill="none" stroke="#63b8ff" d="M212.92,-3.25C172.48,2.17 113.25,3.25 73,-26.14 32.26,-55.89 22.48,-122.05 20.18,-147.7"/>
<polygon fill="#63b8ff" stroke="#63b8ff" points="212.15,-6.67 222.56,-4.69 213.19,0.25 212.15,-6.67"/>
</a>
</g>
</g>
</g>
</svg>
