<?xml version="1.0" encoding="UTF-8" standalone="no"?>
<!DOCTYPE svg PUBLIC "-//W3C//DTD SVG 1.1//EN"
 "http://www.w3.org/Graphics/SVG/1.1/DTD/svg11.dtd">
<!-- Generated by graphviz version 11.0.0 (20240428.1522)
 -->
<!-- Title: TQueue.c Pages: 1 -->
<svg width="199pt" height="140pt"
 viewBox="0.00 0.00 198.88 140.00" xmlns="http://www.w3.org/2000/svg" xmlns:xlink="http://www.w3.org/1999/xlink">
<g id="graph0" class="graph" transform="scale(1 1) rotate(0) translate(4 136)">
<title>TQueue.c</title>
<!-- Node1 -->
<g id="Node000001" class="node">
<title>Node1</title>
<g id="a_Node000001"><a xlink:title="Implementace API pro typ fronta (realizace pomocí lineárního jednosměrně vázaného seznamu).">
<polygon fill="#999999" stroke="#666666" points="90.62,-132 32.62,-132 32.62,-112 90.62,-112 90.62,-132"/>
<text text-anchor="middle" x="61.62" y="-118.5" font-family="Helvetica,sans-Serif" font-size="10.00">TQueue.c</text>
</a>
</g>
</g>
<!-- Node2 -->
<g id="Node000002" class="node">
<title>Node2</title>
<g id="a_Node000002"><a xlink:title=" ">
<polygon fill="#e0e0e0" stroke="#999999" points="51.25,-76 0,-76 0,-56 51.25,-56 51.25,-76"/>
<text text-anchor="middle" x="25.62" y="-62.5" font-family="Helvetica,sans-Serif" font-size="10.00">assert.h</text>
</a>
</g>
</g>
<!-- Node1&#45;&gt;Node2 -->
<g id="edge1_Node000001_Node000002" class="edge">
<title>Node1&#45;&gt;Node2</title>
<g id="a_edge1_Node000001_Node000002"><a xlink:title=" ">
<path fill="none" stroke="#63b8ff" d="M55.35,-111.59C50.61,-104.47 43.93,-94.45 38.1,-85.72"/>
<polygon fill="#63b8ff" stroke="#63b8ff" points="41.12,-83.94 32.66,-77.56 35.3,-87.82 41.12,-83.94"/>
</a>
</g>
</g>
<!-- Node3 -->
<g id="Node000003" class="node">
<title>Node3</title>
<g id="a_Node000003"><a xlink:href="_t_queue_8h.html" target="_top" xlink:title="Definice typu fronta (realizace pomocí lineárního jednosměrně vázaného seznamu).">
<polygon fill="white" stroke="#666666" points="127.62,-76 69.62,-76 69.62,-56 127.62,-56 127.62,-76"/>
<text text-anchor="middle" x="98.62" y="-62.5" font-family="Helvetica,sans-Serif" font-size="10.00">TQueue.h</text>
</a>
</g>
</g>
<!-- Node1&#45;&gt;Node3 -->
<g id="edge2_Node000001_Node000003" class="edge">
<title>Node1&#45;&gt;Node3</title>
<g id="a_edge2_Node000001_Node000003"><a xlink:title=" ">
<path fill="none" stroke="#63b8ff" d="M68.07,-111.59C72.95,-104.47 79.82,-94.45 85.8,-85.72"/>
<polygon fill="#63b8ff" stroke="#63b8ff" points="88.63,-87.77 91.4,-77.55 82.86,-83.82 88.63,-87.77"/>
</a>
</g>
</g>
<!-- Node4 -->
<g id="Node000004" class="node">
<title>Node4</title>
<g id="a_Node000004"><a xlink:title=" ">
<polygon fill="#e0e0e0" stroke="#999999" points="56.5,-20 0.75,-20 0.75,0 56.5,0 56.5,-20"/>
<text text-anchor="middle" x="28.62" y="-6.5" font-family="Helvetica,sans-Serif" font-size="10.00">stdbool.h</text>
</a>
</g>
</g>
<!-- Node3&#45;&gt;Node4 -->
<g id="edge3_Node000003_Node000004" class="edge">
<title>Node3&#45;&gt;Node4</title>
<g id="a_edge3_Node000003_Node000004"><a xlink:title=" ">
<path fill="none" stroke="#63b8ff" d="M86.43,-55.59C76.29,-47.77 61.63,-36.46 49.61,-27.19"/>
<polygon fill="#63b8ff" stroke="#63b8ff" points="51.93,-24.56 41.88,-21.22 47.66,-30.1 51.93,-24.56"/>
</a>
</g>
</g>
<!-- Node5 -->
<g id="Node000005" class="node">
<title>Node5</title>
<g id="a_Node000005"><a xlink:title=" ">
<polygon fill="#e0e0e0" stroke="#999999" points="122.38,-20 74.88,-20 74.88,0 122.38,0 122.38,-20"/>
<text text-anchor="middle" x="98.62" y="-6.5" font-family="Helvetica,sans-Serif" font-size="10.00">stdlib.h</text>
</a>
</g>
</g>
<!-- Node3&#45;&gt;Node5 -->
<g id="edge4_Node000003_Node000005" class="edge">
<title>Node3&#45;&gt;Node5</title>
<g id="a_edge4_Node000003_Node000005"><a xlink:title=" ">
<path fill="none" stroke="#63b8ff" d="M98.62,-55.59C98.62,-49.01 98.62,-39.96 98.62,-31.73"/>
<polygon fill="#63b8ff" stroke="#63b8ff" points="102.13,-31.81 98.63,-21.81 95.13,-31.81 102.13,-31.81"/>
</a>
</g>
</g>
<!-- Node6 -->
<g id="Node000006" class="node">
<title>Node6</title>
<g id="a_Node000006"><a xlink:title=" ">
<polygon fill="#e0e0e0" stroke="#999999" points="190.88,-20 140.38,-20 140.38,0 190.88,0 190.88,-20"/>
<text text-anchor="middle" x="165.62" y="-6.5" font-family="Helvetica,sans-Serif" font-size="10.00">check.h</text>
</a>
</g>
</g>
<!-- Node3&#45;&gt;Node6 -->
<g id="edge5_Node000003_Node000006" class="edge">
<title>Node3&#45;&gt;Node6</title>
<g id="a_edge5_Node000003_Node000006"><a xlink:title=" ">
<path fill="none" stroke="#63b8ff" d="M110.3,-55.59C119.9,-47.85 133.75,-36.69 145.19,-27.47"/>
<polygon fill="#63b8ff" stroke="#63b8ff" points="147.32,-30.25 152.91,-21.25 142.93,-24.8 147.32,-30.25"/>
</a>
</g>
</g>
</g>
</svg>
