<?xml version="1.0" encoding="UTF-8" standalone="no"?>
<!DOCTYPE svg PUBLIC "-//W3C//DTD SVG 1.1//EN"
 "http://www.w3.org/Graphics/SVG/1.1/DTD/svg11.dtd">
<!-- Generated by graphviz version 11.0.0 (20240428.1522)
 -->
<!-- Title: main Pages: 1 -->
<svg width="511pt" height="731pt"
 viewBox="0.00 0.00 510.75 731.20" xmlns="http://www.w3.org/2000/svg" xmlns:xlink="http://www.w3.org/1999/xlink">
<g id="graph0" class="graph" transform="scale(1 1) rotate(0) translate(4 727.2)">
<title>main</title>
<!-- Node1 -->
<g id="Node000001" class="node">
<title>Node1</title>
<g id="a_Node000001"><a xlink:title=" ">
<polygon fill="#999999" stroke="#666666" points="37,-364.2 0,-364.2 0,-344.2 37,-344.2 37,-364.2"/>
<text text-anchor="middle" x="18.5" y="-350.7" font-family="Helvetica,sans-Serif" font-size="10.00">main</text>
</a>
</g>
</g>
<!-- Node2 -->
<g id="Node000002" class="node">
<title>Node2</title>
<g id="a_Node000002"><a xlink:href="main__support_8h.html#a2d31e17cb6a745a38f21a15a8b9f6142" target="_top" xlink:title="Konverzní funkce z hodnoty typu bool na C&#45;řetězec.">
<polygon fill="white" stroke="#666666" points="178.25,-723.2 96.25,-723.2 96.25,-703.2 178.25,-703.2 178.25,-723.2"/>
<text text-anchor="middle" x="137.25" y="-709.7" font-family="Helvetica,sans-Serif" font-size="10.00">bool_to_cstring</text>
</a>
</g>
</g>
<!-- Node1&#45;&gt;Node2 -->
<g id="edge1_Node000001_Node000002" class="edge">
<title>Node1&#45;&gt;Node2</title>
<g id="a_edge1_Node000001_Node000002"><a xlink:title=" ">
<path fill="none" stroke="#63b8ff" d="M19.79,-364.46C21.41,-415.04 30.89,-637.47 73,-689.2 76.48,-693.47 80.8,-696.98 85.55,-699.87"/>
<polygon fill="#63b8ff" stroke="#63b8ff" points="83.89,-702.95 94.4,-704.29 87.02,-696.69 83.89,-702.95"/>
</a>
</g>
</g>
<!-- Node3 -->
<g id="Node000003" class="node">
<title>Node3</title>
<g id="a_Node000003"><a xlink:href="group___main_program.html#ga5ec1bf27394ea27ffb0109783ddf69ff" target="_top" xlink:title="Porovnání hodnoty elementu fronty pomocí iterátoru s hodnotou 43.">
<polygon fill="white" stroke="#666666" points="201.5,-345.2 73,-345.2 73,-325.2 201.5,-325.2 201.5,-345.2"/>
<text text-anchor="middle" x="137.25" y="-331.7" font-family="Helvetica,sans-Serif" font-size="10.00">is_element_with_value_43</text>
</a>
</g>
</g>
<!-- Node1&#45;&gt;Node3 -->
<g id="edge2_Node000001_Node000003" class="edge">
<title>Node1&#45;&gt;Node3</title>
<g id="a_edge2_Node000001_Node000003"><a xlink:title=" ">
<path fill="none" stroke="#63b8ff" d="M37.49,-351.27C44.28,-350.17 52.5,-348.83 61.27,-347.4"/>
<polygon fill="#63b8ff" stroke="#63b8ff" points="61.79,-350.86 71.1,-345.8 60.67,-343.95 61.79,-350.86"/>
</a>
</g>
</g>
<!-- Node4 -->
<g id="Node000004" class="node">
<title>Node4</title>
<g id="a_Node000004"><a xlink:href="group___t_queue_iterator.html#ga30db60bf663f58b83b1181d5406ec879" target="_top" xlink:title="Přečtení hodnoty elementu z fronty pomocí iterátoru.">
<polygon fill="white" stroke="#666666" points="347.25,-402.2 242.75,-402.2 242.75,-382.2 347.25,-382.2 347.25,-402.2"/>
<text text-anchor="middle" x="295" y="-388.7" font-family="Helvetica,sans-Serif" font-size="10.00">queue_iterator_value</text>
</a>
</g>
</g>
<!-- Node1&#45;&gt;Node4 -->
<g id="edge37_Node000001_Node000004" class="edge">
<title>Node1&#45;&gt;Node4</title>
<g id="a_edge37_Node000001_Node000004"><a xlink:title=" ">
<path fill="none" stroke="#63b8ff" d="M37.09,-356.63C75.41,-361.94 168.04,-374.76 230.94,-383.47"/>
<polygon fill="#63b8ff" stroke="#63b8ff" points="230.43,-386.93 240.82,-384.84 231.39,-380 230.43,-386.93"/>
</a>
</g>
</g>
<!-- Node5 -->
<g id="Node000005" class="node">
<title>Node5</title>
<g id="a_Node000005"><a xlink:href="group___t_queue_iterator.html#ga6cbf7aa3d466d2bf585fe988b8bc9593" target="_top" xlink:title="Zjištění platnosti iterátoru.">
<polygon fill="white" stroke="#666666" points="502.75,-553.2 388.5,-553.2 388.5,-533.2 502.75,-533.2 502.75,-553.2"/>
<text text-anchor="middle" x="445.62" y="-539.7" font-family="Helvetica,sans-Serif" font-size="10.00">queue_iterator_is_valid</text>
</a>
</g>
</g>
<!-- Node1&#45;&gt;Node5 -->
<g id="edge33_Node000001_Node000005" class="edge">
<title>Node1&#45;&gt;Node5</title>
<g id="a_edge33_Node000001_Node000005"><a xlink:title=" ">
<path fill="none" stroke="#63b8ff" d="M19.93,-364.58C22,-409.36 32.63,-585.19 73,-618.2 121.48,-657.84 293,-601.73 352.5,-582.2 373,-575.47 395.29,-566.09 412.82,-558.21"/>
<polygon fill="#63b8ff" stroke="#63b8ff" points="414.03,-561.51 421.68,-554.17 411.12,-555.14 414.03,-561.51"/>
</a>
</g>
</g>
<!-- Node6 -->
<g id="Node000006" class="node">
<title>Node6</title>
<g id="a_Node000006"><a xlink:href="group___main_program.html#ga46eef449f9e5694614f26704628baf7d" target="_top" xlink:title="Vytisknutí elementu fronty pomocí iterátoru.">
<polygon fill="white" stroke="#666666" points="174.5,-421.2 100,-421.2 100,-401.2 174.5,-401.2 174.5,-421.2"/>
<text text-anchor="middle" x="137.25" y="-407.7" font-family="Helvetica,sans-Serif" font-size="10.00">print_element</text>
</a>
</g>
</g>
<!-- Node1&#45;&gt;Node6 -->
<g id="edge5_Node000001_Node000006" class="edge">
<title>Node1&#45;&gt;Node6</title>
<g id="a_edge5_Node000001_Node000006"><a xlink:title=" ">
<path fill="none" stroke="#63b8ff" d="M34.51,-364.53C45,-371.47 59.49,-380.54 73,-387.2 79.87,-390.58 87.34,-393.8 94.66,-396.71"/>
<polygon fill="#63b8ff" stroke="#63b8ff" points="93.18,-399.9 103.77,-400.21 95.69,-393.36 93.18,-399.9"/>
</a>
</g>
</g>
<!-- Node7 -->
<g id="Node000007" class="node">
<title>Node7</title>
<g id="a_Node000007"><a xlink:href="group___t_queue.html#gabdf5c3e56234ff344f49c206632f7fbb" target="_top" xlink:title="Získání hodnoty elementu z konce fronty.">
<polygon fill="white" stroke="#666666" points="171.5,-307.2 103,-307.2 103,-287.2 171.5,-287.2 171.5,-307.2"/>
<text text-anchor="middle" x="137.25" y="-293.7" font-family="Helvetica,sans-Serif" font-size="10.00">queue_back</text>
</a>
</g>
</g>
<!-- Node1&#45;&gt;Node7 -->
<g id="edge7_Node000001_Node000007" class="edge">
<title>Node1&#45;&gt;Node7</title>
<g id="a_edge7_Node000001_Node000007"><a xlink:title=" ">
<path fill="none" stroke="#63b8ff" d="M31.52,-343.91C41.92,-335.46 57.65,-323.7 73,-316.2 78.94,-313.3 85.41,-310.74 91.87,-308.51"/>
<polygon fill="#63b8ff" stroke="#63b8ff" points="92.74,-311.91 101.21,-305.55 90.62,-305.24 92.74,-311.91"/>
</a>
</g>
</g>
<!-- Node9 -->
<g id="Node000009" class="node">
<title>Node9</title>
<g id="a_Node000009"><a xlink:href="group___t_queue.html#gaa9812b8f3c1b0707450f91283f97384c" target="_top" xlink:title="Zjištění, zda je fronta prázdná">
<polygon fill="white" stroke="#666666" points="338.62,-269.2 251.38,-269.2 251.38,-249.2 338.62,-249.2 338.62,-269.2"/>
<text text-anchor="middle" x="295" y="-255.7" font-family="Helvetica,sans-Serif" font-size="10.00">queue_is_empty</text>
</a>
</g>
</g>
<!-- Node1&#45;&gt;Node9 -->
<g id="edge29_Node000001_Node000009" class="edge">
<title>Node1&#45;&gt;Node9</title>
<g id="a_edge29_Node000001_Node000009"><a xlink:title=" ">
<path fill="none" stroke="#63b8ff" d="M23.36,-343.89C30.35,-326.86 46.84,-293.23 73,-278.2 123.9,-248.95 192.53,-247.8 239.74,-251.65"/>
<polygon fill="#63b8ff" stroke="#63b8ff" points="239.17,-255.11 249.45,-252.55 239.82,-248.14 239.17,-255.11"/>
</a>
</g>
</g>
<!-- Node10 -->
<g id="Node000010" class="node">
<title>Node10</title>
<g id="a_Node000010"><a xlink:href="group___t_queue.html#ga85b3f0ae9d6f44ca6c102df1e0619dc9" target="_top" xlink:title="Deinicializace fronty.">
<polygon fill="white" stroke="#666666" points="334.88,-155.2 255.12,-155.2 255.12,-135.2 334.88,-135.2 334.88,-155.2"/>
<text text-anchor="middle" x="295" y="-141.7" font-family="Helvetica,sans-Serif" font-size="10.00">queue_destroy</text>
</a>
</g>
</g>
<!-- Node1&#45;&gt;Node10 -->
<g id="edge11_Node000001_Node000010" class="edge">
<title>Node1&#45;&gt;Node10</title>
<g id="a_edge11_Node000001_Node000010"><a xlink:title=" ">
<path fill="none" stroke="#63b8ff" d="M20.85,-343.96C25.83,-307.94 44.35,-187.9 73,-164.2 120.25,-125.12 194.23,-127.3 243.4,-134.54"/>
<polygon fill="#63b8ff" stroke="#63b8ff" points="242.8,-137.99 253.22,-136.12 243.91,-131.08 242.8,-137.99"/>
</a>
</g>
</g>
<!-- Node11 -->
<g id="Node000011" class="node">
<title>Node11</title>
<g id="a_Node000011"><a xlink:href="group___iterator_algorithms.html#gadccc11c611587469295868641ce95925" target="_top" xlink:title="Vyhledání prvního elementu fronty splňujícího zadaný predikát.">
<polygon fill="white" stroke="#666666" points="173.38,-459.2 101.12,-459.2 101.12,-439.2 173.38,-439.2 173.38,-459.2"/>
<text text-anchor="middle" x="137.25" y="-445.7" font-family="Helvetica,sans-Serif" font-size="10.00">queue_find_if</text>
</a>
</g>
</g>
<!-- Node1&#45;&gt;Node11 -->
<g id="edge13_Node000001_Node000011" class="edge">
<title>Node1&#45;&gt;Node11</title>
<g id="a_edge13_Node000001_Node000011"><a xlink:title=" ">
<path fill="none" stroke="#63b8ff" d="M23.98,-364.47C31.63,-380.83 48.79,-412.74 73,-430.2 78.24,-433.98 84.24,-437.02 90.42,-439.45"/>
<polygon fill="#63b8ff" stroke="#63b8ff" points="88.83,-442.61 99.43,-442.53 91.09,-435.98 88.83,-442.61"/>
</a>
</g>
</g>
<!-- Node12 -->
<g id="Node000012" class="node">
<title>Node12</title>
<g id="a_Node000012"><a xlink:href="group___t_queue_iterator.html#gae7e6145571ff51446a96862cda3d6e07" target="_top" xlink:title="Posunutí iterátoru vpřed.">
<polygon fill="white" stroke="#666666" points="352.5,-553.2 237.5,-553.2 237.5,-533.2 352.5,-533.2 352.5,-553.2"/>
<text text-anchor="middle" x="295" y="-539.7" font-family="Helvetica,sans-Serif" font-size="10.00">queue_iterator_to_next</text>
</a>
</g>
</g>
<!-- Node1&#45;&gt;Node12 -->
<g id="edge36_Node000001_Node000012" class="edge">
<title>Node1&#45;&gt;Node12</title>
<g id="a_edge36_Node000001_Node000012"><a xlink:title=" ">
<path fill="none" stroke="#63b8ff" d="M19.16,-364.32C18.75,-394.35 22.07,-483.36 73,-524.2 117.09,-559.55 183.24,-560.62 231.68,-555.09"/>
<polygon fill="#63b8ff" stroke="#63b8ff" points="231.99,-558.58 241.47,-553.84 231.11,-551.63 231.99,-558.58"/>
</a>
</g>
</g>
<!-- Node13 -->
<g id="Node000013" class="node">
<title>Node13</title>
<g id="a_Node000013"><a xlink:href="group___iterator_algorithms.html#ga299db40016266a1a943c32a3a528ea9b" target="_top" xlink:title="Vyhledání prvního elementu fronty nesplňujícího zadaný predikát.">
<polygon fill="white" stroke="#666666" points="182.75,-591.2 91.75,-591.2 91.75,-571.2 182.75,-571.2 182.75,-591.2"/>
<text text-anchor="middle" x="137.25" y="-577.7" font-family="Helvetica,sans-Serif" font-size="10.00">queue_find_if_not</text>
</a>
</g>
</g>
<!-- Node1&#45;&gt;Node13 -->
<g id="edge17_Node000001_Node000013" class="edge">
<title>Node1&#45;&gt;Node13</title>
<g id="a_edge17_Node000001_Node000013"><a xlink:title=" ">
<path fill="none" stroke="#63b8ff" d="M19.13,-364.57C18.52,-397.28 21.06,-499.5 73,-557.2 75.8,-560.31 79.04,-563.01 82.55,-565.37"/>
<polygon fill="#63b8ff" stroke="#63b8ff" points="80.58,-568.28 91.02,-570.1 83.99,-562.17 80.58,-568.28"/>
</a>
</g>
</g>
<!-- Node14 -->
<g id="Node000014" class="node">
<title>Node14</title>
<g id="a_Node000014"><a xlink:href="group___iterator_algorithms.html#gade8cfe850fd247bfb33b1aa44e13bcff" target="_top" xlink:title="Zavolání zvolené funkce na každý element fronty od pozice určené iterátorem až do konce fronty.">
<polygon fill="white" stroke="#666666" points="179.38,-515.2 95.12,-515.2 95.12,-495.2 179.38,-495.2 179.38,-515.2"/>
<text text-anchor="middle" x="137.25" y="-501.7" font-family="Helvetica,sans-Serif" font-size="10.00">queue_for_each</text>
</a>
</g>
</g>
<!-- Node1&#45;&gt;Node14 -->
<g id="edge21_Node000001_Node000014" class="edge">
<title>Node1&#45;&gt;Node14</title>
<g id="a_edge21_Node000001_Node000014"><a xlink:title=" ">
<path fill="none" stroke="#63b8ff" d="M20.66,-364.48C23.99,-389.2 35.89,-452.4 73,-486.2 76.34,-489.24 80.14,-491.79 84.2,-493.94"/>
<polygon fill="#63b8ff" stroke="#63b8ff" points="82.7,-497.1 93.27,-497.87 85.49,-490.68 82.7,-497.1"/>
</a>
</g>
</g>
<!-- Node15 -->
<g id="Node000015" class="node">
<title>Node15</title>
<g id="a_Node000015"><a xlink:href="group___t_queue.html#gadf7ec766208c056364fba19f6d6b5d3f" target="_top" xlink:title="Získání hodnoty elementu z čela fronty.">
<polygon fill="white" stroke="#666666" points="170.38,-231.2 104.12,-231.2 104.12,-211.2 170.38,-211.2 170.38,-231.2"/>
<text text-anchor="middle" x="137.25" y="-217.7" font-family="Helvetica,sans-Serif" font-size="10.00">queue_front</text>
</a>
</g>
</g>
<!-- Node1&#45;&gt;Node15 -->
<g id="edge24_Node000001_Node000015" class="edge">
<title>Node1&#45;&gt;Node15</title>
<g id="a_edge24_Node000001_Node000015"><a xlink:title=" ">
<path fill="none" stroke="#63b8ff" d="M21.82,-343.95C27.16,-322.63 42.29,-273.16 73,-245.2 78.78,-239.94 85.82,-235.79 93.09,-232.54"/>
<polygon fill="#63b8ff" stroke="#63b8ff" points="94.31,-235.82 102.35,-228.92 91.76,-229.29 94.31,-235.82"/>
</a>
</g>
</g>
<!-- Node16 -->
<g id="Node000016" class="node">
<title>Node16</title>
<g id="a_Node000016"><a xlink:href="group___t_queue.html#gaed24a08c3da331c9d4651464901f9acc" target="_top" xlink:title="Inicializace prázdné fronty.">
<polygon fill="white" stroke="#666666" points="325.12,-117.2 264.88,-117.2 264.88,-97.2 325.12,-97.2 325.12,-117.2"/>
<text text-anchor="middle" x="295" y="-103.7" font-family="Helvetica,sans-Serif" font-size="10.00">queue_init</text>
</a>
</g>
</g>
<!-- Node1&#45;&gt;Node16 -->
<g id="edge27_Node000001_Node000016" class="edge">
<title>Node1&#45;&gt;Node16</title>
<g id="a_edge27_Node000001_Node000016"><a xlink:title=" ">
<path fill="none" stroke="#63b8ff" d="M20.35,-343.95C23.91,-303.48 39.09,-155.52 73,-126.2 122.75,-83.17 204.5,-89.1 253.39,-97.82"/>
<polygon fill="#63b8ff" stroke="#63b8ff" points="252.52,-101.21 263,-99.66 253.84,-94.34 252.52,-101.21"/>
</a>
</g>
</g>
<!-- Node17 -->
<g id="Node000017" class="node">
<title>Node17</title>
<g id="a_Node000017"><a xlink:href="group___t_queue_iterator.html#gad0164ae101775a2ee1387b0a514d1f45" target="_top" xlink:title="Vytvoření nového iterátoru ukazujícího na čelo fronty.">
<polygon fill="white" stroke="#666666" points="348,-61.2 242,-61.2 242,-41.2 348,-41.2 348,-61.2"/>
<text text-anchor="middle" x="295" y="-47.7" font-family="Helvetica,sans-Serif" font-size="10.00">queue_iterator_begin</text>
</a>
</g>
</g>
<!-- Node1&#45;&gt;Node17 -->
<g id="edge30_Node000001_Node000017" class="edge">
<title>Node1&#45;&gt;Node17</title>
<g id="a_edge30_Node000001_Node000017"><a xlink:title=" ">
<path fill="none" stroke="#63b8ff" d="M20.05,-343.86C22.62,-299.23 35.06,-123.79 73,-87.2 114.15,-47.52 180.94,-41.55 230.34,-43.65"/>
<polygon fill="#63b8ff" stroke="#63b8ff" points="229.86,-47.13 240.04,-44.19 230.25,-40.14 229.86,-47.13"/>
</a>
</g>
</g>
<!-- Node18 -->
<g id="Node000018" class="node">
<title>Node18</title>
<g id="a_Node000018"><a xlink:href="group___t_queue_iterator.html#ga43c723f0d3c461ff6b340e3a22885c94" target="_top" xlink:title="Zapsání hodnoty elementu do fronty pomocí iterátoru.">
<polygon fill="white" stroke="#666666" points="343.12,-697.2 246.88,-697.2 246.88,-665.2 343.12,-665.2 343.12,-697.2"/>
<text text-anchor="start" x="254.88" y="-683.7" font-family="Helvetica,sans-Serif" font-size="10.00">queue_iterator_set</text>
<text text-anchor="middle" x="295" y="-671.7" font-family="Helvetica,sans-Serif" font-size="10.00">_value</text>
</a>
</g>
</g>
<!-- Node1&#45;&gt;Node18 -->
<g id="edge34_Node000001_Node000018" class="edge">
<title>Node1&#45;&gt;Node18</title>
<g id="a_edge34_Node000001_Node000018"><a xlink:title=" ">
<path fill="none" stroke="#63b8ff" d="M19.79,-364.42C21.36,-411.9 30.43,-610.43 73,-651.2 115.55,-691.94 185.59,-694.85 235.41,-690.51"/>
<polygon fill="#63b8ff" stroke="#63b8ff" points="235.55,-694.01 245.15,-689.53 234.85,-687.05 235.55,-694.01"/>
</a>
</g>
</g>
<!-- Node19 -->
<g id="Node000019" class="node">
<title>Node19</title>
<g id="a_Node000019"><a xlink:href="group___t_queue.html#ga100499d1e5ff881cd97b03484f6e744b" target="_top" xlink:title="Odstranění elementu z čela fronty.">
<polygon fill="white" stroke="#666666" points="168.88,-193.2 105.62,-193.2 105.62,-173.2 168.88,-173.2 168.88,-193.2"/>
<text text-anchor="middle" x="137.25" y="-179.7" font-family="Helvetica,sans-Serif" font-size="10.00">queue_pop</text>
</a>
</g>
</g>
<!-- Node1&#45;&gt;Node19 -->
<g id="edge38_Node000001_Node000019" class="edge">
<title>Node1&#45;&gt;Node19</title>
<g id="a_edge38_Node000001_Node000019"><a xlink:title=" ">
<path fill="none" stroke="#63b8ff" d="M20.03,-344.02C21.98,-316.89 31.11,-242.18 73,-202.2 78.92,-196.55 86.45,-192.57 94.24,-189.78"/>
<polygon fill="#63b8ff" stroke="#63b8ff" points="95.21,-193.14 103.83,-186.98 93.25,-186.42 95.21,-193.14"/>
</a>
</g>
</g>
<!-- Node20 -->
<g id="Node000020" class="node">
<title>Node20</title>
<g id="a_Node000020"><a xlink:href="group___t_queue.html#gab5ceca2541159a4e940cb4b80bba411b" target="_top" xlink:title="Vložení elementu na konec fronty.">
<polygon fill="white" stroke="#666666" points="329.25,-23.2 260.75,-23.2 260.75,-3.2 329.25,-3.2 329.25,-23.2"/>
<text text-anchor="middle" x="295" y="-9.7" font-family="Helvetica,sans-Serif" font-size="10.00">queue_push</text>
</a>
</g>
</g>
<!-- Node1&#45;&gt;Node20 -->
<g id="edge41_Node000001_Node000020" class="edge">
<title>Node1&#45;&gt;Node20</title>
<g id="a_edge41_Node000001_Node000020"><a xlink:title=" ">
<path fill="none" stroke="#63b8ff" d="M19.66,-344.01C20.65,-294.82 27.56,-82.37 73,-39.2 119.77,5.24 199.56,2.76 249.39,-4.33"/>
<polygon fill="#63b8ff" stroke="#63b8ff" points="248.55,-7.74 258.97,-5.82 249.62,-0.82 248.55,-7.74"/>
</a>
</g>
</g>
<!-- Node3&#45;&gt;Node4 -->
<g id="edge3_Node000003_Node000004" class="edge">
<title>Node3&#45;&gt;Node4</title>
<g id="a_edge3_Node000003_Node000004"><a xlink:title=" ">
<path fill="none" stroke="#63b8ff" d="M166.82,-345.65C191.44,-354.66 227.23,-367.76 254.58,-377.77"/>
<polygon fill="#63b8ff" stroke="#63b8ff" points="253.34,-381.04 263.93,-381.19 255.74,-374.47 253.34,-381.04"/>
</a>
</g>
</g>
<!-- Node4&#45;&gt;Node5 -->
<g id="edge4_Node000004_Node000005" class="edge">
<title>Node4&#45;&gt;Node5</title>
<g id="a_edge4_Node000004_Node000005"><a xlink:title=" ">
<path fill="none" stroke="#63b8ff" d="M307.93,-402.7C319.54,-413.02 337.57,-429.35 352.5,-444.2 379.78,-471.33 409.89,-504.3 428.03,-524.51"/>
<polygon fill="#63b8ff" stroke="#63b8ff" points="425.18,-526.58 434.45,-531.71 430.4,-521.92 425.18,-526.58"/>
</a>
</g>
</g>
<!-- Node6&#45;&gt;Node4 -->
<g id="edge6_Node000006_Node000004" class="edge">
<title>Node6&#45;&gt;Node4</title>
<g id="a_edge6_Node000006_Node000004"><a xlink:title=" ">
<path fill="none" stroke="#63b8ff" d="M174.77,-406.74C191.52,-404.7 211.88,-402.22 231,-399.88"/>
<polygon fill="#63b8ff" stroke="#63b8ff" points="231.38,-403.36 240.88,-398.68 230.53,-396.42 231.38,-403.36"/>
</a>
</g>
</g>
<!-- Node8 -->
<g id="Node000008" class="node">
<title>Node8</title>
<g id="a_Node000008"><a xlink:href="_t_queue_8c.html#ae5f315571880047e27e4417d5b3cf110" target="_top" xlink:title=" ">
<polygon fill="white" stroke="#666666" points="487,-174.2 404.25,-174.2 404.25,-154.2 487,-154.2 487,-174.2"/>
<text text-anchor="middle" x="445.62" y="-160.7" font-family="Helvetica,sans-Serif" font-size="10.00">queue_invariant</text>
</a>
</g>
</g>
<!-- Node7&#45;&gt;Node8 -->
<g id="edge8_Node000007_Node000008" class="edge">
<title>Node7&#45;&gt;Node8</title>
<g id="a_edge8_Node000007_Node000008"><a xlink:title=" ">
<path fill="none" stroke="#63b8ff" d="M171.7,-301.93C215.89,-306.53 294.83,-308.94 352.5,-278.2 391.99,-257.14 420.7,-211.21 434.81,-184.52"/>
<polygon fill="#63b8ff" stroke="#63b8ff" points="437.86,-186.24 439.26,-175.74 431.62,-183.08 437.86,-186.24"/>
</a>
</g>
</g>
<!-- Node7&#45;&gt;Node9 -->
<g id="edge9_Node000007_Node000009" class="edge">
<title>Node7&#45;&gt;Node9</title>
<g id="a_edge9_Node000007_Node000009"><a xlink:title=" ">
<path fill="none" stroke="#63b8ff" d="M171.66,-289.05C191.63,-284.17 217.47,-277.87 240.25,-272.31"/>
<polygon fill="#63b8ff" stroke="#63b8ff" points="240.8,-275.78 249.68,-270.01 239.14,-268.98 240.8,-275.78"/>
</a>
</g>
</g>
<!-- Node9&#45;&gt;Node8 -->
<g id="edge10_Node000009_Node000008" class="edge">
<title>Node9&#45;&gt;Node8</title>
<g id="a_edge10_Node000009_Node000008"><a xlink:title=" ">
<path fill="none" stroke="#63b8ff" d="M324.56,-248.73C333.73,-244.93 343.76,-240.31 352.5,-235.2 379.07,-219.66 406.66,-197.45 424.64,-182.03"/>
<polygon fill="#63b8ff" stroke="#63b8ff" points="426.72,-184.85 431.96,-175.65 422.12,-179.58 426.72,-184.85"/>
</a>
</g>
</g>
<!-- Node10&#45;&gt;Node8 -->
<g id="edge12_Node000010_Node000008" class="edge">
<title>Node10&#45;&gt;Node8</title>
<g id="a_edge12_Node000010_Node000008"><a xlink:title=" ">
<path fill="none" stroke="#63b8ff" d="M335.05,-150.19C352.57,-152.43 373.5,-155.11 392.34,-157.52"/>
<polygon fill="#63b8ff" stroke="#63b8ff" points="391.9,-160.99 402.26,-158.78 392.78,-154.04 391.9,-160.99"/>
</a>
</g>
</g>
<!-- Node11&#45;&gt;Node5 -->
<g id="edge15_Node000011_Node000005" class="edge">
<title>Node11&#45;&gt;Node5</title>
<g id="a_edge15_Node000011_Node000005"><a xlink:title=" ">
<path fill="none" stroke="#63b8ff" d="M173.86,-457.58C216.65,-467.95 290.47,-486.75 352.5,-507.2 371.63,-513.51 392.57,-521.59 409.65,-528.5"/>
<polygon fill="#63b8ff" stroke="#63b8ff" points="408.27,-531.72 418.85,-532.27 410.92,-525.24 408.27,-531.72"/>
</a>
</g>
</g>
<!-- Node11&#45;&gt;Node11 -->
<g id="edge14_Node000011_Node000011" class="edge">
<title>Node11&#45;&gt;Node11</title>
<g id="a_edge14_Node000011_Node000011"><a xlink:title=" ">
<path fill="none" stroke="#63b8ff" d="M118.38,-459.54C110.32,-468.17 116.61,-477.2 137.25,-477.2 148.54,-477.2 155.53,-474.5 158.24,-470.64"/>
<polygon fill="#63b8ff" stroke="#63b8ff" points="161.72,-470.19 156.4,-461.02 154.84,-471.5 161.72,-470.19"/>
</a>
</g>
</g>
<!-- Node11&#45;&gt;Node12 -->
<g id="edge16_Node000011_Node000012" class="edge">
<title>Node11&#45;&gt;Node12</title>
<g id="a_edge16_Node000011_Node000012"><a xlink:title=" ">
<path fill="none" stroke="#63b8ff" d="M156.31,-459.62C169,-466.97 186.34,-477.1 201.5,-486.2 223.91,-499.66 249.16,-515.25 267.61,-526.72"/>
<polygon fill="#63b8ff" stroke="#63b8ff" points="265.74,-529.67 276.08,-531.99 269.44,-523.73 265.74,-529.67"/>
</a>
</g>
</g>
<!-- Node13&#45;&gt;Node5 -->
<g id="edge19_Node000013_Node000005" class="edge">
<title>Node13&#45;&gt;Node5</title>
<g id="a_edge19_Node000013_Node000005"><a xlink:title=" ">
<path fill="none" stroke="#63b8ff" d="M183.15,-578.72C226.63,-575.97 294.31,-570.75 352.5,-562.2 364.13,-560.49 376.51,-558.24 388.29,-555.89"/>
<polygon fill="#63b8ff" stroke="#63b8ff" points="388.78,-559.36 397.87,-553.92 387.37,-552.5 388.78,-559.36"/>
</a>
</g>
</g>
<!-- Node13&#45;&gt;Node12 -->
<g id="edge20_Node000013_Node000012" class="edge">
<title>Node13&#45;&gt;Node12</title>
<g id="a_edge20_Node000013_Node000012"><a xlink:title=" ">
<path fill="none" stroke="#63b8ff" d="M181.22,-570.71C199.44,-566.27 220.86,-561.04 240.12,-556.34"/>
<polygon fill="#63b8ff" stroke="#63b8ff" points="240.81,-559.78 249.7,-554.01 239.15,-552.98 240.81,-559.78"/>
</a>
</g>
</g>
<!-- Node13&#45;&gt;Node13 -->
<g id="edge18_Node000013_Node000013" class="edge">
<title>Node13&#45;&gt;Node13</title>
<g id="a_edge18_Node000013_Node000013"><a xlink:title=" ">
<path fill="none" stroke="#63b8ff" d="M118.38,-591.54C110.32,-600.17 116.61,-609.2 137.25,-609.2 148.54,-609.2 155.53,-606.5 158.24,-602.64"/>
<polygon fill="#63b8ff" stroke="#63b8ff" points="161.72,-602.19 156.4,-593.02 154.84,-603.5 161.72,-602.19"/>
</a>
</g>
</g>
<!-- Node14&#45;&gt;Node5 -->
<g id="edge22_Node000014_Node000005" class="edge">
<title>Node14&#45;&gt;Node5</title>
<g id="a_edge22_Node000014_Node000005"><a xlink:title=" ">
<path fill="none" stroke="#63b8ff" d="M179.49,-507.44C222.75,-510.13 292.65,-515.4 352.5,-524.2 364.13,-525.91 376.51,-528.16 388.29,-530.51"/>
<polygon fill="#63b8ff" stroke="#63b8ff" points="387.37,-533.9 397.87,-532.48 388.78,-527.04 387.37,-533.9"/>
</a>
</g>
</g>
<!-- Node14&#45;&gt;Node12 -->
<g id="edge23_Node000014_Node000012" class="edge">
<title>Node14&#45;&gt;Node12</title>
<g id="a_edge23_Node000014_Node000012"><a xlink:title=" ">
<path fill="none" stroke="#63b8ff" d="M179.58,-515.28C198.12,-519.81 220.24,-525.2 240.07,-530.04"/>
<polygon fill="#63b8ff" stroke="#63b8ff" points="239.1,-533.41 249.65,-532.38 240.76,-526.61 239.1,-533.41"/>
</a>
</g>
</g>
<!-- Node15&#45;&gt;Node8 -->
<g id="edge25_Node000015_Node000008" class="edge">
<title>Node15&#45;&gt;Node8</title>
<g id="a_edge25_Node000015_Node000008"><a xlink:title=" ">
<path fill="none" stroke="#63b8ff" d="M170.71,-216.95C212.82,-211.22 288.47,-200.25 352.5,-187.2 366.26,-184.4 381.05,-180.91 394.68,-177.51"/>
<polygon fill="#63b8ff" stroke="#63b8ff" points="395.5,-180.91 404.33,-175.06 393.78,-174.13 395.5,-180.91"/>
</a>
</g>
</g>
<!-- Node15&#45;&gt;Node9 -->
<g id="edge26_Node000015_Node000009" class="edge">
<title>Node15&#45;&gt;Node9</title>
<g id="a_edge26_Node000015_Node000009"><a xlink:title=" ">
<path fill="none" stroke="#63b8ff" d="M170.52,-229.07C190.58,-233.97 216.88,-240.38 240.05,-246.04"/>
<polygon fill="#63b8ff" stroke="#63b8ff" points="239.11,-249.41 249.66,-248.38 240.77,-242.61 239.11,-249.41"/>
</a>
</g>
</g>
<!-- Node16&#45;&gt;Node8 -->
<g id="edge28_Node000016_Node000008" class="edge">
<title>Node16&#45;&gt;Node8</title>
<g id="a_edge28_Node000016_Node000008"><a xlink:title=" ">
<path fill="none" stroke="#63b8ff" d="M325.46,-116.69C334.2,-119.62 343.78,-122.94 352.5,-126.2 371.82,-133.42 393.14,-142.16 410.39,-149.44"/>
<polygon fill="#63b8ff" stroke="#63b8ff" points="408.59,-152.48 419.16,-153.16 411.32,-146.03 408.59,-152.48"/>
</a>
</g>
</g>
<!-- Node17&#45;&gt;Node8 -->
<g id="edge31_Node000017_Node000008" class="edge">
<title>Node17&#45;&gt;Node8</title>
<g id="a_edge31_Node000017_Node000008"><a xlink:title=" ">
<path fill="none" stroke="#63b8ff" d="M312.64,-61.42C324.07,-68.6 339.47,-78.6 352.5,-88.2 378.09,-107.05 406.06,-130.57 424.39,-146.41"/>
<polygon fill="#63b8ff" stroke="#63b8ff" points="422.05,-149.02 431.89,-152.94 426.65,-143.73 422.05,-149.02"/>
</a>
</g>
</g>
<!-- Node17&#45;&gt;Node17 -->
<g id="edge32_Node000017_Node000017" class="edge">
<title>Node17&#45;&gt;Node17</title>
<g id="a_edge32_Node000017_Node000017"><a xlink:title=" ">
<path fill="none" stroke="#63b8ff" d="M271.07,-61.54C260.84,-70.17 268.82,-79.2 295,-79.2 309.32,-79.2 318.19,-76.5 321.62,-72.64"/>
<polygon fill="#63b8ff" stroke="#63b8ff" points="325.04,-71.9 319.29,-63.01 318.24,-73.55 325.04,-71.9"/>
</a>
</g>
</g>
<!-- Node18&#45;&gt;Node5 -->
<g id="edge35_Node000018_Node000005" class="edge">
<title>Node18&#45;&gt;Node5</title>
<g id="a_edge35_Node000018_Node000005"><a xlink:title=" ">
<path fill="none" stroke="#63b8ff" d="M331.94,-664.74C339.07,-660.77 346.26,-656.2 352.5,-651.2 385.15,-625 415.03,-586.02 431.44,-562.75"/>
<polygon fill="#63b8ff" stroke="#63b8ff" points="434.14,-565.01 436.95,-554.79 428.38,-561.03 434.14,-565.01"/>
</a>
</g>
</g>
<!-- Node19&#45;&gt;Node8 -->
<g id="edge39_Node000019_Node000008" class="edge">
<title>Node19&#45;&gt;Node8</title>
<g id="a_edge39_Node000019_Node000008"><a xlink:title=" ">
<path fill="none" stroke="#63b8ff" d="M169.31,-181.27C221.73,-178.02 328.28,-171.41 392.37,-167.44"/>
<polygon fill="#63b8ff" stroke="#63b8ff" points="392.54,-170.94 402.3,-166.82 392.11,-163.95 392.54,-170.94"/>
</a>
</g>
</g>
<!-- Node19&#45;&gt;Node9 -->
<g id="edge40_Node000019_Node000009" class="edge">
<title>Node19&#45;&gt;Node9</title>
<g id="a_edge40_Node000019_Node000009"><a xlink:title=" ">
<path fill="none" stroke="#63b8ff" d="M169.08,-190.72C179.58,-193.73 191.25,-197.6 201.5,-202.2 226.33,-213.35 252.55,-230.03 270.71,-242.48"/>
<polygon fill="#63b8ff" stroke="#63b8ff" points="268.46,-245.18 278.67,-248.02 272.47,-239.43 268.46,-245.18"/>
</a>
</g>
</g>
<!-- Node20&#45;&gt;Node8 -->
<g id="edge42_Node000020_Node000008" class="edge">
<title>Node20&#45;&gt;Node8</title>
<g id="a_edge42_Node000020_Node000008"><a xlink:title=" ">
<path fill="none" stroke="#63b8ff" d="M329.71,-20.65C337.67,-23.43 345.79,-27.17 352.5,-32.2 392.58,-62.23 421.69,-114.9 435.55,-143.8"/>
<polygon fill="#63b8ff" stroke="#63b8ff" points="432.23,-144.97 439.62,-152.57 438.59,-142.02 432.23,-144.97"/>
</a>
</g>
</g>
</g>
</svg>
