<?xml version="1.0" encoding="UTF-8" standalone="no"?>
<!DOCTYPE svg PUBLIC "-//W3C//DTD SVG 1.1//EN"
 "http://www.w3.org/Graphics/SVG/1.1/DTD/svg11.dtd">
<!-- Generated by graphviz version 11.0.0 (20240428.1522)
 -->
<!-- Title: queue_front Pages: 1 -->
<svg width="316pt" height="47pt"
 viewBox="0.00 0.00 316.25 47.00" xmlns="http://www.w3.org/2000/svg" xmlns:xlink="http://www.w3.org/1999/xlink">
<g id="graph0" class="graph" transform="scale(1 1) rotate(0) translate(4 43)">
<title>queue_front</title>
<!-- Node1 -->
<g id="Node000001" class="node">
<title>Node1</title>
<g id="a_Node000001"><a xlink:title="Získání hodnoty elementu z čela fronty.">
<polygon fill="#999999" stroke="#666666" points="66.25,-39 0,-39 0,-19 66.25,-19 66.25,-39"/>
<text text-anchor="middle" x="33.12" y="-25.5" font-family="Helvetica,sans-Serif" font-size="10.00">queue_front</text>
</a>
</g>
</g>
<!-- Node2 -->
<g id="Node000002" class="node">
<title>Node2</title>
<g id="a_Node000002"><a xlink:href="_t_queue_8c.html#ae5f315571880047e27e4417d5b3cf110" target="_top" xlink:title=" ">
<polygon fill="white" stroke="#666666" points="308.25,-39 225.5,-39 225.5,-19 308.25,-19 308.25,-39"/>
<text text-anchor="middle" x="266.88" y="-25.5" font-family="Helvetica,sans-Serif" font-size="10.00">queue_invariant</text>
</a>
</g>
</g>
<!-- Node1&#45;&gt;Node2 -->
<g id="edge1_Node000001_Node000002" class="edge">
<title>Node1&#45;&gt;Node2</title>
<g id="a_edge1_Node000001_Node000002"><a xlink:title=" ">
<path fill="none" stroke="#63b8ff" d="M66.35,-29C104.56,-29 168.77,-29 214.01,-29"/>
<polygon fill="#63b8ff" stroke="#63b8ff" points="213.84,-32.5 223.84,-29 213.84,-25.5 213.84,-32.5"/>
</a>
</g>
</g>
<!-- Node3 -->
<g id="Node000003" class="node">
<title>Node3</title>
<g id="a_Node000003"><a xlink:href="group___t_queue.html#gaa9812b8f3c1b0707450f91283f97384c" target="_top" xlink:title="Zjištění, zda je fronta prázdná">
<polygon fill="white" stroke="#666666" points="189.5,-20 102.25,-20 102.25,0 189.5,0 189.5,-20"/>
<text text-anchor="middle" x="145.88" y="-6.5" font-family="Helvetica,sans-Serif" font-size="10.00">queue_is_empty</text>
</a>
</g>
</g>
<!-- Node1&#45;&gt;Node3 -->
<g id="edge2_Node000001_Node000003" class="edge">
<title>Node1&#45;&gt;Node3</title>
<g id="a_edge2_Node000001_Node000003"><a xlink:title=" ">
<path fill="none" stroke="#63b8ff" d="M66.46,-23.45C74.09,-22.14 82.44,-20.71 90.76,-19.28"/>
<polygon fill="#63b8ff" stroke="#63b8ff" points="91.24,-22.75 100.5,-17.61 90.06,-15.85 91.24,-22.75"/>
</a>
</g>
</g>
<!-- Node3&#45;&gt;Node2 -->
<g id="edge3_Node000003_Node000002" class="edge">
<title>Node3&#45;&gt;Node2</title>
<g id="a_edge3_Node000003_Node000002"><a xlink:title=" ">
<path fill="none" stroke="#63b8ff" d="M189.84,-16.86C197.71,-18.12 206,-19.44 214.1,-20.73"/>
<polygon fill="#63b8ff" stroke="#63b8ff" points="213.44,-24.17 223.86,-22.29 214.54,-17.26 213.44,-24.17"/>
</a>
</g>
</g>
</g>
</svg>
