<?xml version="1.0" encoding="UTF-8" standalone="no"?>
<!DOCTYPE svg PUBLIC "-//W3C//DTD SVG 1.1//EN"
 "http://www.w3.org/Graphics/SVG/1.1/DTD/svg11.dtd">
<!-- Generated by graphviz version 11.0.0 (20240428.1522)
 -->
<!-- Title: queue_find_if Pages: 1 -->
<svg width="231pt" height="66pt"
 viewBox="0.00 0.00 231.25 66.00" xmlns="http://www.w3.org/2000/svg" xmlns:xlink="http://www.w3.org/1999/xlink">
<g id="graph0" class="graph" transform="scale(1 1) rotate(0) translate(4 62)">
<title>queue_find_if</title>
<!-- Node1 -->
<g id="Node000001" class="node">
<title>Node1</title>
<g id="a_Node000001"><a xlink:title="Vyhledání prvního elementu fronty splňujícího zadaný predikát.">
<polygon fill="#999999" stroke="#666666" points="72.25,-39 0,-39 0,-19 72.25,-19 72.25,-39"/>
<text text-anchor="middle" x="36.12" y="-25.5" font-family="Helvetica,sans-Serif" font-size="10.00">queue_find_if</text>
</a>
</g>
</g>
<!-- Node1&#45;&gt;Node1 -->
<g id="edge1_Node000001_Node000001" class="edge">
<title>Node1&#45;&gt;Node1</title>
<g id="a_edge1_Node000001_Node000001"><a xlink:title=" ">
<path fill="none" stroke="#63b8ff" d="M15.53,-39.34C6.73,-47.98 13.59,-57 36.12,-57 48.45,-57 56.08,-54.3 59.04,-50.44"/>
<polygon fill="#63b8ff" stroke="#63b8ff" points="62.5,-49.9 57.03,-40.82 55.64,-51.32 62.5,-49.9"/>
</a>
</g>
</g>
<!-- Node2 -->
<g id="Node000002" class="node">
<title>Node2</title>
<g id="a_Node000002"><a xlink:href="group___t_queue_iterator.html#ga6cbf7aa3d466d2bf585fe988b8bc9593" target="_top" xlink:title="Zjištění platnosti iterátoru.">
<polygon fill="white" stroke="#666666" points="222.88,-58 108.62,-58 108.62,-38 222.88,-38 222.88,-58"/>
<text text-anchor="middle" x="165.75" y="-44.5" font-family="Helvetica,sans-Serif" font-size="10.00">queue_iterator_is_valid</text>
</a>
</g>
</g>
<!-- Node1&#45;&gt;Node2 -->
<g id="edge2_Node000001_Node000002" class="edge">
<title>Node1&#45;&gt;Node2</title>
<g id="a_edge2_Node000001_Node000002"><a xlink:title=" ">
<path fill="none" stroke="#63b8ff" d="M72.68,-34.29C80.37,-35.44 88.75,-36.69 97.21,-37.95"/>
<polygon fill="#63b8ff" stroke="#63b8ff" points="96.44,-41.37 106.85,-39.38 97.47,-34.45 96.44,-41.37"/>
</a>
</g>
</g>
<!-- Node3 -->
<g id="Node000003" class="node">
<title>Node3</title>
<g id="a_Node000003"><a xlink:href="group___t_queue_iterator.html#gae7e6145571ff51446a96862cda3d6e07" target="_top" xlink:title="Posunutí iterátoru vpřed.">
<polygon fill="white" stroke="#666666" points="223.25,-20 108.25,-20 108.25,0 223.25,0 223.25,-20"/>
<text text-anchor="middle" x="165.75" y="-6.5" font-family="Helvetica,sans-Serif" font-size="10.00">queue_iterator_to_next</text>
</a>
</g>
</g>
<!-- Node1&#45;&gt;Node3 -->
<g id="edge3_Node000001_Node000003" class="edge">
<title>Node1&#45;&gt;Node3</title>
<g id="a_edge3_Node000001_Node000003"><a xlink:title=" ">
<path fill="none" stroke="#63b8ff" d="M72.68,-23.71C80.18,-22.59 88.34,-21.38 96.59,-20.15"/>
<polygon fill="#63b8ff" stroke="#63b8ff" points="96.99,-23.63 106.36,-18.69 95.96,-16.7 96.99,-23.63"/>
</a>
</g>
</g>
</g>
</svg>
