<?xml version="1.0" encoding="UTF-8" standalone="no"?>
<!DOCTYPE svg PUBLIC "-//W3C//DTD SVG 1.1//EN"
 "http://www.w3.org/Graphics/SVG/1.1/DTD/svg11.dtd">
<!-- Generated by graphviz version 11.0.0 (20240428.1522)
 -->
<!-- Title: queue_iterator_to_next Pages: 1 -->
<svg width="327pt" height="218pt"
 viewBox="0.00 0.00 326.75 217.92" xmlns="http://www.w3.org/2000/svg" xmlns:xlink="http://www.w3.org/1999/xlink">
<g id="graph0" class="graph" transform="scale(1 1) rotate(0) translate(4 213.92)">
<title>queue_iterator_to_next</title>
<!-- Node1 -->
<g id="Node000001" class="node">
<title>Node1</title>
<g id="a_Node000001"><a xlink:title="Posunutí iterátoru vpřed.">
<polygon fill="#999999" stroke="#666666" points="318.75,-114 203.75,-114 203.75,-94 318.75,-94 318.75,-114"/>
<text text-anchor="middle" x="261.25" y="-100.5" font-family="Helvetica,sans-Serif" font-size="10.00">queue_iterator_to_next</text>
</a>
</g>
</g>
<!-- Node2 -->
<g id="Node000002" class="node">
<title>Node2</title>
<g id="a_Node000002"><a xlink:href="group___main_program.html#ga0ddf1224851353fc92bfbff6f499fa97" target="_top" xlink:title=" ">
<polygon fill="white" stroke="#666666" points="37,-142 0,-142 0,-122 37,-122 37,-142"/>
<text text-anchor="middle" x="18.5" y="-128.5" font-family="Helvetica,sans-Serif" font-size="10.00">main</text>
</a>
</g>
</g>
<!-- Node1&#45;&gt;Node2 -->
<g id="edge1_Node000001_Node000002" class="edge">
<title>Node1&#45;&gt;Node2</title>
<g id="a_edge1_Node000001_Node000002"><a xlink:title=" ">
<path fill="none" stroke="#63b8ff" d="M247.8,-123.76C232.25,-146.38 203.31,-182.22 167.75,-197 128.87,-213.17 111.08,-214.98 73,-197 48.95,-185.64 32.05,-157.58 24.3,-142.31"/>
<polygon fill="#63b8ff" stroke="#63b8ff" points="250.55,-125.95 253.15,-115.68 244.71,-122.09 250.55,-125.95"/>
</a>
</g>
</g>
<!-- Node3 -->
<g id="Node000003" class="node">
<title>Node3</title>
<g id="a_Node000003"><a xlink:href="group___iterator_algorithms.html#gadccc11c611587469295868641ce95925" target="_top" xlink:title="Vyhledání prvního elementu fronty splňujícího zadaný predikát.">
<polygon fill="white" stroke="#666666" points="156.5,-170 84.25,-170 84.25,-150 156.5,-150 156.5,-170"/>
<text text-anchor="middle" x="120.38" y="-156.5" font-family="Helvetica,sans-Serif" font-size="10.00">queue_find_if</text>
</a>
</g>
</g>
<!-- Node1&#45;&gt;Node3 -->
<g id="edge2_Node000001_Node000003" class="edge">
<title>Node1&#45;&gt;Node3</title>
<g id="a_edge2_Node000001_Node000003"><a xlink:title=" ">
<path fill="none" stroke="#63b8ff" d="M223.91,-118.66C199.75,-128.4 168.62,-140.95 147.03,-149.65"/>
<polygon fill="#63b8ff" stroke="#63b8ff" points="225.09,-121.95 233.05,-114.97 222.47,-115.46 225.09,-121.95"/>
</a>
</g>
</g>
<!-- Node4 -->
<g id="Node000004" class="node">
<title>Node4</title>
<g id="a_Node000004"><a xlink:href="group___iterator_algorithms.html#ga299db40016266a1a943c32a3a528ea9b" target="_top" xlink:title="Vyhledání prvního elementu fronty nesplňujícího zadaný predikát.">
<polygon fill="white" stroke="#666666" points="165.88,-114 74.88,-114 74.88,-94 165.88,-94 165.88,-114"/>
<text text-anchor="middle" x="120.38" y="-100.5" font-family="Helvetica,sans-Serif" font-size="10.00">queue_find_if_not</text>
</a>
</g>
</g>
<!-- Node1&#45;&gt;Node4 -->
<g id="edge5_Node000001_Node000004" class="edge">
<title>Node1&#45;&gt;Node4</title>
<g id="a_edge5_Node000001_Node000004"><a xlink:title=" ">
<path fill="none" stroke="#63b8ff" d="M191.89,-104C183.12,-104 174.32,-104 166.06,-104"/>
<polygon fill="#63b8ff" stroke="#63b8ff" points="191.85,-107.5 201.85,-104 191.85,-100.5 191.85,-107.5"/>
</a>
</g>
</g>
<!-- Node5 -->
<g id="Node000005" class="node">
<title>Node5</title>
<g id="a_Node000005"><a xlink:href="group___iterator_algorithms.html#gade8cfe850fd247bfb33b1aa44e13bcff" target="_top" xlink:title="Zavolání zvolené funkce na každý element fronty od pozice určené iterátorem až do konce fronty.">
<polygon fill="white" stroke="#666666" points="162.5,-76 78.25,-76 78.25,-56 162.5,-56 162.5,-76"/>
<text text-anchor="middle" x="120.38" y="-62.5" font-family="Helvetica,sans-Serif" font-size="10.00">queue_for_each</text>
</a>
</g>
</g>
<!-- Node1&#45;&gt;Node5 -->
<g id="edge8_Node000001_Node000005" class="edge">
<title>Node1&#45;&gt;Node5</title>
<g id="a_edge8_Node000001_Node000005"><a xlink:title=" ">
<path fill="none" stroke="#63b8ff" d="M211.11,-90.55C194.18,-85.92 175.49,-80.81 159.57,-76.45"/>
<polygon fill="#63b8ff" stroke="#63b8ff" points="209.91,-93.85 220.47,-93.12 211.75,-87.1 209.91,-93.85"/>
</a>
</g>
</g>
<!-- Node6 -->
<g id="Node000006" class="node">
<title>Node6</title>
<g id="a_Node000006"><a xlink:href="group___iterator_algorithms.html#ga93c632584a1d9425fee15fb6b10c3e40" target="_top" xlink:title="Zavolání zvolené funkce na prvních N elementů fronty od pozice určené iterátorem.">
<polygon fill="white" stroke="#666666" points="167.75,-20 73,-20 73,0 167.75,0 167.75,-20"/>
<text text-anchor="middle" x="120.38" y="-6.5" font-family="Helvetica,sans-Serif" font-size="10.00">queue_for_each_n</text>
</a>
</g>
</g>
<!-- Node1&#45;&gt;Node6 -->
<g id="edge10_Node000001_Node000006" class="edge">
<title>Node1&#45;&gt;Node6</title>
<g id="a_edge10_Node000001_Node000006"><a xlink:title=" ">
<path fill="none" stroke="#63b8ff" d="M235.55,-87.28C206.96,-67.93 160.76,-36.66 136.84,-20.47"/>
<polygon fill="#63b8ff" stroke="#63b8ff" points="233.36,-90.03 243.6,-92.73 237.28,-84.23 233.36,-90.03"/>
</a>
</g>
</g>
<!-- Node3&#45;&gt;Node2 -->
<g id="edge3_Node000003_Node000002" class="edge">
<title>Node3&#45;&gt;Node2</title>
<g id="a_edge3_Node000003_Node000002"><a xlink:title=" ">
<path fill="none" stroke="#63b8ff" d="M72.89,-146.97C60.21,-143.41 47.22,-139.77 37.23,-136.97"/>
<polygon fill="#63b8ff" stroke="#63b8ff" points="71.85,-150.31 82.42,-149.64 73.74,-143.57 71.85,-150.31"/>
</a>
</g>
</g>
<!-- Node3&#45;&gt;Node3 -->
<g id="edge4_Node000003_Node000003" class="edge">
<title>Node3&#45;&gt;Node3</title>
<g id="a_edge4_Node000003_Node000003"><a xlink:title=" ">
<path fill="none" stroke="#63b8ff" d="M138.38,-181.44C136.06,-185.3 130.06,-188 120.38,-188 102.67,-188 97.27,-178.98 104.19,-170.34"/>
<polygon fill="#63b8ff" stroke="#63b8ff" points="141.88,-181.13 136.81,-171.83 134.97,-182.27 141.88,-181.13"/>
</a>
</g>
</g>
<!-- Node4&#45;&gt;Node2 -->
<g id="edge6_Node000004_Node000002" class="edge">
<title>Node4&#45;&gt;Node2</title>
<g id="a_edge6_Node000004_Node000002"><a xlink:title=" ">
<path fill="none" stroke="#63b8ff" d="M71.22,-117.5C59.15,-120.88 46.94,-124.31 37.42,-126.98"/>
<polygon fill="#63b8ff" stroke="#63b8ff" points="72.04,-120.9 80.73,-114.83 70.15,-114.16 72.04,-120.9"/>
</a>
</g>
</g>
<!-- Node4&#45;&gt;Node4 -->
<g id="edge7_Node000004_Node000004" class="edge">
<title>Node4&#45;&gt;Node4</title>
<g id="a_edge7_Node000004_Node000004"><a xlink:title=" ">
<path fill="none" stroke="#63b8ff" d="M138.38,-125.44C136.06,-129.3 130.06,-132 120.38,-132 102.67,-132 97.27,-122.98 104.19,-114.34"/>
<polygon fill="#63b8ff" stroke="#63b8ff" points="141.88,-125.13 136.81,-115.83 134.97,-126.27 141.88,-125.13"/>
</a>
</g>
</g>
<!-- Node5&#45;&gt;Node2 -->
<g id="edge9_Node000005_Node000002" class="edge">
<title>Node5&#45;&gt;Node2</title>
<g id="a_edge9_Node000005_Node000002"><a xlink:title=" ">
<path fill="none" stroke="#63b8ff" d="M79.58,-81.26C77.31,-82.45 75.1,-83.7 73,-85 56.19,-95.42 39.49,-111.17 29.33,-121.53"/>
<polygon fill="#63b8ff" stroke="#63b8ff" points="80.82,-84.55 88.34,-77.08 77.8,-78.23 80.82,-84.55"/>
</a>
</g>
</g>
<!-- Node6&#45;&gt;Node6 -->
<g id="edge11_Node000006_Node000006" class="edge">
<title>Node6&#45;&gt;Node6</title>
<g id="a_edge11_Node000006_Node000006"><a xlink:title=" ">
<path fill="none" stroke="#63b8ff" d="M138.38,-31.44C136.06,-35.3 130.06,-38 120.38,-38 102.67,-38 97.27,-28.98 104.19,-20.34"/>
<polygon fill="#63b8ff" stroke="#63b8ff" points="141.88,-31.13 136.81,-21.83 134.97,-32.27 141.88,-31.13"/>
</a>
</g>
</g>
</g>
</svg>
