<?xml version="1.0" encoding="UTF-8" standalone="no"?>
<!DOCTYPE svg PUBLIC "-//W3C//DTD SVG 1.1//EN"
 "http://www.w3.org/Graphics/SVG/1.1/DTD/svg11.dtd">
<!-- Generated by graphviz version 11.0.0 (20240428.1522)
 -->
<!-- Title: queue_back Pages: 1 -->
<svg width="319pt" height="47pt"
 viewBox="0.00 0.00 318.50 47.00" xmlns="http://www.w3.org/2000/svg" xmlns:xlink="http://www.w3.org/1999/xlink">
<g id="graph0" class="graph" transform="scale(1 1) rotate(0) translate(4 43)">
<title>queue_back</title>
<!-- Node1 -->
<g id="Node000001" class="node">
<title>Node1</title>
<g id="a_Node000001"><a xlink:title="Získání hodnoty elementu z konce fronty.">
<polygon fill="#999999" stroke="#666666" points="68.5,-39 0,-39 0,-19 68.5,-19 68.5,-39"/>
<text text-anchor="middle" x="34.25" y="-25.5" font-family="Helvetica,sans-Serif" font-size="10.00">queue_back</text>
</a>
</g>
</g>
<!-- Node2 -->
<g id="Node000002" class="node">
<title>Node2</title>
<g id="a_Node000002"><a xlink:href="_t_queue_8c.html#ae5f315571880047e27e4417d5b3cf110" target="_top" xlink:title=" ">
<polygon fill="white" stroke="#666666" points="310.5,-39 227.75,-39 227.75,-19 310.5,-19 310.5,-39"/>
<text text-anchor="middle" x="269.12" y="-25.5" font-family="Helvetica,sans-Serif" font-size="10.00">queue_invariant</text>
</a>
</g>
</g>
<!-- Node1&#45;&gt;Node2 -->
<g id="edge1_Node000001_Node000002" class="edge">
<title>Node1&#45;&gt;Node2</title>
<g id="a_edge1_Node000001_Node000002"><a xlink:title=" ">
<path fill="none" stroke="#63b8ff" d="M68.62,-29C107.14,-29 170.99,-29 216.06,-29"/>
<polygon fill="#63b8ff" stroke="#63b8ff" points="215.86,-32.5 225.86,-29 215.86,-25.5 215.86,-32.5"/>
</a>
</g>
</g>
<!-- Node3 -->
<g id="Node000003" class="node">
<title>Node3</title>
<g id="a_Node000003"><a xlink:href="group___t_queue.html#gaa9812b8f3c1b0707450f91283f97384c" target="_top" xlink:title="Zjištění, zda je fronta prázdná">
<polygon fill="white" stroke="#666666" points="191.75,-20 104.5,-20 104.5,0 191.75,0 191.75,-20"/>
<text text-anchor="middle" x="148.12" y="-6.5" font-family="Helvetica,sans-Serif" font-size="10.00">queue_is_empty</text>
</a>
</g>
</g>
<!-- Node1&#45;&gt;Node3 -->
<g id="edge2_Node000001_Node000003" class="edge">
<title>Node1&#45;&gt;Node3</title>
<g id="a_edge2_Node000001_Node000003"><a xlink:title=" ">
<path fill="none" stroke="#63b8ff" d="M68.82,-23.3C76.43,-22.01 84.7,-20.6 92.92,-19.21"/>
<polygon fill="#63b8ff" stroke="#63b8ff" points="93.27,-22.7 102.54,-17.57 92.1,-15.8 93.27,-22.7"/>
</a>
</g>
</g>
<!-- Node3&#45;&gt;Node2 -->
<g id="edge3_Node000003_Node000002" class="edge">
<title>Node3&#45;&gt;Node2</title>
<g id="a_edge3_Node000003_Node000002"><a xlink:title=" ">
<path fill="none" stroke="#63b8ff" d="M192.09,-16.86C199.96,-18.12 208.25,-19.44 216.35,-20.73"/>
<polygon fill="#63b8ff" stroke="#63b8ff" points="215.69,-24.17 226.11,-22.29 216.79,-17.26 215.69,-24.17"/>
</a>
</g>
</g>
</g>
</svg>
