<?xml version="1.0" encoding="UTF-8" standalone="no"?>
<!DOCTYPE svg PUBLIC "-//W3C//DTD SVG 1.1//EN"
 "http://www.w3.org/Graphics/SVG/1.1/DTD/svg11.dtd">
<!-- Generated by graphviz version 11.0.0 (20240428.1522)
 -->
<!-- Title: main.c Pages: 1 -->
<svg width="322pt" height="140pt"
 viewBox="0.00 0.00 321.88 140.00" xmlns="http://www.w3.org/2000/svg" xmlns:xlink="http://www.w3.org/1999/xlink">
<g id="graph0" class="graph" transform="scale(1 1) rotate(0) translate(4 136)">
<title>main.c</title>
<!-- Node1 -->
<g id="Node000001" class="node">
<title>Node1</title>
<g id="a_Node000001"><a xlink:title="Hlavní program pro testování ADT TQueue.">
<polygon fill="#999999" stroke="#666666" points="114.25,-132 69,-132 69,-112 114.25,-112 114.25,-132"/>
<text text-anchor="middle" x="91.62" y="-118.5" font-family="Helvetica,sans-Serif" font-size="10.00">main.c</text>
</a>
</g>
</g>
<!-- Node2 -->
<g id="Node000002" class="node">
<title>Node2</title>
<g id="a_Node000002"><a xlink:title=" ">
<polygon fill="#e0e0e0" stroke="#999999" points="45.25,-20 0,-20 0,0 45.25,0 45.25,-20"/>
<text text-anchor="middle" x="22.62" y="-6.5" font-family="Helvetica,sans-Serif" font-size="10.00">stdio.h</text>
</a>
</g>
</g>
<!-- Node1&#45;&gt;Node2 -->
<g id="edge1_Node000001_Node000002" class="edge">
<title>Node1&#45;&gt;Node2</title>
<g id="a_edge1_Node000001_Node000002"><a xlink:title=" ">
<path fill="none" stroke="#63b8ff" d="M77.35,-111.54C66.1,-103.39 50.82,-90.63 41.62,-76 33.1,-62.43 28.27,-44.89 25.61,-31.45"/>
<polygon fill="#63b8ff" stroke="#63b8ff" points="29.13,-31.25 23.99,-21.98 22.23,-32.43 29.13,-31.25"/>
</a>
</g>
</g>
<!-- Node3 -->
<g id="Node000003" class="node">
<title>Node3</title>
<g id="a_Node000003"><a xlink:href="_t_queue_8h.html" target="_top" xlink:title="Definice typu fronta (realizace pomocí lineárního jednosměrně vázaného seznamu).">
<polygon fill="white" stroke="#666666" points="229.62,-76 171.62,-76 171.62,-56 229.62,-56 229.62,-76"/>
<text text-anchor="middle" x="200.62" y="-62.5" font-family="Helvetica,sans-Serif" font-size="10.00">TQueue.h</text>
</a>
</g>
</g>
<!-- Node1&#45;&gt;Node3 -->
<g id="edge2_Node000001_Node000003" class="edge">
<title>Node1&#45;&gt;Node3</title>
<g id="a_edge2_Node000001_Node000003"><a xlink:title=" ">
<path fill="none" stroke="#63b8ff" d="M110.61,-111.59C127.39,-103.28 152.12,-91.03 171.41,-81.47"/>
<polygon fill="#63b8ff" stroke="#63b8ff" points="172.73,-84.73 180.13,-77.15 169.62,-78.45 172.73,-84.73"/>
</a>
</g>
</g>
<!-- Node7 -->
<g id="Node000007" class="node">
<title>Node7</title>
<g id="a_Node000007"><a xlink:href="main__support_8h.html" target="_top" xlink:title="Soubor pro multiplatformní podporu programu v různých OS.">
<polygon fill="white" stroke="#666666" points="133,-76 50.25,-76 50.25,-56 133,-56 133,-76"/>
<text text-anchor="middle" x="91.62" y="-62.5" font-family="Helvetica,sans-Serif" font-size="10.00">main_support.h</text>
</a>
</g>
</g>
<!-- Node1&#45;&gt;Node7 -->
<g id="edge6_Node000001_Node000007" class="edge">
<title>Node1&#45;&gt;Node7</title>
<g id="a_edge6_Node000001_Node000007"><a xlink:title=" ">
<path fill="none" stroke="#63b8ff" d="M91.62,-111.59C91.62,-105.01 91.62,-95.96 91.62,-87.73"/>
<polygon fill="#63b8ff" stroke="#63b8ff" points="95.13,-87.81 91.63,-77.81 88.13,-87.81 95.13,-87.81"/>
</a>
</g>
</g>
<!-- Node4 -->
<g id="Node000004" class="node">
<title>Node4</title>
<g id="a_Node000004"><a xlink:title=" ">
<polygon fill="#e0e0e0" stroke="#999999" points="179.5,-20 123.75,-20 123.75,0 179.5,0 179.5,-20"/>
<text text-anchor="middle" x="151.62" y="-6.5" font-family="Helvetica,sans-Serif" font-size="10.00">stdbool.h</text>
</a>
</g>
</g>
<!-- Node3&#45;&gt;Node4 -->
<g id="edge3_Node000003_Node000004" class="edge">
<title>Node3&#45;&gt;Node4</title>
<g id="a_edge3_Node000003_Node000004"><a xlink:title=" ">
<path fill="none" stroke="#63b8ff" d="M192.09,-55.59C185.34,-48.16 175.74,-37.58 167.58,-28.58"/>
<polygon fill="#63b8ff" stroke="#63b8ff" points="170.39,-26.47 161.08,-21.42 165.21,-31.18 170.39,-26.47"/>
</a>
</g>
</g>
<!-- Node5 -->
<g id="Node000005" class="node">
<title>Node5</title>
<g id="a_Node000005"><a xlink:title=" ">
<polygon fill="#e0e0e0" stroke="#999999" points="245.38,-20 197.88,-20 197.88,0 245.38,0 245.38,-20"/>
<text text-anchor="middle" x="221.62" y="-6.5" font-family="Helvetica,sans-Serif" font-size="10.00">stdlib.h</text>
</a>
</g>
</g>
<!-- Node3&#45;&gt;Node5 -->
<g id="edge4_Node000003_Node000005" class="edge">
<title>Node3&#45;&gt;Node5</title>
<g id="a_edge4_Node000003_Node000005"><a xlink:title=" ">
<path fill="none" stroke="#63b8ff" d="M204.28,-55.59C206.93,-48.78 210.61,-39.32 213.9,-30.86"/>
<polygon fill="#63b8ff" stroke="#63b8ff" points="217.1,-32.3 217.46,-21.71 210.57,-29.76 217.1,-32.3"/>
</a>
</g>
</g>
<!-- Node6 -->
<g id="Node000006" class="node">
<title>Node6</title>
<g id="a_Node000006"><a xlink:title=" ">
<polygon fill="#e0e0e0" stroke="#999999" points="313.88,-20 263.38,-20 263.38,0 313.88,0 313.88,-20"/>
<text text-anchor="middle" x="288.62" y="-6.5" font-family="Helvetica,sans-Serif" font-size="10.00">check.h</text>
</a>
</g>
</g>
<!-- Node3&#45;&gt;Node6 -->
<g id="edge5_Node000003_Node000006" class="edge">
<title>Node3&#45;&gt;Node6</title>
<g id="a_edge5_Node000003_Node000006"><a xlink:title=" ">
<path fill="none" stroke="#63b8ff" d="M215.95,-55.59C229.12,-47.51 248.36,-35.71 263.73,-26.27"/>
<polygon fill="#63b8ff" stroke="#63b8ff" points="265.19,-29.48 271.89,-21.27 261.53,-23.52 265.19,-29.48"/>
</a>
</g>
</g>
<!-- Node7&#45;&gt;Node2 -->
<g id="edge7_Node000007_Node000002" class="edge">
<title>Node7&#45;&gt;Node2</title>
<g id="a_edge7_Node000007_Node000002"><a xlink:title=" ">
<path fill="none" stroke="#63b8ff" d="M79.61,-55.59C69.61,-47.77 55.16,-36.46 43.32,-27.19"/>
<polygon fill="#63b8ff" stroke="#63b8ff" points="45.73,-24.64 35.7,-21.23 41.42,-30.15 45.73,-24.64"/>
</a>
</g>
</g>
<!-- Node7&#45;&gt;Node4 -->
<g id="edge9_Node000007_Node000004" class="edge">
<title>Node7&#45;&gt;Node4</title>
<g id="a_edge9_Node000007_Node000004"><a xlink:title=" ">
<path fill="none" stroke="#63b8ff" d="M102.08,-55.59C110.59,-47.93 122.84,-36.91 133.02,-27.75"/>
<polygon fill="#63b8ff" stroke="#63b8ff" points="135.08,-30.6 140.17,-21.31 130.39,-25.4 135.08,-30.6"/>
</a>
</g>
</g>
<!-- Node8 -->
<g id="Node000008" class="node">
<title>Node8</title>
<g id="a_Node000008"><a xlink:title=" ">
<polygon fill="#e0e0e0" stroke="#999999" points="106.12,-20 63.12,-20 63.12,0 106.12,0 106.12,-20"/>
<text text-anchor="middle" x="84.62" y="-6.5" font-family="Helvetica,sans-Serif" font-size="10.00">time.h</text>
</a>
</g>
</g>
<!-- Node7&#45;&gt;Node8 -->
<g id="edge8_Node000007_Node000008" class="edge">
<title>Node7&#45;&gt;Node8</title>
<g id="a_edge8_Node000007_Node000008"><a xlink:title=" ">
<path fill="none" stroke="#63b8ff" d="M90.41,-55.59C89.54,-48.93 88.35,-39.75 87.27,-31.44"/>
<polygon fill="#63b8ff" stroke="#63b8ff" points="90.78,-31.27 86.02,-21.8 83.84,-32.17 90.78,-31.27"/>
</a>
</g>
</g>
</g>
</svg>
