<?xml version="1.0" encoding="UTF-8" standalone="no"?>
<!DOCTYPE svg PUBLIC "-//W3C//DTD SVG 1.1//EN"
 "http://www.w3.org/Graphics/SVG/1.1/DTD/svg11.dtd">
<!-- Generated by graphviz version 11.0.0 (20240428.1522)
 -->
<!-- Title: TQueue Pages: 1 -->
<svg width="178pt" height="182pt"
 viewBox="0.00 0.00 177.50 182.00" xmlns="http://www.w3.org/2000/svg" xmlns:xlink="http://www.w3.org/1999/xlink">
<g id="graph0" class="graph" transform="scale(1 1) rotate(0) translate(4 178)">
<title>TQueue</title>
<!-- Node1 -->
<g id="Node000001" class="node">
<title>Node1</title>
<g id="a_Node000001"><a xlink:title="Definice typu Queue.">
<polygon fill="#999999" stroke="none" points="80,-52 37,-52 37,0 80,0 80,-52"/>
<text text-anchor="start" x="41.62" y="-38.5" font-family="Helvetica,sans-Serif" font-size="10.00">TQueue</text>
<text text-anchor="start" x="57" y="-22.5" font-family="Helvetica,sans-Serif" font-size="10.00"> </text>
<text text-anchor="start" x="57" y="-6.5" font-family="Helvetica,sans-Serif" font-size="10.00"> </text>
<polygon fill="#666666" stroke="#666666" points="37,-34 37,-34 80,-34 80,-34 37,-34"/>
<polygon fill="#666666" stroke="#666666" points="37,-18 37,-18 80,-18 80,-18 37,-18"/>
<polygon fill="none" stroke="#666666" points="37,0 37,-52 80,-52 80,0 37,0"/>
</a>
</g>
</g>
<!-- Node2 -->
<g id="Node000002" class="node">
<title>Node2</title>
<g id="a_Node000002"><a xlink:href="struct_t_queue_node.html" target="_top" xlink:title="Úplná definice privátního typu QueueNode.">
<polygon fill="white" stroke="none" points="117,-174 0,-174 0,-122 117,-122 117,-174"/>
<text text-anchor="start" x="30.38" y="-160.5" font-family="Helvetica,sans-Serif" font-size="10.00">TQueueNode</text>
<text text-anchor="start" x="4" y="-144.5" font-family="Helvetica,sans-Serif" font-size="10.00">+</text>
<text text-anchor="start" x="14" y="-144.5" font-family="Helvetica,sans-Serif" font-size="10.00">TQueueElement iValue</text>
<text text-anchor="start" x="57" y="-128.5" font-family="Helvetica,sans-Serif" font-size="10.00"> </text>
<polygon fill="#666666" stroke="#666666" points="0,-156 0,-156 117,-156 117,-156 0,-156"/>
<polygon fill="#666666" stroke="#666666" points="0,-140 0,-140 12,-140 12,-140 0,-140"/>
<polygon fill="#666666" stroke="#666666" points="12,-140 12,-140 117,-140 117,-140 12,-140"/>
<polygon fill="none" stroke="#666666" points="0,-122 0,-174 117,-174 117,-122 0,-122"/>
</a>
</g>
</g>
<!-- Node2&#45;&gt;Node1 -->
<g id="edge1_Node000001_Node000002" class="edge">
<title>Node2&#45;&gt;Node1</title>
<g id="a_edge1_Node000001_Node000002"><a xlink:title=" ">
<path fill="none" stroke="#63b8ff" d="M58.5,-122.14C58.5,-105.56 58.5,-83.47 58.5,-64.74"/>
<polygon fill="none" stroke="#63b8ff" points="58.5,-64.73 54.5,-58.73 58.5,-52.73 62.5,-58.73 58.5,-64.73"/>
</a>
</g>
<text text-anchor="start" x="61.5" y="-91.5" font-family="Helvetica,sans-Serif" font-size="10.00" fill="grey">+iBack</text>
<text text-anchor="start" x="61.5" y="-75.5" font-family="Helvetica,sans-Serif" font-size="10.00" fill="grey">+iFront</text>
</g>
<!-- Node2&#45;&gt;Node2 -->
<g id="edge2_Node000002_Node000002" class="edge">
<title>Node2&#45;&gt;Node2</title>
<g id="a_edge2_Node000002_Node000002"><a xlink:title=" ">
<path fill="none" stroke="#63b8ff" d="M116.87,-158.81C127.53,-157.44 135,-153.84 135,-148 135,-144.9 132.89,-142.43 129.32,-140.59"/>
<polygon fill="none" stroke="#63b8ff" points="129.32,-140.59 122.47,-142.87 117.74,-137.43 124.58,-135.15 129.32,-140.59"/>
</a>
</g>
<text text-anchor="start" x="138" y="-144.5" font-family="Helvetica,sans-Serif" font-size="10.00" fill="grey">+iNext</text>
</g>
</g>
</svg>
