<?xml version="1.0" encoding="UTF-8" standalone="no"?>
<!DOCTYPE svg PUBLIC "-//W3C//DTD SVG 1.1//EN"
 "http://www.w3.org/Graphics/SVG/1.1/DTD/svg11.dtd">
<!-- Generated by graphviz version 11.0.0 (20240428.1522)
 -->
<!-- Title: TQueueIterator Pages: 1 -->
<svg width="178pt" height="288pt"
 viewBox="0.00 0.00 177.50 288.00" xmlns="http://www.w3.org/2000/svg" xmlns:xlink="http://www.w3.org/1999/xlink">
<g id="graph0" class="graph" transform="scale(1 1) rotate(0) translate(4 284)">
<title>TQueueIterator</title>
<!-- Node1 -->
<g id="Node000001" class="node">
<title>Node1</title>
<g id="a_Node000001"><a xlink:title="Definice typu QueueIterator.">
<polygon fill="#999999" stroke="none" points="107,-52 34,-52 34,0 107,0 107,-52"/>
<text text-anchor="start" x="38.62" y="-38.5" font-family="Helvetica,sans-Serif" font-size="10.00">TQueueIterator</text>
<text text-anchor="start" x="69" y="-22.5" font-family="Helvetica,sans-Serif" font-size="10.00"> </text>
<text text-anchor="start" x="69" y="-6.5" font-family="Helvetica,sans-Serif" font-size="10.00"> </text>
<polygon fill="#666666" stroke="#666666" points="34,-34 34,-34 107,-34 107,-34 34,-34"/>
<polygon fill="#666666" stroke="#666666" points="34,-18 34,-18 107,-18 107,-18 34,-18"/>
<polygon fill="none" stroke="#666666" points="34,0 34,-52 107,-52 107,0 34,0"/>
</a>
</g>
</g>
<!-- Node2 -->
<g id="Node000002" class="node">
<title>Node2</title>
<g id="a_Node000002"><a xlink:href="group___t_queue.html#struct_t_queue" target="_top" xlink:title="Definice typu Queue.">
<polygon fill="white" stroke="none" points="146,-158 103,-158 103,-106 146,-106 146,-158"/>
<text text-anchor="start" x="107.62" y="-144.5" font-family="Helvetica,sans-Serif" font-size="10.00">TQueue</text>
<text text-anchor="start" x="123" y="-128.5" font-family="Helvetica,sans-Serif" font-size="10.00"> </text>
<text text-anchor="start" x="123" y="-112.5" font-family="Helvetica,sans-Serif" font-size="10.00"> </text>
<polygon fill="#666666" stroke="#666666" points="103,-140 103,-140 146,-140 146,-140 103,-140"/>
<polygon fill="#666666" stroke="#666666" points="103,-124 103,-124 146,-124 146,-124 103,-124"/>
<polygon fill="none" stroke="#666666" points="103,-106 103,-158 146,-158 146,-106 103,-106"/>
</a>
</g>
</g>
<!-- Node2&#45;&gt;Node1 -->
<g id="edge1_Node000001_Node000002" class="edge">
<title>Node2&#45;&gt;Node1</title>
<g id="a_edge1_Node000001_Node000002"><a xlink:title=" ">
<path fill="none" stroke="#63b8ff" d="M111.57,-106.09C104.89,-93.23 96.61,-77.29 89.25,-63.11"/>
<polygon fill="none" stroke="#63b8ff" points="89.27,-63.16 82.96,-59.68 83.74,-52.51 90.06,-55.99 89.27,-63.16"/>
</a>
</g>
<text text-anchor="start" x="103.5" y="-75.5" font-family="Helvetica,sans-Serif" font-size="10.00" fill="grey">+iQueue</text>
</g>
<!-- Node3 -->
<g id="Node000003" class="node">
<title>Node3</title>
<g id="a_Node000003"><a xlink:href="struct_t_queue_node.html" target="_top" xlink:title="Úplná definice privátního typu QueueNode.">
<polygon fill="white" stroke="none" points="117,-280 0,-280 0,-228 117,-228 117,-280"/>
<text text-anchor="start" x="30.38" y="-266.5" font-family="Helvetica,sans-Serif" font-size="10.00">TQueueNode</text>
<text text-anchor="start" x="4" y="-250.5" font-family="Helvetica,sans-Serif" font-size="10.00">+</text>
<text text-anchor="start" x="14" y="-250.5" font-family="Helvetica,sans-Serif" font-size="10.00">TQueueElement iValue</text>
<text text-anchor="start" x="57" y="-234.5" font-family="Helvetica,sans-Serif" font-size="10.00"> </text>
<polygon fill="#666666" stroke="#666666" points="0,-262 0,-262 117,-262 117,-262 0,-262"/>
<polygon fill="#666666" stroke="#666666" points="0,-246 0,-246 12,-246 12,-246 0,-246"/>
<polygon fill="#666666" stroke="#666666" points="12,-246 12,-246 117,-246 117,-246 12,-246"/>
<polygon fill="none" stroke="#666666" points="0,-228 0,-280 117,-280 117,-228 0,-228"/>
</a>
</g>
</g>
<!-- Node3&#45;&gt;Node1 -->
<g id="edge4_Node000001_Node000003" class="edge">
<title>Node3&#45;&gt;Node1</title>
<g id="a_edge4_Node000001_Node000003"><a xlink:title=" ">
<path fill="none" stroke="#63b8ff" d="M55.19,-228.21C51.81,-198.92 47.69,-148.77 52.5,-106 54.06,-92.16 57.1,-77.21 60.25,-64.08"/>
<polygon fill="none" stroke="#63b8ff" points="60.23,-64.17 57.82,-57.37 63.16,-52.54 65.57,-59.33 60.23,-64.17"/>
</a>
</g>
<text text-anchor="start" x="55.5" y="-128.5" font-family="Helvetica,sans-Serif" font-size="10.00" fill="grey">+iActual</text>
</g>
<!-- Node3&#45;&gt;Node2 -->
<g id="edge2_Node000002_Node000003" class="edge">
<title>Node3&#45;&gt;Node2</title>
<g id="a_edge2_Node000002_Node000003"><a xlink:title=" ">
<path fill="none" stroke="#63b8ff" d="M72.18,-228.14C81.56,-211.08 94.15,-188.18 104.64,-169.12"/>
<polygon fill="none" stroke="#63b8ff" points="104.62,-169.14 104.01,-161.95 110.41,-158.62 111.02,-165.81 104.62,-169.14"/>
</a>
</g>
<text text-anchor="start" x="101.5" y="-197.5" font-family="Helvetica,sans-Serif" font-size="10.00" fill="grey">+iBack</text>
<text text-anchor="start" x="101.5" y="-181.5" font-family="Helvetica,sans-Serif" font-size="10.00" fill="grey">+iFront</text>
</g>
<!-- Node3&#45;&gt;Node3 -->
<g id="edge3_Node000003_Node000003" class="edge">
<title>Node3&#45;&gt;Node3</title>
<g id="a_edge3_Node000003_Node000003"><a xlink:title=" ">
<path fill="none" stroke="#63b8ff" d="M116.87,-264.81C127.53,-263.44 135,-259.84 135,-254 135,-250.9 132.89,-248.43 129.32,-246.59"/>
<polygon fill="none" stroke="#63b8ff" points="129.32,-246.59 122.47,-248.87 117.74,-243.43 124.58,-241.15 129.32,-246.59"/>
</a>
</g>
<text text-anchor="start" x="138" y="-250.5" font-family="Helvetica,sans-Serif" font-size="10.00" fill="grey">+iNext</text>
</g>
</g>
</svg>
