<?xml version="1.0" encoding="UTF-8" standalone="no"?>
<!DOCTYPE svg PUBLIC "-//W3C//DTD SVG 1.1//EN"
 "http://www.w3.org/Graphics/SVG/1.1/DTD/svg11.dtd">
<!-- Generated by graphviz version 11.0.0 (20240428.1522)
 -->
<!-- Title: TQueueNode Pages: 1 -->
<svg width="178pt" height="60pt"
 viewBox="0.00 0.00 177.50 60.00" xmlns="http://www.w3.org/2000/svg" xmlns:xlink="http://www.w3.org/1999/xlink">
<g id="graph0" class="graph" transform="scale(1 1) rotate(0) translate(4 56)">
<title>TQueueNode</title>
<!-- Node1 -->
<g id="Node000001" class="node">
<title>Node1</title>
<g id="a_Node000001"><a xlink:title="Úplná definice privátního typu QueueNode.">
<polygon fill="#999999" stroke="none" points="117,-52 0,-52 0,0 117,0 117,-52"/>
<text text-anchor="start" x="30.38" y="-38.5" font-family="Helvetica,sans-Serif" font-size="10.00">TQueueNode</text>
<text text-anchor="start" x="4" y="-22.5" font-family="Helvetica,sans-Serif" font-size="10.00">+</text>
<text text-anchor="start" x="14" y="-22.5" font-family="Helvetica,sans-Serif" font-size="10.00">TQueueElement iValue</text>
<text text-anchor="start" x="57" y="-6.5" font-family="Helvetica,sans-Serif" font-size="10.00"> </text>
<polygon fill="#666666" stroke="#666666" points="0,-34 0,-34 117,-34 117,-34 0,-34"/>
<polygon fill="#666666" stroke="#666666" points="0,-18 0,-18 12,-18 12,-18 0,-18"/>
<polygon fill="#666666" stroke="#666666" points="12,-18 12,-18 117,-18 117,-18 12,-18"/>
<polygon fill="none" stroke="#666666" points="0,0 0,-52 117,-52 117,0 0,0"/>
</a>
</g>
</g>
<!-- Node1&#45;&gt;Node1 -->
<g id="edge1_Node000001_Node000001" class="edge">
<title>Node1&#45;&gt;Node1</title>
<g id="a_edge1_Node000001_Node000001"><a xlink:title=" ">
<path fill="none" stroke="#63b8ff" d="M116.87,-35.21C127.53,-34.05 135,-30.98 135,-26 135,-23.36 132.89,-21.25 129.32,-19.68"/>
<polygon fill="none" stroke="#63b8ff" points="129.44,-19.71 122.69,-22.25 117.75,-16.99 124.5,-14.45 129.44,-19.71"/>
</a>
</g>
<text text-anchor="start" x="138" y="-22.5" font-family="Helvetica,sans-Serif" font-size="10.00" fill="grey">+iNext</text>
</g>
</g>
</svg>
