<?xml version="1.0" encoding="UTF-8" standalone="no"?>
<!DOCTYPE svg PUBLIC "-//W3C//DTD SVG 1.1//EN"
 "http://www.w3.org/Graphics/SVG/1.1/DTD/svg11.dtd">
<!-- Generated by graphviz version 11.0.0 (20240428.1522)
 -->
<!-- Title: testbench_run Pages: 1 -->
<svg width="929pt" height="256pt"
 viewBox="0.00 0.00 929.25 256.00" xmlns="http://www.w3.org/2000/svg" xmlns:xlink="http://www.w3.org/1999/xlink">
<g id="graph0" class="graph" transform="scale(1 1) rotate(0) translate(4 252)">
<title>testbench_run</title>
<!-- Node1 -->
<g id="Node000001" class="node">
<title>Node1</title>
<g id="a_Node000001"><a xlink:title="Provedení všech testů zadaného testovacího plánu na předaném ADT.">
<polygon fill="#999999" stroke="#666666" points="77.5,-172 0,-172 0,-152 77.5,-152 77.5,-172"/>
<text text-anchor="middle" x="38.75" y="-158.5" font-family="Helvetica,sans-Serif" font-size="10.00">testbench_run</text>
</a>
</g>
</g>
<!-- Node2 -->
<g id="Node000002" class="node">
<title>Node2</title>
<g id="a_Node000002"><a xlink:href="testbench_8c.html#a068734a4e1d6209769e0c6b1675ca02b" target="_top" xlink:title="Provedení jednoho test z testovacího plánu na předaném ADT.">
<polygon fill="white" stroke="#666666" points="164.75,-172 113.5,-172 113.5,-152 164.75,-152 164.75,-172"/>
<text text-anchor="middle" x="139.12" y="-158.5" font-family="Helvetica,sans-Serif" font-size="10.00">test_run</text>
</a>
</g>
</g>
<!-- Node1&#45;&gt;Node2 -->
<g id="edge1_Node000001_Node000002" class="edge">
<title>Node1&#45;&gt;Node2</title>
<g id="a_edge1_Node000001_Node000002"><a xlink:title=" ">
<path fill="none" stroke="#63b8ff" d="M77.78,-162C85.68,-162 93.99,-162 101.82,-162"/>
<polygon fill="#63b8ff" stroke="#63b8ff" points="101.73,-165.5 111.73,-162 101.73,-158.5 101.73,-165.5"/>
</a>
</g>
</g>
<!-- Node3 -->
<g id="Node000003" class="node">
<title>Node3</title>
<g id="a_Node000003"><a xlink:href="testbench_8c.html#aa291195ad453d2b1e29004cc2e043c01" target="_top" xlink:title=" ">
<polygon fill="white" stroke="#666666" points="281.25,-248 213.5,-248 213.5,-228 281.25,-228 281.25,-248"/>
<text text-anchor="middle" x="247.38" y="-234.5" font-family="Helvetica,sans-Serif" font-size="10.00">difftimespec</text>
</a>
</g>
</g>
<!-- Node2&#45;&gt;Node3 -->
<g id="edge2_Node000002_Node000003" class="edge">
<title>Node2&#45;&gt;Node3</title>
<g id="a_edge2_Node000002_Node000003"><a xlink:title=" ">
<path fill="none" stroke="#63b8ff" d="M150.7,-172.37C162.35,-183.48 181.94,-201.22 200.75,-214 205.03,-216.91 209.7,-219.73 214.38,-222.35"/>
<polygon fill="#63b8ff" stroke="#63b8ff" points="212.64,-225.39 223.11,-227.01 215.94,-219.21 212.64,-225.39"/>
</a>
</g>
</g>
<!-- Node4 -->
<g id="Node000004" class="node">
<title>Node4</title>
<g id="a_Node000004"><a xlink:href="testbench_8c.html#a68bb846e665ae25f0855b12907c6f7b0" target="_top" xlink:title="Vytisknutí hodnoty elementu v ADT pomocí iterátoru.">
<polygon fill="white" stroke="#666666" points="284.62,-172 210.12,-172 210.12,-152 284.62,-152 284.62,-172"/>
<text text-anchor="middle" x="247.38" y="-158.5" font-family="Helvetica,sans-Serif" font-size="10.00">print_element</text>
</a>
</g>
</g>
<!-- Node2&#45;&gt;Node4 -->
<g id="edge3_Node000002_Node000004" class="edge">
<title>Node2&#45;&gt;Node4</title>
<g id="a_edge3_Node000002_Node000004"><a xlink:title=" ">
<path fill="none" stroke="#63b8ff" d="M165.04,-162C175.06,-162 186.98,-162 198.56,-162"/>
<polygon fill="#63b8ff" stroke="#63b8ff" points="198.43,-165.5 208.43,-162 198.43,-158.5 198.43,-165.5"/>
</a>
</g>
</g>
<!-- Node5 -->
<g id="Node000005" class="node">
<title>Node5</title>
<g id="a_Node000005"><a xlink:href="group___t_set_element_hashable.html#ga3473fca967dede884b1c910838f2d8df" target="_top" xlink:title="Uložení elementu do souboru.">
<polygon fill="white" stroke="#666666" points="443.5,-210 330,-210 330,-190 443.5,-190 443.5,-210"/>
<text text-anchor="middle" x="386.75" y="-196.5" font-family="Helvetica,sans-Serif" font-size="10.00">set_element_store_file</text>
</a>
</g>
</g>
<!-- Node2&#45;&gt;Node5 -->
<g id="edge11_Node000002_Node000005" class="edge">
<title>Node2&#45;&gt;Node5</title>
<g id="a_edge11_Node000002_Node000005"><a xlink:title=" ">
<path fill="none" stroke="#63b8ff" d="M165.19,-171.1C176,-174.7 188.87,-178.55 200.75,-181 239.42,-188.96 283.35,-193.65 318.7,-196.38"/>
<polygon fill="#63b8ff" stroke="#63b8ff" points="318.11,-199.85 328.34,-197.09 318.63,-192.86 318.11,-199.85"/>
</a>
</g>
</g>
<!-- Node11 -->
<g id="Node000011" class="node">
<title>Node11</title>
<g id="a_Node000011"><a xlink:href="group___iterator_algorithms.html#gab8ba369b42eda61d010f35df73be73db" target="_top" xlink:title="Zavolání zvolené funkce na každý element množiny od pozice určené iterátorem až do posledního element...">
<polygon fill="white" stroke="#666666" points="283.12,-134 211.62,-134 211.62,-114 283.12,-114 283.12,-134"/>
<text text-anchor="middle" x="247.38" y="-120.5" font-family="Helvetica,sans-Serif" font-size="10.00">set_for_each</text>
</a>
</g>
</g>
<!-- Node2&#45;&gt;Node11 -->
<g id="edge12_Node000002_Node000011" class="edge">
<title>Node2&#45;&gt;Node11</title>
<g id="a_edge12_Node000002_Node000011"><a xlink:title=" ">
<path fill="none" stroke="#63b8ff" d="M165.04,-153.09C177.33,-148.69 192.46,-143.28 206.33,-138.32"/>
<polygon fill="#63b8ff" stroke="#63b8ff" points="207.43,-141.64 215.67,-134.98 205.08,-135.05 207.43,-141.64"/>
</a>
</g>
</g>
<!-- Node14 -->
<g id="Node000014" class="node">
<title>Node14</title>
<g id="a_Node000014"><a xlink:href="group___t_set_iterator.html#gab11bafbe7585e4bb0bd9ff2353d77765" target="_top" xlink:title="Vytvoření nového iterátoru ukazujícího na první element množiny.">
<polygon fill="white" stroke="#666666" points="294,-49 200.75,-49 200.75,-29 294,-29 294,-49"/>
<text text-anchor="middle" x="247.38" y="-35.5" font-family="Helvetica,sans-Serif" font-size="10.00">set_iterator_begin</text>
</a>
</g>
</g>
<!-- Node2&#45;&gt;Node14 -->
<g id="edge19_Node000002_Node000014" class="edge">
<title>Node2&#45;&gt;Node14</title>
<g id="a_edge19_Node000002_Node000014"><a xlink:title=" ">
<path fill="none" stroke="#63b8ff" d="M149.18,-151.51C167.06,-130.82 207.11,-84.45 229.83,-58.15"/>
<polygon fill="#63b8ff" stroke="#63b8ff" points="232.46,-60.46 236.35,-50.61 227.16,-55.89 232.46,-60.46"/>
</a>
</g>
</g>
<!-- Node4&#45;&gt;Node5 -->
<g id="edge4_Node000004_Node000005" class="edge">
<title>Node4&#45;&gt;Node5</title>
<g id="a_edge4_Node000004_Node000005"><a xlink:title=" ">
<path fill="none" stroke="#63b8ff" d="M284.83,-172.08C300.87,-176.52 319.94,-181.8 337.17,-186.56"/>
<polygon fill="#63b8ff" stroke="#63b8ff" points="336.14,-189.91 346.71,-189.2 338,-183.16 336.14,-189.91"/>
</a>
</g>
</g>
<!-- Node6 -->
<g id="Node000006" class="node">
<title>Node6</title>
<g id="a_Node000006"><a xlink:href="group___t_set_iterator.html#ga3928a980e2759ba130ce333e77f15fab" target="_top" xlink:title="Přečtení hodnoty elementu z množiny pomocí iterátoru.">
<polygon fill="white" stroke="#666666" points="432.62,-172 340.88,-172 340.88,-152 432.62,-152 432.62,-172"/>
<text text-anchor="middle" x="386.75" y="-158.5" font-family="Helvetica,sans-Serif" font-size="10.00">set_iterator_value</text>
</a>
</g>
</g>
<!-- Node4&#45;&gt;Node6 -->
<g id="edge5_Node000004_Node000006" class="edge">
<title>Node4&#45;&gt;Node6</title>
<g id="a_edge5_Node000004_Node000006"><a xlink:title=" ">
<path fill="none" stroke="#63b8ff" d="M284.83,-162C298.45,-162 314.25,-162 329.26,-162"/>
<polygon fill="#63b8ff" stroke="#63b8ff" points="329.01,-165.5 339.01,-162 329.01,-158.5 329.01,-165.5"/>
</a>
</g>
</g>
<!-- Node7 -->
<g id="Node000007" class="node">
<title>Node7</title>
<g id="a_Node000007"><a xlink:href="group___t_set_hash_table.html#gaf6b548ed4295b1a4789d073b8a43db58" target="_top" xlink:title="Přečtení hodnoty elementu z platné přihrádky v hašovací tabulce.">
<polygon fill="white" stroke="#666666" points="766.88,-162 657.88,-162 657.88,-130 766.88,-130 766.88,-162"/>
<text text-anchor="start" x="665.88" y="-148.5" font-family="Helvetica,sans-Serif" font-size="10.00">set_hash_table_value</text>
<text text-anchor="middle" x="712.38" y="-136.5" font-family="Helvetica,sans-Serif" font-size="10.00">_at_pos</text>
</a>
</g>
</g>
<!-- Node6&#45;&gt;Node7 -->
<g id="edge6_Node000006_Node000007" class="edge">
<title>Node6&#45;&gt;Node7</title>
<g id="a_edge6_Node000006_Node000007"><a xlink:title=" ">
<path fill="none" stroke="#63b8ff" d="M433.09,-159.76C488.52,-157.02 582.75,-152.36 646.02,-149.23"/>
<polygon fill="#63b8ff" stroke="#63b8ff" points="646.12,-152.73 655.94,-148.74 645.78,-145.74 646.12,-152.73"/>
</a>
</g>
</g>
<!-- Node9 -->
<g id="Node000009" class="node">
<title>Node9</title>
<g id="a_Node000009"><a xlink:href="group___t_set_iterator.html#ga089f24c81ac3da7d1ac7ca24cc078dd8" target="_top" xlink:title="Zjištění platnosti iterátoru.">
<polygon fill="white" stroke="#666666" points="593.75,-134 492.25,-134 492.25,-114 593.75,-114 593.75,-134"/>
<text text-anchor="middle" x="543" y="-120.5" font-family="Helvetica,sans-Serif" font-size="10.00">set_iterator_is_valid</text>
</a>
</g>
</g>
<!-- Node6&#45;&gt;Node9 -->
<g id="edge8_Node000006_Node000009" class="edge">
<title>Node6&#45;&gt;Node9</title>
<g id="a_edge8_Node000006_Node000009"><a xlink:title=" ">
<path fill="none" stroke="#63b8ff" d="M430.31,-151.52C448.35,-147.07 469.57,-141.84 488.64,-137.15"/>
<polygon fill="#63b8ff" stroke="#63b8ff" points="489.24,-140.6 498.11,-134.81 487.56,-133.81 489.24,-140.6"/>
</a>
</g>
</g>
<!-- Node8 -->
<g id="Node000008" class="node">
<title>Node8</title>
<g id="a_Node000008"><a xlink:href="_t_set_hash_table_open_addr_8c.html#aa4a90f23bbdbe5bb71a49d7df2ee5fc1" target="_top" xlink:title="Funkce vracející hodnotu reprezentující smazanou přihrádku.">
<polygon fill="white" stroke="#666666" points="921.25,-83 818.25,-83 818.25,-51 921.25,-51 921.25,-83"/>
<text text-anchor="start" x="826.25" y="-69.5" font-family="Helvetica,sans-Serif" font-size="10.00">calc_erased_bucket</text>
<text text-anchor="middle" x="869.75" y="-57.5" font-family="Helvetica,sans-Serif" font-size="10.00">_marker</text>
</a>
</g>
</g>
<!-- Node7&#45;&gt;Node8 -->
<g id="edge7_Node000007_Node000008" class="edge">
<title>Node7&#45;&gt;Node8</title>
<g id="a_edge7_Node000007_Node000008"><a xlink:title=" ">
<path fill="none" stroke="#63b8ff" d="M745.57,-129.63C768.93,-117.75 800.76,-101.57 826.21,-88.63"/>
<polygon fill="#63b8ff" stroke="#63b8ff" points="827.65,-91.82 834.98,-84.17 824.48,-85.58 827.65,-91.82"/>
</a>
</g>
</g>
<!-- Node10 -->
<g id="Node000010" class="node">
<title>Node10</title>
<g id="a_Node000010"><a xlink:href="group___t_set_hash_table.html#ga891b531cc6373331e55101f2dd75ac4a" target="_top" xlink:title="Zjištění platnosti pozice v hašovací tabulce.">
<polygon fill="white" stroke="#666666" points="782.25,-96 642.5,-96 642.5,-76 782.25,-76 782.25,-96"/>
<text text-anchor="middle" x="712.38" y="-82.5" font-family="Helvetica,sans-Serif" font-size="10.00">set_hash_table_is_valid_pos</text>
</a>
</g>
</g>
<!-- Node9&#45;&gt;Node10 -->
<g id="edge9_Node000009_Node000010" class="edge">
<title>Node9&#45;&gt;Node10</title>
<g id="a_edge9_Node000009_Node000010"><a xlink:title=" ">
<path fill="none" stroke="#63b8ff" d="M590.18,-113.52C610.03,-109.01 633.43,-103.7 654.34,-98.95"/>
<polygon fill="#63b8ff" stroke="#63b8ff" points="654.89,-102.41 663.87,-96.79 653.34,-95.59 654.89,-102.41"/>
</a>
</g>
</g>
<!-- Node10&#45;&gt;Node8 -->
<g id="edge10_Node000010_Node000008" class="edge">
<title>Node10&#45;&gt;Node8</title>
<g id="a_edge10_Node000010_Node000008"><a xlink:title=" ">
<path fill="none" stroke="#63b8ff" d="M782.43,-77.56C790.58,-76.56 798.86,-75.55 806.91,-74.56"/>
<polygon fill="#63b8ff" stroke="#63b8ff" points="807.08,-78.07 816.58,-73.38 806.23,-71.12 807.08,-78.07"/>
</a>
</g>
</g>
<!-- Node11&#45;&gt;Node9 -->
<g id="edge13_Node000011_Node000009" class="edge">
<title>Node11&#45;&gt;Node9</title>
<g id="a_edge13_Node000011_Node000009"><a xlink:title=" ">
<path fill="none" stroke="#63b8ff" d="M283.5,-124C332.19,-124 420.95,-124 480.69,-124"/>
<polygon fill="#63b8ff" stroke="#63b8ff" points="480.35,-127.5 490.35,-124 480.35,-120.5 480.35,-127.5"/>
</a>
</g>
</g>
<!-- Node12 -->
<g id="Node000012" class="node">
<title>Node12</title>
<g id="a_Node000012"><a xlink:href="group___t_set_iterator.html#ga6723a05c864198597ff49718020bd0d6" target="_top" xlink:title="Posunutí iterátoru vpřed.">
<polygon fill="white" stroke="#666666" points="437.88,-96 335.62,-96 335.62,-76 437.88,-76 437.88,-96"/>
<text text-anchor="middle" x="386.75" y="-82.5" font-family="Helvetica,sans-Serif" font-size="10.00">set_iterator_to_next</text>
</a>
</g>
</g>
<!-- Node11&#45;&gt;Node12 -->
<g id="edge14_Node000011_Node000012" class="edge">
<title>Node11&#45;&gt;Node12</title>
<g id="a_edge14_Node000011_Node000012"><a xlink:title=" ">
<path fill="none" stroke="#63b8ff" d="M283.4,-114.31C299.64,-109.82 319.23,-104.4 336.91,-99.51"/>
<polygon fill="#63b8ff" stroke="#63b8ff" points="337.74,-102.91 346.44,-96.87 335.87,-96.17 337.74,-102.91"/>
</a>
</g>
</g>
<!-- Node12&#45;&gt;Node9 -->
<g id="edge18_Node000012_Node000009" class="edge">
<title>Node12&#45;&gt;Node9</title>
<g id="a_edge18_Node000012_Node000009"><a xlink:title=" ">
<path fill="none" stroke="#63b8ff" d="M430.31,-96.48C448.35,-100.93 469.57,-106.16 488.64,-110.85"/>
<polygon fill="#63b8ff" stroke="#63b8ff" points="487.56,-114.19 498.11,-113.19 489.24,-107.4 487.56,-114.19"/>
</a>
</g>
</g>
<!-- Node12&#45;&gt;Node10 -->
<g id="edge15_Node000012_Node000010" class="edge">
<title>Node12&#45;&gt;Node10</title>
<g id="a_edge15_Node000012_Node000010"><a xlink:title=" ">
<path fill="none" stroke="#63b8ff" d="M438.32,-86C489.84,-86 570.53,-86 630.85,-86"/>
<polygon fill="#63b8ff" stroke="#63b8ff" points="630.73,-89.5 640.73,-86 630.73,-82.5 630.73,-89.5"/>
</a>
</g>
</g>
<!-- Node13 -->
<g id="Node000013" class="node">
<title>Node13</title>
<g id="a_Node000013"><a xlink:href="group___t_set_hash_table.html#ga9218e24d2cc5a61596c4a45ef76f4c75" target="_top" xlink:title="Výpočet následující pozice platné přihrádky v hašovací tabulce.">
<polygon fill="white" stroke="#666666" points="606.5,-58 479.5,-58 479.5,-38 606.5,-38 606.5,-58"/>
<text text-anchor="middle" x="543" y="-44.5" font-family="Helvetica,sans-Serif" font-size="10.00">set_hash_table_next_pos</text>
</a>
</g>
</g>
<!-- Node12&#45;&gt;Node13 -->
<g id="edge16_Node000012_Node000013" class="edge">
<title>Node12&#45;&gt;Node13</title>
<g id="a_edge16_Node000012_Node000013"><a xlink:title=" ">
<path fill="none" stroke="#63b8ff" d="M430.31,-75.52C448.35,-71.07 469.57,-65.84 488.64,-61.15"/>
<polygon fill="#63b8ff" stroke="#63b8ff" points="489.24,-64.6 498.11,-58.81 487.56,-57.81 489.24,-64.6"/>
</a>
</g>
</g>
<!-- Node13&#45;&gt;Node8 -->
<g id="edge17_Node000013_Node000008" class="edge">
<title>Node13&#45;&gt;Node8</title>
<g id="a_edge17_Node000013_Node000008"><a xlink:title=" ">
<path fill="none" stroke="#63b8ff" d="M606.62,-51.66C664.12,-55.03 748.88,-59.99 806.33,-63.35"/>
<polygon fill="#63b8ff" stroke="#63b8ff" points="806.1,-66.84 816.28,-63.93 806.51,-59.85 806.1,-66.84"/>
</a>
</g>
</g>
<!-- Node14&#45;&gt;Node14 -->
<g id="edge22_Node000014_Node000014" class="edge">
<title>Node14&#45;&gt;Node14</title>
<g id="a_edge22_Node000014_Node000014"><a xlink:title=" ">
<path fill="none" stroke="#63b8ff" d="M230.18,-49.34C222.82,-57.98 228.56,-67 247.38,-67 257.67,-67 264.04,-64.3 266.51,-60.44"/>
<polygon fill="#63b8ff" stroke="#63b8ff" points="270,-60.08 264.83,-50.83 263.1,-61.28 270,-60.08"/>
</a>
</g>
</g>
<!-- Node15 -->
<g id="Node000015" class="node">
<title>Node15</title>
<g id="a_Node000015"><a xlink:href="group___t_set_hash_table.html#ga6ae8410d0c50fb9f3104838bafdbc906" target="_top" xlink:title="Výpočet první platné pozice v hašovací tabulce.">
<polygon fill="white" stroke="#666666" points="778.12,-20 646.62,-20 646.62,0 778.12,0 778.12,-20"/>
<text text-anchor="middle" x="712.38" y="-6.5" font-family="Helvetica,sans-Serif" font-size="10.00">set_hash_table_begin_pos</text>
</a>
</g>
</g>
<!-- Node14&#45;&gt;Node15 -->
<g id="edge20_Node000014_Node000015" class="edge">
<title>Node14&#45;&gt;Node15</title>
<g id="a_edge20_Node000014_Node000015"><a xlink:title=" ">
<path fill="none" stroke="#63b8ff" d="M294.46,-36.11C374.03,-31.13 537.93,-20.86 634.83,-14.79"/>
<polygon fill="#63b8ff" stroke="#63b8ff" points="635.04,-18.29 644.8,-14.17 634.6,-11.3 635.04,-18.29"/>
</a>
</g>
</g>
<!-- Node15&#45;&gt;Node8 -->
<g id="edge21_Node000015_Node000008" class="edge">
<title>Node15&#45;&gt;Node8</title>
<g id="a_edge21_Node000015_Node000008"><a xlink:title=" ">
<path fill="none" stroke="#63b8ff" d="M743.96,-20.44C755.93,-24.59 769.76,-29.44 782.25,-34 793.23,-38.01 804.96,-42.4 816.12,-46.64"/>
<polygon fill="#63b8ff" stroke="#63b8ff" points="814.6,-49.81 825.19,-50.1 817.1,-43.27 814.6,-49.81"/>
</a>
</g>
</g>
</g>
</svg>
